<svg fill="none" viewBox="0 0 24 24" xmlns="http://www.w3.org/2000/svg"><path d="m3 3.6c0-1.26 0-1.89 0.245-2.37 0.216-0.424 0.56-0.768 0.983-0.984 0.481-0.245 1.11-0.245 2.37-0.245h10.8c1.26 0 1.89 0 2.37 0.245 0.423 0.216 0.768 0.56 0.983 0.984 0.245 0.482 0.245 1.11 0.245 2.37v17.6c0 1.2 0 1.81-0.253 2.19-0.222 0.331-0.566 0.56-0.956 0.638-0.447 0.0882-1-0.143-2.11-0.606l-4.75-2.12c-0.341-0.142-0.511-0.213-0.687-0.241-0.0762-0.0121-0.153-0.0184-0.23-0.0187-0.0809-3e-4 -0.162 0.0059-0.242 0.0187-0.176 0.0281-0.347 0.0991-0.687 0.241l-4.75 2.12c-1.11 0.463-1.67 0.695-2.11 0.606-0.391-0.0772-0.735-0.307-0.956-0.638-0.253-0.379-0.253-0.981-0.253-2.19v-17.6z" fill="#000"/></svg>
