<svg fill="none" viewBox="0 0 24 24" xmlns="http://www.w3.org/2000/svg"><path d="m12.1 20.3c0.0384 0.0029 0.0771 0.0072 0.115 0.0127 0.176 0.0258 0.346 0.0917 0.687 0.222l4.75 1.94c0.972 0.372 1.52 0.581 1.94 0.573l0.173-0.0166c0.342-0.0619 0.649-0.231 0.868-0.476l0.0889-0.109c0.19-0.26 0.237-0.636 0.249-1.27l0.0039-0.73v-16.1c0-1.01 1e-4 -1.58-0.164-2l-0.081-0.173c-0.189-0.34-0.476-0.624-0.828-0.822l-0.155-0.0801c-0.361-0.169-0.806-0.21-1.54-0.221l-0.834-0.00391v-1c0.615-2.75e-7 1.13-2.79e-4 1.55 0.0313 0.43 0.0323 0.845 0.103 1.24 0.288 0.604 0.282 1.11 0.739 1.43 1.32 0.218 0.392 0.3 0.804 0.337 1.22 0.0355 0.399 0.0342 0.885 0.0342 1.44v16.1c0 0.531 0.0016 1-0.0361 1.38-0.0383 0.386-0.127 0.823-0.409 1.21-0.382 0.524-0.958 0.865-1.59 0.978-0.449 0.0812-0.876-1e-4 -1.26-0.111-0.384-0.111-0.847-0.288-1.39-0.494l-0.0107-0.0039-0.0108-0.0049-4.75-1.94v-1e-3c-0.36-0.138-0.412-0.15-0.453-0.156-0.0294-0.0043-0.0599-0.0068-0.0898-0.0069-0.0314-1e-4 -0.063 0.0024-0.0938 0.0069-0.0409 6e-3 -0.0928 0.0184-0.454 0.156l-4.75 1.94-0.0107 0.0049-0.0107 0.0039c-0.539 0.206-1 0.384-1.39 0.494-0.387 0.111-0.814 0.192-1.26 0.111-0.628-0.114-1.2-0.455-1.59-0.978-0.282-0.386-0.371-0.822-0.409-1.21-0.0377-0.38-0.0361-0.853-0.0361-1.38v-16.1c0-0.56-0.00134-1.05 0.0342-1.44 0.0368-0.413 0.119-0.824 0.337-1.22 0.324-0.582 0.831-1.04 1.43-1.32 0.397-0.186 0.812-0.256 1.24-0.288 0.421-0.0315 0.937-0.0313 1.55-0.0313v1c-1.26 0-1.89-2.11e-4 -2.37 0.225-0.423 0.198-0.768 0.514-0.983 0.902l-0.0811 0.173c-0.164 0.422-0.164 0.991-0.164 2v16.1l0.00391 0.73c0.0119 0.637 0.0591 1.01 0.249 1.27 0.221 0.304 0.566 0.514 0.957 0.585 0.335 0.0605 0.731-0.0444 1.38-0.279l0.736-0.277 4.75-1.94c0.34-0.13 0.51-0.196 0.686-0.222 0.0801-0.0117 0.161-0.0169 0.242-0.0166l0.115 0.0039zm5.28-20.3v1h-10.8v-1h10.8z" fill="#000"/></svg>
