<svg viewBox="0 0 12 12" xmlns="http://www.w3.org/2000/svg"><path d="m6 4.5c-0.414 0-0.75-0.336-0.75-0.75s0.336-0.75 0.75-0.75 0.75 0.336 0.75 0.75-0.336 0.75-0.75 0.75z" fill="#000"/><path d="m5.44 6.06c0-0.311 0.252-0.562 0.562-0.562s0.562 0.252 0.562 0.562v2.38c0 0.311-0.252 0.562-0.562 0.562s-0.562-0.252-0.562-0.562v-2.38z" fill="#000"/><path d="m12 6c0 3.31-2.69 6-6 6s-6-2.69-6-6 2.69-6 6-6 6 2.69 6 6zm-1 0c0 2.76-2.24 5-5 5s-5-2.24-5-5 2.24-5 5-5 5 2.24 5 5z" clip-rule="evenodd" fill="#000" fill-rule="evenodd"/></svg>
