<svg fill="none" viewBox="0 0 12 12" xmlns="http://www.w3.org/2000/svg"><path d="m8.08 0.0999c0.19-0.06 0.39-0.0899 0.59-0.0899l-0.01-0.00999c0.2 0 0.4 0.03 0.59 0.0899 0.43 0.14 0.72 0.43 1.14 0.849l0.67 0.669c0.43 0.42 0.71 0.709 0.85 1.14 0.12 0.39 0.12 0.799 0 1.18-0.14 0.43-0.43 0.719-0.85 1.14l-5.46 5.46c-0.12 0.13-0.21 0.22-0.34 0.31-0.11 0.0799-0.23 0.15-0.36 0.2-0.137 0.0587-0.265 0.0887-0.429 0.127l-0.0106 0.0025-3.22 0.809c-0.08 0.03-0.16 0.03-0.24 0.03-0.26 0-0.52-0.0999-0.71-0.29-0.25-0.25-0.35-0.61-0.26-0.949l0.81-3.22 0.0025-0.0106c0.0388-0.165 0.0688-0.292 0.128-0.429 0.05-0.13 0.12-0.25 0.2-0.36 0.09-0.12 0.19-0.22 0.31-0.34l5.46-5.46c0.43-0.43 0.71-0.709 1.14-0.849zm0.87 0.949c-0.09-0.03-0.19-0.04-0.28-0.04v0.00999c-0.1 0-0.19 0.00999-0.28 0.04-0.2 0.06-0.38 0.24-0.74 0.6l-0.642 0.642 2.7 2.7 0.649-0.648c0.033-0.0339 0.0644-0.066 0.0944-0.0967 0.288-0.295 0.442-0.453 0.506-0.643 0.06-0.18 0.06-0.38 0-0.56-0.06-0.2-0.24-0.38-0.6-0.739l-0.67-0.669c-0.0339-0.0329-0.0661-0.0644-0.0968-0.0943-0.296-0.288-0.453-0.442-0.643-0.505zm0.0541 4.66-2.7-2.7-4.1 4.11c-0.0382 0.042-0.0706 0.0752-0.0982 0.104-0.0447 0.0459-0.0771 0.0792-0.102 0.116-0.04 0.05-0.07 0.11-0.1 0.17-0.0185 0.037-0.0294 0.0817-0.0445 0.143-0.00931 0.0382-0.0202 0.0828-0.0355 0.136l-0.81 3.22 3.22-0.809c0.14-0.03 0.21-0.05 0.28-0.0799 0.06-0.03 0.12-0.06 0.17-0.0999 0.06-0.04 0.11-0.09 0.22-0.2l4.1-4.1z" clip-rule="evenodd" fill="#000" fill-rule="evenodd"/></svg>
