<svg viewBox="0 0 12 12" xmlns="http://www.w3.org/2000/svg"><path d="m5.82 3c-0.328 0-0.61 0.15-0.74 0.508-0.0938 0.26-0.299 0.492-0.575 0.492s-0.5-0.172-0.5-0.498c0-0.825 0.946-1.5 1.82-1.5 1.19 0 2.04 1.12 1.76 2.26-0.08 0.32-0.246 0.615-0.48 0.849l-0.448 0.448c-0.0938 0.0938-0.146 0.221-0.146 0.354v0.586c0 0.276-0.224 0.5-0.5 0.5s-0.5-0.224-0.5-0.5v-0.586c0-0.398 0.158-0.779 0.439-1.06l0.448-0.448c0.105-0.105 0.181-0.239 0.217-0.384 0.13-0.519-0.263-1.02-0.789-1.02z" fill="#000"/><path d="m6.75 8.75c0 0.414-0.336 0.75-0.75 0.75s-0.75-0.336-0.75-0.75 0.336-0.75 0.75-0.75 0.75 0.336 0.75 0.75z" fill="#000"/><path d="m12 6c0 3.31-2.69 6-6 6s-6-2.69-6-6 2.69-6 6-6 6 2.69 6 6zm-1 0c0 2.76-2.24 5-5 5s-5-2.24-5-5 2.24-5 5-5 5 2.24 5 5z" clip-rule="evenodd" fill="#000" fill-rule="evenodd"/></svg>
