<svg viewBox="0 0 12 12" xmlns="http://www.w3.org/2000/svg"><path d="m6 6c-0.311 0-0.562-0.252-0.562-0.562v-2.88c0-0.311 0.252-0.562 0.562-0.562s0.562 0.252 0.562 0.562v2.88c0 0.311-0.252 0.562-0.562 0.562z" fill="#000"/><path d="m5.25 8c0-0.414 0.336-0.75 0.75-0.75s0.75 0.336 0.75 0.75-0.336 0.75-0.75 0.75-0.75-0.336-0.75-0.75z" fill="#000"/><path d="m11.9 3.78c-0.0459-0.191-0.122-0.374-0.224-0.542-0.118-0.192-0.276-0.35-0.434-0.507l-2.02-2.02c-0.157-0.157-0.315-0.316-0.507-0.434-0.168-0.103-0.351-0.179-0.542-0.224-0.219-0.0525-0.443-0.0522-0.665-0.0519h-3.11c-0.222-3.25e-4 -0.446-6.53e-4 -0.665 0.0519-0.191 0.0459-0.374 0.122-0.542 0.224-0.192 0.118-0.35 0.276-0.507 0.434l-2.02 2.02c-0.157 0.157-0.316 0.315-0.434 0.507-0.103 0.168-0.179 0.351-0.224 0.542-0.0525 0.219-0.0522 0.443-0.0519 0.665v3.11c-3.25e-4 0.222-6.53e-4 0.446 0.0519 0.665 0.0459 0.191 0.122 0.374 0.224 0.542 0.118 0.192 0.276 0.35 0.434 0.507l2.02 2.02c0.157 0.158 0.315 0.316 0.507 0.434 0.168 0.103 0.351 0.179 0.542 0.224 0.219 0.0525 0.443 0.0522 0.665 0.0519h3.11c0.222 3e-4 0.446 6e-4 0.665-0.0519 0.191-0.0459 0.374-0.122 0.542-0.224 0.192-0.118 0.35-0.276 0.507-0.434l2.02-2.02c0.158-0.157 0.316-0.315 0.434-0.507 0.103-0.168 0.179-0.351 0.224-0.542 0.0525-0.219 0.0522-0.443 0.0519-0.665v-3.11c3e-4 -0.222 6e-4 -0.446-0.0519-0.665zm-7.94-2.75c0.0838-0.0201 0.188-0.0246 0.43-0.0242h3.11 0.00146c0.242-3.54e-4 0.346 0.00412 0.43 0.0242 0.0893 0.0214 0.175 0.0568 0.253 0.105 0.0734 0.045 0.15 0.115 0.321 0.287l2.02 2.02 1e-3 0.00104c0.172 0.171 0.242 0.248 0.287 0.321 0.0479 0.0783 0.0833 0.164 0.105 0.253 0.0201 0.0837 0.0246 0.188 0.0243 0.43v3.11 0.00146c3e-4 0.242-0.0042 0.346-0.0243 0.43-0.0214 0.0893-0.0568 0.175-0.105 0.253-0.045 0.0734-0.115 0.15-0.287 0.321l-2.02 2.02-0.00103 1e-3c-0.171 0.172-0.248 0.242-0.321 0.287-0.0783 0.0479-0.164 0.0833-0.253 0.105-0.0837 0.0201-0.188 0.0246-0.43 0.0243h-3.11-0.00146c-0.242 3e-4 -0.346-0.0042-0.43-0.0243-0.0893-0.0214-0.175-0.0568-0.253-0.105-0.0734-0.045-0.15-0.115-0.321-0.287l-2.02-2.02-0.00104-0.00103c-0.172-0.171-0.242-0.248-0.287-0.321-0.048-0.0783-0.0833-0.164-0.105-0.253-0.0201-0.0838-0.0246-0.188-0.0242-0.43v-3.11-0.00147c-3.54e-4 -0.242 0.00412-0.346 0.0242-0.43 0.0214-0.0893 0.0568-0.175 0.105-0.253 0.045-0.0734 0.115-0.15 0.287-0.321l2.02-2.02c0.171-0.172 0.248-0.242 0.321-0.287 0.0783-0.048 0.164-0.0833 0.253-0.105z" clip-rule="evenodd" fill="#000" fill-rule="evenodd"/></svg>
