<svg viewBox="0 0 12 12" xmlns="http://www.w3.org/2000/svg"><path d="m5.44 6.44c0 0.311 0.252 0.562 0.562 0.562s0.562-0.252 0.562-0.562v-2.88c0-0.311-0.252-0.562-0.562-0.562s-0.562 0.252-0.562 0.562v2.88z" fill="#000"/><path d="m6 8.25c-0.414 0-0.75 0.336-0.75 0.75s0.336 0.75 0.75 0.75 0.75-0.336 0.75-0.75-0.336-0.75-0.75-0.75z" fill="#000"/><path d="m0.244 8.73 3.76-7.49c0.827-1.65 3.16-1.65 3.98 0l3.76 7.49c0.753 1.5-0.327 3.27-1.99 3.27h-7.53c-1.67 0-2.74-1.77-1.99-3.27zm0.894 0.449 3.76-7.49c0.458-0.911 1.74-0.911 2.2 0l3.76 7.49c0.425 0.846-0.192 1.82-1.1 1.82h-7.53c-0.907 0-1.52-0.976-1.1-1.82z" clip-rule="evenodd" fill="#000" fill-rule="evenodd"/></svg>
