<svg viewBox="0 0 16 16" xmlns="http://www.w3.org/2000/svg"><path d="m0 15 3.8 1e-4c1.12 0 1.68 0 2.11-0.218 0.376-0.192 0.682-0.498 0.874-0.874 0.218-0.428 0.218-0.988 0.218-2.11v-7.6c0-1.12 0-1.68-0.218-2.11-0.192-0.376-0.498-0.682-0.874-0.874-0.428-0.218-0.988-0.218-2.11-0.218l-3.8 5e-5v1l3.8-7e-5c0.577 0 0.949 7.8e-4 1.23 0.0239 0.272 0.0222 0.372 0.0599 0.422 0.0851 0.188 0.0959 0.341 0.249 0.437 0.437 0.0252 0.0494 0.0629 0.15 0.0851 0.422 0.0232 0.283 0.0239 0.656 0.0239 1.23v7.6c0 0.577-7.8e-4 0.949-0.0239 1.23-0.0222 0.272-0.0599 0.372-0.0851 0.422-0.0959 0.188-0.249 0.341-0.437 0.437-0.0494 0.0252-0.15 0.0629-0.422 0.0851-0.283 0.0231-0.656 0.0239-1.23 0.0239l-3.8-1e-4v1z" fill="#000"/><path d="m16 1-3.8-5e-5c-1.12 0-1.68 0-2.11 0.218-0.376 0.192-0.682 0.498-0.874 0.874-0.218 0.428-0.218 0.988-0.218 2.11v7.6c0 1.12 0 1.68 0.218 2.11 0.192 0.376 0.498 0.682 0.874 0.874 0.428 0.218 0.988 0.218 2.11 0.218l3.8-1e-4v-1l-3.8 1e-4c-0.577 0-0.949-8e-4 -1.23-0.0239-0.272-0.0222-0.372-0.0599-0.422-0.0851-0.188-0.0959-0.341-0.249-0.437-0.437-0.0252-0.0495-0.0629-0.15-0.0851-0.422-0.0231-0.283-0.0239-0.656-0.0239-1.23v-7.6c0-0.577 8e-4 -0.949 0.0239-1.23 0.0222-0.272 0.0599-0.372 0.0851-0.422 0.0959-0.188 0.249-0.341 0.437-0.437 0.0495-0.0252 0.15-0.0629 0.422-0.0851 0.283-0.0232 0.656-0.0239 1.23-0.0239l3.8 7e-5v-1z" fill="#000"/><path d="m4 4.5c0-0.276-0.224-0.5-0.5-0.5h-3.5v1h3.5c0.276 0 0.5-0.224 0.5-0.5z" fill="#000"/><path d="m3.5 7c0.276 0 0.5 0.224 0.5 0.5 0 0.276-0.224 0.5-0.5 0.5h-3.5v-1h3.5z" fill="#000"/><path d="m4 10.5c0-0.276-0.224-0.5-0.5-0.5h-3.5v1h3.5c0.276 0 0.5-0.224 0.5-0.5z" fill="#000"/><path d="m12.5 4c-0.276 0-0.5 0.224-0.5 0.5 0 0.276 0.224 0.5 0.5 0.5h3.5v-1h-3.5z" fill="#000"/><path d="m12 7.5c0-0.276 0.224-0.5 0.5-0.5h3.5v1h-3.5c-0.276 0-0.5-0.224-0.5-0.5z" fill="#000"/><path d="m12.5 10c-0.276 0-0.5 0.224-0.5 0.5 0 0.276 0.224 0.5 0.5 0.5h3.5v-1h-3.5z" fill="#000"/></svg>
