<svg viewBox="0 0 16 16" xmlns="http://www.w3.org/2000/svg"><path d="m12.9 0.218c-0.428-0.218-0.988-0.218-2.11-0.218h-5.6c-1.12 0-1.68 0-2.11 0.218-0.376 0.192-0.682 0.498-0.874 0.874-0.218 0.428-0.218 0.988-0.218 2.11v12.8h1v-12.8c0-0.577 7.8e-4 -0.949 0.0239-1.23 0.0222-0.272 0.0599-0.372 0.0851-0.422 0.0959-0.188 0.249-0.341 0.437-0.437 0.0494-0.0252 0.15-0.0629 0.422-0.0851 0.283-0.0232 0.656-0.0239 1.23-0.0239h5.6c0.577 0 0.949 7.8e-4 1.23 0.0239 0.272 0.0222 0.372 0.0599 0.422 0.0851 0.188 0.0959 0.341 0.249 0.437 0.437 0.0252 0.0494 0.0629 0.15 0.0851 0.422 0.0231 0.283 0.0239 0.656 0.0239 1.23v12.8h1v-12.8c0-1.12 0-1.68-0.218-2.11-0.192-0.376-0.498-0.682-0.874-0.874z" fill="#000"/><path d="m5.5 3c-0.276 0-0.5 0.224-0.5 0.5 0 0.276 0.224 0.5 0.5 0.5h5c0.276 0 0.5-0.224 0.5-0.5 0-0.276-0.224-0.5-0.5-0.5h-5z" fill="#000"/><path d="m5.5 6c-0.276 0-0.5 0.224-0.5 0.5 0 0.276 0.224 0.5 0.5 0.5h5c0.276 0 0.5-0.224 0.5-0.5 0-0.276-0.224-0.5-0.5-0.5h-5z" fill="#000"/><path d="m5 9.5c0-0.276 0.224-0.5 0.5-0.5h5c0.276 0 0.5 0.224 0.5 0.5 0 0.276-0.224 0.5-0.5 0.5h-5c-0.276 0-0.5-0.224-0.5-0.5z" fill="#000"/><path d="m5.5 12c-0.276 0-0.5 0.224-0.5 0.5 0 0.276 0.224 0.5 0.5 0.5h5c0.276 0 0.5-0.224 0.5-0.5 0-0.276-0.224-0.5-0.5-0.5h-5z" fill="#000"/><path d="m5 15.5c0-0.276 0.224-0.5 0.5-0.5h5c0.276 0 0.5 0.224 0.5 0.5v0.5h-6v-0.5z" fill="#000"/></svg>
