<svg fill="none" viewBox="0 0 16 16" xmlns="http://www.w3.org/2000/svg"><path d="m4.89 15.5c0.109-0.214 0.109-0.494 0.109-1.05v0.6h5.17c0.489 0 0.734 0 0.964-0.0553 0.204-0.049 0.399-0.13 0.578-0.239 0.202-0.124 0.375-0.297 0.721-0.642l1.63-1.63c0.346-0.346 0.519-0.519 0.643-0.721 0.11-0.179 0.19-0.374 0.239-0.578 0.0553-0.23 0.0553-0.475 0.0553-0.964v-4.37c0-0.291 0-0.556-0.0017-0.8h-0.571c0.542-3e-5 0.816-0.00178 1.03-0.109 0.188-0.0959 0.341-0.249 0.437-0.437 0.109-0.214 0.109-0.494 0.109-1.05v-1.8c0-0.56 0-0.84-0.109-1.05-0.0959-0.188-0.249-0.341-0.437-0.437-0.214-0.109-0.494-0.109-1.05-0.109h-12.8c-0.56 0-0.84 0-1.05 0.109-0.188 0.0959-0.341 0.249-0.437 0.437-0.109 0.214-0.109 0.494-0.109 1.05v12.8c0 0.56 0 0.84 0.109 1.05 0.0959 0.188 0.249 0.341 0.437 0.437 0.214 0.109 0.494 0.109 1.05 0.109h1.8c0.56 0 0.84 0 1.05-0.109 0.188-0.0959 0.341-0.249 0.437-0.437zm-0.891-14.5h-2.4c-0.297 0-0.459 7.8e-4 -0.575 0.0103l-0.0132 0.00115-0.00115 0.0132c-0.00952 0.117-0.0103 0.279-0.0103 0.575v1.4h0.5c0.276 0 0.5 0.224 0.5 0.5s-0.224 0.5-0.5 0.5h-0.5v2h0.5c0.276 0 0.5 0.224 0.5 0.5s-0.224 0.5-0.5 0.5h-0.5v2h0.5c0.276 0 0.5 0.224 0.5 0.5s-0.224 0.5-0.5 0.5h-0.5v2h0.5c0.276 0 0.5 0.224 0.5 0.5s-0.224 0.5-0.5 0.5h-0.5v1.4c0 0.296 7.8e-4 0.459 0.0103 0.575l0.00115 0.0132 0.0132 0.0011c0.117 0.0095 0.279 0.0103 0.575 0.0103h1.8c0.297 0 0.459-8e-4 0.575-0.0103l0.0132-0.0011 0.00115-0.0132c0.00952-0.117 0.0103-0.279 0.0103-0.575v-13.4zm10 4h-9v9h5v-3.5c0-0.276 0.224-0.5 0.5-0.5h3.5v-4.2c0-0.298-1e-4 -0.563-0.0018-0.8zm0.402-1h-9.4v-3h1v0.5c0 0.276 0.224 0.5 0.5 0.5s0.5-0.224 0.5-0.5v-0.5h2v0.5c0 0.276 0.224 0.5 0.5 0.5s0.5-0.224 0.5-0.5v-0.5h2v0.5c0 0.276 0.224 0.5 0.5 0.5s0.5-0.224 0.5-0.5v-0.5h1.4c0.296 0 0.459 7.8e-4 0.575 0.0103l0.0132 0.00115 0.0011 0.0132c0.0095 0.117 0.0103 0.279 0.0103 0.575v1.8c0 0.297-8e-4 0.459-0.0103 0.575l-0.0011 0.0132-0.0132 0.00115c-0.117 0.00952-0.279 0.0103-0.575 0.0103zm-3.4 9.94c0.0677-0.0235 0.133-0.0543 0.194-0.0919 0.0774-0.0474 0.156-0.117 0.536-0.497l1.63-1.63c0.38-0.38 0.45-0.459 0.497-0.536 0.0376-0.0613 0.0684-0.126 0.0919-0.194h-2.94v2.94z" clip-rule="evenodd" fill="#000" fill-rule="evenodd"/></svg>
