<svg viewBox="0 0 16 16" xmlns="http://www.w3.org/2000/svg"><path d="m5 6.5c0-0.276 0.224-0.5 0.5-0.5h5c0.276 0 0.5 0.224 0.5 0.5s-0.224 0.5-0.5 0.5h-5c-0.276 0-0.5-0.224-0.5-0.5z" fill="#000"/><path d="m5.5 9c-0.276 0-0.5 0.224-0.5 0.5s0.224 0.5 0.5 0.5h5c0.276 0 0.5-0.224 0.5-0.5s-0.224-0.5-0.5-0.5h-5z" fill="#000"/><path d="m5 12.5c0-0.276 0.224-0.5 0.5-0.5h5c0.276 0 0.5 0.224 0.5 0.5s-0.224 0.5-0.5 0.5h-5c-0.276 0-0.5-0.224-0.5-0.5z" fill="#000"/><path d="m5.5 3c-0.276 0-0.5 0.224-0.5 0.5s0.224 0.5 0.5 0.5h2.5v-1h-2.5z" fill="#000"/><path d="m14 4.57c0.0032-0.0226 0.0048-0.0458 0.0048-0.0693 0-0.0583-0.01-0.114-0.0283-0.166-0.0038-0.0212-0.0082-0.042-0.0131-0.0626-0.0368-0.153-0.0974-0.299-0.18-0.434-0.0928-0.151-0.222-0.281-0.482-0.541l-2.59-2.59c-0.259-0.259-0.389-0.389-0.54-0.482-0.134-0.0822-0.28-0.143-0.434-0.18-0.0206-0.00495-0.0414-0.00931-0.0626-0.0131-0.052-0.0183-0.108-0.0283-0.166-0.0283-0.0235 0-0.0466 0.00162-0.0693 0.00476-0.111-0.00476-0.246-0.00476-0.425-0.00476h-2.21c-1.68 0-2.52 0-3.16 0.327-0.564 0.288-1.02 0.747-1.31 1.31-0.327 0.642-0.327 1.48-0.327 3.16v6.4c0 1.68 0 2.52 0.327 3.16 0.288 0.564 0.747 1.02 1.31 1.31 0.642 0.327 1.48 0.327 3.16 0.327h2.4c1.68 0 2.52 0 3.16-0.327 0.564-0.288 1.02-0.746 1.31-1.31 0.327-0.642 0.327-1.48 0.327-3.16v-6.21c0-0.178 0-0.313-0.0048-0.425zm-2.91 10.4c-0.45 0.0368-1.03 0.0376-1.89 0.0376h-2.4c-0.857 0-1.44-8e-4 -1.89-0.0376-0.438-0.0358-0.663-0.101-0.819-0.18-0.376-0.192-0.682-0.498-0.874-0.874-0.0797-0.156-0.145-0.381-0.18-0.819-0.0368-0.45-0.0376-1.03-0.0376-1.89v-6.4c0-0.857 7.8e-4 -1.44 0.0376-1.89 0.0358-0.438 0.101-0.663 0.18-0.819 0.192-0.376 0.498-0.682 0.874-0.874 0.156-0.0797 0.381-0.145 0.819-0.18 0.45-0.0368 1.03-0.0376 1.89-0.0376h2.2v3.5c0 0.276 0.224 0.5 0.5 0.5h3.5v6.2c0 0.857-8e-4 1.44-0.0376 1.89-0.0358 0.438-0.101 0.663-0.18 0.819-0.192 0.376-0.498 0.682-0.874 0.874-0.156 0.0797-0.381 0.145-0.819 0.18zm-1.09-13.5 2.59 2.59h-2.59v-2.59z" clip-rule="evenodd" fill="#000" fill-rule="evenodd"/></svg>
