<svg viewBox="0 0 16 16" xmlns="http://www.w3.org/2000/svg"><path d="m5.5 5c-0.276 0-0.5 0.224-0.5 0.5s0.224 0.5 0.5 0.5h5c0.276 0 0.5-0.224 0.5-0.5s-0.224-0.5-0.5-0.5h-5z" fill="#000"/><path d="m5 7.5c0-0.276 0.224-0.5 0.5-0.5h5c0.276 0 0.5 0.224 0.5 0.5s-0.224 0.5-0.5 0.5h-5c-0.276 0-0.5-0.224-0.5-0.5z" fill="#000"/><path d="m5.5 9c-0.276 0-0.5 0.224-0.5 0.5s0.224 0.5 0.5 0.5h3c0.276 0 0.5-0.224 0.5-0.5s-0.224-0.5-0.5-0.5h-3z" fill="#000"/><path d="m3 4.4c0-0.84 0-1.26 0.163-1.58 0.144-0.282 0.373-0.512 0.656-0.656 0.321-0.163 0.741-0.163 1.58-0.163h5.2c0.84 0 1.26 0 1.58 0.163 0.282 0.144 0.512 0.373 0.656 0.656 0.164 0.321 0.164 0.741 0.164 1.58v7.2c0 0.84 0 1.26-0.164 1.58-0.144 0.282-0.373 0.512-0.656 0.656-0.321 0.164-0.741 0.164-1.58 0.164h-5.2c-0.84 0-1.26 0-1.58-0.164-0.282-0.144-0.512-0.373-0.656-0.656-0.163-0.321-0.163-0.741-0.163-1.58v-7.2zm2.4-1.4h5.2c0.436 0 0.704 7.8e-4 0.904 0.0171 0.0931 0.00761 0.15 0.0172 0.184 0.0252 0.0163 0.00383 0.0263 0.00704 0.0317 0.00898 0.0052 0.00185 0.0078 0.00317 0.0078 0.00317 0.0941 0.0479 0.171 0.124 0.218 0.218 0 0 0.0013 0.00259 0.0032 0.00779 0.0019 0.00541 0.0051 0.0154 9e-3 0.0317 8e-3 0.0342 0.0176 0.0906 0.0252 0.184 0.0163 0.2 0.0171 0.467 0.0171 0.904v7.2c0 0.436-8e-4 0.704-0.0171 0.904-0.0076 0.0931-0.0172 0.15-0.0252 0.184-0.0039 0.0163-0.0071 0.0263-9e-3 0.0317-0.0019 0.0052-0.0032 0.0078-0.0032 0.0078-0.0479 0.0941-0.124 0.171-0.218 0.218 0 0-0.0026 0.0013-0.0078 0.0032-0.0054 0.0019-0.0154 0.0051-0.0317 9e-3 -0.0342 8e-3 -0.0906 0.0176-0.184 0.0252-0.2 0.0163-0.467 0.0171-0.904 0.0171h-5.2c-0.437 0-0.704-8e-4 -0.904-0.0171-0.0932-0.0076-0.15-0.0172-0.184-0.0252-0.0163-0.0039-0.0263-0.0071-0.0317-9e-3 -0.0052-0.0019-0.00779-0.0032-0.00779-0.0032-0.0941-0.0479-0.171-0.124-0.218-0.218 0 0-0.00132-0.0026-0.00317-0.0078-0.00194-0.0054-0.00515-0.0154-0.00898-0.0317-0.00806-0.0342-0.0176-0.0906-0.0252-0.184-0.0163-0.2-0.0171-0.467-0.0171-0.904v-7.2c0-0.437 7.8e-4 -0.704 0.0171-0.904 0.00761-0.0932 0.0172-0.15 0.0252-0.184 0.00383-0.0163 0.00704-0.0263 0.00898-0.0317 0.00185-0.0052 0.00317-0.00779 0.00317-0.00779 0.0479-0.0941 0.124-0.171 0.218-0.218 0 0 0.00259-0.00132 0.00779-0.00317 0.00541-0.00194 0.0154-0.00515 0.0317-0.00898 0.0342-0.00806 0.0906-0.0176 0.184-0.0252 0.2-0.0163 0.467-0.0171 0.904-0.0171z" clip-rule="evenodd" fill="#000" fill-rule="evenodd"/></svg>
