<svg viewBox="0 0 16 16" xmlns="http://www.w3.org/2000/svg"><path d="m14 16v-2.01c0-0.178 0-0.313-0.0048-0.425 0.0032-0.0226 0.0048-0.0458 0.0048-0.0693 0-0.0583-0.01-0.114-0.0283-0.166-0.0038-0.0212-0.0082-0.042-0.0131-0.0626-0.0368-0.153-0.0974-0.299-0.18-0.434-0.0928-0.151-0.222-0.281-0.482-0.54l-2.59-2.59c-0.259-0.259-0.389-0.389-0.54-0.482-0.134-0.0822-0.28-0.143-0.434-0.18-0.0206-0.00495-0.0414-0.00931-0.0626-0.0132-0.052-0.0183-0.108-0.0283-0.166-0.0283-0.0235 0-0.0466 0.00163-0.0693 0.00476-0.111-0.00476-0.246-0.00476-0.425-0.00476h-2.21c-1.68 0-2.52 0-3.16 0.327-0.564 0.288-1.02 0.747-1.31 1.31-0.327 0.642-0.327 1.48-0.327 3.16v2.2h1v-2.2c0-0.857 7.8e-4 -1.44 0.0376-1.89 0.0358-0.438 0.101-0.663 0.18-0.819 0.192-0.376 0.498-0.682 0.874-0.874 0.156-0.0797 0.381-0.145 0.819-0.18 0.45-0.0368 1.03-0.0376 1.89-0.0376h2.2v3.5c0 0.276 0.224 0.5 0.5 0.5h3.5v2h1zm-4-5.59 2.59 2.59h-2.59v-2.59z" clip-rule="evenodd" fill="#000" fill-rule="evenodd"/><path d="m16 3.5c0 0.0678-0.0135 0.132-0.0379 0.191-0.0244 0.059-0.0606 0.114-0.108 0.162l-3 3c-0.195 0.195-0.512 0.195-0.707 0-0.195-0.195-0.195-0.512 0-0.707l2.15-2.15h-12.6l2.15 2.15c0.195 0.195 0.195 0.512 0 0.707-0.195 0.195-0.512 0.195-0.707 0l-3-3c-0.0479-0.0479-0.0841-0.103-0.109-0.162-0.0244-0.059-0.0379-0.124-0.0379-0.191 0-0.0678 0.0135-0.132 0.0379-0.191 0.0244-0.059 0.0606-0.114 0.109-0.162l3-3c0.195-0.195 0.512-0.195 0.707 0 0.195 0.195 0.195 0.512 0 0.707l-2.15 2.15h12.6l-2.15-2.15c-0.195-0.195-0.195-0.512 0-0.707 0.195-0.195 0.512-0.195 0.707 0l3 3c0.0479 0.0479 0.0841 0.103 0.108 0.162 0.0244 0.059 0.0379 0.124 0.0379 0.191z" fill="#000"/></svg>
