<svg viewBox="0 0 16 16" xmlns="http://www.w3.org/2000/svg"><path d="m9.83 0 1.17 1v0.00176c0.446 0.00313 0.795 0.0118 1.09 0.0358 0.438 0.0358 0.663 0.101 0.819 0.18 0.376 0.192 0.682 0.498 0.874 0.874 0.0797 0.156 0.145 0.381 0.18 0.819 0.0368 0.45 0.0376 1.03 0.0376 1.89v1.2l1 1.17v-2.37c0-1.68 0-2.52-0.327-3.16-0.288-0.564-0.746-1.02-1.31-1.31-0.642-0.327-1.48-0.327-3.16-0.327h-0.367z" fill="#000"/><path d="m5.17 7.97e-4 -1.17 0.999v0.0309c-0.0302 0.00209-0.0599 0.00431-0.089 0.00669-0.438 0.0358-0.663 0.101-0.819 0.18-0.376 0.192-0.682 0.498-0.874 0.874-0.0797 0.156-0.145 0.381-0.18 0.819-0.0368 0.45-0.0376 1.03-0.0376 1.89v1.2l-1 1.17v-2.37c0-1.68 0-2.52 0.327-3.16 0.288-0.564 0.747-1.02 1.31-1.31 0.555-0.283 1.26-0.321 2.53-0.326z" fill="#000"/><path d="m3.91 15c0.0291 0.0024 0.0587 0.0047 0.089 0.0067v0.0309l1.17 0.999c-1.27-0.0051-1.97-0.0432-2.53-0.326-0.564-0.288-1.02-0.746-1.31-1.31-0.283-0.555-0.321-1.26-0.326-2.53l0.999 1.17h0.0309c0.00209 0.0302 0.00432 0.0599 0.00669 0.089 0.0358 0.438 0.101 0.663 0.18 0.819 0.192 0.376 0.498 0.682 0.874 0.874 0.156 0.0797 0.381 0.145 0.819 0.18z" fill="#000"/><path d="m9.83 16 1.17-1v-0.0018c0.446-0.0031 0.795-0.0118 1.09-0.0358 0.438-0.0358 0.663-0.101 0.819-0.18 0.376-0.192 0.682-0.498 0.874-0.874 0.0797-0.156 0.145-0.381 0.18-0.819 0.0024-0.0291 0.0046-0.0588 0.0067-0.089h0.0309l0.999-1.17c-0.0051 1.27-0.0432 1.97-0.326 2.53-0.288 0.564-0.746 1.02-1.31 1.31-0.642 0.327-1.48 0.327-3.16 0.327h-0.367z" fill="#000"/><path d="m4.85 7.85c0.195-0.195 0.195-0.512 0-0.707-0.195-0.195-0.512-0.195-0.707 0l-2 2c-0.0479 0.0479-0.0841 0.103-0.109 0.162-0.0244 0.059-0.0379 0.124-0.0379 0.191 0 8e-3 1.9e-4 0.016 5.7e-4 0.024 0.00273 0.0571 0.0152 0.114 0.0374 0.167 0.0244 0.059 0.0606 0.114 0.109 0.162l2 2c0.195 0.195 0.512 0.195 0.707 0 0.195-0.195 0.195-0.512 0-0.707l-1.15-1.15h3.29v4.29l-1.15-1.15c-0.195-0.195-0.512-0.195-0.707 0-0.195 0.195-0.195 0.512 0 0.707l2 2c0.0479 0.0479 0.103 0.0841 0.162 0.108 0.059 0.0244 0.124 0.0379 0.191 0.0379s0.132-0.0135 0.191-0.0379c0.059-0.0244 0.114-0.0606 0.162-0.108l2-2c0.195-0.195 0.195-0.512 0-0.707-0.195-0.195-0.512-0.195-0.707 0l-1.15 1.15v-4.29h4.29l-1.15 1.15c-0.195 0.195-0.195 0.512 0 0.707 0.195 0.195 0.512 0.195 0.707 0l2-2c0.0479-0.0479 0.0841-0.103 0.108-0.162 0.024-0.0581 0.0375-0.122 0.0379-0.188v-3e-3 -3e-3c-4e-4 -0.0667-0.0139-0.13-0.0379-0.188-0.0244-0.059-0.0606-0.114-0.108-0.162l-2-2c-0.195-0.195-0.512-0.195-0.707 0-0.195 0.195-0.195 0.512 0 0.707l1.15 1.15h-4.29v-7.29l1.15 1.15c0.195 0.195 0.512 0.195 0.707 0 0.195-0.195 0.195-0.512 0-0.707l-2-2c-0.0479-0.0479-0.103-0.0841-0.162-0.109-0.00642-0.00266-0.0129-0.0052-0.0195-0.0076-0.0536-0.0196-0.112-0.0303-0.172-0.0303-0.0678 0-0.132 0.0135-0.191 0.0379-0.059 0.0244-0.114 0.0606-0.162 0.109l-2 2c-0.195 0.195-0.195 0.512 0 0.707 0.195 0.195 0.512 0.195 0.707 0l1.15-1.15v7.29h-3.29l1.15-1.15z" fill="#000"/></svg>
