<svg viewBox="0 0 16 16" xmlns="http://www.w3.org/2000/svg"><path d="m2.2 1h-2.2v-1h2.2c1.68 0 2.52 0 3.16 0.327 0.564 0.288 1.02 0.747 1.31 1.31 0.327 0.642 0.327 1.48 0.327 3.16v6.21c0 0.178 0 0.313-0.00476 0.425 0.00314 0.0227 0.00476 0.0458 0.00476 0.0693 0 0.0583-0.00997 0.114-0.0283 0.166-0.00384 0.0213-0.00819 0.042-0.0131 0.0626-0.0368 0.153-0.0974 0.299-0.18 0.434-0.0928 0.151-0.222 0.281-0.482 0.54l-2.59 2.59c-0.259 0.259-0.389 0.389-0.541 0.482-0.134 0.0822-0.281 0.143-0.434 0.18-0.0206 0.0049-0.0414 0.0093-0.0626 0.0131-0.052 0.0183-0.108 0.0283-0.166 0.0283-0.0235 0-0.0466-0.0016-0.0693-0.0048-0.111 0.0048-0.246 0.0048-0.425 0.0048h-2.01v-1h2v-3.5c0-0.276 0.224-0.5 0.5-0.5h3.5v-6.2c0-0.857-7.8e-4 -1.44-0.0376-1.89-0.0358-0.438-0.101-0.663-0.18-0.819-0.192-0.376-0.498-0.682-0.874-0.874-0.156-0.0797-0.381-0.145-0.819-0.18-0.45-0.0368-1.03-0.0376-1.89-0.0376zm3.39 11h-2.59v2.59l2.59-2.59z" clip-rule="evenodd" fill="#000" fill-rule="evenodd"/><path d="m9.85 3.85 2.15-2.15v12.6l-2.15-2.15c-0.195-0.195-0.512-0.195-0.707 0-0.195 0.195-0.195 0.512 0 0.707l3 3c0.048 0.0479 0.103 0.0841 0.162 0.108s0.124 0.0379 0.191 0.0379 0.132-0.0135 0.191-0.0379 0.114-0.0606 0.162-0.108l3-3c0.195-0.195 0.195-0.512 0-0.707-0.195-0.195-0.512-0.195-0.707 0l-2.15 2.15v-12.6l2.15 2.15c0.195 0.195 0.512 0.195 0.707 0 0.195-0.195 0.195-0.512 0-0.707l-3-3c-0.048-0.0479-0.103-0.0841-0.162-0.109-0.059-0.0244-0.124-0.0379-0.191-0.0379s-0.132 0.0135-0.191 0.0379c-0.059 0.0244-0.114 0.0606-0.162 0.109l-3 3c-0.195 0.195-0.195 0.512 0 0.707 0.195 0.195 0.512 0.195 0.707 0z" fill="#000"/></svg>
