<svg fill="none" viewBox="0 0 16 16" xmlns="http://www.w3.org/2000/svg"><path d="m6.19 6.1c0.0816 0.12 0.195 0.234 0.34 0.342l0.537 0.379c0.376 0.266 0.642 0.542 0.796 0.826 0.154 0.284 0.231 0.641 0.231 1.07 0 0.67-0.17 1.22-0.51 1.65-0.335 0.424-0.771 0.636-1.31 0.636-0.426 0-0.874-0.174-1.34-0.522 0.0407-0.152 0.073-0.281 0.0957-0.389 0.0227-0.107 0.0411-0.197 0.0547-0.267 0.0408-0.19 0.0767-0.417 0.108-0.683l0.0752-0.0469c0.0543 0.177 0.0972 0.3 0.129 0.369 0.0317 0.0695 0.0792 0.158 0.143 0.266 0.227 0.348 0.481 0.521 0.762 0.521 0.213 0 0.393-0.091 0.538-0.274 0.145-0.183 0.218-0.411 0.218-0.683-2e-5 -0.392-0.173-0.706-0.518-0.939l-0.571-0.398c-0.612-0.424-0.918-1.06-0.918-1.9 1e-5 -0.0193 0.00164-0.0385 0.00196-0.0576h1.09c0.0139 0.034 0.0297 0.0659 0.0479 0.0957zm9.61-0.0957c0.133 0.442 0.202 0.941 0.202 1.5 0 1.04-0.242 1.89-0.728 2.53-0.485 0.645-1.12 0.968-1.91 0.968-0.766-1e-4 -1.38-0.316-1.86-0.948-0.472-0.632-0.708-1.47-0.708-2.5 1e-4 -0.578 0.0715-1.09 0.208-1.55h1.13c-0.0959 0.407-0.144 0.908-0.144 1.5 0 0.929 0.121 1.64 0.361 2.13 0.245 0.487 0.596 0.73 1.05 0.731 0.444 0 0.787-0.237 1.03-0.711 0.24-0.474 0.36-1.14 0.36-2.01 0-0.687-0.0465-1.23-0.138-1.64h1.14zm-12.3 0c0.105 0.444 0.227 0.953 0.368 1.53 0.272 1.11 0.497 1.97 0.674 2.58l0.252 0.806c-0.159 0-0.293-0.0025-0.401-0.0088-0.104-0.0063-0.208-0.0132-0.312-0.0196-0.104 0-0.236 7e-3 -0.395 0.0196-0.154 0.0063-0.257 0.0088-0.307 0.0088l-0.136-0.768-0.286-1.36-0.734-0.0195-0.891 0.0293c-0.0363 0.126-0.0916 0.325-0.164 0.597-0.0544 0.209-0.12 0.469-0.197 0.778-0.0136 0.057-0.0403 0.168-0.0811 0.332-0.0181 0.0822-0.0504 0.218-0.0957 0.407-0.131-0.0189-0.226-0.0283-0.285-0.0284h-0.307c-0.0679 0.0127-0.125 0.022-0.17 0.0284l0.149-0.427c0.122-0.354 0.249-0.749 0.381-1.19 0.15-0.487 0.325-1.08 0.524-1.78 0.172-0.591 0.314-1.1 0.43-1.52h0.611l-0.572 1.97 0.626 0.0195 0.605-0.0195-0.474-1.97h1.19zm6.56 0.371c-0.0181 0.581-0.0264 1.02-0.0264 1.31l0.0205 1.18c0 0.196 0.0106 0.531 0.0332 1 0.0227 0.474 0.0342 0.825 0.0342 1.05l-0.619-0.0284-0.659 0.0284 0.0469-1.03c0-0.234 0.00691-0.607 0.0205-1.12 0.0136-0.512 0.0205-0.905 0.0205-1.18l-0.0137-1.43c0-0.0469-0.00176-0.0981-0.00293-0.153h1.16c-0.0032 0.116-0.0057 0.239-0.0098 0.371zm-6.91-1.94c0.0323 0.162 0.0743 0.353 0.123 0.573h-1.49c0.0845-0.321 0.163-0.625 0.233-0.914 0.118 0.0189 0.21 0.0308 0.278 0.0371 0.0725 0.00631 0.159 0.00976 0.259 0.00976 0.077 0 0.15-0.00345 0.218-0.00976 0.068-0.00633 0.171-0.0182 0.307-0.0371l0.0674 0.341zm3.65-0.427c0.245 0 0.465 0.0443 0.66 0.133 0.199 0.0885 0.397 0.234 0.592 0.437-0.0317 0.0947-0.0617 0.18-0.0889 0.256-0.0163 0.0499-0.0322 0.109-0.0508 0.175h-0.618c-0.156-0.173-0.337-0.26-0.542-0.26-0.181 1e-4 -0.333 0.082-0.455 0.246-0.00317 0.00425-0.00573 0.00934-0.00879 0.0137h-0.99c0.0702-0.157 0.157-0.301 0.264-0.431 0.313-0.379 0.726-0.569 1.24-0.569zm3.29 1h-1.22c-0.0168-0.348-0.0254-0.65-0.0254-0.905 0.109 1e-5 0.227 0.00592 0.354 0.0186 0.127 0.0126 0.222 0.0195 0.285 0.0195h0.082c0.0771 0 0.154-0.00344 0.231-0.00976 0.0816-0.00633 0.19-0.0182 0.326-0.0371l-0.0312 0.914zm3.34-1c0.784 0 1.42 0.319 1.89 0.958 0.0102 0.0137 0.0194 0.0281 0.0293 0.042h-1.18c-0.224-0.21-0.473-0.317-0.749-0.317-0.305 7e-5 -0.559 0.107-0.766 0.317h-1.13c0.0075-0.0107 0.0147-0.0217 0.0224-0.0322 0.472-0.645 1.1-0.968 1.88-0.968z" fill="#000"/></svg>
