<svg fill="none" viewBox="0 0 16 16" xmlns="http://www.w3.org/2000/svg"><path d="m3.2 14.9c-0.548 0-1.07-0.218-1.46-0.605-0.388-0.388-0.605-0.913-0.605-1.46v-9.6c0-0.548 0.218-1.07 0.605-1.46 0.388-0.388 0.913-0.605 1.46-0.605h9.6c0.548 0 1.07 0.218 1.46 0.605 0.388 0.388 0.605 0.913 0.605 1.46v9.6c0 0.548-0.218 1.07-0.605 1.46-0.388 0.388-0.913 0.605-1.46 0.605h-9.6zm8.39-5.8h-1.45v4.8h2.67c0.283 0 0.554-0.112 0.754-0.312 0.2-0.2 0.312-0.471 0.312-0.754v-9.6c0-0.283-0.112-0.554-0.312-0.754-0.2-0.2-0.471-0.312-0.754-0.312h-9.6c-0.283 0-0.554 0.112-0.754 0.312s-0.312 0.471-0.312 0.754v9.6c0 0.283 0.112 0.554 0.312 0.754 0.2 0.2 0.471 0.312 0.754 0.312h5.33v-4.8h-1.6v-1.6h1.6v-0.859c0-1.63 0.793-2.34 2.14-2.34 0.635 0 0.976 0.0461 1.14 0.0686l0.0098 0.00131v1.53h-0.922c-0.465 0-0.685 0.199-0.751 0.6-0.0157 0.0942-0.023 0.2-0.023 0.316v0.684h1.68l-0.228 1.6z" clip-rule="evenodd" fill="#000" fill-rule="evenodd"/></svg>
