<svg fill="none" viewBox="0 0 16 16" xmlns="http://www.w3.org/2000/svg"><path d="m3.11 15c-0.559 0-1.09-0.222-1.49-0.617s-0.617-0.931-0.617-1.49v-9.79c0-0.559 0.222-1.09 0.617-1.49s0.931-0.617 1.49-0.617h9.79c0.559 0 1.09 0.222 1.49 0.617s0.617 0.931 0.617 1.49v9.79c0 0.559-0.222 1.09-0.617 1.49s-0.931 0.617-1.49 0.617h-9.79zm8.55-5.91h-1.48v4.89h2.72c0.288 0 0.565-0.115 0.769-0.318s0.318-0.48 0.318-0.769v-9.79c0-0.288-0.115-0.565-0.318-0.769-0.204-0.204-0.48-0.318-0.769-0.318h-9.79c-0.288 0-0.565 0.115-0.769 0.318-0.204 0.204-0.318 0.481-0.318 0.769v9.79c0 0.288 0.115 0.565 0.318 0.769 0.204 0.204 0.481 0.318 0.769 0.318h5.44v-4.89h-1.63v-1.63h1.63v-0.876c0-1.66 0.808-2.39 2.19-2.39 0.647 0 0.995 0.047 1.16 0.0699l0.0099 0.00134v1.56h-0.94c-0.474 0-0.698 0.203-0.766 0.612-0.016 0.0961-0.0233 0.204-0.0233 0.322v0.697h1.71l-0.233 1.63z" clip-rule="evenodd" fill="#000" fill-rule="evenodd"/></svg>
