<svg fill="none" viewBox="0 0 16 16" xmlns="http://www.w3.org/2000/svg"><path d="m16 8c0 4.42-3.58 8-8 8-4.42 0-8-3.58-8-8 0-4.42 3.58-8 8-8 4.42 0 8 3.58 8 8zm-9.64 6.81v-1.49c-1.9 0.426-2.31-0.852-2.31-0.852-0.306-0.828-0.758-1.04-0.758-1.04-0.622-0.438 0.0453-0.438 0.0453-0.438 0.69 0.0473 1.05 0.734 1.05 0.734 0.611 1.09 1.6 0.781 1.99 0.592 0.0565-0.462 0.238-0.781 0.43-0.959-1.52-0.166-3.11-0.781-3.11-3.53 0-0.781 0.271-1.42 0.702-1.92-0.0679-0.177-0.306-0.911 0.068-1.89 0 0 0.577-0.189 1.88 0.734 0.557-0.156 1.13-0.236 1.71-0.237 0.577 0 1.17 0.0829 1.71 0.237 1.3-0.923 1.88-0.734 1.88-0.734 0.374 0.982 0.136 1.72 0.0678 1.89 0.442 0.497 0.702 1.14 0.702 1.92 0 2.75-1.6 3.35-3.12 3.53 0.249 0.225 0.501 0.651 0.501 1.33v2.09c3-0.79 5.21-3.52 5.21-6.77 0-3.87-3.13-7-7-7-3.87 0-7 3.13-7 7 0 3.3 2.29 6.07 5.36 6.81z" clip-rule="evenodd" fill="#000" fill-rule="evenodd"/></svg>
