<svg fill="none" viewBox="0 0 16 16" xmlns="http://www.w3.org/2000/svg"><path d="m15.3 6.57-0.0211-0.0525-2.04-5.19c-0.0415-0.102-0.115-0.188-0.21-0.246-0.0951-0.0575-0.206-0.0851-0.318-0.0793-0.112 0.00584-0.219 0.0449-0.307 0.112-0.0872 0.069-0.15 0.162-0.181 0.268l-1.38 4.11h-5.58l-1.38-4.11c-0.0299-0.106-0.0933-0.2-0.181-0.268-0.0882-0.067-0.195-0.106-0.307-0.112-0.112-0.00585-0.223 0.0218-0.318 0.0793-0.0948 0.0587-0.168 0.145-0.21 0.246l-2.05 5.18-0.0203 0.0525c-0.294 0.748-0.33 1.57-0.103 2.34 0.227 0.769 0.704 1.45 1.36 1.93l0.00703 0.0053 0.0187 0.0129 3.11 2.27 2.48 1.82c0.11 0.081 0.244 0.125 0.381 0.125 0.138 0 0.272-0.0439 0.381-0.125l2.48-1.82 3.13-2.28 0.0078-6e-3c0.655-0.482 1.13-1.16 1.36-1.93 0.226-0.768 0.191-1.59-0.102-2.33z" stroke="#000" stroke-linejoin="round"/></svg>
