<svg viewBox="0 0 16 16" xmlns="http://www.w3.org/2000/svg"><path d="m8 10.2c-0.596-9e-4 -1.17-0.238-1.59-0.66-0.422-0.422-0.659-0.994-0.66-1.59 9.3e-4 -0.596 0.238-1.17 0.66-1.59 0.422-0.422 0.994-0.659 1.59-0.66 0.596 9.3e-4 1.17 0.238 1.59 0.66 0.422 0.422 0.659 0.994 0.66 1.59-9e-4 0.596-0.238 1.17-0.66 1.59-0.422 0.422-0.994 0.659-1.59 0.66z" fill="#000"/><path d="m5.08 1.05c0.594-0.0313 1.57-0.047 2.92-0.047s2.33 0.0157 2.92 0.047c0.525 0.019 1.05 0.108 1.55 0.266 0.511 0.182 0.975 0.476 1.36 0.86s0.677 0.848 0.859 1.36c0.159 0.507 0.253 1.03 0.282 1.56 0.0207 0.583 0.031 1.55 0.031 2.91s-0.0157 2.33-0.047 2.92c-0.019 0.525-0.108 1.05-0.266 1.55-0.182 0.511-0.476 0.975-0.86 1.36s-0.848 0.677-1.36 0.86c-0.502 0.157-1.02 0.246-1.55 0.266-0.594 0.0313-1.57 0.047-2.92 0.047s-2.33-0.0157-2.92-0.047c-0.528-0.0182-1.05-0.118-1.55-0.296-0.513-0.162-0.98-0.446-1.36-0.828-0.384-0.383-0.678-0.848-0.86-1.36-0.157-0.502-0.247-1.02-0.266-1.55-0.0313-0.594-0.047-1.57-0.047-2.92s0.0157-2.33 0.047-2.92c0.019-0.525 0.108-1.05 0.266-1.55 0.182-0.511 0.476-0.976 0.86-1.36s0.848-0.677 1.36-0.86c0.501-0.157 1.02-0.247 1.55-0.266zm6.19 2.47c0.144-0.0959 0.313-0.147 0.486-0.146 0.231 0.00272 0.452 0.0958 0.616 0.259 0.164 0.164 0.257 0.384 0.259 0.616-0.0185 0.231-0.116 0.448-0.275 0.616-0.0756 0.0836-0.168 0.15-0.272 0.195s-0.215 0.0668-0.328 0.0647c-0.115 0.00109-0.229-0.0214-0.335-0.066-0.106-0.0446-0.202-0.11-0.281-0.193-0.123-0.122-0.207-0.277-0.241-0.447-0.0344-0.17-0.0174-0.346 0.0487-0.505 0.0661-0.16 0.178-0.296 0.322-0.392zm-5.01 1.45c0.53-0.312 1.13-0.475 1.75-0.472 0.615-0.00375 1.22 0.159 1.75 0.472 0.53 0.307 0.971 0.748 1.28 1.28 0.309 0.532 0.472 1.14 0.472 1.75 0 0.615-0.163 1.22-0.472 1.75-0.307 0.531-0.748 0.971-1.28 1.28-0.532 0.309-1.14 0.472-1.75 0.472-0.615 0-1.22-0.163-1.75-0.472-0.531-0.307-0.971-0.748-1.28-1.28-0.309-0.532-0.471-1.14-0.471-1.75 0-0.615 0.163-1.22 0.471-1.75 0.307-0.53 0.748-0.971 1.28-1.28z" clip-rule="evenodd" fill="#000" fill-rule="evenodd"/></svg>
