<svg fill="none" viewBox="0 0 16 16" xmlns="http://www.w3.org/2000/svg"><path d="m15.9 3.54c-0.246-1.72-1.84-3.07-3.74-3.34-0.319-0.0444-1.53-0.206-4.33-0.206h-0.0209c-2.8 0-3.4 0.161-3.72 0.206-1.84 0.255-3.52 1.47-3.93 3.21-0.196 0.857-0.217 1.81-0.181 2.68 0.0519 1.25 0.062 2.5 0.183 3.74 0.0836 0.827 0.229 1.65 0.436 2.45 0.388 1.49 1.96 2.73 3.49 3.24 1.65 0.528 3.42 0.616 5.11 0.253 0.187-0.0407 0.371-0.088 0.553-0.142 0.412-0.123 0.894-0.26 1.25-0.502 0.0049-0.0034 0.0089-0.0077 0.0117-0.0128 0.0028-5e-3 0.0044-0.0106 0.0046-0.0163v-1.21c-1e-4 -0.0053-0.0014-0.0105-4e-3 -0.0153-0.0025-0.0048-0.0061-0.0089-0.0105-0.0122-0.0045-0.0033-0.0097-0.0056-0.0152-0.0067-0.0055-0.0012-0.0113-0.0012-0.0168 0-1.09 0.244-2.2 0.366-3.32 0.364-1.92 0-2.44-0.856-2.59-1.21-0.119-0.308-0.195-0.629-0.225-0.956-3e-4 -0.0055 7.8e-4 -0.0109 0.00314-0.016 0.00235-5e-3 0.00597-0.0094 0.0105-0.0129 0.00454-0.0034 0.00988-0.0059 0.0156-7e-3 0.00571-0.0012 0.0116-0.0011 0.0173 3e-4 1.07 0.242 2.16 0.364 3.26 0.364 0.264 0 0.528 0 0.792-0.0066 1.11-0.029 2.27-0.0821 3.36-0.281 0.0271-0.0051 0.0542-0.0094 0.0775-0.016 1.72-0.309 3.35-1.28 3.51-3.74 0.0062-0.0967 0.0217-1.01 0.0217-1.11 8e-4 -0.341 0.117-2.42-0.0171-3.7zm-2.64 6.13h-1.8v-4.15c0-0.873-0.388-1.32-1.18-1.32-0.867 0-1.3 0.526-1.3 1.57v2.27h-1.79v-2.27c0-1.04-0.435-1.57-1.3-1.57-0.784 0-1.17 0.445-1.18 1.32v4.15h-1.8v-4.27c0-0.873 0.237-1.57 0.712-2.08 0.49-0.513 1.13-0.776 1.93-0.776 0.923 0 1.62 0.333 2.09 0.998l0.449 0.707 0.45-0.707c0.465-0.665 1.16-0.998 2.08-0.998 0.797 0 1.44 0.263 1.93 0.776 0.475 0.513 0.712 1.21 0.712 2.08l-0.0015 4.27z" fill="#000"/></svg>
