<svg xmlns="http://www.w3.org/2000/svg" viewBox="0 0 16 16" fill="none">
  <path fill="#000" fill-rule="evenodd"
    d="M12.5 11.007H1.7l2.15-2.151c.2-.2.2-.51 0-.71a.493.493 0 0 0-.71 0l-3.003 3.01c-.04.05-.08.1-.1.16a.5.5 0 0 0 0 .38c.02.06.06.11.1.15L3.14 14.85c.2.2.51.2.711 0 .2-.2.2-.51 0-.71L1.7 11.987h10.8c.28 0 .5-.22.5-.5s-.22-.5-.5-.5v.02Zm3.463-6.314a.5.5 0 0 0 0-.38.457.457 0 0 0-.11-.16L12.85 1.15c-.2-.2-.51-.2-.711 0-.2.2-.2.51 0 .71l2.152 2.152H3.49c-.28 0-.5.22-.5.5s.22.5.5.5h10.8l-2.152 2.152c-.2.2-.2.51 0 .71.2.201.51.201.71 0l3.003-3.001c.04-.05.08-.1.11-.16v-.02Z"
    clip-rule="evenodd" />
</svg>