<svg fill="none" viewBox="0 0 16 16" xmlns="http://www.w3.org/2000/svg"><path d="m8.39 1c0.699 0 1.4 0.2 2 0.7l2.1 1.8c0.0999 0.1 0.0999 0.3 0 0.4-0.0998 0.1-0.0998 0.3 0 0.4l0.499 0.4c0.0998 0 0.0998 0.1 0.2 0.1 0.0999 0 0.2 0 0.2-0.1 0.0998-0.1 0.0998-0.1 0.2-0.1 0.0999 0 0.0999 0 0.2 0.1l0.898 0.8c0.3 0.2 0.3 0.4 0.2 0.5l-1.6 1.9c0 0.1-0.0999 0.1-0.2 0.1h-0.2l-0.898-0.8c-0.0998-0.1-0.0998-0.3 0-0.4s0.0998-0.3 0-0.4l-0.499-0.4c-0.0999 0-0.0999-0.1-0.2-0.1s-0.2 0-0.2 0.1h-0.399c-0.0998 0-0.0998 0-0.2-0.1-0.0998 0-0.0998-0.1-0.2-0.1-0.0998 0-0.2 0-0.2 0.1l-2.6 3.2c0.299 0.2 0.299 0.6 0.0998 0.9l-3.79 4.5c-0.399 0.3-0.799 0.5-1.2 0.5s-0.699-0.1-0.998-0.4c-0.699-0.6-0.699-1.5-0.2-2.2l3.79-4.5c0.0998-0.1 0.299-0.2 0.499-0.2 0.0998 0 0.299 0 0.399 0.1l2.2-2.6c0.399-0.4 0.299-1-0.0998-1.4l-0.299-0.1c-0.499-0.5-1.2-0.7-2-0.7h-0.399c-0.0998 0-0.0998-0.1-0.0998-0.2l0.599-0.7c0.599-0.7 1.5-1.1 2.4-1.1zm0-1c-1.2 0-2.4 0.5-3.09 1.5l-0.599 0.7c-0.299 0.3-0.399 0.8-0.2 1.2 0.2 0.4 0.599 0.6 0.998 0.6h0.2 0.299c0.499 0 0.998 0.2 1.3 0.5l0.2 0.2-1.8 2h-0.0998c-0.499 0-0.898 0.2-1.2 0.6l-3.79 4.5c-0.898 1.1-0.799 2.7 0.299 3.6 0.499 0.4 0.998 0.6 1.7 0.6 0.799 0 1.5-0.3 1.9-0.9l3.79-4.5c0.299-0.4 0.399-0.9 0.299-1.4l1.9-2.2h0.2 0.0999c0 0.3 0.2 0.7 0.499 0.9l0.898 0.8c0.3 0.2 0.599 0.3 0.898 0.3 0.399 0 0.799-0.2 0.998-0.5l1.6-1.9c0.499-0.5 0.399-1.4-0.2-1.8l-0.898-0.8c-0.2-0.2-0.499-0.3-0.898-0.3h-0.0999c0-0.3-0.2-0.7-0.499-0.9l-2.1-1.8c-0.699-0.7-1.6-1-2.6-1z" fill="#000"/></svg>
