<svg xmlns="http://www.w3.org/2000/svg" viewBox="0 0 16 16" fill="none">
  <path fill="#000" fill-rule="evenodd"
    d="M7.5 3A2.5 2.5 0 0 0 5 5.5v8A2.5 2.5 0 0 0 7.5 16h6a2.5 2.5 0 0 0 2.5-2.5v-8A2.5 2.5 0 0 0 13.5 3h-6ZM6 5.5A1.5 1.5 0 0 1 7.5 4h6A1.5 1.5 0 0 1 15 5.5v8a1.5 1.5 0 0 1-1.5 1.5h-6A1.5 1.5 0 0 1 6 13.5v-8Z"
    clip-rule="evenodd" />
  <path fill="#000"
    d="M8 6.5a.5.5 0 0 1 .5-.5h4a.5.5 0 0 1 0 1h-4a.5.5 0 0 1-.5-.5Zm0 3a.5.5 0 0 1 .5-.5h4a.5.5 0 0 1 0 1h-4a.5.5 0 0 1-.5-.5Zm0 3a.5.5 0 0 1 .5-.5h3a.5.5 0 0 1 0 1h-3a.5.5 0 0 1-.5-.5Zm-8-10A2.5 2.5 0 0 1 2.5 0h6a2.5 2.5 0 0 1 2.236 1.382c.152.303-.103.618-.442.618-.227 0-.422-.15-.55-.338C9.474 1.262 9.018 1 8.5 1h-6A1.5 1.5 0 0 0 1 2.5v8A1.5 1.5 0 0 0 2.5 12h1a.5.5 0 0 1 0 1h-1A2.5 2.5 0 0 1 0 10.5v-8Z" />
</svg>