<svg xmlns="http://www.w3.org/2000/svg" viewBox="0 0 16 16" fill="none">
  <path fill="#000"
    d="M3.529 1a.5.5 0 0 1 .372.2L8 6.837l4.096-5.631a.505.505 0 0 1 .37-.205h.026l.05.001.059.008c.06.013.118.036.17.07l.023.016A.498.498 0 0 1 13 1.47c.127 2.205-.226 3.974-1.078 5.3-.627.974-1.477 1.635-2.534 1.975l1.076 1.478a2.5 2.5 0 1 1-.808.588l-1.34-1.837c-.083.01-.168.017-.253.024l-.033.001h-.061l-.032-.002-.253-.025-1.34 1.842a2.5 2.5 0 1 1-.809-.589l1.076-1.479c-1.056-.34-1.905-1-2.532-1.975-.852-1.325-1.205-3.094-1.078-5.299a.503.503 0 0 1 .137-.316l.064-.057.015-.01a.466.466 0 0 1 .182-.078l.058-.008.072-.001V1ZM4.5 11a1.5 1.5 0 1 0 0 3 1.5 1.5 0 0 0 0-3Zm7 0a1.5 1.5 0 1 0 0 3 1.5 1.5 0 0 0 0-3ZM3.997 3.037c.081 1.302.391 2.365.924 3.193.626.975 1.51 1.545 2.682 1.724l-.046-.039-.06-.068-3.5-4.81Zm8.006 0L8.445 7.925l-.02.024c1.159-.183 2.033-.752 2.654-1.72.533-.827.843-1.89.924-3.192Z" />
</svg>