<svg viewBox="0 0 16 16" xmlns="http://www.w3.org/2000/svg"><path d="m7.85 5.15c-0.195-0.195-0.512-0.195-0.707 0-0.195 0.195-0.195 0.512 0 0.707l2.15 2.15-2.15 2.15c-0.195 0.195-0.195 0.512 0 0.707 0.195 0.195 0.512 0.195 0.707 0l2.15-2.15 2.15 2.15c0.195 0.195 0.512 0.195 0.707 0 0.195-0.195 0.195-0.512 0-0.707l-2.15-2.15 2.15-2.15c0.195-0.195 0.195-0.512 0-0.707-0.195-0.195-0.512-0.195-0.707 0l-2.15 2.15-2.15-2.15z" fill="#000"/><path d="m6.78 3c-0.376 0-0.739 0.141-1.02 0.396l-4.6 4.24c-0.215 0.198-0.215 0.538 0 0.736l4.6 4.24c0.277 0.255 0.64 0.396 1.02 0.396h6.72c0.828 0 1.5-0.672 1.5-1.5v-7c0-0.828-0.672-1.5-1.5-1.5h-6.72zm-1.69-0.339c0.462-0.425 1.07-0.661 1.69-0.661h6.72c1.38 0 2.5 1.12 2.5 2.5v7c0 1.38-1.12 2.5-2.5 2.5h-6.72c-0.627 0-1.23-0.236-1.69-0.661l-4.6-4.24c-0.645-0.594-0.645-1.61 0-2.21l4.6-4.24z" clip-rule="evenodd" fill="#000" fill-rule="evenodd"/></svg>
