<svg xmlns="http://www.w3.org/2000/svg" viewBox="0 0 16 16" fill="none">
  <path fill="#000"
    d="M7.854 5.146a.5.5 0 1 0-.708.708L9.293 8l-2.147 2.146a.5.5 0 0 0 .708.708L10 8.707l2.146 2.147a.5.5 0 0 0 .707-.708L10.707 8l2.146-2.146a.5.5 0 1 0-.707-.708L10 7.293 7.854 5.146Z" />
  <path fill="#000" fill-rule="evenodd"
    d="M6.78 3a1.5 1.5 0 0 0-1.016.396L1.163 7.632a.5.5 0 0 0 0 .736l4.601 4.236A1.5 1.5 0 0 0 6.78 13h6.72a1.5 1.5 0 0 0 1.5-1.5v-7A1.5 1.5 0 0 0 13.5 3H6.78Zm-1.693-.34A2.5 2.5 0 0 1 6.78 2h6.72A2.5 2.5 0 0 1 16 4.5v7a2.5 2.5 0 0 1-2.5 2.5H6.78a2.5 2.5 0 0 1-1.693-.66L.486 9.103a1.5 1.5 0 0 1 0-2.208L5.087 2.66Z"
    clip-rule="evenodd" />
</svg>