<svg xmlns="http://www.w3.org/2000/svg" viewBox="0 0 16 16" fill="none">
  <path fill="#000" fill-rule="evenodd"
    d="M3.793 7.5 8.5 12.207l-2.646 2.647a.496.496 0 0 1-.707 0l-4-4a.5.5 0 0 1 0-.708L3.793 7.5Zm6.354-6.354a.498.498 0 0 1 .707 0l4 4a.497.497 0 0 1 0 .708L9.207 11.5 4.5 6.793l5.647-5.647ZM7.12 15h4.38a.5.5 0 0 1 0 1h-6c-.414 0-.79-.168-1.061-.439l-4-4a1.501 1.501 0 0 1 0-2.122l9-9A1.497 1.497 0 0 1 10.499 0a1.5 1.5 0 0 1 1.062.439l4 4a1.501 1.501 0 0 1-.001 2.122L7.12 15Z"
    clip-rule="evenodd" />
</svg>