<svg xmlns="http://www.w3.org/2000/svg" viewBox="0 0 16 16" fill="none">
  <path fill="#000" fill-rule="evenodd"
    d="M1.852 5.228A3 3 0 0 1 3 5h.5a.5.5 0 0 1 0 1H3a2 2 0 0 0-2 2v5a2 2 0 0 0 2 2h9a2 2 0 0 0 2-2V8a2 2 0 0 0-2-2h-.5a.5.5 0 0 1 0-1h.5a3 3 0 0 1 3 3v5a3 3 0 0 1-3 3H3a3 3 0 0 1-3-3V8a3 3 0 0 1 1.852-2.772Z"
    clip-rule="evenodd" />
  <path fill="#000"
    d="M7.854.146a.5.5 0 0 0-.708 0l-3 3a.5.5 0 1 0 .708.708L7 1.707V9.5a.5.5 0 0 0 1 0V1.707l2.146 2.147a.5.5 0 0 0 .708-.708l-3-3Z" />
</svg>