<svg fill="none" viewBox="0 0 16 16" xmlns="http://www.w3.org/2000/svg"><path d="m11.1 2.85c-0.0465-0.0465-0.0834-0.102-0.108-0.162-0.0252-0.0607-0.0381-0.126-0.0381-0.192 0-0.0657 0.0129-0.131 0.0381-0.192 0.0251-0.0607 0.062-0.116 0.108-0.162s0.102-0.0834 0.162-0.109c0.0608-0.0252 0.126-0.0381 0.192-0.0381s0.131 0.013 0.192 0.0381 0.116 0.062 0.162 0.109l4 4c0.0466 0.0464 0.0835 0.102 0.109 0.162 0.0252 0.0607 0.0382 0.126 0.0382 0.192s-0.013 0.131-0.0382 0.192c-0.0252 0.0607-0.0621 0.116-0.109 0.162l-4 4c-0.0939 0.0939-0.221 0.147-0.354 0.147s-0.26-0.0528-0.354-0.147-0.147-0.221-0.147-0.354 0.0527-0.26 0.147-0.354l3.15-3.15-7.79-2e-5c-0.939 0-1.62 2.7e-4 -2.15 0.0369-0.532 0.0363-0.888 0.107-1.18 0.23-0.858 0.355-1.54 1.04-1.89 1.89-0.123 0.296-0.193 0.652-0.23 1.18-0.0366 0.537-0.0369 1.22-0.0369 2.15 0 0.276-0.224 0.5-0.5 0.5s-0.5-0.224-0.5-0.5v-0.0188c-1.91e-6 -0.916-3.82e-6 -1.63 0.0392-2.2 0.0398-0.583 0.122-1.06 0.303-1.5 0.457-1.1 1.33-1.98 2.44-2.44 0.439-0.182 0.916-0.264 1.5-0.303 0.575-0.0392 1.29-0.0392 2.2-0.0392h2.52l0.00469 2e-5h5.29l-3.15-3.15z" fill="#000"/></svg>
