<svg viewBox="0 0 16 16" xmlns="http://www.w3.org/2000/svg"><path d="m5 7.59c0-0.551 0-0.826 0.105-1.04 0.0968-0.194 0.254-0.351 0.448-0.448 0.117-0.0585 0.254-0.0846 0.447-0.0962v-1.01c0-1.1 0.895-2 2-2s2 0.895 2 2v1.01c0.193 0.0116 0.33 0.0376 0.447 0.0962 0.194 0.0968 0.351 0.254 0.448 0.448 0.106 0.211 0.106 0.486 0.106 1.04v0.82c0 0.551 0 0.826-0.106 1.04-0.0967 0.194-0.254 0.351-0.448 0.448-0.211 0.105-0.486 0.105-1.04 0.105h-2.82c-0.551 0-0.826 0-1.04-0.105-0.194-0.0968-0.351-0.254-0.448-0.448-0.105-0.211-0.105-0.486-0.105-1.04v-0.82zm4-1.59v-1c0-0.552-0.448-1-1-1s-1 0.448-1 1v1h2z" clip-rule="evenodd" fill="#000" fill-rule="evenodd"/><path d="m0.327 1.64c-0.327 0.642-0.327 1.48-0.327 3.16v4.4c0 1.68 0 2.52 0.327 3.16 0.288 0.564 0.747 1.02 1.31 1.31 0.642 0.327 1.48 0.327 3.16 0.327h1.2v0.5c0 0.276-0.224 0.5-0.5 0.5h-1c-0.276 0-0.5 0.224-0.5 0.5s0.224 0.5 0.5 0.5h7c0.276 0 0.5-0.224 0.5-0.5s-0.224-0.5-0.5-0.5h-1c-0.276 0-0.5-0.224-0.5-0.5v-0.5h1.2c1.68 0 2.52 0 3.16-0.327 0.564-0.288 1.02-0.746 1.31-1.31 0.327-0.642 0.327-1.48 0.327-3.16v-4.4c0-1.68 0-2.52-0.327-3.16-0.288-0.564-0.746-1.02-1.31-1.31-0.642-0.327-1.48-0.327-3.16-0.327h-6.4c-1.68 0-2.52 0-3.16 0.327-0.564 0.288-1.02 0.747-1.31 1.31zm10.9-0.638h-6.4c-0.857 0-1.44 7.8e-4 -1.89 0.0376-0.438 0.0358-0.663 0.101-0.819 0.18-0.376 0.192-0.682 0.498-0.874 0.874-0.0797 0.156-0.145 0.381-0.18 0.819-0.0368 0.45-0.0376 1.03-0.0376 1.89v4.4c0 0.857 7.8e-4 1.44 0.0376 1.89 0.0358 0.438 0.101 0.663 0.18 0.819 0.192 0.376 0.498 0.682 0.874 0.874 0.156 0.0797 0.381 0.145 0.819 0.18 0.45 0.0368 1.03 0.0376 1.89 0.0376h6.4c0.857 0 1.44-8e-4 1.89-0.0376 0.438-0.0358 0.663-0.101 0.819-0.18 0.376-0.192 0.682-0.498 0.874-0.874 0.0797-0.156 0.145-0.381 0.18-0.819 0.0368-0.45 0.0376-1.03 0.0376-1.89v-4.4c0-0.857-8e-4 -1.44-0.0376-1.89-0.0358-0.438-0.101-0.663-0.18-0.819-0.192-0.376-0.498-0.682-0.874-0.874-0.156-0.0797-0.381-0.145-0.819-0.18-0.45-0.0368-1.03-0.0376-1.89-0.0376z" clip-rule="evenodd" fill="#000" fill-rule="evenodd"/></svg>
