<svg xmlns="http://www.w3.org/2000/svg" viewBox="0 0 16 16" fill="none">
  <path fill="#000" fill-rule="evenodd"
    d="M14 8h-4a1 1 0 0 0-1 1v5a1 1 0 0 0 1 1h4a1 1 0 0 0 1-1V9a1 1 0 0 0-1-1Zm-4-1a2 2 0 0 0-2 2v5a2 2 0 0 0 2 2h4a2 2 0 0 0 2-2V9a2 2 0 0 0-2-2h-4Z"
    clip-rule="evenodd" />
  <path fill="#000"
    d="M10 9.5a.5.5 0 0 1 .5-.5h3a.5.5 0 0 1 0 1h-3a.5.5 0 0 1-.5-.5Zm0 2a.5.5 0 0 1 .5-.5h3a.5.5 0 0 1 0 1h-3a.5.5 0 0 1-.5-.5Zm0 2a.5.5 0 0 1 .5-.5h2a.5.5 0 0 1 0 1h-2a.5.5 0 0 1-.5-.5Z" />
  <path fill="#000" fill-rule="evenodd"
    d="M9 3a1 1 0 0 1-1 1H4a1 1 0 0 1-1-1H2a1 1 0 0 0-1 1v9a1 1 0 0 0 1 1h5v1H2a2 2 0 0 1-2-2V4a2 2 0 0 1 2-2h1a1 1 0 0 1 1-1h.268a2 2 0 0 1 3.464 0H8a1 1 0 0 1 1 1h1a2 2 0 0 1 2 2v2h-1V4a1 1 0 0 0-1-1H9ZM4.268 2a1 1 0 0 0 .865-.5 1 1 0 0 1 1.734 0 1 1 0 0 0 .865.5h.018a.25.25 0 0 1 .25.25v.5a.25.25 0 0 1-.25.25h-3.5A.25.25 0 0 1 4 2.75v-.5A.25.25 0 0 1 4.25 2h.018Z"
    clip-rule="evenodd" />
</svg>