<svg xmlns="http://www.w3.org/2000/svg" viewBox="0 0 16 16" fill="none">
  <path fill="#000"
    d="M11.37.44a1.5 1.5 0 0 0-2.348.288l-.81 1.35-1.89 1.892-4.105 1.865a1.5 1.5 0 0 0-.44 2.426l2.626 2.626-3.647 3.647a.5.5 0 1 0 .708.707l3.646-3.647 2.626 2.627a1.5 1.5 0 0 0 2.426-.44l1.866-4.104 1.892-1.893 1.349-.809a1.5 1.5 0 0 0 .289-2.347L11.369.44Zm-1.49.803a.5.5 0 0 1 .782-.096l4.189 4.188a.5.5 0 0 1-.097.783l-1.401.84a.502.502 0 0 0-.097.076l-2 2a.501.501 0 0 0-.101.146l-1.903 4.187a.5.5 0 0 1-.809.146l-5.96-5.959a.5.5 0 0 1 .148-.809l4.186-1.902a.5.5 0 0 0 .147-.102l2-2a.5.5 0 0 0 .075-.096l.84-1.402Z" />
</svg>