<svg xmlns="http://www.w3.org/2000/svg" viewBox="0 0 16 16" fill="none">
  <path fill="#000" fill-rule="evenodd"
    d="M3 1.5A1.5 1.5 0 0 1 4.5 0h5.086a1.5 1.5 0 0 1 1.06.44l1.915 1.914A1.5 1.5 0 0 1 13 3.414V6h1a2 2 0 0 1 2 2v4a2 2 0 0 1-1.422 1.915c.413.962-.285 2.085-1.382 2.085H2.804c-1.097 0-1.795-1.123-1.382-2.085A2 2 0 0 1 0 12V8a2 2 0 0 1 2-2h1V1.5ZM4.5 1a.5.5 0 0 0-.5.5V8h8V4H9.5a.5.5 0 0 1-.5-.5V1H4.5Zm5.5.207L11.793 3H10V1.207ZM14.027 13A1 1 0 0 0 15 12V8a1 1 0 0 0-1-1h-1v1.5a.5.5 0 0 1-.5.5h-9a.5.5 0 0 1-.5-.5V7H2a1 1 0 0 0-1 1v4a1 1 0 0 0 .973 1l1.103-1.765A.5.5 0 0 1 3.5 11h9a.5.5 0 0 1 .424.235L14.027 13ZM2.38 14.235 3.777 12h8.446l1.397 2.235a.5.5 0 0 1-.424.765H2.804a.5.5 0 0 1-.424-.765Z"
    clip-rule="evenodd" />
</svg>