<svg fill="none" viewBox="0 0 16 16" xmlns="http://www.w3.org/2000/svg"><path d="m11.1 0.854c-0.0939-0.0939-0.147-0.221-0.147-0.354 0-0.133 0.0527-0.26 0.147-0.354 0.0939-0.0939 0.221-0.147 0.354-0.147s0.26 0.0527 0.354 0.147l4 4c0.0466 0.0464 0.0835 0.102 0.109 0.162 0.0252 0.0607 0.0382 0.126 0.0382 0.192s-0.013 0.131-0.0382 0.192c-0.0252 0.0608-0.0621 0.116-0.109 0.162l-4 4c-0.0939 0.0939-0.221 0.147-0.354 0.147s-0.26-0.0527-0.354-0.147-0.147-0.221-0.147-0.354c0-0.133 0.0527-0.26 0.147-0.354l3.15-3.15h-9.29c-1.06 0-2.08 0.421-2.83 1.17-0.75 0.75-1.17 1.77-1.17 2.83 0 1.06 0.421 2.08 1.17 2.83 0.75 0.75 1.77 1.17 2.83 1.17h7.5c0.133 0 0.26 0.0527 0.354 0.146 0.0937 0.0938 0.146 0.221 0.146 0.354s-0.0527 0.26-0.146 0.354c-0.0938 0.0938-0.221 0.146-0.354 0.146h-7.5c-1.33 0-2.6-0.527-3.54-1.46-0.938-0.938-1.46-2.21-1.46-3.54 0-1.33 0.527-2.6 1.46-3.54 0.938-0.938 2.21-1.46 3.54-1.46h9.29l-3.15-3.15z" fill="#000"/></svg>
