<svg viewBox="0 0 16 16" xmlns="http://www.w3.org/2000/svg"><path d="m8 0.5c0-0.276 0.224-0.5 0.5-0.5h4c0.276 0 0.5 0.224 0.5 0.5s-0.224 0.5-0.5 0.5h-1.5v14h1.5c0.276 0 0.5 0.224 0.5 0.5s-0.224 0.5-0.5 0.5h-4c-0.276 0-0.5-0.224-0.5-0.5s0.224-0.5 0.5-0.5h1.5v-14h-1.5c-0.276 0-0.5-0.224-0.5-0.5z" fill="#000"/><path d="m5.46 4.31c-0.0776-0.186-0.26-0.308-0.462-0.308s-0.384 0.121-0.462 0.308l-2.5 6c-0.106 0.255 0.0143 0.548 0.269 0.654s0.548-0.0143 0.654-0.269l0.705-1.69h2.67l0.705 1.69c0.106 0.255 0.399 0.375 0.654 0.269s0.375-0.399 0.269-0.654l-2.5-6zm-0.462 1.49 0.917 2.2h-1.83l0.917-2.2z" clip-rule="evenodd" fill="#000" fill-rule="evenodd"/><path d="m8.5 3c0.276 0 0.5-0.224 0.5-0.5s-0.224-0.5-0.5-0.5h-3.7c-1.68 0-2.52 0-3.16 0.327-0.564 0.288-1.02 0.747-1.31 1.31-0.327 0.642-0.327 1.48-0.327 3.16v2.4c0 1.68 0 2.52 0.327 3.16 0.288 0.564 0.747 1.02 1.31 1.31 0.642 0.327 1.48 0.327 3.16 0.327h3.7c0.276 0 0.5-0.224 0.5-0.5s-0.224-0.5-0.5-0.5h-3.7c-0.857 0-1.44-8e-4 -1.89-0.0376-0.438-0.0358-0.663-0.101-0.819-0.18-0.376-0.192-0.682-0.498-0.874-0.874-0.0797-0.156-0.145-0.381-0.18-0.819-0.0368-0.45-0.0376-1.03-0.0376-1.89v-2.4c0-0.857 7.8e-4 -1.44 0.0376-1.89 0.0358-0.438 0.101-0.663 0.18-0.819 0.192-0.376 0.498-0.682 0.874-0.874 0.156-0.0797 0.381-0.145 0.819-0.18 0.45-0.0368 1.03-0.0376 1.89-0.0376h3.7z" fill="#000"/><path d="m12.5 13c-0.275 0.0067-0.496 0.229-0.496 0.504 0 0.278 0.226 0.503 0.504 0.496 0.863-0.0206 1.41-0.0893 1.86-0.318 0.564-0.288 1.02-0.746 1.31-1.31 0.327-0.642 0.327-1.48 0.327-3.16v-2.4c0-1.68 0-2.52-0.327-3.16-0.288-0.564-0.746-1.02-1.31-1.31-0.449-0.229-0.995-0.298-1.86-0.318-0.278-0.00663-0.504 0.219-0.504 0.496 0 0.275 0.222 0.497 0.496 0.504 0.223 0.00549 0.418 0.0143 0.592 0.0286 0.438 0.0358 0.663 0.101 0.819 0.18 0.376 0.192 0.682 0.498 0.874 0.874 0.0797 0.156 0.145 0.381 0.18 0.819 0.0368 0.45 0.0376 1.03 0.0376 1.89v2.4c0 0.857-8e-4 1.44-0.0376 1.89-0.0358 0.438-0.101 0.663-0.18 0.819-0.192 0.376-0.498 0.682-0.874 0.874-0.156 0.0797-0.381 0.145-0.819 0.18-0.175 0.0143-0.37 0.0232-0.592 0.0287z" fill="#000"/></svg>
