<svg viewBox="0 0 16 16" xmlns="http://www.w3.org/2000/svg"><path d="m9.5 0c-0.276 0-0.5 0.224-0.5 0.5v1.11c-0.502 0.114-0.973 0.312-1.4 0.579l-0.786-0.786c-0.195-0.195-0.512-0.195-0.707 0l-0.707 0.707c-0.195 0.195-0.195 0.512 0 0.707l0.786 0.786c-0.267 0.423-0.465 0.893-0.579 1.4h-1.11c-0.276 0-0.5 0.224-0.5 0.5v1c0 0.276 0.224 0.5 0.5 0.5h1.11c0.114 0.502 0.312 0.973 0.579 1.4l-0.786 0.786c-0.195 0.195-0.195 0.512 0 0.707l0.707 0.707c0.195 0.195 0.512 0.195 0.707 0l0.786-0.786c0.423 0.267 0.893 0.465 1.4 0.579v1.11c0 0.276 0.224 0.5 0.5 0.5h1c0.276 0 0.5-0.224 0.5-0.5v-1.11c0.502-0.114 0.973-0.312 1.4-0.579l0.786 0.786c0.195 0.195 0.512 0.195 0.707 0l0.707-0.707c0.195-0.195 0.195-0.512 0-0.707l-0.786-0.786c0.266-0.423 0.464-0.893 0.578-1.4h1.11c0.276 0 0.5-0.224 0.5-0.5v-1c0-0.276-0.224-0.5-0.5-0.5h-1.11c-0.114-0.502-0.312-0.973-0.578-1.4l0.786-0.786c0.195-0.195 0.195-0.512 0-0.707l-0.707-0.707c-0.195-0.195-0.512-0.195-0.707 0l-0.786 0.786c-0.423-0.267-0.893-0.465-1.4-0.579v-1.11c0-0.276-0.224-0.5-0.5-0.5h-1zm0.5 8c1.1 0 2-0.895 2-2s-0.895-2-2-2c-1.1 0-2 0.895-2 2s0.895 2 2 2z" clip-rule="evenodd" fill="#000" fill-rule="evenodd"/><path d="m2.08 9.3c-0.255 0.106-0.376 0.398-0.271 0.653l0.168 0.406c-0.245 0.174-0.455 0.385-0.623 0.623l-0.407-0.168c-0.255-0.106-0.548 0.0155-0.653 0.271l-0.0638 0.154c-0.106 0.255 0.0155 0.548 0.271 0.653l0.407 0.168c-0.0492 0.287-0.0509 0.585-2.17e-4 0.881l-0.407 0.168c-0.255 0.106-0.376 0.398-0.271 0.653l0.0638 0.154c0.106 0.255 0.398 0.376 0.653 0.271l0.407-0.168c0.174 0.245 0.385 0.455 0.623 0.623l-0.168 0.407c-0.106 0.255 0.0155 0.548 0.271 0.653l0.154 0.0638c0.255 0.106 0.548-0.0155 0.653-0.271l0.168-0.407c0.287 0.0492 0.585 0.0509 0.881 2e-4l0.168 0.407c0.106 0.255 0.398 0.376 0.653 0.271l0.154-0.0638c0.255-0.106 0.376-0.398 0.271-0.653l-0.168-0.406c0.245-0.174 0.455-0.385 0.623-0.623l0.407 0.168c0.255 0.106 0.548-0.0155 0.653-0.271l0.0638-0.154c0.106-0.255-0.0155-0.548-0.271-0.653l-0.407-0.168c0.0492-0.287 0.0509-0.585 2.2e-4 -0.881l0.407-0.168c0.255-0.106 0.376-0.398 0.271-0.653l-0.0638-0.154c-0.106-0.255-0.398-0.376-0.653-0.271l-0.407 0.168c-0.174-0.245-0.385-0.455-0.623-0.623l0.168-0.407c0.106-0.255-0.0155-0.548-0.271-0.653l-0.154-0.0638c-0.255-0.106-0.548 0.0155-0.653 0.271l-0.168 0.407c-0.287-0.0492-0.585-0.0509-0.881-2.2e-4l-0.168-0.407c-0.106-0.255-0.398-0.376-0.653-0.271l-0.154 0.0638zm1.42 4.7c0.828 0 1.5-0.672 1.5-1.5s-0.672-1.5-1.5-1.5c-0.828 0-1.5 0.672-1.5 1.5s0.672 1.5 1.5 1.5z" clip-rule="evenodd" fill="#000" fill-rule="evenodd"/></svg>
