<svg xmlns="http://www.w3.org/2000/svg" viewBox="0 0 16 16" fill="none">
  <path fill="#000" fill-rule="evenodd"
    d="M9.5 0a.5.5 0 0 0-.5.5v1.112a4.474 4.474 0 0 0-1.396.578l-.786-.786a.5.5 0 0 0-.707 0l-.707.707a.5.5 0 0 0 0 .707l.786.786A4.474 4.474 0 0 0 5.612 5H4.5a.5.5 0 0 0-.5.5v1a.5.5 0 0 0 .5.5h1.112c.114.502.312.973.578 1.396l-.786.786a.5.5 0 0 0 0 .707l.707.707a.5.5 0 0 0 .707 0l.786-.786c.423.266.894.464 1.396.579V11.5a.5.5 0 0 0 .5.5h1a.5.5 0 0 0 .5-.5v-1.111a4.472 4.472 0 0 0 1.396-.579l.786.786a.5.5 0 0 0 .707 0l.707-.707a.5.5 0 0 0 0-.707l-.786-.786c.266-.423.464-.894.579-1.396H15.5a.5.5 0 0 0 .5-.5v-1a.5.5 0 0 0-.5-.5h-1.111a4.472 4.472 0 0 0-.58-1.396l.787-.786a.5.5 0 0 0 0-.707l-.707-.707a.5.5 0 0 0-.707 0l-.786.786A4.473 4.473 0 0 0 11 1.612V.5a.5.5 0 0 0-.5-.5h-1Zm.5 8a2 2 0 1 0 0-4 2 2 0 0 0 0 4Z"
    clip-rule="evenodd" />
  <path fill="#000" fill-rule="evenodd"
    d="M2.084 9.298a.5.5 0 0 0-.271.654l.168.406a2.611 2.611 0 0 0-.623.623l-.406-.168a.5.5 0 0 0-.654.27l-.063.155a.5.5 0 0 0 .27.653l.407.168a2.61 2.61 0 0 0 0 .882l-.407.168a.5.5 0 0 0-.27.653l.063.154a.5.5 0 0 0 .654.271l.406-.168c.174.245.385.454.624.623l-.169.406a.5.5 0 0 0 .27.654l.155.063a.5.5 0 0 0 .653-.27l.168-.407c.288.05.586.051.882 0l.168.407a.5.5 0 0 0 .653.27l.154-.063a.5.5 0 0 0 .271-.654l-.168-.406c.245-.174.454-.385.623-.623l.406.168a.5.5 0 0 0 .654-.27l.063-.155a.5.5 0 0 0-.27-.653l-.407-.168a2.61 2.61 0 0 0 0-.882l.407-.168a.5.5 0 0 0 .27-.653l-.063-.154a.5.5 0 0 0-.654-.271l-.406.168a2.609 2.609 0 0 0-.624-.623l.169-.406a.5.5 0 0 0-.27-.654l-.155-.063a.5.5 0 0 0-.653.27l-.168.407a2.61 2.61 0 0 0-.882 0l-.168-.407a.5.5 0 0 0-.653-.27l-.154.063ZM3.5 14a1.5 1.5 0 1 0 0-3 1.5 1.5 0 0 0 0 3Z"
    clip-rule="evenodd" />
</svg>