<svg xmlns="http://www.w3.org/2000/svg" viewBox="0 0 16 16" fill="none">
  <path fill="#000"
    d="M7.5 0a.5.5 0 0 1 .5.5v6.793l3.146-3.147a.5.5 0 0 1 .708.708l-4 4a.5.5 0 0 1-.708 0l-4-4a.5.5 0 1 1 .708-.708L7 7.293V.5a.5.5 0 0 1 .5-.5Zm1 12a.5.5 0 0 0-.5.5v1a.5.5 0 0 0 1 0v-1a.5.5 0 0 0-.5-.5Zm2 0a.5.5 0 0 0-.5.5v1a.5.5 0 0 0 1 0v-1a.5.5 0 0 0-.5-.5Zm2 0a.5.5 0 0 0-.5.5v1a.5.5 0 0 0 1 0v-1a.5.5 0 0 0-.5-.5Z" />
  <path fill="#000" fill-rule="evenodd"
    d="M.152 11.235C0 11.602 0 12.068 0 13c0 .932 0 1.398.152 1.765a2 2 0 0 0 1.083 1.083C1.602 16 2.068 16 3 16h10c.932 0 1.398 0 1.765-.152a2 2 0 0 0 1.083-1.083C16 14.398 16 13.932 16 13c0-.932 0-1.398-.152-1.765a2 2 0 0 0-1.083-1.083C14.398 10 13.932 10 13 10H3c-.932 0-1.398 0-1.765.152a2 2 0 0 0-1.083 1.083ZM13 11H3c-.48 0-.79 0-1.026.017-.228.015-.315.042-.357.06a1 1 0 0 0-.54.54c-.018.042-.045.129-.06.357C1 12.21 1 12.52 1 13s0 .79.017 1.026c.015.228.042.315.06.357a1 1 0 0 0 .54.54c.042.018.129.045.357.06C2.21 15 2.52 15 3 15h10c.48 0 .79 0 1.026-.017.228-.015.315-.042.357-.06a1 1 0 0 0 .54-.54c.018-.042.045-.129.06-.357C15 13.79 15 13.48 15 13s0-.79-.017-1.026c-.015-.228-.042-.315-.06-.357a1 1 0 0 0-.54-.54c-.042-.018-.129-.045-.357-.06A16.885 16.885 0 0 0 13 11Z"
    clip-rule="evenodd" />
</svg>