<svg fill="none" viewBox="0 0 16 16" xmlns="http://www.w3.org/2000/svg"><path d="m0.345 0.245c0.306-0.265 0.741-0.32 1.1-0.139l14 7c0.339 0.169 0.553 0.516 0.553 0.894 0 0.379-0.214 0.725-0.553 0.894l-14 7c-0.362 0.181-0.797 0.126-1.1-0.139-0.306-0.265-0.421-0.688-0.293-1.07l2-6c0.118-0.355 0.424-0.614 0.793-0.672l0.0772-0.0121-0.0772-0.0121c-0.369-0.058-0.675-0.317-0.793-0.672l-2-6c-0.128-0.384-0.0121-0.807 0.293-1.07zm7.44 7.51c0.282 0.0443 0.282 0.45 0 0.494l-4.79 0.753-2 6 14-7-14-7 2 6 4.79 0.753z" clip-rule="evenodd" fill="#000" fill-rule="evenodd"/></svg>
