<svg viewBox="0 0 16 16" xmlns="http://www.w3.org/2000/svg"><path d="m4.99 12.5 1e-5 -10.8 2.15 2.15c0.2 0.2 0.51 0.2 0.711 0s0.2-0.51 0-0.711l-3.01-3c-0.05-0.04-0.1-0.0801-0.16-0.1-0.12-0.05-0.26-0.05-0.38 0-0.06 0.02-0.11 0.0601-0.15 0.1l-3 3c-0.2 0.2-0.2 0.51 0 0.711 0.2 0.2 0.51 0.2 0.711 0l2.15-2.15v10.8c0 0.28 0.22 0.5 0.5 0.5s0.5-0.22 0.5-0.5h-0.02z" clip-rule="evenodd" fill="#000" fill-rule="evenodd"/><path d="m11.3 16c0.12 0.05 0.26 0.05 0.38 0 0.0601-0.0301 0.12-0.0601 0.16-0.11l3-3c0.2-0.2 0.2-0.51 0-0.711-0.2-0.2-0.51-0.2-0.71 0l-2.15 2.15v-10.8c0-0.28-0.22-0.5-0.5-0.5s-0.5 0.22-0.5 0.5v10.8l-2.15-2.15c-0.2-0.2-0.51-0.2-0.711 0-0.2 0.2-0.2 0.51 0 0.711l3 3c0.0501 0.04 0.1 0.08 0.16 0.11h0.0201z" clip-rule="evenodd" fill="#000" fill-rule="evenodd"/></svg>
