<svg xmlns="http://www.w3.org/2000/svg" viewBox="0 0 16 16" fill="none">
  <path fill="#000" fill-rule="evenodd"
    d="M4.993 12.5V1.7l2.151 2.15c.2.2.51.2.71 0a.493.493 0 0 0 0-.71L4.844.137c-.05-.04-.1-.08-.16-.1a.5.5 0 0 0-.38 0c-.06.02-.11.06-.15.1L1.15 3.14c-.2.2-.2.51 0 .711.2.2.51.2.71 0L4.013 1.7v10.8c0 .28.22.5.5.5s.5-.22.5-.5h-.02Zm6.314 3.463a.5.5 0 0 0 .38 0c.06-.03.12-.06.16-.11l3.003-3.003c.2-.2.2-.51 0-.711-.2-.2-.51-.2-.71 0l-2.152 2.152V3.49c0-.28-.22-.5-.5-.5s-.5.22-.5.5v10.8l-2.152-2.152c-.2-.2-.51-.2-.71 0a.493.493 0 0 0 0 .71l3.001 3.003c.05.04.1.08.16.11h.02Z"
    clip-rule="evenodd" />
</svg>