<svg viewBox="0 0 16 16" xmlns="http://www.w3.org/2000/svg"><path d="m3 1.5c0-0.276-0.224-0.5-0.5-0.5s-0.5 0.224-0.5 0.5v11.8l-1.15-1.15c-0.195-0.195-0.512-0.195-0.707 0-0.195 0.195-0.195 0.512 0 0.707l2 2c0.195 0.195 0.512 0.195 0.707 0l2-2c0.195-0.195 0.195-0.512 0-0.707-0.195-0.195-0.512-0.195-0.707 0l-1.15 1.15v-11.8z" fill="#000"/><path d="m11 4.5c0-0.276-0.224-0.5-0.5-0.5s-0.5 0.224-0.5 0.5v3c0 0.189 0.107 0.363 0.276 0.447l2 1c0.247 0.124 0.547 0.0234 0.671-0.224s0.0234-0.547-0.224-0.671l-1.72-0.862v-2.69z" fill="#000"/><path d="m10.5 2c-3.04 0-5.5 2.46-5.5 5.5 0 3.04 2.46 5.5 5.5 5.5 3.04 0 5.5-2.46 5.5-5.5 0-3.04-2.46-5.5-5.5-5.5zm-4.5 5.5c0-2.49 2.01-4.5 4.5-4.5 2.49 0 4.5 2.01 4.5 4.5s-2.01 4.5-4.5 4.5c-2.49 0-4.5-2.01-4.5-4.5z" clip-rule="evenodd" fill="#000" fill-rule="evenodd"/></svg>
