<svg xmlns="http://www.w3.org/2000/svg" viewBox="0 0 16 16" fill="none">
  <path fill="#000"
    d="M4 1.5a.5.5 0 0 0-1 0v11.793l-1.146-1.147a.5.5 0 0 0-.708.708l2 2a.5.5 0 0 0 .708 0l2-2a.5.5 0 0 0-.708-.708L4 13.293V1.5Z" />
  <path fill="#000" fill-rule="evenodd"
    d="M12.461 1.308a.5.5 0 0 0-.922 0l-1.663 3.99a.498.498 0 0 0-.009.02l-.829 1.99a.5.5 0 0 0 .924.384L10.667 6h2.666l.706 1.692a.5.5 0 1 0 .922-.384l-.828-1.99a.513.513 0 0 0-.01-.02l-1.662-3.99ZM12 2.8l.917 2.2h-1.834L12 2.8Z"
    clip-rule="evenodd" />
  <path fill="#000"
    d="M10 9a.5.5 0 0 0 0 1h3.066l-3.482 5.223A.5.5 0 0 0 10 16h4a.5.5 0 0 0 0-1h-3.066l3.482-5.223A.5.5 0 0 0 14 9h-4Z" />
</svg>