<svg viewBox="0 0 16 16" xmlns="http://www.w3.org/2000/svg"><path d="m5.85 0.854c0.195-0.195 0.195-0.512 0-0.707-0.195-0.195-0.512-0.195-0.707 0l-3 3c-0.195 0.195-0.195 0.512 0 0.707l3 3c0.195 0.195 0.512 0.195 0.707 0 0.195-0.195 0.195-0.512 0-0.707l-2.15-2.15h7.79c1.38 0 2.5 1.12 2.5 2.5v2c0 0.276 0.224 0.5 0.5 0.5s0.5-0.224 0.5-0.5v-2c0-1.93-1.57-3.5-3.5-3.5h-7.79l2.15-2.15z" fill="#000"/><path d="m2 7.5c0-0.276-0.224-0.5-0.5-0.5s-0.5 0.224-0.5 0.5v2c0 1.93 1.57 3.5 3.5 3.5h7.79l-2.15 2.15c-0.195 0.195-0.195 0.512 0 0.707 0.195 0.195 0.512 0.195 0.707 0l3-3c0.195-0.195 0.195-0.512 0-0.707l-3-3c-0.195-0.195-0.512-0.195-0.707 0-0.195 0.195-0.195 0.512 0 0.707l2.15 2.15h-7.79c-1.38 0-2.5-1.12-2.5-2.5v-2z" fill="#000"/></svg>
