<svg viewBox="0 0 16 16" xmlns="http://www.w3.org/2000/svg"><path d="m7 10.5c0-0.276-0.224-0.5-0.5-0.5s-0.5 0.224-0.5 0.5v1c0 0.276 0.224 0.5 0.5 0.5s0.5-0.224 0.5-0.5v-1z" fill="#000"/><path d="m9.5 9c0.276 0 0.5 0.224 0.5 0.5v2c0 0.276-0.224 0.5-0.5 0.5s-0.5-0.224-0.5-0.5v-2c0-0.276 0.224-0.5 0.5-0.5z" fill="#000"/><path d="m8.14 0.0504 0.241 0.0176c0.402 0.0293 0.735 0.0535 1 0.0953 0.279 0.0434 0.534 0.111 0.768 0.252 0.362 0.219 0.646 0.546 0.81 0.935 0.106 0.251 0.136 0.512 0.139 0.794 0.0023 0.271-0.0219 0.603-0.0513 1l-0.0089 0.12 3.5 0.255c0.276 0.0201 0.484 0.26 0.463 0.535-0.0201 0.275-0.26 0.482-0.536 0.462l-0.542-0.0395-0.556 6.68c-0.0632 0.758-0.113 1.36-0.192 1.84-0.0802 0.492-0.196 0.9-0.411 1.27-0.353 0.604-0.879 1.09-1.51 1.39-0.385 0.184-0.802 0.265-1.3 0.304-0.486 0.0383-1.09 0.0383-1.85 0.0383h-0.209c-0.761 0-1.36 0-1.85-0.0383-0.497-0.0391-0.913-0.12-1.3-0.304-0.631-0.302-1.16-0.786-1.51-1.39-0.216-0.368-0.331-0.777-0.411-1.27-0.0785-0.481-0.128-1.08-0.192-1.84l-0.629-7.55-0.543-0.0396c-0.276-0.0201-0.484-0.26-0.463-0.535 0.0202-0.275 0.26-0.482 0.536-0.462l3.5 0.255 0.00881-0.12c0.0294-0.401 0.0536-0.733 0.0955-1 0.0435-0.279 0.112-0.533 0.253-0.766 0.219-0.361 0.547-0.644 0.938-0.808 0.252-0.106 0.514-0.136 0.796-0.138 0.272-0.00233 0.604 0.0219 1.01 0.0512zm-5.12 3.64 0.049 0.589 2.89 3.39 2.4-3.59-5.33-0.388zm6.46 0.471c-0.0138 0.041-0.0331 0.081-0.0583 0.119l-0.746 1.12 1.78 1.42 2.21-2.43-3.18-0.232zm0.569-1.06-0.0073 0.0997-4-0.291 0.0073-0.0997c0.0313-0.427 0.0529-0.718 0.0878-0.941 0.0339-0.217 0.0746-0.327 0.12-0.402 0.11-0.181 0.274-0.322 0.469-0.404 0.0811-0.034 0.196-0.0582 0.416-0.0601 0.226-0.00194 0.517 0.0189 0.946 0.0501l0.2 0.0146c0.428 0.0312 0.719 0.0528 0.943 0.0875 0.218 0.0338 0.328 0.0744 0.403 0.12 0.181 0.109 0.323 0.273 0.405 0.468 0.0341 0.0809 0.0584 0.195 0.0602 0.415 2e-3 0.226-0.0189 0.516-0.0502 0.943zm2.33 7.96 0.446-5.35-1.95 2.13c-0.178 0.195-0.476 0.218-0.682 0.0535l-2.07-1.66-1.7 2.55c-0.087 0.131-0.23 0.213-0.387 0.222-0.157 0.00914-0.308-0.0558-0.41-0.175l-2.41-2.84 0.422 5.07c0.0654 0.784 0.112 1.34 0.184 1.78 0.0704 0.432 0.159 0.705 0.287 0.924 0.252 0.431 0.628 0.777 1.08 0.992 0.229 0.11 0.509 0.175 0.945 0.21 0.442 0.0348 1 0.0352 1.79 0.0352h0.167c0.787 0 1.35-4e-4 1.79-0.0352 0.436-0.0343 0.716-0.1 0.945-0.21 0.451-0.216 0.826-0.561 1.08-0.992 0.128-0.219 0.217-0.493 0.288-0.924 0.0714-0.438 0.118-0.997 0.184-1.78z" clip-rule="evenodd" fill="#000" fill-rule="evenodd"/></svg>
