<svg xmlns="http://www.w3.org/2000/svg" viewBox="0 0 16 16" fill="none">
  <path fill="#000"
    d="M7 10.5a.5.5 0 0 0-1 0v1a.5.5 0 0 0 1 0v-1ZM9.5 9a.5.5 0 0 1 .5.5v2a.5.5 0 0 1-1 0v-2a.5.5 0 0 1 .5-.5Z" />
  <path fill="#000" fill-rule="evenodd"
    d="m8.135.05.241.018c.403.03.735.053 1.004.095.279.044.534.112.767.253.363.218.646.546.81.935.106.251.137.512.14.794.001.272-.023.603-.052 1.004l-.01.12 3.5.256a.5.5 0 1 1-.073.997l-.542-.04-.557 6.68c-.063.758-.113 1.356-.191 1.837-.08.492-.196.9-.412 1.269a3.5 3.5 0 0 1-1.51 1.39c-.385.183-.801.265-1.298.304C9.466 16 8.866 16 8.105 16h-.21c-.76 0-1.361 0-1.847-.038-.497-.04-.913-.12-1.298-.305a3.5 3.5 0 0 1-1.51-1.39c-.216-.368-.332-.776-.412-1.268-.078-.48-.128-1.08-.191-1.838l-.63-7.546-.542-.04a.5.5 0 1 1 .073-.997l3.5.255.008-.12c.03-.402.054-.733.095-1.002.044-.278.112-.532.253-.765.22-.362.548-.645.938-.808.252-.106.514-.136.796-.139.272-.002.605.022 1.007.051ZM3.017 3.688l.05.589L5.951 7.67l2.396-3.594-5.33-.389Zm6.457.47a.5.5 0 0 1-.058.12L8.67 5.395l1.776 1.42 2.213-2.425-3.185-.232Zm.57-1.06-.008.099-4-.292.008-.1c.031-.426.053-.717.088-.94.034-.217.075-.327.12-.402.11-.18.274-.322.469-.404.081-.034.195-.058.416-.06.226-.002.517.019.946.05l.2.015c.428.031.719.053.943.087.217.034.327.075.402.12.181.11.323.273.405.468.035.08.059.195.06.415.003.226-.018.516-.05.943Zm2.324 7.96.447-5.354-1.945 2.133a.5.5 0 0 1-.682.054L8.113 6.23 6.416 8.777a.5.5 0 0 1-.797.047l-2.41-2.835.422 5.068c.066.784.113 1.344.184 1.781.07.432.16.705.288.925a2.5 2.5 0 0 0 1.078.992c.23.11.51.175.945.21C6.568 15 7.13 15 7.916 15h.167c.787 0 1.349 0 1.79-.035.437-.034.716-.1.946-.21a2.5 2.5 0 0 0 1.078-.992c.129-.22.217-.493.288-.925.071-.437.118-.997.183-1.78Z"
    clip-rule="evenodd" />
</svg>