<svg fill="none" viewBox="0 0 16 16" xmlns="http://www.w3.org/2000/svg"><path d="m7.46 2c-1.47-0.00303-2.87 0.576-3.91 1.61-0.813 0.805-1.35 1.84-1.54 2.97-0.0244 0.129-0.0984 0.244-0.206 0.319s-0.241 0.105-0.371 0.0837c-0.13-0.0217-0.246-0.0935-0.324-0.2-0.0775-0.106-0.11-0.239-0.0912-0.369 0.225-1.33 0.863-2.56 1.82-3.51 1.23-1.22 2.89-1.91 4.62-1.9 0.865-0.0012 1.72 0.169 2.52 0.501 0.798 0.332 1.52 0.819 2.13 1.43l1.89 2.21v-2.64c0-0.276 0.225-0.5 0.503-0.5s0.503 0.224 0.503 0.5v4c0 0.276-0.225 0.5-0.503 0.5h-3.99c-0.133 2.7e-4 -0.261-0.0522-0.355-0.146s-0.148-0.221-0.148-0.354c0-0.276 0.225-0.5 0.503-0.5h2.91l-2.06-2.4c-1.04-1.03-2.44-1.6-3.9-1.6zm1.09 12c1.47 0.0029 2.87-0.576 3.91-1.61 0.813-0.805 1.35-1.84 1.54-2.97 0.0244-0.129 0.0985-0.244 0.206-0.319s0.241-0.105 0.371-0.0837c0.13 0.0217 0.246 0.0935 0.324 0.2 0.0776 0.106 0.11 0.239 0.0912 0.369-0.225 1.33-0.863 2.56-1.82 3.51-1.23 1.22-2.89 1.91-4.62 1.9-0.865 0.0011-1.72-0.169-2.52-0.501-0.798-0.332-1.52-0.819-2.13-1.43l-1.89-2.21v2.64c0 0.276-0.225 0.5-0.503 0.5-0.133 3e-4 -0.261-0.0522-0.355-0.146-0.0943-0.0937-0.148-0.221-0.148-0.354v-4c0-0.276 0.225-0.5 0.503-0.5h3.99c0.278 0 0.503 0.224 0.503 0.5s-0.225 0.5-0.503 0.5h-2.91l2.06 2.4c1.04 1.03 2.44 1.6 3.9 1.6z" fill="#000"/></svg>
