<svg xmlns="http://www.w3.org/2000/svg" viewBox="0 0 16 16" fill="none">
  <path fill="#000"
    d="M7.455 2a5.53 5.53 0 0 0-3.912 1.61 5.461 5.461 0 0 0-1.544 2.973.503.503 0 0 1-.992-.166 6.46 6.46 0 0 1 1.824-3.513A6.54 6.54 0 0 1 7.455 1a6.54 6.54 0 0 1 4.651 1.933l1.888 2.207V2.5c0-.276.225-.5.503-.5s.503.224.503.5v4c0 .276-.225.5-.503.5h-3.994A.502.502 0 0 1 10 6.5c0-.276.225-.5.503-.5h2.906l-2.056-2.403A5.53 5.53 0 0 0 7.455 2Zm1.09 12a5.53 5.53 0 0 0 3.912-1.61 5.461 5.461 0 0 0 1.544-2.973.503.503 0 0 1 .992.166 6.46 6.46 0 0 1-1.824 3.513A6.54 6.54 0 0 1 8.545 15a6.539 6.539 0 0 1-4.651-1.934L2.006 10.86v2.64a.501.501 0 0 1-.858.354A.502.502 0 0 1 1 13.5v-4c0-.276.225-.5.503-.5h3.994c.278 0 .503.224.503.5s-.225.5-.503.5H2.591l2.056 2.403A5.53 5.53 0 0 0 8.545 14Z" />
</svg>