<svg xmlns="http://www.w3.org/2000/svg" viewBox="0 0 16 16" fill="none">
  <path fill="#000" d="M9 .5a.5.5 0 0 1 .5-.5h3a.5.5 0 0 1 .5.5v3a.5.5 0 0 1-1 0V1H9.5A.5.5 0 0 1 9 .5Z" />
  <path fill="#000" fill-rule="evenodd"
    d="M6.5 12a5.477 5.477 0 0 0 3.52-1.273l3.92 3.92a.5.5 0 0 0 .707-.708l-3.92-3.92A5.5 5.5 0 1 0 6.5 12Zm0-1a4.5 4.5 0 1 0 0-9 4.5 4.5 0 0 0 0 9Z"
    clip-rule="evenodd" />
  <path fill="#000"
    d="M1 9.5a.5.5 0 0 0-1 0v3a.5.5 0 0 0 .5.5h3a.5.5 0 0 0 0-1H1V9.5ZM.5 0a.5.5 0 0 0-.5.5v3a.5.5 0 0 0 1 0V1h2.5a.5.5 0 0 0 0-1h-3Z" />
</svg>