<svg viewBox="0 0 32 32" xmlns="http://www.w3.org/2000/svg"><path d="m29.5 1.26c0.342-0.342 0.896-0.342 1.24 0 0.341 0.342 0.342 0.896 0 1.24l-28.3 28.2c-0.342 0.341-0.896 0.342-1.24 0-0.342-0.342-0.341-0.896 0-1.24l28.3-28.2z" fill="#000"/><path d="m29.2 6.91c0.174 0.0988 0.339 0.209 0.497 0.33 0.416 0.319 0.788 0.692 1.11 1.11 1.24 1.62 1.24 3.96 1.24 8.65s-5e-4 7.04-1.24 8.65c-0.319 0.416-0.692 0.788-1.11 1.11-1.62 1.24-3.96 1.24-8.65 1.24h-10c-1.09 0-2.06-0.0019-2.92-0.0176l0.989-0.989c0.589 0.0039 1.23 0.0068 1.93 0.0068h10c2.37 0 4.06-0.0012 5.37-0.148 1.29-0.145 2.07-0.421 2.68-0.885 0.347-0.266 0.657-0.576 0.923-0.923 0.464-0.605 0.74-1.39 0.885-2.68 0.147-1.31 0.148-3 0.148-5.37s-0.0012-4.06-0.148-5.37c-0.145-1.29-0.421-2.07-0.885-2.68-0.266-0.347-0.576-0.657-0.923-0.923-0.191-0.146-0.398-0.273-0.63-0.382l0.741-0.741z" fill="#000"/><path d="m18.8 2c1.38 7e-5 2.66 0.711 3.39 1.88l0.723 1.16-0.727 0.726-0.844-1.35c-0.514-0.822-1.39-1.34-2.35-1.4l-0.193-0.00586h-5.57c-1.03 7e-5 -2 0.533-2.54 1.41l-1.19 1.9c-0.271 0.434-0.743 0.697-1.25 0.705-2.95 0.0476-4.32 0.281-5.28 1.02-0.347 0.266-0.657 0.576-0.923 0.923-0.464 0.605-0.74 1.39-0.885 2.68-0.147 1.31-0.148 3-0.148 5.37s0.0012 4.06 0.148 5.37c0.145 1.29 0.421 2.07 0.885 2.68 0.123 0.161 0.258 0.312 0.399 0.456l-0.707 0.707c-0.172-0.175-0.335-0.359-0.485-0.555-1.24-1.62-1.24-3.96-1.24-8.65 1.08e-8 -4.69 3.73e-4 -7.04 1.24-8.65 0.319-0.416 0.692-0.788 1.11-1.11 1.1-0.846 2.54-1.11 4.84-1.2l1.04-0.0264c0.149-0.0024 0.288-0.0702 0.381-0.184l0.0371-0.0518 1.19-1.9c0.731-1.17 2.01-1.88 3.39-1.88h5.57z" fill="#000"/><path d="m21.8 14.3c0.157 0.536 0.243 1.1 0.243 1.69 0 3.31-2.69 6-6 6-0.588 0-1.15-0.0858-1.69-0.243l0.832-0.832c0.279 0.0484 0.566 0.0752 0.859 0.0752 2.76 0 5-2.24 5-5 0-0.293-0.0268-0.58-0.0752-0.859l0.832-0.832z" fill="#000"/><path d="m16 10c0.587 0 1.15 0.085 1.69 0.242l-0.832 0.832c-0.279-0.0483-0.566-0.0742-0.858-0.0742-2.76 0-5 2.24-5 5 0 0.293 0.026 0.58 0.0742 0.858l-0.832 0.832c-0.157-0.536-0.242-1.1-0.242-1.69 1e-4 -3.31 2.69-6 6-6z" fill="#000"/></svg>
