<svg viewBox="0 0 16 16" xmlns="http://www.w3.org/2000/svg"><path d="m14.1 1.15c0.195-0.195 0.512-0.195 0.707 0 0.195 0.195 0.195 0.512 0 0.707l-7.42 7.42c0.5 0.449 0.838 0.631 1.07 0.679 0.217 0.0433 0.413-0.0151 0.707-0.31l0.47-0.469c0.176-0.176 0.329-0.33 0.465-0.446 0.14-0.12 0.293-0.228 0.48-0.295 0.246-0.0879 0.511-0.11 0.766-0.0664l0.108 0.0234c0.192 0.0478 0.354 0.139 0.506 0.244 0.147 0.102 0.314 0.239 0.508 0.397l1.78 1.46c0.127 0.104 0.23 0.188 0.311 0.276l0.0859 0.104c0.402 0.529 0.413 1.27 0.0098 1.81-0.0713 0.0958-0.169 0.192-0.282 0.306l-0.5 0.501c-0.383 0.383-0.944 0.776-1.53 1.06-0.579 0.283-1.26 0.5-1.87 0.444-2.24-0.204-4.13-1.17-5.93-2.87l-2.73 2.73c-0.195 0.195-0.512 0.195-0.707 0-0.195-0.195-0.195-0.512 0-0.707l13-13zm-3.11 8.21-0.0713 0.0195c-0.0261 0.00935-0.0723 0.0323-0.167 0.113-0.0995 0.0851-0.221 0.206-0.408 0.394l-0.47 0.469c-0.418 0.418-0.936 0.718-1.61 0.583-0.499-0.0999-1.01-0.43-1.59-0.951l-1.43 1.43c1.67 1.57 3.35 2.4 5.31 2.58 0.343 0.0311 0.827-0.0947 1.34-0.347 0.505-0.247 0.972-0.579 1.27-0.873l0.5-0.501c0.138-0.138 0.17-0.172 0.187-0.194l0.0468-0.0762c0.092-0.185 0.0641-0.412-0.0791-0.569-0.0195-0.0212-0.0561-0.0537-0.204-0.175l-1.78-1.46c-0.205-0.168-0.338-0.275-0.445-0.35-0.101-0.0702-0.149-0.0897-0.177-0.0967-0.0737-0.0184-0.151-0.0193-0.224-0.00489z" clip-rule="evenodd" fill="#000" fill-rule="evenodd"/><path d="m3.32 1.3c0.579-0.43 1.38-0.389 1.91 0.0957l0.132 0.138c0.0448 0.0516 0.0927 0.11 0.145 0.173l1.46 1.78c0.158 0.193 0.295 0.361 0.397 0.508 0.079 0.114 0.15 0.234 0.2 0.367l0.044 0.139 0.0234 0.108c0.044 0.255 0.0214 0.519-0.0664 0.765-0.0668 0.186-0.175 0.34-0.295 0.48-0.116 0.136-0.27 0.288-0.446 0.465l-0.469 0.47c-0.239 0.239-0.321 0.414-0.321 0.587l-0.803 0.802c-0.0776-0.164-0.134-0.326-0.166-0.485-0.134-0.674 0.165-1.19 0.583-1.61l0.469-0.47c0.187-0.187 0.308-0.309 0.394-0.408 0.0809-0.0946 0.104-0.141 0.113-0.167l0.0195-0.0713c0.0143-0.0728 0.0125-0.15-0.00586-0.224-0.00719-0.0278-0.0261-0.0765-0.0957-0.177-0.0744-0.107-0.182-0.241-0.35-0.445l-1.46-1.78c-0.122-0.149-0.154-0.185-0.175-0.204-0.18-0.163-0.451-0.177-0.646-0.0322-0.0224 0.0167-0.056 0.0482-0.194 0.187l-0.501 0.5c-0.294 0.294-0.626 0.761-0.873 1.27-0.252 0.516-0.378 1-0.347 1.34 0.142 1.56 0.703 2.95 1.72 4.29l-0.714 0.714c-1.16-1.5-1.83-3.09-2-4.92-0.0551-0.611 0.162-1.29 0.444-1.87 0.288-0.59 0.682-1.15 1.06-1.53l0.501-0.5c0.114-0.114 0.21-0.211 0.306-0.282z" fill="#000"/></svg>
