<svg viewBox="0 0 24 24" xmlns="http://www.w3.org/2000/svg"><path d="m19 15.5c0-0.276 0.224-0.5 0.5-0.5s0.5 0.224 0.5 0.5v2c0 0.276-0.224 0.5-0.5 0.5s-0.5-0.224-0.5-0.5v-2z" fill="#000"/><path d="m16.5 15c-0.276 0-0.5 0.224-0.5 0.5v2c0 0.276 0.224 0.5 0.5 0.5s0.5-0.224 0.5-0.5v-2c0-0.276-0.224-0.5-0.5-0.5z" fill="#000"/><path d="m13 15.5c0-0.276 0.224-0.5 0.5-0.5s0.5 0.224 0.5 0.5v2c0 0.276-0.224 0.5-0.5 0.5s-0.5-0.224-0.5-0.5v-2z" fill="#000"/><path d="m10.5 15c-0.276 0-0.5 0.224-0.5 0.5v2c0 0.276 0.224 0.5 0.5 0.5s0.5-0.224 0.5-0.5v-2c0-0.276-0.224-0.5-0.5-0.5z" fill="#000"/><path d="m8.79 2c-1.02-1e-5 -1.82-1e-5 -2.47 0.074-0.668 0.0762-1.22 0.235-1.71 0.587s-0.812 0.823-1.1 1.43c-0.275 0.592-0.53 1.36-0.852 2.32l-2.04 6.12c-0.293 0.879-0.458 1.38-0.542 1.89-0.0839 0.517-0.0839 1.07-0.0839 1.97v0.102c0 0.93 0 1.39 0.0878 1.78 0.299 1.31 1.32 2.33 2.63 2.63 0.384 0.0878 0.849 0.0878 1.78 0.0878h15c0.93 0 1.39 0 1.78-0.0878 1.31-0.299 2.33-1.32 2.63-2.63 0.0878-0.384 0.0878-0.849 0.0878-1.78v-0.1-0.0012c0-0.899 0-1.45-0.0839-1.97-0.084-0.518-0.25-1.01-0.542-1.89l-2.04-6.12c-0.322-0.965-0.577-1.73-0.852-2.32-0.284-0.609-0.608-1.08-1.1-1.43s-1.04-0.51-1.71-0.587c-0.648-0.074-1.45-0.074-2.47-0.074h-6.41zm0.0307 1c-1.06 0-1.8 7.6e-4 -2.39 0.0676-0.572 0.0653-0.936 0.189-1.23 0.404-0.298 0.215-0.531 0.521-0.774 1.04-0.248 0.534-0.486 1.24-0.82 2.25l-1.91 5.74c0.314-0.189 0.66-0.331 1.03-0.415 0.384-0.0878 0.849-0.0878 1.78-0.0878h15c0.93 0 1.39 0 1.78 0.0878 0.369 0.0841 0.715 0.226 1.03 0.415l-1.91-5.74c-0.334-1-0.571-1.71-0.82-2.25-0.243-0.522-0.476-0.828-0.774-1.04-0.298-0.215-0.662-0.339-1.23-0.404-0.585-0.0668-1.33-0.0676-2.39-0.0676h-6.35zm10.7 10h-15c-0.985 0-1.31 0.0063-1.56 0.0627-0.936 0.214-1.67 0.945-1.88 1.88-0.0564 0.247-0.0627 0.572-0.0627 1.56s0.00632 1.31 0.0627 1.56c0.214 0.936 0.945 1.67 1.88 1.88 0.247 0.0564 0.572 0.0627 1.56 0.0627h15c0.984 0 1.31-0.0063 1.56-0.0627 0.936-0.214 1.67-0.945 1.88-1.88 0.0564-0.247 0.0627-0.572 0.0627-1.56s-0.0063-1.31-0.0627-1.56c-0.214-0.936-0.945-1.67-1.88-1.88-0.247-0.0564-0.572-0.0627-1.56-0.0627z" clip-rule="evenodd" fill="#000" fill-rule="evenodd"/></svg>
