<svg viewBox="0 0 24 24" xmlns="http://www.w3.org/2000/svg"><path d="m12 2.12c0.312-0.013 0.613 0.121 0.812 0.362 0.16 0.194 0.197 0.434 0.213 0.609 0.0163 0.182 0.0163 0.415 0.0163 0.68v16.5c0 0.265 0 0.498-0.0163 0.68-0.0157 0.175-0.0526 0.415-0.213 0.609-0.199 0.241-0.5 0.375-0.812 0.362-0.252-0.0105-0.455-0.144-0.595-0.249-0.146-0.11-0.319-0.265-0.516-0.442l-3.23-2.9c-0.185-0.167-0.223-0.197-0.26-0.218-0.0426-0.024-0.0886-0.0416-0.136-0.0523-0.0414-0.0092-0.0902-0.012-0.339-0.012h-1.61c-0.821 0-1.47 0-1.99-0.0425-0.531-0.0434-0.975-0.134-1.38-0.339-0.659-0.336-1.19-0.871-1.53-1.53-0.205-0.403-0.296-0.847-0.339-1.38-0.0425-0.521-0.0425-1.17-0.0425-1.99v-1.44c-3.22e-6 -0.821-5.76e-6 -1.47 0.0425-1.99 0.0434-0.531 0.134-0.975 0.339-1.38 0.336-0.659 0.871-1.19 1.53-1.53 0.403-0.205 0.847-0.296 1.38-0.339 0.521-0.0425 1.17-0.0425 1.99-0.0425h1.61c0.249 0 0.298-0.00279 0.339-0.012 0.0478-0.0107 0.0937-0.0283 0.136-0.0523 0.0369-0.0208 0.0751-0.0514 0.26-0.218l3.23-2.9c0.197-0.177 0.37-0.333 0.516-0.443 0.14-0.105 0.343-0.238 0.595-0.249zm0.0047 1.05c-0.106 0.0794-0.245 0.204-0.464 0.401l-3.24 2.91c-0.14 0.127-0.264 0.238-0.41 0.32-0.128 0.0721-0.266 0.125-0.409 0.157-0.163 0.0364-0.33 0.0363-0.519 0.0361l-1.62-3e-5c-0.848 0-1.45 3.9e-4 -1.93 0.0392-0.469 0.0383-0.767 0.112-1.01 0.233-0.47 0.24-0.853 0.622-1.09 1.09-0.122 0.239-0.195 0.536-0.233 1.01-0.0388 0.475-0.0392 1.08-0.0392 1.93v1.4c0 0.848 3.9e-4 1.45 0.0392 1.93 0.0384 0.469 0.112 0.767 0.233 1.01 0.24 0.47 0.622 0.853 1.09 1.09 0.239 0.122 0.536 0.195 1.01 0.233 0.475 0.0388 1.08 0.0392 1.93 0.0392h1.62c0.189-2e-4 0.356-3e-4 0.519 0.0361 0.143 0.032 0.281 0.0849 0.409 0.157 0.146 0.0819 0.269 0.194 0.41 0.32l3.24 2.91c0.219 0.197 0.358 0.321 0.464 0.401 0.0079 0.0059 0.0152 0.0112 0.0219 0.016 1e-3 -0.0082 0.0019-0.0172 0.0028-0.027 0.0118-0.132 0.0123-0.318 0.0123-0.613v-16.4c0-0.294-5e-4 -0.481-0.0123-0.613-9e-4 -0.00979-0.0018-0.0188-0.0028-0.027-0.0067 0.00483-0.014 0.0102-0.0219 0.016z" clip-rule="evenodd" fill="#000" fill-rule="evenodd"/><path d="m17.8 2.62c0.137-0.24 0.442-0.323 0.682-0.187 3.32 1.89 5.56 5.47 5.56 9.56 0 4.11-2.25 7.69-5.58 9.58-0.24 0.136-0.545 0.0517-0.682-0.188-0.136-0.24-0.0517-0.545 0.188-0.682 3.03-1.72 5.08-4.97 5.08-8.71 0-3.72-2.03-6.97-5.05-8.69-0.24-0.137-0.324-0.442-0.187-0.682z" fill="#000"/><path d="m16.5 5.91c-0.24-0.136-0.545-0.0524-0.682 0.188s-0.0524 0.545 0.188 0.682c1.82 1.03 3.04 2.98 3.04 5.22 0 2.24-1.23 4.19-3.04 5.22-0.24 0.136-0.324 0.441-0.188 0.682s0.441 0.324 0.682 0.188c2.12-1.2 3.55-3.48 3.55-6.09 0-2.61-1.43-4.89-3.55-6.09z" fill="#000"/></svg>
