<svg viewBox="0 0 24 24" xmlns="http://www.w3.org/2000/svg"><path d="m7 13c1.66 0 3-1.34 3-3 0-1.66-1.34-3-3-3s-3 1.34-3 3c0 1.66 1.34 3 3 3zm0-1c1.1 0 2-0.895 2-2 0-1.1-0.895-2-2-2s-2 0.895-2 2c0 1.1 0.895 2 2 2z" clip-rule="evenodd" fill="#000" fill-rule="evenodd"/><path d="m20 10c0 1.66-1.34 3-3 3s-3-1.34-3-3c0-1.66 1.34-3 3-3s3 1.34 3 3zm-1 0c0 1.1-0.895 2-2 2s-2-0.895-2-2c0-1.1 0.895-2 2-2s2 0.895 2 2z" clip-rule="evenodd" fill="#000" fill-rule="evenodd"/><path d="m6.51 21h11c0.0076 2e-4 0.0153 2e-4 0.0229 0h0.0884c2.24 0 3.36 0 4.22-0.436 0.753-0.384 1.36-0.995 1.75-1.75 0.436-0.856 0.436-1.98 0.436-4.22v-5.2c0-2.24 0-3.36-0.436-4.22-0.384-0.753-0.995-1.36-1.75-1.75-0.856-0.436-1.98-0.436-4.22-0.436h-11.2c-2.24 0-3.36 0-4.22 0.436-0.753 0.384-1.36 0.995-1.75 1.75-0.436 0.856-0.436 1.98-0.436 4.22v5.2c0 2.24 0 3.36 0.436 4.22 0.383 0.753 0.995 1.36 1.75 1.75 0.856 0.436 1.98 0.436 4.22 0.436h0.0884c0.00767 2e-4 0.0153 2e-4 0.023 0zm11.1-17h-11.2c-1.14 0-1.93 7.8e-4 -2.55 0.0512-0.605 0.0494-0.953 0.142-1.22 0.276-0.564 0.288-1.02 0.747-1.31 1.31-0.134 0.263-0.226 0.611-0.276 1.22-0.0504 0.617-0.0512 1.41-0.0512 2.55v5.2c0 1.14 7.8e-4 1.93 0.0512 2.55 0.0494 0.605 0.142 0.953 0.276 1.22 0.288 0.564 0.747 1.02 1.31 1.31 0.263 0.134 0.611 0.226 1.22 0.276 0.573 0.0468 1.3 0.0508 2.31 0.0512l1.37-3.43c0.38-0.949 1.3-1.57 2.32-1.57h4.29c1.02 0 1.94 0.622 2.32 1.57l1.37 3.43c1.01-4e-4 1.73-0.0044 2.31-0.0512 0.605-0.0494 0.953-0.142 1.22-0.276 0.564-0.288 1.02-0.746 1.31-1.31 0.134-0.263 0.226-0.611 0.276-1.22 0.0504-0.617 0.0512-1.41 0.0512-2.55v-5.2c0-1.14-8e-4 -1.93-0.0512-2.55-0.0494-0.605-0.142-0.953-0.276-1.22-0.288-0.564-0.746-1.02-1.31-1.31-0.263-0.134-0.611-0.226-1.22-0.276-0.617-0.0504-1.41-0.0512-2.55-0.0512zm-7.75 12c-0.613 0-1.16 0.373-1.39 0.943l-1.22 3.06h9.52l-1.22-3.06c-0.228-0.57-0.779-0.943-1.39-0.943h-4.29z" clip-rule="evenodd" fill="#000" fill-rule="evenodd"/></svg>
