<svg fill="none" viewBox="0 0 32 32" xmlns="http://www.w3.org/2000/svg"><path d="m9.27 5.08c-0.296-0.0774-0.621-0.0812-1.45-0.0812h-4.12c-0.568 0-0.964 3.9e-4 -1.27 0.0256-0.303 0.0247-0.476 0.0708-0.608 0.138-0.282 0.144-0.512 0.373-0.656 0.656-0.0671 0.132-0.113 0.306-0.138 0.608-0.0252 0.308-0.0256 0.705-0.0256 1.27v16.6c0 0.568 3.9e-4 0.964 0.0256 1.27 0.0247 0.303 0.0708 0.476 0.138 0.608 0.144 0.282 0.373 0.512 0.656 0.656 0.132 0.0671 0.306 0.113 0.608 0.138 0.0861 0.0071 0.179 0.0122 0.281 0.0159 0.882-0.083 1.64-0.689 1.9-1.55l3.06-9.96 0.0218-0.071c0.102-0.334 0.192-0.627 0.376-0.855 0.161-0.199 0.37-0.353 0.607-0.449 0.272-0.109 0.578-0.108 0.928-0.108l0.0743 1e-4h19.5c0.371 0 0.683 0 0.933 0.0226 0.256 0.0232 0.514 0.0745 0.742 0.224 0.328 0.216 0.558 0.551 0.642 0.935 0.0578 0.266 0.0131 0.525-0.0572 0.772-0.0685 0.241-0.18 0.532-0.314 0.879l-3.42 8.88c-0.251 0.654-0.424 1.11-0.729 1.45-0.268 0.301-0.605 0.532-0.983 0.675-0.428 0.162-0.912 0.162-1.61 0.161h-0.893-0.0042-21c-0.0604 0-0.118-0.0107-0.172-0.0304-0.357-0.0303-0.672-0.0936-0.963-0.242-0.47-0.24-0.853-0.622-1.09-1.09-0.151-0.296-0.214-0.616-0.244-0.981-0.0289-0.354-0.0289-0.791-0.0289-1.33v-16.6c-4.88e-6 -0.542-8.87e-6 -0.979 0.0289-1.33 0.0298-0.364 0.0927-0.685 0.244-0.981 0.24-0.47 0.622-0.853 1.09-1.09 0.296-0.151 0.616-0.214 0.981-0.244 0.354-0.0289 0.791-0.0289 1.33-0.0289h4.21c0.734-1.1e-4 1.2-1.8e-4 1.63 0.114 0.386 0.101 0.751 0.267 1.08 0.49 0.373 0.253 0.676 0.6 1.16 1.15l0.678 0.775c0.545 0.623 0.762 0.865 1.02 1.04 0.236 0.16 0.497 0.278 0.772 0.35 0.296 0.0774 0.621 0.0812 1.45 0.0812h8.84c0.451 0 0.815 0 1.11 0.0202 0.304 0.0208 0.574 0.0646 0.828 0.17 0.613 0.254 1.1 0.74 1.35 1.35 0.106 0.255 0.149 0.524 0.17 0.828 0.0202 0.296 0.0202 0.66 0.0202 1.11v0.0177c0 0.276-0.224 0.5-0.5 0.5s-0.5-0.224-0.5-0.5c0-0.473-3e-4 -0.802-0.0179-1.06-0.0173-0.253-0.0496-0.401-0.0963-0.514-0.152-0.368-0.444-0.66-0.812-0.812-0.113-0.0467-0.26-0.079-0.514-0.0963-0.258-0.0176-0.588-0.0179-1.06-0.0179l-8.89 1e-5c-0.734 1.1e-4 -1.2 1.8e-4 -1.63-0.114-0.386-0.101-0.751-0.267-1.08-0.49-0.373-0.253-0.676-0.6-1.16-1.15l-0.678-0.775c-0.545-0.623-0.762-0.865-1.02-1.04-0.236-0.16-0.497-0.278-0.772-0.35zm-4.44 21.9h19.5c0.833 0 1.12-0.0078 1.35-0.0967 0.226-0.0855 0.429-0.224 0.59-0.405 0.168-0.188 0.277-0.451 0.576-1.23l3.37-8.77c0.144-0.374 0.239-0.623 0.294-0.815 0.0542-0.19 0.0478-0.26 0.042-0.286-0.0278-0.128-0.105-0.24-0.214-0.312-0.0228-0.0149-0.0853-0.0457-0.282-0.0636-0.199-0.018-0.465-0.0185-0.866-0.0185h-19.5c-0.468 0-0.562 0.0087-0.629 0.036-0.0791 0.0317-0.149 0.0832-0.202 0.15-0.046 0.0569-0.0818 0.144-0.219 0.591l-3.06 9.96c-0.149 0.484-0.406 0.914-0.739 1.26z" clip-rule="evenodd" fill="#000" fill-rule="evenodd"/></svg>
