<svg viewBox="0 0 32 32" xmlns="http://www.w3.org/2000/svg"><path d="m25 20c1.1 0 2 0.895 2 2s-0.895 2-2 2-2-0.895-2-2 0.895-2 2-2z" fill="#000"/><path d="m21 2c2.15 0 3.22 3.8e-4 4.12 0.367 0.798 0.324 1.5 0.848 2.03 1.52 0.607 0.764 0.911 1.79 1.52 3.85l2.66 9.04c0.164 0.558 0.246 0.838 0.314 1.12 0.179 0.737 0.288 1.49 0.324 2.25 0.014 0.29 0.0137 0.581 0.0137 1.16 0 0.14-0.0018 0.274-2e-3 0.401 1e-4 0.0932 2e-3 0.189 2e-3 0.287 0 1.86-3e-4 2.8-0.305 3.53-0.406 0.98-1.18 1.76-2.16 2.16-0.735 0.304-1.67 0.305-3.53 0.305h-20l-1.23-0.0049c-0.993-0.0131-1.63-0.062-2.16-0.246l-0.14-0.0537c-0.919-0.381-1.66-1.09-2.08-1.98l-0.0801-0.182c-0.304-0.735-0.305-1.67-0.305-3.53 0-0.108 9.17e-4 -0.213 9.77e-4 -0.315-9.82e-5 -0.119-9.77e-4 -0.244-9.77e-4 -0.373 6.4e-11 -0.582-3.19e-4 -0.874 0.0137-1.16 0.0275-0.568 0.0956-1.13 0.203-1.69l0.121-0.556c0.0341-0.141 0.0716-0.281 0.121-0.455l0.193-0.664 2.66-9.04c0.568-1.93 0.87-2.96 1.41-3.71l0.111-0.146c0.469-0.59 1.06-1.07 1.74-1.39l0.295-0.13c0.678-0.275 1.45-0.344 2.7-0.361l1.42-0.00586h10zm-15 15c-0.945 0-1.6 1e-3 -2.12 0.0361-0.507 0.0346-0.803 0.0991-1.03 0.192-0.735 0.304-1.32 0.888-1.62 1.62-0.0934 0.225-0.158 0.521-0.192 1.03-0.0315 0.463-0.0347 1.04-0.0352 1.84 0.00216 1.34 0.0191 1.89 0.139 2.33 0.372 1.37 1.44 2.44 2.81 2.81 0.482 0.131 1.1 0.14 2.74 0.14h18.6c1.64 0 2.25-0.0086 2.74-0.14 1.37-0.372 2.44-1.44 2.81-2.81 0.12-0.44 0.136-0.995 0.138-2.33-4e-4 -0.796-0.0026-1.37-0.0341-1.84-0.0346-0.507-0.0991-0.803-0.192-1.03-0.304-0.735-0.888-1.32-1.62-1.62-0.225-0.0933-0.521-0.158-1.03-0.192-0.516-0.0351-1.17-0.0361-2.12-0.0361h-20zm4.99-14c-2.24 0-3.07 0.0174-3.75 0.293-0.638 0.259-1.2 0.679-1.63 1.22-0.456 0.574-0.708 1.37-1.34 3.51l-2.56 8.69c0.181-0.127 0.374-0.238 0.576-0.334l0.182-0.0801c0.735-0.304 1.67-0.305 3.53-0.305h20c1.86 0 2.8 3e-4 3.53 0.305 0.269 0.111 0.522 0.252 0.757 0.416l-2.56-8.7c-0.631-2.14-0.883-2.94-1.34-3.51-0.429-0.539-0.99-0.96-1.63-1.22-0.679-0.276-1.51-0.293-3.75-0.293h-10z" clip-rule="evenodd" fill="#000" fill-rule="evenodd"/></svg>
