<svg viewBox="0 0 32 32" xmlns="http://www.w3.org/2000/svg"><path d="m16 10c3.31 0 6 2.69 6 6s-2.69 6-6 6-6-2.69-6-6 2.69-6 6-6zm0 1c-2.76 0-5 2.24-5 5s2.24 5 5 5 5-2.24 5-5-2.24-5-5-5z" clip-rule="evenodd" fill="#000" fill-rule="evenodd"/><path d="m18.8 2c1.38 7e-5 2.66 0.711 3.39 1.88l1.19 1.9c0.0902 0.144 0.248 0.233 0.418 0.235 2.91 0.047 4.61 0.26 5.87 1.23 0.416 0.319 0.788 0.691 1.11 1.11 1.24 1.62 1.24 3.96 1.24 8.65s-4e-4 7.04-1.24 8.65c-0.319 0.416-0.692 0.788-1.11 1.11-1.62 1.24-3.96 1.24-8.65 1.24h-10c-4.69 0-7.04-4e-4 -8.65-1.24-0.416-0.319-0.788-0.692-1.11-1.11-1.24-1.62-1.24-3.96-1.24-8.65s3.54e-4 -7.04 1.24-8.65c0.319-0.416 0.691-0.788 1.11-1.11 1.1-0.846 2.54-1.11 4.84-1.2l1.04-0.0264c0.149-0.0024 0.288-0.0702 0.381-0.184l0.0371-0.0518 1.19-1.9c0.731-1.17 2.01-1.88 3.39-1.88h5.57zm-5.57 1c-1.03 7e-5 -2 0.533-2.54 1.41l-1.19 1.9c-0.271 0.434-0.743 0.697-1.25 0.705-2.95 0.0476-4.32 0.281-5.28 1.02-0.347 0.266-0.657 0.576-0.923 0.923-0.464 0.605-0.74 1.39-0.885 2.68-0.147 1.31-0.148 3-0.148 5.37s0.00117 4.06 0.148 5.37c0.145 1.29 0.421 2.07 0.885 2.68 0.266 0.347 0.576 0.657 0.923 0.923 0.605 0.464 1.39 0.74 2.68 0.885 1.31 0.147 3 0.148 5.37 0.148h10c2.37 0 4.06-0.0012 5.37-0.148 1.29-0.145 2.07-0.421 2.68-0.885 0.347-0.266 0.657-0.576 0.923-0.923 0.464-0.605 0.74-1.39 0.885-2.68 0.147-1.31 0.148-3 0.148-5.37s-0.0012-4.06-0.148-5.37c-0.145-1.29-0.421-2.07-0.885-2.68-0.266-0.347-0.576-0.657-0.923-0.923-0.962-0.738-2.33-0.972-5.28-1.02-0.507-0.00825-0.979-0.271-1.25-0.705l-1.19-1.9c-0.514-0.822-1.39-1.34-2.35-1.4l-0.193-0.00586h-5.57z" clip-rule="evenodd" fill="#000" fill-rule="evenodd"/></svg>
