<svg fill="none" viewBox="0 0 16 16" xmlns="http://www.w3.org/2000/svg"><path d="m11.8 2.35 0.111 0.0989c0.143 0.14 0.252 0.301 0.327 0.472l0.0248-0.013c0.548-0.295 1.24-0.241 1.73 0.161l0.111 0.0989c0.5 0.49 0.588 1.23 0.264 1.81l-0.0141 0.0223c0.132 0.0576 0.257 0.132 0.371 0.224l0.111 0.0989c0.5 0.49 0.588 1.23 0.264 1.81l-0.0141 0.0223c0.132 0.0576 0.257 0.132 0.371 0.224l0.111 0.0989c0.607 0.595 0.607 1.56 0 2.16l-5.13 5.03c-1.82 1.79-4.77 1.79-6.59 0l-1.46-1.44c-1.82-1.79-1.82-4.68 0-6.47l3.3-3.23c0.607-0.595 1.59-0.595 2.2 0 0.107 0.105 0.195 0.222 0.264 0.346l0.0387 0.0754 1.53-1.5c0.571-0.56 1.48-0.593 2.09-0.0989zm-1.35 0.817-5.13 5.03c-0.488 0.479-1.22-0.239-0.732-0.718l2.56-2.51c0.202-0.198 0.202-0.52 0-0.718-0.202-0.198-0.53-0.198-0.732 0l-3.3 3.23c-1.42 1.39-1.42 3.64 0 5.03l1.46 1.44c1.42 1.39 3.71 1.39 5.13 0l5.13-5.03c0.202-0.198 0.202-0.52 0-0.718-0.202-0.198-0.53-0.198-0.732 0l-2.2 2.16c-0.461 0.452-1.14-0.163-0.803-0.637l0.0704-0.0818 2.93-2.87c0.202-0.198 0.202-0.52 0-0.718-0.202-0.198-0.53-0.198-0.732 0l-2.93 2.87c-0.461 0.452-1.14-0.163-0.803-0.637l0.0703-0.0818 3.66-3.59c0.202-0.198 0.202-0.52 0-0.718-0.202-0.198-0.53-0.198-0.732 0l-3.66 3.59c-0.488 0.479-1.22-0.239-0.732-0.718l2.93-2.87c0.202-0.198 0.202-0.52 0-0.718-0.202-0.198-0.53-0.198-0.732 0zm-0.825-2.99 0.868 0.289 0.17-0.0849c0.533-0.267 1.17-0.191 1.62 0.182l0.11 0.0992 0.49 0.49c0.195 0.195 0.195 0.512 0 0.707-0.195 0.195-0.512 0.195-0.707 0l-0.49-0.49c-0.152-0.152-0.385-0.19-0.577-0.0937l-0.355 0.178c-0.119 0.0593-0.256 0.0691-0.382 0.0271l-1.06-0.355c-0.138-0.0462-0.29-0.0295-0.415 0.0456l-2.11 1.26c-0.166 0.0994-0.374 0.0945-0.535-0.0127l-0.818-0.545c-0.198-0.132-0.462-0.106-0.631 0.0625l-3.21 3.21c-0.359 0.359-0.561 0.846-0.561 1.35 0 0.276-0.224 0.5-0.5 0.5s-0.5-0.224-0.5-0.5c0-0.773 0.307-1.51 0.854-2.06l3.21-3.21c0.506-0.506 1.3-0.584 1.89-0.187l0.555 0.369 1.83-1.1c0.375-0.225 0.831-0.275 1.25-0.137z" fill="#000"/></svg>
