<svg fill="none" viewBox="0 0 16 16" xmlns="http://www.w3.org/2000/svg"><path d="m14 5.5c-0.248-0.0017-0.486-0.0955-0.669-0.263-0.164-0.15-0.38-0.238-0.61-0.238h-9.42c-0.231 0-0.447 0.0875-0.61 0.238-0.183 0.168-0.421 0.261-0.669 0.263-0.627 0.00432-0.716 0.0436-0.735 0.0537-0.0941 0.0479-0.171 0.124-0.218 0.218-2.1e-4 4.1e-4 -0.00132 0.00259-0.00317 0.00779-0.00194 0.00541-0.00515 0.0154-0.00898 0.0317-0.00806 0.0342-0.0176 0.0906-0.0252 0.184-0.0163 0.2-0.0171 0.467-0.0171 0.904v1.7c0 0.437 7.8e-4 0.704 0.0171 0.904 0.00761 0.0932 0.0172 0.15 0.0252 0.184 0.00383 0.0163 0.00704 0.0263 0.00898 0.0317 0.00185 0.0052 0.00296 0.00738 0.00317 0.00778 0.0479 0.0941 0.124 0.171 0.218 0.219l-0.448 0.879 0.448-0.879c4.1e-4 2.1e-4 0.00259 0.00132 0.00779 0.00317 0.00541 0.00194 0.0154 0.00515 0.0317 0.00898 0.0342 0.00806 0.0906 0.0176 0.184 0.0252 0.2 0.0163 0.467 0.0171 0.904 0.0171h11.2c0.436 0 0.704-7.8e-4 0.904-0.0171 0.0931-0.00761 0.15-0.0172 0.184-0.0252 0.0163-0.00383 0.0263-0.00704 0.0317-0.00898 0.0052-0.00185 0.0074-0.00296 0.0078-0.00317l0.454 0.891c-0.321 0.164-0.741 0.164-1.58 0.164h-11.2c-0.84 0-1.26 0-1.58-0.164-0.282-0.144-0.512-0.373-0.656-0.656-0.163-0.321-0.163-0.741-0.163-1.58v-1.7c0-0.84 0-1.26 0.163-1.58 0.144-0.282 0.373-0.512 0.656-0.656 0.266-0.135 0.599-0.159 1.18-0.163 0.344-0.316 0.8-0.501 1.29-0.501h9.42c0.486 0 0.942 0.185 1.29 0.501 0.583 0.00401 0.917 0.0273 1.18 0.163 0.282 0.144 0.512 0.373 0.656 0.656 0.164 0.321 0.164 0.741 0.164 1.58v1.7c0 0.84 0 1.26-0.164 1.58-0.144 0.282-0.373 0.512-0.656 0.656l-0.454-0.891c0.0941-0.0479 0.171-0.124 0.218-0.219 1e-4 -1.9e-4 4e-4 -7.8e-4 9e-4 -0.00191 5e-4 -0.00125 0.0013-0.00314 0.0023-0.00587 0.0019-0.00541 0.0051-0.0154 9e-3 -0.0317 8e-3 -0.0342 0.0176-0.0906 0.0252-0.184 0.0163-0.2 0.0171-0.467 0.0171-0.904v-1.7c0-0.437-8e-4 -0.704-0.0171-0.904-0.0076-0.0932-0.0172-0.15-0.0252-0.184-0.0039-0.0163-0.0071-0.0263-9e-3 -0.0317-0.0019-0.0052-3e-3 -0.00738-0.0032-0.00778-0.0479-0.0941-0.124-0.171-0.218-0.219l0.443-0.869-0.443 0.869c-0.0198-0.0101-0.108-0.0494-0.735-0.0537z" clip-rule="evenodd" fill="#000" fill-rule="evenodd"/></svg>
