<svg fill="none" viewBox="0 0 16 16" xmlns="http://www.w3.org/2000/svg"><path d="m12.3 2.37c0.408-0.206 0.687-0.629 0.687-1.12 0-0.69-0.56-1.25-1.25-1.25-0.0649 0-0.128 0.00117-0.191 0.00345-0.0194-0.00228-0.0391-0.00345-0.0591-0.00345h-0.979c-1 0-2.04 0.403-2.82 1.58-0.416 0.624-0.642 1.08-0.816 1.42-0.153 0.306-0.266 0.531-0.433 0.724-0.357 0.411-0.911 0.887-1.69 0.914-0.411-0.0134-0.783-0.0876-1.09-0.18-0.286-0.0847-0.518-0.183-0.675-0.26-0.0785-0.038-0.138-0.0702-0.177-0.0919-0.0192-0.0108-0.033-0.019-0.0412-0.0239l-0.00484-0.00294c-0.00784-0.00504-0.0158-0.00985-0.0239-0.0144-0.127-0.0725-0.277-0.0836-0.41-0.0381-0.045 0.0154-0.088 0.0373-0.128 0.0656-0.0246 0.0175-0.0477 0.0374-0.0692 0.0595-0.0268 0.0276-0.05 0.058-0.0694 0.0905-0.00713 0.0118-0.0137 0.0239-0.0198 0.0361-0.0281 0.0569-0.0446 0.118-0.0497 0.179-0.00543 0.0632 0.00113 0.128 0.0208 0.191 0.00717 0.0231 0.016 0.0458 0.0266 0.0677l4.78 10.5 0.0162 0.036c0.0588 0.131 0.133 0.295 0.256 0.422 0.107 0.11 0.237 0.194 0.381 0.246 0.167 0.0597 0.347 0.059 0.49 0.0584l0.0394-1e-4h1.48c0.182 0 0.35-0.0994 0.438-0.259 0.0878-0.16 0.0815-0.355-0.0165-0.509l-0.201-0.315c0.0331-0.0414 0.0682-0.0857 0.105-0.133 0.271-0.346 0.639-0.844 1.03-1.45 0.77-1.21 1.64-2.89 1.96-4.7 0.322-1.81 0.105-3.64-0.183-5-0.102-0.482-0.213-0.909-0.316-1.26zm-7.55 3.27c-0.367 0.01-0.702-0.0248-1-0.0842l5.39 8.47c0.24-0.315 0.542-0.732 0.856-1.23 0.737-1.16 1.53-2.71 1.82-4.34 0.29-1.63 0.0979-3.32-0.177-4.62-0.111-0.524-0.234-0.979-0.34-1.33h-0.99c-0.592 0-1.17 0.364-1.56 0.928-0.527 0.757-1.41 1.74-2.63 2.06-0.48 0.124-0.938 0.165-1.36 0.154z" clip-rule="evenodd" fill="#000" fill-rule="evenodd"/></svg>
