<svg viewBox="0 0 16 16" xmlns="http://www.w3.org/2000/svg"><path d="m5 9v0.4c0 0.56 0 0.84-0.109 1.05-0.0959 0.188-0.249 0.341-0.437 0.437-0.214 0.109-0.494 0.109-1.05 0.109h-0.8c-0.56 0-0.84 0-1.05-0.109-0.188-0.0959-0.341-0.249-0.437-0.437-0.109-0.214-0.109-0.494-0.109-1.05v-0.4h-0.5c-0.276 0-0.5-0.224-0.5-0.5s0.224-0.5 0.5-0.5h0.5v-4h-0.5c-0.276 0-0.5-0.224-0.5-0.5s0.224-0.5 0.5-0.5h0.5v-0.4c0-0.56 0-0.84 0.109-1.05 0.0959-0.188 0.249-0.341 0.437-0.437 0.214-0.109 0.494-0.109 1.05-0.109h0.8c0.56 0 0.84 0 1.05 0.109 0.188 0.0959 0.341 0.249 0.437 0.437 0.109 0.214 0.109 0.494 0.109 1.05v0.4h1c3.8e-4 -0.494 0.00666-0.753 0.109-0.954 0.0959-0.188 0.249-0.341 0.437-0.437 0.214-0.109 0.494-0.109 1.05-0.109h0.8c0.56 0 0.84 0 1.05 0.109 0.188 0.0959 0.341 0.249 0.437 0.437 0.102 0.201 0.109 0.46 0.109 0.954h1.01c0.012-0.196 0.0389-0.335 0.0994-0.454 0.0959-0.188 0.249-0.341 0.437-0.437 0.214-0.109 0.494-0.109 1.05-0.109h0.8c0.56 0 0.84 0 1.05 0.109 0.188 0.0959 0.341 0.249 0.437 0.437 0.0605 0.119 0.0874 0.258 0.0994 0.454h0.51c0.276 0 0.5 0.224 0.5 0.5s-0.224 0.5-0.5 0.5h-0.5v4h0.5c0.276 0 0.5 0.224 0.5 0.5s-0.224 0.5-0.5 0.5h-0.51c-0.012 0.196-0.0389 0.335-0.0994 0.454-0.0959 0.188-0.249 0.341-0.437 0.437-0.214 0.109-0.494 0.109-1.05 0.109h-0.8c-0.56 0-0.84 0-1.05-0.109-0.188-0.0959-0.341-0.249-0.437-0.437-0.0605-0.119-0.0874-0.258-0.0994-0.454h-1.01c-3.9e-4 0.494-0.00667 0.753-0.109 0.954-0.0959 0.188-0.249 0.341-0.437 0.437-0.214 0.109-0.494 0.109-1.05 0.109h-0.8c-0.56 0-0.84 0-1.05-0.109-0.188-0.0959-0.341-0.249-0.437-0.437-0.102-0.201-0.109-0.46-0.109-0.954h-1zm-1.6-7h-0.8c-0.297 0-0.459 7.8e-4 -0.575 0.0103l-0.0132 0.00115-0.00115 0.0132c-0.00952 0.117-0.0103 0.279-0.0103 0.575v6.8c0 0.297 7.8e-4 0.459 0.0103 0.575l0.00115 0.0132 0.0132 0.00115c0.117 0.00952 0.279 0.0103 0.575 0.0103h0.8c0.297 0 0.459-7.8e-4 0.575-0.0103l0.0132-0.00115 0.00115-0.0132c0.00952-0.117 0.0103-0.279 0.0103-0.575v-6.8c0-0.297-7.8e-4 -0.459-0.0103-0.575l-0.00115-0.0132-0.0132-0.00115c-0.117-0.00952-0.279-0.0103-0.575-0.0103zm10.6 6.4v-4.8c0-0.297-8e-4 -0.459-0.0103-0.575l-0.0011-0.0132-0.0132-0.00115c-0.117-0.00952-0.279-0.0103-0.575-0.0103h-0.8c-0.296 0-0.459 7.8e-4 -0.575 0.0103l-0.0132 0.00115-0.0011 0.0132c-0.0095 0.117-0.0103 0.279-0.0103 0.575v4.8c0 0.297 8e-4 0.459 0.0103 0.575l0.0011 0.0132 0.0132 0.00115c0.117 0.00952 0.279 0.0103 0.575 0.0103h0.8c0.296 0 0.459-7.8e-4 0.575-0.0103l0.0132-0.00115 0.0011-0.0132c0.0095-0.117 0.0103-0.279 0.0103-0.575zm-5 0.5v-5.8c0-0.297-7.8e-4 -0.459-0.0103-0.575l-0.00115-0.0132-0.0132-0.00115c-0.117-0.00952-0.279-0.0103-0.575-0.0103h-0.8c-0.297 0-0.459 7.8e-4 -0.575 0.0103l-0.0132 0.00115-0.00115 0.0132c-0.00952 0.117-0.0103 0.279-0.0103 0.575v5.8c0 0.297 7.8e-4 0.459 0.0103 0.575l0.00115 0.0132 0.0132 0.00115c0.117 0.00952 0.279 0.0103 0.575 0.0103h0.8c0.297 0 0.459-7.8e-4 0.575-0.0103l0.0132-0.00115 0.00115-0.0132c0.00952-0.117 0.0103-0.279 0.0103-0.575zm1-0.9h1v-4h-1v4zm-4 0h-1v-4h1v4z" clip-rule="evenodd" fill="#000" fill-rule="evenodd"/><path d="m1 13.5c0-0.276 0.224-0.5 0.5-0.5h9.59c0.206-0.583 0.762-1 1.41-1h1c0.828 0 1.5 0.672 1.5 1.5s-0.672 1.5-1.5 1.5h-1c-0.653 0-1.21-0.417-1.41-1h-9.59c-0.276 0-0.5-0.224-0.5-0.5z" fill="#000"/></svg>
