<svg fill="none" viewBox="0 0 16 16" xmlns="http://www.w3.org/2000/svg"><path d="m16 1.5c0-0.202-0.122-0.385-0.309-0.462-0.187-0.0774-0.402-0.0346-0.545 0.108l-2.24 2.24c-1.03 1.03-2.43 1.61-3.89 1.61h-0.0147v-0.5c0-0.276-0.224-0.5-0.5-0.5s-0.5 0.224-0.5 0.5v0.5h-1v-0.5c0-0.276-0.224-0.5-0.5-0.5s-0.5 0.224-0.5 0.5v0.5h-3.29l-0.207-0.207c-0.188-0.188-0.442-0.293-0.707-0.293h-0.793c-0.552 0-1 0.448-1 1v3c0 0.552 0.448 1 1 1h0.793c0.265 0 0.52-0.105 0.707-0.293l0.207-0.207h1.06c-0.475 0.531-0.764 1.23-0.764 2 0 1.66 1.34 3 3 3h3c1.66 0 3-1.34 3-3 0-0.276-0.224-0.5-0.5-0.5s-0.5 0.224-0.5 0.5c0 1.1-0.895 2-2 2h-3c-1.1 0-2-0.895-2-2 0-1.1 0.891-2 1.99-2h0.00765v2.5c0 0.276 0.224 0.5 0.5 0.5s0.5-0.224 0.5-0.5v-2.5h1v2.5c0 0.276 0.224 0.5 0.5 0.5s0.5-0.224 0.5-0.5v-2.5h0.0147c1.46 0 2.86 0.579 3.89 1.61l2.24 2.24c0.143 0.143 0.358 0.186 0.545 0.108 0.187-0.0774 0.309-0.26 0.309-0.462v-11zm-7.5 6.5h0.511c1.72 0 3.38 0.685 4.6 1.9l1.39 1.39v-8.59l-1.39 1.39c-1.22 1.22-2.87 1.9-4.6 1.9h-6.31c-0.265 0-0.52-0.105-0.707-0.293l-0.207-0.207h-0.793v3h0.793l0.207-0.207c0.188-0.188 0.442-0.293 0.707-0.293h3.28l0.00952-1e-5h1.5l0.00389 1e-5h0.992l0.00389-1e-5 0.00389 1e-5z" clip-rule="evenodd" fill="#000" fill-rule="evenodd"/></svg>
