<svg viewBox="0 0 16 16" xmlns="http://www.w3.org/2000/svg"><path d="m9.16 15.9c0.093 0.0874 0.216 0.136 0.343 0.136h0.03c0.132-0.0084 0.256-0.0689 0.343-0.168 0.0877-0.0993 0.132-0.229 0.124-0.362l-0.125-1.08c-0.00124-0.0083-0.00124-0.0167 0-0.025-0.02-0.18 0.145-0.385 0.395-0.635l0.055-0.06c0.141-0.157 0.248-0.342 0.312-0.544 0.0647-0.201 0.0861-0.414 0.0628-0.624l-0.645-3.8c0.5-0.0025 0.635-0.0725 0.75-0.168 0.265-0.269 0.424-0.624 0.45-1 0.161 0.0596 0.329 0.0983 0.5 0.115 0.345 0 0.66-0.312 0.792-0.732 0.0814-0.0211 0.156-0.0625 0.217-0.12 0.0612-0.0577 0.107-0.13 0.133-0.21 0.0895-0.279 0.118-0.574 0.0825-0.865-0.04-0.245-0.148-0.892-0.715-0.892-0.101 0.00257-0.201 0.0186-0.298 0.0475-0.0344-0.142-0.0883-0.278-0.16-0.405l-0.025-0.045c-0.0522-0.104-0.126-0.196-0.216-0.269-0.09-0.0737-0.195-0.128-0.307-0.158-0.121-0.044-0.25-0.0629-0.379-0.0556-0.129 0.0073-0.255 0.0407-0.371 0.0981l-0.84 0.34c-0.0175-0.155-0.0375-0.312-0.0575-0.468 0.0012-0.02 0.0012-0.04 0-0.06-0.11-0.49-0.8-0.848-1.61-0.848s-1.49 0.358-1.61 0.852c-0.0317 0.173-0.0534 0.347-0.065 0.522l-0.825-0.332c-0.116-0.0562-0.242-0.0889-0.371-0.0962-0.129-0.0073-0.258 0.0109-0.379 0.0537-0.114 0.0274-0.22 0.0785-0.313 0.15-0.0926 0.0715-0.169 0.162-0.224 0.265l-0.025 0.0425c-0.0698 0.128-0.124 0.264-0.16 0.405-0.0966-0.029-0.197-0.0449-0.298-0.0475-0.565 0-0.67 0.622-0.712 0.89-0.0378 0.292-0.0105 0.589 0.08 0.87 0.0262 0.0795 0.072 0.151 0.133 0.208 0.0612 0.0572 0.136 0.0982 0.217 0.119 0.135 0.42 0.448 0.732 0.792 0.732 0.171-0.0167 0.339-0.0554 0.5-0.115 0.0256 0.376 0.185 0.731 0.45 1 0.112 0.095 0.25 0.168 0.75 0.168l-0.638 3.81c-0.0237 0.212-0.00205 0.426 0.0635 0.628s0.173 0.389 0.317 0.547l0.05 0.0525c0.242 0.26 0.412 0.455 0.392 0.635v0.025l-0.125 1.08c-0.00406 0.0657 0.00488 0.132 0.0263 0.194 0.0214 0.0622 0.055 0.12 0.0986 0.169 0.0437 0.0492 0.0966 0.0894 0.156 0.118s0.124 0.0455 0.189 0.0493c0.0657 0.0041 0.132-0.0049 0.194-0.0263 0.0622-0.0215 0.12-0.055 0.169-0.0987 0.0492-0.0436 0.0894-0.0966 0.118-0.156s0.0455-0.124 0.0493-0.189l0.122-1.07c0.065-0.645-0.352-1.09-0.66-1.42l-0.04-0.0425c-0.0476-0.0523-0.0836-0.114-0.106-0.181s-0.0294-0.138-0.0219-0.209l0.705-4.38c0.00656-0.0715-0.00235-0.144-0.0261-0.211-0.0238-0.0678-0.0619-0.13-0.112-0.181s-0.11-0.0921-0.177-0.118c-0.0668-0.0263-0.139-0.0379-0.21-0.034-0.224 0.0116-0.448 0.0116-0.672 0-0.0895-0.289-0.129-0.59-0.118-0.892-5e-4 -0.0945-0.0278-0.187-0.0786-0.267-0.0509-0.0796-0.123-0.143-0.209-0.183-0.0806-0.0362-0.169-0.0504-0.257-0.0412-0.0878 0.00922-0.172 0.0415-0.243 0.0937-0.162 0.0767-0.329 0.142-0.5 0.195-0.0116-0.0398-0.0175-0.081-0.0175-0.122-9e-5 -0.112-0.0376-0.22-0.106-0.308-0.0689-0.0879-0.165-0.15-0.274-0.177v-0.08l0.22 0.0675c0.0649 0.021 0.133 0.0286 0.201 0.0221 0.0679-0.00645 0.134-0.0267 0.194-0.0596 0.0615-0.0326 0.115-0.0777 0.158-0.132s0.0742-0.118 0.0915-0.185c0.0675-0.275 0.155-0.575 0.178-0.625l0.025-0.0425 0.04 0.015 1.46 0.602c0.072 0.0296 0.15 0.042 0.228 0.0361s0.153-0.0298 0.22-0.0698c0.0668-0.0401 0.123-0.0952 0.165-0.161s0.0675-0.14 0.0753-0.218c0.06-0.602 0.09-0.875 0.105-1 0.197-0.11 0.42-0.162 0.645-0.15 0.224-0.0118 0.447 0.0402 0.642 0.15 0.04 0.328 0.0775 0.658 0.108 0.985 0.00865 0.0786 0.0358 0.154 0.0793 0.22 0.0435 0.0661 0.102 0.121 0.171 0.16 0.0646 0.0384 0.137 0.0616 0.212 0.0681s0.15-0.00398 0.221-0.0306l1.46-0.592 0.04-0.015 0.015 0.0225c0.0744 0.211 0.137 0.427 0.188 0.645 0.0176 0.067 0.0489 0.13 0.0919 0.184 0.0431 0.0542 0.0969 0.0989 0.158 0.131 0.0599 0.0336 0.126 0.0545 0.195 0.0614 0.0684 0.00688 0.137-4.2e-4 0.203-0.0214l0.222-0.07v0.0825c-0.107 0.0259-0.203 0.0865-0.272 0.172-0.0691 0.0859-0.108 0.192-0.11 0.303 0 0.0415-0.0059 0.0827-0.0175 0.122-0.171-0.0531-0.338-0.118-0.5-0.195-0.0713-0.0521-0.155-0.0844-0.243-0.0937s-0.176 0.00498-0.257 0.0412c-0.0859 0.0404-0.159 0.104-0.21 0.184s-0.078 0.173-0.078 0.268c0.0118 0.301-0.0271 0.602-0.115 0.89-0.225 0.0116-0.45 0.0116-0.675 0-0.0726-0.00365-0.145 0.00855-0.212 0.0358s-0.128 0.0687-0.178 0.122c-0.0495 0.0527-0.087 0.116-0.11 0.184s-0.0306 0.141-0.0226 0.213l0.705 4.38c0.00747 0.0686 6.6e-4 0.138-0.02 0.204s-0.0547 0.127-0.1 0.179l-0.0475 0.05c-0.308 0.325-0.725 0.772-0.66 1.42l0.122 1.07c0.00765 0.127 0.0637 0.247 0.157 0.334z" fill="#000"/><path d="m3.75 8.5c-0.923 0-1.25 0.56-1.25 1.25 0 0.69 0.346 1.25 1.25 1.25s0.927-0.56 0.927-1.25c0-0.69-0.00625-1.25-0.927-1.25z" fill="#000"/><path d="m2 13.2c0-0.69 0.327-1.25 1.25-1.25 0.921 0 0.927 0.56 0.927 1.25s-0.0229 1.25-0.927 1.25-1.25-0.56-1.25-1.25z" fill="#000"/><path d="m12.2 8.5c0.923 0 1.25 0.56 1.25 1.25 0 0.69-0.346 1.25-1.25 1.25s-0.927-0.56-0.927-1.25c0-0.69 0.0063-1.25 0.927-1.25z" fill="#000"/><path d="m14 13.2c0-0.69-0.327-1.25-1.25-1.25-0.921 0-0.927 0.56-0.927 1.25s0.0229 1.25 0.927 1.25 1.25-0.56 1.25-1.25z" fill="#000"/></svg>
