<svg viewBox="0 0 16 16" xmlns="http://www.w3.org/2000/svg"><path d="m7.5 4c0.276 0 0.5 0.224 0.5 0.5v2.5h2.5c0.276 0 0.5 0.224 0.5 0.5s-0.224 0.5-0.5 0.5h-2.5v2.5c0 0.276-0.224 0.5-0.5 0.5s-0.5-0.224-0.5-0.5v-2.5h-2.5c-0.276 0-0.5-0.224-0.5-0.5s0.224-0.5 0.5-0.5h2.5v-2.5c0-0.276 0.224-0.5 0.5-0.5z" fill="#000"/><path d="m0 6.4c0-2.24 0-3.36 0.436-4.22 0.383-0.753 0.995-1.36 1.75-1.75 0.856-0.436 1.98-0.436 4.22-0.436h2.2c2.24 0 3.36 0 4.22 0.436 0.753 0.383 1.36 0.995 1.75 1.75 0.436 0.856 0.436 1.98 0.436 4.22v2.2c0 2.24 0 3.36-0.436 4.22-0.384 0.753-0.995 1.36-1.75 1.75-0.856 0.436-1.98 0.436-4.22 0.436h-2.2c-2.24 0-3.36 0-4.22-0.436-0.753-0.384-1.36-0.995-1.75-1.75-0.436-0.856-0.436-1.98-0.436-4.22v-2.2zm6.4-5.4h2.2c1.14 0 1.93 7.8e-4 2.55 0.0512 0.605 0.0494 0.953 0.142 1.22 0.276 0.564 0.288 1.02 0.747 1.31 1.31 0.134 0.263 0.226 0.611 0.276 1.22 0.0504 0.617 0.0512 1.41 0.0512 2.55v2.2c0 1.14-8e-4 1.93-0.0512 2.55-0.0494 0.605-0.142 0.953-0.276 1.22-0.288 0.564-0.746 1.02-1.31 1.31-0.263 0.134-0.611 0.226-1.22 0.276-0.617 0.0504-1.41 0.0512-2.55 0.0512h-2.2c-1.14 0-1.93-8e-4 -2.55-0.0512-0.605-0.0494-0.953-0.142-1.22-0.276-0.564-0.288-1.02-0.746-1.31-1.31-0.134-0.263-0.226-0.611-0.276-1.22-0.0504-0.617-0.0512-1.41-0.0512-2.55v-2.2c0-1.14 7.8e-4 -1.93 0.0512-2.55 0.0494-0.605 0.142-0.953 0.276-1.22 0.288-0.564 0.747-1.02 1.31-1.31 0.263-0.134 0.611-0.226 1.22-0.276 0.617-0.0504 1.41-0.0512 2.55-0.0512z" clip-rule="evenodd" fill="#000" fill-rule="evenodd"/></svg>
