<svg fill="none" viewBox="0 0 16 16" xmlns="http://www.w3.org/2000/svg"><path d="m15 4.12c0-0.398-0.158-0.779-0.439-1.06l-2.62-2.62c-0.281-0.281-0.663-0.439-1.06-0.439h-4.88c-1.4 0-2.1 0-2.63 0.272-0.47 0.24-0.853 0.622-1.09 1.09-0.272 0.535-0.272 1.23-0.272 2.63h-0.5c-0.828 0-1.5 0.672-1.5 1.5v9c0 0.828 0.672 1.5 1.5 1.5h11.1c0.646 0 1.22-0.413 1.42-1.03l1.77-5.32c0.108-0.324-0.133-0.658-0.474-0.658h-10.8c-0.323 0-0.609 0.207-0.712 0.513l-1.83 5.49h-0.5c-0.276 0-0.5-0.224-0.5-0.5v-9c0-0.276 0.224-0.5 0.5-0.5h0.5v4.5c0 0.276 0.224 0.5 0.5 0.5s0.5-0.224 0.5-0.5v-5.5c0-0.717 7.8e-4 -1.19 0.0307-1.56 0.029-0.355 0.0803-0.518 0.133-0.62 0.144-0.282 0.373-0.512 0.656-0.656 0.103-0.0524 0.265-0.104 0.62-0.133 0.367-0.03 0.844-0.0307 1.56-0.0307h4v3.5c0 0.276 0.224 0.5 0.5 0.5h3.5v2.5c0 0.276 0.224 0.5 0.5 0.5s0.5-0.224 0.5-0.5v-3.38zm-4-0.121v-2.97l3 2.97h-3z" clip-rule="evenodd" fill="#000" fill-rule="evenodd"/></svg>
