<svg viewBox="0 0 16 16" xmlns="http://www.w3.org/2000/svg"><path d="m11 7.5c0-0.276-0.224-0.5-0.5-0.5-0.276 0-0.5 0.224-0.5 0.5v2.66l-2.19 0.874c-0.256 0.102-0.381 0.394-0.279 0.65 0.103 0.256 0.394 0.381 0.65 0.278l2.5-1c0.19-0.0759 0.314-0.26 0.314-0.464v-3z" fill="#000"/><path d="m14 3.5c0 0.276-0.224 0.5-0.5 0.5s-0.5-0.224-0.5-0.5c0-0.276-0.224-0.5-0.5-0.5h-5c-0.63 0-1.22-0.296-1.6-0.8l-0.9-1.2-3.5 1e-5c-0.276 0-0.5 0.224-0.5 0.5v9c0 0.276 0.224 0.5 0.5 0.5h0.5l1.83-5.49c0.102-0.306 0.389-0.513 0.712-0.513h5.9c0.0194-2.1e-4 0.039-3.1e-4 0.0585-3.1e-4s0.0391 1e-4 0.0585 3.1e-4h4.75c0.341 0 0.582 0.334 0.474 0.658l-0.633 1.9c0.54 0.851 0.852 1.86 0.852 2.94 0 3.04-2.46 5.5-5.5 5.5-2.52 0-4.64-1.69-5.29-4h-3.71c-0.828 0-1.5-0.672-1.5-1.5v-9c0-0.828 0.672-1.5 1.5-1.5h3.5c0.315 0 0.611 0.148 0.8 0.4l0.9 1.2c0.189 0.252 0.485 0.4 0.8 0.4h5c0.828 0 1.5 0.672 1.5 1.5zm-3.5 11.5c2.49 0 4.5-2.01 4.5-4.5 0-2.49-2.01-4.5-4.5-4.5-2.49 0-4.5 2.01-4.5 4.5 0 2.49 2.01 4.5 4.5 4.5z" clip-rule="evenodd" fill="#000" fill-rule="evenodd"/></svg>
