<svg viewBox="0 0 16 16" xmlns="http://www.w3.org/2000/svg"><path d="m8.2 1h-3.4c-0.857 0-1.44 7.8e-4 -1.89 0.0376-0.438 0.0358-0.663 0.101-0.819 0.18-0.376 0.192-0.682 0.498-0.874 0.874-0.0797 0.156-0.145 0.381-0.18 0.819-0.0368 0.45-0.0376 1.03-0.0376 1.89v5.4c0 0.857 7.8e-4 1.44 0.0376 1.89 0.0358 0.438 0.101 0.663 0.18 0.819 0.192 0.376 0.498 0.682 0.874 0.874 0.156 0.0797 0.381 0.145 0.819 0.18 0.25 0.0204 0.54 0.0298 0.895 0.034 0.13 0.36 0.328 0.702 0.596 1-1.42-2e-3 -2.17-0.0268-2.76-0.327-0.564-0.288-1.02-0.746-1.31-1.31-0.327-0.642-0.327-1.48-0.327-3.16v-5.4c0-1.68 0-2.52 0.327-3.16 0.288-0.564 0.747-1.02 1.31-1.31 0.642-0.327 1.48-0.327 3.16-0.327h3.4c1.68 0 2.52 0 3.16 0.327 0.564 0.288 1.02 0.747 1.31 1.31 0.24 0.471 0.304 1.05 0.321 1.99-0.12-0.00178-0.239 0.00332-0.359 0.0153-0.19-0.233-0.414-0.438-0.664-0.607-0.0026-0.0412-0.0056-0.0814-0.0088-0.12-0.0358-0.438-0.101-0.663-0.18-0.819-0.192-0.376-0.498-0.682-0.874-0.874-0.156-0.0797-0.381-0.145-0.819-0.18-0.45-0.0368-1.03-0.0376-1.89-0.0376z" fill="#000"/><path d="m8.07 3h-5.57c-0.276 0-0.5 0.224-0.5 0.5s0.224 0.5 0.5 0.5h3.07c0.555-0.304 1.18-0.424 1.8-0.362 0.202-0.247 0.441-0.463 0.71-0.638z" fill="#000"/><path d="m2.5 6h1.31c-0.117 0.323-0.178 0.661-0.183 1h-1.12c-0.276 0-0.5-0.224-0.5-0.5s0.224-0.5 0.5-0.5z" fill="#000"/><path d="m2.59 9h-0.0944c-0.276 0-0.5 0.224-0.5 0.5s0.224 0.5 0.5 0.5v-0.238c0-0.263 0.0328-0.518 0.0944-0.762z" fill="#000"/><path d="m10 12c1.1 0 2-0.895 2-2 0-1.1-0.895-2-2-2-1.1 0-2 0.895-2 2 0 1.1 0.895 2 2 2zm0-1c0.552 0 1-0.448 1-1 0-0.552-0.448-1-1-1-0.552 0-1 0.448-1 1 0 0.552 0.448 1 1 1z" clip-rule="evenodd" fill="#000" fill-rule="evenodd"/><path d="m10.2 4h-0.474c-0.79 0-1.45 0.575-1.57 1.33-0.0713 0.0276-0.142 0.0567-0.211 0.0874-0.623-0.444-1.49-0.386-2.05 0.173l-0.337 0.337c-0.559 0.559-0.616 1.43-0.173 2.05-0.0307 0.0696-0.0599 0.14-0.0874 0.211-0.754 0.127-1.33 0.783-1.33 1.57v0.474c0 0.793 0.577 1.45 1.33 1.58 0.0271 0.0695 0.0558 0.138 0.0858 0.206-0.447 0.624-0.389 1.5 0.171 2.06l0.329 0.329c0.563 0.563 1.44 0.62 2.07 0.169 0.0657 0.0287 0.132 0.0561 0.199 0.0821 0.124 0.762 0.785 1.34 1.58 1.34h0.458c0.799 0 1.46-0.584 1.59-1.35 0.0653-0.0256 0.13-0.0524 0.194-0.0806 0.628 0.454 1.51 0.398 2.08-0.167l0.321-0.321c0.565-0.565 0.621-1.45 0.167-2.08 0.0282-0.0639 0.0551-0.129 0.0806-0.194 0.765-0.123 1.35-0.786 1.35-1.59v-0.458c0-0.797-0.581-1.46-1.34-1.58-0.026-0.0671-0.0534-0.134-0.0822-0.199 0.451-0.626 0.394-1.5-0.169-2.07l-0.329-0.329c-0.561-0.561-1.43-0.618-2.06-0.171-0.0679-0.0301-0.136-0.0587-0.206-0.0858-0.126-0.757-0.784-1.33-1.58-1.33zm-1.07 1.6c0-0.329 0.266-0.595 0.595-0.595h0.474c0.33 0 0.598 0.268 0.598 0.598 0 0.282 0.199 0.521 0.466 0.613 0.157 0.0543 0.31 0.118 0.458 0.191 0.254 0.125 0.566 0.0972 0.766-0.103 0.234-0.234 0.613-0.234 0.847 0l0.329 0.329c0.235 0.235 0.235 0.617 0 0.852-0.201 0.201-0.23 0.513-0.106 0.768 0.0701 0.144 0.132 0.294 0.184 0.447 0.0925 0.27 0.334 0.472 0.619 0.472 0.333 0 0.603 0.27 0.603 0.603v0.458c0 0.334-0.271 0.606-0.606 0.606-0.286 0-0.528 0.202-0.622 0.471-0.0522 0.15-0.113 0.297-0.182 0.439-0.125 0.257-0.0969 0.572 0.106 0.774 0.237 0.237 0.237 0.62 0 0.857l-0.321 0.321c-0.237 0.237-0.62 0.237-0.857 0-0.202-0.202-0.517-0.231-0.774-0.106-0.142 0.0691-0.288 0.13-0.439 0.182-0.27 0.0937-0.472 0.336-0.472 0.622 0 0.334-0.271 0.606-0.606 0.606h-0.458c-0.333 0-0.603-0.27-0.603-0.603 0-0.285-0.202-0.527-0.472-0.619-0.153-0.0526-0.303-0.114-0.447-0.184-0.255-0.124-0.567-0.0954-0.768 0.105-0.235 0.235-0.617 0.235-0.852 0l-0.329-0.329c-0.234-0.234-0.234-0.613 0-0.847 0.2-0.2 0.228-0.512 0.103-0.766-0.0726-0.148-0.136-0.3-0.191-0.458-0.092-0.267-0.331-0.466-0.613-0.466-0.33 0-0.598-0.268-0.598-0.598v-0.474c0-0.329 0.266-0.595 0.595-0.595 0.282 0 0.52-0.199 0.611-0.466 0.0547-0.16 0.119-0.316 0.193-0.466 0.124-0.252 0.0957-0.561-0.103-0.76-0.232-0.232-0.232-0.609 0-0.842l0.337-0.337c0.232-0.232 0.609-0.232 0.842 0 0.199 0.199 0.508 0.227 0.76 0.103 0.15-0.0737 0.306-0.138 0.466-0.193 0.267-0.0909 0.466-0.329 0.466-0.611z" clip-rule="evenodd" fill="#000" fill-rule="evenodd"/></svg>
