<svg viewBox="0 0 16 16" xmlns="http://www.w3.org/2000/svg"><path d="m16 4.57c0.0032-0.0226 0.0048-0.0458 0.0048-0.0693 0-0.0583-0.01-0.114-0.0283-0.166-0.0038-0.0212-0.0082-0.042-0.0131-0.0626-0.0368-0.153-0.0974-0.299-0.18-0.434-0.0928-0.151-0.222-0.281-0.482-0.541l-2.59-2.59c-0.259-0.259-0.389-0.389-0.54-0.482-0.134-0.0822-0.28-0.143-0.434-0.18-0.0206-0.00495-0.0413-0.00931-0.0626-0.0131-0.052-0.0183-0.108-0.0283-0.166-0.0283-0.0235 0-0.0466 0.00162-0.0693 0.00476-0.112-0.00476-0.246-0.00476-0.425-0.00476h-2.21c-1.68 0-2.52 0-3.16 0.327-0.564 0.288-1.02 0.747-1.31 1.31-0.137 0.269-0.216 0.572-0.263 0.957 0.336-0.0696 0.68-0.101 1.02-0.0927 0.0348-0.188 0.079-0.313 0.129-0.411 0.192-0.376 0.498-0.682 0.874-0.874 0.156-0.0797 0.381-0.145 0.819-0.18 0.45-0.0368 1.03-0.0376 1.89-0.0376h2.2v3.5c0 0.276 0.224 0.5 0.5 0.5h3.5v6.2c0 0.857-8e-4 1.44-0.0375 1.89-0.0359 0.438-0.101 0.663-0.18 0.819-0.192 0.376-0.498 0.682-0.874 0.874-0.156 0.0797-0.381 0.145-0.819 0.18-0.45 0.0368-1.03 0.0376-1.89 0.0376h-2.4c-0.857 0-1.44-8e-4 -1.89-0.0376-0.438-0.0358-0.663-0.101-0.819-0.18-0.366-0.186-0.665-0.48-0.857-0.842l-0.584 0.926c0.266 0.335 0.602 0.611 0.987 0.807 0.642 0.327 1.48 0.327 3.16 0.327h2.4c1.68 0 2.52 0 3.16-0.327 0.564-0.288 1.02-0.746 1.31-1.31 0.327-0.642 0.327-1.48 0.327-3.16v-6.21c0-0.178 0-0.313-0.0048-0.425zm-4-3.16 2.59 2.59h-2.59v-2.59z" clip-rule="evenodd" fill="#000" fill-rule="evenodd"/><path d="m8.49 5.47-2.14-1.13c-1.31-0.693-2.99-0.282-3.74 0.919l-0.403 0.639c-0.0513 0.0813 0.0337 0.178 0.131 0.149 0.723-0.212 1.51-0.134 2.17 0.213 0.514 0.272 0.689 0.924 0.378 1.42l-1.34 2.13c-0.262-0.139-0.598-0.0564-0.749 0.184l-2.6 4.13c-0.379 0.6-0.154 1.37 0.502 1.71 0.656 0.346 1.49 0.141 1.87-0.459l2.6-4.13c0.151-0.24 0.0616-0.547-0.201-0.686l1.78-2.82c0.0808-0.128 0.247-0.172 0.381-0.102 0.131 0.0693 0.299 0.0282 0.374-0.0919 0.0773-0.123 0.236-0.165 0.364-0.0973l0.495 0.262c0.123 0.0648 0.164 0.22 0.0901 0.337-0.0757 0.12-0.0308 0.274 0.1 0.343l0.95 0.502c0.131 0.0693 0.299 0.0282 0.374-0.0919l1.1-1.74c0.0757-0.12 0.0308-0.274-0.1-0.343l-0.95-0.502c-0.131-0.0693-0.299-0.0282-0.374 0.0919-0.0773 0.123-0.236 0.165-0.364 0.0973l-0.495-0.262c-0.123-0.0648-0.164-0.22-0.0901-0.337 0.0757-0.12 0.0308-0.274-0.1-0.343z" fill="#000"/></svg>
