<svg fill="none" viewBox="0 0 16 16" xmlns="http://www.w3.org/2000/svg"><path d="m7.5 0c1.38 0 2.5 1.12 2.5 2.5 0 1.21-0.859 2.22-2 2.45v2.05h1.5c0.276 0 0.5 0.224 0.5 0.5s-0.224 0.5-0.5 0.5h-1.5v4.96c0 0.491 0 0.737 0.0744 0.964 0.165 0.504 0.815 1 1.34 1.03 0.239 0.0131 0.365-0.0207 0.617-0.0882 1.38-0.37 2.46-1.45 2.83-2.83 0.0724-0.27 0.105-0.577 0.121-1.04h-0.484c-0.173 0-0.335-0.0899-0.426-0.237-0.091-0.147-0.099-0.332-0.0215-0.486l1-2 0.0361-0.0606c0.0925-0.134 0.246-0.216 0.411-0.216 0.189 0 0.363 0.107 0.447 0.276l1 2c0.0774 0.155 0.0694 0.339-0.0215 0.486-0.0911 0.147-0.252 0.237-0.426 0.237h-0.516c-0.0176 0.524-0.0566 0.929-0.154 1.29-0.462 1.73-1.81 3.07-3.54 3.54-0.652 0.175-1.43 0.17-2.79 0.17s-2.14 0.0047-2.79-0.17c-1.73-0.462-3.07-1.81-3.54-3.54-0.0977-0.365-0.137-0.77-0.154-1.29h-0.516c-0.173 0-0.335-0.0899-0.426-0.237-0.0909-0.147-0.0989-0.332-0.0215-0.486l1-2 0.0361-0.0606c0.0925-0.134 0.246-0.216 0.411-0.216 0.189 0 0.363 0.107 0.447 0.276l1 2c0.0774 0.155 0.0694 0.339-0.0215 0.486-0.0911 0.147-0.252 0.237-0.426 0.237h-0.484c0.016 0.458 0.0487 0.765 0.121 1.04 0.37 1.38 1.45 2.46 2.83 2.83 0.252 0.0675 0.378 0.101 0.617 0.0882 0.529-0.0288 1.18-0.527 1.34-1.03 0.0744-0.227 0.0744-0.473 0.0744-0.964v-4.96h-1.5c-0.276 0-0.5-0.224-0.5-0.5s0.224-0.5 0.5-0.5h1.5v-2.05c-1.14-0.232-2-1.24-2-2.45 0-1.38 1.12-2.5 2.5-2.5zm0 1c-0.828 0-1.5 0.672-1.5 1.5s0.672 1.5 1.5 1.5 1.5-0.672 1.5-1.5-0.672-1.5-1.5-1.5z" clip-rule="evenodd" fill="#000" fill-rule="evenodd"/></svg>
