<svg viewBox="0 0 16 16" xmlns="http://www.w3.org/2000/svg"><path d="m3.13 4.17c0.183-0.206 0.5-0.225 0.706-0.0415l4.17 3.7 4.17-3.7c0.206-0.183 0.522-0.165 0.706 0.0415 0.184 0.206 0.165 0.522-0.0415 0.706l-4.5 4c-0.189 0.168-0.475 0.168-0.664 0l-4.5-4c-0.206-0.183-0.225-0.5-0.0415-0.706z" clip-rule="evenodd" fill="#000" fill-rule="evenodd"/><path d="m3.13 8.17c0.183-0.206 0.5-0.225 0.706-0.0415l4.17 3.7 4.17-3.7c0.206-0.183 0.522-0.165 0.706 0.0415 0.184 0.206 0.165 0.522-0.0415 0.706l-4.5 4c-0.189 0.168-0.475 0.168-0.664 0l-4.5-4c-0.206-0.183-0.225-0.5-0.0415-0.706z" clip-rule="evenodd" fill="#000" fill-rule="evenodd"/></svg>
