<svg viewBox="0 0 16 16" xmlns="http://www.w3.org/2000/svg"><path d="m4.83 3.13c-0.206-0.183-0.522-0.165-0.706 0.0415l-4 4.5c-0.168 0.189-0.168 0.475 0 0.664l4 4.5c0.183 0.206 0.5 0.225 0.706 0.0415 0.206-0.183 0.225-0.5 0.0415-0.706l-3.7-4.17 3.7-4.17c0.183-0.206 0.165-0.522-0.0415-0.706z" clip-rule="evenodd" fill="#000" fill-rule="evenodd"/><path d="m9.83 3.13c-0.206-0.183-0.522-0.165-0.706 0.0415l-4 4.5c-0.168 0.189-0.168 0.475 0 0.664l4 4.5c0.183 0.206 0.5 0.225 0.706 0.0415 0.206-0.183 0.225-0.5 0.0415-0.706l-3.7-4.17 3.7-4.17c0.184-0.206 0.165-0.522-0.0415-0.706z" clip-rule="evenodd" fill="#000" fill-rule="evenodd" opacity=".4"/><path d="m14.8 3.13c-0.206-0.183-0.522-0.165-0.706 0.0415l-4 4.5c-0.168 0.189-0.168 0.475 0 0.664l4 4.5c0.183 0.206 0.5 0.225 0.706 0.0415 0.206-0.183 0.225-0.5 0.0415-0.706l-3.7-4.17 3.7-4.17c0.184-0.206 0.165-0.522-0.0415-0.706z" clip-rule="evenodd" fill="#000" fill-rule="evenodd" opacity=".15"/></svg>
