<svg viewBox="0 0 16 16" xmlns="http://www.w3.org/2000/svg"><path d="m8.35 1.65c-0.195-0.195-0.512-0.195-0.707 0l-3.5 3.5c-0.195 0.195-0.195 0.512 0 0.707 0.195 0.195 0.512 0.195 0.707 0l3.15-3.15 3.15 3.15c0.195 0.195 0.512 0.195 0.707 0 0.195-0.195 0.195-0.512 0-0.707l-3.5-3.5z" fill="#000"/><path d="m11.9 10.9-3.5 3.5c-0.195 0.195-0.512 0.195-0.707 0l-3.5-3.5c-0.195-0.195-0.195-0.512 0-0.707 0.195-0.195 0.512-0.195 0.707 0l3.15 3.15 3.15-3.15c0.195-0.195 0.512-0.195 0.707 0 0.195 0.195 0.195 0.512 0 0.707z" fill="#000"/></svg>
