<svg viewBox="0 0 16 16" xmlns="http://www.w3.org/2000/svg"><path d="m0.635 9c0.251 1.2e-4 0.462 0.185 0.513 0.431 0.564 2.72 2.7 4.86 5.42 5.42 0.246 0.0511 0.431 0.262 0.431 0.513 0 0.303-0.266 0.539-0.563 0.48-3.16-0.627-5.65-3.12-6.28-6.28-0.0589-0.297 0.177-0.564 0.48-0.564z" fill="#000"/><path d="m15.4 9c0.303 1.2e-4 0.538 0.267 0.48 0.564-0.627 3.16-3.12 5.65-6.28 6.28-0.298 0.059-0.564-0.177-0.564-0.48 1.4e-4 -0.251 0.186-0.462 0.432-0.513 2.72-0.565 4.86-2.7 5.42-5.42 0.0511-0.245 0.262-0.431 0.513-0.431z" fill="#000"/><path d="m6.5 5c0.276 0 0.5 0.224 0.5 0.5v3.5h2.5c0.276 0 0.5 0.224 0.5 0.5 0 0.276-0.224 0.5-0.5 0.5h-3c-0.276-1.4e-4 -0.5-0.224-0.5-0.5v-4c1.6e-4 -0.276 0.224-0.5 0.5-0.5z" fill="#000"/><path d="m6.44 0.154c0.297-0.0586 0.563 0.177 0.563 0.48 0 0.251-0.185 0.463-0.431 0.514-2.72 0.565-4.86 2.7-5.42 5.42-0.051 0.245-0.262 0.431-0.513 0.431-0.303 0-0.539-0.266-0.48-0.563 0.627-3.16 3.12-5.66 6.28-6.28z" fill="#000"/><path d="m9.56 0.154c3.16 0.627 5.65 3.12 6.28 6.28 0.0589 0.297-0.176 0.563-0.48 0.563-0.251 0-0.462-0.185-0.513-0.431-0.564-2.72-2.7-4.86-5.42-5.42-0.246-0.0511-0.432-0.263-0.432-0.514 2.2e-4 -0.303 0.267-0.539 0.564-0.48z" fill="#000"/></svg>
