<svg viewBox="0 0 16 16" xmlns="http://www.w3.org/2000/svg"><path d="m8 9h1.5c0.276 0 0.5 0.224 0.5 0.5 0 0.276-0.224 0.5-0.5 0.5h-2c-0.276 0-0.5-0.224-0.5-0.5v-4c0-0.276 0.224-0.5 0.5-0.5 0.276 0 0.5 0.224 0.5 0.5v3.5z" fill="#000"/><path d="m13.4 2c0.263 0 0.522-0.00111 0.738 0.0166 0.228 0.0187 0.498 0.063 0.77 0.201 0.329 0.168 0.605 0.423 0.797 0.736l0.0771 0.138 0.087 0.203c0.0714 0.201 0.1 0.395 0.114 0.566 0.0177 0.217 0.0166 0.475 0.0166 0.738v5.8c0 0.263 0.0011 0.522-0.0166 0.738-0.0187 0.228-0.063 0.498-0.201 0.77-0.192 0.376-0.498 0.682-0.874 0.874-0.271 0.138-0.541 0.182-0.77 0.201-0.217 0.0177-0.475 0.0166-0.738 0.0166h-10.8c-0.263 0-0.521 0.0011-0.738-0.0166-0.228-0.0187-0.498-0.0629-0.77-0.201-0.376-0.192-0.682-0.498-0.874-0.874-0.138-0.271-0.182-0.541-0.201-0.77-0.0177-0.217-0.0166-0.475-0.0166-0.738v-1c-1.64e-8 -1.1-9.74e-4 -1.99 0.0576-2.71 0.0595-0.729 0.186-1.37 0.487-1.96 0.479-0.941 1.24-1.71 2.19-2.19 0.592-0.302 1.23-0.428 1.96-0.487 0.717-0.0586 1.61-0.0576 2.71-0.0576h6zm-6 1-1.48 0.00684c-1.3 0.0204-2.09 0.102-2.73 0.429-0.752 0.383-1.36 0.996-1.75 1.75-0.436 0.856-0.436 1.98-0.436 4.22v1l0.00196 0.37c0.0051 0.325 0.0256 0.523 0.107 0.684 0.0958 0.188 0.249 0.341 0.437 0.436 0.214 0.109 0.494 0.109 1.05 0.109h10.8l0.37-0.0019c0.271-0.0043 0.454-0.0192 0.6-0.0713l0.084-0.0362c0.141-0.0719 0.262-0.176 0.354-0.303l0.082-0.134c0.0818-0.16 0.102-0.358 0.108-0.684l0.0019-0.37v-5.8c0-0.56-4e-4 -0.84-0.109-1.05-0.0719-0.141-0.176-0.262-0.303-0.354l-0.134-0.082c-0.16-0.0818-0.358-0.102-0.684-0.107l-0.37-0.00196h-6z" clip-rule="evenodd" fill="#000" fill-rule="evenodd"/></svg>
