<svg viewBox="0 0 16 16" xmlns="http://www.w3.org/2000/svg"><path d="m9.15 11c0.208 3e-4 0.326 0.239 0.199 0.404l-1.15 1.5c-0.1 0.131-0.298 0.131-0.398 0l-1.15-1.5c-0.126-0.165-0.0087-0.404 0.199-0.404h2.3z" fill="#000"/><path d="m4.6 6.65c0.165-0.127 0.404-0.00882 0.404 0.199v2.3c-3.2e-4 0.208-0.239 0.325-0.404 0.199l-1.5-1.15c-0.131-0.101-0.13-0.298 0-0.398l1.5-1.15z" fill="#000"/><path d="m11 6.85c2e-4 -0.208 0.239-0.326 0.404-0.199l1.5 1.15c0.131 0.101 0.131 0.298 0 0.398l-1.5 1.15c-0.165 0.127-0.404 0.00876-0.404-0.199v-2.3z" fill="#000"/><path d="m7.8 3.1c0.101-0.131 0.298-0.131 0.398 0l1.15 1.5c0.126 0.165 0.00863 0.404-0.199 0.404h-2.3c-0.208-2.5e-4 -0.326-0.239-0.199-0.404l1.15-1.5z" fill="#000"/><path d="m8.6 5.64e-6c0.403 3.53e-8 0.766-9.93e-4 1.07 0.0234 0.273 0.0222 0.56 0.0694 0.846 0.191l0.122 0.0566 1e-3 9.77e-4c0.47 0.24 0.853 0.623 1.09 1.09l1e-3 9.8e-4c0.165 0.325 0.223 0.656 0.248 0.968 0.0244 0.3 0.0234 0.663 0.0234 1.07v0.6h0.6c0.403 0 0.766-1e-3 1.07 0.0234 0.312 0.0254 0.643 0.0829 0.968 0.248l1e-3 9.8e-4c0.47 0.24 0.853 0.623 1.09 1.09l1e-3 9.8e-4c0.165 0.325 0.223 0.656 0.248 0.968 0.0244 0.3 0.0234 0.663 0.0234 1.07v1.2c0 0.403 1e-3 0.766-0.0234 1.07-0.0254 0.312-0.0829 0.643-0.248 0.968l-1e-3 1e-3c-0.24 0.47-0.622 0.853-1.09 1.09l-1e-3 1e-3c-0.325 0.165-0.656 0.223-0.968 0.248-0.15 0.0122-0.316 0.0176-0.495 0.0205l-0.571 0.0029h-0.6v0.6c0 0.403 1e-3 0.766-0.0234 1.07-0.0254 0.312-0.0829 0.643-0.248 0.968l-1e-3 1e-3c-0.24 0.47-0.622 0.853-1.09 1.09l-1e-3 1e-3c-0.325 0.165-0.656 0.223-0.968 0.248-0.15 0.0122-0.316 0.0176-0.495 0.0205l-0.571 0.0029h-1.2c-0.403 0-0.766 1e-3 -1.07-0.0234-0.312-0.0254-0.643-0.0829-0.968-0.248l-9.8e-4 -1e-3c-0.47-0.24-0.853-0.622-1.09-1.09l-9.8e-4 -1e-3c-0.165-0.325-0.223-0.656-0.248-0.968-0.0122-0.15-0.0177-0.316-0.0205-0.495l-0.00293-0.571v-0.6h-0.6c-0.403 0-0.766 1e-3 -1.07-0.0234-0.312-0.0254-0.643-0.0829-0.968-0.248l-9.8e-4 -1e-3c-0.47-0.24-0.853-0.622-1.09-1.09l-9.77e-4 -1e-3c-0.165-0.325-0.223-0.656-0.248-0.968-0.0122-0.15-0.0177-0.316-0.0205-0.495l-0.00293-0.571v-1.2c-1.04e-9 -0.403-9.94e-4 -0.766 0.0234-1.07 0.0254-0.312 0.0836-0.644 0.249-0.969 0.24-0.47 0.623-0.854 1.09-1.09 0.325-0.165 0.656-0.223 0.968-0.248 0.3-0.0244 0.663-0.0234 1.07-0.0234h0.6v-0.6c0-0.403-1e-3 -0.766 0.0234-1.07 0.0254-0.312 0.0836-0.644 0.249-0.969 0.24-0.47 0.623-0.853 1.09-1.09l9.8e-4 -9.77e-4c0.325-0.165 0.656-0.223 0.968-0.248 0.3-0.0244 0.663-0.0234 1.07-0.0234h1.2zm-1.2 1c-0.84 0-1.26-1.94e-4 -1.58 0.163-0.282 0.144-0.512 0.374-0.656 0.656-0.163 0.321-0.163 0.741-0.163 1.58v1.35c0 0.138-0.112 0.25-0.25 0.25h-1.35c-0.84 0-1.26-1.9e-4 -1.58 0.163-0.282 0.144-0.512 0.374-0.656 0.656-0.163 0.321-0.163 0.741-0.163 1.58v1.2c0 0.84-1.89e-4 1.26 0.163 1.58 0.144 0.282 0.374 0.512 0.656 0.656 0.321 0.163 0.741 0.163 1.58 0.163h1.35c0.138 0 0.25 0.112 0.25 0.25v1.35c0 0.84-1.9e-4 1.26 0.163 1.58 0.144 0.282 0.374 0.512 0.656 0.656 0.321 0.163 0.741 0.163 1.58 0.163h1.2c0.84 0 1.26 2e-4 1.58-0.163 0.282-0.144 0.512-0.374 0.656-0.656 0.163-0.321 0.163-0.741 0.163-1.58v-1.35c0-0.138 0.112-0.25 0.25-0.25h1.35c0.84 0 1.26 2e-4 1.58-0.163 0.282-0.144 0.512-0.374 0.656-0.656 0.163-0.321 0.163-0.741 0.163-1.58v-1.2c0-0.84 2e-4 -1.26-0.163-1.58-0.144-0.282-0.374-0.512-0.656-0.656-0.321-0.163-0.741-0.163-1.58-0.163h-1.35c-0.138-1e-5 -0.25-0.112-0.25-0.25v-1.35c0-0.84 2e-4 -1.26-0.163-1.58-0.144-0.282-0.374-0.512-0.656-0.656-0.321-0.163-0.741-0.163-1.58-0.163h-1.2z" clip-rule="evenodd" fill="#000" fill-rule="evenodd"/></svg>
