<svg viewBox="0 0 16 16" xmlns="http://www.w3.org/2000/svg"><path d="m6.68 6.03 4 1.5c0.195 0.0733 0.324 0.259 0.324 0.468s-0.129 0.395-0.324 0.468l-4 1.5c-0.154 0.0576-0.326 0.0367-0.461-0.0566-0.135-0.0934-0.215-0.247-0.215-0.411v-3c0-0.164 0.0802-0.318 0.215-0.411 0.135-0.0934 0.307-0.114 0.461-0.0566z" fill="#000"/><path d="m10 2c3.31 0 6 2.69 6 6 0 3.31-2.69 6-6 6h-4c-3.31 0-6-2.69-6-6 0-3.31 2.69-6 6-6h4zm-4 1c-2.76 0-5 2.24-5 5 0 2.76 2.24 5 5 5h4l0.257-0.0068c2.64-0.134 4.74-2.32 4.74-4.99 0-2.68-2.1-4.86-4.74-4.99l-0.257-0.00684h-4z" clip-rule="evenodd" fill="#000" fill-rule="evenodd"/></svg>
