<svg viewBox="0 0 16 16" xmlns="http://www.w3.org/2000/svg"><path d="m0.635 9c0.251 1.3e-4 0.462 0.185 0.513 0.431 0.564 2.72 2.7 4.86 5.42 5.42 0.246 0.0511 0.431 0.262 0.431 0.513 0 0.303-0.266 0.539-0.563 0.48-3.16-0.627-5.65-3.12-6.28-6.28-0.0585-0.297 0.178-0.563 0.48-0.563z" fill="#000"/><path d="m15.4 9c0.303 1.3e-4 0.538 0.266 0.48 0.563-0.627 3.16-3.12 5.65-6.28 6.28-0.298 0.059-0.564-0.177-0.564-0.48 1.2e-4 -0.251 0.186-0.462 0.432-0.513 2.72-0.565 4.86-2.7 5.42-5.42 0.0511-0.245 0.262-0.431 0.513-0.431z" fill="#000"/><path d="m9 5 0.144 0.00684c0.343 0.0328 0.666 0.184 0.911 0.426 0.245 0.242 0.4 0.562 0.438 0.904 0.0376 0.343-0.0443 0.688-0.231 0.978-0.187 0.29-0.469 0.506-0.797 0.612l1.15 1.68c0.113 0.166-0.0062 0.391-0.207 0.391h-0.625c-0.172-1e-5 -0.332-0.0884-0.424-0.234l-1.1-1.77h-1.25v1.5c0 0.276-0.224 0.5-0.5 0.5-0.276-1.3e-4 -0.5-0.224-0.5-0.5v-4c1.6e-4 -0.276 0.224-0.5 0.5-0.5h2.5zm-2 1v1h2l0.0898-0.00781c0.118-0.0212 0.225-0.0844 0.301-0.178 0.0754-0.0933 0.114-0.211 0.11-0.331-0.00402-0.12-0.0506-0.234-0.132-0.322-0.0814-0.088-0.192-0.145-0.312-0.158l-0.0576-0.00293h-2z" clip-rule="evenodd" fill="#000" fill-rule="evenodd"/><path d="m6.44 0.154c0.297-0.0586 0.563 0.177 0.563 0.48 0 0.251-0.185 0.463-0.431 0.514-2.72 0.565-4.86 2.7-5.42 5.42-0.051 0.245-0.262 0.431-0.513 0.431-0.303 0-0.539-0.266-0.48-0.563 0.627-3.16 3.12-5.66 6.28-6.28z" fill="#000"/><path d="m9.56 0.154c3.16 0.627 5.65 3.12 6.28 6.28 0.0589 0.297-0.176 0.563-0.48 0.563-0.251 0-0.462-0.185-0.513-0.431-0.564-2.72-2.7-4.86-5.42-5.42-0.246-0.0511-0.432-0.263-0.432-0.514 2e-4 -0.303 0.267-0.539 0.564-0.48z" fill="#000"/></svg>
