<svg fill="none" viewBox="0 0 16 16" xmlns="http://www.w3.org/2000/svg"><path d="m1.53e-5 3.5c0-0.276 0.224-0.5 0.5-0.5s0.5 0.224 0.5 0.5l1.2e-4 5.89 0.0479-0.108c0.00793-0.0192 0.0166-0.0397 0.0259-0.0612l0.0647-0.143 0.0957-0.196c0.062-0.123 0.136-0.261 0.221-0.412 0.349-0.616 0.78-1.23 1.3-1.81 1.49-1.66 3.4-2.67 5.75-2.67 3.54 0 6.06 1.8 7.46 5.31 0.103 0.256-0.0221 0.547-0.278 0.65s-0.547-0.0222-0.65-0.279c-1.26-3.15-3.41-4.69-6.54-4.69-2.03 0-3.69 0.87-5 2.33-0.466 0.518-0.856 1.07-1.17 1.63-0.0927 0.164-0.169 0.308-0.228 0.429l-0.0971 0.209-0.165 0.397h5.66c0.276 0 0.5 0.224 0.5 0.5s-0.224 0.5-0.5 0.5h-7c-0.276 0-0.5-0.224-0.5-0.5v-5l1.14e-5 -0.00342v-2z" fill="#000"/></svg>
