<svg viewBox="0 0 16 16" xmlns="http://www.w3.org/2000/svg"><path d="m5.85 0.853-2.15 2.15h11.8c0.276 0 0.5 0.224 0.5 0.5 0 0.276-0.224 0.5-0.5 0.5h-11.8l2.15 2.15c0.195 0.195 0.195 0.512 0 0.707-0.195 0.195-0.512 0.195-0.707 0l-3-3c-0.195-0.195-0.195-0.512 0-0.707l3-3c0.195-0.195 0.512-0.195 0.707 0 0.195 0.195 0.195 0.512 0 0.707z" fill="#000"/><path d="m1 0.5c0-0.276-0.224-0.5-0.5-0.5s-0.5 0.224-0.5 0.5v6c0 0.276 0.224 0.5 0.5 0.5s0.5-0.224 0.5-0.5v-6z" fill="#000"/><path d="m10.1 9.85 2.15 2.15h-11.8c-0.276 0-0.5 0.224-0.5 0.5 0 0.276 0.224 0.5 0.5 0.5h11.8l-2.15 2.15c-0.195 0.195-0.195 0.512 0 0.707 0.195 0.195 0.512 0.195 0.707 0l3-3c0.195-0.195 0.195-0.512 0-0.707l-3-3c-0.195-0.195-0.512-0.195-0.707 0-0.195 0.195-0.195 0.512 0 0.707z" fill="#000"/><path d="m16 9.5c0-0.276-0.224-0.5-0.5-0.5s-0.5 0.224-0.5 0.5v6c0 0.276 0.224 0.5 0.5 0.5s0.5-0.224 0.5-0.5v-6z" fill="#000"/></svg>
