<svg viewBox="0 0 16 16" xmlns="http://www.w3.org/2000/svg"><path d="m1 2.5c0-0.276 0.224-0.5 0.5-0.5h3.36c0.588 0 1.12 0.344 1.37 0.879l4.47 9.83c0.0812 0.178 0.259 0.293 0.455 0.293h3.36c0.276 0 0.5 0.224 0.5 0.5s-0.224 0.5-0.5 0.5h-3.36c-0.588 0-1.12-0.344-1.37-0.879l-4.47-9.83c-0.0811-0.178-0.259-0.293-0.455-0.293h-3.36c-0.276 0-0.5-0.224-0.5-0.5z" clip-rule="evenodd" fill="#000" fill-rule="evenodd"/><path d="m10 2.5c0-0.276 0.224-0.5 0.5-0.5h4c0.276 0 0.5 0.224 0.5 0.5s-0.224 0.5-0.5 0.5h-4c-0.276 0-0.5-0.224-0.5-0.5z" clip-rule="evenodd" fill="#000" fill-rule="evenodd"/></svg>
