<svg viewBox="0 0 16 16" xmlns="http://www.w3.org/2000/svg"><g fill="#000" opacity=".3"><path d="m10.2 0.518c-0.928-0.34-1.17-0.418-1.58-0.475-0.404-0.0567-0.816-0.0567-1.22-1.7e-6 -0.0242 0.00345-0.0242 0.00346-0.0484 0.00714-0.39 0.0603-0.629 0.138-1.53 0.468l-4.66 1.71c-0.229 0.0838-0.302 0.112-0.403 0.159-0.254 0.117-0.442 0.252-0.593 0.516-0.213 0.372-0.213 0.826-9.2e-5 1.2 0.151 0.264 0.34 0.399 0.593 0.516 0.101 0.0468 0.175 0.075 0.403 0.159l4.66 1.71c0.928 0.34 1.17 0.418 1.58 0.475 0.404 0.0568 0.816 0.0568 1.22 0 0.407-0.0572 0.65-0.135 1.58-0.475l4.66-1.71c0.228-0.0838 0.302-0.112 0.403-0.159 0.253-0.117 0.442-0.252 0.593-0.516 0.213-0.372 0.213-0.827-3e-4 -1.2-0.151-0.264-0.339-0.398-0.593-0.515-0.101-0.0468-0.175-0.0751-0.403-0.159l-4.66-1.71zm-2.66 0.515c0.312-0.0438 0.63-0.0438 0.942 0 0.352 0.0494 0.692 0.174 1.37 0.424l4.66 1.71c0.286 0.105 0.43 0.158 0.472 0.232 0.0371 0.0648 0.0371 0.142 0 0.206-0.0427 0.0747-0.186 0.127-0.472 0.232l-4.66 1.71c-0.681 0.25-1.02 0.374-1.37 0.424-0.312 0.0438-0.63 0.0438-0.942 0-0.352-0.0494-0.692-0.174-1.37-0.424l-4.66-1.71c-0.287-0.105-0.43-0.158-0.472-0.232-0.037-0.0648-0.037-0.142 0-0.206 0.0427-0.0747 0.186-0.127 0.472-0.232l4.66-1.71c0.681-0.25 1.02-0.374 1.37-0.424z" clip-rule="evenodd" fill-rule="evenodd"/><path d="m0.672 8.03c-0.259-0.0951-0.547 0.038-0.642 0.297-0.0951 0.259 0.038 0.546 0.297 0.642l5.9 2.16c0.561 0.206 0.913 0.335 1.28 0.387 0.325 0.046 0.656 0.046 0.981 0 0.367-0.052 0.72-0.181 1.28-0.387l5.9-2.16c0.259-0.0951 0.392-0.382 0.297-0.642-0.0951-0.259-0.382-0.392-0.642-0.297l-5.85 2.14c-0.632 0.232-0.88 0.32-1.13 0.355-0.232 0.0328-0.468 0.0328-0.701 0-0.25-0.0354-0.499-0.124-1.13-0.355l-5.85-2.14z"/></g><path d="m0.0307 12.3c0.0951-0.259 0.382-0.392 0.642-0.297l5.85 2.14c0.632 0.232 0.88 0.32 1.13 0.355 0.232 0.0329 0.468 0.0329 0.701 0 0.25-0.0353 0.499-0.124 1.13-0.355l5.85-2.14c0.259-0.0951 0.546 0.038 0.642 0.297 0.095 0.259-0.0381 0.546-0.297 0.642l-5.85 2.14c-0.018 0.0066-0.0358 0.0131-0.0534 0.0196-0.561 0.206-0.913 0.335-1.28 0.387-0.325 0.0461-0.656 0.0461-0.981 0-0.367-0.0519-0.72-0.181-1.28-0.387-0.0176-0.0065-0.0354-0.013-0.0534-0.0196l-5.85-2.14c-0.259-0.0951-0.392-0.382-0.297-0.642z" clip-rule="evenodd" fill="#000" fill-rule="evenodd"/></svg>
