<svg viewBox="0 0 16 16" xmlns="http://www.w3.org/2000/svg"><path d="M7 4C7 3.86067 7 3.791 7.00815 3.73257C7.06063 3.35635 7.35635 3.06063 7.73257 3.00815C7.791 3 7.86067 3 8 3C8.13933 3 8.209 3 8.26743 3.00815C8.64365 3.06063 8.93937 3.35635 8.99185 3.73257C9 3.791 9 3.86067 9 4C9 4.13933 9 4.209 8.99185 4.26743C8.93937 4.64365 8.64365 4.93937 8.26743 4.99185C8.209 5 8.13933 5 8 5C7.86067 5 7.791 5 7.73257 4.99185C7.35635 4.93937 7.06063 4.64365 7.00815 4.26743C7 4.209 7 4.13933 7 4Z" fill="#000"/><path d="M7 8C7 7.86067 7 7.791 7.00815 7.73257C7.06063 7.35635 7.35635 7.06063 7.73257 7.00815C7.791 7 7.86067 7 8 7C8.13933 7 8.209 7 8.26743 7.00815C8.64365 7.06063 8.93937 7.35635 8.99185 7.73257C9 7.791 9 7.86067 9 8C9 8.13933 9 8.209 8.99185 8.26743C8.93937 8.64365 8.64365 8.93937 8.26743 8.99185C8.209 9 8.13933 9 8 9C7.86067 9 7.791 9 7.73257 8.99185C7.35635 8.93937 7.06063 8.64365 7.00815 8.26743C7 8.209 7 8.13933 7 8Z" fill="#000"/><path d="m7 12c0-0.139 0-0.209 0.00815-0.267 0.0525-0.376 0.348-0.672 0.724-0.724 0.0584-0.0082 0.128-0.0082 0.267-0.0082s0.209 0 0.267 0.0082c0.376 0.0524 0.672 0.348 0.724 0.724 0.00815 0.0584 0.00815 0.128 0.00815 0.267s0 0.209-0.00815 0.267c-0.0525 0.376-0.348 0.672-0.724 0.724-0.0584 0.0082-0.128 0.0082-0.267 0.0082s-0.209 0-0.267-0.0082c-0.376-0.0524-0.672-0.348-0.724-0.724-0.00815-0.0584-0.00815-0.128-0.00815-0.267z" fill="#000"/></svg>
