<svg viewBox="0 0 16 16" xmlns="http://www.w3.org/2000/svg"><path d="m8 15c3.87 0 7-3.13 7-7 0-3.87-3.13-7-7-7-3.87 0-7 3.13-7 7 0 3.87 3.13 7 7 7zm0 1c4.42 0 8-3.58 8-8 0-4.42-3.58-8-8-8-4.42 0-8 3.58-8 8 0 4.42 3.58 8 8 8z" clip-rule="evenodd" fill="#000" fill-rule="evenodd"/><path d="m7.2 4.8c0-0.111 0-0.167 0.00652-0.214 0.042-0.301 0.279-0.538 0.58-0.58 0.0467-0.00652 0.102-0.00652 0.214-0.00652 0.111 0 0.167 0 0.214 0.00652 0.301 0.042 0.538 0.279 0.58 0.58 0.00652 0.0468 0.00652 0.102 0.00652 0.214s0 0.167-0.00652 0.214c-0.042 0.301-0.279 0.538-0.58 0.58-0.0468 0.00652-0.102 0.00652-0.214 0.00652-0.111 0-0.167 0-0.214-0.00652-0.301-0.042-0.538-0.279-0.58-0.58-0.00652-0.0468-0.00652-0.102-0.00652-0.214z" fill="#000"/><path d="m7.2 8c0-0.111 0-0.167 0.00652-0.214 0.042-0.301 0.279-0.538 0.58-0.58 0.0467-0.00652 0.102-0.00652 0.214-0.00652 0.111 0 0.167 0 0.214 0.00652 0.301 0.042 0.538 0.279 0.58 0.58 0.00652 0.0468 0.00652 0.102 0.00652 0.214s0 0.167-0.00652 0.214c-0.042 0.301-0.279 0.538-0.58 0.58-0.0468 0.00652-0.102 0.00652-0.214 0.00652-0.111 0-0.167 0-0.214-0.00652-0.301-0.042-0.538-0.279-0.58-0.58-0.00652-0.0468-0.00652-0.102-0.00652-0.214z" fill="#000"/><path d="m7.2 11.2c0-0.112 0-0.167 0.00652-0.214 0.042-0.301 0.279-0.538 0.58-0.58 0.0467-0.0065 0.102-0.0065 0.214-0.0065 0.111 0 0.167 0 0.214 0.0065 0.301 0.042 0.538 0.279 0.58 0.58 0.00652 0.0467 0.00652 0.102 0.00652 0.214s0 0.167-0.00652 0.214c-0.042 0.301-0.279 0.538-0.58 0.58-0.0468 0.0065-0.102 0.0065-0.214 0.0065-0.111 0-0.167 0-0.214-0.0065-0.301-0.042-0.538-0.279-0.58-0.58-0.00652-0.0467-0.00652-0.102-0.00652-0.214z" fill="#000"/></svg>
