<svg viewBox="0 0 16 16" xmlns="http://www.w3.org/2000/svg"><path d="m2.5 1c-0.398 0-0.779 0.158-1.06 0.439s-0.439 0.663-0.439 1.06v2c0 0.276-0.224 0.5-0.5 0.5s-0.5-0.224-0.5-0.5v-2c0-0.663 0.263-1.3 0.732-1.77 0.469-0.469 1.1-0.732 1.77-0.732h2c0.276 0 0.5 0.224 0.5 0.5s-0.224 0.5-0.5 0.5h-2zm6.5-0.5c0-0.276 0.224-0.5 0.5-0.5h2c0.663 0 1.3 0.263 1.77 0.732 0.469 0.469 0.732 1.1 0.732 1.77v2c0 0.276-0.224 0.5-0.5 0.5s-0.5-0.224-0.5-0.5v-2c0-0.398-0.158-0.779-0.439-1.06s-0.663-0.439-1.06-0.439h-2c-0.276 0-0.5-0.224-0.5-0.5zm-8.5 8.5c0.276 0 0.5 0.224 0.5 0.5v2c0 0.398 0.158 0.779 0.439 1.06s0.663 0.439 1.06 0.439h2c0.276 0 0.5 0.224 0.5 0.5s-0.224 0.5-0.5 0.5h-2c-0.663 0-1.3-0.263-1.77-0.732-0.469-0.469-0.732-1.1-0.732-1.77v-2c0-0.276 0.224-0.5 0.5-0.5z" clip-rule="evenodd" fill="#000" fill-rule="evenodd"/><path d="m8.88 5.17c-0.136-0.159-0.357-0.216-0.553-0.144-0.196 0.0726-0.327 0.26-0.327 0.469v9c0 0.192 0.11 0.367 0.283 0.451 0.173 0.0832 0.379 0.0598 0.529-0.0602l1.97-1.58 0.848 2.35c0.0935 0.26 0.38 0.395 0.64 0.301 0.26-0.0936 0.395-0.38 0.301-0.64l-0.839-2.33h2.77c0.195 0 0.373-0.114 0.454-0.291 0.0815-0.177 0.0524-0.386-0.0747-0.534l-6-7zm2.15 6.83h2.38l-4.41-5.15v6.61l1.69-1.35c0.0886-0.0709 0.199-0.11 0.312-0.11h0.0079c0.0081-2e-4 0.0161-2e-4 0.0241 0z" clip-rule="evenodd" fill="#000" fill-rule="evenodd"/></svg>
