<svg viewBox="0 0 16 16" xmlns="http://www.w3.org/2000/svg"><path d="m8.96 2.66c0.105-0.139 0.283-0.2 0.45-0.153 0.168 0.0468 0.293 0.192 0.317 0.367l0.773 5.65 0.0029 0.0859c-0.0051 0.0862-0.035 0.17-0.0869 0.239l-3.38 4.49-0.043 0.0488c-0.0914 0.0892-0.218 0.132-0.345 0.116l-0.0625-0.0118c-0.146-0.0409-0.261-0.157-0.304-0.303l-0.0137-0.0644-0.773-5.65c-0.0158-0.116 0.0148-0.234 0.084-0.326l3.38-4.49zm-2.44 4.91 0.556 4.06 2.4-3.2-0.557-4.06-2.4 3.2z" clip-rule="evenodd" fill="#000" fill-rule="evenodd"/><path d="m8 0c4.42 0 8 3.58 8 8 0 4.42-3.58 8-8 8-4.42 0-8-3.58-8-8 0-4.42 3.58-8 8-8zm0 1c-3.87 0-7 3.13-7 7 0 3.87 3.13 7 7 7 3.87 0 7-3.13 7-7 0-3.87-3.13-7-7-7z" clip-rule="evenodd" fill="#000" fill-rule="evenodd"/></svg>
