<svg viewBox="0 0 16 16" xmlns="http://www.w3.org/2000/svg"><path d="m5 1.5c0-0.466 0-0.699 0.0761-0.883 0.101-0.245 0.296-0.44 0.541-0.541 0.184-0.0761 0.417-0.0761 0.883-0.0761s0.699 0 0.883 0.0761c0.245 0.101 0.44 0.296 0.541 0.541 0.0761 0.184 0.0761 0.417 0.0761 0.883v3.5h-3v-3.5z" fill="#000"/><path d="m5 14.5v-3.5h3v3.5c0 0.466 0 0.699-0.0761 0.883-0.101 0.245-0.296 0.44-0.541 0.541-0.184 0.0761-0.417 0.0761-0.883 0.0761s-0.699 0-0.883-0.0761c-0.245-0.102-0.44-0.296-0.541-0.541-0.0761-0.184-0.0761-0.417-0.0761-0.883z" fill="#000"/><path d="m11.1 3.15c0.195-0.195 0.512-0.195 0.707 0l4 4c0.195 0.195 0.195 0.512 0 0.707l-4 4c-0.195 0.195-0.512 0.195-0.707 0-0.195-0.195-0.195-0.512 0-0.707l3.15-3.15h-13.8c-0.276 0-0.5-0.224-0.5-0.5s0.224-0.5 0.5-0.5h13.8l-3.15-3.15c-0.195-0.195-0.195-0.512 0-0.707z" fill="#000"/></svg>
