<svg fill="none" viewBox="0 0 16 16" xmlns="http://www.w3.org/2000/svg"><path d="m6.5 1c1.05-2e-5 2.07 0.298 2.95 0.858 0.882 0.561 1.59 1.36 2.03 2.31 0.444 0.946 0.608 2 0.475 3.04s-0.559 2.01-1.23 2.82l4.13 4.13c0.0939 0.0939 0.147 0.221 0.147 0.354s-0.0527 0.26-0.147 0.354-0.221 0.147-0.354 0.147-0.26-0.0527-0.354-0.147l-4.13-4.13c-0.679 0.565-1.48 0.958-2.35 1.15-0.863 0.188-1.76 0.166-2.61-0.0653-0.853-0.231-1.64-0.664-2.29-1.26-0.65-0.598-1.15-1.34-1.45-2.17-0.3-0.831-0.397-1.72-0.28-2.6 0.117-0.876 0.442-1.71 0.95-2.43 0.507-0.723 1.18-1.31 1.96-1.72 0.784-0.407 1.65-0.62 2.54-0.62zm0 1c-0.719 4e-5 -1.43 0.172-2.07 0.503-0.639 0.33-1.19 0.809-1.6 1.4s-0.685 1.26-0.785 1.98-0.0275 1.44 0.211 2.12 0.636 1.29 1.16 1.78c0.523 0.493 1.16 0.854 1.85 1.05 0.691 0.198 1.42 0.227 2.13 0.085s1.37-0.451 1.93-0.9l0.21-0.18 0.157-0.149 0.185-0.197 0.15-0.176 0.115-0.151c0.491-0.671 0.787-1.46 0.854-2.29 0.0674-0.829-0.0961-1.66-0.472-2.4-0.376-0.741-0.95-1.36-1.66-1.8s-1.52-0.665-2.35-0.665z" fill="#000"/></svg>
