<svg viewBox="0 0 16 16" xmlns="http://www.w3.org/2000/svg"><path d="m8 5c-1.66 0-3 1.34-3 3s1.34 3 3 3 3-1.34 3-3-1.34-3-3-3zm-2 3c0-1.1 0.895-2 2-2s2 0.895 2 2-0.895 2-2 2-2-0.895-2-2z" clip-rule="evenodd" fill="#000" fill-rule="evenodd"/><path d="m8 0c-1.1 0-2 0.895-2 2v0.0675c0 0.183-0.112 0.352-0.285 0.424-0.169 0.0702-0.365 0.031-0.492-0.0961-0.751-0.751-1.97-0.751-2.72 0l-0.109 0.109c-0.751 0.751-0.751 1.97-1e-5 2.72 0.127 0.127 0.166 0.322 0.0961 0.492-0.0715 0.172-0.24 0.285-0.424 0.285h-0.068c-1.1 0-2 0.895-2 2s0.895 2 2 2h0.068c0.183 0 0.352 0.112 0.424 0.285 0.0702 0.169 0.031 0.365-0.0961 0.492-0.751 0.751-0.751 1.97 0 2.72l0.109 0.109c0.751 0.751 1.97 0.751 2.72 0 0.127-0.127 0.322-0.166 0.492-0.0961 0.172 0.0715 0.285 0.24 0.285 0.424v0.0677c0 1.1 0.895 2 2 2s2-0.895 2-2v-0.0677c0-0.183 0.112-0.352 0.285-0.424 0.169-0.0702 0.365-0.031 0.492 0.0961 0.751 0.751 1.97 0.751 2.72 0l0.109-0.109c0.751-0.751 0.751-1.97 0-2.72-0.127-0.127-0.166-0.322-0.0961-0.492 0.0715-0.172 0.24-0.285 0.424-0.285h0.0673c1.1 0 2-0.895 2-2s-0.895-2-2-2h-0.0673c-0.183 0-0.352-0.112-0.424-0.285-0.0702-0.169-0.031-0.365 0.0961-0.492 0.751-0.751 0.751-1.97 0-2.72l-0.109-0.109c-0.751-0.751-1.97-0.751-2.72 0-0.127 0.127-0.322 0.166-0.492 0.0961-0.172-0.0715-0.285-0.24-0.285-0.424v-0.0675c0-1.1-0.895-2-2-2zm-1 2c0-0.552 0.448-1 1-1 0.552 0 1 0.448 1 1v0.0675c0 0.591 0.359 1.12 0.902 1.35 0.54 0.224 1.17 0.103 1.58-0.313 0.36-0.36 0.945-0.36 1.3 0l0.109 0.109c0.36 0.36 0.36 0.945 0 1.31-0.416 0.416-0.536 1.04-0.313 1.58 0.225 0.543 0.756 0.902 1.35 0.902h0.0673c0.552 0 1 0.448 1 1 0 0.552-0.448 1-1 1h-0.0673c-0.591 0-1.12 0.359-1.35 0.902-0.224 0.54-0.103 1.17 0.313 1.58 0.36 0.36 0.36 0.945 0 1.3l-0.109 0.109c-0.36 0.36-0.945 0.36-1.3 0-0.416-0.416-1.04-0.536-1.58-0.313-0.543 0.225-0.902 0.756-0.902 1.35v0.0677c0 0.552-0.448 1-1 1-0.552 0-1-0.448-1-1v-0.0677c0-0.591-0.359-1.12-0.902-1.35-0.54-0.224-1.17-0.103-1.58 0.313-0.36 0.36-0.945 0.36-1.3 0l-0.109-0.109c-0.36-0.36-0.36-0.945 0-1.31 0.416-0.416 0.536-1.04 0.313-1.58-0.225-0.543-0.756-0.902-1.35-0.902h-0.068c-0.552 0-1-0.448-1-1 0-0.552 0.448-1 1-1h0.068c0.591 0 1.12-0.359 1.35-0.902 0.224-0.54 0.103-1.17-0.313-1.58-0.36-0.36-0.36-0.945 0-1.3l0.109-0.109c0.36-0.36 0.945-0.36 1.31 0 0.416 0.416 1.04 0.536 1.58 0.313 0.543-0.225 0.902-0.756 0.902-1.35v-0.0675z" clip-rule="evenodd" fill="#000" fill-rule="evenodd"/></svg>
