<svg fill="none" viewBox="0 0 16 16" xmlns="http://www.w3.org/2000/svg"><path d="m8 10c0.265 0 0.52 0.105 0.707 0.293 0.188 0.188 0.293 0.442 0.293 0.707v3c-3e-5 0.245-0.09 0.481-0.253 0.664-0.163 0.183-0.387 0.3-0.63 0.329l-0.117 7e-3c-0.265 0-0.52-0.105-0.707-0.293-0.188-0.188-0.293-0.442-0.293-0.707v-1h-5.42c-0.133 0-0.26-0.0527-0.354-0.146-0.0938-0.0938-0.146-0.221-0.146-0.354s0.0527-0.26 0.146-0.354c0.0938-0.0937 0.221-0.146 0.354-0.146h5.42v-1c0-0.265 0.105-0.52 0.293-0.707 0.188-0.188 0.442-0.293 0.707-0.293zm6.5 2c0.133 0 0.26 0.0527 0.354 0.146 0.0937 0.0938 0.146 0.221 0.146 0.354s-0.0527 0.26-0.146 0.354c-0.0938 0.0937-0.221 0.146-0.354 0.146h-4c-0.133 0-0.26-0.0527-0.354-0.146-0.0937-0.0938-0.146-0.221-0.146-0.354s0.0527-0.26 0.146-0.354c0.0938-0.0937 0.221-0.146 0.354-0.146h4zm-9.5-7c0.265 0 0.52 0.105 0.707 0.293 0.188 0.188 0.293 0.442 0.293 0.707v3c-3e-5 0.245-0.09 0.481-0.253 0.664-0.163 0.183-0.387 0.3-0.63 0.329l-0.117 7e-3c-0.265 0-0.52-0.105-0.707-0.293-0.188-0.188-0.293-0.442-0.293-0.707v-1h-2.42c-0.133 0-0.26-0.0527-0.354-0.146-0.0938-0.0938-0.146-0.221-0.146-0.354s0.0527-0.26 0.146-0.354c0.0938-0.0938 0.221-0.146 0.354-0.146h2.42v-1c0-0.265 0.105-0.52 0.293-0.707 0.188-0.188 0.442-0.293 0.707-0.293zm9.5 2c0.133 0 0.26 0.0527 0.354 0.146 0.0937 0.0938 0.146 0.221 0.146 0.354s-0.0527 0.26-0.146 0.354c-0.0938 0.0938-0.221 0.146-0.354 0.146h-7c-0.133 0-0.26-0.0527-0.354-0.146-0.0938-0.0938-0.146-0.221-0.146-0.354s0.0527-0.26 0.146-0.354c0.0938-0.0938 0.221-0.146 0.354-0.146h7zm-5.5-7c0.265 0 0.52 0.105 0.707 0.293 0.188 0.188 0.293 0.442 0.293 0.707v3c-3e-5 0.245-0.09 0.481-0.253 0.664-0.163 0.183-0.387 0.3-0.63 0.329l-0.117 7e-3c-0.265 0-0.52-0.105-0.707-0.293-0.188-0.188-0.293-0.442-0.293-0.707v-1h-6.42c-0.133 0-0.26-0.0527-0.354-0.146-0.0938-0.0938-0.146-0.221-0.146-0.354s0.0527-0.26 0.146-0.354c0.0938-0.0938 0.221-0.146 0.354-0.146h6.42v-1c0-0.265 0.105-0.52 0.293-0.707 0.188-0.188 0.442-0.293 0.707-0.293zm5.5 2c0.133 0 0.26 0.0527 0.354 0.146 0.0937 0.0938 0.146 0.221 0.146 0.354s-0.0527 0.26-0.146 0.354c-0.0938 0.0938-0.221 0.146-0.354 0.146h-3c-0.133 0-0.26-0.0527-0.354-0.146-0.0937-0.0938-0.146-0.221-0.146-0.354s0.0527-0.26 0.146-0.354c0.0938-0.0938 0.221-0.146 0.354-0.146h3z" fill="#000"/></svg>
