<svg viewBox="0 0 16 16" xmlns="http://www.w3.org/2000/svg"><path d="m0 7.5c0-0.276 0.224-0.5 0.5-0.5h8.79l-3.15-3.15c-0.195-0.195-0.195-0.512 0-0.707 0.195-0.195 0.512-0.195 0.707 0l4 4c0.0968 0.0969 0.146 0.224 0.146 0.351v3e-3 3e-3c-4e-4 0.0667-0.0139 0.13-0.0379 0.188-0.0244 0.059-0.0606 0.114-0.108 0.162l-4 4c-0.195 0.195-0.512 0.195-0.707 0-0.195-0.195-0.195-0.512 0-0.707l3.15-3.15h-8.79c-0.276 0-0.5-0.224-0.5-0.5z" fill="#000"/><path d="m16 7.5c0-0.828-0.672-1.5-1.5-1.5s-1.5 0.672-1.5 1.5 0.672 1.5 1.5 1.5 1.5-0.672 1.5-1.5z" fill="#000"/></svg>
