<svg viewBox="0 0 16 16" xmlns="http://www.w3.org/2000/svg"><path d="m16 7.5c0-0.276-0.224-0.5-0.5-0.5h-8.79l3.15-3.15c0.195-0.195 0.195-0.512 0-0.707-0.195-0.195-0.512-0.195-0.707 0l-4 4c-0.0969 0.0969-0.146 0.224-0.146 0.351l-1e-5 3e-3 1e-5 3e-3c3.9e-4 0.0667 0.0138 0.13 0.0379 0.188 0.0244 0.059 0.0606 0.114 0.109 0.162l4 4c0.195 0.195 0.512 0.195 0.707 0 0.195-0.195 0.195-0.512 0-0.707l-3.15-3.15h8.79c0.276 0 0.5-0.224 0.5-0.5z" fill="#000"/><path d="m0 7.5c0-0.828 0.672-1.5 1.5-1.5 0.828 0 1.5 0.672 1.5 1.5s-0.672 1.5-1.5 1.5c-0.828 0-1.5-0.672-1.5-1.5z" fill="#000"/></svg>
