<svg viewBox="0 0 16 16" xmlns="http://www.w3.org/2000/svg"><path d="m7 10.5c0 0.276 0.224 0.5 0.5 0.5s0.5-0.224 0.5-0.5v-8.79l3.15 3.15c0.195 0.195 0.512 0.195 0.707 0 0.195-0.195 0.195-0.512 0-0.707l-4-4c-0.0479-0.0479-0.103-0.0841-0.162-0.109-0.0581-0.0241-0.122-0.0375-0.188-0.0379l-3e-3 -8.19e-6 -3e-3 8.19e-6c-0.127 7.57e-4 -0.254 0.0496-0.351 0.146l-4 4c-0.195 0.195-0.195 0.512 0 0.707 0.195 0.195 0.512 0.195 0.707 0l3.15-3.15v8.79z" fill="#000"/><path d="m7.5 16c0.828 0 1.5-0.672 1.5-1.5s-0.672-1.5-1.5-1.5-1.5 0.672-1.5 1.5 0.672 1.5 1.5 1.5z" fill="#000"/></svg>
