<svg viewBox="0 0 16 16" xmlns="http://www.w3.org/2000/svg"><path d="m11.5 4c-0.276 0-0.5 0.224-0.5 0.5s0.224 0.5 0.5 0.5h2c0.276 0 0.5-0.224 0.5-0.5s-0.224-0.5-0.5-0.5h-2z" fill="#000"/><path d="m11 6.5c0-0.276 0.224-0.5 0.5-0.5h2c0.276 0 0.5 0.224 0.5 0.5s-0.224 0.5-0.5 0.5h-2c-0.276 0-0.5-0.224-0.5-0.5z" fill="#000"/><path d="m11.5 8c-0.276 0-0.5 0.224-0.5 0.5s0.224 0.5 0.5 0.5h2c0.276 0 0.5-0.224 0.5-0.5s-0.224-0.5-0.5-0.5h-2z" fill="#000"/><path d="m3 1c-1.66 0-3 1.34-3 3v8c0 1.66 1.34 3 3 3h10c1.66 0 3-1.34 3-3v-8c0-1.66-1.34-3-3-3h-10zm10 1h-3v12h3c1.1 0 2-0.895 2-2v-8c0-1.1-0.895-2-2-2zm-10 0h6v12h-6c-1.1 0-2-0.895-2-2v-8c0-1.1 0.895-2 2-2z" clip-rule="evenodd" fill="#000" fill-rule="evenodd"/></svg>
