<svg xmlns="http://www.w3.org/2000/svg" viewBox="0 0 16 16" fill="none">
  <path fill="#000"
    d="m8.346.395 5.5 2.566A2 2 0 0 1 15 4.774v5.952a2 2 0 0 1-1.154 1.813l-5.5 2.566a2 2 0 0 1-1.692 0l-5.5-2.566A2 2 0 0 1 0 10.726V4.774A2 2 0 0 1 1.154 2.96l5.5-2.566a2 2 0 0 1 1.692 0v.001ZM1 4.775v5.951a1 1 0 0 0 .577.906L7 14.163V7.32L1.022 4.56A1 1 0 0 0 1 4.774Zm12.977-.214L8 7.321v6.842l5.423-2.53a1 1 0 0 0 .577-.907V4.774a.997.997 0 0 0-.023-.213Zm-6.9-3.26-5.336 2.49 5.76 2.657 5.757-2.659L7.923 1.3a1 1 0 0 0-.846 0v.001Z" />
</svg>