<svg fill="none" viewBox="0 0 16 16" xmlns="http://www.w3.org/2000/svg"><path d="m2.55 12c-1.41-1.41-2.11-2.11-2.37-2.92-0.232-0.713-0.232-1.48 0-2.2 0.263-0.811 0.967-1.51 2.37-2.92l1.43-1.43c1.41-1.41 2.11-2.11 2.92-2.37 0.713-0.232 1.48-0.232 2.2 0 0.811 0.263 1.51 0.967 2.92 2.37l1.43 1.43c1.41 1.41 2.11 2.11 2.37 2.92 0.232 0.713 0.232 1.48 0 2.2-0.264 0.811-0.967 1.51-2.37 2.92l-1.43 1.43c-1.41 1.41-2.11 2.11-2.92 2.37-0.713 0.232-1.48 0.232-2.2 0-0.811-0.264-1.51-0.967-2.92-2.37l-1.43-1.43z" fill="#000"/></svg>
