<svg fill="none" viewBox="0 0 12 12" xmlns="http://www.w3.org/2000/svg"><path d="m6.68 0.0393c-0.0914-0.0376-0.192-0.0474-0.289-0.0281-0.097 0.0193-0.186 0.0669-0.256 0.137l-3 3c-0.0911 0.0943-0.141 0.221-0.14 0.352s0.0537 0.256 0.146 0.349c0.0927 0.0927 0.218 0.145 0.349 0.146 0.131 0.00113 0.257-0.0493 0.352-0.14l2.15-2.15v8.59l-2.15-2.15c-0.0943-0.0911-0.221-0.141-0.352-0.14-0.131 0.00114-0.257 0.0537-0.349 0.146-0.0927 0.0927-0.145 0.218-0.146 0.349s0.0493 0.257 0.14 0.352l3 3c0.094 0.0937 0.221 0.146 0.354 0.146 0.133 0 0.26-0.0526 0.354-0.146l3-3c0.0478-0.0461 0.0858-0.101 0.112-0.162 0.0262-0.061 0.04-0.127 0.0406-0.193 6.2e-4 -0.0664-0.0121-0.132-0.0372-0.194s-0.0623-0.117-0.109-0.164c-0.0469-0.047-0.103-0.0841-0.164-0.109s-0.127-0.0378-0.194-0.0372c-0.0664 5.8e-4 -0.132 0.0144-0.193 0.0406-0.061 0.0262-0.116 0.0643-0.162 0.112l-2.15 2.15v-8.59l2.15 2.15c0.0461 0.0478 0.101 0.0858 0.162 0.112 0.061 0.0262 0.127 0.04 0.193 0.0406 0.0664 5.8e-4 0.132-0.0121 0.194-0.0372s0.117-0.0623 0.164-0.109c0.047-0.047 0.0841-0.103 0.109-0.164 0.0251-0.0614 0.0378-0.127 0.0372-0.194-5.8e-4 -0.0664-0.0144-0.132-0.0406-0.193-0.0262-0.061-0.0643-0.116-0.112-0.162l-3-3c-0.0467-0.0466-0.102-0.0836-0.163-0.109z" fill="#000"/></svg>
