<svg xmlns="http://www.w3.org/2000/svg" viewBox="0 0 16 16" fill="none">
  <path fill="#000"
    d="M11 4H8.707L11 1.707A.502.502 0 0 0 11 1a.502.502 0 0 0-.707 0L7.146 4.146A.496.496 0 0 0 7 4.5c0 .128.048.257.146.354l.004.002L10.293 8A.502.502 0 0 0 11 8a.502.502 0 0 0 0-.707L8.707 5H11c2.206 0 4 1.794 4 4s-1.794 4-4 4H5c-2.206 0-4-1.794-4-4a4.005 4.005 0 0 1 3.501-3.969c.274-.034.499-.255.499-.53a.464.464 0 0 0-.5-.476C1.984 4.278 0 6.42 0 9c0 2.75 2.25 5 5 5h6c2.75 0 5-2.25 5-5s-2.25-5-5-5Z" />
</svg>