<svg xmlns="http://www.w3.org/2000/svg" viewBox="0 0 16 16" fill="none">
  <path fill="#000"
    d="M12.146.147a.5.5 0 0 1 .708 0l3 3a.5.5 0 0 1 0 .707l-3 3a.5.5 0 0 1-.708-.707L14.293 4H12.11a5.247 5.247 0 0 0-5.122 4.11A6.247 6.247 0 0 1 .89 13H.5a.5.5 0 0 1 0-1h.39a5.247 5.247 0 0 0 5.122-4.108A6.247 6.247 0 0 1 12.11 3h2.183L12.146.854a.5.5 0 0 1 0-.707ZM.89 3c1.837 0 3.519.8 4.674 2.102-.191.302-.363.62-.512.95A5.246 5.246 0 0 0 .89 4H.5a.5.5 0 0 1 0-1h.39Z" />
  <path fill="#000"
    d="M12.11 13c-1.837 0-3.519-.8-4.674-2.102.191-.302.363-.619.512-.949A5.246 5.246 0 0 0 12.11 12h2.183l-2.147-2.146a.5.5 0 0 1 .708-.707l3 3a.498.498 0 0 1 0 .707l-3 3a.5.5 0 0 1-.708-.707L14.293 13H12.11Z" />
</svg>