<svg viewBox="0 0 16 16" xmlns="http://www.w3.org/2000/svg"><path d="m4 2c0.206 1e-5 0.391 0.126 0.466 0.318l3.5 9c0.1 0.257-0.0271 0.547-0.284 0.647-0.257 0.1-0.547-0.0271-0.647-0.284l-1.04-2.68h-3.98l-1.04 2.68c-0.1 0.257-0.39 0.384-0.647 0.284-0.257-0.1-0.384-0.39-0.284-0.647l3.5-9c0.0748-0.192 0.26-0.318 0.466-0.318zm-1.6 6h3.21l-1.6-4.12-1.6 4.12z" clip-rule="evenodd" fill="#000" fill-rule="evenodd"/><path d="m12 2c0.206 1e-5 0.391 0.126 0.466 0.318l3.5 9c0.1 0.257-0.0271 0.547-0.284 0.647-0.257 0.1-0.547-0.0271-0.648-0.284l-1.04-2.68h-3.98l-1.04 2.68c-0.1 0.257-0.39 0.384-0.647 0.284-0.257-0.1-0.384-0.39-0.284-0.647l3.5-9c0.0749-0.192 0.26-0.318 0.466-0.318zm-1.6 6h3.21l-1.6-4.12-1.6 4.12z" clip-rule="evenodd" fill="#000" fill-rule="evenodd"/></svg>
