<svg viewBox="0 0 16 16" xmlns="http://www.w3.org/2000/svg"><path d="m4.5 5c1.38 0 2.5 1.12 2.5 2.5v4c0 0.276-0.224 0.5-0.5 0.5-0.276 0-0.5-0.224-0.5-0.5-0.418 0.314-0.937 0.5-1.5 0.5h-1.5c-1.1 0-2-0.895-2-2 1.3e-4 -1.1 0.896-2 2-2h3v-0.5c-1.3e-4 -0.828-0.672-1.5-1.5-1.5h-0.882c-0.496 0-0.949 0.28-1.17 0.724-0.124 0.247-0.424 0.347-0.671 0.224-0.247-0.124-0.347-0.424-0.224-0.671 0.391-0.782 1.19-1.28 2.07-1.28h0.882zm-1.5 4c-0.552 1e-5 -1 0.448-1 1 0 0.552 0.448 1 1 1h1.5c0.828 0 1.5-0.672 1.5-1.5v-0.5h-3z" clip-rule="evenodd" fill="#000" fill-rule="evenodd"/><path d="m12.5 5c1.38 0 2.5 1.12 2.5 2.5v4c0 0.276-0.224 0.5-0.5 0.5s-0.5-0.224-0.5-0.5c-0.418 0.314-0.937 0.5-1.5 0.5h-1.5c-1.1 0-2-0.895-2-2 1.3e-4 -1.1 0.896-2 2-2h3v-0.5c-1e-4 -0.828-0.672-1.5-1.5-1.5h-0.882c-0.496 0-0.949 0.28-1.17 0.724-0.124 0.247-0.424 0.347-0.671 0.224-0.247-0.124-0.347-0.424-0.224-0.671 0.391-0.782 1.19-1.28 2.07-1.28h0.882zm-1.5 4c-0.552 1e-5 -1 0.448-1 1 0 0.552 0.448 1 1 1h1.5c0.828 0 1.5-0.672 1.5-1.5v-0.5h-3z" clip-rule="evenodd" fill="#000" fill-rule="evenodd"/></svg>
