<svg viewBox="0 0 16 16" xmlns="http://www.w3.org/2000/svg"><path d="m0 1.5c0-0.276 0.224-0.5 0.5-0.5h15c0.276 0 0.5 0.224 0.5 0.5s-0.224 0.5-0.5 0.5h-15c-0.276 0-0.5-0.224-0.5-0.5z" fill="#000"/><path d="m4 5.5c0-0.276 0.224-0.5 0.5-0.5h7c0.276 0 0.5 0.224 0.5 0.5s-0.224 0.5-0.5 0.5h-7c-0.276 0-0.5-0.224-0.5-0.5z" fill="#000"/><path d="m2 9.5c0-0.276 0.224-0.5 0.5-0.5h11c0.276 0 0.5 0.224 0.5 0.5s-0.224 0.5-0.5 0.5h-11c-0.276 0-0.5-0.224-0.5-0.5z" fill="#000"/><path d="m5 13.5c0-0.276 0.224-0.5 0.5-0.5h5c0.276 0 0.5 0.224 0.5 0.5s-0.224 0.5-0.5 0.5h-5c-0.276 0-0.5-0.224-0.5-0.5z" fill="#000"/></svg>
