<svg viewBox="0 0 16 16" xmlns="http://www.w3.org/2000/svg"><path d="m9.5 12c0.276 0 0.5 0.224 0.5 0.5s-0.224 0.5-0.5 0.5h-3c-0.276 0-0.5-0.224-0.5-0.5s0.224-0.5 0.5-0.5h3z" fill="#000"/><path d="m10.5 6c0.276 0 0.5 0.224 0.5 0.5s-0.224 0.5-0.5 0.5h-5c-0.276 0-0.5-0.224-0.5-0.5s0.224-0.5 0.5-0.5h5z" fill="#000"/><path d="m11.5 4c0.276 0 0.5 0.224 0.5 0.5s-0.224 0.5-0.5 0.5h-7c-0.276 0-0.5-0.224-0.5-0.5s0.224-0.5 0.5-0.5h7z" fill="#000"/><path d="m11.3 0.00488c0.975 0.0153 1.57 0.077 2.05 0.322 0.564 0.288 1.02 0.746 1.31 1.31 0.327 0.642 0.327 1.48 0.327 3.16v6.4l-0.0049 1.11c-0.0153 0.975-0.077 1.57-0.322 2.05l-0.115 0.206c-0.288 0.47-0.701 0.853-1.2 1.1l-0.123 0.0576c-0.46 0.198-1.03 0.251-1.93 0.265l-1.11 0.0049h-4.4c-1.68 0-2.52-2e-4 -3.16-0.327-0.494-0.252-0.907-0.635-1.2-1.1l-0.115-0.206c-0.245-0.481-0.307-1.07-0.322-2.05l-0.00488-1.11v-6.4c0-1.58 7e-5 -2.41 0.27-3.04l0.0576-0.123c0.252-0.494 0.635-0.907 1.1-1.2l0.206-0.115c0.642-0.327 1.48-0.327 3.16-0.327h4.4l1.11 0.00488zm-5.51 0.995c-0.856 0-1.44 3.5e-4 -1.89 0.0371-0.438 0.0358-0.663 0.101-0.819 0.181-0.376 0.192-0.682 0.498-0.874 0.874-0.0797 0.156-0.145 0.381-0.181 0.819-0.0368 0.45-0.0371 1.03-0.0371 1.89v6.4c0 0.856 3.5e-4 1.44 0.0371 1.89 0.0358 0.438 0.101 0.663 0.181 0.819 0.192 0.376 0.498 0.682 0.874 0.874 0.156 0.0797 0.381 0.145 0.819 0.181 0.45 0.0368 1.03 0.0371 1.89 0.0371h4.4c0.856 0 1.44-3e-4 1.89-0.0371 0.438-0.0358 0.663-0.101 0.819-0.181 0.376-0.192 0.682-0.498 0.874-0.874 0.0797-0.156 0.145-0.381 0.181-0.819 0.0368-0.45 0.0371-1.03 0.0371-1.89v-6.4c0-0.856-3e-4 -1.44-0.0371-1.89-0.0358-0.438-0.101-0.663-0.181-0.819-0.192-0.376-0.498-0.682-0.874-0.874-0.156-0.0797-0.381-0.145-0.819-0.181-0.45-0.0368-1.03-0.0371-1.89-0.0371h-4.4z" clip-rule="evenodd" fill="#000" fill-rule="evenodd"/></svg>
