<svg fill="none" viewBox="0 0 16 16" xmlns="http://www.w3.org/2000/svg"><path d="m12.1 4.15c0.195-0.195 0.512-0.195 0.707 0l0.0578 0.0692c0.135 0.195 0.116 0.464-0.0578 0.638l-2.15 2.15h4.79c0.276 0 0.5 0.224 0.5 0.5s-0.224 0.5-0.5 0.5h-4.79l2.15 2.15c0.174 0.174 0.193 0.443 0.0578 0.638l-0.0578 0.0693c-0.195 0.195-0.512 0.195-0.707 0l-3.03-3.03-0.0287-0.0375-0.0421-0.0733-0.0301-0.0833-0.0112-0.0541-0.00363-0.0312-0.00171-0.0534c4.5e-4 -0.0212 0.00223-0.0424 0.00535-0.0634l-0.00546 0.0739 0.00282-0.0534 0.0138-0.0747 0.0212-0.0629 0.0394-0.076 0.0404-0.0551 3.03-3.03zm-11.6-3.15h7c0.276 0 0.5 0.224 0.5 0.5s-0.224 0.5-0.5 0.5h-7c-0.276 0-0.5-0.224-0.5-0.5s0.224-0.5 0.5-0.5zm0 4h7c0.276 0 0.5 0.224 0.5 0.5s-0.224 0.5-0.5 0.5h-7c-0.276 0-0.5-0.224-0.5-0.5s0.224-0.5 0.5-0.5zm0 4h7c0.276 0 0.5 0.224 0.5 0.5s-0.224 0.5-0.5 0.5h-7c-0.276 0-0.5-0.224-0.5-0.5s0.224-0.5 0.5-0.5zm0 4h3c0.276 0 0.5 0.224 0.5 0.5s-0.224 0.5-0.5 0.5h-3c-0.276 0-0.5-0.224-0.5-0.5s0.224-0.5 0.5-0.5z" fill="#000"/></svg>
