<svg viewBox="0 0 16 16" xmlns="http://www.w3.org/2000/svg"><path d="m4.5 0c-1.38 0-2.5 1.12-2.5 2.5s1.12 2.5 2.5 2.5h1.5v3.5c0 0.276 0.224 0.5 0.5 0.5s0.5-0.224 0.5-0.5v-7.5h2v7.5c0 0.276 0.224 0.5 0.5 0.5s0.5-0.224 0.5-0.5v-7.5h1.5c0.276 0 0.5-0.224 0.5-0.5s-0.224-0.5-0.5-0.5h-7zm1.5 1h-1.5c-0.828 0-1.5 0.672-1.5 1.5s0.672 1.5 1.5 1.5h1.5v-3z" clip-rule="evenodd" fill="#000" fill-rule="evenodd"/><path d="m1 12.5c0-0.276 0.224-0.5 0.5-0.5h12.8l-2.15-2.15c-0.195-0.195-0.195-0.512 0-0.707 0.195-0.195 0.512-0.195 0.707 0l3 3c0.0479 0.048 0.0841 0.103 0.108 0.162 0.024 0.0581 0.0375 0.122 0.0379 0.188v3e-3 3e-3c-4e-4 0.0667-0.0139 0.13-0.0379 0.188-0.0244 0.059-0.0606 0.114-0.108 0.162l-3 3c-0.195 0.195-0.512 0.195-0.707 0-0.195-0.195-0.195-0.512 0-0.707l2.15-2.15h-12.8c-0.276 0-0.5-0.224-0.5-0.5z" fill="#000"/></svg>
