<svg viewBox="0 0 16 16" xmlns="http://www.w3.org/2000/svg"><path d="m9.5 1c0.276 0 0.5 0.224 0.5 0.5v3.31c0.196-0.175 0.416-0.326 0.658-0.447 1.99-0.997 4.34 0.453 4.34 2.68v0.91c0 2.23-2.35 3.68-4.34 2.68-0.242-0.121-0.462-0.272-0.658-0.447v0.309c0 0.276-0.224 0.5-0.5 0.5s-0.5-0.224-0.5-0.5v-9c0-0.276 0.224-0.5 0.5-0.5zm0.5 6.95v-0.91c0-0.758 0.428-1.45 1.11-1.79 1.33-0.665 2.89 0.302 2.89 1.79v0.91c0 1.49-1.56 2.45-2.89 1.79-0.678-0.339-1.11-1.03-1.11-1.79z" clip-rule="evenodd" fill="#000" fill-rule="evenodd"/><path d="m1.55 5.28c0.391-0.782 1.19-1.28 2.07-1.28h0.882c1.38 0 2.5 1.12 2.5 2.5v4c0 0.276-0.224 0.5-0.5 0.5-0.276 0-0.5-0.224-0.5-0.5-0.418 0.314-0.937 0.5-1.5 0.5h-1.5c-1.1 0-2-0.895-2-2 0-1.1 0.895-2 2-2h3v-0.5c0-0.828-0.672-1.5-1.5-1.5h-0.882c-0.496 0-0.949 0.28-1.17 0.724-0.123 0.247-0.424 0.347-0.671 0.224-0.247-0.124-0.347-0.424-0.224-0.671zm1.45 2.72c-0.552 0-1 0.448-1 1 0 0.552 0.448 1 1 1h1.5c0.828 0 1.5-0.672 1.5-1.5v-0.5h-3z" clip-rule="evenodd" fill="#000" fill-rule="evenodd"/><path d="m1 12.5c0-0.276-0.224-0.5-0.5-0.5s-0.5 0.224-0.5 0.5v2c0 0.828 0.672 1.5 1.5 1.5h13c0.828 0 1.5-0.672 1.5-1.5v-2c0-0.276-0.224-0.5-0.5-0.5s-0.5 0.224-0.5 0.5v2c0 0.276-0.224 0.5-0.5 0.5h-13c-0.276 0-0.5-0.224-0.5-0.5v-2z" fill="#000"/></svg>
