<svg viewBox="0 0 16 16" xmlns="http://www.w3.org/2000/svg"><path d="m11 1.5c0-0.276-0.224-0.5-0.5-0.5s-0.5 0.224-0.5 0.5v3.13l-2.71-1.57c-0.239-0.138-0.545-0.0561-0.683 0.183s-0.0561 0.545 0.183 0.683l2.71 1.57-2.71 1.57c-0.239 0.138-0.321 0.444-0.183 0.683s0.444 0.321 0.683 0.183l2.71-1.57v3.13c0 0.276 0.224 0.5 0.5 0.5s0.5-0.224 0.5-0.5v-3.13l2.71 1.57c0.239 0.138 0.545 0.0561 0.683-0.183s0.0561-0.545-0.183-0.683l-2.71-1.57 2.71-1.57c0.239-0.138 0.321-0.444 0.183-0.683s-0.444-0.321-0.683-0.183l-2.71 1.57v-3.13z" fill="#000"/><path d="m3.08 11.6c-0.0761 0.184-0.0761 0.417-0.0761 0.883s0 0.699 0.0761 0.883c0.101 0.245 0.296 0.44 0.541 0.541 0.184 0.0761 0.417 0.0761 0.883 0.0761s0.699 0 0.883-0.0761c0.245-0.102 0.44-0.296 0.541-0.541 0.0761-0.184 0.0761-0.417 0.0761-0.883s0-0.699-0.0761-0.883c-0.101-0.245-0.296-0.44-0.541-0.541-0.184-0.0761-0.417-0.0761-0.883-0.0761s-0.699 0-0.883 0.0761c-0.245 0.102-0.44 0.296-0.541 0.541z" fill="#000"/></svg>
