<svg viewBox="0 0 16 16" xmlns="http://www.w3.org/2000/svg"><path d="m12 7c1.66 0 3 1.34 3 3v1.01c0.196 0.012 0.335 0.0382 0.454 0.0987 0.188 0.0958 0.341 0.248 0.436 0.436 0.109 0.214 0.109 0.494 0.109 1.05v1.8c0 0.56-4e-4 0.84-0.109 1.05-0.0958 0.188-0.248 0.341-0.436 0.436-0.214 0.109-0.494 0.109-1.05 0.109h-4.8c-0.56 0-0.84-4e-4 -1.05-0.109-0.188-0.0958-0.341-0.248-0.437-0.436-0.109-0.214-0.109-0.494-0.109-1.05v-1.8c0-0.56 4.1e-4 -0.84 0.109-1.05 0.0958-0.188 0.249-0.341 0.437-0.436 0.119-0.0605 0.258-0.0867 0.454-0.0987v-1.01c0-1.66 1.34-3 3-3zm0 1c-1.1 0-2 0.895-2 2v1h4v-1c0-1.1-0.895-2-2-2z" clip-rule="evenodd" fill="#000" fill-rule="evenodd"/><path d="m15.5 0c0.276 0 0.5 0.224 0.5 0.5v3.5c-1e-4 0.552-0.448 1-1 1h-13.3l3.15 3.15c0.195 0.195 0.195 0.512 0 0.707-0.195 0.195-0.512 0.195-0.707 0l-4-4c-0.195-0.195-0.195-0.512 0-0.707l4-4c0.195-0.195 0.512-0.195 0.707 0 0.195 0.195 0.195 0.512 0 0.707l-3.15 3.15h13.3v-3.5c0-0.276 0.224-0.5 0.5-0.5z" fill="#000"/></svg>
