<svg fill="none" viewBox="0 0 16 16" xmlns="http://www.w3.org/2000/svg"><path d="m16 0.5c0-0.276-0.224-0.5-0.5-0.5s-0.5 0.224-0.5 0.5v3.5h-13.3l3.15-3.15c0.195-0.195 0.195-0.512 0-0.707-0.195-0.195-0.512-0.195-0.707 0l-4 4c-0.195 0.195-0.195 0.512 0 0.707l4 4c0.195 0.195 0.512 0.195 0.707 0 0.195-0.195 0.195-0.512 0-0.707l-3.15-3.15h13.3c0.552 0 1-0.448 1-1v-3.5z" fill="#000"/><rect x="8" y="11" width="8" height="5" rx="1" fill="#000"/><path d="m9.5 13.5v-3.5c0-1.38 1.12-2.5 2.5-2.5v0c1.38 0 2.5 1.12 2.5 2.5v3.5" stroke="#000" stroke-linecap="round"/></svg>
