<svg viewBox="0 0 16 16" xmlns="http://www.w3.org/2000/svg"><path d="m5.5 0c-1.38 0-2.5 1.12-2.5 2.5s1.12 2.5 2.5 2.5h1.5v3.5c0 0.276 0.224 0.5 0.5 0.5s0.5-0.224 0.5-0.5v-7.5h2v7.5c0 0.276 0.224 0.5 0.5 0.5s0.5-0.224 0.5-0.5v-7.5h1.5c0.276 0 0.5-0.224 0.5-0.5s-0.224-0.5-0.5-0.5h-7zm1.5 1h-1.5c-0.828 0-1.5 0.672-1.5 1.5s0.672 1.5 1.5 1.5h1.5v-3z" clip-rule="evenodd" fill="#000" fill-rule="evenodd"/><path d="m15 12.5c0-0.276-0.224-0.5-0.5-0.5h-12.8l2.15-2.15c0.195-0.195 0.195-0.512 0-0.707-0.195-0.195-0.512-0.195-0.707 0l-3 3c-0.0479 0.048-0.0841 0.103-0.109 0.162-0.0244 0.059-0.0379 0.124-0.0379 0.191s0.0135 0.132 0.0379 0.191c0.0244 0.059 0.0606 0.114 0.109 0.162l3 3c0.195 0.195 0.512 0.195 0.707 0 0.195-0.195 0.195-0.512 0-0.707l-2.15-2.15h12.8c0.276 0 0.5-0.224 0.5-0.5z" fill="#000"/></svg>
