<svg fill="none" viewBox="0 0 16 16" xmlns="http://www.w3.org/2000/svg"><path d="m1.5 1c-0.276 0-0.5 0.224-0.5 0.5v4c0 0.276 0.224 0.5 0.5 0.5s0.5-0.224 0.5-0.5v-0.5c0-2 0.5-3 3-3h1.5c0.276 0 0.5 0.224 0.5 0.5v10.5c0 0.552-0.448 1-1 1h-1.5c-0.276 0-0.5 0.224-0.5 0.5s0.224 0.5 0.5 0.5h7c0.276 0 0.5-0.224 0.5-0.5s-0.224-0.5-0.5-0.5h-1.5c-0.552 0-1-0.448-1-1v-10.5c0-0.276 0.224-0.5 0.5-0.5l1.5-2.4e-4c2.5 0 3 1 3 3v0.5c0 0.276 0.224 0.5 0.5 0.5s0.5-0.224 0.5-0.5v-4c0-0.276-0.224-0.5-0.5-0.5h-13z" clip-rule="evenodd" fill="#000" fill-rule="evenodd"/></svg>
