<svg fill="none" viewBox="0 0 16 16" xmlns="http://www.w3.org/2000/svg"><path d="m7.28 0.0494c0.173-0.0833 0.379-0.0599 0.529 0.0602l5 4c0.12 0.0956 0.189 0.241 0.188 0.394-0.0011 0.153-0.0722 0.297-0.193 0.391l-3.99 3.11 3.99 3.11c0.121 0.094 0.192 0.238 0.193 0.391 1e-3 0.153-0.0681 0.298-0.188 0.394l-5 4c-0.15 0.12-0.356 0.144-0.529 0.0603-0.173-0.0833-0.283-0.258-0.283-0.451v-6.09l-3.19 2.48c-0.218 0.17-0.532 0.13-0.702-0.0877-0.17-0.218-0.13-0.532 0.0877-0.702l3.81-2.96v-0.289l-3.81-2.96c-0.218-0.17-0.257-0.484-0.0877-0.702 0.17-0.218 0.484-0.257 0.702-0.0877l3.19 2.48v-6.09c0-0.192 0.11-0.367 0.283-0.451zm0.717 8.58v5.83l3.69-2.95-3.69-2.87zm0-1.27 3.69-2.87-3.69-2.95v5.83z" clip-rule="evenodd" fill="#000" fill-rule="evenodd"/></svg>
