<svg fill="none" viewBox="0 0 16 16" xmlns="http://www.w3.org/2000/svg"><path d="m8 0c3.87 0 7 1.12 7 2.5v11c0 1.38-3.13 2.5-7 2.5-3.87 0-7-1.12-7-2.5v-11c0-1.38 3.13-2.5 7-2.5zm5.8 2.29c0.125 0.105 0.172 0.176 0.189 0.209-0.0169 0.0332-0.0641 0.104-0.189 0.209-0.229 0.194-0.62 0.413-1.19 0.617-1.13 0.405-2.76 0.674-4.61 0.674s-3.48-0.269-4.61-0.674c-0.571-0.204-0.962-0.423-1.19-0.617-0.125-0.105-0.172-0.176-0.189-0.209 0.0169-0.0332 0.0641-0.104 0.189-0.209 0.229-0.194 0.62-0.413 1.19-0.617 1.13-0.405 2.76-0.674 4.61-0.674s3.48 0.269 4.61 0.674c0.571 0.204 0.962 0.423 1.19 0.617zm-11.8 5v2.71h0.00633c0.0169 0.0332 0.0641 0.104 0.189 0.209 0.229 0.194 0.62 0.413 1.19 0.617 1.13 0.405 2.76 0.674 4.61 0.674s3.48-0.269 4.61-0.674c0.571-0.204 0.962-0.423 1.19-0.617 0.125-0.105 0.172-0.176 0.189-0.209h0.0063v-2.71c-1.22 0.726-3.45 1.21-6 1.21-2.55 0-4.78-0.486-6-1.21zm12-1.29h-0.0063c-0.0169 0.0332-0.0641 0.104-0.189 0.209-0.229 0.194-0.62 0.413-1.19 0.617-1.13 0.405-2.76 0.674-4.61 0.674s-3.48-0.269-4.61-0.674c-0.571-0.204-0.962-0.423-1.19-0.617-0.125-0.105-0.172-0.176-0.189-0.209h-0.00633v-2.21c1.22 0.726 3.45 1.21 6 1.21 2.55 0 4.78-0.486 6-1.21v2.21zm-6 6.5c-2.55 0-4.78-0.486-6-1.21v2.21h0.00633c0.0169 0.0332 0.0641 0.104 0.189 0.209 0.229 0.194 0.62 0.413 1.19 0.617 1.13 0.405 2.76 0.674 4.61 0.674s3.48-0.269 4.61-0.674c0.571-0.204 0.962-0.423 1.19-0.617 0.125-0.105 0.172-0.176 0.189-0.209h0.0063v-2.21c-1.22 0.726-3.45 1.21-6 1.21z" clip-rule="evenodd" fill="#000" fill-rule="evenodd"/></svg>
