<svg viewBox="0 0 16 16" xmlns="http://www.w3.org/2000/svg"><path d="m3 7.55c0-0.0436 0-0.0654 0.00136-0.0837 0.0182-0.247 0.215-0.444 0.462-0.462 0.0184-0.00136 0.0402-0.00136 0.0837-0.00136h8.91c0.0435 0 0.0653 0 0.0837 0.00136 0.247 0.0182 0.444 0.215 0.462 0.462 0.0014 0.0184 0.0014 0.0402 0.0014 0.0837 0 0.0382 0 0.0573-7e-4 0.0757-0.0088 0.24-0.103 0.468-0.267 0.644-0.0126 0.0135-0.0261 0.027-0.053 0.054l-0.211 0.211c-0.173 0.173-0.259 0.259-0.36 0.321-0.0895 0.0548-0.187 0.0952-0.289 0.12-0.115 0.0276-0.237 0.0276-0.482 0.0276h-6.67c-0.245 0-0.367 0-0.482-0.0276-0.102-0.0245-0.2-0.0649-0.289-0.12-0.101-0.0618-0.187-0.148-0.36-0.321l-0.211-0.211c-0.027-0.027-0.0405-0.0405-0.0531-0.054-0.163-0.176-0.258-0.404-0.267-0.644-6.8e-4 -0.0184-6.8e-4 -0.0375-6.8e-4 -0.0757z" fill="#000"/><path d="m0 7.2c0-1.12 0-1.68 0.218-2.11 0.192-0.376 0.498-0.682 0.874-0.874 0.428-0.218 0.988-0.218 2.11-0.218h9.6c1.12 0 1.68 0 2.11 0.218 0.376 0.192 0.682 0.498 0.874 0.874 0.218 0.428 0.218 0.988 0.218 2.11v1.75c0 0.0463 0 0.0694-4e-4 0.089-0.021 1.07-0.886 1.94-1.96 1.96-0.0195 4e-4 -0.0427 4e-4 -0.0889 4e-4 -0.0223 0-0.0335 0-0.0438 1e-4 -0.553 0.0077-1.06 0.319-1.31 0.811-0.0047 0.0092-0.0105 0.0208-0.0214 0.0426-0.0193 0.0385-0.029 0.0579-0.0376 0.0744-0.339 0.647-1 1.06-1.73 1.07-0.0187 3e-4 -0.0388 3e-4 -0.0791 3e-4h-5.44c-0.0402 0-0.0604 0-0.079-3e-4 -0.731-0.0137-1.4-0.425-1.73-1.07-0.00866-0.0166-0.0184-0.036-0.0377-0.0747-0.011-0.0221-0.0165-0.0331-0.0213-0.0423-0.254-0.491-0.758-0.803-1.31-0.811-0.0103-1e-4 -0.0215-1e-4 -0.0438-1e-4 -0.0463 0-0.0694 0-0.089-4e-4 -1.07-0.021-1.94-0.886-1.96-1.96-3.83e-4 -0.0196-3.83e-4 -0.0427-3.83e-4 -0.089v-1.75zm3.2-2.2h9.6c0.577 0 0.949 7.8e-4 1.23 0.0239 0.272 0.0222 0.372 0.0599 0.422 0.0851 0.188 0.0959 0.341 0.249 0.437 0.437 0.0252 0.0494 0.0629 0.15 0.0851 0.422 0.0231 0.283 0.0239 0.656 0.0239 1.23v1.75c0 0.051 0 0.0621-2e-4 0.0694-0.0105 0.537-0.443 0.97-0.98 0.98-0.0073 1.4e-4 -0.0184 1.9e-4 -0.0694 1.9e-4h-0.0044c-0.0179 0-0.0358 0-0.0532 2e-4 -0.922 0.0128-1.76 0.532-2.19 1.35-8e-3 0.0156-0.0166 0.0327-0.0253 0.0502l-0.0022 0.0043c-0.0214 0.0428-0.026 0.0519-0.0292 0.0581-0.17 0.324-0.502 0.529-0.867 0.536-0.0071 2e-4 -0.0162 2e-4 -0.0604 2e-4h-5.44c-0.0442 0-0.0532 0-0.0604-2e-4 -0.365-0.0068-0.698-0.212-0.867-0.536-0.00325-0.0062-0.00788-0.0153-0.0292-0.0581l-0.0022-0.0043c-0.00874-0.0175-0.0173-0.0346-0.0253-0.0502-0.424-0.819-1.26-1.34-2.19-1.35-0.0175-2e-4 -0.0353-2e-4 -0.0533-2e-4h-0.00434c-0.051 0-0.0621-5e-5 -0.0694-1.9e-4 -0.537-0.0105-0.97-0.443-0.98-0.98-1.4e-4 -0.00732-1.9e-4 -0.0184-1.9e-4 -0.0694v-1.75c0-0.577 7.8e-4 -0.949 0.0239-1.23 0.0222-0.272 0.0599-0.372 0.0851-0.422 0.0959-0.188 0.249-0.341 0.437-0.437 0.0494-0.0252 0.15-0.0629 0.422-0.0851 0.283-0.0232 0.656-0.0239 1.23-0.0239z" clip-rule="evenodd" fill="#000" fill-rule="evenodd"/></svg>
