<svg fill="none" viewBox="0 0 16 16" xmlns="http://www.w3.org/2000/svg"><path d="m5.15 1.23c-0.152 0.368-0.152 0.833-0.152 1.77s0 1.4 0.152 1.77c0.203 0.49 0.592 0.879 1.08 1.08 0.368 0.152 0.833 0.152 1.77 0.152v2h-4.5c-0.828 0-1.5 0.672-1.5 1.5v0.513c-0.327 0.0168-0.561 0.0544-0.765 0.139-0.49 0.203-0.879 0.592-1.08 1.08-0.152 0.368-0.152 0.834-0.152 1.77s0 1.4 0.152 1.77c0.203 0.49 0.592 0.879 1.08 1.08 0.368 0.152 0.833 0.152 1.77 0.152s1.4 0 1.77-0.152c0.49-0.203 0.879-0.592 1.08-1.08 0.152-0.368 0.152-0.834 0.152-1.77s0-1.4-0.152-1.77c-0.203-0.49-0.592-0.879-1.08-1.08-0.368-0.152-0.833-0.152-1.77-0.152v-0.5c0-0.276 0.224-0.5 0.5-0.5h9c0.276 0 0.5 0.224 0.5 0.5v0.5c-0.932 0-1.4 0-1.77 0.152-0.49 0.203-0.879 0.592-1.08 1.08-0.152 0.368-0.152 0.834-0.152 1.77s0 1.4 0.152 1.77c0.203 0.49 0.592 0.879 1.08 1.08 0.368 0.152 0.834 0.152 1.77 0.152s1.4 0 1.77-0.152c0.49-0.203 0.879-0.592 1.08-1.08 0.152-0.368 0.152-0.834 0.152-1.77s0-1.4-0.152-1.77c-0.203-0.49-0.592-0.879-1.08-1.08-0.204-0.0844-0.438-0.122-0.765-0.139v-0.513c0-0.828-0.672-1.5-1.5-1.5h-3.5v-2.01c0.327-0.0167 0.561-0.0544 0.765-0.139 0.49-0.203 0.879-0.592 1.08-1.08 0.152-0.368 0.152-0.833 0.152-1.77s0-1.4-0.152-1.77c-0.203-0.49-0.592-0.879-1.08-1.08-0.368-0.152-0.833-0.152-1.77-0.152s-1.4 0-1.77 0.152c-0.49 0.203-0.879 0.592-1.08 1.08zm-4.04 10.3c-0.109 0.214-0.109 0.494-0.109 1.05v0.8c0 0.56 0 0.84 0.109 1.05 0.0959 0.188 0.249 0.341 0.437 0.437 0.214 0.109 0.494 0.109 1.05 0.109h0.8c0.56 0 0.84 0 1.05-0.109 0.188-0.0959 0.341-0.249 0.437-0.437 0.109-0.214 0.109-0.494 0.109-1.05v-0.8c0-0.56 0-0.84-0.109-1.05-0.0959-0.188-0.249-0.341-0.437-0.437-0.214-0.109-0.494-0.109-1.05-0.109h-0.8c-0.56 0-0.84 0-1.05 0.109-0.188 0.0959-0.341 0.249-0.437 0.437zm9.89 1.05c0-0.56 0-0.84 0.109-1.05 0.0959-0.188 0.249-0.341 0.437-0.437 0.214-0.109 0.494-0.109 1.05-0.109h0.8c0.56 0 0.84 0 1.05 0.109 0.188 0.0959 0.341 0.249 0.437 0.437 0.109 0.214 0.109 0.494 0.109 1.05v0.8c0 0.56 0 0.84-0.109 1.05-0.0959 0.188-0.249 0.341-0.437 0.437-0.214 0.109-0.494 0.109-1.05 0.109h-0.8c-0.56 0-0.84 0-1.05-0.109-0.188-0.0959-0.341-0.249-0.437-0.437-0.109-0.214-0.109-0.494-0.109-1.05v-0.8zm-4.89-11.1c-0.109 0.214-0.109 0.494-0.109 1.05v0.8c0 0.56 0 0.84 0.109 1.05 0.0959 0.188 0.249 0.341 0.437 0.437 0.214 0.109 0.494 0.109 1.05 0.109h0.8c0.56 0 0.84 0 1.05-0.109 0.188-0.0959 0.341-0.249 0.437-0.437 0.109-0.214 0.109-0.494 0.109-1.05v-0.8c0-0.56 0-0.84-0.109-1.05-0.0959-0.188-0.249-0.341-0.437-0.437-0.214-0.109-0.494-0.109-1.05-0.109h-0.8c-0.56 0-0.84 0-1.05 0.109-0.188 0.0959-0.341 0.249-0.437 0.437z" clip-rule="evenodd" fill="#000" fill-rule="evenodd"/></svg>
