<svg viewBox="0 0 16 16" xmlns="http://www.w3.org/2000/svg"><path d="m9 3c0-0.375-0.209-0.718-0.542-0.889-0.333-0.171-0.734-0.142-1.04 0.0754l-2.54 1.81h-2.38c-1.38 0-2.5 1.12-2.5 2.5v3c0 1.38 1.12 2.5 2.5 2.5h2.38l2.54 1.81c0.305 0.218 0.706 0.247 1.04 0.0755s0.542-0.515 0.542-0.889v-10zm-6.5 2h2.38c0.208 0 0.412-0.0651 0.581-0.186l2.54-1.81v10l-2.54-1.81c-0.17-0.121-0.373-0.186-0.581-0.186h-2.38c-0.828 0-1.5-0.672-1.5-1.5v-3c0-0.828 0.672-1.5 1.5-1.5z" clip-rule="evenodd" fill="#000" fill-rule="evenodd"/><path d="m11.5 2.34c0.115-0.251 0.412-0.361 0.663-0.246 1.13 0.519 2.09 1.35 2.76 2.4s1.03 2.26 1.03 3.51c5e-4 1.24-0.356 2.46-1.03 3.51-0.671 1.05-1.63 1.88-2.76 2.4-0.251 0.115-0.548 0.0054-0.663-0.246s-0.0054-0.548 0.246-0.663c0.956-0.44 1.77-1.14 2.33-2.03 0.568-0.886 0.869-1.92 0.869-2.97s-0.303-2.08-0.871-2.97c-0.568-0.886-1.38-1.59-2.34-2.03-0.251-0.115-0.361-0.412-0.246-0.663z" fill="#000"/><path d="m10.6 5.15c0.138-0.239 0.444-0.321 0.683-0.183 0.532 0.307 0.973 0.748 1.28 1.28 0.307 0.532 0.469 1.13 0.47 1.75 4e-4 0.614-0.161 1.22-0.467 1.75-0.306 0.532-0.748 0.974-1.28 1.28-0.239 0.138-0.545 0.0568-0.683-0.182-0.138-0.239-0.0568-0.545 0.182-0.683 0.379-0.22 0.694-0.535 0.913-0.915 0.219-0.38 0.334-0.811 0.334-1.25-4e-4 -0.438-0.116-0.869-0.336-1.25-0.219-0.38-0.535-0.695-0.915-0.914-0.239-0.138-0.321-0.444-0.183-0.683z" fill="#000"/></svg>
