<svg viewBox="0 0 16 16" xmlns="http://www.w3.org/2000/svg"><path d="m14.4 0.212c-0.724-0.436-1.65-0.177-2.07 0.577l-3.97 7.16c-0.221 0.399-0.338 0.852-0.338 1.31l-5.1e-4 1.68c-2.5e-4 0.81 0.841 1.32 1.51 0.911l1.4-0.842c0.383-0.231 0.701-0.562 0.922-0.962l3.97-7.16c0.418-0.754 0.17-1.72-0.554-2.15l-0.873-0.526zm-1.19 1.1c0.139-0.251 0.448-0.338 0.689-0.192l0.873 0.526c0.241 0.145 0.324 0.467 0.185 0.718l-3.97 7.16c-0.133 0.24-0.324 0.439-0.553 0.577l-1.4 0.842 5.2e-4 -1.68c8e-5 -0.277 0.07-0.549 0.203-0.788l3.97-7.16z" clip-rule="evenodd" fill="#000" fill-rule="evenodd"/><path d="m9 2.5c0-0.276-0.224-0.5-0.5-0.5h-3.7c-1.68 0-2.52 0-3.16 0.327-0.564 0.288-1.02 0.747-1.31 1.31-0.327 0.642-0.327 1.48-0.327 3.16v2.4c0 1.68 0 2.52 0.327 3.16 0.288 0.564 0.747 1.02 1.31 1.31 0.642 0.327 1.48 0.327 3.16 0.327h6.4c1.68 0 2.52 0 3.16-0.327 0.564-0.288 1.02-0.746 1.31-1.31 0.327-0.642 0.327-1.48 0.327-3.16v-1.7c0-0.276-0.224-0.5-0.5-0.5s-0.5 0.224-0.5 0.5v1.7c0 0.857-8e-4 1.44-0.0376 1.89-0.0358 0.438-0.101 0.663-0.18 0.819-0.192 0.376-0.498 0.682-0.874 0.874-0.156 0.0797-0.381 0.145-0.819 0.18-0.45 0.0368-1.03 0.0376-1.89 0.0376h-6.4c-0.298 0-0.563-1e-4 -0.8-0.0018v-10c0.237-0.00167 0.502-0.00176 0.8-0.00176h3.7c0.276 0 0.5-0.224 0.5-0.5zm-6 0.531v9.94c-0.0302-2e-3 -0.0599-0.0043-0.089-0.0067-0.438-0.0358-0.663-0.101-0.819-0.18-0.376-0.192-0.682-0.498-0.874-0.874-0.0797-0.156-0.145-0.381-0.18-0.819-0.0368-0.45-0.0376-1.03-0.0376-1.89v-2.4c0-0.857 7.8e-4 -1.44 0.0376-1.89 0.0358-0.438 0.101-0.663 0.18-0.819 0.192-0.376 0.498-0.682 0.874-0.874 0.156-0.0797 0.381-0.145 0.819-0.18 0.0291-0.00238 0.0587-0.0046 0.089-0.00669z" clip-rule="evenodd" fill="#000" fill-rule="evenodd"/></svg>
