<svg fill="none" viewBox="0 0 16 16" xmlns="http://www.w3.org/2000/svg"><path d="m4.23 1.85c-0.228 0.551-0.228 1.25-0.228 2.65v5.3c0 1.12 0 1.68 0.218 2.11 0.192 0.376 0.498 0.682 0.874 0.874 0.238 0.121 0.516 0.175 0.908 0.199v2.52c0 0.276 0.224 0.5 0.5 0.5h4c0.276 0 0.5-0.224 0.5-0.5v-2.52c0.392-0.0239 0.67-0.0778 0.908-0.199 0.376-0.192 0.682-0.498 0.874-0.874 0.218-0.428 0.218-0.988 0.218-2.11v-5.3c0-1.4 0-2.1-0.228-2.65-0.304-0.735-0.888-1.32-1.62-1.62-0.551-0.228-1.25-0.228-2.65-0.228s-2.1 0-2.65 0.228c-0.735 0.304-1.32 0.889-1.62 1.62zm7.77 7.95v-5.3c0-0.713-5e-4 -1.2-0.0262-1.57-0.0251-0.367-0.0707-0.558-0.126-0.692-0.203-0.49-0.592-0.879-1.08-1.08-0.134-0.0553-0.324-0.101-0.692-0.126-0.376-0.0257-0.861-0.0262-1.57-0.0262s-1.2 5.4e-4 -1.57 0.0262c-0.367 0.0251-0.558 0.0707-0.692 0.126-0.49 0.203-0.879 0.592-1.08 1.08-0.0553 0.134-0.101 0.325-0.126 0.692-0.0257 0.376-0.0262 0.861-0.0262 1.57v5.3c0 0.577 7.8e-4 0.949 0.0239 1.23 0.0222 0.272 0.0599 0.372 0.0851 0.422 0.0959 0.188 0.249 0.341 0.437 0.437 0.0494 0.0252 0.15 0.0629 0.422 0.0851 0.283 0.0231 0.656 0.0239 1.23 0.0239h2.6c0.577 0 0.949-8e-4 1.23-0.0239 0.272-0.0222 0.372-0.0599 0.422-0.0851 0.188-0.0959 0.341-0.249 0.437-0.437 0.0252-0.0495 0.0629-0.15 0.0851-0.422 0.0231-0.283 0.0239-0.656 0.0239-1.23zm-5 5.2v-2h3v2h-3z" clip-rule="evenodd" fill="#000" fill-rule="evenodd"/></svg>
