<svg fill="none" viewBox="0 0 24 24" xmlns="http://www.w3.org/2000/svg"><path d="m12.4 20.8 0.0099-0.0057c3.36-1.91 6.02-3.95 7.83-6.04 1.81-2.09 2.72-4.16 2.72-6.16 0-3.27-2.47-5.6-5.75-5.6-2.01 0-3.44 0.962-4.4 2.49l-0.85 1.36-0.847-1.36c-0.939-1.51-2.39-2.49-4.4-2.49-3.28 0-5.75 2.33-5.75 5.6 0 2 0.908 4.08 2.72 6.16 1.81 2.09 4.47 4.13 7.83 6.04l0.0099 0.0057 0.0098 0.0059c0.0814 0.0487 0.195 0.104 0.306 0.144 0.0541 0.0196 0.0975 0.0321 0.128 0.039 3e-4 0 5e-4 1e-4 7e-4 1e-4 9e-4 -1e-4 0.0018-3e-4 0.0027-5e-4 0.0289-0.0065 0.0701-0.0184 0.122-0.0374 0.106-0.0388 0.217-0.0933 0.304-0.145l0.0098-0.0059zm0.504 0.864c6.85-3.89 11.1-8.43 11.1-13.1 0-3.86-2.96-6.6-6.75-6.6-1.98 0-3.52 0.807-4.62 2.09-0.229 0.268-0.439 0.556-0.63 0.862-0.19-0.306-0.4-0.594-0.629-0.862-1.09-1.28-2.64-2.09-4.62-2.09-3.8 0-6.75 2.74-6.75 6.6 0 4.64 4.21 9.19 11.1 13.1 0.274 0.164 0.686 0.329 0.945 0.329 0.274 0 0.67-0.164 0.945-0.329z" clip-rule="evenodd" fill="#000" fill-rule="evenodd"/></svg>
