<svg fill="none" viewBox="0 0 24 24" xmlns="http://www.w3.org/2000/svg"><path d="m12 0c-6.64 0-12 5.5-12 12.3 0 5.44 3.44 10 8.21 11.7 0.597 0.122 0.815-0.265 0.815-0.59 0-0.285-0.0197-1.26-0.0197-2.28-3.34 0.734-4.04-1.47-4.04-1.47-0.537-1.43-1.33-1.79-1.33-1.79-1.09-0.754 0.0796-0.754 0.0796-0.754 1.21 0.0815 1.85 1.26 1.85 1.26 1.07 1.87 2.8 1.34 3.5 1.02 0.0993-0.794 0.418-1.34 0.756-1.65-2.66-0.285-5.47-1.34-5.47-6.07 0-1.34 0.477-2.44 1.23-3.3-0.119-0.306-0.537-1.57 0.119-3.26 0 0 1.01-0.326 3.3 1.26 0.979-0.269 1.99-0.406 3-0.407 1.01 0 2.05 0.143 3 0.407 2.29-1.59 3.3-1.26 3.3-1.26 0.656 1.69 0.238 2.95 0.119 3.26 0.776 0.855 1.23 1.96 1.23 3.3 0 4.73-2.8 5.76-5.49 6.07 0.438 0.387 0.815 1.12 0.815 2.28 0 1.65-0.0197 2.97-0.0197 3.38 0 0.326 0.219 0.713 0.815 0.591 4.77-1.63 8.21-6.23 8.21-11.7 0.0197-6.8-5.37-12.3-12-12.3z" clip-rule="evenodd" fill="#000" fill-rule="evenodd"/></svg>
