<svg fill="none" viewBox="0 0 24 24" xmlns="http://www.w3.org/2000/svg"><path d="m12 24c6.63 0 12-5.37 12-12 0-6.63-5.37-12-12-12-6.63 0-12 5.37-12 12 0 6.63 5.37 12 12 12zm-11-12c0-6.08 4.92-11 11-11 6.07 0 11 4.92 11 11 0 4.86-3.15 8.98-7.53 10.4-0.547 0.109-0.747-0.237-0.747-0.528 0-0.121 2e-3 -0.332 0.0046-0.614 0.0054-0.568 0.0134-1.42 0.0134-2.41 0-1.04-0.346-1.69-0.747-2.04 2.46-0.273 5.03-1.2 5.03-5.43 0-1.2-0.419-2.19-1.13-2.95 0.109-0.273 0.492-1.4-0.109-2.91 0 0-0.93-0.291-3.03 1.13-0.875-0.237-1.82-0.364-2.75-0.364-0.93 0.00103-1.86 0.124-2.75 0.364-2.1-1.42-3.03-1.13-3.03-1.13-0.602 1.51-0.219 2.64-0.11 2.91-0.693 0.765-1.13 1.75-1.13 2.95 0 4.23 2.57 5.17 5.01 5.43-0.31 0.273-0.602 0.765-0.693 1.48-0.638 0.292-2.22 0.765-3.21-0.911 0 0-0.583-1.06-1.7-1.13 0 0-1.08 0-0.073 0.674 0 0 0.729 0.328 1.22 1.6 0 0 0.638 1.97 3.7 1.31 0 0.596 0.00771 1.18 0.013 1.58 0.00283 0.212 0.00499 0.375 0.00499 0.463 0 0.291-0.2 0.638-0.747 0.528-4.37-1.46-7.53-5.57-7.53-10.4z" clip-rule="evenodd" fill="#000" fill-rule="evenodd"/></svg>
