<svg fill="none" viewBox="0 0 24 24" xmlns="http://www.w3.org/2000/svg"><path d="m23.6 9.05c0.524 1.22 0.59 2.56 0.182 3.82-0.383 1.18-1.19 2.48-2.37 3.28l-0.0013 9e-4c-0.0084 6e-3 -0.0169 0.0118-0.0254 0.0175l-4.59 3.05-4e-3 0.0027-2.25 1.51-1.37 0.92-0.0016 0.0011c-0.333 0.224-0.725 0.337-1.12 0.337-0.392 0-0.784-0.113-1.12-0.337l-0.0016-0.0011-1.37-0.921-2.25-1.51-0.00407-0.0027-4.55-3.02-0.0168-0.0106c-0.0121-0.0076-0.0241-0.0155-0.0359-0.0237l-0.00476-0.0033c-1.19-0.798-2-2.1-2.38-3.29-0.408-1.26-0.342-2.61 0.184-3.83l0.0209-0.0493 2.99-7.92c0.0074-0.0196 0.0154-0.0389 0.024-0.058 0.155-0.344 0.418-0.614 0.728-0.789l0.00891-0.00503c0.307-0.169 0.654-0.245 0.996-0.229 0.343 0.0164 0.682 0.126 0.973 0.327l0.0107 0.0074c0.294 0.21 0.527 0.512 0.64 0.877l1.75 5.61c0.0325 0.104 0.129 0.176 0.239 0.176h6.35c0.11 0 0.206-0.0712 0.239-0.176l1.75-5.62c0.115-0.359 0.344-0.656 0.633-0.864l0.0152-0.0107c0.29-0.201 0.63-0.31 0.972-0.327 0.343-0.0164 0.69 0.0602 0.996 0.229l0.0066 0.00364c0.312 0.175 0.576 0.446 0.732 0.793 0.0083 0.0184 0.0159 0.0371 0.0231 0.0559l2.98 7.91 0.0237 0.0538zm-0.95 0.325-2.99-7.94c-0.0609-0.136-0.169-0.251-0.308-0.33-0.14-0.0768-0.302-0.114-0.466-0.106-0.164 0.00782-0.321 0.0601-0.45 0.15-0.128 0.0922-0.221 0.217-0.266 0.358l-1.8 5.79c-0.13 0.418-0.517 0.703-0.955 0.703h-6.72c-0.438 0-0.825-0.285-0.955-0.703l-1.8-5.79c-0.0438-0.142-0.137-0.267-0.266-0.359-0.129-0.0897-0.287-0.142-0.45-0.15-0.164-0.00782-0.327 0.0292-0.466 0.106-0.139 0.0785-0.247 0.194-0.308 0.33l-3 7.93-0.0298 0.0702c-0.431 1-0.484 2.1-0.152 3.13 0.333 1.03 1.03 2.13 2 2.77l0.0103 0.0071 0.0275 0.0173 4.56 3.03 3.63 2.44c0.161 0.108 0.357 0.167 0.559 0.167s0.398-0.0586 0.559-0.167l3.63-2.44 4.59-3.05 0.0115-0.0082c0.961-0.645 1.66-1.74 1.99-2.77 0.332-1.03 0.28-2.12-0.15-3.12l-0.0309-0.0702z" clip-rule="evenodd" fill="#000" fill-rule="evenodd"/></svg>
