<svg viewBox="0 0 24 24" xmlns="http://www.w3.org/2000/svg"><path d="m16.3 0c0.214 1.46-0.378 2.89-1.16 3.9-0.835 1.08-2.27 1.92-3.66 1.88-0.254-1.4 0.398-2.83 1.19-3.8 0.869-1.07 2.36-1.88 3.63-1.97z" fill="#000"/><path d="m16.8 6c1.59 0 3.27 0.874 4.47 2.38-3.93 2.17-3.29 7.84 0.68 9.36-0.413 0.996-0.919 1.95-1.51 2.85-0.982 1.51-2.37 3.39-4.08 3.41-0.706 0.0065-1.17-0.207-1.67-0.438-0.579-0.267-1.21-0.557-2.32-0.551-1.1 0.0054-1.74 0.292-2.33 0.556-0.512 0.23-0.984 0.443-1.69 0.436-1.72-0.0151-3.03-1.71-4.01-3.22-2.75-4.22-3.03-9.18-1.34-11.8 1.2-1.87 3.1-2.97 4.89-2.97 0.952 0 1.72 0.276 2.45 0.539 0.664 0.239 1.3 0.467 2.01 0.467 0.662 0 1.21-0.208 1.8-0.435 0.714-0.273 1.5-0.573 2.65-0.573z" fill="#000"/></svg>
