<svg fill="none" viewBox="0 0 24 24" xmlns="http://www.w3.org/2000/svg"><path d="m23.9 5.31c-0.37-2.58-2.76-4.61-5.6-5-0.479-0.0665-2.29-0.309-6.5-0.309h-0.0314c-4.2 0-5.11 0.242-5.59 0.309-2.76 0.383-5.28 2.21-5.89 4.82-0.294 1.28-0.326 2.71-0.271 4.02 0.0779 1.87 0.093 3.74 0.274 5.61 0.125 1.24 0.344 2.47 0.655 3.68 0.581 2.24 2.93 4.1 5.24 4.86 2.47 0.792 5.12 0.923 7.67 0.38 0.28-0.0611 0.556-0.132 0.83-0.213 0.617-0.184 1.34-0.39 1.87-0.753 0.0073-0.0051 0.0133-0.0117 0.0175-0.0192 0.0042-0.0076 0.0066-0.0159 0.0069-0.0245v-1.81c-1e-4 -8e-3 -0.0021-0.0159-0.0059-0.023-0.0038-0.0072-0.0092-0.0134-0.0159-0.0183s-0.0145-0.0084-0.0228-0.0101-0.0169-0.0017-0.0251 1e-4c-1.63 0.365-3.3 0.548-4.97 0.545-2.88 0-3.66-1.28-3.88-1.82-0.178-0.462-0.292-0.944-0.337-1.43-4.5e-4 -0.0082 0.00117-0.0165 0.00471-0.024 0.00353-0.0075 0.00895-0.0141 0.0157-0.0194 0.00681-0.0052 0.0148-0.0088 0.0234-0.0105 0.00856-0.0018 0.0174-0.0017 0.026 4e-4 1.6 0.363 3.24 0.546 4.89 0.545 0.396 0 0.792 0 1.19-0.0098 1.66-0.0436 3.4-0.123 5.04-0.422 0.0407-0.0076 0.0814-0.0141 0.116-0.024 2.57-0.464 5.02-1.92 5.27-5.6 0.0093-0.145 0.0325-1.52 0.0325-1.67 0.0012-0.512 0.176-3.63-0.0255-5.54zm-3.96 9.19h-2.71v-6.22c0-1.31-0.581-1.98-1.76-1.98-1.3 0-1.95 0.79-1.95 2.35v3.4h-2.69v-3.4c0-1.56-0.652-2.35-1.95-2.35-1.18 0-1.76 0.668-1.76 1.98v6.22h-2.7v-6.41c0-1.31 0.356-2.35 1.07-3.12 0.735-0.769 1.7-1.16 2.89-1.16 1.38 0 2.43 0.5 3.13 1.5l0.673 1.06 0.674-1.06c0.698-0.998 1.74-1.5 3.13-1.5 1.2 0 2.16 0.395 2.9 1.16 0.712 0.77 1.07 1.81 1.07 3.12l-0.0023 6.41z" fill="#000"/></svg>
