<svg viewBox="0 0 24 24" xmlns="http://www.w3.org/2000/svg"><path d="m16.9 14h2.61l0.0023-5.99c0-1.23-0.344-2.2-1.03-2.92-0.712-0.719-1.64-1.09-2.8-1.09-1.34 0-2.35 0.467-3.02 1.4l-0.651 0.992-0.65-0.992c-0.674-0.934-1.68-1.4-3.02-1.4-1.16 0-2.09 0.369-2.8 1.09-0.688 0.721-1.03 1.69-1.03 2.92v5.99h2.61v-5.82c0.00112-1.22 0.568-1.85 1.7-1.85 1.26 0 1.89 0.739 1.89 2.2v3.18h2.6v-3.18c0-1.46 0.629-2.2 1.88-2.2 1.14 0 1.7 0.624 1.7 1.85v5.82z" fill="#000"/><path d="m11.8 0h-0.03c-3.48 0-4.58 0.18-5.11 0.27l-0.15 0.02c-3.1 0.43-5.61 2.51-6.24 5.18-0.25 1.09-0.33 2.39-0.27 3.95 0.01 0.235 0.0175 0.468 0.025 0.7s0.015 0.465 0.025 0.7l0.0017 0.0526c0.0395 1.22 0.0801 2.49 0.208 3.75 0.12 1.19 0.33 2.37 0.63 3.53 0.66 2.54 3.22 4.41 5.46 5.15 1.45 0.47 2.95 0.7 4.48 0.7 1.03 0 2.06-0.11 3.07-0.32 0.28-0.06 0.56-0.13 0.83-0.21l0.08-0.02 0.044-0.0134c0.582-0.178 1.3-0.396 1.88-0.787 0.132-0.0922 0.241-0.213 0.32-0.352l0.0099-0.0175c0.0722-0.138 0.11-0.291 0.11-0.447v-0.0229l0.01-1.68c0-0.164-0.0383-0.327-0.112-0.474l-0.0082-0.0164c-0.0725-0.132-0.172-0.247-0.293-0.337l-0.0174-0.013c-0.12-0.09-0.25-0.15-0.4-0.18-0.0914-0.0183-0.186-0.0241-0.28-0.0186-0.0535 0.0032-0.0995-0.042-0.0923-0.0951 5e-3 -0.0374 0.0354-0.0663 0.073-0.0694 0.706-0.0594 1.41-0.144 2.09-0.267 0.0433 0 0.0867-0.015 0.117-0.0256l0.013-0.0044c3.4-0.62 5.4-2.77 5.62-6.05 0.01-0.18 0.03-1.49 0.03-1.6 0-0.09 0-0.26 0.01-0.5 0.04-1.04 0.11-3.21-0.04-4.69-0.4-2.8-2.86-5.04-5.99-5.47-1.38-0.19-3.49-0.32-6.1-0.32zm0 0.99c3.83 0 5.51 0.228 5.95 0.289l0.0057 7.7e-4c2.6 0.36 4.8 2.22 5.14 4.59 0.139 1.3 0.0808 3.2 0.0476 4.3l-0.0076 0.253c0 0.16-0.0076 0.29-0.0135 0.39-0.0036 0.0617-0.0065 0.112-0.0065 0.15 0 0.14-0.02 1.4-0.03 1.53-0.23 3.38-2.47 4.71-4.83 5.14-0.03 0-0.06 0.01-0.08 0.02h-0.02c-1.5 0.27-3.1 0.35-4.62 0.39h-1.09c-1.45 0-2.94-0.173-4.36-0.48-0.0828-0.0179-0.159 0.0493-0.149 0.133 0.05 0.402 0.152 0.829 0.292 1.2 0.2 0.49 0.91 1.67 3.56 1.67h0.04c1.52 0 3.08-0.17 4.56-0.5l0.01 1.72c-0.47 0.32-1.11 0.52-1.66 0.69-0.302 0.0911-0.484 0.137-0.84 0.21-0.94 0.2-1.9 0.3-2.86 0.3-1.41 0-2.82-0.22-4.17-0.65-2.11-0.7-4.27-2.4-4.8-4.45-0.28-1.11-0.49-2.24-0.6-3.37-0.12-1.24-0.16-2.48-0.2-3.72l-4.8e-4 -0.0149c-0.01-0.235-0.0175-0.47-0.025-0.705-0.0075-0.235-0.015-0.47-0.025-0.705-0.05-1.2-0.02-2.5 0.25-3.68 0.54-2.38 2.85-4.06 5.38-4.41 0.0298 0 0.0631-0.0071 0.1-0.015 0.025-0.00533 0.0517-0.011 0.08-0.015l0.0317-0.00509c0.513-0.0823 1.59-0.255 4.91-0.255h0.03z" clip-rule="evenodd" fill="#000" fill-rule="evenodd"/></svg>
