<svg fill="none" viewBox="0 0 24 24" xmlns="http://www.w3.org/2000/svg"><path d="m3 1.5c0-1.2 1.36-1.91 2.37-1.25l16 10.5c0.902 0.593 0.902 1.9 0 2.49l-16 10.5c-1.01 0.666-2.37-0.0471-2.37-1.25v-21zm1.02 0c0-0.399 0.453-0.637 0.791-0.415l6.5 4.28c0.299 0.197 0.3 0.635 0.0025 0.834l-6.51 4.34c-0.332 0.222-0.777-0.0167-0.777-0.416v-8.62zm0 12.4c0-0.399 0.445-0.638 0.777-0.416l6.51 4.34c0.298 0.199 0.297 0.637-0.0025 0.834l-6.5 4.28c-0.338 0.222-0.791-0.0157-0.791-0.415v-8.62zm8.98 2.71c0 0.398 0.442 0.636 0.775 0.418l6.98-4.6c0.3-0.198 0.3-0.632 0-0.83l-6.98-4.6c-0.332-0.219-0.775 0.0196-0.775 0.418v9.19zm-1-0.462c0 0.399-0.445 0.638-0.777 0.416l-6.2-4.13c-0.297-0.198-0.297-0.634 0-0.832l6.2-4.13c0.332-0.222 0.777 0.0167 0.777 0.416v8.26z" clip-rule="evenodd" fill="#000" fill-rule="evenodd"/></svg>
