<svg fill="none" viewBox="0 0 24 24" xmlns="http://www.w3.org/2000/svg"><path d="m23 5.13c-0.828 0.364-1.7 0.606-2.6 0.719 0.944-0.565 1.65-1.46 1.98-2.51-0.885 0.528-1.85 0.9-2.86 1.1-0.618-0.665-1.42-1.13-2.3-1.33-0.883-0.2-1.8-0.127-2.65 0.208s-1.56 0.917-2.07 1.67c-0.509 0.753-0.78 1.64-0.78 2.55-0.0034 0.348 0.0316 0.695 0.104 1.04-1.79-0.0893-3.55-0.559-5.15-1.38-1.6-0.819-3.01-1.97-4.14-3.38-0.582 1-0.762 2.19-0.505 3.31s0.934 2.12 1.89 2.76c-0.714-0.0195-1.41-0.211-2.04-0.559v0.0495c0.00123 1.05 0.361 2.06 1.02 2.88s1.57 1.37 2.59 1.58c-0.386 0.103-0.784 0.153-1.18 0.15-0.286 0.0063-0.573-0.0189-0.854-0.075 0.291 0.901 0.853 1.69 1.61 2.26 0.755 0.567 1.67 0.884 2.61 0.908-1.6 1.26-3.57 1.94-5.59 1.93-0.361 0.0022-0.721-0.0188-1.08-0.063 2.06 1.34 4.47 2.05 6.92 2.04 8.3 0 12.8-6.92 12.8-12.9 0-0.201-0.0067-0.394-0.0164-0.587 0.89-0.641 1.66-1.44 2.26-2.36z" fill="#000"/></svg>
