<svg fill="none" viewBox="0 0 24 24" xmlns="http://www.w3.org/2000/svg"><path d="m16.2 3c0.33 0 0.66 0.04 0.99 0.11 0.88 0.2 1.69 0.66 2.3 1.33 1.01-0.2 1.98-0.57 2.86-1.1-0.33 1.05-1.04 1.95-1.98 2.51 0.9-0.11 1.77-0.36 2.6-0.72-0.6 0.92-1.37 1.72-2.26 2.36 0 0.19 0.02 0.39 0.02 0.59 0 6-4.54 12.9-12.8 12.9h-0.04c-2.44 0-4.83-0.71-6.88-2.04 0.34 0.04 0.68 0.06 1.03 0.06h0.05 0.01c2.02 0 3.98-0.68 5.58-1.93-0.94-0.02-1.85-0.34-2.61-0.91-0.75-0.57-1.32-1.35-1.61-2.26 0.25 0.05 0.51 0.08 0.77 0.08h0.09 0.03c0.39 0 0.77-0.05 1.15-0.15-1.02-0.21-1.94-0.77-2.59-1.58s-1.02-1.83-1.02-2.88v-0.05c0.62 0.35 1.32 0.54 2.04 0.56-0.96-0.64-1.63-1.63-1.89-2.76-0.26-1.13-0.08-2.31 0.5-3.31 1.13 1.41 2.54 2.56 4.14 3.38s3.36 1.29 5.15 1.38c-0.07-0.34-0.11-0.69-0.1-1.04 0-0.91 0.27-1.8 0.78-2.55 0.51-0.75 1.23-1.34 2.07-1.67 0.53-0.21 1.09-0.32 1.66-0.32m0-1.01c-0.7 0-1.38 0.13-2.03 0.39-1.03 0.41-1.91 1.12-2.53 2.04-0.61 0.9-0.94 1.95-0.95 3.04-1.25-0.19-2.45-0.57-3.59-1.16-1.49-0.76-2.77-1.81-3.82-3.11-0.19-0.24-0.48-0.37-0.78-0.37h-0.07c-0.33 0.02-0.62 0.21-0.79 0.49-0.71 1.22-0.93 2.66-0.62 4.04 0.09 0.38 0.21 0.74 0.37 1.09-0.02 0-0.03 0.02-0.05 0.03-0.31 0.18-0.49 0.51-0.49 0.86v0.05c0 1.27 0.44 2.52 1.24 3.51 0.15 0.18 0.31 0.36 0.48 0.52-0.15 0.24-0.18 0.54-0.09 0.82 0.36 1.1 1.03 2.05 1.96 2.75 0.22 0.16 0.44 0.31 0.68 0.44-0.96 0.4-2 0.6-3.05 0.6h-0.07c-0.3 0-0.61-0.02-0.91-0.06h-0.12c-0.42 0-0.79 0.26-0.94 0.66-0.16 0.44 0 0.93 0.4 1.18 2.22 1.44 4.78 2.2 7.42 2.2 5.25 0 8.51-2.48 10.3-4.55 2.26-2.58 3.55-6 3.55-9.37v-0.1c0.79-0.64 1.48-1.39 2.05-2.24 0.12-0.17 0.2-0.37 0.2-0.6 0-0.5-0.37-0.92-0.85-0.99 0.07-0.16 0.13-0.33 0.19-0.5 0.13-0.4 0-0.83-0.33-1.09-0.18-0.14-0.4-0.22-0.62-0.22-0.18 0-0.35 0.05-0.51 0.14-0.64 0.38-1.33 0.67-2.05 0.86-0.68-0.59-1.5-1.01-2.39-1.21-0.4-0.09-0.81-0.14-1.21-0.14z" fill="#000"/></svg>
