<svg fill="none" viewBox="0 0 16 16" xmlns="http://www.w3.org/2000/svg"><path d="m13.2 7h-2.47l-3.7-5.75c-0.0983-0.153-0.268-0.245-0.45-0.245-0.355 0-0.611 0.34-0.514 0.681l1.43 5c0.0456 0.16-0.0743 0.319-0.24 0.319h-4.07l-1.19-1.78c-0.0928-0.139-0.249-0.223-0.416-0.223h-0.0387c-0.341 0-0.582 0.334-0.475 0.658l0.781 2.34-0.781 2.34c-0.108 0.324 0.133 0.658 0.475 0.658h0.0387c0.167 0 0.323-0.0836 0.416-0.223l1.19-1.78h4.07c0.166 0 0.286 0.159 0.24 0.319l-1.43 5c-0.0976 0.341 0.159 0.681 0.514 0.681 0.182 0 0.351-0.0924 0.45-0.245l3.7-5.75h2.47c0.749 0 1.49-0.12 2.2-0.356l0.224-0.0744c0.548-0.182 0.548-0.957 0-1.14l-0.224-0.0744c-0.711-0.236-1.46-0.356-2.2-0.356z" fill="#000"/></svg>
