<svg fill="none" viewBox="0 0 16 16" xmlns="http://www.w3.org/2000/svg"><path d="m9.73 1.73c0.453-0.453 1.08-0.732 1.77-0.732 1.38 0 2.5 1.12 2.5 2.5 0 0.69-0.279 1.31-0.731 1.77l-6.56 6.44-0.00331 0.0033c-0.182 0.182-0.431 0.293-0.707 0.293-0.552 0-1-0.448-1-1 0-0.276 0.112-0.526 0.293-0.707 1.8-1.8 4.36-4.36 6.44-6.44 0.195-0.195 0.195-0.512 0-0.707-0.195-0.195-0.512-0.195-0.707 0l-6.44 6.44c-0.362 0.362-0.586 0.862-0.586 1.41 0 1.1 0.895 2 2 2 0.551 0 1.05-0.224 1.41-0.584l6.56-6.44 0.0033-0.00329c0.633-0.633 1.03-1.51 1.03-2.47 0-1.93-1.57-3.5-3.5-3.5-0.966 0-1.84 0.392-2.47 1.02l-6.56 6.44-0.00331 0.00329c-0.904 0.904-1.46 2.15-1.46 3.54 0 2.76 2.24 5 5 5 1.38 0 2.63-0.56 3.54-1.46l4.32-4.32c0.195-0.195 0.195-0.512 0-0.707-0.195-0.195-0.512-0.195-0.707 0l-4.32 4.32c-0.724 0.724-1.72 1.17-2.83 1.17-2.21 0-4-1.79-4-4 0-1.1 0.447-2.1 1.17-2.83l6.56-6.44 0.00331-0.00329z" fill="#000"/></svg>
