<svg viewBox="0 0 16 16" xmlns="http://www.w3.org/2000/svg"><path d="m9 3.2c0-1.12 0-1.68 0.218-2.11 0.192-0.376 0.498-0.682 0.874-0.874 0.428-0.218 0.988-0.218 2.11-0.218h0.6c1.12 0 1.68 0 2.11 0.218 0.376 0.192 0.682 0.498 0.874 0.874 0.218 0.428 0.218 0.988 0.218 2.11v0.6c0 1.12 0 1.68-0.218 2.11-0.192 0.376-0.498 0.682-0.874 0.874-0.428 0.218-0.988 0.218-2.11 0.218h-0.6c-1.12 0-1.68 0-2.11-0.218-0.376-0.192-0.682-0.498-0.874-0.874-0.218-0.428-0.218-0.988-0.218-2.11v-0.6zm3.2-2.2h0.6c0.577 0 0.949 7.8e-4 1.23 0.0239 0.272 0.0222 0.372 0.0599 0.422 0.0851 0.188 0.0959 0.341 0.249 0.437 0.437 0.0252 0.0494 0.0629 0.15 0.0851 0.422 0.0231 0.283 0.0239 0.656 0.0239 1.23v0.6c0 0.577-8e-4 0.949-0.0239 1.23-0.0222 0.272-0.0599 0.372-0.0851 0.422-0.0959 0.188-0.249 0.341-0.437 0.437-0.0495 0.0252-0.15 0.0629-0.422 0.0851-0.283 0.0232-0.656 0.0239-1.23 0.0239h-0.6c-0.577 0-0.949-7.8e-4 -1.23-0.0239-0.272-0.0222-0.372-0.0599-0.422-0.0851-0.188-0.0959-0.341-0.249-0.437-0.437-0.0252-0.0494-0.0629-0.15-0.0851-0.422-0.0231-0.283-0.0239-0.656-0.0239-1.23v-0.6c0-0.577 8e-4 -0.949 0.0239-1.23 0.0222-0.272 0.0599-0.372 0.0851-0.422 0.0959-0.188 0.249-0.341 0.437-0.437 0.0495-0.0252 0.15-0.0629 0.422-0.0851 0.283-0.0232 0.656-0.0239 1.23-0.0239z" clip-rule="evenodd" fill="#000" fill-rule="evenodd"/><path d="m0.218 4.09c-0.218 0.428-0.218 0.988-0.218 2.11v6.6c0 1.12 0 1.68 0.218 2.11 0.192 0.376 0.498 0.682 0.874 0.874 0.428 0.218 0.988 0.218 2.11 0.218h6.6c1.12 0 1.68 0 2.11-0.218 0.376-0.192 0.682-0.498 0.874-0.874 0.218-0.428 0.218-0.988 0.218-2.11v-0.6c0-1.12 0-1.68-0.218-2.11-0.192-0.376-0.498-0.682-0.874-0.874-0.428-0.218-0.988-0.218-2.11-0.218h-2.8v-2.8c0-1.12 0-1.68-0.218-2.11-0.192-0.376-0.498-0.682-0.874-0.874-0.428-0.218-0.988-0.218-2.11-0.218h-0.6c-1.12 0-1.68 0-2.11 0.218-0.376 0.192-0.682 0.498-0.874 0.874zm5.78 2.11v2.8h-5v-2.8c0-0.577 7.8e-4 -0.949 0.0239-1.23 0.0222-0.272 0.0599-0.372 0.0851-0.422 0.0959-0.188 0.249-0.341 0.437-0.437 0.0494-0.0252 0.15-0.0629 0.422-0.0851 0.283-0.0232 0.656-0.0239 1.23-0.0239h0.6c0.577 0 0.949 7.8e-4 1.23 0.0239 0.272 0.0222 0.372 0.0599 0.422 0.0851 0.188 0.0959 0.341 0.249 0.437 0.437 0.0252 0.0494 0.0629 0.15 0.0851 0.422 0.0232 0.283 0.0239 0.656 0.0239 1.23zm-5 3.8h5v5h-2.8c-0.577 0-0.949-8e-4 -1.23-0.0239-0.272-0.0222-0.372-0.0599-0.422-0.0851-0.188-0.0959-0.341-0.249-0.437-0.437-0.0252-0.0495-0.0629-0.15-0.0851-0.422-0.0232-0.283-0.0239-0.656-0.0239-1.23v-2.8zm6 0h2.8c0.577 0 0.949 8e-4 1.23 0.0239 0.272 0.0222 0.372 0.0599 0.422 0.0851 0.188 0.0959 0.341 0.249 0.437 0.437 0.0252 0.0495 0.0629 0.15 0.0851 0.422 0.0231 0.283 0.0239 0.656 0.0239 1.23v0.6c0 0.577-8e-4 0.949-0.0239 1.23-0.0222 0.272-0.0599 0.372-0.0851 0.422-0.0959 0.188-0.249 0.341-0.437 0.437-0.0495 0.0252-0.15 0.0629-0.422 0.0851-0.283 0.0231-0.656 0.0239-1.23 0.0239h-2.8v-5z" clip-rule="evenodd" fill="#000" fill-rule="evenodd"/></svg>
