<svg viewBox="0 0 16 16" xmlns="http://www.w3.org/2000/svg"><path d="m11.8 6.12c0.244-0.299 0.194-0.734-0.11-0.973-0.304-0.239-0.749-0.19-0.992 0.108l-3.31 4.06-1.77-1.36c-0.299-0.245-0.745-0.205-0.994 0.0886-0.25 0.294-0.209 0.73 0.0904 0.975l2.32 1.81c0.146 0.119 0.334 0.176 0.523 0.157 0.189-0.0187 0.362-0.111 0.48-0.256l3.76-4.62z" fill="#000"/><path d="m6.51 0.714c0.534-0.392 0.801-0.588 1.09-0.664 0.258-0.0668 0.529-0.0668 0.787 0 0.292 0.0757 0.56 0.272 1.09 0.664l0.677 0.497c0.185 0.136 0.278 0.204 0.378 0.257 0.089 0.0474 0.182 0.086 0.279 0.116 0.109 0.0332 0.222 0.0506 0.449 0.0854l0.83 0.127c0.655 0.1 0.982 0.151 1.24 0.304 0.23 0.135 0.422 0.327 0.557 0.557 0.153 0.26 0.203 0.588 0.304 1.24l0.127 0.83c0.0348 0.227 0.0522 0.341 0.0854 0.449 0.0295 0.0964 0.0681 0.19 0.116 0.279 0.0534 0.1 0.121 0.193 0.257 0.378l0.497 0.677c0.392 0.534 0.588 0.801 0.664 1.09 0.0668 0.258 0.0668 0.529 0 0.787-0.0757 0.292-0.272 0.56-0.664 1.09l-0.497 0.677c-0.136 0.185-0.204 0.278-0.257 0.378-0.0474 0.089-0.086 0.182-0.116 0.279-0.0332 0.109-0.0506 0.222-0.0854 0.449l-0.127 0.83c-0.1 0.655-0.151 0.982-0.304 1.24-0.135 0.23-0.327 0.422-0.557 0.557-0.26 0.153-0.588 0.203-1.24 0.304l-0.83 0.127c-0.227 0.0348-0.341 0.0522-0.449 0.0854-0.0965 0.0295-0.19 0.0681-0.279 0.116-0.1 0.0534-0.193 0.121-0.378 0.257l-0.677 0.497c-0.534 0.392-0.801 0.588-1.09 0.664-0.258 0.0668-0.529 0.0668-0.787 0-0.292-0.0757-0.56-0.272-1.09-0.664l-0.677-0.497c-0.185-0.136-0.278-0.204-0.378-0.257-0.089-0.0474-0.182-0.086-0.279-0.116-0.109-0.0332-0.222-0.0506-0.449-0.0854l-0.83-0.127c-0.655-0.1-0.983-0.151-1.24-0.304-0.23-0.135-0.421-0.327-0.557-0.557-0.153-0.26-0.203-0.588-0.304-1.24l-0.127-0.83c-0.0348-0.227-0.0522-0.341-0.0854-0.449-0.0295-0.0965-0.0681-0.19-0.116-0.279-0.0533-0.1-0.121-0.193-0.257-0.378l-0.497-0.677c-0.392-0.534-0.588-0.801-0.664-1.09-0.0668-0.258-0.0668-0.529 0-0.787 0.0757-0.292 0.272-0.56 0.664-1.09l0.497-0.677c0.136-0.185 0.204-0.278 0.257-0.378 0.0474-0.089 0.086-0.182 0.116-0.279 0.0332-0.109 0.0506-0.222 0.0854-0.449l0.127-0.83c0.1-0.655 0.151-0.983 0.304-1.24 0.135-0.23 0.327-0.421 0.557-0.557 0.26-0.153 0.588-0.203 1.24-0.304l0.83-0.127c0.227-0.0348 0.341-0.0522 0.449-0.0854 0.0964-0.0295 0.19-0.0681 0.279-0.116 0.1-0.0533 0.193-0.121 0.378-0.257l0.677-0.497zm2.38 0.806 0.711 0.522c0.151 0.111 0.3 0.221 0.466 0.309 0.146 0.0775 0.299 0.141 0.456 0.189 0.18 0.055 0.363 0.0828 0.548 0.111l0.872 0.134c0.741 0.114 0.833 0.145 0.887 0.177 0.0835 0.0492 0.153 0.119 0.202 0.202 0.032 0.0544 0.0636 0.146 0.177 0.887l0.134 0.872c0.0282 0.185 0.0561 0.368 0.111 0.548 0.0482 0.158 0.112 0.311 0.189 0.456 0.0884 0.166 0.198 0.315 0.309 0.466l0.522 0.711c0.444 0.604 0.486 0.691 0.502 0.753 0.0243 0.0938 0.0243 0.192 0 0.286-0.0158 0.0611-0.0583 0.148-0.502 0.753l-0.522 0.711c-0.111 0.151-0.221 0.3-0.309 0.466-0.0775 0.146-0.141 0.299-0.189 0.456-0.0549 0.18-0.0828 0.363-0.111 0.548l-0.134 0.872c-0.114 0.741-0.145 0.833-0.177 0.887-0.0491 0.0835-0.119 0.153-0.202 0.202-0.0544 0.032-0.146 0.0636-0.887 0.177l-0.872 0.134c-0.185 0.0282-0.368 0.0561-0.548 0.111-0.158 0.0482-0.311 0.112-0.456 0.189-0.166 0.0883-0.315 0.198-0.466 0.309l-0.711 0.522c-0.604 0.444-0.691 0.486-0.753 0.502-0.0938 0.0243-0.192 0.0243-0.286 0-0.0611-0.0158-0.148-0.0583-0.753-0.502l-0.711-0.522c-0.151-0.111-0.3-0.22-0.466-0.309-0.146-0.0775-0.299-0.141-0.456-0.189-0.18-0.0549-0.363-0.0828-0.548-0.111l-0.872-0.134c-0.741-0.114-0.833-0.145-0.887-0.177-0.0835-0.0491-0.153-0.119-0.202-0.202-0.032-0.0544-0.0636-0.146-0.177-0.887l-0.134-0.872c-0.0282-0.185-0.0561-0.368-0.111-0.548-0.0482-0.158-0.112-0.311-0.189-0.456-0.0884-0.166-0.198-0.315-0.309-0.466l-0.522-0.711c-0.444-0.604-0.486-0.691-0.502-0.753-0.0243-0.0938-0.0243-0.192 0-0.286 0.0158-0.0611 0.0583-0.148 0.502-0.753l0.522-0.711c0.111-0.151 0.221-0.3 0.309-0.466 0.0775-0.146 0.141-0.299 0.189-0.456 0.055-0.18 0.0828-0.363 0.111-0.548l0.134-0.872c0.114-0.741 0.145-0.833 0.177-0.887 0.0492-0.0835 0.119-0.153 0.202-0.202 0.0544-0.032 0.146-0.0636 0.887-0.177l0.872-0.134c0.185-0.0282 0.368-0.0561 0.548-0.111 0.158-0.0482 0.311-0.112 0.456-0.189 0.166-0.0884 0.315-0.198 0.466-0.309l0.711-0.522c0.604-0.444 0.691-0.486 0.753-0.502 0.0938-0.0243 0.192-0.0243 0.286 0 0.0611 0.0158 0.148 0.0583 0.753 0.502z" clip-rule="evenodd" fill="#000" fill-rule="evenodd"/></svg>
