<svg viewBox="0 0 16 16" xmlns="http://www.w3.org/2000/svg"><path d="m0 6c0-3.31 2.69-6 6-6 2.62 0 4.84 1.68 5.66 4.01 0.111-0.00927 0.223-0.014 0.337-0.014 2.21 0 4 1.79 4 4 0 1.63-0.97 3.03-2.36 3.65-0.312 0.14-0.636-0.11-0.636-0.452 0-0.222 0.142-0.415 0.34-0.514 0.984-0.492 1.66-1.51 1.66-2.68 0-1.66-1.34-3-3-3-0.203 0-0.4 0.02-0.591 0.058-0.258 0.0515-0.512-0.106-0.581-0.36-0.573-2.13-2.52-3.7-4.83-3.7-2.76 0-5 2.24-5 5 0 1.06 0.328 2.04 0.888 2.85 0.0707 0.102 0.112 0.222 0.112 0.346 0 0.495-0.566 0.732-0.857 0.332-0.719-0.989-1.14-2.21-1.14-3.52z" fill="#000"/><path d="m5 15.5v-6.79l-1.15 1.15c-0.195 0.195-0.512 0.195-0.707 0-0.195-0.195-0.195-0.512 0-0.707l2-2c0.0479-0.0479 0.103-0.0841 0.162-0.109 0.0581-0.0241 0.122-0.0375 0.188-0.0379l3e-3 -1e-5 3e-3 1e-5c0.127 7.6e-4 0.254 0.0496 0.351 0.146l2 2c0.195 0.195 0.195 0.512 0 0.707-0.195 0.195-0.512 0.195-0.707 0l-1.15-1.15v6.79c0 0.276-0.224 0.5-0.5 0.5s-0.5-0.224-0.5-0.5z" fill="#000"/><path d="m10.5 7c0.276 0 0.5 0.224 0.5 0.5v6.79l1.15-1.15c0.195-0.195 0.512-0.195 0.707 0 0.195 0.195 0.195 0.512 0 0.707l-2 2c-0.0969 0.0969-0.224 0.146-0.351 0.146h-3e-3 -3e-3c-0.0667-4e-4 -0.13-0.0139-0.188-0.0379-0.059-0.0244-0.114-0.0606-0.162-0.109l-2-2c-0.195-0.195-0.195-0.512 0-0.707 0.195-0.195 0.512-0.195 0.707 0l1.15 1.15v-6.79c0-0.276 0.224-0.5 0.5-0.5z" fill="#000"/></svg>
