<svg viewBox="0 0 16 16" xmlns="http://www.w3.org/2000/svg"><path d="m6 0c-3.31 0-6 2.69-6 6 0 2.35 1.35 4.39 3.32 5.37 0.321 0.16 0.676-0.0892 0.676-0.448 0-0.206-0.124-0.391-0.307-0.487-1.6-0.834-2.69-2.51-2.69-4.44 0-2.76 2.24-5 5-5 2.31 0 4.26 1.57 4.83 3.7 0.0684 0.254 0.322 0.412 0.581 0.36 0.191-0.038 0.388-0.058 0.591-0.058 1.66 0 3 1.34 3 3 0 1.66-1.34 3-3 3h-0.5c-0.276 0-0.5 0.224-0.5 0.5s0.224 0.5 0.5 0.5h0.5c2.21 0 4-1.79 4-4 0-2.21-1.79-4-4-4-0.113 0-0.226 0.00472-0.337 0.014-0.82-2.34-3.05-4.01-5.66-4.01z" fill="#000"/><path d="m7.5 7c0.276 0 0.5 0.224 0.5 0.5v6.79l1.15-1.15c0.195-0.195 0.512-0.195 0.707 0 0.195 0.195 0.195 0.512 0 0.707l-2 2c-0.0969 0.0969-0.224 0.146-0.351 0.146h-3e-3 -3e-3c-0.0667-4e-4 -0.13-0.0139-0.188-0.0379-0.059-0.0244-0.114-0.0606-0.162-0.109l-2-2c-0.195-0.195-0.195-0.512 0-0.707 0.195-0.195 0.512-0.195 0.707 0l1.15 1.15v-6.79c0-0.276 0.224-0.5 0.5-0.5z" fill="#000"/></svg>
