<svg viewBox="0 0 16 16" xmlns="http://www.w3.org/2000/svg"><path d="m0.146 0.146c0.195-0.195 0.512-0.195 0.707 0l15 15c0.195 0.195 0.195 0.512 0 0.707-0.195 0.195-0.512 0.195-0.707 0l-2.02-2.02c-0.359 0.106-0.739 0.162-1.13 0.162h-6c-3.31 0-6-2.69-6-6 0-1.99 0.966-3.75 2.45-4.84l-2.31-2.31c-0.195-0.195-0.195-0.512 0-0.707zm3.02 3.73c-1.31 0.902-2.17 2.41-2.17 4.12 0 2.76 2.24 5 5 5h6c0.0945 0 0.188-0.0044 0.28-0.0129l-9.11-9.11z" clip-rule="evenodd" fill="#000" fill-rule="evenodd"/><path d="m5.5 2.5c0-0.276 0.224-0.5 0.5-0.5 2.62 0 4.84 1.68 5.66 4.01 0.111-0.00927 0.223-0.014 0.337-0.014 2.21 0 4 1.79 4 4 0 0.396-0.0578 0.78-0.166 1.14-0.0788 0.265-0.357 0.415-0.622 0.337-0.265-0.0787-0.415-0.357-0.337-0.622 0.0807-0.271 0.124-0.559 0.124-0.857 0-1.66-1.34-3-3-3-0.203 0-0.4 0.02-0.591 0.058-0.258 0.0515-0.512-0.106-0.581-0.36-0.573-2.13-2.52-3.7-4.83-3.7-0.276 0-0.5-0.224-0.5-0.5z" fill="#000"/></svg>
