<svg viewBox="0 0 16 16" xmlns="http://www.w3.org/2000/svg"><path d="m0 6c0-3.31 2.69-6 6-6 2.62 0 4.84 1.68 5.66 4.01 0.111-0.00927 0.223-0.014 0.337-0.014 2.21 0 4 1.79 4 4 0 2.21-1.79 4-4 4h-0.5c-0.276 0-0.5-0.224-0.5-0.5s0.224-0.5 0.5-0.5h0.5c1.66 0 3-1.34 3-3 0-1.66-1.34-3-3-3-0.203 0-0.4 0.02-0.591 0.058-0.258 0.0515-0.512-0.106-0.581-0.36-0.573-2.13-2.52-3.7-4.83-3.7-2.76 0-5 2.24-5 5 0 1.93 1.09 3.6 2.69 4.44 0.183 0.0954 0.307 0.28 0.307 0.487 0 0.359-0.355 0.608-0.676 0.448-1.97-0.984-3.32-3.02-3.32-5.37z" fill="#000"/><path d="m8 15.5c0 0.276-0.224 0.5-0.5 0.5s-0.5-0.224-0.5-0.5v-6.79l-1.15 1.15c-0.195 0.195-0.512 0.195-0.707 0-0.195-0.195-0.195-0.512 0-0.707l2-2c0.0479-0.0479 0.103-0.0841 0.162-0.109 0.0581-0.0241 0.122-0.0375 0.188-0.0379l3e-3 -1e-5 3e-3 1e-5c0.127 7.6e-4 0.254 0.0496 0.351 0.146l2 2c0.195 0.195 0.195 0.512 0 0.707-0.195 0.195-0.512 0.195-0.707 0l-1.15-1.15v6.79z" fill="#000"/></svg>
