<svg fill="none" viewBox="0 0 16 16" xmlns="http://www.w3.org/2000/svg"><path d="m3.2 10.9c0.424 0.266 0.585 0.805 0.378 1.26l-1.04 2.29 4.64-2.32c0.146-0.0731 0.308-0.109 0.472-0.105 0.116 0.0028 0.233 0.0042 0.35 0.0042 2.09 0 3.86-0.443 5.07-1.32 1.17-0.841 1.93-2.15 1.93-4.18s-0.762-3.34-1.93-4.18c-1.22-0.877-2.98-1.32-5.07-1.32-2.09 0-3.86 0.443-5.07 1.32-1.17 0.841-1.93 2.15-1.93 4.18 0 2.17 0.871 3.53 2.2 4.37zm-1.51 5.09c-0.19 0.0813-0.41 0.0376-0.554-0.11-0.144-0.148-0.183-0.369-0.0978-0.557l1.63-3.58c-1.64-1.03-2.67-2.72-2.67-5.21 0-4.64 3.58-6.5 8-6.5 4.42 0 8 1.86 8 6.5 0 4.64-3.58 6.5-8 6.5-0.126 0-0.251-0.0015-0.375-0.0045l-5.93 2.96z" clip-rule="evenodd" fill="#000" fill-rule="evenodd"/></svg>
