<svg fill="none" viewBox="0 0 16 16" xmlns="http://www.w3.org/2000/svg"><path d="m8 0c0.552 0 1 0.448 1 1v1.17c1.1 0.389 1.91 1.4 1.99 2.61l2.95 5.48c0.0393 0.0728 0.0596 0.155 0.0596 0.237v5c0 0.23-0.157 0.43-0.381 0.485-0.223 0.0548-0.456-0.0493-0.562-0.253l-4.13-7.88c-0.293 0.0952-0.604 0.148-0.929 0.148-0.325 0-0.637-0.053-0.93-0.148l-4.13 7.88c-0.107 0.204-0.339 0.308-0.562 0.253-0.223-0.055-0.381-0.255-0.381-0.485v-5c0-0.0827 0.0203-0.164 0.0596-0.237l2.95-5.48c-2.3e-4 0.00324 2.2e-4 0.00653 0 0.00977 0.0776-1.15 0.807-2.13 1.82-2.56l0.168-0.0625v-1.17c0-0.552 0.448-1 1-1zm-5 10.6v2.84l3.18-6.08c-0.366-0.279-0.665-0.64-0.871-1.06l-2.31 4.3zm7.69-4.3c-0.206 0.416-0.505 0.777-0.871 1.06l3.19 6.08v-2.84l-2.31-4.3zm-2.69-3.33c-1.1 0-2 0.895-2 2s0.895 2 2 2 2-0.895 2-2-0.895-2-2-2z" clip-rule="evenodd" fill="#000" fill-rule="evenodd"/></svg>
