<svg viewBox="0 0 16 16" xmlns="http://www.w3.org/2000/svg"><path d="m4 2c-1.1 0-2 0.895-2 2v0.5c0 0.276 0.224 0.5 0.5 0.5s0.5-0.224 0.5-0.5v-0.5c0-0.552 0.448-1 1-1h0.5c0.276 0 0.5-0.224 0.5-0.5s-0.224-0.5-0.5-0.5h-0.5z" fill="#000"/><path d="m14 4.5v-0.5c0-1.1-0.895-2-2-2h-0.5c-0.276 0-0.5 0.224-0.5 0.5s0.224 0.5 0.5 0.5h0.5c0.552 0 1 0.448 1 1v0.5c0 0.276 0.224 0.5 0.5 0.5s0.5-0.224 0.5-0.5z" fill="#000"/><path d="m12 14h-0.5c-0.276 0-0.5-0.224-0.5-0.5s0.224-0.5 0.5-0.5h0.5c0.552 0 1-0.448 1-1v-0.5c0-0.276 0.224-0.5 0.5-0.5s0.5 0.224 0.5 0.5v0.5c0 1.1-0.895 2-2 2z" fill="#000"/><path d="m2 12c0 1.1 0.895 2 2 2h0.5c0.276 0 0.5-0.224 0.5-0.5s-0.224-0.5-0.5-0.5h-0.5c-0.552 0-1-0.448-1-1v-0.5c0-0.276-0.224-0.5-0.5-0.5s-0.5 0.224-0.5 0.5v0.5z" fill="#000"/><path d="m7 2.5c0-0.276 0.224-0.5 0.5-0.5h1c0.276 0 0.5 0.224 0.5 0.5s-0.224 0.5-0.5 0.5h-1c-0.276 0-0.5-0.224-0.5-0.5z" fill="#000"/><path d="m3 7.5c0-0.276-0.224-0.5-0.5-0.5s-0.5 0.224-0.5 0.5v1c0 0.276 0.224 0.5 0.5 0.5s0.5-0.224 0.5-0.5v-1z" fill="#000"/><path d="m7 13.5c0-0.276 0.224-0.5 0.5-0.5h1c0.276 0 0.5 0.224 0.5 0.5s-0.224 0.5-0.5 0.5h-1c-0.276 0-0.5-0.224-0.5-0.5z" fill="#000"/><path d="m14 7.5c0-0.276-0.224-0.5-0.5-0.5s-0.5 0.224-0.5 0.5v1c0 0.276 0.224 0.5 0.5 0.5s0.5-0.224 0.5-0.5v-1z" fill="#000"/></svg>
