<svg fill="none" viewBox="0 0 16 16" xmlns="http://www.w3.org/2000/svg"><path d="m12.9 0.514c0.685-0.685 1.79-0.685 2.48 0l0.15 0.15c0.685 0.685 0.685 1.79 0 2.48l-2.32 2.32 0.478 0.479 0.102 0.114c0.48 0.589 0.446 1.46-0.102 2.01l-0.586 0.586c-0.54 0.54-1.39 0.581-1.98 0.126l-5.21 5.21c-0.543 0.543-1.26 0.804-1.96 0.795l-0.661 0.662c-0.697 0.697-1.8 0.74-2.55 0.131l-0.145-0.131c-0.743-0.743-0.743-1.95 0-2.69l0.661-0.663c-0.00863-0.707 0.255-1.42 0.797-1.96l5.21-5.21c-0.454-0.588-0.412-1.44 0.127-1.97l0.586-0.586 0.114-0.103c0.589-0.48 1.46-0.446 2.01 0.103l0.478 0.478 2.32-2.32zm-10.1 10.3c-0.37 0.37-0.536 0.865-0.501 1.35 0.0127 0.173-0.0321 0.35-0.155 0.473l-0.803 0.804c-0.353 0.353-0.353 0.925 0 1.28 0.353 0.353 0.925 0.353 1.28 0l0.802-0.803c0.123-0.123 0.3-0.168 0.474-0.155 0.484 0.0359 0.979-0.129 1.35-0.499l5.2-5.2-2.44-2.44-5.2 5.2z" clip-rule="evenodd" fill="#000" fill-rule="evenodd"/></svg>
