<svg fill="none" viewBox="0 0 16 16" xmlns="http://www.w3.org/2000/svg"><path d="m4.5 0c-1.38 0-2.5 1.12-2.5 2.5v11c0 0.828-0.672 1.5-1.5 1.5-0.276 0-0.5 0.224-0.5 0.5s0.224 0.5 0.5 0.5h11c1.38 0 2.5-1.12 2.5-2.5v-11c0-0.828 0.672-1.5 1.5-1.5 0.276 0 0.5-0.224 0.5-0.5s-0.224-0.5-0.5-0.5h-11zm8 1h1c-0.139 0.185-0.252 0.389-0.336 0.608-0.0848 0.222-0.285 0.392-0.522 0.392h-0.849c-0.345 0-0.576-0.35-0.326-0.588 0.269-0.256 0.633-0.412 1.03-0.412zm-1.5 2.5c0-0.276 0.224-0.5 0.5-0.5h1c0.276 0 0.5 0.224 0.5 0.5s-0.224 0.5-0.5 0.5h-1c-0.276 0-0.5-0.224-0.5-0.5zm0.5 1.5c-0.276 0-0.5 0.224-0.5 0.5v1c0 0.276 0.224 0.5 0.5 0.5h1c0.276 0 0.5-0.224 0.5-0.5v-1c0-0.276-0.224-0.5-0.5-0.5h-1zm-0.5 3.5c0-0.276 0.224-0.5 0.5-0.5h1c0.276 0 0.5 0.224 0.5 0.5v1c0 0.276-0.224 0.5-0.5 0.5h-1c-0.276 0-0.5-0.224-0.5-0.5v-1zm2 3c0-0.276-0.224-0.5-0.5-0.5h-1c-0.276 0-0.5 0.224-0.5 0.5v1c0 0.276 0.224 0.5 0.5 0.5h1c0.276 0 0.5-0.224 0.5-0.5v-1zm-2.05 2.5h1.26c0.345 0 0.576 0.35 0.326 0.588-0.269 0.256-0.633 0.412-1.03 0.412h-1c0.218-0.291 0.375-0.631 0.45-1zm-3.45-13h3c-0.314 0.418-0.5 0.937-0.5 1.5v0.5h-4v-0.5c0-0.828 0.672-1.5 1.5-1.5zm-1.5 3v4h4v-4h-4zm0 5h4v3h-4v-3zm0 4v0.5c0 0.563-0.186 1.08-0.5 1.5h3c0.828 0 1.5-0.672 1.5-1.5v-0.5h-4zm-1.5-12h1c-0.139 0.185-0.252 0.389-0.336 0.608-0.0849 0.222-0.285 0.392-0.523 0.392h-0.849c-0.345 0-0.576-0.35-0.325-0.588 0.269-0.256 0.633-0.412 1.03-0.412zm-1 2c-0.276 0-0.5 0.224-0.5 0.5s0.224 0.5 0.5 0.5h1c0.276 0 0.5-0.224 0.5-0.5s-0.224-0.5-0.5-0.5h-1zm-0.5 2.5c0-0.276 0.224-0.5 0.5-0.5h1c0.276 0 0.5 0.224 0.5 0.5v1c0 0.276-0.224 0.5-0.5 0.5h-1c-0.276 0-0.5-0.224-0.5-0.5v-1zm0.5 2.5c-0.276 0-0.5 0.224-0.5 0.5v1c0 0.276 0.224 0.5 0.5 0.5h1c0.276 0 0.5-0.224 0.5-0.5v-1c0-0.276-0.224-0.5-0.5-0.5h-1zm-0.5 3.5c0-0.276 0.224-0.5 0.5-0.5h1c0.276 0 0.5 0.224 0.5 0.5v1c0 0.276-0.224 0.5-0.5 0.5h-1c-0.276 0-0.5-0.224-0.5-0.5v-1zm0.359 2.5c-0.238 0-0.438 0.17-0.523 0.392-0.0837 0.219-0.197 0.423-0.336 0.608h1c0.4 0 0.764-0.157 1.03-0.412 0.25-0.238 0.0196-0.588-0.325-0.588h-0.849z" clip-rule="evenodd" fill="#000" fill-rule="evenodd"/></svg>
