<svg fill="none" viewBox="0 0 16 16" xmlns="http://www.w3.org/2000/svg"><path d="m16 2.5c0 1.38-1.12 2.5-2.5 2.5-0.51 0-0.984-0.152-1.38-0.414l-7.54 7.54c0.262 0.395 0.414 0.869 0.414 1.38 0 1.38-1.12 2.5-2.5 2.5s-2.5-1.12-2.5-2.5c0-1.38 1.12-2.5 2.5-2.5 0.51 0 0.983 0.152 1.38 0.414l7.54-7.54c-0.262-0.395-0.414-0.869-0.414-1.38 0-1.38 1.12-2.5 2.5-2.5s2.5 1.12 2.5 2.5zm-1 0c0 0.828-0.672 1.5-1.5 1.5s-1.5-0.672-1.5-1.5c0-0.828 0.672-1.5 1.5-1.5s1.5 0.672 1.5 1.5zm-12.5 12.5c0.828 0 1.5-0.672 1.5-1.5 0-0.828-0.672-1.5-1.5-1.5s-1.5 0.672-1.5 1.5c0 0.828 0.672 1.5 1.5 1.5z" clip-rule="evenodd" fill="#000" fill-rule="evenodd"/></svg>
