<svg fill="none" viewBox="0 0 16 16" xmlns="http://www.w3.org/2000/svg"><path d="m14.1 4.94c1.11-0.255 1.94-1.25 1.94-2.44 0-1.38-1.12-2.5-2.5-2.5s-2.5 1.12-2.5 2.5c0 1.23 0.889 2.25 2.06 2.46-0.0127 0.236-0.0314 0.483-0.0577 0.737-0.183 1.77-0.728 3.82-2.11 5.2-1.38 1.38-3.43 1.92-5.2 2.11-0.254 0.0263-0.501 0.045-0.737 0.0577-0.208-1.17-1.23-2.06-2.46-2.06-1.38 0-2.5 1.12-2.5 2.5 0 1.38 1.12 2.5 2.5 2.5 1.19 0 2.18-0.827 2.44-1.94 0.275-0.0135 0.565-0.0346 0.865-0.0656 1.85-0.192 4.18-0.772 5.8-2.39 1.62-1.62 2.2-3.95 2.39-5.8 0.0311-0.3 0.0521-0.59 0.0656-0.865zm0.937-2.44c0 0.828-0.672 1.5-1.5 1.5s-1.5-0.672-1.5-1.5c0-0.828 0.672-1.5 1.5-1.5s1.5 0.672 1.5 1.5zm-12.5 12.5c0.828 0 1.5-0.672 1.5-1.5 0-0.828-0.672-1.5-1.5-1.5s-1.5 0.672-1.5 1.5c0 0.828 0.672 1.5 1.5 1.5z" clip-rule="evenodd" fill="#000" fill-rule="evenodd"/></svg>
