<svg viewBox="0 0 16 16" xmlns="http://www.w3.org/2000/svg"><path d="m3.51 6h0.832c-0.326 1.79-1.32 8.5-2.34 8.5-0.162 0-0.344-0.207-0.344-0.394 0-0.0951 0.118-0.336 0.192-0.485l0.00157-0.0031c0.0743-0.149 0.156-0.312 0.156-0.728 0-0.418-0.264-0.887-0.848-0.887-0.585 0-1.16 0.284-1.16 1.14-0.0135 0.923 0.556 1.86 1.95 1.86 2.88 0 3.83-6.23 4.34-9h1.21c0.234 0 0.436-0.162 0.488-0.389 0.0717-0.314-0.167-0.612-0.488-0.612h-0.977c0.431-2.91 0.774-4.5 1.47-4.5 0.162 0 0.404 0.14 0.404 0.383 0 0.242-0.0739 0.44-0.169 0.562-0.0948 0.122-0.229 0.368-0.229 0.723 0 0.355 0.238 0.829 0.848 0.829 0.61 0 1.14-0.339 1.14-1.14 0-0.8-0.994-1.86-1.94-1.86-2.13 0-2.95 3.11-3.49 5h-1.06c-0.234 0-0.436 0.162-0.488 0.389-0.0716 0.314 0.167 0.612 0.488 0.612z" fill="#000"/><path d="m8.96 7.68c-0.0971 0.258-0.386 0.39-0.645 0.293-0.259-0.0969-0.357-0.424-0.298-0.628 0.0632-0.216 0.402-0.846 0.593-1.12 0.445-0.646 0.929-1.22 1.94-1.22 1.02 0 1.77 0.657 2.02 1.49 0.55-0.839 1.31-1.49 2.5-1.49 0.699 0 0.93 0.51 0.93 0.998 0 0.637-0.326 1-0.866 1-0.584 0-0.893-0.548-0.864-1.08-0.651 0.283-1.07 0.895-1.44 1.64 0.311 1.47 0.674 3.44 1.17 3.44 0.667 0 0.852-1.16 1.02-1.63 0.0884-0.26 0.309-0.447 0.645-0.336 0.335 0.112 0.344 0.383 0.306 0.65-0.0375 0.267-0.306 1.12-0.662 1.56-0.356 0.442-0.844 0.746-1.85 0.746-1.05 0-1.62-0.843-1.88-1.75-0.569 0.976-1.45 1.75-2.64 1.75-0.588 0-0.943-0.473-0.943-0.997 0-0.637 0.316-1 0.866-1 0.587 0 0.894 0.544 0.864 1.08 0.74-0.323 1.18-1.07 1.59-1.96-0.179-0.888-0.293-2.12-0.539-2.79-0.111-0.302-0.5-0.434-0.766-0.254-0.525 0.356-0.818 1.03-1.06 1.6z" fill="#000"/></svg>
