<svg fill="none" viewBox="0 0 16 16" xmlns="http://www.w3.org/2000/svg"><path d="m5.2 4c-0.638-0.433-1.2-1.07-1.2-2 0-0.608 0.192-1.12 0.539-1.47 0.345-0.357 0.808-0.527 1.27-0.527 0.937 7.24e-4 1.87 0.678 2.17 1.88 0.00503 0.0201 0.01 0.0401 0.0149 0.0599 0.00493-0.0198 0.0099-0.0398 0.0149-0.0599 0.301-1.2 1.24-1.88 2.17-1.88 0.466-3.59e-4 0.928 0.17 1.27 0.527 0.347 0.359 0.539 0.867 0.539 1.47 0 0.926-0.558 1.57-1.2 2h1.8c0.84 0 1.26 0 1.58 0.163 0.282 0.144 0.512 0.373 0.656 0.656 0.164 0.321 0.164 0.741 0.164 1.58v0.2c0 0.84 0 1.26-0.164 1.58-0.144 0.282-0.373 0.512-0.656 0.656-0.0567 0.0289-0.116 0.0526-0.181 0.0722v4.69c0 0.84 0 1.26-0.164 1.58-0.144 0.282-0.373 0.512-0.656 0.656-0.321 0.164-0.741 0.164-1.58 0.164h-7.2c-0.84 0-1.26 0-1.58-0.164-0.282-0.144-0.512-0.373-0.656-0.656-0.163-0.321-0.163-0.741-0.163-1.58v-4.69c-0.0646-0.0196-0.124-0.0434-0.181-0.0722-0.282-0.144-0.512-0.373-0.656-0.656-0.163-0.321-0.163-0.741-0.163-1.58v-0.2c0-0.84 0-1.26 0.163-1.58 0.144-0.282 0.373-0.512 0.656-0.656 0.321-0.163 0.741-0.163 1.58-0.163h1.8zm5.55-2.78c0.137 0.142 0.258 0.385 0.258 0.779 0 0.666-0.586 1.17-1.45 1.54-0.336 0.144-0.675 0.249-0.959 0.322 0.069-0.372 0.188-0.93 0.391-1.74 0.199-0.798 0.765-1.12 1.2-1.12 0.222-1.71e-4 0.415 0.0789 0.554 0.223zm-3.74 3.78h-3.6c-0.437 0-0.704 7.8e-4 -0.904 0.0171-0.0932 0.00761-0.15 0.0172-0.184 0.0252-0.0163 0.00383-0.0263 0.00704-0.0317 0.00898-0.0052 0.00185-0.00779 0.00317-0.00779 0.00317-0.0941 0.0479-0.171 0.124-0.218 0.219 0 0-0.00132 0.00258-0.00317 0.00778-0.00194 0.00541-0.00515 0.0154-0.00898 0.0317-0.00806 0.0342-0.0176 0.0906-0.0252 0.184-0.0163 0.2-0.0171 0.467-0.0171 0.904v0.2c0 0.437 7.8e-4 0.704 0.0171 0.904 0.00761 0.0932 0.0172 0.15 0.0252 0.184 0.00383 0.0163 0.00704 0.0263 0.00898 0.0317 0.00185 0.0052 0.00317 0.00779 0.00317 0.00779 0.0479 0.0941 0.124 0.171 0.218 0.218 0 0 0.00259 0.00132 0.00779 0.00317 0.00541 0.00194 0.0154 0.00515 0.0317 0.00898 0.0342 0.00806 0.0906 0.0176 0.184 0.0252 0.2 0.0163 0.467 0.0171 0.904 0.0171h3.6v-3zm2 0v3h3.6c0.436 0 0.704-7.8e-4 0.904-0.0171 0.0931-0.00762 0.15-0.0172 0.184-0.0252 0.0163-0.00383 0.0263-0.00704 0.0317-0.00898 0.0052-0.00185 0.0078-0.00317 0.0078-0.00317 0.0941-0.0479 0.171-0.124 0.218-0.218 0 0 0.0013-0.00259 0.0032-0.00779 0.0019-0.00541 0.0051-0.0154 9e-3 -0.0317 8e-3 -0.0342 0.0176-0.0906 0.0252-0.184 0.0163-0.2 0.0171-0.467 0.0171-0.904v-0.2c0-0.437-8e-4 -0.704-0.0171-0.904-0.0076-0.0932-0.0172-0.15-0.0252-0.184-0.0039-0.0163-0.0071-0.0263-9e-3 -0.0317-0.0019-0.0052-0.0032-0.00778-0.0032-0.00778-0.0479-0.0941-0.124-0.171-0.218-0.219l-0.0041-0.0018-0.0037-0.00137c-0.0054-0.00194-0.0154-0.00515-0.0317-0.00898-0.0342-0.00806-0.0906-0.0176-0.184-0.0252-0.2-0.0163-0.467-0.0171-0.904-0.0171h-3.6zm-2 4h-4v4.6c0 0.436 7.8e-4 0.704 0.0171 0.904 0.00761 0.0931 0.0172 0.15 0.0252 0.184 0.00383 0.0163 0.00704 0.0263 0.00898 0.0317 0.00185 0.0052 0.00317 0.0078 0.00317 0.0078 0.0479 0.0941 0.124 0.171 0.218 0.218 0 0 0.00259 0.0013 0.00779 0.0032 0.00541 0.0019 0.0154 0.0051 0.0317 9e-3 0.0342 8e-3 0.0906 0.0176 0.184 0.0252 0.2 0.0163 0.467 0.0171 0.904 0.0171h2.6v-6zm2 6h2.6c0.436 0 0.704-8e-4 0.904-0.0171 0.0931-0.0076 0.15-0.0172 0.184-0.0252 0.0163-0.0039 0.0263-0.0071 0.0317-9e-3 0.0052-0.0019 0.0078-0.0032 0.0078-0.0032 0.0941-0.0479 0.171-0.124 0.218-0.218 0 0 0.0013-0.0026 0.0032-0.0078 0.0019-0.0054 0.0051-0.0154 9e-3 -0.0317 8e-3 -0.0342 0.0176-0.0906 0.0252-0.184 0.0163-0.2 0.0171-0.467 0.0171-0.904v-4.6h-4v6zm-4-13c0-0.394 0.121-0.637 0.258-0.779 0.139-0.144 0.333-0.223 0.554-0.223 0.438 3.38e-4 1 0.325 1.2 1.12 0.203 0.814 0.322 1.37 0.391 1.74-0.284-0.0736-0.623-0.179-0.959-0.322-0.861-0.368-1.45-0.875-1.45-1.54z" clip-rule="evenodd" fill="#000" fill-rule="evenodd"/></svg>
