<svg fill="none" viewBox="0 0 16 16" xmlns="http://www.w3.org/2000/svg"><path d="m3.48 2h0.0178c0.276 0 0.5 0.224 0.5 0.5s-0.224 0.5-0.5 0.5c-0.473 0-0.802 2.7e-4 -1.06 0.0179-0.253 0.0173-0.401 0.0496-0.514 0.0963-0.368 0.152-0.66 0.444-0.812 0.812-0.0467 0.113-0.079 0.26-0.0963 0.514-0.0176 0.258-0.0179 0.588-0.0179 1.06v2.55c0.635-0.648 1.52-1.05 2.5-1.05 1.54 0 2.85 0.999 3.32 2.39 0.331-0.243 0.739-0.386 1.18-0.386s0.85 0.143 1.18 0.386c0.465-1.39 1.78-2.39 3.32-2.39 0.979 0 1.86 0.402 2.5 1.05v-2.55c0-0.473-3e-4 -0.802-0.0179-1.06-0.0173-0.253-0.0496-0.401-0.0963-0.514-0.152-0.368-0.444-0.66-0.812-0.812-0.113-0.0467-0.26-0.079-0.514-0.0963-0.258-0.0176-0.588-0.0179-1.06-0.0179-0.276 0-0.5-0.224-0.5-0.5s0.224-0.5 0.5-0.5c-2e-4 0 2e-4 0 0 0h0.0178c0.451 0 0.814-1e-5 1.11 0.0202 0.304 0.0208 0.574 0.0646 0.828 0.17 0.613 0.254 1.1 0.74 1.35 1.35 0.106 0.255 0.149 0.524 0.17 0.828 0.0202 0.296 0.0202 0.66 0.0202 1.11v5.02c0 1.93-1.57 3.5-3.5 3.5-1.76 0-3.21-1.29-3.46-2.98l-0.0223-0.182c-0.0822-0.475-0.519-0.838-1.02-0.838s-0.934 0.363-1.02 0.838l-0.0223 0.182c-0.251 1.69-1.71 2.98-3.46 2.98-1.93 0-3.5-1.57-3.5-3.5v-5.02c-3.2e-6 -0.451-5.78e-6 -0.815 0.0202-1.11 0.0208-0.304 0.0645-0.574 0.17-0.828 0.254-0.613 0.74-1.1 1.35-1.35 0.255-0.106 0.524-0.149 0.828-0.17 0.296-0.0202 0.66-0.0202 1.11-0.0202zm-2.48 8.5v-0.0011c6e-4 -1.38 1.12-2.5 2.5-2.5 1.38 0 2.5 1.12 2.5 2.5 0 1.38-1.12 2.5-2.5 2.5s-2.5-1.12-2.5-2.5zm11.5-2.5c1.38 0 2.5 1.12 2.5 2.5 0 1.38-1.12 2.5-2.5 2.5s-2.5-1.12-2.5-2.5c0-1.38 1.12-2.5 2.5-2.5z" clip-rule="evenodd" fill="#000" fill-rule="evenodd"/></svg>
