<svg fill="none" viewBox="0 0 16 16" xmlns="http://www.w3.org/2000/svg"><path d="m8 0c2.12 0 4.16 0.843 5.66 2.34 1.5 1.5 2.34 3.54 2.34 5.66 0 2.12-0.843 4.16-2.34 5.66-1.5 1.5-3.54 2.34-5.66 2.34-2.12 0-4.16-0.843-5.66-2.34-1.5-1.5-2.34-3.54-2.34-5.66 0-2.12 0.843-4.16 2.34-5.66 1.5-1.5 3.54-2.34 5.66-2.34zm1.76 11h-3.53l0.05 0.305c0.119 0.655 0.266 1.24 0.43 1.75l0.127 0.365c0.365 0.988 0.792 1.58 1.16 1.58s0.792-0.59 1.16-1.58l0.126-0.365c0.182-0.574 0.326-1.16 0.43-1.75l0.05-0.305zm-4.54 0h-3.54c0.454 0.955 1.12 1.79 1.94 2.46 0.824 0.662 1.79 1.13 2.82 1.37-0.531-0.868-0.953-2.16-1.2-3.71l-0.017-0.114zm9.11 0h-3.55l-0.016 0.114c-0.245 1.54-0.667 2.84-1.2 3.71 1.03-0.237 1.99-0.705 2.82-1.37 0.824-0.662 1.49-1.5 1.94-2.46v-1e-3zm-9.23-5h-3.8c-0.193 0.649-0.291 1.32-0.29 2 0 0.695 0.101 1.37 0.29 2l3.8-1e-3 -0.038-0.459c-0.0863-1.18-0.0736-2.36 0.038-3.54zm4.8 0h-3.79c-0.138 1.33-0.138 2.67 0 4h3.79c0.138-1.33 0.138-2.67 0-4zm4.81 0h-3.8l0.04 0.459c0.0858 1.18 0.0724 2.36-0.04 3.54h3.8c0.189-0.634 0.29-1.31 0.29-2s-0.101-1.37-0.29-2zm-8.28-4.82-0.071 0.018c-1.02 0.245-1.96 0.714-2.78 1.37-0.811 0.659-1.47 1.49-1.91 2.43h3.55l0.017-0.114c0.245-1.54 0.667-2.84 1.2-3.71l-1e-3 -1e-3zm1.57-0.175c-0.365 0-0.792 0.59-1.16 1.58l-0.126 0.365c-0.182 0.574-0.326 1.16-0.43 1.75l-0.051 0.305h3.53l-0.05-0.305c-0.104-0.593-0.248-1.18-0.43-1.75l-0.126-0.365c-0.341-0.922-0.736-1.5-1.08-1.57l-0.074-7e-3zm1.57 0.176 0.065 0.108c0.5 0.866 0.898 2.12 1.13 3.6l0.016 0.114h3.55c-0.454-0.955-1.12-1.79-1.94-2.46-0.824-0.662-1.79-1.13-2.82-1.37z" fill="#000"/></svg>
