<svg fill="none" viewBox="0 0 16 16" xmlns="http://www.w3.org/2000/svg"><path d="m9.4 1c0.704 0 1.41 0.2 2.01 0.7l2.11 1.8c0.101 0.1 0.101 0.3 0 0.4s-0.101 0.3 0 0.4l0.514 0.45c0.0984 0.0938 0.261 0.0794 0.391-0.05 0.159-0.158 0.201-0.173 0.402 0l1.01 0.911c0.187 0.181 0.197 0.289 0.0966 0.389l-1.61 1.9c-0.11 0.139-0.271 0.198-0.402 0.1l-0.905-0.8c-0.101-0.1-0.0881-0.276 0-0.4s0.108-0.304 0-0.4l-0.526-0.431c-0.157-0.121-0.228-0.148-0.453 0.0312-0.152 0.121-0.254 0.105-0.354 0.0312-0.101-0.0737-0.0866-0.0625-0.197-0.152-0.136-0.11-0.24-0.132-0.382 0.0211l-2.62 3.2c0.302 0.2 0.302 0.6 0.101 0.9l-3.82 4.5c-0.402 0.3-0.805 0.5-1.21 0.5-0.402 0-0.704-0.1-1.01-0.4-0.704-0.6-0.704-1.5-0.201-2.2l3.82-4.5c0.101-0.1 0.302-0.2 0.503-0.2 0.101 0 0.302 0 0.402 0.1l2.21-2.6c0.402-0.4 0.252-0.9-0.15-1.3l-0.232-0.216c-0.503-0.5-1.23-0.684-2.03-0.684h-0.402c-0.101 0-0.155-0.121-0.101-0.2l0.604-0.7c0.604-0.7 1.51-1.1 2.41-1.1z" fill="#000"/></svg>
