<svg fill="none" viewBox="0 0 16 17" xmlns="http://www.w3.org/2000/svg"><path d="m3.5 0c-0.276-2.29e-7 -0.5 0.224-0.5 0.5 0 0.276 0.224 0.5 0.5 0.5h0.551c-0.667 0.654-1.05 1.55-1.05 2.5v0.646c0 1.33 0.749 2.54 1.93 3.13l1.07 0.533v0.831l-0.607 0.202c-1.43 0.476-2.39 1.81-2.39 3.32v0.338c0 0.957 0.392 1.87 1.07 2.52l-0.574 0.0015c-0.276 7e-4 -0.499 0.225-0.499 0.501 7e-4 0.276 0.225 0.5 0.501 0.499l9-0.0227c0.276-7e-4 0.499-0.225 0.499-0.501-7e-4 -0.276-0.225-0.499-0.501-0.499l-0.551 0.0014c0.668-0.654 1.05-1.55 1.05-2.5v-0.338c0-1.51-0.964-2.84-2.39-3.32l-0.607-0.202v-0.831l1.07-0.533c1.19-0.593 1.93-1.8 1.93-3.13v-0.646c0-0.947-0.383-1.85-1.05-2.5h0.55c0.276 0 0.5-0.224 0.5-0.5s-0.224-0.5-0.5-0.5l-9-7.59e-6zm6.83 1-4.67-1e-5 -0.667 0.5c-0.63 0.472-1 1.21-1 2v0.646c0 0.947 0.535 1.81 1.38 2.24l1.34 0.671c0.169 0.0847 0.276 0.258 0.276 0.447v1.5c0 0.215-0.138 0.406-0.342 0.474l-0.949 0.316c-1.02 0.34-1.71 1.3-1.71 2.37v0.338c0 0.787 0.37 1.53 1 2l0.69 0.517 4.64-0.0117 0.674-0.506c0.63-0.472 1-1.21 1-2v-0.338c0-1.08-0.689-2.03-1.71-2.37l-0.949-0.316c-0.204-0.0681-0.342-0.259-0.342-0.474v-1.5c0-0.189 0.107-0.363 0.276-0.447l1.34-0.671c0.847-0.423 1.38-1.29 1.38-2.24v-0.646c0-0.787-0.37-1.53-1-2l-0.667-0.5z" clip-rule="evenodd" fill="#000" fill-rule="evenodd"/></svg>
