<svg fill="none" viewBox="0 0 16 16" xmlns="http://www.w3.org/2000/svg"><path d="m4.33 2c-1.01 0-1.92 0.607-2.31 1.54l-1.83 4.4c-0.127 0.305-0.192 0.631-0.192 0.962v2.6c0 1.38 1.12 2.5 2.5 2.5h11c1.38 0 2.5-1.12 2.5-2.5v-2.6c0-0.33-0.0654-0.657-0.192-0.962l-1.83-4.4c-0.388-0.932-1.3-1.54-2.31-1.54h-7.33zm-1.38 1.92c0.233-0.559 0.779-0.923 1.38-0.923h7.33c0.606 0 1.15 0.364 1.38 0.923l1.7 4.08h-2.13c-0.568 0-1.09 0.321-1.34 0.829l-0.447 0.894c-0.0847 0.169-0.258 0.276-0.447 0.276h-4.76c-0.189 0-0.363-0.107-0.447-0.276l-0.447-0.894c-0.254-0.508-0.773-0.829-1.34-0.829h-2.13l1.7-4.08zm-1.45 5.08c-0.276 0-0.5 0.224-0.5 0.5v2c0 0.828 0.672 1.5 1.5 1.5h11c0.828 0 1.5-0.672 1.5-1.5v-2c0-0.276-0.224-0.5-0.5-0.5h-1.88c-0.189 0-0.362 0.107-0.447 0.276l-0.447 0.894c-0.254 0.508-0.774 0.829-1.34 0.829h-4.76c-0.568 0-1.09-0.321-1.34-0.829l-0.447-0.894c-0.0847-0.169-0.258-0.276-0.447-0.276h-1.88z" clip-rule="evenodd" fill="#000" fill-rule="evenodd"/></svg>
