<svg fill="none" viewBox="0 0 16 16" xmlns="http://www.w3.org/2000/svg"><path d="m12.4 3c2.01 1.9e-4 3.65 1.63 3.65 3.65v2.71c-2e-4 2.01-1.63 3.65-3.65 3.65-1.32 0-2.55-0.718-3.19-1.88-1.07-1.92-2.13-3.84-3.2-5.76-0.467-0.841-1.35-1.36-2.32-1.36-1.46 1.9e-4 -2.65 1.19-2.65 2.65v2.71c1.9e-4 1.46 1.19 2.65 2.65 2.65 0.962 0 1.85-0.522 2.32-1.36l0.321-0.58 0.571 1.03c-0.643 1.16-1.88 1.91-3.21 1.91-2.01-2e-4 -3.65-1.63-3.65-3.65v-2.71c1.91e-4 -2.01 1.63-3.65 3.65-3.65 1.32 0 2.55 0.718 3.19 1.88l3.2 5.76c0.467 0.841 1.35 1.36 2.32 1.36 1.46-2e-4 2.65-1.19 2.65-2.65v-2.71c-2e-4 -1.46-1.19-2.65-2.65-2.65-0.962 0-1.85 0.522-2.32 1.36l-0.319 0.573-0.571-1.03c0.643-1.16 1.88-1.91 3.21-1.91z" fill="#000"/></svg>
