<svg viewBox="0 0 16 16" xmlns="http://www.w3.org/2000/svg"><path d="m8 7c0.414 0 0.75 0.336 0.75 0.75v3.5c0 0.414-0.336 0.75-0.75 0.75s-0.75-0.336-0.75-0.75v-3.5c0-0.414 0.336-0.75 0.75-0.75z" fill="#000"/><path d="m8 6c0.552 0 1-0.448 1-1s-0.448-1-1-1c-0.552 0-1 0.448-1 1s0.448 1 1 1z" fill="#000"/><path d="m8 16c4.42 0 8-3.58 8-8 0-4.42-3.58-8-8-8-4.42 0-8 3.58-8 8 0 4.42 3.58 8 8 8zm0-1c3.87 0 7-3.13 7-7 0-3.87-3.13-7-7-7-3.87 0-7 3.13-7 7 0 3.87 3.13 7 7 7z" clip-rule="evenodd" fill="#000" fill-rule="evenodd"/></svg>
