<svg fill="none" viewBox="0 0 16 16" xmlns="http://www.w3.org/2000/svg"><path d="m10.2 2.11e-4c0.288-0.0042 0.574 0.0543 0.838 0.171l0.134 0.0664c0.228 0.128 0.435 0.316 0.673 0.55l3.15 3.15 0.283 0.284c0.262 0.268 0.463 0.5 0.583 0.771l0.0469 0.115c0.0855 0.231 0.128 0.477 0.124 0.724l-0.0058 0.123c-0.0227 0.296-0.134 0.583-0.292 0.924l-3.74 7.84c-0.0961 0.201-0.313 0.314-0.533 0.277-2.94-0.491-5.14-0.366-6.83-0.0635-0.85 0.152-1.58 0.35-2.23 0.542-0.633 0.188-1.23 0.386-1.74 0.515-0.0054 0.0013-0.0112 8e-4 -0.0166 0.0019-0.0072 0.0015-0.0142 0.0037-0.0215 0.0049-0.0257 0.0043-0.0514 0.0066-0.0771 0.0068-0.00294 1e-4 -0.00585 1e-4 -0.00879 0-0.0276-2e-4 -0.055-0.0021-0.082-0.0068-0.00989-0.0017-0.0195-0.0045-0.0293-0.0068-0.053-0.0126-0.104-0.0333-0.15-0.0625-0.00756-0.0048-0.0151-0.0095-0.0225-0.0147-0.0233-0.0164-0.0459-0.0342-0.0664-0.0547-0.0196-0.0196-0.0369-0.0413-0.0527-0.0635-0.00645-9e-3 -0.0128-0.018-0.0186-0.0273-0.0287-0.0463-0.0492-0.0968-0.0615-0.149-0.00242-0.0104-0.00509-0.0207-0.00684-0.0313-0.00916-0.0543-0.00941-0.11 0-0.166 6.58e-4 -0.0039 0.0012-0.0078 0.00195-0.0117l0.00586-0.0264c0.129-0.514 0.325-1.11 0.514-1.74 0.193-0.647 0.391-1.38 0.543-2.23 0.284-1.59 0.411-3.62 0.0215-6.29l-0.085-0.543c-0.0365-0.22 0.0764-0.437 0.277-0.533l7.47-3.57 0.361-0.172c0.341-0.158 0.627-0.269 0.924-0.292l0.123-0.00586zm-0.0469 1c-0.123 0.0094-0.254 0.0538-0.56 0.194l-0.371 0.175-7.14 3.41c0.44 2.88 0.313 5.07 0.00391 6.8-0.148 0.827-0.337 1.54-0.521 2.17l3.88-3.88c-0.262-0.395-0.415-0.869-0.415-1.38 0-1.38 1.12-2.5 2.5-2.5 1.38 0 2.5 1.12 2.5 2.5-1e-4 1.38-1.12 2.5-2.5 2.5-0.51 0-0.984-0.154-1.38-0.416l-3.88 3.88c0.627-0.183 1.34-0.372 2.17-0.52 1.73-0.309 3.93-0.437 6.8 0.0029l3.41-7.14 0.175-0.372c0.14-0.306 0.185-0.436 0.194-0.559l2e-3 -0.123c-0.0039-0.0818-0.0184-0.163-0.042-0.241l-0.042-0.116c-0.0664-0.15-0.196-0.292-0.658-0.754l-2.9-2.9c-0.346-0.346-0.513-0.506-0.638-0.592l-0.116-0.0654c-0.113-0.05-0.234-0.0792-0.357-0.085l-0.123 0.00196zm-2.62 5.99c-0.829 4e-5 -1.5 0.672-1.5 1.5 4e-5 0.829 0.672 1.5 1.5 1.5 0.829 0 1.5-0.672 1.5-1.5 0-0.829-0.672-1.5-1.5-1.5z" clip-rule="evenodd" fill="#000" fill-rule="evenodd"/></svg>
