<svg viewBox="0 0 16 16" xmlns="http://www.w3.org/2000/svg"><path d="m0.0511 1.11c-0.0511 0.191-0.0511 0.423-0.0511 0.888 0 0.465 0 0.697 0.0511 0.888 0.139 0.518 0.543 0.922 1.06 1.06 0.191 0.0511 0.423 0.0511 0.888 0.0511s0.697 0 0.888-0.0511c0.518-0.139 0.922-0.543 1.06-1.06 0.0511-0.191 0.0511-0.423 0.0511-0.888 0-0.465 0-0.697-0.0511-0.888-0.139-0.518-0.543-0.922-1.06-1.06-0.191-0.0511-0.423-0.0511-0.888-0.0511s-0.697 0-0.888 0.0511c-0.518 0.139-0.922 0.543-1.06 1.06zm1.45 1.88c0.112 0.0051 0.26 0.00535 0.501 0.00535s0.389-2.5e-4 0.501-0.00535c0.107-0.00487 0.132-0.0127 0.128-0.0117 0.173-0.0462 0.307-0.181 0.354-0.354 8.4e-4 -0.00351 0.00741-0.0342 0.0117-0.128 0.00511-0.112 0.00535-0.26 0.00535-0.501 0-0.242-2.4e-4 -0.389-0.00535-0.501-0.00486-0.107-0.0127-0.132-0.0117-0.128-0.0462-0.173-0.181-0.307-0.354-0.354 0.00374 1e-3 -0.0214-0.00682-0.128-0.0117-0.112-0.00511-0.26-0.00535-0.501-0.00535s-0.389 2.41e-4 -0.501 0.00535c-0.107 0.00486-0.132 0.0127-0.128 0.0117-0.173 0.0462-0.307 0.181-0.354 0.354 1e-3 -0.00374-0.00683 0.0214-0.0117 0.128-0.00511 0.112-0.00535 0.26-0.00535 0.501 0 0.242 2.4e-4 0.389 0.00535 0.501 0.00486 0.107 0.0127 0.132 0.0117 0.128 0.0462 0.173 0.181 0.307 0.354 0.354 0.00351 8.4e-4 0.0342 0.00741 0.128 0.0117z" clip-rule="evenodd" fill="#000" fill-rule="evenodd"/><path d="m12.1 1.11c-0.0511 0.191-0.0511 0.423-0.0511 0.888 0 0.465 0 0.697 0.0511 0.888 0.139 0.518 0.543 0.922 1.06 1.06 0.191 0.0511 0.423 0.0511 0.888 0.0511s0.698 0 0.888-0.0511c0.518-0.139 0.922-0.543 1.06-1.06 0.0511-0.191 0.0511-0.423 0.0511-0.888 0-0.465 0-0.697-0.0511-0.888-0.139-0.518-0.543-0.922-1.06-1.06-0.191-0.0511-0.423-0.0511-0.888-0.0511s-0.698 0-0.888 0.0511c-0.518 0.139-0.922 0.543-1.06 1.06zm1.45 1.88c0.112 0.0051 0.26 0.00535 0.501 0.00535s0.389-2.5e-4 0.501-0.00535c0.101-0.00459 0.129-0.0118 0.128-0.0118 0.172-0.0462 0.307-0.181 0.353-0.353 8e-4 -0.00351 0.0074-0.0342 0.0116-0.128 0.0052-0.112 0.0054-0.26 0.0054-0.501 0-0.242-2e-4 -0.389-0.0054-0.501-0.0045-0.1-0.0117-0.128-0.0117-0.128-0.0463-0.173-0.181-0.307-0.354-0.353 0.0037 1e-3 -0.0214-0.00682-0.128-0.0117-0.112-0.00511-0.26-0.00535-0.501-0.00535s-0.389 2.41e-4 -0.501 0.00535c-0.1 0.00457-0.128 0.0118-0.128 0.0118-0.172 0.0462-0.307 0.181-0.353 0.353 0-1.9e-4 -0.0071 0.0276-0.0116 0.128-0.0052 0.112-0.0054 0.26-0.0054 0.501 0 0.242 2e-4 0.389 0.0054 0.501 0.0045 0.1 0.0117 0.129 0.0117 0.128 0.0463 0.173 0.181 0.307 0.354 0.353 0.0035 8.4e-4 0.0342 0.00741 0.128 0.0117z" clip-rule="evenodd" fill="#000" fill-rule="evenodd"/><path d="m6 2c0-0.465 0-0.697 0.0511-0.888 0.139-0.518 0.543-0.922 1.06-1.06 0.191-0.0511 0.423-0.0511 0.888-0.0511s0.697 0 0.888 0.0511c0.518 0.139 0.922 0.543 1.06 1.06 0.0511 0.191 0.0511 0.423 0.0511 0.888 0 0.465 0 0.697-0.0511 0.888-0.139 0.518-0.543 0.922-1.06 1.06-0.191 0.0511-0.423 0.0511-0.888 0.0511s-0.697 0-0.888-0.0511c-0.518-0.139-0.922-0.543-1.06-1.06-0.0511-0.191-0.0511-0.423-0.0511-0.888zm2 1c-0.242 0-0.389-2.5e-4 -0.501-0.00535-0.0938-0.00428-0.125-0.0108-0.128-0.0117-0.173-0.0462-0.307-0.181-0.354-0.354 1e-3 0.00373-0.00683-0.0214-0.0117-0.128-0.00511-0.112-0.00535-0.26-0.00535-0.501 0-0.242 2.4e-4 -0.389 0.00535-0.501 0.00458-0.1 0.0118-0.128 0.0118-0.128 0.0462-0.173 0.181-0.307 0.353-0.353-0.00374 1e-3 0.0214-0.00682 0.128-0.0117 0.112-0.00511 0.26-0.00535 0.501-0.00535s0.389 2.41e-4 0.501 0.00535c0.107 0.00486 0.132 0.0127 0.128 0.0117 0.173 0.0462 0.307 0.181 0.354 0.354 1e-5 -1.1e-4 0.00712 0.0277 0.0117 0.128 0.00511 0.112 0.00535 0.26 0.00535 0.501 0 0.242-2.4e-4 0.389-0.00535 0.501-0.00428 0.0938-0.0108 0.125-0.0117 0.128-0.0462 0.173-0.181 0.307-0.354 0.354 1.2e-4 0-0.0277 0.00711-0.128 0.0117-0.112 0.0051-0.26 0.00535-0.501 0.00535z" clip-rule="evenodd" fill="#000" fill-rule="evenodd"/><path d="m0.0511 7.11c-0.0511 0.191-0.0511 0.423-0.0511 0.888 0 0.465 0 0.697 0.0511 0.888 0.139 0.518 0.543 0.922 1.06 1.06 0.191 0.0511 0.423 0.0511 0.888 0.0511s0.697 0 0.888-0.0511c0.518-0.139 0.922-0.543 1.06-1.06 0.0511-0.191 0.0511-0.423 0.0511-0.888 0-0.465 0-0.697-0.0511-0.888-0.139-0.518-0.543-0.922-1.06-1.06-0.191-0.0511-0.423-0.0511-0.888-0.0511s-0.697 0-0.888 0.0511c-0.518 0.139-0.922 0.543-1.06 1.06zm1.45 1.88c0.112 0.0051 0.26 0.00535 0.501 0.00535s0.389-2.5e-4 0.501-0.00535c0.1-0.00458 0.128-0.0118 0.128-0.0118 0.173-0.0462 0.307-0.181 0.353-0.353 8.4e-4 -0.00351 0.0074-0.0342 0.0117-0.128 0.00511-0.112 0.00535-0.26 0.00535-0.501 0-0.242-2.4e-4 -0.389-0.00535-0.501-0.00458-0.1-0.0118-0.128-0.0118-0.128-0.0462-0.173-0.181-0.307-0.353-0.353 0.00374 1e-3 -0.0214-0.00682-0.128-0.0117-0.112-0.00511-0.26-0.00535-0.501-0.00535s-0.389 2.4e-4 -0.501 0.00535c-0.1 0.00458-0.129 0.0118-0.128 0.0118-0.173 0.0462-0.307 0.181-0.353 0.353 1e-3 -0.00374-0.00683 0.0214-0.0117 0.128-0.00511 0.112-0.00535 0.26-0.00535 0.501 0 0.242 2.4e-4 0.389 0.00535 0.501 0.00486 0.107 0.0127 0.132 0.0117 0.128 0.0462 0.173 0.181 0.307 0.354 0.354 0.00351 8.4e-4 0.0342 0.00741 0.128 0.0117z" clip-rule="evenodd" fill="#000" fill-rule="evenodd"/><path d="m12 8c0-0.465 0-0.697 0.0511-0.888 0.139-0.518 0.543-0.922 1.06-1.06 0.191-0.0511 0.423-0.0511 0.888-0.0511s0.698 0 0.888 0.0511c0.518 0.139 0.922 0.543 1.06 1.06 0.0511 0.191 0.0511 0.423 0.0511 0.888 0 0.465 0 0.697-0.0511 0.888-0.139 0.518-0.543 0.922-1.06 1.06-0.191 0.0511-0.423 0.0511-0.888 0.0511s-0.698 0-0.888-0.0511c-0.518-0.139-0.922-0.543-1.06-1.06-0.0511-0.191-0.0511-0.423-0.0511-0.888zm2 1c-0.242 0-0.389-2.5e-4 -0.501-0.00535-0.0938-0.00428-0.124-0.0108-0.128-0.0117-0.173-0.0462-0.307-0.181-0.354-0.354 0 1.7e-4 -0.0071-0.0276-0.0116-0.128-0.0052-0.112-0.0054-0.26-0.0054-0.501 0-0.242 2e-4 -0.389 0.0054-0.501 0.0045-0.1 0.0117-0.129 0.0117-0.128 0.0463-0.173 0.181-0.307 0.354-0.353-0.0037 1e-3 0.0214-0.00682 0.128-0.0117 0.112-0.00511 0.26-0.00535 0.501-0.00535s0.389 2.4e-4 0.501 0.00535c0.107 0.00486 0.132 0.0127 0.128 0.0117 0.173 0.0462 0.307 0.181 0.354 0.354-1e-4 -3.1e-4 0.0071 0.0274 0.0116 0.128 0.0052 0.112 0.0054 0.26 0.0054 0.501 0 0.242-2e-4 0.389-0.0054 0.501-0.0042 0.0938-0.0108 0.125-0.0116 0.128-0.0463 0.173-0.181 0.307-0.354 0.354 0.0037-1e-3 -0.0214 0.00682-0.128 0.0117-0.112 0.0051-0.26 0.00535-0.501 0.00535z" clip-rule="evenodd" fill="#000" fill-rule="evenodd"/><path d="m6.05 7.11c-0.0511 0.191-0.0511 0.423-0.0511 0.888 0 0.465 0 0.697 0.0511 0.888 0.139 0.518 0.543 0.922 1.06 1.06 0.191 0.0511 0.423 0.0511 0.888 0.0511s0.697 0 0.888-0.0511c0.518-0.139 0.922-0.543 1.06-1.06 0.0511-0.191 0.0511-0.423 0.0511-0.888 0-0.465 0-0.697-0.0511-0.888-0.139-0.518-0.543-0.922-1.06-1.06-0.191-0.0511-0.423-0.0511-0.888-0.0511s-0.697 0-0.888 0.0511c-0.518 0.139-0.922 0.543-1.06 1.06zm1.45 1.88c0.112 0.0051 0.26 0.00535 0.501 0.00535s0.389-2.5e-4 0.501-0.00535c0.107-0.00487 0.132-0.0127 0.128-0.0117 0.173-0.0462 0.307-0.181 0.354-0.354 8.4e-4 -0.00351 0.0074-0.0342 0.0117-0.128 0.00511-0.112 0.00535-0.26 0.00535-0.501 0-0.242-2.4e-4 -0.389-0.00535-0.501-0.00486-0.107-0.0127-0.132-0.0117-0.128-0.0462-0.173-0.181-0.307-0.354-0.354 0.00374 1e-3 -0.0214-0.00682-0.128-0.0117-0.112-0.00511-0.26-0.00535-0.501-0.00535s-0.389 2.4e-4 -0.501 0.00535c-0.107 0.00486-0.132 0.0127-0.128 0.0117-0.173 0.0462-0.307 0.181-0.354 0.354 1e-3 -0.00374-0.00683 0.0214-0.0117 0.128-0.00511 0.112-0.00535 0.26-0.00535 0.501 0 0.242 2.4e-4 0.389 0.00535 0.501 0.00486 0.107 0.0127 0.132 0.0117 0.128 0.0462 0.173 0.181 0.307 0.354 0.354 0.00351 8.4e-4 0.0342 0.00741 0.128 0.0117z" clip-rule="evenodd" fill="#000" fill-rule="evenodd"/><path d="m0 14c0-0.465 0-0.698 0.0511-0.888 0.139-0.518 0.543-0.922 1.06-1.06 0.191-0.0511 0.423-0.0511 0.888-0.0511s0.697 0 0.888 0.0511c0.518 0.139 0.922 0.543 1.06 1.06 0.0511 0.191 0.0511 0.423 0.0511 0.888 0 0.465 0 0.697-0.0511 0.888-0.139 0.518-0.543 0.922-1.06 1.06-0.191 0.0512-0.423 0.0512-0.888 0.0512s-0.697 0-0.888-0.0512c-0.518-0.139-0.922-0.543-1.06-1.06-0.0511-0.191-0.0511-0.423-0.0511-0.888zm2 1c-0.242 0-0.389-3e-4 -0.501-0.0054-0.0938-0.0043-0.125-0.0108-0.128-0.0117-0.173-0.0462-0.307-0.181-0.354-0.354 1e-3 0.0037-0.00683-0.0214-0.0117-0.128-0.00511-0.112-0.00535-0.26-0.00535-0.501 0-0.242 2.4e-4 -0.389 0.00535-0.501 0.00458-0.1 0.0118-0.128 0.0118-0.128 0.0462-0.172 0.181-0.307 0.353-0.353-1.1e-4 0 0.0277-0.0071 0.128-0.0117 0.112-0.0051 0.26-0.0053 0.501-0.0053s0.389 2e-4 0.501 0.0053c0.1 0.0046 0.129 0.0118 0.128 0.0118 0.173 0.0462 0.307 0.181 0.353 0.353-1e-5 -1e-4 0.00711 0.0277 0.0117 0.128 0.00511 0.112 0.00535 0.26 0.00535 0.501 0 0.242-2.4e-4 0.389-0.00535 0.501-0.00428 0.0937-0.0108 0.124-0.0117 0.128-0.0462 0.172-0.181 0.307-0.354 0.354 2.4e-4 0-0.0275 0.0071-0.128 0.0117-0.112 0.0051-0.26 0.0054-0.501 0.0054z" clip-rule="evenodd" fill="#000" fill-rule="evenodd"/><path d="m12.1 13.1c-0.0511 0.191-0.0511 0.423-0.0511 0.888 0 0.465 0 0.697 0.0511 0.888 0.139 0.518 0.543 0.922 1.06 1.06 0.191 0.0512 0.423 0.0512 0.888 0.0512s0.698 0 0.888-0.0512c0.518-0.139 0.922-0.543 1.06-1.06 0.0511-0.191 0.0511-0.423 0.0511-0.888 0-0.465 0-0.698-0.0511-0.888-0.139-0.518-0.543-0.922-1.06-1.06-0.191-0.0511-0.423-0.0511-0.888-0.0511s-0.698 0-0.888 0.0511c-0.518 0.139-0.922 0.543-1.06 1.06zm1.45 1.88c0.112 0.0051 0.26 0.0054 0.501 0.0054s0.389-3e-4 0.501-0.0054c0.1-0.0046 0.128-0.0117 0.128-0.0118 0 0 2e-4 0 0 0 0.172-0.0462 0.307-0.181 0.353-0.353 8e-4 -0.0035 0.0074-0.0343 0.0116-0.128 0.0052-0.112 0.0054-0.26 0.0054-0.501 0-0.242-2e-4 -0.389-0.0054-0.501-0.0048-0.107-0.0126-0.132-0.0116-0.128-0.0463-0.172-0.181-0.307-0.354-0.354 0.0037 1e-3 -0.0214-0.0068-0.128-0.0117-0.112-0.0051-0.26-0.0053-0.501-0.0053s-0.389 2e-4 -0.501 0.0053c-0.107 0.0049-0.132 0.0127-0.128 0.0117-0.173 0.0462-0.307 0.181-0.354 0.354 1e-3 -0.0037-0.0068 0.0214-0.0116 0.128-0.0052 0.112-0.0054 0.26-0.0054 0.501 0 0.242 2e-4 0.389 0.0054 0.501 0.0048 0.107 0.0126 0.132 0.0116 0.128 0.0463 0.172 0.181 0.307 0.354 0.354 0.0035 9e-4 0.0342 0.0074 0.128 0.0117z" clip-rule="evenodd" fill="#000" fill-rule="evenodd"/><path d="m6 14c0-0.465 0-0.698 0.0511-0.888 0.139-0.518 0.543-0.922 1.06-1.06 0.191-0.0511 0.423-0.0511 0.888-0.0511s0.697 0 0.888 0.0511c0.518 0.139 0.922 0.543 1.06 1.06 0.0511 0.191 0.0511 0.423 0.0511 0.888 0 0.465 0 0.697-0.0511 0.888-0.139 0.518-0.543 0.922-1.06 1.06-0.191 0.0512-0.423 0.0512-0.888 0.0512s-0.697 0-0.888-0.0512c-0.518-0.139-0.922-0.543-1.06-1.06-0.0511-0.191-0.0511-0.423-0.0511-0.888zm2 1c-0.242 0-0.389-3e-4 -0.501-0.0054-0.0938-0.0043-0.125-0.0108-0.128-0.0117-0.173-0.0462-0.307-0.181-0.354-0.354 1e-3 0.0037-0.00683-0.0214-0.0117-0.128-0.00511-0.112-0.00535-0.26-0.00535-0.501 0-0.242 2.4e-4 -0.389 0.00535-0.501 0.00486-0.107 0.0127-0.132 0.0117-0.128 0.0462-0.172 0.181-0.307 0.354-0.354-0.00374 1e-3 0.0214-0.0068 0.128-0.0117 0.112-0.0051 0.26-0.0053 0.501-0.0053s0.389 2e-4 0.501 0.0053c0.1 0.0046 0.129 0.0118 0.128 0.0118-1e-5 0 2.2e-4 0 0 0 0.173 0.0462 0.307 0.181 0.353 0.353-1e-3 -0.0037 0.00683 0.0214 0.0117 0.128 0.00511 0.112 0.00535 0.26 0.00535 0.501 0 0.242-2.4e-4 0.389-0.00535 0.501-0.00428 0.0937-0.0108 0.124-0.0117 0.128-0.0462 0.172-0.181 0.307-0.354 0.354 0.00374-1e-3 -0.0214 0.0068-0.128 0.0117-0.112 0.0051-0.26 0.0054-0.501 0.0054z" clip-rule="evenodd" fill="#000" fill-rule="evenodd"/></svg>
