<svg viewBox="0 0 16 16" xmlns="http://www.w3.org/2000/svg"><path d="m0 2.4c0-0.84 0-1.26 0.163-1.58 0.144-0.282 0.373-0.512 0.656-0.656 0.321-0.163 0.741-0.163 1.58-0.163h2.2c0.84 0 1.26 0 1.58 0.163 0.282 0.144 0.512 0.373 0.656 0.656 0.163 0.321 0.163 0.741 0.163 1.58v2.2c0 0.84 0 1.26-0.163 1.58-0.144 0.282-0.373 0.512-0.656 0.656-0.321 0.163-0.741 0.163-1.58 0.163h-2.2c-0.84 0-1.26 0-1.58-0.163-0.282-0.144-0.512-0.373-0.656-0.656-0.163-0.321-0.163-0.741-0.163-1.58v-2.2zm2.4-1.4h2.2c0.437 0 0.704 7.8e-4 0.904 0.0171 0.0932 0.00761 0.15 0.0172 0.184 0.0252 0.0163 0.00383 0.0263 0.00704 0.0317 0.00898 0.0052 0.00185 0.00779 0.00317 0.00779 0.00317 0.0941 0.0479 0.171 0.124 0.218 0.218 0 0 0.00132 0.00259 0.00317 0.00779 0.00194 0.00541 0.00515 0.0154 0.00898 0.0317 0.00806 0.0342 0.0176 0.0906 0.0252 0.184 0.0163 0.2 0.0171 0.467 0.0171 0.904v2.2c0 0.437-7.8e-4 0.704-0.0171 0.904-0.00761 0.0932-0.0172 0.15-0.0252 0.184-0.00383 0.0163-0.00704 0.0263-0.00898 0.0317-0.00122 0.00343-0.00265 0.00671-0.00265 0.00671l-5.2e-4 0.00108c-0.0479 0.0941-0.124 0.171-0.218 0.218l-0.00108 5.2e-4s-0.00328 0.00143-0.00671 0.00265c-0.00541 0.00194-0.0154 0.00515-0.0317 0.00898-0.0342 0.00806-0.0906 0.0176-0.184 0.0252-0.2 0.0163-0.467 0.0171-0.904 0.0171h-2.2c-0.437 0-0.704-7.8e-4 -0.904-0.0171-0.0932-0.00761-0.15-0.0172-0.184-0.0252-0.0163-0.00383-0.0263-0.00704-0.0317-0.00898-0.0052-0.00185-0.00779-0.00317-0.00779-0.00317-0.0941-0.0479-0.171-0.124-0.218-0.218 0 0-0.00132-0.00259-0.00317-0.00779-0.00194-0.00541-0.00515-0.0154-0.00898-0.0317-0.00806-0.0342-0.0176-0.0906-0.0252-0.184-0.0163-0.2-0.0171-0.467-0.0171-0.904v-2.2c0-0.437 7.8e-4 -0.704 0.0171-0.904 0.00761-0.0932 0.0172-0.15 0.0252-0.184 0.00383-0.0163 0.00704-0.0263 0.00898-0.0317 0.00185-0.0052 0.00317-0.00779 0.00317-0.00779 0.0479-0.0941 0.124-0.171 0.218-0.218 0 0 0.00259-0.00132 0.00779-0.00317 0.00541-0.00194 0.0154-0.00515 0.0317-0.00898 0.0342-0.00806 0.0906-0.0176 0.184-0.0252 0.2-0.0163 0.467-0.0171 0.904-0.0171z" clip-rule="evenodd" fill="#000" fill-rule="evenodd"/><path d="m9 2.4c0-0.84 0-1.26 0.163-1.58 0.144-0.282 0.373-0.512 0.656-0.656 0.321-0.163 0.741-0.163 1.58-0.163h2.2c0.84 0 1.26 0 1.58 0.163 0.282 0.144 0.512 0.373 0.656 0.656 0.164 0.321 0.164 0.741 0.164 1.58v2.2c0 0.84 0 1.26-0.164 1.58-0.144 0.282-0.373 0.512-0.656 0.656-0.321 0.163-0.741 0.163-1.58 0.163h-2.2c-0.84 0-1.26 0-1.58-0.163-0.282-0.144-0.512-0.373-0.656-0.656-0.163-0.321-0.163-0.741-0.163-1.58v-2.2zm2.4-1.4h2.2c0.436 0 0.704 7.8e-4 0.904 0.0171 0.0931 0.00761 0.15 0.0172 0.184 0.0252 0.0163 0.00383 0.0263 0.00704 0.0317 0.00898 0.0052 0.00185 0.0078 0.00317 0.0078 0.00317 0.0941 0.0479 0.171 0.124 0.218 0.218 0 0 0.0013 0.00259 0.0032 0.00779 0.0019 0.00541 0.0051 0.0154 9e-3 0.0317 8e-3 0.0342 0.0176 0.0906 0.0252 0.184 0.0163 0.2 0.0171 0.467 0.0171 0.904v2.2c0 0.437-8e-4 0.704-0.0171 0.904-0.0076 0.0932-0.0172 0.15-0.0252 0.184-0.0039 0.0163-0.0071 0.0263-9e-3 0.0317l-0.0022 0.00558-1e-3 0.00221c-0.0479 0.0941-0.124 0.171-0.218 0.218l-0.0011 5.2e-4 -0.0028 0.00119-0.0039 0.00146c-0.0054 0.00194-0.0154 0.00515-0.0317 0.00898-0.0342 0.00806-0.0906 0.0176-0.184 0.0252-0.2 0.0163-0.467 0.0171-0.904 0.0171h-2.2c-0.436 0-0.704-7.8e-4 -0.904-0.0171-0.0931-0.00761-0.15-0.0172-0.184-0.0252-0.0163-0.00383-0.0263-0.00704-0.0317-0.00898-0.0052-0.00185-0.0078-0.00317-0.0078-0.00317-0.0941-0.0479-0.171-0.124-0.218-0.218l-5e-4 -0.00108s-0.0015-0.00328-0.0027-0.00671c-0.0019-0.00541-0.0051-0.0154-9e-3 -0.0317-8e-3 -0.0342-0.0176-0.0906-0.0252-0.184-0.0163-0.2-0.0171-0.467-0.0171-0.904v-2.2c0-0.437 8e-4 -0.704 0.0171-0.904 0.0076-0.0932 0.0172-0.15 0.0252-0.184 0.0039-0.0163 0.0071-0.0263 9e-3 -0.0317 0.0019-0.0052 0.0032-0.00779 0.0032-0.00779 0.0479-0.0941 0.124-0.171 0.218-0.218 0 0 0.0026-0.00132 0.0078-0.00317 0.0054-0.00194 0.0154-0.00515 0.0317-0.00898 0.0342-0.00806 0.0906-0.0176 0.184-0.0252 0.2-0.0163 0.467-0.0171 0.904-0.0171z" clip-rule="evenodd" fill="#000" fill-rule="evenodd"/><path d="m9.16 9.82c-0.163 0.321-0.163 0.741-0.163 1.58v2.2c0 0.84 0 1.26 0.163 1.58 0.144 0.282 0.373 0.512 0.656 0.656 0.321 0.164 0.741 0.164 1.58 0.164h2.2c0.84 0 1.26 0 1.58-0.164 0.282-0.144 0.512-0.373 0.656-0.656 0.164-0.321 0.164-0.741 0.164-1.58v-2.2c0-0.84 0-1.26-0.164-1.58-0.144-0.282-0.373-0.512-0.656-0.656-0.321-0.163-0.741-0.163-1.58-0.163h-2.2c-0.84 0-1.26 0-1.58 0.163-0.282 0.144-0.512 0.373-0.656 0.656zm4.44 0.181h-2.2c-0.436 0-0.704 8e-4 -0.904 0.0171-0.0931 0.0076-0.15 0.0172-0.184 0.0252-0.0163 0.0039-0.0263 0.0071-0.0317 9e-3 -0.0028 1e-3 -6e-3 0.0024-6e-3 0.0024l-0.0018 8e-4c-0.0941 0.0479-0.171 0.124-0.218 0.218l-8e-4 0.0018-0.0024 6e-3c-0.0019 0.0054-0.0051 0.0154-9e-3 0.0317-8e-3 0.0342-0.0176 0.0906-0.0252 0.184-0.0163 0.2-0.0171 0.467-0.0171 0.904v2.2c0 0.436 8e-4 0.704 0.0171 0.904 0.0076 0.0931 0.0172 0.15 0.0252 0.184 0.0039 0.0163 0.0071 0.0263 9e-3 0.0317 0.0019 0.0052 0.0032 0.0078 0.0032 0.0078 0.0479 0.0941 0.124 0.171 0.218 0.218 0 0 0.0026 0.0013 0.0078 0.0032 0.0054 0.0019 0.0154 0.0051 0.0317 9e-3 0.0342 8e-3 0.0906 0.0176 0.184 0.0252 0.2 0.0163 0.467 0.0171 0.904 0.0171h2.2c0.436 0 0.704-8e-4 0.904-0.0171 0.0931-0.0076 0.15-0.0172 0.184-0.0252 0.0163-0.0039 0.0263-0.0071 0.0317-9e-3 2e-3 -7e-4 0.0047-0.0018 0.0047-0.0018l0.0031-0.0014c0.0941-0.0479 0.171-0.124 0.218-0.218 0 0 0.0013-0.0026 0.0032-0.0078 0.0019-0.0054 0.0051-0.0154 9e-3 -0.0317 8e-3 -0.0342 0.0176-0.0906 0.0252-0.184 0.0163-0.2 0.0171-0.467 0.0171-0.904v-2.2c0-0.436-8e-4 -0.704-0.0171-0.904-0.0076-0.0931-0.0172-0.15-0.0252-0.184-0.0039-0.0163-0.0071-0.0263-9e-3 -0.0317-0.0019-0.0052-0.0032-0.0078-0.0032-0.0078-0.0479-0.0941-0.124-0.171-0.218-0.218 0 0-0.0026-0.0013-0.0078-0.0032-0.0054-0.0019-0.0154-0.0051-0.0317-9e-3 -0.0342-8e-3 -0.0906-0.0176-0.184-0.0252-0.2-0.0163-0.467-0.0171-0.904-0.0171z" clip-rule="evenodd" fill="#000" fill-rule="evenodd"/><path d="m0 11.4c0-0.84 0-1.26 0.163-1.58 0.144-0.282 0.373-0.512 0.656-0.656 0.321-0.163 0.741-0.163 1.58-0.163h2.2c0.84 0 1.26 0 1.58 0.163 0.282 0.144 0.512 0.373 0.656 0.656 0.163 0.321 0.163 0.741 0.163 1.58v2.2c0 0.84 0 1.26-0.163 1.58-0.144 0.282-0.373 0.512-0.656 0.656-0.321 0.164-0.741 0.164-1.58 0.164h-2.2c-0.84 0-1.26 0-1.58-0.164-0.282-0.144-0.512-0.373-0.656-0.656-0.163-0.321-0.163-0.741-0.163-1.58v-2.2zm2.4-1.4h2.2c0.437 0 0.704 8e-4 0.904 0.0171 0.0932 0.0076 0.15 0.0172 0.184 0.0252 0.0163 0.0039 0.0263 0.0071 0.0317 9e-3 0.00343 0.0012 0.00671 0.0027 0.00671 0.0027l0.00108 5e-4c0.0941 0.0479 0.171 0.124 0.218 0.218 0 0 0.00132 0.0026 0.00317 0.0078 0.00194 0.0054 0.00515 0.0154 0.00898 0.0317 0.00806 0.0342 0.0176 0.0906 0.0252 0.184 0.0163 0.2 0.0171 0.467 0.0171 0.904v2.2c0 0.436-7.8e-4 0.704-0.0171 0.904-0.00761 0.0931-0.0172 0.15-0.0252 0.184-0.00383 0.0163-0.00704 0.0263-0.00898 0.0317-0.00123 0.0035-0.00267 0.0068-0.00267 0.0068l-5e-4 1e-3c-0.0479 0.0941-0.124 0.171-0.218 0.218l-0.00108 5e-4s-0.00328 0.0015-0.00671 0.0027c-0.00541 0.0019-0.0154 0.0051-0.0317 9e-3 -0.0342 8e-3 -0.0906 0.0176-0.184 0.0252-0.2 0.0163-0.467 0.0171-0.904 0.0171h-2.2c-0.437 0-0.704-8e-4 -0.904-0.0171-0.0932-0.0076-0.15-0.0172-0.184-0.0252-0.0163-0.0039-0.0263-0.0071-0.0317-9e-3 -0.0052-0.0019-0.00779-0.0032-0.00779-0.0032-0.0941-0.0479-0.171-0.124-0.218-0.218 0 0-0.00132-0.0026-0.00317-0.0078-0.00194-0.0054-0.00515-0.0154-0.00898-0.0317-0.00806-0.0342-0.0176-0.0906-0.0252-0.184-0.0163-0.2-0.0171-0.467-0.0171-0.904v-2.2c0-0.436 7.8e-4 -0.704 0.0171-0.904 0.00761-0.0931 0.0172-0.15 0.0252-0.184 0.00383-0.0163 0.00704-0.0263 0.00898-0.0317 0.00185-0.0052 0.00317-0.0078 0.00317-0.0078 0.0479-0.0941 0.124-0.171 0.218-0.218 0 0 0.00259-0.0013 0.00779-0.0032 0.00541-0.0019 0.0154-0.0051 0.0317-9e-3 0.0342-8e-3 0.0906-0.0176 0.184-0.0252 0.2-0.0163 0.467-0.0171 0.904-0.0171z" clip-rule="evenodd" fill="#000" fill-rule="evenodd"/></svg>
