<svg fill="none" viewBox="0 0 16 16" xmlns="http://www.w3.org/2000/svg"><path d="m9 5.96v6.64c0 0.84 0 1.26-0.163 1.58-0.144 0.282-0.373 0.512-0.656 0.656-0.321 0.164-0.741 0.164-1.58 0.164h-0.2c-0.84 0-1.26 0-1.58-0.164-0.116-0.0591-0.223-0.133-0.319-0.218-0.0959 0.0858-0.203 0.159-0.319 0.218-0.321 0.164-0.741 0.164-1.58 0.164h-0.2c-0.84 0-1.26 0-1.58-0.164-0.282-0.144-0.512-0.373-0.656-0.656-0.163-0.321-0.163-0.741-0.163-1.58v-9.2c0-0.84 0-1.26 0.163-1.58 0.144-0.282 0.373-0.512 0.656-0.656 0.321-0.163 0.741-0.163 1.58-0.163h0.2c0.84 0 1.26 0 1.58 0.163 0.116 0.0591 0.223 0.133 0.319 0.218 0.0959-0.0858 0.203-0.159 0.319-0.218 0.321-0.163 0.741-0.163 1.58-0.163h0.2c0.84 0 1.26 0 1.58 0.163 0.25 0.128 0.459 0.323 0.604 0.562 0.268-0.208 0.672-0.317 1.43-0.519l0.193-0.0518c0.811-0.217 1.22-0.326 1.57-0.251 0.31 0.0659 0.591 0.228 0.803 0.464 0.241 0.268 0.35 0.673 0.567 1.48l2.38 8.89c0.217 0.812 0.326 1.22 0.251 1.57-0.0659 0.31-0.228 0.591-0.464 0.803-0.268 0.241-0.673 0.35-1.48 0.567l-0.193 0.0518c-0.812 0.217-1.22 0.326-1.57 0.251-0.31-0.0658-0.591-0.228-0.803-0.464-0.241-0.268-0.35-0.673-0.567-1.48l-1.9-7.08zm1.66-3.84-0.193 0.0518c-0.422 0.113-0.68 0.183-0.869 0.25-0.088 0.0315-0.14 0.0553-0.171 0.0719-0.0147 0.00792-0.0236 0.0136-0.0283 0.0169-0.00454 0.00314-0.0067 0.00508-0.0067 0.00508-0.0785 0.0707-0.133 0.164-0.155 0.268 0 0-6e-4 0.00283-0.00104 0.00834-4.7e-4 0.00573-9.8e-4 0.0162-4.7e-4 0.033 0.00107 0.0352 0.00643 0.0921 0.0232 0.184 0.036 0.197 0.104 0.456 0.217 0.877l2.38 8.89c0.113 0.422 0.183 0.68 0.25 0.868 0.0314 0.0881 0.0552 0.14 0.0719 0.171 0.0079 0.0147 0.0136 0.0236 0.0169 0.0283 0.0031 0.0045 5e-3 0.0067 5e-3 0.0067 0.0707 0.0785 0.164 0.132 0.268 0.154l0.0018 3e-4 0.0065 7e-4c0.0057 5e-4 0.0162 1e-3 0.0329 5e-4 0.0352-0.0011 0.0921-0.0064 0.184-0.0232 0.197-0.0359 0.456-0.104 0.877-0.217l0.193-0.0518c0.422-0.113 0.68-0.183 0.869-0.25 0.088-0.0314 0.14-0.0552 0.171-0.0719 0.0148-0.0079 0.0236-0.0136 0.0283-0.0169 0.0046-0.0031 0.0067-5e-3 0.0067-5e-3 0.0785-0.0707 0.133-0.164 0.154-0.268l4e-4 -0.0024 7e-4 -0.0059c4e-4 -0.0057 1e-3 -0.0162 4e-4 -0.0329-1e-3 -0.0352-0.0064-0.0921-0.0231-0.184-0.036-0.197-0.104-0.456-0.217-0.877l-2.38-8.89c-0.113-0.422-0.183-0.68-0.25-0.869-0.0315-0.088-0.0553-0.14-0.0719-0.171-0.0079-0.0147-0.0136-0.0236-0.0169-0.0283-0.0031-0.00454-0.0051-0.0067-0.0051-0.0067-0.0706-0.0785-0.164-0.133-0.268-0.155 0 0-0.0028-6e-4 -0.0083-0.00105-0.0058-4.6e-4 -0.0163-9.7e-4 -0.033-4.6e-4 -0.0351 0.00107-0.092 0.00642-0.184 0.0232-0.197 0.036-0.456 0.104-0.877 0.217zm-8.06-0.121h-0.2c-0.437 0-0.704 7.8e-4 -0.904 0.0171-0.0932 0.00761-0.15 0.0172-0.184 0.0252-0.0163 0.00383-0.0263 0.00704-0.0317 0.00898-0.0052 0.00185-0.00738 0.00296-0.00779 0.00317-0.0941 0.0479-0.171 0.124-0.218 0.218-2.1e-4 4.1e-4 -0.00132 0.00259-0.00317 0.00779-0.00194 0.00541-0.00515 0.0154-0.00898 0.0317-0.00806 0.0342-0.0176 0.0906-0.0252 0.184-0.0163 0.2-0.0171 0.467-0.0171 0.904v9.2c0 0.436 7.8e-4 0.704 0.0171 0.904 0.00761 0.0931 0.0172 0.15 0.0252 0.184 0.00383 0.0163 0.00704 0.0263 0.00898 0.0317 0.00185 0.0052 0.00296 0.0074 0.00317 0.0078 0.0479 0.0941 0.124 0.171 0.218 0.218 4.1e-4 2e-4 0.00259 0.0013 0.00779 0.0032 0.00541 0.0019 0.0154 0.0051 0.0317 9e-3 0.0342 8e-3 0.0906 0.0176 0.184 0.0252 0.2 0.0163 0.467 0.0171 0.904 0.0171h0.2c0.437 0 0.704-8e-4 0.904-0.0171 0.0932-0.0076 0.15-0.0172 0.184-0.0252 0.0163-0.0039 0.0263-0.0071 0.0317-9e-3 0.0052-0.0019 0.00738-3e-3 0.00779-0.0032 0.0941-0.0479 0.171-0.124 0.218-0.218 2.1e-4 -4e-4 0.00132-0.0026 0.00317-0.0078 0.00194-0.0054 0.00515-0.0154 0.00898-0.0317 0.00806-0.0342 0.0176-0.0906 0.0252-0.184 0.0163-0.2 0.0171-0.467 0.0171-0.904v-9.2c0-0.437-7.8e-4 -0.704-0.0171-0.904-0.00761-0.0932-0.0172-0.15-0.0252-0.184-0.00383-0.0163-0.00704-0.0263-0.00898-0.0317-0.00185-0.0052-0.00296-0.00738-0.00317-0.00779-0.0479-0.0941-0.124-0.171-0.218-0.218-4.1e-4 -2.1e-4 -0.00259-0.00132-0.00779-0.00317-0.00541-0.00194-0.0154-0.00515-0.0317-0.00898-0.0342-0.00806-0.0906-0.0176-0.184-0.0252-0.2-0.0163-0.467-0.0171-0.904-0.0171zm2.4 10.6v-9.2c0-0.437 7.8e-4 -0.704 0.0171-0.904 0.00761-0.0932 0.0172-0.15 0.0252-0.184 0.00383-0.0163 0.00704-0.0263 0.00898-0.0317 0.00185-0.0052 0.00296-0.00738 0.00317-0.00779 0.0479-0.0941 0.124-0.171 0.218-0.218 4.1e-4 -2.1e-4 0.00259-0.00132 0.00779-0.00317 0.00541-0.00194 0.0154-0.00515 0.0317-0.00898 0.0342-0.00806 0.0906-0.0176 0.184-0.0252 0.2-0.0163 0.467-0.0171 0.904-0.0171h0.2c0.437 0 0.704 7.8e-4 0.904 0.0171 0.0932 0.00761 0.15 0.0172 0.184 0.0252 0.0163 0.00383 0.0263 0.00704 0.0317 0.00898 0.0052 0.00185 0.00738 0.00296 0.00779 0.00317 0.0941 0.0479 0.171 0.124 0.218 0.218 2.1e-4 4.1e-4 0.00132 0.00259 0.00317 0.00779 0.00194 0.00541 0.00515 0.0154 0.00898 0.0317 0.00806 0.0342 0.0176 0.0906 0.0252 0.184 0.0163 0.2 0.0171 0.467 0.0171 0.904v9.2c0 0.436-7.8e-4 0.704-0.0171 0.904-0.00761 0.0931-0.0172 0.15-0.0252 0.184-0.00383 0.0163-0.00704 0.0263-0.00898 0.0317-0.00185 0.0052-0.00296 0.0074-0.00317 0.0078-0.0479 0.0941-0.124 0.171-0.218 0.218-4.1e-4 2e-4 -0.00259 0.0013-0.00779 0.0032-0.00541 0.0019-0.0154 0.0051-0.0317 9e-3 -0.0342 8e-3 -0.0906 0.0176-0.184 0.0252-0.2 0.0163-0.467 0.0171-0.904 0.0171h-0.2c-0.437 0-0.704-8e-4 -0.904-0.0171-0.0932-0.0076-0.15-0.0172-0.184-0.0252-0.0163-0.0039-0.0263-0.0071-0.0317-9e-3 -0.0052-0.0019-0.00738-3e-3 -0.00779-0.0032-0.0941-0.0479-0.171-0.124-0.218-0.218l-0.00102-0.0022-0.00215-0.0056c-0.00194-0.0054-0.00515-0.0154-0.00898-0.0317-0.00806-0.0342-0.0176-0.0906-0.0252-0.184-0.0163-0.2-0.0171-0.467-0.0171-0.904z" clip-rule="evenodd" fill="#000" fill-rule="evenodd"/></svg>
