<svg viewBox="0 0 16 16" xmlns="http://www.w3.org/2000/svg"><path d="m8 1c2.21 0 4 1.79 4 4 0 0.729-0.196 1.41-0.536 2h0.536l-1.5 2v2h-5v-2l-1.5-2h0.536c-0.34-0.588-0.536-1.27-0.536-2 0-2.21 1.79-4 4-4z" fill="#000" opacity=".3"/><path d="m8 0c2.76 0 5 2.24 5 5 0 0.918-0.248 1.78-0.68 2.52l-0.818 1.41c-0.189 0.33-0.297 0.53-0.333 0.623-0.112 0.289-0.0888 0.204-0.138 0.51-0.0314 0.196-0.0312 0.444-0.0312 0.938v2c0 1.66-1.34 3-3 3-1.66-2e-4 -3-1.34-3-3v-2c0-0.371-4.4e-4 -0.603-0.0137-0.778l-0.0176-0.16c-0.0244-0.153-0.0316-0.208-0.0459-0.261l-0.0918-0.249c-0.036-0.0927-0.144-0.293-0.333-0.623l-0.818-1.41c-0.432-0.739-0.68-1.6-0.68-2.52 0-2.76 2.24-5 5-5zm-2 13c0 1.1 0.896 2 2 2 1.1 0 2-0.895 2-2v-1h-4v1zm2-12c-2.21 1.7e-4 -4 1.79-4 4 0 0.736 0.198 1.42 0.543 2.01 0.358 0.613 0.631 1.08 0.823 1.42 0.173 0.303 0.327 0.579 0.396 0.758 0.0198 0.0511 0.0509 0.128 0.0635 0.161 0.0179 0.0467 0.0418 0.111 0.0625 0.188 0.0207 0.0764 0.032 0.144 0.04 0.193 0.00564 0.0345 0.0187 0.117 0.0274 0.171 0.0472 0.295 0.0439 0.643 0.0439 1.1v0.0029h4v-0.0029c0-0.453-0.00325-0.802 0.0439-1.1 0.0087-0.0542 0.0217-0.136 0.0274-0.171 8e-3 -0.0494 0.0193-0.117 0.04-0.193s0.0445-0.141 0.0625-0.188c0.0125-0.0326 0.0436-0.11 0.0635-0.161 0.0693-0.179 0.224-0.455 0.396-0.758 0.192-0.336 0.465-0.804 0.823-1.42 0.345-0.59 0.543-1.28 0.543-2.01 0-2.21-1.79-4-4-4z" clip-rule="evenodd" fill="#000" fill-rule="evenodd"/><path d="m2.81 10.2c0.201-0.22 0.529-0.204 0.73 0.0156 0.201 0.22 0.216 0.579 0.0156 0.799l-0.747 0.82c-0.209 0.23-0.548 0.242-0.757 0.0127-0.209-0.23-0.196-0.6 0.0127-0.829l0.746-0.818z" fill="#000"/><path d="m12.5 10.2c0.201-0.219 0.529-0.235 0.73-0.0156l0.747 0.818c0.205 0.225 0.205 0.591 0 0.816-0.206 0.225-0.54 0.225-0.745 0l-0.747-0.82c-0.2-0.22-0.185-0.579 0.0156-0.799z" fill="#000"/><path d="m1.36 7.13c0.269-0.0996 0.557 0.0779 0.646 0.373 0.0892 0.295-0.0462 0.622-0.315 0.719l-1.01 0.365c-0.272 0.0976-0.565-0.0646-0.655-0.362-0.0904-0.298 0.0559-0.62 0.327-0.721l1.01-0.374z" fill="#000"/><path d="m14.6 7.13 1.01 0.374c0.272 0.1 0.418 0.424 0.327 0.722-0.0908 0.298-0.384 0.458-0.656 0.36l-1.01-0.364c-0.269-0.0971-0.404-0.424-0.314-0.719 0.0894-0.295 0.377-0.472 0.646-0.373z" fill="#000"/><path d="m0.027 2.39c0.0906-0.298 0.384-0.46 0.656-0.362l1.01 0.365c0.269 0.0973 0.403 0.424 0.314 0.719-0.0889 0.295-0.377 0.474-0.646 0.374l-1.01-0.375c-0.271-0.101-0.418-0.423-0.327-0.721z" fill="#000"/><path d="m15.3 2.03c0.272-0.0978 0.565 0.0645 0.655 0.362 0.0904 0.298-0.0558 0.62-0.327 0.721l-1.01 0.374c-0.269 0.0997-0.557-0.0777-0.646-0.373-0.0889-0.295 0.0458-0.62 0.314-0.718 0.339-0.123 0.719-0.261 1.01-0.366z" fill="#000"/></svg>
