<svg viewBox="0 0 16 16" xmlns="http://www.w3.org/2000/svg"><path d="m9.27 5.73c0.191 0.134 0.373 0.286 0.544 0.457 1.59 1.59 1.59 4.16 0 5.75l-2.87 2.87c-1.54 1.54-4 1.59-5.59 0.145l-0.151-0.145c-1.54-1.54-1.59-4-0.145-5.59l0.145-0.151 1.82-1.82c0.021 0.412 0.0847 0.823 0.189 1.22l-1.3 1.3c-1.2 1.2-1.2 3.14 0 4.33 1.2 1.2 3.14 1.2 4.33 0l2.87-2.87c1.2-1.2 1.2-3.14 0-4.33-0.172-0.172-0.361-0.32-0.56-0.442l0.723-0.722z" fill="#000"/><path d="m9.06 1.19c1.54-1.54 4-1.58 5.59-0.145l0.151 0.145c1.54 1.54 1.59 4 0.144 5.59l-0.144 0.151-1.82 1.82c-0.021-0.412-0.0847-0.823-0.19-1.22l1.3-1.3c1.2-1.2 1.2-3.14 0-4.33-1.2-1.2-3.14-1.2-4.33 0l-2.87 2.87c-1.2 1.2-1.2 3.14 0 4.33 0.172 0.172 0.361 0.32 0.56 0.442l-0.723 0.722c-0.191-0.134-0.373-0.287-0.544-0.457-1.59-1.59-1.59-4.16 0-5.75l2.87-2.87z" fill="#000"/></svg>
