<svg viewBox="0 0 16 16" xmlns="http://www.w3.org/2000/svg"><path d="m10.5 7c0 1.38-1.12 2.5-2.5 2.5s-2.5-1.12-2.5-2.5 1.12-2.5 2.5-2.5 2.5 1.12 2.5 2.5zm-1 0c0 0.828-0.672 1.5-1.5 1.5s-1.5-0.672-1.5-1.5 0.672-1.5 1.5-1.5 1.5 0.672 1.5 1.5z" clip-rule="evenodd" fill="#000" fill-rule="evenodd"/><path d="m14 7c0 4.5-5 9-6 9s-6-4.5-6-9c0-3.31 2.69-6 6-6 3.31 0 6 2.69 6 6zm-1 0c0 1.91-1.08 3.94-2.4 5.56-0.647 0.794-1.32 1.45-1.87 1.89-0.277 0.224-0.509 0.382-0.68 0.479-0.0188 0.0107-0.036 0.0201-0.0515 0.0284-0.0155-0.0083-0.0327-0.0177-0.0515-0.0284-0.171-0.0969-0.402-0.256-0.68-0.479-0.552-0.446-1.22-1.1-1.87-1.89-1.32-1.62-2.4-3.65-2.4-5.56 0-2.76 2.24-5 5-5 2.76 0 5 2.24 5 5z" clip-rule="evenodd" fill="#000" fill-rule="evenodd"/></svg>
