<svg fill="none" viewBox="0 0 16 16" xmlns="http://www.w3.org/2000/svg"><path d="m2.28 1.25e-6 2.49 5.96e-7c0.098-9.12e-6 0.193-1.8e-5 0.275 0.00516 0.0888 0.00566 0.194 0.0189 0.305 0.0613 0.265 0.102 0.474 0.311 0.575 0.575 0.0423 0.11 0.0556 0.216 0.0613 0.305 0.00518 0.0813 0.00517 0.177 0.00516 0.275v7.78c0 1.1 0.895 2 2 2s2-0.895 2-2v-7.78c-1e-5 -0.098-2e-5 -0.193 0.0052-0.275 0.0056-0.0888 0.0189-0.194 0.0612-0.305 0.102-0.265 0.311-0.474 0.575-0.575 0.11-0.0423 0.216-0.0556 0.305-0.0613 0.0813-0.00518 0.177-0.00517 0.275-0.00516l2.5-5.96e-7c0.126-1.5e-5 0.249-2.97e-5 0.353 0.00847 0.114 0.00934 0.249 0.0314 0.385 0.101 0.188 0.0959 0.341 0.249 0.437 0.437 0.0692 0.136 0.0912 0.271 0.1 0.385 0.0085 0.104 0.0085 0.227 0.0085 0.353v7.72c0 3.87-3.13 7-7 7-3.87 0-7-3.13-7-7v-7.72c-1.3e-5 -0.126-2.6e-5 -0.249 0.00848-0.353 0.00933-0.114 0.0314-0.249 0.101-0.385 0.0959-0.188 0.249-0.341 0.437-0.437 0.136-0.0691 0.271-0.0912 0.385-0.101 0.104-0.0085 0.227-0.00849 0.353-0.00847zm-0.278 1.01-5.7e-4 0.00659c-0.00477 0.0583-0.00516 0.139-0.00516 0.288v2.7h3v-2.77c0-0.115-2.3e-4 -0.178-0.00314-0.224l-4.2e-4 -0.00624-0.00625-4.3e-4c-0.0456-0.0029-0.108-0.00314-0.224-0.00314h-2.47c-0.148 0-0.229 3.9e-4 -0.288 0.00515l-0.00659 5.8e-4zm-0.00573 7.99v-4h3v4c0 1.66 1.34 3 3 3 1.66 0 3-1.34 3-3v-4h3v4c0 3.31-2.69 6-6 6s-6-2.69-6-6zm12-5v-2.7c0-0.148-4e-4 -0.229-0.0051-0.288l-6e-4 -0.00659-0.0066-5.8e-4c-0.0583-0.00476-0.139-0.00515-0.288-0.00515h-2.47c-0.115 0-0.178 2.4e-4 -0.224 0.00314l-0.0062 4.3e-4 -5e-4 0.00624c-0.0029 0.0456-0.0031 0.108-0.0031 0.224v2.77h3z" clip-rule="evenodd" fill="#000" fill-rule="evenodd"/></svg>
