<svg viewBox="0 0 16 16" xmlns="http://www.w3.org/2000/svg"><path d="m8 1c-1.08 0-2.11 0.215-3.05 0.604-0.00258 0.00102-0.00524 0.00187-0.00781 0.00293l-0.00391 0.00196c-1.94 0.807-3.5 2.36-4.31 4.29-0.00508 0.0102-0.0122 0.0196-0.0166 0.0303-0.00572 0.0138-0.00732 0.029-0.0117 0.043-0.381 0.933-0.594 1.95-0.594 3.02 0 1.06 0.211 2.08 0.589 3.01 0.00534 0.019 0.00886 0.0389 0.0166 0.0576 0.00827 0.02 0.0208 0.0374 0.0312 0.0557 0.0882 0.208 0.181 0.413 0.286 0.611l0.0566 0.085c0.148 0.179 0.406 0.237 0.619 0.124 0.244-0.129 0.337-0.432 0.208-0.676l-0.0635-0.131 1.36-0.564c0.255-0.106 0.377-0.398 0.271-0.653-0.106-0.255-0.398-0.376-0.653-0.27l-1.37 0.566c-0.232-0.696-0.357-1.44-0.357-2.21 0-0.774 0.127-1.52 0.359-2.21l1.37 0.566c0.255 0.105 0.548-0.0155 0.653-0.271 0.106-0.255-0.0164-0.548-0.271-0.653l-1.36-0.565c0.677-1.35 1.78-2.45 3.12-3.12l0.565 1.37c0.106 0.255 0.398 0.376 0.653 0.271 0.255-0.106 0.376-0.398 0.271-0.653l-0.565-1.37c0.695-0.231 1.44-0.357 2.21-0.357 0.773 0 1.52 0.126 2.21 0.357l-0.568 1.37c-0.106 0.255 0.0154 0.548 0.271 0.653 0.255 0.106 0.548-0.0156 0.653-0.271l0.568-1.37c1.35 0.677 2.45 1.78 3.13 3.13l-1.37 0.569c-0.255 0.106-0.376 0.398-0.27 0.653 0.106 0.255 0.398 0.376 0.653 0.271l1.37-0.569c0.231 0.694 0.356 1.44 0.356 2.21 0 0.254-0.0147 0.505-0.041 0.752l0.931 0.573c0.072-0.431 0.11-0.874 0.11-1.33 0-4.42-3.58-8-8-8z" fill="#000"/><path d="m8.95 7.23c-0.977-0.515-2.19-0.141-2.7 0.836-0.515 0.977-0.141 2.19 0.836 2.7 0.697 0.367 1.51 0.281 2.11-0.152l5.25 2.34c0.24 0.107 0.523 9e-3 0.646-0.224 0.123-0.233 0.0443-0.521-0.18-0.659l-4.9-3.02c0.0206-0.738-0.368-1.46-1.06-1.83z" fill="#000"/></svg>
