<svg viewBox="0 0 16 16" xmlns="http://www.w3.org/2000/svg"><path d="m11.1 1.6c0.0026 0.00102 0.0052 0.00187 0.0078 0.00293l0.0039 0.00196c1.94 0.807 3.5 2.36 4.31 4.29 0.0051 0.0102 0.0122 0.0196 0.0166 0.0303 0.0057 0.0138 0.0073 0.029 0.0117 0.043 0.381 0.933 0.594 1.95 0.594 3.02 0 1.06-0.211 2.08-0.589 3.01-0.0053 0.019-0.0088 0.0389-0.0166 0.0576-0.0082 0.02-0.0208 0.0374-0.0312 0.0557-0.0883 0.208-0.181 0.413-0.286 0.611l-0.0566 0.085c-0.148 0.179-0.406 0.237-0.619 0.124-0.244-0.129-0.337-0.432-0.208-0.676l0.0634-0.131-1.36-0.564c-0.255-0.106-0.377-0.398-0.272-0.653s0.398-0.376 0.653-0.27l1.37 0.566c0.232-0.696 0.357-1.44 0.357-2.21 0-0.774-0.128-1.52-0.359-2.21l-1.37 0.566c-0.255 0.105-0.548-0.0155-0.653-0.271-0.106-0.255 0.0164-0.548 0.272-0.653l1.36-0.565c-0.677-1.35-1.78-2.45-3.12-3.12l-0.411 0.993-0.12-2.27c-6e-4 -0.0111-0.0032-0.0221-0.0039-0.0332 0.154 0.0529 0.306 0.109 0.456 0.171z" fill="#000"/><path d="m5.4 1.47-0.122 2.27-0.411-0.993c-1.35 0.677-2.45 1.78-3.13 3.13l1.37 0.569c0.255 0.106 0.376 0.398 0.271 0.653-0.106 0.255-0.398 0.376-0.653 0.271l-1.37-0.569c-0.231 0.694-0.356 1.44-0.356 2.21 0 0.772 0.124 1.51 0.354 2.21l1.38-0.568c0.255-0.106 0.548 0.0154 0.653 0.27 0.105 0.255-0.0155 0.548-0.271 0.653l-1.37 0.567 0.0674 0.137 0.0381 0.0938c0.0652 0.223-0.0325 0.469-0.246 0.582-0.244 0.129-0.547 0.0351-0.676-0.209-0.589-1.12-0.923-2.39-0.923-3.73 0-3.51 2.26-6.49 5.4-7.57l-0.00293 0.0332z" fill="#000"/><path d="m8 1c0.282 0 0.52 0.193 0.587 0.456l0.0176 0.117 0.301 5.64c0.649 0.33 1.09 1 1.09 1.78 0 1.1-0.895 2-2 2s-2-0.895-2-2c0-0.778 0.445-1.45 1.09-1.78l0.302-5.64 0.0176-0.117c0.0668-0.263 0.305-0.456 0.587-0.456z" fill="#000"/></svg>
