<svg fill="none" viewBox="0 0 16 16" xmlns="http://www.w3.org/2000/svg"><path d="m6.59 1.55c0.182-0.366 0.569-0.584 0.976-0.551 3.6 0.291 6.43 3.31 6.43 6.99 0 3.87-3.14 7.01-7.01 7.01-2.09 0-3.96-0.914-5.24-2.36-0.271-0.306-0.329-0.746-0.147-1.11 0.182-0.366 0.569-0.584 0.976-0.551 0.135 0.0109 0.271 0.0165 0.41 0.0165 2.76 0 5-2.24 5-5.01 0-1.28-0.475-2.44-1.26-3.32-0.271-0.306-0.329-0.746-0.147-1.11zm-4.09 10.4c0.154 0.174 0.317 0.338 0.49 0.493 0.201 0.18 0.415 0.347 0.64 0.5 0.96 0.65 2.12 1.03 3.36 1.03 3.32 0 6-2.69 6-6.01 0-2.63-1.69-4.87-4.04-5.68-0.467-0.161-0.96-0.267-1.47-0.308 0.31 0.349 0.579 0.735 0.802 1.15 0.453 0.845 0.71 1.81 0.71 2.84 0 3.01-2.21 5.5-5.09 5.94-0.297 0.0452-0.601 0.0687-0.911 0.0687-0.165 0-0.328-0.0067-0.49-0.0198z" clip-rule="evenodd" fill="#000" fill-rule="evenodd"/></svg>
