<svg fill="none" viewBox="0 0 16 16" xmlns="http://www.w3.org/2000/svg"><path d="m14 1.1c0.471-0.0471 0.886 0.274 0.976 0.719 0.0119 0.0585 0.0186 0.119 0.0186 0.182v10c-2e-4 0.684-0.766 1.57-2.25 1.91-1.64 0.376-2.75-0.488-2.75-1.71 3e-4 -1.22 1.39-2.08 2.75-2.19 0.481-0.0413 0.904 0.0357 1.25 0.197v-5.11l-8 0.8v7.1c-1.6e-4 0.798-0.766 1.57-2.25 1.91-1.64 0.376-2.75-0.488-2.75-1.71 2.9e-4 -1.22 1.39-2.08 2.75-2.19 0.481-0.0413 0.904 0.0357 1.25 0.197v-8.3c2.2e-4 -0.514 0.389-0.943 0.9-0.994l8.1-0.811zm-8 1.8v2l8-0.8v-2l-8 0.8z" clip-rule="evenodd" fill="#000" fill-rule="evenodd"/></svg>
