<svg fill="none" viewBox="0 0 16 16" xmlns="http://www.w3.org/2000/svg"><path d="m14 1.1c0.47-0.047 0.886 0.274 0.976 0.719 0.0119 0.0584 0.0186 0.12 0.0186 0.182v10c0 0.828-0.766 1.57-2.25 1.91-1.64 0.376-2.75-0.487-2.75-1.71 2e-4 -1.22 1.39-2.08 2.75-2.19 0.481-0.0412 0.904 0.0358 1.25 0.197v-6.11l-8 0.8v8.1c0 0.812-0.766 1.57-2.25 1.91-1.64 0.376-2.75-0.487-2.75-1.71 2.4e-4 -1.22 1.39-2.08 2.75-2.19 0.481-0.0412 0.904 0.0358 1.25 0.197v-8.3c1.9e-4 -0.514 0.389-0.944 0.9-0.995l8.1-0.811z" fill="#000"/></svg>
