<svg fill="none" viewBox="0 0 16 16" xmlns="http://www.w3.org/2000/svg"><path d="m4 1.91v8.3c-0.346-0.162-0.769-0.239-1.25-0.198-1.36 0.116-2.75 0.975-2.75 2.19 0 1.22 1.11 2.08 2.75 1.71 1.48-0.34 2.12-1.04 2.23-1.91h0.0172v-7.1l8-0.8v5.11c-0.346-0.162-0.769-0.239-1.25-0.197-1.36 0.116-2.75 0.975-2.75 2.19 0 1.22 1.11 2.08 2.75 1.71 1.48-0.34 2.12-1.04 2.23-1.91h0.0173v-10c0-0.0623-0.0063-0.123-0.0182-0.182-0.0903-0.445-0.506-0.766-0.977-0.719l-8.1 0.81c-0.511 0.0511-0.9 0.481-0.9 0.995zm9-0.805-8.01 0.801c0.00643 0.032 0.0098 0.0651 0.0098 0.099v1.9l8-0.8v-2z" clip-rule="evenodd" fill="#000" fill-rule="evenodd"/></svg>
