<svg viewBox="0 0 16 16" xmlns="http://www.w3.org/2000/svg"><path d="m10.2 5c0.69 0 1.25-0.56 1.25-1.25s-0.56-1.25-1.25-1.25c-0.69 0-1.25 0.56-1.25 1.25s0.56 1.25 1.25 1.25z" fill="#000"/><path d="m14 6.75c0 0.69-0.56 1.25-1.25 1.25s-1.25-0.56-1.25-1.25 0.56-1.25 1.25-1.25 1.25 0.56 1.25 1.25z" fill="#000"/><path d="m6.25 5.5c0.69 0 1.25-0.56 1.25-1.25s-0.56-1.25-1.25-1.25-1.25 0.56-1.25 1.25 0.56 1.25 1.25 1.25z" fill="#000"/><path d="m5.5 11.2c0 0.69-0.56 1.25-1.25 1.25s-1.25-0.56-1.25-1.25 0.56-1.25 1.25-1.25 1.25 0.56 1.25 1.25z" fill="#000"/><path d="m3.75 8.5c0.69 0 1.25-0.56 1.25-1.25s-0.56-1.25-1.25-1.25-1.25 0.56-1.25 1.25 0.56 1.25 1.25 1.25z" fill="#000"/><path d="m8.5 0c-4.69 0-8.5 3.81-8.5 8.5v1.32c0 3.41 2.77 6.18 6.18 6.18h0.643c1.8 0 3.34-1.27 3.7-3.03l0.0311-0.156c0.22-1.1 1.13-1.93 2.25-2.04 1.82-0.182 3.2-1.71 3.2-3.54v-0.965c0-3.46-2.81-6.27-6.27-6.27h-1.23zm-7.5 8.5c0-4.14 3.36-7.5 7.5-7.5h1.23c2.91 0 5.27 2.36 5.27 5.27v0.965c0 1.31-0.995 2.41-2.3 2.54-1.55 0.155-2.83 1.31-3.13 2.84l-0.0311 0.156c-0.259 1.29-1.4 2.23-2.72 2.23h-0.643c-2.86 0-5.18-2.32-5.18-5.18v-1.32z" clip-rule="evenodd" fill="#000" fill-rule="evenodd"/></svg>
