<svg fill="none" viewBox="0 0 16 16" xmlns="http://www.w3.org/2000/svg"><path d="m1.15 1.23c-0.0914 0.221-0.128 0.477-0.142 0.847-0.588 0.203-1.01 0.761-1.01 1.42v1.62c-6.16e-6 0.402-1.12e-5 0.735 0.0221 1.01 0.023 0.281 0.0722 0.539 0.196 0.782 0.192 0.376 0.498 0.682 0.874 0.874 0.243 0.124 0.501 0.173 0.782 0.196 0.271 0.0221 0.603 0.0221 1.01 0.0221h3.22c0.428 0 0.719 3.9e-4 0.944 0.0188 0.219 0.0179 0.331 0.0504 0.41 0.0902 0.188 0.0959 0.341 0.249 0.437 0.437 0.0398 0.0782 0.0723 0.19 0.0902 0.41 0.0184 0.225 0.0188 0.516 0.0188 0.944v0.1c-0.552 0-1 0.448-1 1v4c0 0.552 0.448 1 1 1h1c0.552 0 1-0.448 1-1v-4c0-0.552-0.448-1-1-1v-0.121c1e-5 -0.402 1e-5 -0.735-0.0221-1.01-0.023-0.281-0.0722-0.539-0.196-0.782-0.192-0.376-0.498-0.682-0.874-0.874-0.243-0.124-0.501-0.173-0.782-0.196-0.271-0.0221-0.603-0.0221-1.01-0.0221h-3.22c-0.428 0-0.719-3.9e-4 -0.944-0.0188-0.219-0.0179-0.331-0.0504-0.41-0.0902-0.188-0.0959-0.341-0.249-0.437-0.437-0.0398-0.0782-0.0723-0.19-0.0902-0.41-0.0184-0.225-0.0188-0.516-0.0188-0.944v-1.6c0-0.0104 3.2e-4 -0.0208 9.5e-4 -0.031 0.0042 0.631 0.027 0.996 0.151 1.3 0.203 0.49 0.592 0.879 1.08 1.08 0.368 0.152 0.833 0.152 1.77 0.152h9c0.932 0 1.4 0 1.77-0.152 0.49-0.203 0.879-0.592 1.08-1.08 0.152-0.368 0.152-0.833 0.152-1.77s0-1.4-0.152-1.77c-0.203-0.49-0.592-0.879-1.08-1.08-0.368-0.152-0.834-0.152-1.77-0.152h-9c-0.932 0-1.4 0-1.77 0.152-0.49 0.203-0.879 0.592-1.08 1.08zm11.8-0.235h-9c-0.48 0-0.789 5.4e-4 -1.03 0.0167-0.228 0.0156-0.315 0.0422-0.356 0.0594-0.245 0.101-0.44 0.296-0.541 0.541-0.0172 0.0416-0.0438 0.128-0.0594 0.356-0.0162 0.237-0.0167 0.547-0.0167 1.03s5.4e-4 0.789 0.0167 1.03c0.0156 0.228 0.0422 0.315 0.0594 0.356 0.101 0.245 0.296 0.44 0.541 0.541 0.0416 0.0172 0.128 0.0438 0.356 0.0594 0.237 0.0162 0.547 0.0167 1.03 0.0167h9c0.48 0 0.789-5.4e-4 1.03-0.0167 0.228-0.0156 0.315-0.0422 0.356-0.0594 0.245-0.101 0.44-0.296 0.541-0.541 0.0172-0.0416 0.0438-0.128 0.0594-0.356 0.0162-0.237 0.0167-0.547 0.0167-1.03s-5e-4 -0.789-0.0167-1.03c-0.0156-0.228-0.0422-0.315-0.0594-0.356-0.102-0.245-0.296-0.44-0.541-0.541-0.0416-0.0172-0.128-0.0438-0.356-0.0594-0.237-0.0162-0.547-0.0167-1.03-0.0167zm-5 10h1v4h-1v-4z" clip-rule="evenodd" fill="#000" fill-rule="evenodd"/></svg>
