<svg fill="none" viewBox="0 0 16 16" xmlns="http://www.w3.org/2000/svg"><path d="m2 10.5c0.622-0.622 1.35-0.971 2.03-1.21 0.384-0.134 0.977-0.136 0.977-0.136-0.0119-0.148 0.0175-0.3 0.0916-0.439 0.0339-0.0633 0.0696-0.13 0.107-0.201l0.026-0.049c0.635-1.2 1.77-3.33 3.46-5.02 1.57-1.57 2.88-2.28 4.05-2.92 0.185-0.101 0.367-0.2 0.545-0.3 0.712-0.399 1.59-0.256 2.17 0.321 0.577 0.577 0.72 1.46 0.321 2.17-0.126 0.225-0.245 0.449-0.366 0.677-0.578 1.09-1.2 2.26-2.86 3.92-1.71 1.71-3.52 2.68-4.72 3.3l-0.115 0.0599c-0.159 0.0826-0.306 0.159-0.439 0.23-0.117 0.0627-0.244 0.0933-0.37 0.0941 0.0586 0.129 0.0898 0.27 0.0898 0.414v0.586c0 2.21-1.79 4-4 4h-3s0.371-0.371 0.661-1c0.186-0.404 0.339-0.914 0.339-1.5 0-1.09 0.159-2.16 1-3zm3.78 0.144c-0.387-0.473-0.982-0.556-1.47-0.364-0.577 0.226-1.22 0.546-1.6 0.926-0.553 0.553-0.707 1.28-0.707 2.29 0 0.565-0.109 1.07-0.261 1.5h1.26c1.66 0 3-1.34 3-3 0-0.426 0.0721-1-0.219-1.36zm9.12-8.42c0.169-0.301 0.121-0.697-0.156-0.974-0.277-0.277-0.673-0.325-0.974-0.156-0.184 0.103-0.369 0.204-0.553 0.304l-0.0029 0.00159c-1.15 0.626-2.36 1.29-3.82 2.75-0.771 0.771-1.45 1.66-2.02 2.52l1.96 1.96c0.831-0.554 1.71-1.23 2.51-2.02 1.55-1.55 2.12-2.62 2.67-3.67l0.0077-0.0147c0.119-0.225 0.243-0.458 0.375-0.694zm-6.43 6.95-1.64-1.64c-0.334 0.552-0.612 1.06-0.828 1.46 0 0.552 0.448 1 1 1 0.408-0.212 0.916-0.486 1.47-0.82z" clip-rule="evenodd" fill="#000" fill-rule="evenodd"/></svg>
