<svg fill="none" viewBox="0 0 16 16" xmlns="http://www.w3.org/2000/svg"><path d="m4.71 2-0.605 1.05-1.23-0.709c-0.918-0.53-2.09-0.215-2.62 0.702s-0.215 2.09 0.702 2.62l1.23 0.709-0.424 0.734c-0.84 1.46-1.26 2.18-1.3 2.9-0.0332 0.633 0.135 1.26 0.48 1.79 0.392 0.604 1.12 1.02 2.57 1.86l1.1 0.638c1.46 0.84 2.18 1.26 2.9 1.3 0.633 0.0332 1.26-0.135 1.79-0.48 0.604-0.392 1.02-1.12 1.86-2.57l1.36-2.35c0.179-0.31 0.269-0.466 0.373-0.605 0.286-0.384 0.659-0.694 1.09-0.905 0.157-0.0765 0.326-0.136 0.664-0.255 0.566-0.199 0.85-0.299 0.993-0.423 0.407-0.351 0.464-0.961 0.128-1.38-0.118-0.148-0.378-0.298-0.898-0.598l-7.99-4.61c-0.485-0.28-0.728-0.42-0.967-0.433-0.211-0.0111-0.42 0.0449-0.597 0.16-0.201 0.131-0.341 0.373-0.621 0.858zm9.68 4.89-7.99-4.61c-0.257-0.148-0.398-0.229-0.503-0.279l-0.012-0.0056-0.00759 0.0108c-0.0665 0.0962-0.148 0.236-0.297 0.493l-2.02 3.5 2.42 1.4c0.268-0.253 0.63-0.408 1.03-0.408 0.828 0 1.5 0.672 1.5 1.5s-0.672 1.5-1.5 1.5-1.5-0.672-1.5-1.5c0-0.0686 0.0046-0.136 0.0135-0.202l-2.46-1.42-0.424 0.734c-0.428 0.742-0.719 1.25-0.912 1.65-0.188 0.398-0.244 0.624-0.253 0.8-0.0221 0.422 0.0899 0.84 0.32 1.19 0.0956 0.147 0.257 0.316 0.619 0.566 0.371 0.257 0.875 0.549 1.62 0.977l1.1 0.638c0.742 0.428 1.25 0.719 1.65 0.912 0.398 0.188 0.624 0.244 0.8 0.253 0.422 0.0221 0.84-0.0899 1.19-0.32 0.147-0.0956 0.316-0.257 0.566-0.619 0.257-0.371 0.549-0.875 0.977-1.62l1.38-2.39c0.155-0.269 0.272-0.472 0.412-0.659 0.381-0.512 0.879-0.926 1.45-1.21 0.21-0.103 0.431-0.18 0.724-0.283l0.0468-0.0165c0.293-0.103 0.478-0.169 0.608-0.222 0.0149-0.00611 0.0281-0.0116 0.0396-0.0166-0.0104-7e-3 -0.0223-0.0149-0.0359-0.0236-0.119-0.0767-0.288-0.175-0.557-0.33zm-12-3.69 1.23 0.709-0.919 1.59-1.23-0.709c-0.439-0.254-0.59-0.815-0.336-1.25 0.254-0.439 0.815-0.59 1.25-0.336z" clip-rule="evenodd" fill="#000" fill-rule="evenodd"/></svg>
