<svg fill="none" viewBox="0 0 16 16" xmlns="http://www.w3.org/2000/svg"><path d="m8.74 2.32-0.0529-0.0503c-0.385-0.361-0.983-0.361-1.37 0l-0.00168 0.00158-0.00314 0.00295-0.0105 0.00997-0.0375 0.0358c-0.0321 0.0307-0.078 0.0751-0.136 0.132-0.115 0.113-0.279 0.277-0.474 0.48-0.389 0.405-0.91 0.975-1.43 1.63-0.521 0.652-1.06 1.41-1.48 2.19-0.405 0.759-0.743 1.64-0.743 2.5 0 2.68 2.3 4.75 5 4.75 2.7 0 5-2.07 5-4.75 0-0.867-0.338-1.74-0.743-2.5-0.415-0.777-0.955-1.53-1.48-2.19-0.524-0.655-1.05-1.23-1.43-1.63-0.195-0.203-0.358-0.366-0.474-0.48-0.0578-0.0567-0.104-0.101-0.136-0.132zm-0.737 0.679s-4 3.75-4 6.25c0 2.07 1.79 3.75 4 3.75v-10z" clip-rule="evenodd" fill="#000" fill-rule="evenodd"/></svg>
