<svg viewBox="0 0 16 16" xmlns="http://www.w3.org/2000/svg"><path d="m3 8.5c0.552 0 1-0.448 1-1 0-0.552-0.448-1-1-1s-1 0.448-1 1c0 0.552 0.448 1 1 1z" fill="#000"/><path d="m4.5 3c1.56 0 2.94 0.794 3.75 2h5.26c0.319 0 0.619 0.152 0.807 0.409l1.49 2.04c0.246 0.335 0.259 0.786 0.0332 1.13l-1.26 1.95c-0.308 0.476-0.95 0.601-1.41 0.276l-1.15-0.805-1.19 0.812c-0.341 0.234-0.791 0.234-1.13 0l-1.19-0.812h-0.258c-0.808 1.21-2.18 2-3.75 2-2.49 0-4.5-2.01-4.5-4.5s2.02-4.5 4.5-4.5zm3.75 6c-0.334 0-0.646 0.166-0.832 0.444-0.63 0.94-1.7 1.56-2.91 1.56-1.93 0-3.5-1.57-3.5-3.5s1.57-3.5 3.5-3.5c1.21 0 2.28 0.616 2.91 1.56 0.186 0.277 0.498 0.444 0.832 0.444h5.26l1.49 2.04-1.26 1.95-1.15-0.805c-0.342-0.239-0.796-0.241-1.14-0.0055l-1.19 0.812-1.19-0.812c-0.167-0.114-0.364-0.175-0.566-0.175h-0.258z" clip-rule="evenodd" fill="#000" fill-rule="evenodd"/></svg>
