<svg fill="none" viewBox="0 0 16 16" xmlns="http://www.w3.org/2000/svg"><path d="m12.6 0c0.703 0 1.37 0.275 1.86 0.772l0.751 0.751c0.497 0.497 0.772 1.16 0.772 1.86 0 0.703-0.275 1.37-0.771 1.86l-10.5 10.6c-0.0939 0.0949-0.222 0.148-0.355 0.148h-3.87c-0.276 0-0.5-0.224-0.5-0.5v-3.75c0-0.132 0.0525-0.26 0.146-0.353l10.6-10.6c0.498-0.497 1.16-0.772 1.86-0.772zm-2.87 3.2-8.74 8.76v3.04h3.16l8.65-8.73-3.07-3.07zm2.87-2.2c-0.438 0-0.847 0.17-1.16 0.479l-1.01 1.01 3.07 3.07 1.01-1.01c0.271-0.271 0.435-0.618 0.472-0.994l0.0079-0.163c0-0.437-0.17-0.847-0.479-1.16l-0.751-0.751c-0.31-0.31-0.719-0.479-1.16-0.479z" fill="#000"/></svg>
