<svg fill="none" viewBox="0 0 16 16" xmlns="http://www.w3.org/2000/svg"><path d="m14.1 0.0247c0.331-0.0752 0.683 0.0236 0.928 0.269l0.637 0.637c0.28 0.28 0.369 0.699 0.226 1.07l-1.5 3.86c-0.0502 0.129-0.127 0.247-0.226 0.345l-2.72 2.67s-0.67 2.05-0.92 2.71c-0.216 0.576-0.341 0.915-0.518 1.23-0.153 0.27-0.333 0.525-0.538 0.758-0.237 0.269-0.515 0.499-0.987 0.893l-1.29 1.08c-0.354 0.295-0.799 0.456-1.26 0.456h-0.106c-1.03 0-1.86-0.834-1.86-1.86 8e-5 -0.552 0.245-1.08 0.67-1.43l1.21-1.01c0.496-0.413 0.703-0.587 0.877-0.785 0.159-0.182 0.299-0.38 0.418-0.59 0.129-0.229 0.226-0.482 0.452-1.09l0.52-1.39-1.38 0.52c-0.604 0.227-0.857 0.323-1.09 0.452-0.21 0.119-0.408 0.258-0.59 0.418-0.198 0.174-0.372 0.381-0.785 0.877l-1.01 1.21c-0.354 0.424-0.878 0.67-1.43 0.67-1.03 0-1.86-0.834-1.86-1.86v-0.106c8.76e-5 -0.46 0.161-0.906 0.456-1.26l1.08-1.29c0.394-0.473 0.623-0.751 0.893-0.987 0.233-0.205 0.487-0.385 0.758-0.538 0.312-0.176 0.651-0.301 1.23-0.518 0.668-0.25 2.71-0.921 2.71-0.921l2.67-2.72 0.0772-0.0693c0.0805-0.0653 0.171-0.119 0.268-0.156l3.86-1.5 0.141-0.043zm-5.58 9.57c-0.216 0.576-0.341 0.915-0.518 1.23-0.153 0.27-0.333 0.525-0.538 0.758-0.237 0.269-0.515 0.499-0.987 0.893l-1.21 1.01c-0.196 0.164-0.31 0.406-0.311 0.662 0 0.476 0.386 0.862 0.862 0.862h0.106c0.226 0 0.445-0.0797 0.619-0.225l1.29-1.08c0.496-0.413 0.703-0.587 0.877-0.785 0.159-0.182 0.299-0.38 0.418-0.59 0.129-0.229 0.226-0.482 0.452-1.09l0.793-2.11-1.22-1.22-0.633 1.69zm-3.8-3.22c-0.604 0.227-0.857 0.323-1.09 0.452-0.21 0.119-0.408 0.258-0.59 0.418-0.198 0.174-0.372 0.381-0.785 0.877l-1.08 1.29c-0.145 0.174-0.225 0.393-0.225 0.619v0.106c0 0.476 0.386 0.862 0.862 0.862 0.256 0 0.498-0.114 0.662-0.31l1.01-1.21c0.394-0.473 0.623-0.751 0.893-0.987 0.233-0.205 0.487-0.385 0.758-0.538 0.312-0.176 0.651-0.301 1.23-0.518l1.69-0.633-1.22-1.22-2.11 0.793zm5.74-3.87-2.5 2.5 3 3 2.5-2.5 1.46-3.75-3.1 3.1c-0.195 0.195-0.512 0.195-0.707 0-0.195-0.195-0.195-0.512 0-0.707l3.1-3.1-3.75 1.46z" clip-rule="evenodd" fill="#000" fill-rule="evenodd"/></svg>
