<svg fill="none" viewBox="0 0 16 16" xmlns="http://www.w3.org/2000/svg"><path d="m0.218 14.9c-0.218-0.428-0.218-0.988-0.218-2.11v-1.54c0-0.146 0.118-0.264 0.264-0.264 0.0751 0 0.146 0.0329 0.2 0.0848 0.152 0.145 0.334 0.258 0.536 0.33 0.156 0.0553 0.325 0.0854 0.5 0.0854 0.828 0 1.5-0.672 1.5-1.5 0-0.828-0.672-1.5-1.5-1.5-0.175 0-0.344 0.0301-0.5 0.0854-0.202 0.0714-0.384 0.185-0.536 0.33-0.0543 0.0519-0.125 0.0848-0.2 0.0848-0.146 0-0.264-0.118-0.264-0.264v-1.54c0-1.12 0-1.68 0.218-2.11 0.192-0.376 0.498-0.682 0.874-0.874 0.428-0.218 0.988-0.218 2.11-0.218h1.8c-0.218-0.291-0.375-0.631-0.45-1-0.0328-0.162-0.05-0.329-0.05-0.5 0-1.38 1.12-2.5 2.5-2.5s2.5 1.12 2.5 2.5c0 0.172-0.0174 0.34-0.0504 0.502-0.0752 0.369-0.231 0.708-0.449 0.998 0.48 3.8e-4 0.849 0.00354 1.15 0.0302 0.316 0.0282 0.553 0.0826 0.76 0.188 0.376 0.192 0.682 0.498 0.874 0.874 0.193 0.379 0.215 0.862 0.218 1.75 3e-4 0.114 3e-4 0.235 3e-4 0.363v0.8c0.291-0.218 0.631-0.375 1-0.45 0.162-0.0328 0.329-0.05 0.5-0.05 1.38 0 2.5 1.12 2.5 2.5 0 1.38-1.12 2.5-2.5 2.5-0.171 0-0.338-0.0172-0.5-0.05-0.369-0.075-0.709-0.232-1-0.45v0.8c0 0.128 0 0.249-3e-4 0.363-0.0025 0.884-0.0246 1.37-0.218 1.75-0.192 0.376-0.498 0.682-0.874 0.874-0.402 0.205-0.92 0.217-1.91 0.218l-0.736 1e-4c-0.146 0-0.264-0.118-0.264-0.264 0-0.075 0.0329-0.146 0.0848-0.2 0.145-0.152 0.258-0.334 0.33-0.536 0.0553-0.156 0.0854-0.325 0.0854-0.5 0-0.828-0.672-1.5-1.5-1.5s-1.5 0.672-1.5 1.5c0 0.175 0.0301 0.344 0.0854 0.5 0.0714 0.202 0.185 0.384 0.33 0.536 0.0519 0.0543 0.0848 0.125 0.0848 0.2 0 0.146-0.118 0.264-0.264 0.264h-2.54c-1.12 0-1.68 0-2.11-0.218-0.376-0.192-0.682-0.498-0.874-0.874zm5.78-10.9c0-0.217-0.0706-0.428-0.201-0.601-0.188-0.251-0.299-0.561-0.299-0.899 0-0.828 0.672-1.5 1.5-1.5s1.5 0.672 1.5 1.5c0 0.339-0.111 0.649-0.299 0.899-0.13 0.173-0.201 0.384-0.201 0.601 0 0.552 0.448 0.999 0.999 1 0.504 3.9e-4 0.832 0.00449 1.08 0.028 0.236 0.0225 0.328 0.0574 0.374 0.0809 0.188 0.0959 0.341 0.249 0.437 0.437 0.0252 0.0494 0.0629 0.15 0.0851 0.422 0.0231 0.283 0.0239 0.656 0.0239 1.23v0.8c0 0.552 0.448 1 1 1 0.217 0 0.428-0.0706 0.601-0.201 0.251-0.188 0.561-0.299 0.899-0.299 0.828 0 1.5 0.672 1.5 1.5 0 0.828-0.672 1.5-1.5 1.5-0.339 0-0.649-0.111-0.899-0.299-0.173-0.13-0.384-0.201-0.601-0.201-0.552 0-1 0.448-1 1v0.8c0 0.577-8e-4 0.949-0.0239 1.23-0.0222 0.272-0.0599 0.372-0.0851 0.422-0.0959 0.188-0.249 0.341-0.437 0.437-0.0495 0.0252-0.15 0.0629-0.422 0.0851-0.159 0.013-0.346 0.0189-0.582 0.0216 0.0326-0.161 0.0497-0.327 0.0497-0.498 0-1.38-1.12-2.5-2.5-2.5s-2.5 1.12-2.5 2.5c0 0.171 0.0173 0.338 0.0501 0.5h-1.35c-0.577 0-0.949-8e-4 -1.23-0.0239-0.272-0.0222-0.372-0.0599-0.422-0.0851-0.188-0.0959-0.341-0.249-0.437-0.437-0.0252-0.0495-0.0629-0.15-0.0851-0.422-0.0232-0.283-0.0239-0.656-0.0239-1.23v-0.35c0.162 0.0328 0.329 0.0501 0.5 0.0501 1.38 0 2.5-1.12 2.5-2.5 0-1.38-1.12-2.5-2.5-2.5-0.171 0-0.338 0.0173-0.5 0.0501v-0.35c0-0.577 7.8e-4 -0.949 0.0239-1.23 0.0222-0.272 0.0599-0.372 0.0851-0.422 0.0959-0.188 0.249-0.341 0.437-0.437 0.0494-0.0252 0.15-0.0629 0.422-0.0851 0.283-0.0232 0.656-0.0239 1.23-0.0239h1.8c0.552 0 1-0.448 1-1z" clip-rule="evenodd" fill="#000" fill-rule="evenodd"/></svg>
