<svg fill="none" viewBox="0 0 16 16" xmlns="http://www.w3.org/2000/svg"><path d="m8 0c4.42 0 8 3.58 8 8 0 4.42-3.58 8-8 8-4.42 0-8-3.58-8-8 0-4.42 3.58-8 8-8zm0 1c-3.87 0-7 3.13-7 7 0 3.87 3.13 7 7 7 3.87 0 7-3.13 7-7 0-3.87-3.13-7-7-7zm0 10.2c0.414 0 0.75 0.336 0.75 0.75s-0.336 0.75-0.75 0.75-0.75-0.336-0.75-0.75 0.336-0.75 0.75-0.75zm0-8.25c1.38 0 2.5 1.12 2.5 2.5 0 0.523-0.167 0.923-0.423 1.24-0.187 0.232-0.418 0.413-0.624 0.561l-0.167 0.117c-0.262 0.182-0.451 0.317-0.586 0.483-0.118 0.144-0.2 0.319-0.2 0.598v1c0 0.276-0.224 0.5-0.5 0.5s-0.5-0.224-0.5-0.5v-1c0-0.519 0.168-0.916 0.425-1.23 0.185-0.226 0.413-0.404 0.616-0.55l0.173-0.121c0.26-0.181 0.449-0.317 0.584-0.485 0.118-0.147 0.202-0.327 0.202-0.613 0-0.828-0.672-1.5-1.5-1.5s-1.5 0.672-1.5 1.5c0 0.276-0.224 0.5-0.5 0.5s-0.5-0.224-0.5-0.5c0-1.38 1.12-2.5 2.5-2.5z" fill="#000"/></svg>
