<svg viewBox="0 0 16 16" xmlns="http://www.w3.org/2000/svg"><path d="m8.75 12c0-0.414-0.336-0.75-0.75-0.75s-0.75 0.336-0.75 0.75 0.336 0.75 0.75 0.75 0.75-0.336 0.75-0.75z" fill="#000"/><path d="m10.5 5.5c0-1.38-1.12-2.5-2.5-2.5s-2.5 1.12-2.5 2.5c0 0.276 0.224 0.5 0.5 0.5s0.5-0.224 0.5-0.5c0-0.828 0.672-1.5 1.5-1.5s1.5 0.672 1.5 1.5c0 0.287-0.0834 0.467-0.202 0.613-0.135 0.168-0.324 0.304-0.584 0.485l-0.173 0.121c-0.204 0.146-0.431 0.324-0.616 0.55-0.257 0.315-0.425 0.711-0.425 1.23v1c0 0.276 0.224 0.5 0.5 0.5s0.5-0.224 0.5-0.5v-1c0-0.279 0.082-0.454 0.2-0.598 0.135-0.166 0.324-0.301 0.586-0.483l0.167-0.117c0.206-0.148 0.437-0.329 0.624-0.561 0.257-0.318 0.423-0.718 0.423-1.24z" fill="#000"/></svg>
