<svg viewBox="0 0 16 16" xmlns="http://www.w3.org/2000/svg"><path d="m3.75 11.5c0.414 0 0.75 0.336 0.75 0.75 0 0.414-0.336 0.75-0.75 0.75s-0.75-0.336-0.75-0.75c0-0.414 0.336-0.75 0.75-0.75z" fill="#000"/><path d="m10.6 0.157c0.611-0.21 1.27-0.209 1.88 0 0.377 0.129 0.683 0.345 0.962 0.583 0.271 0.231 0.577 0.537 0.929 0.889 0.352 0.352 0.658 0.657 0.889 0.928 0.238 0.279 0.453 0.585 0.582 0.961 0.21 0.611 0.21 1.27 0 1.89-0.129 0.376-0.344 0.682-0.582 0.961-0.231 0.271-0.537 0.576-0.889 0.928l-7.08 7.08c-0.352 0.352-0.657 0.658-0.928 0.889-0.279 0.238-0.585 0.453-0.961 0.582-0.611 0.21-1.27 0.21-1.89 0-0.376-0.129-0.682-0.344-0.961-0.582-0.271-0.231-0.576-0.537-0.928-0.889-0.352-0.352-0.658-0.657-0.889-0.928-0.238-0.279-0.454-0.586-0.583-0.963-0.209-0.611-0.21-1.27 0-1.88 0.129-0.377 0.345-0.683 0.583-0.962 0.231-0.271 0.537-0.575 0.889-0.927l7.08-7.08c0.352-0.352 0.656-0.658 0.927-0.889 0.279-0.238 0.585-0.454 0.962-0.583zm1.56 0.946c-0.4-0.137-0.835-0.138-1.24-9.7e-4 -0.209 0.0717-0.405 0.199-0.638 0.398-0.161 0.137-0.339 0.31-0.554 0.522l1.12 1.12c0.195 0.195 0.195 0.512 0 0.707-0.195 0.195-0.512 0.195-0.707 0l-1.13-1.12-1.29 1.29 1.12 1.12c0.195 0.195 0.195 0.512 0 0.707-0.195 0.195-0.512 0.195-0.707 0l-1.12-1.12-1.29 1.29 1.12 1.12c0.195 0.195 0.195 0.512 0 0.707-0.195 0.195-0.512 0.195-0.707 0l-1.12-1.12-1.29 1.29 1.12 1.12c0.195 0.195 0.195 0.512 0 0.707-0.195 0.195-0.512 0.195-0.707 0l-1.12-1.12-0.686 0.687c-0.363 0.363-0.635 0.636-0.835 0.869-0.199 0.233-0.327 0.429-0.398 0.638-0.137 0.4-0.136 0.835 9.8e-4 1.24 0.0719 0.209 0.199 0.406 0.397 0.638l0.163 0.184c0.178 0.193 0.4 0.415 0.672 0.686 0.362 0.362 0.636 0.635 0.87 0.835 0.232 0.198 0.428 0.325 0.637 0.396 0.4 0.137 0.835 0.137 1.24 0 0.209-0.0716 0.404-0.198 0.637-0.396 0.234-0.2 0.508-0.473 0.87-0.835l7.08-7.08c0.362-0.362 0.635-0.636 0.835-0.87 0.198-0.232 0.325-0.428 0.396-0.637 0.137-0.4 0.137-0.835 0-1.24l-0.0635-0.155c-0.0752-0.154-0.184-0.307-0.333-0.481-0.2-0.234-0.473-0.508-0.835-0.87-0.361-0.361-0.637-0.635-0.871-0.835-0.233-0.199-0.428-0.326-0.637-0.397z" clip-rule="evenodd" fill="#000" fill-rule="evenodd"/></svg>
