<svg viewBox="0 0 16 16" xmlns="http://www.w3.org/2000/svg"><path d="m9.11 0.427 6.14 4.98c0.993 0.805 0.993 2.37 0 3.18l-3.76 3.05c0.0031-0.0459 0.0047-0.0922 0.0047-0.139 0-0.349-0.0893-0.677-0.246-0.962l3.35-2.74c0.496-0.403 0.496-1.19 0-1.59l-6.08-4.98c-0.633-0.514-1.52-0.043-1.52 0.794v2.55c-0.334-0.0866-0.678-0.0829-1 4e-4v-2.55c0-1.67 1.85-2.62 3.11-1.59z" fill="#000"/><path d="m5.66 7.06 0.394-0.788c0.124-0.247 0.424-0.348 0.671-0.224 0.247 0.124 0.347 0.424 0.224 0.671l-0.343 0.685c0.343 0.187 0.65 0.433 0.908 0.725 0.2 0.226 0.37 0.48 0.503 0.755l1.21-0.804c0.23-0.153 0.54-0.0911 0.693 0.139 0.153 0.23 0.0911 0.54-0.139 0.693l-1.46 0.972c0.00434 0.0311 0.00826 0.0624 0.0117 0.0938l0.113 1.02h1.06c0.276 0 0.5 0.224 0.5 0.5 0 0.256-0.192 0.466-0.439 0.496-0.0198 0.0024-0.0401 0.0036-0.0606 0.0036h-0.944l0.00271 0.0245c0.0312 0.28 0.0292 0.556-0.00271 0.824-0.0393 0.33-0.124 0.646-0.248 0.944-0.0636 0.153-0.138 0.3-0.221 0.442l1.64 0.818c0.247 0.124 0.347 0.424 0.224 0.671-0.123 0.247-0.424 0.347-0.671 0.224l-1.83-0.914c-0.637 0.598-1.5 0.967-2.45 0.967s-1.81-0.37-2.45-0.967l-1.83 0.914c-0.247 0.124-0.547 0.0234-0.671-0.224-0.123-0.247-0.0234-0.547 0.224-0.671l1.64-0.818c-0.0835-0.142-0.157-0.289-0.221-0.442-0.124-0.297-0.208-0.614-0.248-0.944-0.0319-0.268-0.0339-0.544-0.00271-0.824l0.00271-0.0245h-0.944c-0.0205 0-0.0407-0.0012-0.0606-0.0036-0.248-0.0299-0.439-0.241-0.439-0.496 0-0.276 0.224-0.5 0.5-0.5h1.06l0.113-1.02c0.00349-0.0314 0.00741-0.0627 0.0117-0.0938l-1.46-0.972c-0.23-0.153-0.292-0.464-0.139-0.693 0.153-0.23 0.464-0.292 0.693-0.139l1.21 0.804c0.134-0.275 0.304-0.529 0.503-0.755 0.258-0.292 0.565-0.538 0.908-0.725l-0.342-0.685c-0.123-0.247-0.0236-0.548 0.223-0.671 0.247-0.123 0.547-0.0234 0.671 0.224l0.394 0.788c0.213-0.0426 0.434-0.0649 0.659-0.0649 0.225 0 0.445 0.0223 0.659 0.0649zm-1.12 0.981-0.349 0.0697-0.313 0.171c-0.428 0.234-0.777 0.597-0.991 1.04l-0.161 0.332-0.0514 0.369c-0.00305 0.0219-0.00582 0.044-0.00828 0.0662l-0.227 2.04c-0.0646 0.581 0.0671 1.13 0.339 1.59l0.189 0.321 0.273 0.256c0.46 0.431 1.08 0.696 1.76 0.696s1.3-0.265 1.76-0.696l0.273-0.256 0.189-0.321c0.272-0.461 0.404-1.01 0.339-1.59l-0.227-2.04c-0.00246-0.0222-0.00523-0.0443-0.00829-0.0662l-0.0514-0.369-0.161-0.332c-0.214-0.442-0.563-0.805-0.991-1.04l-0.313-0.171-0.349-0.0697c-0.149-0.0298-0.304-0.0455-0.463-0.0455s-0.314 0.0157-0.463 0.0455z" clip-rule="evenodd" fill="#000" fill-rule="evenodd"/></svg>
