<svg viewBox="0 0 16 16" xmlns="http://www.w3.org/2000/svg"><path d="m3.33 1.64c-0.272 0.535-0.318 1.21-0.325 2.39 0.491-0.0271 1.07-0.0271 1.76-0.0271h3.48c0.805-1e-5 1.47-2e-5 2.01 0.0442 0.562 0.0459 1.08 0.144 1.56 0.392 0.317 0.162 0.609 0.364 0.87 0.6 0.127 0.0508 0.228 0.152 0.279 0.279 0.236 0.261 0.438 0.553 0.6 0.87 0.247 0.485 0.346 1 0.392 1.56 0.0442 0.541 0.0442 1.21 0.0442 2.01v1.06c0.129-0.0391 0.249-0.0867 0.362-0.144 0.564-0.288 1.02-0.747 1.31-1.31 0.327-0.642 0.327-1.48 0.327-3.16v-1.4c0-1.68 0-2.52-0.327-3.16-0.288-0.564-0.747-1.02-1.31-1.31-0.642-0.327-1.48-0.327-3.16-0.327h-3.4c-1.68 0-2.52 0-3.16 0.327-0.564 0.288-1.02 0.747-1.31 1.31zm3.17 0.362c-0.276 0-0.5 0.224-0.5 0.5s0.224 0.5 0.5 0.5h6c0.276 0 0.5-0.224 0.5-0.5s-0.224-0.5-0.5-0.5h-6z" clip-rule="evenodd" fill="#000" fill-rule="evenodd"/><mask id="path-2-inside-1_1157_130" fill="white"><path d="m3 8.5c0-0.276 0.224-0.5 0.5-0.5h6c0.276 0 0.5 0.224 0.5 0.5s-0.224 0.5-0.5 0.5h-6c-0.276 0-0.5-0.224-0.5-0.5z"/><path d="m3 10.5c0-0.276 0.224-0.5 0.5-0.5h6c0.276 0 0.5 0.224 0.5 0.5s-0.224 0.5-0.5 0.5h-6c-0.276 0-0.5-0.224-0.5-0.5z"/><path d="m3 12.5c0-0.276 0.224-0.5 0.5-0.5h3c0.276 0 0.5 0.224 0.5 0.5s-0.224 0.5-0.5 0.5h-3c-0.276 0-0.5-0.224-0.5-0.5z"/><path d="m0.327 6.64c-0.327 0.642-0.327 1.48-0.327 3.16v1.4c0 1.68 0 2.52 0.327 3.16 0.288 0.564 0.747 1.02 1.31 1.31 0.642 0.327 1.48 0.327 3.16 0.327h3.4c1.68 0 2.52 0 3.16-0.327 0.564-0.288 1.02-0.746 1.31-1.31 0.327-0.642 0.327-1.48 0.327-3.16v-1.4c0-1.68 0-2.52-0.327-3.16-0.288-0.564-0.746-1.02-1.31-1.31-0.642-0.327-1.48-0.327-3.16-0.327h-3.4c-1.68 0-2.52 0-3.16 0.327-0.564 0.288-1.02 0.747-1.31 1.31zm0.673 3.16c0-0.857 7.8e-4 -1.44 0.0376-1.89 0.0358-0.438 0.101-0.663 0.18-0.819 0.192-0.376 0.498-0.682 0.874-0.874 0.156-0.0797 0.381-0.145 0.819-0.18 0.45-0.0368 1.03-0.0376 1.89-0.0376h3.4c0.857 0 1.44 7.8e-4 1.89 0.0376 0.438 0.0358 0.663 0.101 0.819 0.18 0.376 0.192 0.682 0.498 0.874 0.874 0.0797 0.156 0.145 0.381 0.18 0.819 0.0368 0.45 0.0376 1.03 0.0376 1.89v1.4c0 0.857-8e-4 1.44-0.0376 1.89-0.0358 0.438-0.101 0.663-0.18 0.819-0.192 0.376-0.498 0.682-0.874 0.874-0.156 0.0797-0.381 0.145-0.819 0.18-0.45 0.0368-1.03 0.0376-1.89 0.0376h-3.4c-0.857 0-1.44-8e-4 -1.89-0.0376-0.438-0.0358-0.663-0.101-0.819-0.18-0.376-0.192-0.682-0.498-0.874-0.874-0.0797-0.156-0.145-0.381-0.18-0.819-0.0368-0.45-0.0376-1.03-0.0376-1.89v-1.4z" clip-rule="evenodd" fill-rule="evenodd"/></mask><path d="m1.04 7.91 0.997 0.0814-0.997-0.0814zm0.18-0.819 0.891 0.454-0.891-0.454zm0.874-0.874 0.454 0.891-0.454-0.891zm0.819-0.18 0.0814 0.997-0.0814-0.997zm7.18 0-0.0815 0.997 0.0815-0.997zm0.819 0.18-0.454 0.891 0.454-0.891zm0.874 0.874 0.891-0.454-0.891 0.454zm0.18 0.819-0.997 0.0814 0.997-0.0814zm0 5.18-0.997-0.0815 0.997 0.0815zm-0.18 0.819-0.891-0.454 0.891 0.454zm-0.874 0.874 0.454 0.891-0.454-0.891zm-0.819 0.18-0.0815-0.997 0.0815 0.997zm-7.18 0 0.0814-0.997-0.0814 0.997zm-0.819-0.18 0.454-0.891-0.454 0.891zm-0.874-0.874 0.891-0.454-0.891 0.454zm-0.18-0.819 0.997-0.0815-0.997 0.0815zm-0.711-6.45 0.891 0.454-0.891-0.454zm0 7.72-0.891 0.454 0.891-0.454zm1.31 1.31 0.454-0.891-0.454 0.891zm9.72 0-0.454-0.891 0.454 0.891zm1.31-1.31-0.891-0.454 0.891 0.454zm0-7.72-0.891 0.454 0.891-0.454zm-1.31-1.31 0.454-0.891-0.454 0.891zm-9.72 0 0.454 0.891-0.454-0.891zm-1.6 2.5c-0.0409 0.5-0.0409 1.13-0.0409 1.97h2c0-0.874 0.00156-1.41 0.0342-1.81l-1.99-0.163zm0.286-1.19c-0.164 0.321-0.245 0.692-0.286 1.19l1.99 0.163c0.0153-0.187 0.0346-0.3 0.0505-0.368 0.00767-0.0326 0.0141-0.0526 0.0179-0.0633 0.00363-0.0102 0.00581-0.0144 0.0063-0.0154l-1.78-0.908zm1.31-1.31c-0.564 0.288-1.02 0.747-1.31 1.31l1.78 0.908c0.0959-0.188 0.249-0.341 0.437-0.437l-0.908-1.78zm1.19-0.286c-0.5 0.0408-0.87 0.122-1.19 0.286l0.908 1.78c9.7e-4 -4.9e-4 0.00524-0.00267 0.0154-0.0063 0.0108-0.00385 0.0307-0.0103 0.0633-0.0179 0.0676-0.0159 0.181-0.0353 0.368-0.0505l-0.163-1.99zm1.97-0.0409c-0.84 0-1.47-1e-5 -1.97 0.0409l0.163 1.99c0.4-0.0327 0.934-0.0342 1.81-0.0342v-2zm3.4 0h-3.4v2h3.4v-2zm1.97 0.0409c-0.5-0.0409-1.13-0.0409-1.97-0.0409v2c0.874 0 1.41 0.00156 1.81 0.0342l0.163-1.99zm1.19 0.286c-0.321-0.164-0.692-0.245-1.19-0.286l-0.163 1.99c0.187 0.0153 0.3 0.0346 0.368 0.0505 0.0326 0.00767 0.0525 0.0141 0.0633 0.0179 0.0101 0.00363 0.0144 0.00581 0.0154 0.0063l0.908-1.78zm1.31 1.31c-0.288-0.564-0.746-1.02-1.31-1.31l-0.908 1.78c0.188 0.0959 0.341 0.249 0.437 0.437l1.78-0.908zm0.286 1.19c-0.0408-0.5-0.122-0.87-0.286-1.19l-1.78 0.908c5e-4 9.7e-4 0.0027 0.00524 0.0063 0.0154 0.0039 0.0108 0.0103 0.0307 0.0179 0.0633 0.0159 0.0676 0.0353 0.181 0.0506 0.368l1.99-0.163zm0.0409 1.97c0-0.84 0-1.47-0.0409-1.97l-1.99 0.163c0.0326 0.4 0.0342 0.934 0.0342 1.81h2zm0 1.4v-1.4h-2v1.4h2zm-0.0409 1.97c0.0409-0.5 0.0409-1.13 0.0409-1.97h-2c0 0.874-0.0016 1.41-0.0342 1.81l1.99 0.163zm-0.286 1.19c0.164-0.321 0.245-0.692 0.286-1.19l-1.99-0.163c-0.0153 0.187-0.0347 0.3-0.0506 0.368-0.0076 0.0326-0.014 0.0525-0.0179 0.0633-0.0036 0.0101-0.0058 0.0144-0.0063 0.0154l1.78 0.908zm-1.31 1.31c0.564-0.288 1.02-0.746 1.31-1.31l-1.78-0.908c-0.0959 0.188-0.249 0.341-0.437 0.437l0.908 1.78zm-1.19 0.286c0.5-0.0408 0.87-0.122 1.19-0.286l-0.908-1.78c-1e-3 5e-4 -0.0053 0.0027-0.0154 0.0063-0.0108 0.0039-0.0307 0.0103-0.0633 0.0179-0.0676 0.0159-0.181 0.0353-0.368 0.0506l0.163 1.99zm-1.97 0.0409c0.84 0 1.47 0 1.97-0.0409l-0.163-1.99c-0.4 0.0326-0.934 0.0342-1.81 0.0342v2zm-3.4 0h3.4v-2h-3.4v2zm-1.97-0.0409c0.5 0.0409 1.13 0.0409 1.97 0.0409v-2c-0.874 0-1.41-0.0016-1.81-0.0342l-0.163 1.99zm-1.19-0.286c0.321 0.164 0.692 0.245 1.19 0.286l0.163-1.99c-0.187-0.0153-0.3-0.0347-0.368-0.0506-0.0326-0.0076-0.0526-0.014-0.0633-0.0179-0.0102-0.0036-0.0144-0.0058-0.0154-0.0063l-0.908 1.78zm-1.31-1.31c0.288 0.564 0.747 1.02 1.31 1.31l0.908-1.78c-0.188-0.0959-0.341-0.249-0.437-0.437l-1.78 0.908zm-0.286-1.19c0.0408 0.5 0.122 0.87 0.286 1.19l1.78-0.908c-4.9e-4 -1e-3 -0.00267-0.0053-0.0063-0.0154-0.00385-0.0108-0.0103-0.0307-0.0179-0.0633-0.0159-0.0676-0.0353-0.181-0.0505-0.368l-1.99 0.163zm-0.0409-1.97c0 0.84-8.62e-6 1.47 0.0409 1.97l1.99-0.163c-0.0327-0.4-0.0342-0.934-0.0342-1.81h-2zm0-1.4v1.4h2v-1.4h-2zm1 0c0-0.857 7.8e-4 -1.44 0.0376-1.89 0.0358-0.438 0.101-0.663 0.18-0.819l-1.78-0.908c-0.247 0.485-0.346 1-0.392 1.56-0.045 0.55-0.0442 1.23-0.0442 2.05h2zm0 1.4v-1.4h-2v1.4h2zm0.218 2.71c-0.0797-0.156-0.145-0.381-0.18-0.819-0.0368-0.45-0.0376-1.03-0.0376-1.89h-2c0 0.824-7.8e-4 1.5 0.0442 2.05 0.0459 0.562 0.144 1.08 0.392 1.56l1.78-0.908zm0.874 0.874c-0.376-0.192-0.682-0.498-0.874-0.874l-1.78 0.908c0.383 0.753 0.995 1.36 1.75 1.75l0.908-1.78zm2.71 0.218c-0.857 0-1.44-8e-4 -1.89-0.0376-0.438-0.0358-0.663-0.101-0.819-0.18l-0.908 1.78c0.485 0.247 1 0.346 1.56 0.392 0.55 0.045 1.23 0.0442 2.05 0.0442v-2zm3.4 0h-3.4v2h3.4v-2zm2.71-0.218c-0.156 0.0797-0.381 0.145-0.819 0.18-0.45 0.0368-1.03 0.0376-1.89 0.0376v2c0.824 0 1.5 8e-4 2.05-0.0442 0.562-0.0459 1.08-0.144 1.56-0.392l-0.908-1.78zm0.874-0.874c-0.192 0.376-0.498 0.682-0.874 0.874l0.908 1.78c0.753-0.384 1.36-0.995 1.75-1.75l-1.78-0.908zm0.218-2.71c0 0.857-8e-4 1.44-0.0376 1.89-0.0358 0.438-0.101 0.663-0.18 0.819l1.78 0.908c0.247-0.485 0.346-1 0.392-1.56 0.045-0.55 0.0442-1.23 0.0442-2.05h-2zm0-1.4v1.4h2v-1.4h-2zm-0.218-2.71c0.0797 0.156 0.145 0.381 0.18 0.819 0.0368 0.45 0.0376 1.03 0.0376 1.89h2c0-0.824 8e-4 -1.5-0.0442-2.05-0.0459-0.562-0.144-1.08-0.392-1.56l-1.78 0.908zm-0.874-0.874c0.376 0.192 0.682 0.498 0.874 0.874l1.78-0.908c-0.384-0.753-0.995-1.36-1.75-1.75l-0.908 1.78zm-2.71-0.218c0.857 0 1.44 7.8e-4 1.89 0.0376 0.438 0.0358 0.663 0.101 0.819 0.18l0.908-1.78c-0.485-0.247-1-0.346-1.56-0.392-0.55-0.045-1.23-0.0442-2.05-0.0442v2zm-3.4 0h3.4v-2h-3.4v2zm-2.71 0.218c0.156-0.0797 0.381-0.145 0.819-0.18 0.45-0.0368 1.03-0.0376 1.89-0.0376v-2c-0.824 0-1.5-7.8e-4 -2.05 0.0442-0.562 0.0459-1.08 0.144-1.56 0.392l0.908 1.78zm-0.874 0.874c0.192-0.376 0.498-0.682 0.874-0.874l-0.908-1.78c-0.753 0.384-1.36 0.995-1.75 1.75l1.78 0.908zm2.28-0.092c-0.828 0-1.5 0.672-1.5 1.5h2c0 0.276-0.224 0.5-0.5 0.5v-2zm6 0h-6v2h6v-2zm1.5 1.5c0-0.828-0.672-1.5-1.5-1.5v2c-0.276 0-0.5-0.224-0.5-0.5h2zm-1.5 1.5c0.828 0 1.5-0.672 1.5-1.5h-2c0-0.276 0.224-0.5 0.5-0.5v2zm-6 0h6v-2h-6v2zm-1.5-1.5c0 0.828 0.672 1.5 1.5 1.5v-2c0.276 0 0.5 0.224 0.5 0.5h-2zm1.5 0.5c-0.828 0-1.5 0.672-1.5 1.5h2c0 0.276-0.224 0.5-0.5 0.5v-2zm6 0h-6v2h6v-2zm1.5 1.5c0-0.828-0.672-1.5-1.5-1.5v2c-0.276 0-0.5-0.224-0.5-0.5h2zm-1.5 1.5c0.828 0 1.5-0.672 1.5-1.5h-2c0-0.276 0.224-0.5 0.5-0.5v2zm-6 0h6v-2h-6v2zm-1.5-1.5c0 0.828 0.672 1.5 1.5 1.5v-2c0.276 0 0.5 0.224 0.5 0.5h-2zm1.5 0.5c-0.828 0-1.5 0.672-1.5 1.5h2c0 0.276-0.224 0.5-0.5 0.5v-2zm3 0h-3v2h3v-2zm1.5 1.5c0-0.828-0.672-1.5-1.5-1.5v2c-0.276 0-0.5-0.224-0.5-0.5h2zm-1.5 1.5c0.828 0 1.5-0.672 1.5-1.5h-2c0-0.276 0.224-0.5 0.5-0.5v2zm-3 0h3v-2h-3v2zm-1.5-1.5c0 0.828 0.672 1.5 1.5 1.5v-2c0.276 0 0.5 0.224 0.5 0.5h-2z" fill="#000" mask="url(#path-2-inside-1_1157_130)"/></svg>
