<svg viewBox="0 0 16 16" xmlns="http://www.w3.org/2000/svg"><path d="m4.31 8.04c0.187-0.0774 0.402-0.0346 0.545 0.108l2 2c0.143 0.143 0.186 0.358 0.108 0.545-0.0775 0.187-0.26 0.309-0.462 0.309h-2c-0.276 0-0.5-0.224-0.5-0.5v-2c0-0.202 0.122-0.384 0.309-0.462z" clip-rule="evenodd" fill="#000" fill-rule="evenodd"/><path d="m1.62 0.00902c0.352 0.0279 0.656 0.237 0.925 0.462 0.281 0.235 0.621 0.576 1.04 0.997l10.9 10.9c0.421 0.421 0.762 0.761 0.997 1.04 0.225 0.268 0.434 0.573 0.462 0.925 0.0376 0.479-0.156 0.947-0.522 1.26-0.269 0.229-0.632 0.296-0.98 0.327-0.365 0.0324-0.847 0.0322-1.44 0.0322h-12.5c-0.276 0-0.5-0.224-0.5-0.5v-12.5c-2.31e-7 -0.595-9.7e-5 -1.08 0.0322-1.44 0.0309-0.349 0.0979-0.712 0.327-0.98 0.312-0.365 0.78-0.559 1.26-0.521zm-0.0791 0.997c-0.16-0.0125-0.315 0.0522-0.419 0.174-0.0104 0.0122-0.0629 0.0929-0.0918 0.419-0.0275 0.31-0.0283 0.738-0.0283 1.35v12h2v-1.5c0-0.276 0.224-0.5 0.5-0.5s0.5 0.224 0.5 0.5v1.5h2v-1.5c0-0.276 0.224-0.5 0.5-0.5s0.5 0.224 0.5 0.5v1.5h2v-1.5c0-0.276 0.224-0.5 0.5-0.5s0.5 0.224 0.5 0.5v1.5h3.05c0.616 0 1.04-8e-4 1.35-0.0283 0.326-0.0289 0.407-0.0815 0.419-0.0918 0.122-0.104 0.186-0.26 0.174-0.419-0.0012-0.0156-0.0209-0.11-0.231-0.361-0.2-0.239-0.502-0.542-0.938-0.978l-10.9-10.9c-0.435-0.435-0.738-0.737-0.978-0.938-0.252-0.211-0.346-0.23-0.361-0.231z" clip-rule="evenodd" fill="#000" fill-rule="evenodd"/></svg>
