<svg viewBox="0 0 16 16" xmlns="http://www.w3.org/2000/svg"><path d="m11.4 6.85c0.195-0.195 0.195-0.512 0-0.707-0.195-0.195-0.512-0.195-0.707 0l-3.65 3.65-1.65-1.65c-0.195-0.195-0.512-0.195-0.707 0-0.195 0.195-0.195 0.512 0 0.707l2 2c0.195 0.195 0.512 0.195 0.707 0l4-4z" fill="#000"/><path d="m8 0c-4.42 0-8 3.58-8 8 0 4.42 3.58 8 8 8 4.42 0 8-3.58 8-8 0-4.42-3.58-8-8-8zm-7 8c0-3.87 3.13-7 7-7 3.87 0 7 3.13 7 7 0 3.87-3.13 7-7 7-3.87 0-7-3.13-7-7z" clip-rule="evenodd" fill="#000" fill-rule="evenodd"/></svg>
