<svg viewBox="0 0 16 16" xmlns="http://www.w3.org/2000/svg"><path d="m11.5 11c0.828 0 1.5 0.672 1.5 1.5s-0.672 1.5-1.5 1.5-1.5-0.672-1.5-1.5 0.672-1.5 1.5-1.5z" fill="#000"/><path d="m12.5 9c1.93 0 3.5 1.57 3.5 3.5s-1.57 3.5-3.5 3.5h-9l-0.18-0.0049c-1.85-0.0935-3.32-1.62-3.32-3.5 0-1.93 1.57-3.5 3.5-3.5h9zm-9 1c-1.38 0-2.5 1.12-2.5 2.5s1.12 2.5 2.5 2.5h9c1.38 0 2.5-1.12 2.5-2.5s-1.12-2.5-2.5-2.5h-9z" clip-rule="evenodd" fill="#000" fill-rule="evenodd"/><path d="m14.5 9.71e-6c0.276 1.99e-4 0.5 0.224 0.5 0.5v8.26c-0.308-0.206-0.644-0.375-1-0.501v-7.22c-1.7 0.243-3 1.7-3 3.46v3.5h-1.68l-6.59-6.75c-1.07 1.47-0.959 3.57 0.344 4.9l1.8 1.84h-1.4l-1.12-1.15c-1.75-1.79-1.81-4.67-0.164-6.53l0.164-0.177 0.0762-0.0645c0.189-0.128 0.448-0.106 0.614 0.0645l6.95 7.12v-2.77c1e-4 -2.49 2.01-4.5 4.5-4.5z" fill="#000"/></svg>
