<svg fill="none" viewBox="0 0 16 16" xmlns="http://www.w3.org/2000/svg"><path d="m14.1 0c-1.35 0-2.66 0.531-3.63 1.5l-5.13 5.11c-0.125-0.11-0.267-0.219-0.424-0.296-0.519-0.257-1.13-0.257-1.65 0-0.281 0.139-0.515 0.375-0.687 0.549l-0.051 0.0513-0.0513 0.051c-0.174 0.172-0.41 0.406-0.549 0.687-0.257 0.519-0.257 1.13 0 1.65 0.139 0.281 0.375 0.515 0.549 0.687l0.0513 0.0509 0.301 0.301-0.159 0.159c-1.49 0.0345-2.69 1.25-2.69 2.75 0 1.52 1.23 2.75 2.75 2.75 1.5 0 2.71-1.2 2.75-2.68l0.159-0.159 0.301 0.301 0.051 0.0513c0.172 0.174 0.406 0.41 0.687 0.549 0.519 0.257 1.13 0.257 1.65 0 0.281-0.139 0.515-0.375 0.687-0.549l0.0509-0.0513 0.0513-0.0509c0.174-0.172 0.41-0.406 0.549-0.687 0.257-0.519 0.257-1.13 0-1.65-0.0778-0.157-0.186-0.299-0.296-0.424l5.11-5.13c0.971-0.971 1.5-2.28 1.5-3.63v-0.00611c-3e-4 -0.334-0.0331-0.67-0.0998-1-0.0791-0.396-0.389-0.705-0.784-0.784-0.335-0.0669-0.672-0.0998-1.01-0.0998zm-0.32 4.81c0.782-0.782 1.21-1.84 1.21-2.92v-0.00545c-2e-4 -0.269-0.0266-0.539-0.0804-0.808-0.27-0.0539-0.541-0.0804-0.811-0.0804-1.09 0-2.14 0.428-2.92 1.21l-5.83 5.81-0.397-0.397c-0.233-0.233-0.349-0.349-0.475-0.411-0.239-0.118-0.519-0.118-0.758 0-0.126 0.0622-0.242 0.179-0.475 0.411s-0.349 0.349-0.411 0.475c-0.118 0.239-0.118 0.519 0 0.758 0.0622 0.126 0.179 0.242 0.411 0.475l1.01 1.01-1.19 1.19c-0.104-0.0192-0.211-0.0293-0.321-0.0293-0.966 0-1.75 0.784-1.75 1.75s0.784 1.75 1.75 1.75 1.75-0.784 1.75-1.75c0-0.11-0.0101-0.217-0.0293-0.321l1.19-1.19 1.01 1.01c0.233 0.233 0.349 0.349 0.475 0.412 0.239 0.118 0.519 0.118 0.758 0 0.126-0.0622 0.242-0.179 0.475-0.412 0.233-0.233 0.349-0.349 0.412-0.475 0.118-0.239 0.118-0.52 0-0.758-0.0622-0.126-0.179-0.242-0.411-0.475l-0.397-0.397 5.81-5.83z" clip-rule="evenodd" fill="#000" fill-rule="evenodd"/></svg>
