<svg viewBox="0 0 16 16" xmlns="http://www.w3.org/2000/svg"><path d="m12 3c0.552 0 1 0.448 1 1 0 0.552-0.448 1-1 1s-1-0.448-1-1c0-0.552 0.448-1 1-1z" fill="#000"/><path d="m13.8 1.75e-5c0.286 1.26e-6 0.533 8.74e-5 0.735 0.0166 0.208 0.017 0.415 0.054 0.614 0.155 0.298 0.152 0.541 0.395 0.692 0.692 0.101 0.199 0.138 0.406 0.155 0.614 0.0165 0.202 0.0166 0.449 0.0166 0.735v3.6c0 0.749 0.0038 1.21-0.102 1.65-0.0904 0.376-0.24 0.736-0.442 1.07-0.236 0.385-0.564 0.709-1.09 1.24l-4.57 4.57c-0.411 0.411-0.742 0.744-1.03 0.989-0.294 0.249-0.58 0.44-0.913 0.549-0.53 0.172-1.1 0.172-1.63 0-0.333-0.108-0.619-0.299-0.913-0.549-0.289-0.246-0.62-0.578-1.03-0.989l-2.61-2.61c-0.411-0.411-0.744-0.742-0.989-1.03-0.249-0.294-0.441-0.58-0.549-0.913-0.172-0.53-0.172-1.1 0-1.63 0.108-0.333 0.299-0.619 0.549-0.913 0.246-0.289 0.578-0.62 0.989-1.03l4.57-4.57c0.529-0.529 0.853-0.858 1.24-1.09 0.33-0.202 0.69-0.352 1.07-0.442 0.439-0.105 0.9-0.102 1.65-0.102h3.6zm-3.6 1c-0.596-1e-5 -0.927 0.00134-1.18 0.0322l-0.234 0.042c-0.205 0.0492-0.404 0.122-0.593 0.219l-0.185 0.104c-0.261 0.16-0.492 0.387-1.05 0.948l-4.57 4.57c-0.424 0.424-0.721 0.721-0.934 0.972-0.208 0.245-0.309 0.416-0.36 0.575-0.107 0.328-0.107 0.682 0 1.01l0.0488 0.123c0.0598 0.127 0.156 0.269 0.312 0.452 0.213 0.251 0.509 0.548 0.934 0.972l2.61 2.61c0.424 0.424 0.721 0.721 0.972 0.934 0.245 0.208 0.416 0.309 0.575 0.36 0.328 0.107 0.682 0.107 1.01 0 0.159-0.0516 0.33-0.152 0.575-0.36 0.251-0.213 0.548-0.51 0.972-0.934l4.57-4.57c0.561-0.561 0.788-0.793 0.948-1.05l0.104-0.185c0.0962-0.189 0.17-0.388 0.219-0.593l0.042-0.234c0.0309-0.254 0.0322-0.584 0.0322-1.18v-3.6l-0.0019-0.382c-0.0018-0.107-0.0055-0.195-0.0118-0.271l-0.0224-0.165c-0.0088-0.0376-0.0188-0.0613-0.0274-0.0781-0.0557-0.109-0.145-0.199-0.254-0.255-0.0337-0.0172-0.0946-0.0367-0.243-0.0488-0.0763-0.00621-0.165-0.00996-0.272-0.0117l-0.382-0.00195h-3.6z" clip-rule="evenodd" fill="#000" fill-rule="evenodd"/></svg>
