<svg viewBox="0 0 16 16" xmlns="http://www.w3.org/2000/svg"><path d="m11.9 5.12c0.569 0 1.03-0.461 1.03-1.03 0-0.569-0.461-1.03-1.03-1.03s-1.03 0.461-1.03 1.03c0 0.569 0.461 1.03 1.03 1.03z" fill="#000"/><path d="m15 2.03c0-0.569-0.461-1.03-1.03-1.03h-4.21c-0.547 0-1.07 0.217-1.46 0.604l-6.7 6.7c-0.805 0.805-0.805 2.11-1e-5 2.91l3.18 3.18c0.805 0.805 2.11 0.805 2.91 0l6.7-6.7c0.386-0.387 0.604-0.911 0.604-1.46v-4.21zm-5.24-0.0305h4.24v4.24c0 0.273-0.139 0.535-0.332 0.729l-6.7 6.7c-0.402 0.402-1.05 0.402-1.46 0l-3.18-3.18c-0.402-0.402-0.402-1.05 0-1.46l6.7-6.7c0.193-0.193 0.455-0.332 0.729-0.332z" clip-rule="evenodd" fill="#000" fill-rule="evenodd"/></svg>
