<svg viewBox="0 0 16 16" xmlns="http://www.w3.org/2000/svg"><path d="m5.5 1c-0.662 0-1.22 0.429-1.42 1.02-0.629 0.0336-1.07 0.113-1.44 0.303-0.564 0.288-1.02 0.747-1.31 1.31-0.327 0.642-0.327 1.48-0.327 3.16v4.4c0 1.68 0 2.52 0.327 3.16 0.288 0.564 0.747 1.02 1.31 1.31 0.642 0.327 1.48 0.327 3.16 0.327h2.54c-0.403-0.284-0.766-0.621-1.08-1h-1.46c-0.857 0-1.44-8e-4 -1.89-0.0375-0.438-0.0359-0.663-0.101-0.819-0.18-0.376-0.192-0.682-0.498-0.874-0.874-0.0797-0.156-0.145-0.381-0.18-0.819-0.0368-0.45-0.0376-1.03-0.0376-1.89v-4.4c0-0.857 7.8e-4 -1.44 0.0376-1.89 0.0358-0.438 0.101-0.663 0.18-0.819 0.192-0.376 0.498-0.682 0.874-0.874 0.156-0.0797 0.381-0.145 0.819-0.18 0.0291-0.00238 0.0587-0.00461 0.089-0.00669v0.469c0 0.828 0.672 1.5 1.5 1.5h5c0.828 0 1.5-0.672 1.5-1.5v-0.469c0.0302 0.00208 0.0599 0.00431 0.089 0.00669 0.438 0.0358 0.663 0.101 0.819 0.18 0.376 0.192 0.682 0.498 0.874 0.874 0.0797 0.156 0.145 0.381 0.18 0.819 0.0339 0.414 0.0372 0.94 0.0376 1.69 0.358 0.183 0.693 0.404 1 0.657v-0.457c0-1.68 0-2.52-0.327-3.16-0.288-0.564-0.746-1.02-1.31-1.31-0.372-0.189-0.81-0.269-1.44-0.303-0.199-0.595-0.761-1.02-1.42-1.02h-0.268c-0.346-0.598-0.992-1-1.73-1h-1c-0.74 0-1.39 0.402-1.73 1h-0.268zm0.989 0.75c-0.0894 0.154-0.254 0.25-0.433 0.25h-0.556c-0.276 0-0.5 0.224-0.5 0.5v1c0 0.276 0.224 0.5 0.5 0.5h5c0.276 0 0.5-0.224 0.5-0.5v-1c0-0.276-0.224-0.5-0.5-0.5h-0.556c-0.178 0-0.343-0.0951-0.433-0.25l-0.144-0.25c-0.174-0.302-0.498-0.501-0.867-0.501h-1c-0.369 0-0.692 0.199-0.867 0.501l-0.144 0.25z" clip-rule="evenodd" fill="#000" fill-rule="evenodd"/><path d="m12 9.5c0-0.276-0.224-0.5-0.5-0.5s-0.5 0.224-0.5 0.5v2c0 0.276 0.224 0.5 0.5 0.5h1.5c0.276 0 0.5-0.224 0.5-0.5s-0.224-0.5-0.5-0.5h-1v-1.5z" fill="#000"/><path d="m11.5 16c2.49 0 4.5-2.01 4.5-4.5 0-2.49-2.01-4.5-4.5-4.5-2.49 0-4.5 2.01-4.5 4.5 0 2.49 2.01 4.5 4.5 4.5zm0-1c1.93 0 3.5-1.57 3.5-3.5s-1.57-3.5-3.5-3.5-3.5 1.57-3.5 3.5 1.57 3.5 3.5 3.5z" clip-rule="evenodd" fill="#000" fill-rule="evenodd"/></svg>
