<svg fill="none" viewBox="0 0 16 16" xmlns="http://www.w3.org/2000/svg"><path d="m15.1 3.12c0.346 0.0932 0.615 0.364 0.706 0.71 0.452 1.71 0.0324 3.62-1.32 4.97-1.32 1.33-3.19 1.77-4.87 1.36-0.0634-0.0155-0.116-0.0134-0.148-0.0064-0.0147 0.0033-0.0223 0.0067-0.0253 0.0084l-5.08 5.08c-0.998 0.998-2.63 0.998-3.62 0-0.998-0.998-0.998-2.63 0-3.62l5.08-5.08c0.00168-0.00302 0.00512-0.0106 0.00834-0.0254 0.00701-0.0322 0.00909-0.0848-0.00649-0.148-0.176-0.721-0.196-1.47-0.0531-2.21 0.196-1.01 0.689-1.94 1.42-2.67 1.36-1.36 3.26-1.78 4.97-1.32 0.346 0.0914 0.617 0.361 0.71 0.706 0.0932 0.346-0.0054 0.715-0.258 0.968l-2.1 2.1 0.383 1.15 1.15 0.383 2.1-2.1c0.253-0.253 0.622-0.352 0.968-0.258zm-9.29 3.43c-1e-5 -4e-5 4.7e-4 -8.7e-4 0.00106-0.0016l-0.00106 0.0016zm3.62 3.62c-3e-5 0 7.3e-4 -5e-4 0.00159-1e-3l-0.00159 1e-3zm4.34-2.07c-1.07 1.07-2.57 1.43-3.93 1.1-0.396-0.0964-0.827-0.023-1.12 0.265l-5.08 5.08c-0.607 0.608-1.6 0.608-2.21 0-0.607-0.607-0.607-1.6 0-2.21l5.08-5.08c0.288-0.288 0.361-0.721 0.265-1.12-0.142-0.581-0.158-1.19-0.0428-1.78 0.158-0.814 0.556-1.56 1.14-2.15 0.76-0.76 1.74-1.16 2.73-1.2 0.428-0.0193 0.859 0.0268 1.28 0.137l-2.1 2.1c-0.268 0.268-0.361 0.664-0.242 1.02l0.383 1.15c0.0996 0.299 0.334 0.533 0.632 0.632l1.15 0.383c0.359 0.12 0.756 0.0263 1.02-0.242l2.1-2.1c0.11 0.418 0.156 0.849 0.137 1.28-0.0445 0.995-0.441 1.97-1.2 2.73z" clip-rule="evenodd" fill="#000" fill-rule="evenodd"/></svg>
