<svg viewBox="0 0 16 16" xmlns="http://www.w3.org/2000/svg"><path d="m14.6 0.0944-0.614-0.0912c-0.118-0.0176-0.233 0.0372-0.295 0.138l-0.961 1.55c-0.0219 0.0353-0.0347 0.0728-0.0424 0.113l-0.0664 1.19-1.8 2.76-0.0065-4e-3c-0.896-0.437-1.81-0.606-2.68 0.00981-0.627 0.448-0.683 0.899-0.741 1.37-0.043 0.348-0.0874 0.708-0.366 1.08-0.23 0.311-0.607 0.482-1.03 0.674-0.779 0.354-1.71 0.777-2.15 2.28-0.64 2.2 1.42 3.45 2.06 3.84 0.033 0.02 0.0623 0.0377 0.0871 0.0531s0.0537 0.0338 0.0863 0.0545c0.63 0.4 2.66 1.69 4.35 0.139 1.15-1.06 1.12-2.08 1.09-2.94-0.0154-0.462-0.0292-0.875 0.147-1.22l0.0026 0.0015c0.214-0.417 0.516-0.616 0.809-0.809 0.396-0.261 0.775-0.511 0.898-1.27 0.169-1.04-0.385-1.78-1.17-2.39l-0.0305 0.0421 1.69-2.89 1.09-0.63 0.996-1.6c0.0626-0.101 0.0585-0.229-0.0073-0.326l-0.354-0.51c-0.233-0.333-0.594-0.557-0.999-0.62l-0.0016 0.00252z" fill="#000"/><path d="m0 1.5c0-0.276 0.224-0.5 0.5-0.5h10c0.276 0 0.5 0.224 0.5 0.5s-0.224 0.5-0.5 0.5h-10c-0.276 0-0.5-0.224-0.5-0.5z" fill="#000"/><path d="m0 5.5c0-0.276 0.224-0.5 0.5-0.5h5c0.276 0 0.5 0.224 0.5 0.5s-0.224 0.5-0.5 0.5h-5c-0.276 0-0.5-0.224-0.5-0.5z" fill="#000"/><path d="m0.5 9c-0.276 0-0.5 0.224-0.5 0.5s0.224 0.5 0.5 0.5h1.5c0.276 0 0.5-0.224 0.5-0.5s-0.224-0.5-0.5-0.5h-1.5z" fill="#000"/><path d="m0 13.5c0-0.276 0.224-0.5 0.5-0.5h1c0.276 0 0.5 0.224 0.5 0.5s-0.224 0.5-0.5 0.5h-1c-0.276 0-0.5-0.224-0.5-0.5z" fill="#000"/></svg>
