<svg viewBox="0 0 16 16" xmlns="http://www.w3.org/2000/svg"><path d="m8 3c1.38 0 2.5 1.12 2.5 2.5 0 0.523-0.167 0.923-0.423 1.24-0.187 0.232-0.418 0.413-0.624 0.561l-0.167 0.117c-0.262 0.182-0.451 0.317-0.586 0.483-0.118 0.144-0.2 0.319-0.2 0.598v1c0 0.276-0.224 0.5-0.5 0.5s-0.5-0.224-0.5-0.5v-1c0-0.519 0.168-0.916 0.425-1.23 0.185-0.226 0.413-0.404 0.616-0.55l0.173-0.121c0.26-0.181 0.449-0.317 0.584-0.485 0.118-0.147 0.202-0.327 0.202-0.613 0-0.828-0.672-1.5-1.5-1.5s-1.5 0.672-1.5 1.5c0 0.276-0.224 0.5-0.5 0.5s-0.5-0.224-0.5-0.5c0-1.38 1.12-2.5 2.5-2.5z" fill="#000"/><path d="m8 11.2c0.414 0 0.75 0.336 0.75 0.75s-0.336 0.75-0.75 0.75-0.75-0.336-0.75-0.75 0.336-0.75 0.75-0.75z" fill="#000"/><path d="m1 6.4c0-2.24 0-3.36 0.436-4.22 0.384-0.753 0.995-1.36 1.75-1.75 0.856-0.436 1.98-0.436 4.22-0.436h1.2c2.24 0 3.36 0 4.22 0.436 0.753 0.383 1.36 0.995 1.75 1.75 0.436 0.856 0.436 1.98 0.436 4.22v3.2c0 2.24 0 3.36-0.436 4.22-0.384 0.753-0.995 1.36-1.75 1.75-0.856 0.436-1.98 0.436-4.22 0.436h-1.2c-2.24 0-3.36 0-4.22-0.436-0.753-0.384-1.36-0.995-1.75-1.75-0.436-0.856-0.436-1.98-0.436-4.22v-3.2zm6.4-5.4h1.2c1.14 0 1.93 7.8e-4 2.55 0.0512 0.605 0.0494 0.953 0.142 1.22 0.276 0.564 0.288 1.02 0.747 1.31 1.31 0.134 0.263 0.226 0.611 0.276 1.22 0.0504 0.617 0.0512 1.41 0.0512 2.55v3.2c0 1.14-8e-4 1.93-0.0512 2.55-0.0494 0.605-0.142 0.953-0.276 1.22-0.288 0.564-0.746 1.02-1.31 1.31-0.263 0.134-0.611 0.226-1.22 0.276-0.617 0.0504-1.41 0.0512-2.55 0.0512h-1.2c-1.14 0-1.93-8e-4 -2.55-0.0512-0.605-0.0494-0.953-0.142-1.22-0.276-0.564-0.288-1.02-0.746-1.31-1.31-0.134-0.263-0.226-0.611-0.276-1.22-0.0504-0.617-0.0512-1.41-0.0512-2.55v-3.2c0-1.14 7.8e-4 -1.93 0.0512-2.55 0.0494-0.605 0.142-0.953 0.276-1.22 0.288-0.564 0.747-1.02 1.31-1.31 0.263-0.134 0.611-0.226 1.22-0.276 0.617-0.0504 1.41-0.0512 2.55-0.0512z" clip-rule="evenodd" fill="#000" fill-rule="evenodd"/></svg>
