<svg viewBox="0 0 16 16" xmlns="http://www.w3.org/2000/svg"><path d="m15 3c0 1.66-1.34 3-3 3s-3-1.34-3-3 1.34-3 3-3 3 1.34 3 3zm-3 2c1.1 0 2-0.895 2-2s-0.895-2-2-2-2 0.895-2 2 0.895 2 2 2z" clip-rule="evenodd" fill="#000" fill-rule="evenodd"/><path d="m8.94 8.29c0.653-0.725 1.66-1.29 3.06-1.29s2.41 0.565 3.06 1.29c0.636 0.707 0.941 1.57 0.941 2.21 0 0.276-0.224 0.5-0.5 0.5s-0.5-0.224-0.5-0.5c0-0.364-0.195-0.997-0.684-1.54-0.472-0.525-1.21-0.959-2.32-0.959s-1.84 0.435-2.32 0.959c-0.489 0.543-0.684 1.18-0.684 1.54 0 0.276-0.224 0.5-0.5 0.5s-0.5-0.224-0.5-0.5c0-0.636 0.305-1.5 0.941-2.21z" fill="#000"/><path d="m7 8c0 1.66-1.34 3-3 3s-3-1.34-3-3 1.34-3 3-3 3 1.34 3 3zm-3 2c1.1 0 2-0.895 2-2s-0.895-2-2-2-2 0.895-2 2 0.895 2 2 2z" clip-rule="evenodd" fill="#000" fill-rule="evenodd"/><path d="m0.941 13.3c0.653-0.725 1.66-1.29 3.06-1.29s2.41 0.565 3.06 1.29c0.636 0.707 0.941 1.57 0.941 2.21 0 0.276-0.224 0.5-0.5 0.5s-0.5-0.224-0.5-0.5c0-0.364-0.195-0.997-0.684-1.54-0.472-0.525-1.21-0.96-2.32-0.96s-1.84 0.435-2.32 0.96c-0.489 0.543-0.684 1.18-0.684 1.54 0 0.276-0.224 0.5-0.5 0.5s-0.5-0.224-0.5-0.5c0-0.636 0.305-1.5 0.941-2.21z" fill="#000"/></svg>
