<svg viewBox="0 0 16 16" xmlns="http://www.w3.org/2000/svg"><path d="m8 9c-0.414 0-0.75-0.336-0.75-0.75v-3.5c0-0.414 0.336-0.75 0.75-0.75s0.75 0.336 0.75 0.75v3.5c0 0.414-0.336 0.75-0.75 0.75z" fill="#000"/><path d="m7 12c0-0.552 0.448-1 1-1 0.552 0 1 0.448 1 1s-0.448 1-1 1c-0.552 0-1-0.448-1-1z" fill="#000"/><path d="m0.325 11.6 5.02-9.99c1.1-2.19 4.21-2.19 5.31 0l5.02 9.99c1 2-0.436 4.36-2.66 4.36h-10c-2.22 0-3.66-2.36-2.66-4.36zm0.894 0.449 5.02-9.99c0.733-1.46 2.79-1.46 3.52 0l5.02 9.99c0.676 1.35-0.301 2.91-1.76 2.91h-10c-1.46 0-2.44-1.57-1.76-2.91z" clip-rule="evenodd" fill="#000" fill-rule="evenodd"/></svg>
