<svg fill="none" viewBox="0 0 16 16" xmlns="http://www.w3.org/2000/svg"><path d="m0.5 6c-0.275 0-0.5 0.225-0.5 0.5v3c0 0.275 0.225 0.5 0.5 0.5s0.5-0.225 0.5-0.5v-3c0-0.275-0.225-0.5-0.5-0.5zm14 0c-0.275 0-0.5 0.225-0.5 0.5v3c0 0.275 0.225 0.5 0.5 0.5s0.5-0.225 0.5-0.5v-3c0-0.275-0.225-0.5-0.5-0.5zm-12-3c-0.275 0-0.5 0.225-0.5 0.5v9c0 0.275 0.225 0.5 0.5 0.5s0.5-0.225 0.5-0.5v-9c0-0.275-0.225-0.5-0.5-0.5zm2 2c-0.275 0-0.5 0.225-0.5 0.5v5c0 0.275 0.225 0.5 0.5 0.5s0.5-0.225 0.5-0.5v-5c0-0.275-0.225-0.5-0.5-0.5zm2 2c-0.275 0-0.5 0.225-0.5 0.5v1c0 0.275 0.225 0.5 0.5 0.5s0.5-0.225 0.5-0.5v-1c0-0.275-0.225-0.5-0.5-0.5zm2-2c-0.275 0-0.5 0.225-0.5 0.5v5c0 0.275 0.225 0.5 0.5 0.5s0.5-0.225 0.5-0.5v-5c0-0.275-0.225-0.5-0.5-0.5zm2-4c-0.275 0-0.5 0.225-0.5 0.5v13c0 0.275 0.225 0.5 0.5 0.5s0.5-0.225 0.5-0.5v-13c0-0.275-0.225-0.5-0.5-0.5zm2 2c-0.275 0-0.5 0.225-0.5 0.5v9c0 0.275 0.225 0.5 0.5 0.5s0.5-0.225 0.5-0.5v-9c0-0.275-0.225-0.5-0.5-0.5z" fill="#000"/></svg>
