<svg fill="none" viewBox="0 0 16 16" xmlns="http://www.w3.org/2000/svg"><path d="m7 3c0.552 0 1 0.448 1 1v0.4c0 0.296 0.00122 0.459 0.0107 0.575 3.4e-4 0.0041 6.4e-4 8e-3 9.8e-4 0.0117 0.00403 3.8e-4 0.0082 0.00159 0.0127 0.00196 0.117 0.00952 0.279 0.0107 0.575 0.0107h0.411c0.191 0 0.29-4.6e-4 0.361-0.00488l0.00586-9.8e-4s0.00284-0.00305 0.00391-0.00488c0.0358-0.0618 0.0804-0.15 0.166-0.321l0.558-1.12 0.0713-0.121c0.185-0.268 0.492-0.432 0.823-0.432h4c0.552 0 1 0.448 1 1v3c0 0.449-0.3 0.844-0.732 0.964l-4.57 1.27c-0.364 2.64-2.57 4.77-5.32 4.77-2.99 0-5.38-2.49-5.38-5.5 0-3.01 2.38-5.5 5.38-5.5h1.62zm-1.62 1c-2.42 0-4.38 2.01-4.38 4.5 0 2.49 1.96 4.5 4.38 4.5 2.15 0 3.93-1.62 4.3-3.73l0.0312-0.205c0.0328-0.252 0.0499-0.377 0.0908-0.456 0.0403-0.0773 0.0806-0.125 0.151-0.176 0.036-0.0258 0.08-0.0456 0.141-0.0664l0.242-0.0713 4.67-1.3v-3h-4l-0.558 1.12-0.195 0.376c-0.0552 0.0951-0.105 0.165-0.165 0.224l-0.084 0.0723c-0.0871 0.0682-0.185 0.122-0.29 0.158-0.158 0.0546-0.338 0.0547-0.697 0.0547h-0.411c-0.56 0-0.84-4.1e-4 -1.05-0.109-0.141-0.0719-0.262-0.176-0.354-0.303l-0.082-0.134c-0.0818-0.16-0.102-0.358-0.107-0.684l-0.00195-0.37v-0.4h-1.62z" clip-rule="evenodd" fill="#000" fill-rule="evenodd"/></svg>
