<svg viewBox="0 0 16 16" xmlns="http://www.w3.org/2000/svg"><path d="m0.146 13.1c0.195-0.195 0.512-0.195 0.707 0l1.15 1.15v-12.6l-1.15 1.15c-0.195 0.195-0.512 0.195-0.707 0-0.195-0.195-0.195-0.512 0-0.707l2-2c0.0479-0.0479 0.103-0.0841 0.162-0.109 0.059-0.0244 0.124-0.0379 0.191-0.0379 0.0678 0 0.132 0.0135 0.191 0.0379 0.059 0.0244 0.114 0.0606 0.162 0.109l2 2c0.195 0.195 0.195 0.512 0 0.707-0.195 0.195-0.512 0.195-0.707 0l-1.15-1.15v12.6l1.15-1.15c0.195-0.195 0.512-0.195 0.707 0 0.195 0.195 0.195 0.512 0 0.707l-2 2c-0.0479 0.0479-0.103 0.0841-0.162 0.108-0.059 0.0244-0.124 0.0379-0.191 0.0379-0.0678 0-0.132-0.0135-0.191-0.0379-0.059-0.0244-0.114-0.0606-0.162-0.108l-2-2c-0.195-0.195-0.195-0.512 0-0.707z" fill="#000"/><path d="m13.1 11.2c-0.736 0.524-1.64 0.832-2.61 0.832-2.49 0-4.5-2.01-4.5-4.5s2.01-4.5 4.5-4.5c2.49 0 4.5 2.01 4.5 4.5 0 0.972-0.308 1.87-0.832 2.61l1.61 1.61c0.293 0.293 0.293 0.768 0 1.06s-0.768 0.293-1.06 0l-1.61-1.61zm0.893-3.67c0 1.93-1.57 3.5-3.5 3.5s-3.5-1.57-3.5-3.5 1.57-3.5 3.5-3.5 3.5 1.57 3.5 3.5z" clip-rule="evenodd" fill="#000" fill-rule="evenodd"/></svg>
