<svg viewBox="0 0 12 12" xmlns="http://www.w3.org/2000/svg"><path d="m6.56 1c0.274 0.0307 0.472 0.278 0.441 0.553l-1 9c-0.0307 0.274-0.278 0.472-0.553 0.441-0.274-0.0307-0.472-0.278-0.441-0.553l1-9c0.0308-0.274 0.278-0.472 0.553-0.441z" fill="#000"/><path d="m3.18 3.12c0.212-0.177 0.527-0.148 0.704 0.0635 0.177 0.212 0.148 0.527-0.0635 0.704l-2.54 2.12 2.54 2.12c0.212 0.177 0.24 0.492 0.0635 0.704-0.177 0.212-0.492 0.24-0.704 0.0635l-3-2.5c-0.114-0.095-0.18-0.236-0.18-0.384 5.07e-5 -0.148 0.0659-0.289 0.18-0.384l3-2.5z" fill="#000"/><path d="m8.12 3.18c0.177-0.212 0.492-0.24 0.704-0.0635l3 2.5c0.114 0.095 0.18 0.236 0.18 0.384 0 0.148-0.0659 0.289-0.18 0.384l-3 2.5c-0.212 0.177-0.527 0.148-0.704-0.0635-0.177-0.212-0.148-0.527 0.0635-0.704l2.54-2.12-2.54-2.12c-0.212-0.177-0.24-0.492-0.0635-0.704z" fill="#000"/></svg>
