<svg viewBox="0 0 16 16" xmlns="http://www.w3.org/2000/svg"><path d="m7.52 2c-0.00591-2.1e-4 -0.0118-3.1e-4 -0.0178-3.1e-4l-1.2-1.6c-0.0932-0.124-0.214-0.225-0.353-0.294-0.139-0.0694-0.292-0.106-0.447-0.106h-3.5c-0.53 0-1.04 0.211-1.41 0.586-0.375 0.375-0.586 0.884-0.586 1.41v10c0 0.53 0.211 1.04 0.586 1.41 0.375 0.375 0.884 0.586 1.41 0.586h4v-1h-4c-0.265 0-0.52-0.105-0.707-0.293-0.188-0.188-0.293-0.442-0.293-0.707v-7l3.88 3e-5c0.203 1.9e-4 0.383 3.5e-4 0.557-0.0415 0.153-0.0368 0.299-0.0974 0.434-0.18 0.153-0.0936 0.279-0.221 0.423-0.365l1.41-1.41h6.29c0.265 0 0.52 0.105 0.707 0.293s0.293 0.442 0.293 0.707v2h1v-2c0-0.53-0.211-1.04-0.586-1.41s-0.884-0.586-1.41-0.586h-6.48zm-2.02-1 1.2 1.6-1.08 1.08c-0.19 0.19-0.229 0.225-0.268 0.248-0.0447 0.0274-0.0935 0.0476-0.145 0.0599-0.0442 0.0106-0.0969 0.0138-0.365 0.0138h-3.84v-2c0-0.265 0.105-0.52 0.293-0.707 0.188-0.188 0.442-0.293 0.707-0.293h3.5z" clip-rule="evenodd" fill="#000" fill-rule="evenodd"/><path d="m11.5 7c0.276 0 0.5 0.224 0.5 0.5v3.5h3.5c0.276 0 0.5 0.224 0.5 0.5s-0.224 0.5-0.5 0.5h-3.5v3.5c0 0.276-0.224 0.5-0.5 0.5s-0.5-0.224-0.5-0.5v-3.5h-3.5c-0.276 0-0.5-0.224-0.5-0.5s0.224-0.5 0.5-0.5h3.5v-3.5c0-0.276 0.224-0.5 0.5-0.5z" fill="#000"/></svg>
