<svg xmlns="http://www.w3.org/2000/svg" viewBox="0 0 16 16" fill="none">
  <path fill="#000"
    d="M2 11.2V10H.5a.5.5 0 0 1 0-1H2V7H.5a.5.5 0 0 1 0-1H2V4.8c0-.29 0-.556.002-.8H.5a.5.5 0 0 1 0-1h1.529c.036-.588.116-1.006.298-1.362A3 3 0 0 1 3.638.327C4.28 0 5.12 0 6.8 0h3.4c1.68 0 2.52 0 3.162.327a3 3 0 0 1 1.311 1.311c.181.356.262.774.298 1.362h.529a.5.5 0 0 1 .5.5v2a.5.5 0 0 1-.5.5H15v1.5a.5.5 0 0 1-1 0V4.8c0-.857 0-1.439-.038-1.889-.035-.438-.1-.663-.18-.819a2 2 0 0 0-.874-.874c-.156-.08-.38-.145-.819-.18C11.639 1 11.057 1 10.2 1H6.8c-.857 0-1.439 0-1.889.038-.438.035-.663.1-.819.18a2 2 0 0 0-.874.874c-.08.156-.145.38-.18.819C3 3.361 3 3.943 3 4.8v6.4c0 .857 0 1.439.038 1.889.035.438.1.663.18.819a2 2 0 0 0 .874.874c.156.08.38.145.819.18C5.361 15 5.943 15 6.8 15h3.4c.51 0 .922 0 1.267-.008a.518.518 0 0 1 .533.51.483.483 0 0 1-.468.489C11.155 16 10.717 16 10.2 16H6.8c-1.68 0-2.52 0-3.162-.327a3 3 0 0 1-1.311-1.311c-.182-.356-.262-.774-.298-1.362H.5a.5.5 0 0 1 0-1h1.502C2 11.756 2 11.49 2 11.2Z" />
  <path fill="#000" d="M8.5 11a.5.5 0 0 0 0 1h6a.5.5 0 0 0 0-1h-6Z" />
</svg>