<svg viewBox="0 0 16 16" xmlns="http://www.w3.org/2000/svg"><path d="m12.5 11h-10.8l2.15-2.15c0.2-0.2 0.2-0.51 0-0.711s-0.51-0.2-0.711 0l-3 3.01c-0.04 0.05-0.0801 0.1-0.1 0.16-0.05 0.12-0.05 0.26 0 0.38 0.02 0.0601 0.0601 0.11 0.1 0.15l3 3c0.2 0.2 0.51 0.2 0.711 0 0.2-0.2 0.2-0.51 0-0.71l-2.15-2.15h10.8c0.28 0 0.5-0.22 0.5-0.5s-0.22-0.5-0.5-0.5v0.02z" clip-rule="evenodd" fill="#000" fill-rule="evenodd"/><path d="m16 4.69c0.05-0.12 0.05-0.26 0-0.38-0.0301-0.06-0.0601-0.12-0.11-0.16l-3-3c-0.2-0.2-0.51-0.2-0.711 0-0.2 0.2-0.2 0.51 0 0.711l2.15 2.15h-10.8c-0.28 0-0.5 0.22-0.5 0.5s0.22 0.5 0.5 0.5h10.8l-2.15 2.15c-0.2 0.2-0.2 0.51 0 0.711 0.2 0.2 0.51 0.2 0.711 0l3-3c0.04-0.05 0.08-0.1 0.11-0.16v-0.02z" clip-rule="evenodd" fill="#000" fill-rule="evenodd"/></svg>
