<svg fill="none" viewBox="0 0 16 16" xmlns="http://www.w3.org/2000/svg"><path d="m8 0c2.12 0 4.16 0.843 5.66 2.34 1.5 1.5 2.34 3.54 2.34 5.66 0 2.12-0.843 4.16-2.34 5.66-1.5 1.5-3.54 2.34-5.66 2.34-2.12 0-4.16-0.843-5.66-2.34-1.5-1.5-2.34-3.54-2.34-5.66 0-2.12 0.843-4.16 2.34-5.66 1.5-1.5 3.54-2.34 5.66-2.34zm0 1c-1.86 0-3.64 0.738-4.95 2.05-1.31 1.31-2.05 3.09-2.05 4.95s0.738 3.64 2.05 4.95c1.31 1.31 3.09 2.05 4.95 2.05s3.64-0.738 4.95-2.05c1.31-1.31 2.05-3.09 2.05-4.95s-0.738-3.64-2.05-4.95c-1.31-1.31-3.09-2.05-4.95-2.05zm-2.85 4.15c0.0464-0.0466 0.102-0.0835 0.162-0.109 0.0607-0.0252 0.126-0.0382 0.192-0.0382s0.131 0.013 0.192 0.0382c0.0608 0.0252 0.116 0.0622 0.162 0.109l2.15 2.15 2.15-2.15c0.0465-0.0464 0.102-0.0832 0.162-0.108s0.126-0.038 0.192-0.038c0.0657 5e-5 0.131 0.013 0.191 0.0382 0.0607 0.0252 0.116 0.0621 0.162 0.109s0.0832 0.102 0.108 0.162c0.0251 0.0607 0.038 0.126 0.038 0.191-1e-4 0.0657-0.0131 0.131-0.0382 0.191-0.0252 0.0607-0.0621 0.116-0.109 0.162l-2.15 2.15 2.15 2.15c0.0911 0.0943 0.142 0.221 0.14 0.352-0.0011 0.131-0.0537 0.256-0.146 0.349s-0.218 0.145-0.349 0.146c-0.131 0.0012-0.257-0.0492-0.352-0.14l-2.15-2.15-2.14 2.15c-0.0938 0.0939-0.221 0.147-0.354 0.147-0.133 1e-4 -0.26-0.0525-0.354-0.146s-0.147-0.221-0.147-0.354c-9e-5 -0.133 0.0525-0.26 0.146-0.354l2.15-2.15-2.15-2.15c-0.0466-0.0464-0.0835-0.102-0.109-0.162-0.0252-0.0607-0.0382-0.126-0.0382-0.192s0.013-0.131 0.0382-0.192c0.0252-0.0608 0.0622-0.116 0.109-0.162z" clip-rule="evenodd" fill="#000" fill-rule="evenodd"/></svg>
