<svg fill="none" viewBox="0 0 16 16" xmlns="http://www.w3.org/2000/svg"><path d="m14.5 11c0.133 0 0.26 0.0527 0.354 0.146 0.0937 0.0938 0.146 0.221 0.146 0.354v2c0 0.663-0.263 1.3-0.732 1.77-0.469 0.469-1.1 0.732-1.77 0.732h-10c-0.663 0-1.3-0.263-1.77-0.732-0.469-0.469-0.732-1.1-0.732-1.77v-2c0-0.133 0.0527-0.26 0.146-0.354 0.0938-0.0937 0.221-0.146 0.354-0.146s0.26 0.0527 0.354 0.146c0.0938 0.0938 0.146 0.221 0.146 0.354v2c0 0.398 0.158 0.779 0.439 1.06s0.663 0.439 1.06 0.439h10c0.398 0 0.779-0.158 1.06-0.439s0.439-0.663 0.439-1.06v-2c0-0.133 0.0527-0.26 0.146-0.354 0.0938-0.0937 0.221-0.146 0.354-0.146zm-7-11c0.133 0 0.26 0.0527 0.354 0.146 0.0938 0.0938 0.146 0.221 0.146 0.354v8.79l2.15-2.15c0.0939-0.0939 0.221-0.147 0.354-0.147s0.26 0.0527 0.354 0.147 0.147 0.221 0.147 0.354-0.0527 0.26-0.147 0.354l-3 3c-0.0464 0.0466-0.102 0.0835-0.162 0.109-0.0607 0.0252-0.126 0.0382-0.192 0.0382s-0.131-0.013-0.192-0.0382c-0.0608-0.0252-0.116-0.0621-0.162-0.109l-3-3c-0.0465-0.0465-0.0834-0.102-0.109-0.162s-0.0381-0.126-0.0381-0.192 0.013-0.131 0.0381-0.192 0.062-0.116 0.109-0.162 0.102-0.0834 0.162-0.109 0.126-0.0381 0.192-0.0381 0.131 0.013 0.192 0.0381 0.116 0.062 0.162 0.109l2.15 2.15v-8.79c0-0.133 0.0527-0.26 0.146-0.354 0.0938-0.0938 0.221-0.146 0.354-0.146z" fill="#000"/></svg>
