<svg xmlns="http://www.w3.org/2000/svg" viewBox="0 0 16 16" fill="none">
  <path fill="#000"
    d="M5 4c0-.14 0-.209.008-.267a.85.85 0 0 1 .725-.725C5.79 3 5.86 3 6 3s.209 0 .267.008a.85.85 0 0 1 .725.725C7 3.79 7 3.86 7 4s0 .209-.008.267a.85.85 0 0 1-.725.725C6.21 5 6.14 5 6 5s-.209 0-.267-.008a.85.85 0 0 1-.725-.725C5 4.21 5 4.14 5 4Zm0 4c0-.14 0-.209.008-.267a.85.85 0 0 1 .725-.725C5.79 7 5.86 7 6 7s.209 0 .267.008a.85.85 0 0 1 .725.725C7 7.79 7 7.86 7 8s0 .209-.008.267a.85.85 0 0 1-.725.725C6.21 9 6.14 9 6 9s-.209 0-.267-.008a.85.85 0 0 1-.725-.725C5 8.21 5 8.14 5 8Zm0 4c0-.14 0-.209.008-.267a.85.85 0 0 1 .725-.725C5.79 11 5.86 11 6 11s.209 0 .267.008a.85.85 0 0 1 .725.725C7 11.79 7 11.86 7 12s0 .209-.008.267a.85.85 0 0 1-.725.725C6.21 13 6.14 13 6 13s-.209 0-.267-.008a.85.85 0 0 1-.725-.725C5 12.21 5 12.14 5 12Zm4-8c0-.14 0-.209.008-.267a.85.85 0 0 1 .725-.725C9.79 3 9.86 3 10 3s.209 0 .267.008a.85.85 0 0 1 .725.725C11 3.79 11 3.86 11 4s0 .209-.008.267a.85.85 0 0 1-.725.725C10.21 5 10.14 5 10 5s-.209 0-.267-.008a.85.85 0 0 1-.725-.725C9 4.21 9 4.14 9 4Zm0 4c0-.14 0-.209.008-.267a.85.85 0 0 1 .725-.725C9.79 7 9.86 7 10 7s.209 0 .267.008a.85.85 0 0 1 .725.725C11 7.79 11 7.86 11 8s0 .209-.008.267a.85.85 0 0 1-.725.725C10.21 9 10.14 9 10 9s-.209 0-.267-.008a.85.85 0 0 1-.725-.725C9 8.21 9 8.14 9 8Zm0 4c0-.14 0-.209.008-.267a.85.85 0 0 1 .725-.725C9.79 11 9.86 11 10 11s.209 0 .267.008a.85.85 0 0 1 .725.725C11 11.79 11 11.86 11 12s0 .209-.008.267a.85.85 0 0 1-.725.725C10.21 13 10.14 13 10 13s-.209 0-.267-.008a.85.85 0 0 1-.725-.725C9 12.21 9 12.14 9 12Z" />
</svg>