<svg fill="none" viewBox="0 0 16 16" xmlns="http://www.w3.org/2000/svg"><path d="m3.79 7.5 4.71 4.71-2.65 2.65c-0.0463 0.0467-0.101 0.0837-0.162 0.109-0.0607 0.0253-0.126 0.0383-0.191 0.0383s-0.131-0.013-0.191-0.0383c-0.0607-0.0252-0.116-0.0622-0.162-0.109l-4-4c-0.0466-0.0464-0.0835-0.102-0.109-0.162-0.0252-0.0607-0.0382-0.126-0.0382-0.192s0.013-0.131 0.0382-0.192c0.0252-0.0608 0.0622-0.116 0.109-0.162l2.65-2.65zm6.35-6.35c0.0463-0.0466 0.101-0.0837 0.162-0.109 0.0606-0.0253 0.126-0.0383 0.191-0.0383s0.131 0.013 0.192 0.0383 0.116 0.0623 0.162 0.109l4 4c0.0468 0.0463 0.084 0.101 0.109 0.162 0.0254 0.0608 0.0385 0.126 0.0385 0.192s-0.0131 0.131-0.0385 0.192c-0.0253 0.0608-0.0625 0.116-0.109 0.162l-5.65 5.65-4.71-4.71 5.65-5.65zm-3.03 13.9h4.38c0.133 0 0.26 0.0527 0.354 0.146 0.0937 0.0938 0.146 0.221 0.146 0.354s-0.0527 0.26-0.146 0.354c-0.0938 0.0937-0.221 0.146-0.354 0.146h-6c-0.414 0-0.79-0.168-1.06-0.439l-4-4c-0.281-0.282-0.439-0.663-0.439-1.06s0.158-0.78 0.439-1.06l9-9c0.139-0.139 0.304-0.25 0.486-0.325 0.182-0.0753 0.377-0.114 0.574-0.114 0.415 0 0.79 0.168 1.06 0.439l4 4c0.27 0.271 0.439 0.647 0.439 1.06s-0.168 0.79-0.44 1.06l-8.44 8.44z" clip-rule="evenodd" fill="#000" fill-rule="evenodd"/></svg>
