<svg viewBox="0 0 16 16" xmlns="http://www.w3.org/2000/svg"><path d="m15 1.31c-0.0244-0.059-0.0606-0.114-0.108-0.162-0.048-0.0479-0.103-0.0841-0.162-0.109-0.059-0.0244-0.124-0.0379-0.191-0.0379h-4c-0.276 0-0.5 0.224-0.5 0.5s0.224 0.5 0.5 0.5h2.79l-7.15 7.15c-0.195 0.195-0.195 0.512 0 0.707 0.195 0.195 0.512 0.195 0.707 0l7.15-7.15v2.79c0 0.276 0.224 0.5 0.5 0.5s0.5-0.224 0.5-0.5v-4c-4e-4 -0.0667-0.0139-0.13-0.0379-0.188z" fill="#000"/><path d="m3.5 3c-1.38 0-2.5 1.12-2.5 2.5v7c0 1.38 1.12 2.5 2.5 2.5h7c1.38 0 2.5-1.12 2.5-2.5v-5c0-0.276-0.224-0.5-0.5-0.5s-0.5 0.224-0.5 0.5v5c0 0.828-0.672 1.5-1.5 1.5h-7c-0.828 0-1.5-0.672-1.5-1.5v-7c0-0.828 0.672-1.5 1.5-1.5h5c0.276 0 0.5-0.224 0.5-0.5s-0.224-0.5-0.5-0.5h-5z" fill="#000"/></svg>
