<svg xmlns="http://www.w3.org/2000/svg" viewBox="0 0 16 16" fill="none">
  <path fill="#000"
    d="M8 3c2.659 0 4.997 1.388 6.992 4.115a1.5 1.5 0 0 1 0 1.77C12.997 11.612 10.659 13 8 13s-4.997-1.388-6.992-4.115L.926 8.76a1.5 1.5 0 0 1 .082-1.645l.215-.287C3.17 4.29 5.436 3 8 3Zm0 1C5.688 4 3.634 5.219 1.815 7.705l-.047.079a.5.5 0 0 0 0 .432l.044.074c1.754 2.4 3.724 3.618 5.932 3.705L8 12c2.312 0 4.366-1.219 6.185-3.705a.5.5 0 0 0 .047-.511l-.045-.075c-1.753-2.398-3.723-3.617-5.931-3.704L8 4Zm0 1a.5.5 0 0 1 0 1 2 2 0 1 0 1.836 1.205.5.5 0 0 1 .917-.398A3 3 0 1 1 8 5Z" />
</svg>