<svg xmlns="http://www.w3.org/2000/svg" viewBox="0 0 16 16" fill="none">
  <path fill="#000"
    d="M11.145 2.854a.5.5 0 1 1 .708-.708l4 4a.5.5 0 0 1 0 .708l-4 4a.5.5 0 1 1-.708-.708L14.292 7H6.5c-.939 0-1.618 0-2.154.037-.533.036-.889.107-1.185.23A3.5 3.5 0 0 0 1.266 9.16c-.123.296-.194.652-.23 1.184-.037.537-.037 1.216-.037 2.155a.5.5 0 0 1-1 0v-.019c0-.916 0-1.629.04-2.204.04-.583.12-1.06.303-1.5a4.5 4.5 0 0 1 2.435-2.434c.439-.182.916-.264 1.5-.304C4.85 6 5.563 6 6.48 6h7.812l-3.147-3.146Z" />
</svg>