<svg viewBox="0 0 16 16" xmlns="http://www.w3.org/2000/svg"><path d="m8 1.5c0-0.276-0.224-0.5-0.5-0.5h-3.3c-1.12 0-1.68 0-2.11 0.218-0.376 0.192-0.682 0.498-0.874 0.874-0.218 0.428-0.218 0.988-0.218 2.11v3.3c0 0.276 0.224 0.5 0.5 0.5s0.5-0.224 0.5-0.5v-3.3c0-0.577 7.8e-4 -0.949 0.0239-1.23 0.0222-0.272 0.0599-0.372 0.0851-0.422 0.0959-0.188 0.249-0.341 0.437-0.437 0.0494-0.0252 0.15-0.0629 0.422-0.0851 0.283-0.0232 0.656-0.0239 1.23-0.0239h3.3c0.276 0 0.5-0.224 0.5-0.5z" fill="#000"/><path d="m15 11.8v-3.3c0-0.276-0.224-0.5-0.5-0.5s-0.5 0.224-0.5 0.5v3.3c0 0.577-8e-4 0.949-0.0239 1.23-0.0222 0.272-0.0599 0.372-0.0851 0.422-0.0959 0.188-0.249 0.341-0.437 0.437-0.0495 0.0252-0.15 0.0629-0.422 0.0851-0.283 0.0231-0.656 0.0239-1.23 0.0239h-3.3c-0.276 0-0.5 0.224-0.5 0.5s0.224 0.5 0.5 0.5h3.3c1.12 0 1.68 0 2.11-0.218 0.376-0.192 0.682-0.498 0.874-0.874 0.218-0.428 0.218-0.988 0.218-2.11z" fill="#000"/><path d="m6.85 9.15c0.0479 0.0479 0.0841 0.103 0.109 0.162 0.0249 0.0602 0.0376 0.124 0.0379 0.188l1e-5 0.00335v3c0 0.276-0.224 0.5-0.5 0.5s-0.5-0.224-0.5-0.5v-1.79l-4.15 4.15c-0.195 0.195-0.512 0.195-0.707 0-0.195-0.195-0.195-0.512 0-0.707l4.15-4.15h-1.79c-0.276 0-0.5-0.224-0.5-0.5s0.224-0.5 0.5-0.5h3c8e-3 0 0.0165 1.9e-4 0.0245 5.7e-4 0.0571 0.00273 0.114 0.0152 0.167 0.0374 0.059 0.0244 0.114 0.0606 0.162 0.109z" fill="#000"/><path d="m10.7 6 4.15-4.15c0.195-0.195 0.195-0.512 0-0.707-0.195-0.195-0.512-0.195-0.707 0l-4.15 4.15v-1.79c0-0.276-0.224-0.5-0.5-0.5s-0.5 0.224-0.5 0.5v3l1e-5 0.00349c3.9e-4 0.0667 0.0138 0.13 0.0379 0.188 0.0244 0.059 0.0606 0.114 0.109 0.162 0.0479 0.0479 0.103 0.0841 0.162 0.109 0.0536 0.0222 0.11 0.0346 0.167 0.0374 0.00798 3.8e-4 0.016 5.7e-4 0.024 5.7e-4h3c0.276 0 0.5-0.224 0.5-0.5s-0.224-0.5-0.5-0.5h-1.79z" fill="#000"/></svg>
