<svg xmlns="http://www.w3.org/2000/svg" viewBox="0 0 16 16" fill="none">
  <path fill="#000"
    d="M8 1.5a.5.5 0 0 0-.5-.5H4.2c-1.12 0-1.68 0-2.108.218a2 2 0 0 0-.874.874C1 2.52 1 3.08 1 4.2v3.3a.5.5 0 0 0 1 0V4.2c0-.577 0-.949.024-1.232.022-.272.06-.373.085-.422a1 1 0 0 1 .437-.437c.05-.025.15-.063.422-.085C3.25 2 3.623 2 4.2 2h3.3a.5.5 0 0 0 .5-.5Zm7 10.3V8.5a.5.5 0 0 0-1 0v3.3c0 .577 0 .949-.024 1.232-.022.272-.06.373-.085.422a1 1 0 0 1-.437.437c-.05.025-.15.063-.422.085C12.75 14 12.377 14 11.8 14H8.5a.5.5 0 0 0 0 1h3.3c1.12 0 1.68 0 2.108-.218a2 2 0 0 0 .874-.874C15 13.48 15 12.92 15 11.8ZM6.854 9.146A.498.498 0 0 1 7 9.497V12.5a.5.5 0 0 1-1 0v-1.793l-4.146 4.147a.5.5 0 0 1-.708-.708L5.293 10H3.5a.5.5 0 0 1 0-1h3a.526.526 0 0 1 .191.038c.06.024.115.06.163.108ZM10.707 6l4.147-4.146a.5.5 0 0 0-.708-.708L10 5.293V3.5a.5.5 0 0 0-1 0v3.003A.498.498 0 0 0 9.5 7h3a.5.5 0 0 0 0-1h-1.793Z" />
</svg>