<svg xmlns="http://www.w3.org/2000/svg" viewBox="0 0 16 16" fill="none">
  <path fill="#000"
    d="M13 3.5v3a.5.5 0 0 1-1 0V4.707L9.854 6.854a.5.5 0 1 1-.708-.708L11.293 4H9.5a.5.5 0 0 1 0-1h3a.499.499 0 0 1 .351.144l.005.005a.5.5 0 0 1 .144.348V3.5ZM3.5 9a.5.5 0 0 1 .5.5v1.793l2.146-2.147a.5.5 0 1 1 .708.708L4.707 12H6.5a.5.5 0 0 1 0 1H3.497A.5.5 0 0 1 3 12.5v-3a.5.5 0 0 1 .5-.5Z" />
  <path fill="#000" fill-rule="evenodd"
    d="M0 4.8c0-1.68 0-2.52.327-3.162A3 3 0 0 1 1.638.327C2.28 0 3.12 0 4.8 0h6.4c1.68 0 2.52 0 3.162.327a3 3 0 0 1 1.311 1.311C16 2.28 16 3.12 16 4.8v6.4c0 1.68 0 2.52-.327 3.162a3 3 0 0 1-1.311 1.311C13.72 16 12.88 16 11.2 16H4.8c-1.68 0-2.52 0-3.162-.327a3 3 0 0 1-1.311-1.311C0 13.72 0 12.88 0 11.2V4.8ZM4.8 1h6.4c.857 0 1.439 0 1.889.038.438.035.663.1.819.18a2 2 0 0 1 .874.874c.08.156.145.38.18.819C15 3.361 15 3.943 15 4.8v6.4c0 .857 0 1.439-.038 1.889-.035.438-.1.663-.18.819a2 2 0 0 1-.874.874c-.156.08-.38.145-.819.18-.45.037-1.032.038-1.889.038H4.8c-.857 0-1.439 0-1.889-.038-.438-.035-.663-.1-.819-.18a2 2 0 0 1-.874-.874c-.08-.156-.145-.38-.18-.819C1 12.639 1 12.057 1 11.2V4.8c0-.857 0-1.439.038-1.889.035-.438.1-.663.18-.819a2 2 0 0 1 .874-.874c.156-.08.38-.145.819-.18C3.361 1 3.943 1 4.8 1Z"
    clip-rule="evenodd" />
</svg>