<svg xmlns="http://www.w3.org/2000/svg" viewBox="0 0 16 16" fill="none">
  <path fill="#000" fill-rule="evenodd"
    d="M5 7.59c0-.55 0-.826.105-1.037a1 1 0 0 1 .448-.448c.117-.058.254-.084.447-.096V5a2 2 0 1 1 4 0v1.01c.193.01.33.037.447.095a1 1 0 0 1 .448.448C11 6.764 11 7.039 11 7.59v.82c0 .55 0 .826-.105 1.037a1 1 0 0 1-.448.448C10.236 10 9.961 10 9.41 10H6.59c-.55 0-.826 0-1.037-.105a1 1 0 0 1-.448-.448C5 9.236 5 8.961 5 8.41v-.82ZM9 6V5a1 1 0 0 0-2 0v1h2Z"
    clip-rule="evenodd" />
  <path fill="#000" fill-rule="evenodd"
    d="M.327 1.638C0 2.28 0 3.12 0 4.8v4.4c0 1.68 0 2.52.327 3.162a3 3 0 0 0 1.311 1.311C2.28 14 3.12 14 4.8 14H6v.5a.5.5 0 0 1-.5.5h-1a.5.5 0 0 0 0 1h7a.5.5 0 0 0 0-1h-1a.5.5 0 0 1-.5-.5V14h1.2c1.68 0 2.52 0 3.162-.327a3 3 0 0 0 1.311-1.311C16 11.72 16 10.88 16 9.2V4.8c0-1.68 0-2.52-.327-3.162A3 3 0 0 0 14.362.327C13.72 0 12.88 0 11.2 0H4.8C3.12 0 2.28 0 1.638.327A3 3 0 0 0 .327 1.638ZM11.2 1H4.8c-.857 0-1.439 0-1.889.038-.438.035-.663.1-.819.18a2 2 0 0 0-.874.874c-.08.156-.145.38-.18.819C1 3.361 1 3.943 1 4.8v4.4c0 .857 0 1.439.038 1.889.035.438.1.663.18.819a2 2 0 0 0 .874.874c.156.08.38.145.819.18C3.361 13 3.943 13 4.8 13h6.4c.857 0 1.439 0 1.889-.038.438-.035.663-.1.819-.18a2 2 0 0 0 .874-.874c.08-.156.145-.38.18-.819C15 10.639 15 10.057 15 9.2V4.8c0-.857 0-1.439-.038-1.889-.035-.438-.1-.663-.18-.819a2 2 0 0 0-.874-.874c-.156-.08-.38-.145-.819-.18C12.639 1 12.057 1 11.2 1Z"
    clip-rule="evenodd" />
</svg>