<svg xmlns="http://www.w3.org/2000/svg" viewBox="0 0 16 16" fill="none">
  <path fill="#000"
    d="M2.146 5.146a.5.5 0 1 1 .708.708L1.707 7H4.5a.5.5 0 0 1 0 1H1.707l1.147 1.146a.5.5 0 1 1-.708.708l-2-2a.5.5 0 0 1 0-.708l2-2Zm5-5a.5.5 0 0 1 .708 0l2 2a.5.5 0 0 1-.708.708L8 1.707V4.5a.5.5 0 0 1-1 0V1.707L5.854 2.854a.5.5 0 0 1-.708-.708l2-2Zm5.708 5a.5.5 0 1 0-.708.708L13.293 7H10.5a.5.5 0 1 0 0 1h2.793l-1.147 1.146a.5.5 0 0 0 .708.708l2-2a.5.5 0 0 0 0-.708l-2-2ZM8 13.293V10.5a.5.5 0 1 0-1 0v2.793l-1.146-1.147a.5.5 0 0 0-.708.708l2 2a.5.5 0 0 0 .708 0l2-2a.5.5 0 0 0-.708-.708L8 13.293Z" />
</svg>