<svg xmlns="http://www.w3.org/2000/svg" viewBox="0 0 16 16" fill="none">
  <path fill="#000"
    d="M12.613 0c.703 0 1.367.275 1.864.772l.75.751A2.62 2.62 0 0 1 16 3.387c0 .703-.275 1.367-.77 1.862L4.73 15.852a.5.5 0 0 1-.356.148H.5a.5.5 0 0 1-.5-.5v-3.75a.5.5 0 0 1 .146-.353L10.75.772A2.624 2.624 0 0 1 12.613 0ZM9.741 3.198 1 11.956V15h3.165l8.646-8.732-3.07-3.07ZM12.613 1c-.438 0-.846.17-1.157.479L10.447 2.49l3.068 3.068 1.006-1.014a1.62 1.62 0 0 0 .471-.995L15 3.387c0-.438-.17-.847-.48-1.157l-.75-.75c-.31-.31-.72-.48-1.157-.48Z" />
</svg>