<svg fill="none" viewBox="0 0 16 16" xmlns="http://www.w3.org/2000/svg"><path d="m11.4 0.439c-0.69-0.69-1.84-0.548-2.35 0.289l-0.809 1.35-1.89 1.89-4.1 1.87c-0.953 0.433-1.18 1.69-0.44 2.43l2.63 2.63-3.65 3.65c-0.195 0.195-0.195 0.512 0 0.707 0.195 0.195 0.512 0.195 0.707 0l3.65-3.65 2.63 2.63c0.741 0.741 1.99 0.514 2.43-0.44l1.87-4.1 1.89-1.89 1.35-0.809c0.837-0.502 0.979-1.66 0.289-2.35l-4.19-4.19zm-1.49 0.803c0.167-0.279 0.552-0.326 0.782-0.0963l4.19 4.19c0.23 0.23 0.183 0.615-0.0963 0.782l-1.4 0.841c-0.0351 0.021-0.0674 0.0463-0.0964 0.0752l-2 2c-0.0423 0.0424-0.0768 0.0921-0.102 0.147l-1.9 4.19c-0.144 0.318-0.562 0.394-0.809 0.147l-5.96-5.96c-0.247-0.247-0.171-0.664 0.147-0.809l4.19-1.9c0.0546-0.0248 0.104-0.0592 0.147-0.102l2-2c0.0289-0.0289 0.0542-0.0612 0.0752-0.0963l0.841-1.4z" fill="#000"/></svg>
