<svg xmlns="http://www.w3.org/2000/svg" viewBox="0 0 16 16" fill="none">
  <path fill="#000" fill-rule="evenodd"
    d="M6.248 14.309a4 4 0 1 1 1.06-1.06l1.472 1.47a.75.75 0 1 1-1.06 1.061l-1.472-1.47ZM7 11a3 3 0 1 1-6 0 3 3 0 0 1 6 0Z"
    clip-rule="evenodd" />
  <path fill="#000" fill-rule="evenodd"
    d="M5.5 1a.5.5 0 0 0-.5.5V5a.5.5 0 0 1-1 0H3a1 1 0 0 0-1 1 .5.5 0 0 1-1 0 2 2 0 0 1 2-2h1V1.5A1.5 1.5 0 0 1 5.5 0h4.586a1.5 1.5 0 0 1 1.06.44l1.415 1.414A1.5 1.5 0 0 1 13 2.914V4h1a2 2 0 0 1 2 2v4a2 2 0 0 1-1.144 1.808L15.9 13.2a.5.5 0 0 1-.4.8h-5a.5.5 0 0 1 0-1h4l-2.25-3H9.5a.5.5 0 0 1 0-1h3a.5.5 0 0 1 .4.2l1.33 1.773A1 1 0 0 0 15 10V6a1 1 0 0 0-1-1h-1v1.5A1.5 1.5 0 0 1 11.5 8h-3a.5.5 0 0 1 0-1h3a.5.5 0 0 0 .5-.5V3h-1.5a.5.5 0 0 1-.5-.5V1H5.5Z"
    clip-rule="evenodd" />
</svg>