<svg fill="none" viewBox="0 0 16 16" xmlns="http://www.w3.org/2000/svg"><path d="m6.12 0.146c0.0939-0.0939 0.221-0.147 0.354-0.147 0.133 0 0.26 0.0527 0.354 0.147 0.0939 0.0939 0.147 0.221 0.147 0.354 0 0.133-0.0527 0.26-0.147 0.354l-2.15 2.15h3.29c1.16 1.6e-4 2.3 0.339 3.28 0.974s1.74 1.54 2.21 2.61 0.619 2.24 0.431 3.39c-0.188 1.15-0.706 2.22-1.49 3.08-0.784 0.859-1.8 1.47-2.93 1.76-1.13 0.291-2.31 0.249-3.42-0.122-1.1-0.371-2.07-1.05-2.79-1.97-0.721-0.913-1.16-2.02-1.27-3.17-0.00591-0.0654 0.00112-0.131 0.0207-0.194s0.0513-0.121 0.0934-0.171c0.0421-0.0504 0.0936-0.0921 0.152-0.123s0.122-0.0492 0.187-0.0551 0.131 0.00112 0.194 0.0207c0.0627 0.0196 0.121 0.0513 0.171 0.0934 0.0504 0.0421 0.0921 0.0936 0.123 0.152 0.0305 0.0582 0.0492 0.122 0.0551 0.187 0.0882 0.965 0.455 1.88 1.06 2.65 0.601 0.761 1.41 1.33 2.33 1.64 0.919 0.309 1.91 0.344 2.85 0.101 0.939-0.243 1.79-0.753 2.44-1.47 0.654-0.716 1.09-1.61 1.24-2.56 0.157-0.957 0.0317-1.94-0.36-2.83-0.391-0.887-1.03-1.64-1.84-2.17-0.812-0.53-1.76-0.811-2.73-0.812h-3.29l2.15 2.15c0.0465 0.0465 0.0834 0.102 0.109 0.162 0.0252 0.0607 0.0381 0.126 0.0381 0.192s-0.013 0.131-0.0381 0.192c-0.0252 0.0607-0.062 0.116-0.109 0.162s-0.102 0.0834-0.162 0.109c-0.0607 0.0252-0.126 0.0381-0.192 0.0381-0.0657 0-0.131-0.013-0.192-0.0381-0.0607-0.0252-0.116-0.062-0.162-0.109l-3-3c-0.0466-0.0464-0.0835-0.102-0.109-0.162-0.0252-0.0607-0.0382-0.126-0.0382-0.192s0.013-0.131 0.0382-0.192c0.0252-0.0608 0.0622-0.116 0.109-0.162l3-3z" fill="#000"/></svg>
