<svg xmlns="http://www.w3.org/2000/svg" viewBox="0 0 16 16" fill="none">
  <path fill="#000" fill-rule="evenodd"
    d="M0 3.2c0-1.12 0-1.68.218-2.108a2 2 0 0 1 .874-.874C1.52 0 2.08 0 3.2 0h.6c1.12 0 1.68 0 2.108.218a2 2 0 0 1 .874.874C7 1.52 7 2.08 7 3.2v.6c0 1.12 0 1.68-.218 2.108a2 2 0 0 1-.874.874C5.48 7 4.92 7 3.8 7h-.6c-1.12 0-1.68 0-2.108-.218a2 2 0 0 1-.874-.874C0 5.48 0 4.92 0 3.8v-.6ZM3.2 1h.6c.577 0 .949 0 1.232.024.272.022.373.06.422.085a1 1 0 0 1 .437.437c.025.05.063.15.085.422C6 2.25 6 2.623 6 3.2v.6c0 .577 0 .949-.024 1.232-.022.272-.06.373-.085.422a1 1 0 0 1-.437.437c-.05.025-.15.063-.422.085C4.75 6 4.377 6 3.8 6h-.6c-.577 0-.949 0-1.232-.024-.272-.022-.373-.06-.422-.085a1 1 0 0 1-.437-.437c-.025-.05-.063-.15-.085-.422C1 4.75 1 4.377 1 3.8v-.6c0-.577 0-.949.024-1.232.022-.272.06-.373.085-.422a1 1 0 0 1 .437-.437c.05-.025.15-.063.422-.085C2.25 1 2.623 1 3.2 1ZM9 12.2c0-1.12 0-1.68.218-2.108a2 2 0 0 1 .874-.874C10.52 9 11.08 9 12.2 9h.6c1.12 0 1.68 0 2.108.218a2 2 0 0 1 .874.874C16 10.52 16 11.08 16 12.2v.6c0 1.12 0 1.68-.218 2.108a2 2 0 0 1-.874.874C14.48 16 13.92 16 12.8 16h-.6c-1.12 0-1.68 0-2.108-.218a2 2 0 0 1-.874-.874C9 14.48 9 13.92 9 12.8v-.6Zm3.8-2.2c.577 0 .949 0 1.232.024.272.022.373.06.422.085a1 1 0 0 1 .437.437c.025.05.063.15.085.422.023.283.024.655.024 1.232v.6c0 .577 0 .949-.024 1.232-.022.272-.06.373-.085.422a1 1 0 0 1-.437.437c-.05.025-.15.063-.422.085C13.75 15 13.377 15 12.8 15h-.6c-.577 0-.949 0-1.232-.024-.272-.022-.373-.06-.422-.085a1 1 0 0 1-.437-.437c-.025-.05-.063-.15-.085-.422C10 13.75 10 13.377 10 12.8v-.6c0-.577 0-.949.024-1.232.022-.272.06-.373.085-.422a1 1 0 0 1 .437-.437c.05-.025.15-.063.422-.085C11.25 10 11.623 10 12.2 10h.6Z"
    clip-rule="evenodd" />
  <path fill="#000"
    d="M8 2.5a.5.5 0 0 1 .5-.5h2A2.5 2.5 0 0 1 13 4.5v1.793l1.146-1.147a.5.5 0 0 1 .708.708l-2 2a.5.5 0 0 1-.708 0l-2-2a.5.5 0 0 1 .708-.708L12 6.293V4.5A1.5 1.5 0 0 0 10.5 3h-2a.5.5 0 0 1-.5-.5ZM3.309 8.038A.498.498 0 0 1 3.497 8h.006c.127 0 .254.05.35.146l2 2a.5.5 0 0 1-.707.708L4 9.707V11.5A1.5 1.5 0 0 0 5.5 13h2a.5.5 0 0 1 0 1h-2A2.5 2.5 0 0 1 3 11.5V9.707l-1.146 1.147a.5.5 0 0 1-.708-.708l2-2a.499.499 0 0 1 .163-.108Z" />
</svg>