<svg xmlns="http://www.w3.org/2000/svg" viewBox="0 0 16 16" fill="none">
  <path fill="#000"
    d="M4.854 2.854a.5.5 0 0 0-.708-.708l-4 4a.5.5 0 0 0 0 .708l4 4a.5.5 0 1 0 .708-.708L1.707 7H9.5c.939 0 1.618 0 2.155.037.532.036.888.107 1.184.23a3.5 3.5 0 0 1 1.895 1.894c.122.296.193.652.23 1.184.036.537.036 1.216.036 2.155a.5.5 0 0 0 1 0v-.019c0-.916 0-1.629-.04-2.204-.039-.583-.12-1.06-.303-1.5a4.5 4.5 0 0 0-2.435-2.434c-.438-.182-.916-.264-1.5-.304C11.149 6 10.436 6 9.52 6H1.707l3.147-3.146Z" />
</svg>