<svg xmlns="http://www.w3.org/2000/svg" viewBox="0 0 16 16" fill="none">
  <path fill="#000"
    d="M8.963 2.692a.5.5 0 0 1-.109.162L5.707 6h3.812c.916 0 1.629 0 2.204.04.583.039 1.06.12 1.5.303a4.5 4.5 0 0 1 2.434 2.435c.182.439.264.916.304 1.5.039.574.039 1.287.039 2.203v.019a.5.5 0 0 1-1 0c0-.939 0-1.618-.037-2.155-.036-.532-.107-.888-.23-1.184a3.5 3.5 0 0 0-1.894-1.895c-.296-.122-.652-.193-1.184-.23C11.118 7 10.439 7 9.5 7H5.707l3.147 3.146a.5.5 0 1 1-.708.708l-4-4a.5.5 0 0 1 0-.708l4-4a.5.5 0 0 1 .817.546Z" />
  <path fill="#000"
    d="M4.854 2.854a.5.5 0 1 0-.708-.708l-4 4a.5.5 0 0 0 0 .708l4 4a.5.5 0 0 0 .708-.708L1.207 6.5l3.647-3.646Z" />
</svg>