<svg viewBox="0 0 16 16" xmlns="http://www.w3.org/2000/svg"><path d="m4.02 9.46c0.23 2.55 2.37 4.54 4.98 4.54 2.76 0 5-2.24 5-5 0-2.76-2.24-5-5-5h-7.29l2.15 2.15c0.195 0.195 0.195 0.512 0 0.707-0.195 0.195-0.512 0.195-0.707 0l-3-3c-0.195-0.195-0.195-0.512 0-0.707l3-3c0.195-0.195 0.512-0.195 0.707 0 0.195 0.195 0.195 0.512 0 0.707l-2.15 2.15h7.29c3.31 0 6 2.69 6 6 0 3.31-2.69 6-6 6-3.13 0-5.7-2.4-5.98-5.46-0.0248-0.275 0.178-0.518 0.453-0.543 0.275-0.0248 0.518 0.178 0.543 0.453z" fill="#000"/><path d="m10.7 10.1c0.247 0.124 0.347 0.424 0.224 0.671s-0.424 0.347-0.671 0.224l-2-1c-0.169-0.0847-0.276-0.258-0.276-0.447v-3c0-0.276 0.224-0.5 0.5-0.5 0.276 0 0.5 0.224 0.5 0.5v2.69l1.72 0.862z" fill="#000"/></svg>
