<svg xmlns="http://www.w3.org/2000/svg" viewBox="0 0 16 16" fill="none">
  <path fill="#000" fill-rule="evenodd"
    d="M3.5 1A2.5 2.5 0 0 0 1 3.5v7.172a2.5 2.5 0 0 0 .732 1.767l1.829 1.829A2.5 2.5 0 0 0 5.328 15H12.5a2.5 2.5 0 0 0 2.5-2.5v-9A2.5 2.5 0 0 0 12.5 1h-9ZM9 11H5.5a.5.5 0 0 0-.5.5v2.464a1.5 1.5 0 0 0 .328.036H9v-3ZM2 3.5A1.5 1.5 0 0 1 3.5 2H4v4.5A1.5 1.5 0 0 0 5.5 8h5A1.5 1.5 0 0 0 12 6.5V2h.5A1.5 1.5 0 0 1 14 3.5v9a1.5 1.5 0 0 1-1.5 1.5H12v-2.5a1.5 1.5 0 0 0-1.5-1.5h-5A1.5 1.5 0 0 0 4 11.5v1.793l-1.56-1.56A1.5 1.5 0 0 1 2 10.671V3.5ZM11 2H5v4.5a.5.5 0 0 0 .5.5h5a.5.5 0 0 0 .5-.5V2Z"
    clip-rule="evenodd" />
</svg>