<svg fill="none" viewBox="0 0 16 16" xmlns="http://www.w3.org/2000/svg"><path d="m3.5 1c-1.38 0-2.5 1.12-2.5 2.5v7.17c0 0.663 0.263 1.3 0.732 1.77l1.83 1.83c0.469 0.469 1.1 0.732 1.77 0.732h7.17c1.38 0 2.5-1.12 2.5-2.5v-9c0-1.38-1.12-2.5-2.5-2.5h-9zm5.5 10h-3.5c-0.276 0-0.5 0.224-0.5 0.5v2.46c0.107 0.024 0.217 0.0364 0.328 0.0364h3.67v-3zm-7-7.5c0-0.828 0.672-1.5 1.5-1.5h0.5v4.5c0 0.828 0.672 1.5 1.5 1.5h5c0.828 0 1.5-0.672 1.5-1.5v-4.5h0.5c0.828 0 1.5 0.672 1.5 1.5v9c0 0.828-0.672 1.5-1.5 1.5h-0.5v-2.5c0-0.828-0.672-1.5-1.5-1.5h-5c-0.828 0-1.5 0.672-1.5 1.5v1.79l-1.56-1.56c-0.281-0.281-0.439-0.663-0.439-1.06v-7.17zm9-1.5h-6v4.5c0 0.276 0.224 0.5 0.5 0.5h5c0.276 0 0.5-0.224 0.5-0.5v-4.5z" clip-rule="evenodd" fill="#000" fill-rule="evenodd"/></svg>
