<svg xmlns="http://www.w3.org/2000/svg" viewBox="0 0 16 16" fill="none">
  <path fill="#000"
    d="M1 2.5A2.5 2.5 0 0 1 3.5 0a.5.5 0 0 1 0 1A1.5 1.5 0 0 0 2 2.5a.5.5 0 0 1-1 0ZM1.5 4a.5.5 0 0 1 .5.5V6a.5.5 0 0 1-1 0V4.5a.5.5 0 0 1 .5-.5Zm14.5.5a.5.5 0 0 0-1 0v2a.5.5 0 0 0 1 0v-2ZM15.5 8a.5.5 0 0 1 .5.5v2a.5.5 0 0 1-1 0v-2a.5.5 0 0 1 .5-.5Zm-10-8a.5.5 0 0 0 0 1h2a.5.5 0 0 0 0-1h-2ZM9 .5a.5.5 0 0 1 .5-.5h2a.5.5 0 0 1 0 1h-2A.5.5 0 0 1 9 .5Zm4.5-.5a.5.5 0 0 0 0 1A1.5 1.5 0 0 1 15 2.5a.5.5 0 0 0 1 0A2.5 2.5 0 0 0 13.5 0Zm2 12a.5.5 0 0 1 .5.5 2.5 2.5 0 0 1-2.5 2.5.5.5 0 0 1 0-1 1.5 1.5 0 0 0 1.5-1.5.5.5 0 0 1 .5-.5Z" />
  <path fill="#000" fill-rule="evenodd"
    d="M3.185 7.542c-1.154.015-1.818.09-2.305.473a2.28 2.28 0 0 0-.415.426C0 9.063 0 9.965 0 11.77c0 1.804 0 2.707.465 3.328.12.16.26.303.415.426C1.486 16 2.366 16 4.125 16h3.75c1.76 0 2.639 0 3.245-.477.156-.123.295-.266.415-.426.465-.621.465-1.524.465-3.328 0-1.804 0-2.706-.465-3.328a2.28 2.28 0 0 0-.415-.426c-.487-.383-1.15-.458-2.305-.473l-.5-.819A1.492 1.492 0 0 0 7.045 6H4.956c-.517 0-.998.273-1.272.723l-.499.82ZM8 12a2 2 0 1 1-4 0 2 2 0 0 1 4 0Z"
    clip-rule="evenodd" />
</svg>