<svg fill="none" viewBox="0 0 16 16" xmlns="http://www.w3.org/2000/svg"><path d="m15 3c0 1.66-1.34 3-3 3-0.948 0-1.79-0.44-2.34-1.13l-3.83 2.13c0.111 0.313 0.171 0.649 0.171 1s-0.0601 0.687-0.171 1l3.83 2.13c0.55-0.687 1.4-1.13 2.34-1.13 1.66 0 3 1.34 3 3s-1.34 3-3 3-3-1.34-3-3c0-0.351 0.0601-0.687 0.171-1l-3.83-2.13c-0.55 0.687-1.4 1.13-2.34 1.13-1.66 0-3-1.34-3-3s1.34-3 3-3c0.948 0 1.79 0.44 2.34 1.13l3.83-2.13c-0.111-0.313-0.171-0.649-0.171-1 0-1.66 1.34-3 3-3s3 1.34 3 3zm-1 0c0 1.1-0.895 2-2 2s-2-0.895-2-2 0.895-2 2-2 2 0.895 2 2zm-9 5c0 1.1-0.895 2-2 2s-2-0.895-2-2 0.895-2 2-2 2 0.895 2 2zm7 7c1.1 0 2-0.895 2-2s-0.895-2-2-2-2 0.895-2 2 0.895 2 2 2z" clip-rule="evenodd" fill="#000" fill-rule="evenodd"/></svg>
