<svg xmlns="http://www.w3.org/2000/svg" viewBox="0 0 16 16" fill="none">
  <path fill="#000" fill-rule="evenodd" d="M8 5a3 3 0 1 0 0 6 3 3 0 0 0 0-6ZM6 8a2 2 0 1 1 4 0 2 2 0 0 1-4 0Z"
    clip-rule="evenodd" />
  <path fill="#000" fill-rule="evenodd"
    d="M5.6 1.2A.5.5 0 0 1 6 1h4.5a.5.5 0 0 1 .4.2L12.25 3h1.25A2.5 2.5 0 0 1 16 5.5v6a2.5 2.5 0 0 1-2.5 2.5h-11A2.5 2.5 0 0 1 0 11.5v-6A2.5 2.5 0 0 1 2.5 3h1.75L5.6 1.2Zm.65.8L4.9 3.8a.5.5 0 0 1-.4.2h-2A1.5 1.5 0 0 0 1 5.5v6A1.5 1.5 0 0 0 2.5 13h11a1.5 1.5 0 0 0 1.5-1.5v-6A1.5 1.5 0 0 0 13.5 4H12a.5.5 0 0 1-.4-.2L10.25 2h-4Z"
    clip-rule="evenodd" />
</svg>