<svg xmlns="http://www.w3.org/2000/svg" viewBox="0 0 16 16" fill="none">
  <path fill="#000"
    d="M6.5 7a.5.5 0 0 1 .5.5v4a.5.5 0 0 1-1 0v-4a.5.5 0 0 1 .5-.5Zm3.5.5a.5.5 0 0 0-1 0v4a.5.5 0 0 0 1 0v-4Z" />
  <path fill="#000" fill-rule="evenodd"
    d="M8.12 0h-.24c-.403 0-.735 0-1.006.022-.281.023-.54.072-.782.196a2 2 0 0 0-.874.874c-.124.243-.173.501-.196.782C5 2.144 5 2.477 5 2.88V3H1.5a.5.5 0 0 0 0 1h.54l.597 7.161c.063.759.113 1.357.191 1.838.08.492.196.9.412 1.269a3.5 3.5 0 0 0 1.51 1.39c.385.183.801.265 1.298.304C6.534 16 7.134 16 7.895 16h.21c.76 0 1.361 0 1.847-.038.497-.04.913-.12 1.298-.305a3.5 3.5 0 0 0 1.51-1.39c.216-.368.332-.776.412-1.268.078-.48.128-1.08.191-1.838L13.96 4h.54a.5.5 0 0 0 0-1H11v-.12c0-.403 0-.735-.022-1.006-.023-.281-.072-.54-.196-.782a2 2 0 0 0-.874-.874C9.665.094 9.407.045 9.126.022 8.856 0 8.523 0 8.12 0ZM3.044 4l.588 7.057c.066.784.113 1.344.184 1.781.07.432.16.705.288.925a2.5 2.5 0 0 0 1.078.992c.23.11.51.175.945.21C6.568 15 7.13 15 7.916 15h.167c.787 0 1.349 0 1.79-.035.437-.034.716-.1.946-.21a2.5 2.5 0 0 0 1.078-.992c.129-.22.217-.493.288-.925.071-.437.118-.997.183-1.78L12.957 4H3.043ZM6 3h4v-.1c0-.428 0-.72-.019-.944-.018-.22-.05-.332-.09-.41a1 1 0 0 0-.437-.437c-.078-.04-.19-.072-.41-.09A12.924 12.924 0 0 0 8.1 1h-.2c-.428 0-.72 0-.944.019-.22.018-.332.05-.41.09a1 1 0 0 0-.437.437c-.04.078-.072.19-.09.41C6 2.18 6 2.472 6 2.9V3Z"
    clip-rule="evenodd" />
</svg>