<svg viewBox="0 0 16 16" xmlns="http://www.w3.org/2000/svg"><path d="m0 9.5h3.5l4-4h8.5v5.3c0 1.12 0 1.68-0.218 2.11-0.192 0.376-0.498 0.682-0.874 0.874-0.428 0.218-0.988 0.218-2.11 0.218h-9.6c-1.12 0-1.68 0-2.11-0.218-0.376-0.192-0.682-0.498-0.874-0.874-0.218-0.428-0.218-0.988-0.218-2.11v-1.3z" fill="#000" opacity=".3"/><path d="m1.5 10c0.476 0 0.754 7e-4 1.02-0.0303 1.05-0.122 2.02-0.607 2.74-1.37 0.184-0.194 0.351-0.418 0.637-0.799 0.3-0.4 0.426-0.568 0.562-0.71 0.564-0.594 1.32-0.972 2.13-1.07 0.195-0.0226 0.405-0.0234 0.904-0.0234h6.5v-1h-6.5c-0.476 0-0.754-7.1e-4 -1.02 0.0303-1.05 0.122-2.02 0.607-2.74 1.37-0.184 0.194-0.351 0.418-0.637 0.799-0.3 0.4-0.426 0.568-0.562 0.71-0.564 0.594-1.32 0.972-2.13 1.07-0.195 0.0226-0.405 0.0234-0.904 0.0234h-1.5v1h1.5z" fill="#000"/></svg>
