<svg viewBox="0 0 16 16" xmlns="http://www.w3.org/2000/svg"><path d="m10.6 5.15c0.138-0.239 0.444-0.321 0.683-0.183 0.532 0.307 0.973 0.748 1.28 1.28 0.307 0.532 0.469 1.13 0.47 1.75s-0.161 1.22-0.467 1.75c-0.306 0.532-0.748 0.974-1.28 1.28-0.239 0.138-0.545 0.0568-0.683-0.182s-0.0568-0.545 0.182-0.683c0.379-0.22 0.694-0.535 0.913-0.915 0.219-0.38 0.334-0.811 0.334-1.25-4e-4 -0.438-0.116-0.869-0.336-1.25-0.219-0.38-0.535-0.695-0.915-0.914-0.239-0.138-0.321-0.444-0.183-0.683z" clip-rule="evenodd" fill="#000" fill-rule="evenodd"/><path d="m4 5 3.17-2.77c0.323-0.283 0.829-0.0533 0.829 0.376v10.8c0 0.43-0.506 0.659-0.829 0.376l-3.17-2.77h-2.5c-0.828 0-1.5-0.672-1.5-1.5v-3c0-0.828 0.672-1.5 1.5-1.5h2.5z" fill="#000"/></svg>
