<svg xmlns="http://www.w3.org/2000/svg" viewBox="0 0 16 16" fill="none">
  <path fill="#000" fill-rule="evenodd"
    d="M.218 2.092C0 2.52 0 3.08 0 4.2v7.6c0 1.12 0 1.68.218 2.108a2 2 0 0 0 .874.874C1.52 15 2.08 15 3.2 15h9.6c1.12 0 1.68 0 2.108-.218a2 2 0 0 0 .874-.874C16 13.48 16 12.92 16 11.8V4.2c0-1.12 0-1.68-.218-2.108a2 2 0 0 0-.874-.874C14.48 1 13.92 1 12.8 1H3.2c-1.12 0-1.68 0-2.108.218a2 2 0 0 0-.874.874ZM1 11.8V5h14v6.8c0 .577 0 .95-.024 1.232-.022.272-.06.373-.085.422a1 1 0 0 1-.437.437c-.05.025-.15.063-.422.085C13.75 14 13.377 14 12.8 14H3.2c-.577 0-.949 0-1.232-.024-.272-.022-.373-.06-.422-.085a1 1 0 0 1-.437-.437c-.025-.05-.063-.15-.085-.421C1 12.748 1 12.377 1 11.8ZM2 4a1 1 0 1 0 0-2 1 1 0 0 0 0 2Zm4-1a1 1 0 1 1-2 0 1 1 0 0 1 2 0Zm2 1a1 1 0 1 0 0-2 1 1 0 0 0 0 2Z"
    clip-rule="evenodd" />
</svg>