<svg xmlns="http://www.w3.org/2000/svg" viewBox="0 0 16 16" fill="none">
  <path fill="#000" fill-rule="evenodd"
    d="M7 8.5a1.5 1.5 0 1 1 3 0 1.5 1.5 0 0 1-3 0ZM8.5 8a.5.5 0 1 0 0 1 .5.5 0 0 0 0-1Z" clip-rule="evenodd" />
  <path fill="#000" fill-rule="evenodd"
    d="M5 13.5V10H2.5A2.5 2.5 0 0 1 0 7.5v-5A2.5 2.5 0 0 1 2.5 0h7A2.5 2.5 0 0 1 12 2.5V5h1.5A2.5 2.5 0 0 1 16 7.5v6a2.5 2.5 0 0 1-2.5 2.5h-6A2.5 2.5 0 0 1 5 13.5Zm-4-11A1.5 1.5 0 0 1 2.5 1H3v2H1v-.5ZM1 4h2v2H1V4Zm0 3h2v2h-.5A1.5 1.5 0 0 1 1 7.5V7Zm3 2V1h4v4h-.5A2.5 2.5 0 0 0 5 7.5V9H4Zm7-4V4H9v1h2Zm0-2.5V3H9V1h.5A1.5 1.5 0 0 1 11 2.5ZM7.5 6A1.5 1.5 0 0 0 6 7.5v6c0 .49.234.924.596 1.197l5.55-5.55a.5.5 0 0 1 .708 0L15 11.293V7.5A1.5 1.5 0 0 0 13.5 6h-6Zm7.5 6.707-2.5-2.5L7.707 15H13.5a1.5 1.5 0 0 0 1.5-1.5v-.793Z"
    clip-rule="evenodd" />
</svg>