<svg viewBox="0 0 16 16" xmlns="http://www.w3.org/2000/svg"><path d="m5 3c-1.1 0-2 0.895-2 2s0.895 2 2 2 2-0.895 2-2-0.895-2-2-2zm-1 2c0-0.552 0.448-1 1-1s1 0.448 1 1-0.448 1-1 1-1-0.448-1-1z" clip-rule="evenodd" fill="#000" fill-rule="evenodd"/><path d="m3.5 1c-1.38 0-2.5 1.12-2.5 2.5v9c0 1.38 1.12 2.5 2.5 2.5h9c1.38 0 2.5-1.12 2.5-2.5v-9c0-1.38-1.12-2.5-2.5-2.5h-9zm10.5 2.5v6.79l-3.15-3.15c-0.195-0.195-0.512-0.195-0.707 0l-6.84 6.84c-0.736-0.0954-1.31-0.725-1.31-1.49v-9c0-0.828 0.672-1.5 1.5-1.5h9c0.828 0 1.5 0.672 1.5 1.5zm-1.5 10.5h-7.79l5.79-5.79 3.5 3.5v0.793c0 0.828-0.672 1.5-1.5 1.5z" clip-rule="evenodd" fill="#000" fill-rule="evenodd"/></svg>
