<svg xmlns="http://www.w3.org/2000/svg" viewBox="0 0 16 16" fill="none">
  <path fill="#000" fill-rule="evenodd"
    d="M2 1.609v8.06a9.66 9.66 0 0 1 .314-.133A7.3 7.3 0 0 1 5 9c1.383 0 2.357.557 3.222 1.051l.026.015C9.127 10.568 9.897 11 11 11c.963 0 1.788-.12 2.356-.291.288-.086.484-.178.597-.255A.676.676 0 0 0 14 10.42v-8.3a6.669 6.669 0 0 0-.36.18l-.291.148A4.931 4.931 0 0 1 11 3c-1.383 0-2.357-.556-3.222-1.05l-.026-.016C6.873 1.432 6.103 1 5 1c-.78 0-1.61.12-2.233.294a3.116 3.116 0 0 0-.699.27A.833.833 0 0 0 2 1.61ZM1 1.5c0-.224.105-.399.207-.516a1.46 1.46 0 0 1 .355-.282 4.04 4.04 0 0 1 .935-.37A9.747 9.747 0 0 1 5 0c1.383 0 2.357.557 3.222 1.051l.026.015C9.127 1.568 9.897 2 11 2c.9 0 1.448-.22 1.901-.447.068-.033.137-.07.21-.108C13.494 1.24 13.95 1 14.5 1a.5.5 0 0 1 .5.5v9c0 .384-.277.64-.484.78-.23.158-.535.285-.872.387-.682.204-1.607.333-2.644.333-1.383 0-2.357-.556-3.222-1.05l-.026-.016C6.873 10.432 6.103 10 5 10c-.919 0-1.73.23-2.314.464a6.383 6.383 0 0 0-.68.319L2 10.786V15.5a.5.5 0 0 1-1 0v-14Z"
    clip-rule="evenodd" />
</svg>