<svg xmlns="http://www.w3.org/2000/svg" viewBox="0 0 16 16" fill="none">
  <path fill="#000" fill-rule="evenodd"
    d="M14 10.258V4.5a1.5 1.5 0 0 0-2-1.414V2.5a1.5 1.5 0 0 0-2.052-1.395 1.5 1.5 0 0 0-2.895 0A1.5 1.5 0 0 0 5 2.5v4.793l-.147-.146a1.914 1.914 0 1 0-2.707 2.707l3.757 3.757A4.743 4.743 0 0 0 14 10.258ZM8.5 1a.5.5 0 0 0-.5.5v5a.5.5 0 0 1-1 0v-4a.5.5 0 0 0-1 0v6a.5.5 0 0 1-.853.354l-1-1a.914.914 0 0 0-1.293 1.293l3.757 3.757a3.742 3.742 0 0 0 6.39-2.646V4.5a.5.5 0 0 0-1 0v2a.5.5 0 0 1-1 0v-4a.5.5 0 0 0-1 0v4a.5.5 0 1 1-1 0v-5a.5.5 0 0 0-.5-.5Z"
    clip-rule="evenodd" />
</svg>