<svg xmlns="http://www.w3.org/2000/svg" viewBox="0 0 16 16" fill="none">
  <path fill="#000" fill-rule="evenodd"
    d="M8 .5a.5.5 0 0 1 .363.156l5.36 5.656c.604.638.152 1.688-.726 1.688H11.25a.25.25 0 0 0-.25.25v4.25A1.5 1.5 0 0 1 9.5 14h-3A1.5 1.5 0 0 1 5 12.5V8.25A.25.25 0 0 0 4.75 8H3.003c-.878 0-1.33-1.05-.726-1.688L7.637.656A.5.5 0 0 1 8 .5Zm.181 1.419a.25.25 0 0 0-.362 0L3.003 7H5a1 1 0 0 1 1 1v4.5a.5.5 0 0 0 .5.5h3a.5.5 0 0 0 .5-.5V8a1 1 0 0 1 1-1h1.997L8.181 1.92Z"
    clip-rule="evenodd" />
</svg>