<svg xmlns="http://www.w3.org/2000/svg" viewBox="0 0 16 16" fill="none">
  <path fill="#000" fill-rule="evenodd" d="M8 15A7 7 0 1 0 8 1a7 7 0 0 0 0 14Zm0 1A8 8 0 1 0 8 0a8 8 0 0 0 0 16Z"
    clip-rule="evenodd" />
  <path fill="#000"
    d="M7.2 4.8c0-.111 0-.167.007-.214a.68.68 0 0 1 .58-.58C7.832 4 7.888 4 8 4s.167 0 .214.007a.68.68 0 0 1 .58.58c.006.046.006.102.006.213 0 .112 0 .168-.007.214a.68.68 0 0 1-.579.58C8.167 5.6 8.111 5.6 8 5.6s-.167 0-.214-.006a.68.68 0 0 1-.58-.58C7.2 4.968 7.2 4.912 7.2 4.8Zm0 3.2c0-.111 0-.167.007-.214a.68.68 0 0 1 .58-.58C7.832 7.2 7.888 7.2 8 7.2s.167 0 .214.007a.68.68 0 0 1 .58.58c.006.046.006.102.006.213 0 .112 0 .168-.007.214a.68.68 0 0 1-.579.58C8.167 8.8 8.111 8.8 8 8.8s-.167 0-.214-.006a.68.68 0 0 1-.58-.58C7.2 8.168 7.2 8.112 7.2 8Zm0 3.2c0-.111 0-.167.007-.214a.68.68 0 0 1 .58-.58c.046-.006.102-.006.213-.006s.167 0 .214.007a.68.68 0 0 1 .58.58c.006.046.006.102.006.213 0 .112 0 .168-.007.214a.68.68 0 0 1-.579.58C8.167 12 8.111 12 8 12s-.167 0-.214-.006a.68.68 0 0 1-.58-.58c-.006-.046-.006-.102-.006-.214Z" />
</svg>