<svg xmlns="http://www.w3.org/2000/svg" viewBox="0 0 16 16" fill="none">
  <path fill="#000" fill-rule="evenodd"
    d="M13 10V6c0-.945 0-1.604-.036-2.12-.034-.507-.099-.802-.192-1.028a3 3 0 0 0-1.624-1.623c-.225-.094-.52-.158-1.027-.193C9.605 1.001 8.946 1 8 1s-1.605 0-2.12.036c-.507.035-.803.1-1.028.193a3 3 0 0 0-1.624 1.623c-.093.226-.158.52-.192 1.028C3 4.396 3 5.055 3 6v4c0 .946 0 1.605.036 2.12.034.508.099.803.192 1.028a3 3 0 0 0 1.624 1.624c.225.093.52.158 1.027.193C6.395 15 7.054 15 8 15s1.605 0 2.12-.035c.508-.035.803-.1 1.028-.193a3 3 0 0 0 1.624-1.624c.093-.225.158-.52.192-1.027C13 11.605 13 10.946 13 10ZM2.304 2.47C2 3.205 2 4.137 2 6v4c0 1.864 0 2.796.304 3.531a4 4 0 0 0 2.165 2.165C5.204 16 6.136 16 8 16s2.796 0 3.53-.304a4 4 0 0 0 2.165-2.165c.305-.735.305-1.667.305-3.53V6c0-1.864 0-2.796-.305-3.531A4 4 0 0 0 11.531.305C10.796 0 9.864 0 8 0S5.204 0 4.47.305A4 4 0 0 0 2.303 2.47Z"
    clip-rule="evenodd" />
  <path fill="#000" d="M4 4a2 2 0 0 1 2-2h1a1 1 0 0 1 1 1v4a1 1 0 0 1-1 1H5a1 1 0 0 1-1-1V4Z" />
</svg>