<svg xmlns="http://www.w3.org/2000/svg" viewBox="0 0 16 16" fill="none">
  <path fill="#000"
    d="m14.855 11.148-.062-.07a3.95 3.95 0 0 1-.201-.255l-.16-.233a7.175 7.175 0 0 1-.48-.865C13.482 8.725 13 7.173 13 5a5 5 0 0 0-9.995-.217L3 5c0 2.173-.482 3.726-.952 4.725-.236.5-.47.864-.64 1.098l-.06.082-.171.208-.032.035A.5.5 0 0 0 1.5 12h13a.5.5 0 0 0 .355-.852ZM3.995 5.404 4 5a4 4 0 0 1 8 0c0 2.327.518 4.024 1.048 5.15.157.334.314.617.46.85H2.492a8.46 8.46 0 0 0 .46-.85c.498-1.06.987-2.625 1.043-4.746ZM10.4 14.8a.498.498 0 0 0-.1-.7.5.5 0 0 0-.7.1 1.995 1.995 0 0 1-2.495.59 1.997 1.997 0 0 1-.705-.59.5.5 0 0 0-.8.6A2.996 2.996 0 0 0 8 16c.982 0 1.853-.472 2.4-1.2Z" />
</svg>