<svg xmlns="http://www.w3.org/2000/svg" viewBox="0 0 16 16" fill="none">
  <path fill="#000" fill-rule="evenodd" d="M8 5a3 3 0 1 0 0 6 3 3 0 0 0 0-6ZM6 8a2 2 0 1 1 4 0 2 2 0 0 1-4 0Z"
    clip-rule="evenodd" />
  <path fill="#000" fill-rule="evenodd"
    d="M8 0a2 2 0 0 0-2 2v.068a.461.461 0 0 1-.284.423.453.453 0 0 1-.492-.096 1.923 1.923 0 0 0-2.72 0l-.109.11c-.75.75-.75 1.968 0 2.719a.453.453 0 0 1 .097.491.461.461 0 0 1-.424.285H2a2 2 0 0 0 0 4h.068c.183 0 .352.113.424.285.07.17.03.365-.097.492-.75.75-.75 1.968 0 2.719l.11.11c.75.75 1.968.75 2.719 0a.452.452 0 0 1 .491-.097.46.46 0 0 1 .285.424V14a2 2 0 1 0 4 0v-.067c0-.184.113-.352.285-.424a.453.453 0 0 1 .492.096c.75.751 1.968.751 2.72 0l.108-.11a1.921 1.921 0 0 0 0-2.718.452.452 0 0 1-.096-.492.461.461 0 0 1 .424-.285H14a2 2 0 0 0 0-4h-.067a.461.461 0 0 1-.424-.285.452.452 0 0 1 .096-.491 1.924 1.924 0 0 0 0-2.72l-.109-.109a1.923 1.923 0 0 0-2.72 0 .452.452 0 0 1-.49.096.461.461 0 0 1-.286-.423V2a2 2 0 0 0-2-2ZM7 2a1 1 0 0 1 2 0v.068c0 .59.36 1.122.902 1.347.54.224 1.166.103 1.582-.313a.923.923 0 0 1 1.305 0l.11.11c.36.36.36.944 0 1.305a1.453 1.453 0 0 0-.314 1.581c.225.543.757.902 1.348.902H14a1 1 0 1 1 0 2h-.067c-.591 0-1.123.36-1.348.902a1.452 1.452 0 0 0 .313 1.582c.36.36.36.944 0 1.305l-.109.109a.923.923 0 0 1-1.305 0 1.452 1.452 0 0 0-1.582-.313A1.461 1.461 0 0 0 9 13.933V14a1 1 0 1 1-2 0v-.067c0-.591-.359-1.123-.902-1.348a1.452 1.452 0 0 0-1.581.313.923.923 0 0 1-1.305 0l-.11-.11a.923.923 0 0 1 0-1.304 1.452 1.452 0 0 0 .313-1.582A1.461 1.461 0 0 0 2.068 9H2a1 1 0 0 1 0-2h.068a1.46 1.46 0 0 0 1.347-.902 1.453 1.453 0 0 0-.312-1.581.923.923 0 0 1 0-1.305l.109-.11a.923.923 0 0 1 1.305 0 1.453 1.453 0 0 0 1.581.313A1.46 1.46 0 0 0 7 2.068V2Z"
    clip-rule="evenodd" />
</svg>