<svg xmlns="http://www.w3.org/2000/svg" viewBox="0 0 16 16" fill="none">
  <path fill="#000"
    d="M8 10a1 1 0 0 1 1 1v3a1 1 0 0 1-.883.993L8 15a1 1 0 0 1-1-1v-1H1.582a.5.5 0 0 1 0-1H7v-1a1 1 0 0 1 1-1Zm6.5 2a.5.5 0 1 1 0 1h-4a.5.5 0 0 1 0-1h4ZM5 5a1 1 0 0 1 1 1v3a1 1 0 0 1-.883.993L5 10a1 1 0 0 1-1-1V8H1.582a.5.5 0 1 1 0-1H4V6a1 1 0 0 1 1-1Zm9.5 2a.5.5 0 1 1 0 1h-7a.5.5 0 1 1 0-1h7ZM9 0a1 1 0 0 1 1 1v3a1 1 0 0 1-.883.993L9 5a1 1 0 0 1-1-1V3H1.582a.5.5 0 1 1 0-1H8V1a1 1 0 0 1 1-1Zm5.5 2a.5.5 0 1 1 0 1h-3a.5.5 0 0 1 0-1h3Z" />
</svg>