<svg xmlns="http://www.w3.org/2000/svg" viewBox="0 0 16 16" fill="none">
  <path fill="#000"
    d="M14 7a1 1 0 0 1 .117 1.993L14 9h-1v5.5a.5.5 0 0 1-1 0V9h-1a1 1 0 1 1 0-2h3Zm-5 3a1 1 0 0 1 .117 1.993L9 12H8v2.5a.5.5 0 0 1-1 0V12H6a1 1 0 0 1 0-2h3ZM4 6a1 1 0 0 1 .117 1.993L4 8H3v6.5a.5.5 0 0 1-1 0L1.999 8H1a1 1 0 0 1 0-2h3Zm3.5-5a.5.5 0 0 1 .5.5v7a.5.5 0 0 1-1 0v-7a.5.5 0 0 1 .5-.5Zm5 0a.5.5 0 0 1 .5.5v4a.5.5 0 0 1-1 0v-4a.5.5 0 0 1 .5-.5Zm-10 0a.5.5 0 0 1 .5.5v3a.5.5 0 0 1-1 0v-3a.5.5 0 0 1 .5-.5Z" />
</svg>