<svg fill="none" viewBox="0 0 12 12" xmlns="http://www.w3.org/2000/svg"><path d="m5.42 0.106c0.372-0.141 0.784-0.141 1.16 0 0.425 0.161 0.776 0.607 1.48 1.5l1.99 2.54c0.523 0.665 0.784 0.998 0.885 1.37 0.0884 0.324 0.0884 0.666 0 0.99l-0.0459 0.138c-0.125 0.319-0.382 0.647-0.839 1.23l-1.99 2.54-0.467 0.587c-0.414 0.509-0.692 0.79-1.01 0.911l-0.142 0.0459c-0.286 0.0792-0.587 0.0792-0.873 0l-0.142-0.0459c-0.319-0.121-0.596-0.402-1.01-0.911l-0.467-0.587-1.99-2.54c-0.523-0.665-0.784-0.998-0.885-1.37-0.0774-0.284-0.0874-0.581-0.0293-0.868l0.0293-0.122c0.1-0.368 0.362-0.701 0.885-1.37l1.99-2.54c0.613-0.78 0.959-1.22 1.32-1.42l0.157-0.0742zm0.803 0.936c-0.145-0.0547-0.305-0.0547-0.449 0-0.00507 0.00191-0.0743 0.0274-0.26 0.225-0.191 0.203-0.423 0.496-0.785 0.956l-1.99 2.54c-0.58 0.738-0.672 0.886-0.706 1.01-0.0415 0.152-0.0415 0.313 0 0.465 0.0341 0.124 0.126 0.273 0.706 1.01l1.99 2.54c0.362 0.46 0.594 0.753 0.785 0.956 0.185 0.197 0.255 0.223 0.26 0.225 0.145 0.0547 0.305 0.0547 0.449 0 0.00507-0.0019 0.0743-0.0274 0.26-0.225 0.191-0.203 0.423-0.496 0.785-0.956l1.99-2.54c0.58-0.738 0.672-0.886 0.706-1.01 0.0415-0.152 0.0415-0.313 0-0.465-0.0341-0.124-0.126-0.273-0.706-1.01l-1.99-2.54c-0.362-0.46-0.594-0.753-0.785-0.956-0.185-0.197-0.255-0.223-0.26-0.225z" fill="#000"/></svg>
