<svg fill="none" viewBox="0 0 24 24" xmlns="http://www.w3.org/2000/svg"><path d="m18.9 18.1c0.195 0.195 0.195 0.512 0 0.707-0.195 0.195-0.512 0.195-0.707 0l-12.1-12.1v8.79c0 0.276-0.224 0.5-0.5 0.5s-0.5-0.224-0.5-0.5v-10c0-0.0678 0.0135-0.132 0.0379-0.191 0.0244-0.059 0.0606-0.114 0.109-0.162s0.103-0.0841 0.162-0.109c0.0536-0.0222 0.11-0.0346 0.167-0.0374 8e-3 -3.8e-4 0.016-5.7e-4 0.024-5.7e-4 -1.6e-4 0 1.6e-4 0 0 0h10c0.276 0 0.5 0.224 0.5 0.5s-0.224 0.5-0.5 0.5h-8.79l12.1 12.1z" fill="#000"/></svg>
