<svg viewBox="0 0 24 24" xmlns="http://www.w3.org/2000/svg"><path d="m11 6c0-0.139 0-0.209 0.0082-0.267 0.0524-0.376 0.348-0.672 0.724-0.724 0.0584-0.00815 0.128-0.00815 0.267-0.00815s0.209 0 0.267 0.00815c0.376 0.0525 0.672 0.348 0.724 0.724 0.0082 0.0584 0.0082 0.128 0.0082 0.267s0 0.209-0.0082 0.267c-0.0524 0.376-0.348 0.672-0.724 0.724-0.0584 0.00815-0.128 0.00815-0.267 0.00815s-0.209 0-0.267-0.00815c-0.376-0.0525-0.672-0.348-0.724-0.724-0.0082-0.0584-0.0082-0.128-0.0082-0.267z" fill="#000"/><path d="m11 12c0-0.139 0-0.209 0.0082-0.267 0.0524-0.376 0.348-0.672 0.724-0.724 0.0584-0.0082 0.128-0.0082 0.267-0.0082s0.209 0 0.267 0.0082c0.376 0.0524 0.672 0.348 0.724 0.724 0.0082 0.0584 0.0082 0.128 0.0082 0.267s0 0.209-0.0082 0.267c-0.0524 0.376-0.348 0.672-0.724 0.724-0.0584 0.0082-0.128 0.0082-0.267 0.0082s-0.209 0-0.267-0.0082c-0.376-0.0524-0.672-0.348-0.724-0.724-0.0082-0.0584-0.0082-0.128-0.0082-0.267z" fill="#000"/><path d="m11 17.7c-0.0082 0.0584-0.0082 0.128-0.0082 0.267s0 0.209 0.0082 0.267c0.0524 0.376 0.348 0.672 0.724 0.724 0.0584 0.0082 0.128 0.0082 0.267 0.0082s0.209 0 0.267-0.0082c0.376-0.0524 0.672-0.348 0.724-0.724 0.0082-0.0584 0.0082-0.128 0.0082-0.267s0-0.209-0.0082-0.267c-0.0524-0.376-0.348-0.672-0.724-0.724-0.0584-0.0082-0.128-0.0082-0.267-0.0082s-0.209 0-0.267 0.0082c-0.376 0.0524-0.672 0.348-0.724 0.724z" fill="#000"/></svg>
