<svg viewBox="0 0 24 24" xmlns="http://www.w3.org/2000/svg"><path d="m11 7c0-0.139 0-0.209 0.0082-0.267 0.0524-0.376 0.348-0.672 0.724-0.724 0.0584-0.00815 0.128-0.00815 0.267-0.00815s0.209 0 0.267 0.00815c0.376 0.0525 0.672 0.348 0.724 0.724 0.0082 0.0584 0.0082 0.128 0.0082 0.267s0 0.209-0.0082 0.267c-0.0524 0.376-0.348 0.672-0.724 0.724-0.0584 0.00815-0.128 0.00815-0.267 0.00815s-0.209 0-0.267-0.00815c-0.376-0.0525-0.672-0.348-0.724-0.724-0.0082-0.0584-0.0082-0.128-0.0082-0.267z" fill="#000"/><path d="m11 12c0-0.139 0-0.209 0.0082-0.267 0.0524-0.376 0.348-0.672 0.724-0.724 0.0584-0.0082 0.128-0.0082 0.267-0.0082s0.209 0 0.267 0.0082c0.376 0.0524 0.672 0.348 0.724 0.724 0.0082 0.0584 0.0082 0.128 0.0082 0.267s0 0.209-0.0082 0.267c-0.0524 0.376-0.348 0.672-0.724 0.724-0.0584 0.0082-0.128 0.0082-0.267 0.0082s-0.209 0-0.267-0.0082c-0.376-0.0524-0.672-0.348-0.724-0.724-0.0082-0.0584-0.0082-0.128-0.0082-0.267z" fill="#000"/><path d="m11 16.7c-0.0082 0.0584-0.0082 0.128-0.0082 0.267s0 0.209 0.0082 0.267c0.0524 0.376 0.348 0.672 0.724 0.724 0.0584 0.0082 0.128 0.0082 0.267 0.0082s0.209 0 0.267-0.0082c0.376-0.0524 0.672-0.348 0.724-0.724 0.0082-0.0584 0.0082-0.128 0.0082-0.267s0-0.209-0.0082-0.267c-0.0524-0.376-0.348-0.672-0.724-0.724-0.0584-0.0082-0.128-0.0082-0.267-0.0082s-0.209 0-0.267 0.0082c-0.376 0.0524-0.672 0.348-0.724 0.724z" fill="#000"/><path d="m24 12c0 6.63-5.37 12-12 12-6.63 0-12-5.37-12-12 0-6.63 5.37-12 12-12 6.63 0 12 5.37 12 12zm-1 0c0 6.08-4.92 11-11 11-6.08 0-11-4.92-11-11 0-6.08 4.92-11 11-11 6.08 0 11 4.92 11 11z" clip-rule="evenodd" fill="#000" fill-rule="evenodd"/></svg>
