<svg viewBox="0 0 24 24" xmlns="http://www.w3.org/2000/svg"><path d="m16 12c0 2.21-1.79 4-4 4-2.21 0-4-1.79-4-4 0-2.21 1.79-4 4-4 2.21 0 4 1.79 4 4zm-1 0c0 1.66-1.34 3-3 3s-3-1.34-3-3 1.34-3 3-3 3 1.34 3 3z" clip-rule="evenodd" fill="#000" fill-rule="evenodd"/><path d="m9 3c0-1.66 1.34-3 3-3s3 1.34 3 3v0.16c0 0.4 0.32 0.66 0.661 0.66 0.16 0 0.33-0.06 0.46-0.19l0.12-0.12c0.58-0.59 1.35-0.88 2.12-0.88 0.771 0 1.53 0.29 2.12 0.88 1.17 1.17 1.17 3.07 0 4.24l-0.12 0.12c-0.41 0.42-0.12 1.13 0.47 1.13h0.16c1.66 0 3 1.34 3 3s-1.34 3-3 3h-0.16c-0.59 0-0.891 0.71-0.47 1.13l0.12 0.12c1.17 1.17 1.17 3.07 0 4.24-0.58 0.59-1.35 0.88-2.12 0.88-0.771 0-1.53-0.29-2.12-0.88l-0.12-0.12c-0.13-0.13-0.3-0.19-0.46-0.19-0.33 0-0.661 0.26-0.661 0.66v0.16c0 1.66-1.34 3-3 3s-3-1.34-3-3v-0.16c0-0.4-0.32-0.66-0.661-0.66-0.16 0-0.33 0.06-0.46 0.19l-0.12 0.12c-0.58 0.59-1.35 0.88-2.12 0.88-0.771 0-1.53-0.29-2.12-0.88-1.17-1.17-1.17-3.07 0-4.24l0.12-0.12c0.41-0.42 0.12-1.13-0.47-1.13h-0.16c-1.66 0-3-1.34-3-3s1.34-3 3-3h0.16c0.59 0 0.891-0.71 0.47-1.13l-0.12-0.12c-1.17-1.17-1.17-3.07 0-4.24 0.58-0.59 1.35-0.88 2.12-0.88 0.771 0 1.53 0.29 2.12 0.88l0.12 0.12c0.13 0.13 0.3 0.19 0.46 0.19 0.33 0 0.661-0.26 0.661-0.66v-0.16zm5 0c0-1.1-0.901-2-2-2s-2 0.89-2 1.99v0.16c0 0.91-0.741 1.66-1.66 1.66-0.44 0-0.861-0.18-1.17-0.49l-0.12-0.12c-0.37-0.38-0.881-0.59-1.41-0.59-0.53 0-1.03 0.21-1.41 0.59-0.781 0.78-0.781 2.05 0 2.83l0.12 0.12c0.48 0.48 0.621 1.19 0.36 1.81-0.25 0.62-0.861 1.02-1.53 1.02h-0.16c-1.1 0-2.01 0.92-2.01 2.02s0.912 1.98 2.01 1.98h0.16c0.671 0 1.27 0.4 1.53 1.02s0.12 1.33-0.36 1.81l-0.12 0.12c-0.781 0.78-0.781 2.05 0 2.83 0.37 0.38 0.881 0.59 1.41 0.59 0.53 0 1.03-0.21 1.41-0.59l0.12-0.12c0.32-0.32 0.731-0.49 1.17-0.49 0.911 0 1.66 0.74 1.66 1.66v0.16c0 1.1 0.901 2.03 2 2.03s2-0.93 2-2.03v-0.16c0-0.47 0.18-0.9 0.52-1.21 0.31-0.29 0.711-0.45 1.14-0.45 0.44 0 0.861 0.18 1.17 0.49l0.12 0.12c0.37 0.38 0.881 0.59 1.41 0.59 0.53 0 1.03-0.21 1.41-0.59 0.781-0.78 0.781-2.05 0-2.83l-0.12-0.12c-0.48-0.48-0.62-1.19-0.36-1.81 0.25-0.62 0.861-1 1.53-1h0.16c1.1 0 2.01-0.9 2.01-2s-0.912-2-2.01-2h-0.16c-0.671 0-1.27-0.42-1.53-1.04s-0.12-1.33 0.36-1.81l0.12-0.12c0.38-0.37 0.59-0.88 0.59-1.41s-0.21-1.03-0.59-1.41c-0.37-0.38-0.881-0.59-1.41-0.59-0.53 0-1.03 0.21-1.41 0.59l-0.12 0.12c-0.32 0.32-0.731 0.49-1.17 0.49-0.911 0-1.66-0.74-1.66-1.66v-0.16z" clip-rule="evenodd" fill="#000" fill-rule="evenodd"/></svg>
