<svg viewBox="0 0 24 24" xmlns="http://www.w3.org/2000/svg"><path d="m0 10c-6.59e-9 0.552 0.448 1 1 1h2v10.5c0 0.276 0.224 0.5 0.5 0.5s0.5-0.224 0.5-0.5v-10.5h2c0.552 0 1-0.448 1-1 0-0.552-0.448-1-1-1h-5c-0.552 0-1 0.448-1 1z" fill="#000"/><path d="m3.5 7c-0.276 0-0.5-0.224-0.5-0.5v-4c0-0.276 0.224-0.5 0.5-0.5s0.5 0.224 0.5 0.5v4c0 0.276-0.224 0.5-0.5 0.5z" fill="#000"/><path d="m9 17c-0.552 0-1-0.448-1-1s0.448-1 1-1h5c0.552 0 1 0.448 1 1s-0.448 1-1 1h-2v4.5c0 0.276-0.224 0.5-0.5 0.5s-0.5-0.224-0.5-0.5v-4.5h-2z" fill="#000"/><path d="m16 12c0 0.552 0.448 1 1 1h2v8.5c0 0.276 0.224 0.5 0.5 0.5s0.5-0.224 0.5-0.5v-8.5h2c0.552 0 1-0.448 1-1s-0.448-1-1-1h-5c-0.552 0-1 0.448-1 1z" fill="#000"/><path d="m11.5 13c-0.276 0-0.5-0.224-0.5-0.5v-10c0-0.276 0.224-0.5 0.5-0.5s0.5 0.224 0.5 0.5v10c0 0.276-0.224 0.5-0.5 0.5z" fill="#000"/><path d="m19 8.5c0 0.276 0.224 0.5 0.5 0.5s0.5-0.224 0.5-0.5v-6c0-0.276-0.224-0.5-0.5-0.5s-0.5 0.224-0.5 0.5v6z" fill="#000"/></svg>
