<svg viewBox="0 0 16 16" xmlns="http://www.w3.org/2000/svg"><path d="m9.53 2.02c0.334 0.0857 0.536 0.426 0.45 0.761l-2.75 10.7c-0.0857 0.334-0.426 0.536-0.761 0.45-0.334-0.0857-0.536-0.426-0.45-0.761l2.75-10.8c0.0858-0.334 0.426-0.536 0.761-0.45z" fill="#000"/><path d="m3.96 4.16c0.256-0.23 0.651-0.21 0.881 0.0469 0.23 0.257 0.208 0.652-0.0478 0.883l-3.24 2.91 3.24 2.91c0.256 0.231 0.278 0.626 0.0478 0.883-0.23 0.257-0.625 0.277-0.881 0.0469l-3.75-3.37c-0.132-0.119-0.207-0.288-0.207-0.465 3.4e-5 -0.177 0.0755-0.346 0.207-0.465l3.75-3.38z" fill="#000"/><path d="m11.2 4.21c0.23-0.257 0.624-0.277 0.881-0.0469l3.75 3.38c0.132 0.118 0.207 0.288 0.207 0.465 0 0.177-0.0755 0.346-0.207 0.465l-3.75 3.37c-0.256 0.23-0.651 0.21-0.881-0.0469-0.23-0.257-0.208-0.652 0.0478-0.883l3.24-2.91-3.24-2.91c-0.256-0.231-0.278-0.626-0.0478-0.883z" fill="#000"/></svg>
