<svg viewBox="0 0 16 16" xmlns="http://www.w3.org/2000/svg"><path d="m4.05 11.3c-0.0545 0.107-0.0545 0.247-0.0545 0.527v0.4c0 0.28 0 0.42 0.0545 0.527 0.0479 0.0941 0.124 0.171 0.218 0.218 0.107 0.0545 0.247 0.0545 0.527 0.0545h0.4c0.28 0 0.42 0 0.527-0.0545 0.0941-0.0479 0.171-0.124 0.218-0.218 0.0545-0.107 0.0545-0.247 0.0545-0.527v-0.4c0-0.28 0-0.42-0.0545-0.527-0.0479-0.0941-0.124-0.171-0.218-0.218-0.107-0.0545-0.247-0.0545-0.527-0.0545h-0.4c-0.28 0-0.42 0-0.527 0.0545-0.0941 0.0479-0.171 0.124-0.218 0.218z" fill="#000"/><path d="m7 11.8c0-0.28 0-0.42 0.0545-0.527 0.0479-0.0941 0.124-0.171 0.218-0.218 0.107-0.0545 0.247-0.0545 0.527-0.0545h0.4c0.28 0 0.42 0 0.527 0.0545 0.0941 0.0479 0.171 0.124 0.218 0.218 0.0545 0.107 0.0545 0.247 0.0545 0.527v0.4c0 0.28 0 0.42-0.0545 0.527-0.0479 0.0941-0.124 0.171-0.218 0.218-0.107 0.0545-0.247 0.0545-0.527 0.0545h-0.4c-0.28 0-0.42 0-0.527-0.0545-0.0941-0.0479-0.171-0.124-0.218-0.218-0.0545-0.107-0.0545-0.247-0.0545-0.527v-0.4z" fill="#000"/><path d="m10.1 11.3c-0.0545 0.107-0.0545 0.247-0.0545 0.527v0.4c0 0.28 0 0.42 0.0545 0.527 0.0479 0.0941 0.124 0.171 0.218 0.218 0.107 0.0545 0.247 0.0545 0.527 0.0545h0.4c0.28 0 0.42 0 0.527-0.0545 0.0941-0.0479 0.171-0.124 0.218-0.218 0.0545-0.107 0.0545-0.247 0.0545-0.527v-0.4c0-0.28 0-0.42-0.0545-0.527-0.0479-0.0941-0.124-0.171-0.218-0.218-0.107-0.0545-0.247-0.0545-0.527-0.0545h-0.4c-0.28 0-0.42 0-0.527 0.0545-0.0941 0.0479-0.171 0.124-0.218 0.218z" fill="#000"/><path d="m0 5.8c0-1.68 0-2.52 0.327-3.16 0.288-0.564 0.747-1.02 1.31-1.31 0.642-0.327 1.48-0.327 3.16-0.327h6.4c1.68 0 2.52 0 3.16 0.327 0.564 0.288 1.02 0.747 1.31 1.31 0.327 0.642 0.327 1.48 0.327 3.16v4.4c0 1.68 0 2.52-0.327 3.16-0.288 0.564-0.746 1.02-1.31 1.31-0.642 0.327-1.48 0.327-3.16 0.327h-6.4c-1.68 0-2.52 0-3.16-0.327-0.564-0.288-1.02-0.746-1.31-1.31-0.327-0.642-0.327-1.48-0.327-3.16v-4.4zm4.8-3.8h6.4c0.857 0 1.44 7.8e-4 1.89 0.0376 0.438 0.0358 0.663 0.101 0.819 0.18 0.376 0.192 0.682 0.498 0.874 0.874 0.0797 0.156 0.145 0.381 0.18 0.819 0.0368 0.45 0.0376 1.03 0.0376 1.89v4.4c0 0.857-8e-4 1.44-0.0376 1.89-0.0358 0.438-0.101 0.663-0.18 0.819-0.192 0.376-0.498 0.682-0.874 0.874-0.156 0.0797-0.381 0.145-0.819 0.18-0.45 0.0368-1.03 0.0376-1.89 0.0376h-6.4c-0.857 0-1.44-8e-4 -1.89-0.0376-0.438-0.0358-0.663-0.101-0.819-0.18-0.376-0.192-0.682-0.498-0.874-0.874-0.0797-0.156-0.145-0.381-0.18-0.819-0.0368-0.45-0.0376-1.03-0.0376-1.89v-4.4c0-0.857 7.8e-4 -1.44 0.0376-1.89 0.0358-0.438 0.101-0.663 0.18-0.819 0.192-0.376 0.498-0.682 0.874-0.874 0.156-0.0797 0.381-0.145 0.819-0.18 0.45-0.0368 1.03-0.0376 1.89-0.0376z" clip-rule="evenodd" fill="#000" fill-rule="evenodd"/></svg>
