<svg viewBox="0 0 16 16" xmlns="http://www.w3.org/2000/svg"><path d="m9.96 3.31c-0.0814-0.204-0.286-0.33-0.505-0.313-0.219 0.0177-0.4 0.176-0.448 0.39l-1.57 7.08-1.46-5.11c-0.0535-0.187-0.211-0.327-0.404-0.357s-0.385 0.0545-0.493 0.217l-1.85 2.78h-0.732c-0.276 0-0.5 0.224-0.5 0.5s0.224 0.5 0.5 0.5h1c0.167 0 0.323-0.0836 0.416-0.223l1.4-2.1 1.7 5.96c0.0628 0.22 0.267 0.369 0.496 0.362 0.229-0.0068 0.424-0.168 0.473-0.391l1.65-7.42 1.4 3.5c0.0759 0.19 0.26 0.314 0.464 0.314h2c0.276 0 0.5-0.224 0.5-0.5s-0.224-0.5-0.5-0.5h-1.66l-1.87-4.69z" fill="#000"/><path d="m0 6.4c0-2.24 0-3.36 0.436-4.22 0.383-0.753 0.995-1.36 1.75-1.75 0.856-0.436 1.98-0.436 4.22-0.436h3.2c2.24 0 3.36 0 4.22 0.436 0.753 0.383 1.36 0.995 1.75 1.75 0.436 0.856 0.436 1.98 0.436 4.22v3.2c0 2.24 0 3.36-0.436 4.22-0.384 0.753-0.995 1.36-1.75 1.75-0.856 0.436-1.98 0.436-4.22 0.436h-3.2c-2.24 0-3.36 0-4.22-0.436-0.753-0.384-1.36-0.995-1.75-1.75-0.436-0.856-0.436-1.98-0.436-4.22v-3.2zm6.4-5.4h3.2c1.14 0 1.93 7.8e-4 2.55 0.0512 0.605 0.0494 0.953 0.142 1.22 0.276 0.564 0.288 1.02 0.747 1.31 1.31 0.134 0.263 0.226 0.611 0.276 1.22 0.0504 0.617 0.0512 1.41 0.0512 2.55v3.2c0 1.14-8e-4 1.93-0.0512 2.55-0.0494 0.605-0.142 0.953-0.276 1.22-0.288 0.564-0.746 1.02-1.31 1.31-0.263 0.134-0.611 0.226-1.22 0.276-0.617 0.0504-1.41 0.0512-2.55 0.0512h-3.2c-1.14 0-1.93-8e-4 -2.55-0.0512-0.605-0.0494-0.953-0.142-1.22-0.276-0.564-0.288-1.02-0.746-1.31-1.31-0.134-0.263-0.226-0.611-0.276-1.22-0.0504-0.617-0.0512-1.41-0.0512-2.55v-3.2c0-1.14 7.8e-4 -1.93 0.0512-2.55 0.0494-0.605 0.142-0.953 0.276-1.22 0.288-0.564 0.747-1.02 1.31-1.31 0.263-0.134 0.611-0.226 1.22-0.276 0.617-0.0504 1.41-0.0512 2.55-0.0512z" clip-rule="evenodd" fill="#000" fill-rule="evenodd"/></svg>
