<svg xmlns="http://www.w3.org/2000/svg" viewBox="0 0 16 16" fill="none">
  <path fill="#000"
    d="M13.512 1.152c.734.926.892 2.164.409 3.12-.283.56-.498.815-1.178 1.193l-.062.03-.113.057-.082.042.007.074c.008.077.02.165.034.263l.025.153c.082.486.07 1.1.295 2.004l.068.272a718.612 718.612 0 0 0 .267 1.057c.096.385.167.684.223.94.068.314.112.56.134.758.057.531.04.755-.365 1.097-.062.05-.062.05-.121.094-.217.155-1.022.542-1.127.603a1.588 1.588 0 0 0-.468.381c-.054.07-.104.146-.151.228-.132.23-.307.482-.307.838V15c0 .553-.328 1-1 1H6c-.672 0-1-.447-1-1v-.149l-.75-.455a2.203 2.203 0 0 1-.222-.169l-.122-.113a1.48 1.48 0 0 1-.407-.65 1.147 1.147 0 0 1-.03-.14l-.005-.037-.908-.232c-.492-.128-.72-.382-.859-.687a.955.955 0 0 1-.08-.243c-.011-.051-.011-.051-.025-.143a2.502 2.502 0 0 1 .154-1.172c.066-.182.148-.351.242-.509.177-.296.37-.51.476-.595.054-.052.12-.108.21-.168l.026-.016-.01-.023a.998.998 0 0 1-.047-.15l-.003-.02c-.011-.051-.011-.051-.025-.143a2.503 2.503 0 0 1 .154-1.172c.067-.182.148-.352.242-.509.177-.296.37-.51.476-.594.054-.052.12-.109.21-.168l.025-.017-.01-.022a1.016 1.016 0 0 1-.046-.15l-.004-.022c-.01-.051-.01-.051-.025-.143a2.503 2.503 0 0 1 .154-1.172 2.99 2.99 0 0 1 .243-.51c.177-.295.37-.51.479-.596a1.56 1.56 0 0 1 .21-.167l.021-.014-.01-.026a.995.995 0 0 1-.046-.148l-.002-.02c-.012-.051-.012-.051-.025-.143a2.503 2.503 0 0 1 .154-1.172c.066-.182.148-.352.242-.51.177-.295.37-.51.475-.593.054-.052.121-.108.21-.168.138-.093.289-.169.488-.22.239-.064.504-.076.787-.005l.997.254.078-.082c.252-.252.574-.49.958-.69L9.288.29c1.338-.608 3.356-.23 4.224.862Zm-1.019.547c-.532-.67-1.863-.876-2.616-.534-.754.343-1.075.796-1.164 1.022l-3.88 10.42s-.205.431-.149.63c.057.2.33.38.33.38l.79.567s.196.172.196.299V15h4v-.644l.005-.04c.027-.178-.062-.932.426-1.562.558-.721 1.551-.969 1.87-1.238.319-.27-1.457-5.939-.953-6.429.502-.49 1.132-.572 1.449-1.199.317-.627.227-1.52-.304-2.19Zm-8.906 8.57c-.085-.022-.2.088-.2.088s-.295.245-.476.74c-.18.496-.1.836-.1.836s.023.145.107.167l1.057.27a.194.194 0 0 0 .122-.01.157.157 0 0 0 .048-.032.125.125 0 0 0 .03-.046l.45-.746.125-.83a.114.114 0 0 0-.012-.1.16.16 0 0 0-.094-.067l-1.057-.27ZM4.61 7.472c-.084-.021-.2.09-.2.09s-.294.244-.475.74c-.181.495-.1.835-.1.835s.02.145.105.167l1.057.27a.193.193 0 0 0 .122-.01.157.157 0 0 0 .048-.033.125.125 0 0 0 .03-.046l.45-.746.126-.83a.114.114 0 0 0-.013-.1.16.16 0 0 0-.094-.067l-1.056-.27Zm1.023-2.796c-.084-.021-.2.09-.2.09s-.295.243-.476.738c-.181.496-.1.836-.1.836s.022.146.106.167l1.058.27a.193.193 0 0 0 .122-.01.157.157 0 0 0 .048-.033.125.125 0 0 0 .029-.045l.45-.746.127-.83a.114.114 0 0 0-.012-.1.16.16 0 0 0-.095-.067l-1.057-.27ZM6.655 1.88c-.084-.021-.199.089-.199.089s-.295.244-.476.74c-.164.45-.112.772-.1.835 0 0 .021.146.105.167l1.058.27a.193.193 0 0 0 .122-.01.157.157 0 0 0 .049-.032.126.126 0 0 0 .029-.046l.45-.746.126-.83a.114.114 0 0 0-.012-.101.16.16 0 0 0-.094-.066l-1.058-.27Z" />
</svg>