<svg xmlns="http://www.w3.org/2000/svg" viewBox="0 0 16 16" fill="none">
  <path fill="#000"
    d="M13.11.102 4.132 6.428a.322.322 0 0 0-.085.428.293.293 0 0 0 .408.1l9.27-5.85a.61.61 0 0 0 .185-.83.557.557 0 0 0-.8-.174ZM5.188 7.378l10.03-4.333c.297-.129.634.032.746.355.112.323-.046.682-.348.795L5.396 7.983c-.153.057-.32-.029-.377-.193a.331.331 0 0 1 .169-.412Z" />
  <path fill="#000" fill-rule="evenodd"
    d="M11.917 6.361C13.28 6.663 14 7.106 14 7.501 14 8.176 11.877 9 8 9c-3.878 0-6-.824-6-1.5 0-.333.51-.7 1.487-.987L4.78 5.22C2.26 5.612 1 6.486 1 7.5v6C1 15.04 4.122 16 8 16s7-.96 7-2.5v-6l-.004-.103c-.052-.6-.551-1.144-1.5-1.563l-1.58.527ZM14 8.907c-.28.169-.621.323-1.02.459.012.042.019.087.019.134v1a.5.5 0 0 1-1 0l.001-.865c-.584.128-1.253.226-2.008.289A.4.4 0 0 1 10 10v1a.5.5 0 0 1-1 0v-1l.003-.018a26.818 26.818 0 0 1-2.005 0L7 10v1a.5.5 0 0 1-1 0v-1l.007-.076A15.249 15.249 0 0 1 4 9.635v.865a.5.5 0 0 1-1 0v-1a.5.5 0 0 1 .019-.135 5.24 5.24 0 0 1-1.02-.458L2 13.5c0 .67 2.698 1.5 6 1.5s6-.83 6-1.5l.001-4.593Z"
    clip-rule="evenodd" />
</svg>