<svg xmlns="http://www.w3.org/2000/svg" viewBox="0 0 16 16" fill="none">
  <path stroke="#000" stroke-linecap="round" stroke-linejoin="round"
    d="M6.5 15.5v-1c0-1.185-1.781-1.812-1.781-1.812L4.25 1.672s.8-.213 1.406-.422c.606-.209.858-.75 1.407-.75C7.61.5 8 .97 8 .97S8.39.5 8.938.5c.548 0 .8.541 1.406.75.605.21 1.406.422 1.406.422l-.469 11.016S9.5 13.315 9.5 14.5v1" />
  <path fill="#000"
    d="M13 4.28a.5.5 0 0 0 .414.493L14.708 5c.39 0 .39-2 0-2l-1.294.228A.5.5 0 0 0 13 3.72v.56Zm-.2 3a.5.5 0 0 0 .413.493L14.509 8c.39 0 .39-2 0-2l-1.294.228a.5.5 0 0 0-.414.492v.56Zm-.3 3a.5.5 0 0 0 .414.493l1.294.227c.39 0 .39-2 0-2l-1.294.228a.5.5 0 0 0-.414.492v.56ZM1.293 5l1.294-.227a.5.5 0 0 0 .414-.493v-.56a.5.5 0 0 0-.414-.492L1.292 3c-.39 0-.39 2 0 2ZM1.493 8l1.294-.227a.5.5 0 0 0 .414-.493v-.56a.5.5 0 0 0-.414-.492L1.493 6c-.39 0-.39 2 0 2ZM1.793 11l1.294-.227a.5.5 0 0 0 .414-.492v-.56a.5.5 0 0 0-.414-.493L1.792 9c-.39 0-.39 2 0 2Z" />
</svg>