<svg xmlns="http://www.w3.org/2000/svg" viewBox="0 0 16 16" fill="none">
  <path fill="#000" fill-rule="evenodd"
    d="M7.5 0a.5.5 0 0 0-.5.5V1c0 .017 0 .032.003.048-1.209.105-2.54.366-3.526.588C2.6 1.834 2 2.623 2 3.522v3.957c0 .899.6 1.688 1.477 1.885.718.162 1.62.345 2.523.472v.664a.5.5 0 0 0 .5.5h.804c.018.15.03.317.03.5C7.333 12.5 7 13 7 13h-.5a.5.5 0 0 0-.5.5v.5H5v-.5a.5.5 0 0 0-1 0v2a.5.5 0 0 0 1 0V15h1v.5a.5.5 0 0 0 .5.5H7a.5.5 0 0 0 .5-.5V15h1v.5a.5.5 0 0 0 .5.5h.5a.5.5 0 0 0 .5-.5V15h1v.5a.5.5 0 0 0 1 0v-2a.5.5 0 0 0-1 0v.5h-1v-.5a.5.5 0 0 0-.5-.5H9s-.333-.5-.333-1.5c0-.183.01-.35.03-.5H9.5a.5.5 0 0 0 .5-.5v-.664a32.4 32.4 0 0 0 2.523-.472C13.4 9.167 14 8.378 14 7.48V3.522c0-.9-.6-1.688-1.477-1.886-.985-.222-2.317-.483-3.526-.588A.443.443 0 0 0 9 1V.5a.5.5 0 0 0-.5-.5h-1ZM13 3.522v3.957c0 .456-.3.82-.697.91C11.041 8.673 9.293 9 8 9c-1.294 0-3.04-.327-4.303-.611-.398-.09-.697-.454-.697-.91V3.522c0-.456.3-.82.697-.91C4.959 2.327 6.707 2 8 2c1.294 0 3.04.327 4.303.612.398.09.697.454.697.91Z"
    clip-rule="evenodd" />
</svg>