<svg fill="none" viewBox="0 0 16 16" xmlns="http://www.w3.org/2000/svg"><path d="m6.05 16c-0.578 0-1.05-0.448-1.05-1v-0.997c0-0.0037 0.05-0.274-0.182-0.455-0.106-0.0833-0.218-0.149-0.305-0.194-0.0423-0.0218-0.0757-0.037-0.0954-0.0457l-0.0165-7e-3 -0.316-0.12c-0.186-0.0709-0.313-0.246-0.322-0.445l-0.0558-1.25-0.844 0.142h-0.0912c-0.551 0-0.867-0.348-0.987-0.519-0.127-0.182-0.191-0.373-0.227-0.502-0.0746-0.274-0.101-0.584-0.101-0.853 0-0.269 0.0261-0.579 0.101-0.853 0.0191-0.0702 0.0467-0.158 0.0882-0.254-0.0595-0.0601-0.105-0.117-0.136-0.163-0.127-0.182-0.191-0.373-0.227-0.502-0.0746-0.274-0.101-0.584-0.101-0.853 0-0.269 0.0261-0.579 0.101-0.853 0.0235-0.0862 0.0597-0.2 0.119-0.319-0.0306-0.0355-0.0556-0.0685-0.0754-0.0967-0.127-0.182-0.191-0.373-0.227-0.502-0.0746-0.274-0.101-0.584-0.101-0.853 0-0.269 0.0261-0.579 0.101-0.853 0.0353-0.13 0.0995-0.321 0.227-0.502 0.12-0.172 0.436-0.519 0.987-0.519h0.0912l0.914 0.153-0.0286-0.642c-0.0209-0.469 0.309-0.89 0.784-1.01l0.116-0.0301c0.0794-0.0208 0.192-0.0507 0.322-0.0864 0.263-0.0724 0.586-0.165 0.856-0.254 0.0859-0.0283 0.138-0.0671 0.352-0.226l0.0547-0.0407c0.215-0.16 0.658-0.488 1.31-0.488 0.362 0 0.672 0.0932 0.916 0.206 0.244-0.113 0.554-0.206 0.916-0.206 0.651 0 1.09 0.328 1.31 0.488l0.0547 0.0407c0.214 0.159 0.266 0.198 0.352 0.226 0.27 0.0891 0.593 0.182 0.856 0.254 0.13 0.0357 0.242 0.0656 0.322 0.0864l0.0922 0.024 0.031 0.00788c0.475 0.121 0.798 0.54 0.777 1.01l-0.0286 0.642 0.914-0.153h0.0913c0.551 0 0.867 0.348 0.987 0.519 0.127 0.182 0.191 0.373 0.227 0.502 0.0745 0.274 0.101 0.584 0.101 0.853 0 0.269-0.0261 0.579-0.101 0.853-0.0353 0.13-0.0995 0.321-0.227 0.502-0.0198 0.0282-0.0449 0.0613-0.0754 0.0967 0.059 0.12 0.0953 0.233 0.119 0.319 0.0746 0.274 0.101 0.584 0.101 0.853 0 0.269-0.026 0.579-0.101 0.853-0.0353 0.13-0.0995 0.321-0.227 0.502-0.0316 0.0452-0.0768 0.103-0.136 0.163 0.0415 0.095 0.0691 0.183 0.0882 0.254 0.0746 0.274 0.101 0.584 0.101 0.853 0 0.269-0.0261 0.579-0.101 0.853-0.0352 0.13-0.0994 0.321-0.226 0.502-0.12 0.172-0.436 0.519-0.987 0.519h-0.0912l-0.844-0.142-0.0558 1.25c-0.0089 0.199-0.135 0.374-0.322 0.445l-0.316 0.12-0.0165 7e-3c-0.0198 0.0087-0.0531 0.0239-0.0954 0.0457-0.0871 0.0448-0.199 0.11-0.305 0.194-0.232 0.182-0.182 0.455-0.182 0.455v0.997c0 0.552-0.469 1-1.05 1h-3.91zm1.95-14.6s0.13-0.15 0.346-0.274c0.153-0.088 0.348-0.163 0.57-0.163 0.3 0 0.509 0.158 0.738 0.331 0.181 0.137 0.375 0.283 0.636 0.369 0.592 0.195 1.37 0.394 1.37 0.394l-0.458 10.3s-1.21 0.522-1.21 1.63v0.997h-4v-0.997c0-1.11-1.21-1.63-1.21-1.63l-0.458-10.3s0.782-0.199 1.37-0.394c0.261-0.086 0.455-0.232 0.636-0.369 0.23-0.173 0.439-0.331 0.738-0.331 0.222 0 0.417 0.0751 0.57 0.163 0.216 0.124 0.346 0.274 0.346 0.274zm5.69 3.94-1.56-0.263v-1.22l1.56-0.262c0.309 0 0.351 1.31 0.124 1.66-0.0351 0.0546-0.0766 0.0862-0.124 0.0862zm-0.183 2.62-1.56-0.263v-1.22l1.56-0.262c0.0074 0 0.0147 7.6e-4 0.0219 0.00225 0.0488 0.0102 0.0903 0.0545 0.125 0.123 0.174 0.346 0.161 1.31-0.0379 1.56-0.0315 0.0406-0.0677 0.0636-0.109 0.0636zm-0.275 2.62-1.56-0.262v-1.22l1.56-0.262c0.0387 0 0.0732 0.0205 0.103 0.057 0.0142 0.017 0.0274 0.0376 0.0397 0.0612 0.205 0.393 0.157 1.63-0.143 1.63zm-10.5-1.75 1.56 0.262v1.22l-1.56 0.262c-0.3 0-0.348-1.24-0.143-1.63 0.0123-0.0236 0.0255-0.0441 0.0396-0.0612 0.0303-0.0365 0.0648-0.057 0.103-0.057zm1.29-2.36v1.22l-1.56 0.263c-0.0409 0-0.0771-0.0229-0.109-0.0636-0.199-0.256-0.211-1.22-0.0379-1.56 0.0343-0.0683 0.0758-0.113 0.125-0.123 0.00715-0.00149 0.0144-0.00225 0.0219-0.00225l1.56 0.262zm-0.183-2.62v1.22l-1.56 0.263c-0.048 0-0.0895-0.0316-0.125-0.0862-0.226-0.352-0.185-1.66 0.125-1.66l1.56 0.262z" clip-rule="evenodd" fill="#000" fill-rule="evenodd"/></svg>
