<svg xmlns="http://www.w3.org/2000/svg" viewBox="0 0 16 16" fill="none">
  <path fill="#000" fill-rule="evenodd"
    d="M.218 5.092C0 5.52 0 6.08 0 7.2v1.6c0 1.12 0 1.68.218 2.108a2 2 0 0 0 .874.874C1.52 12 2.08 12 3.2 12h9.6c1.12 0 1.68 0 2.108-.218a2 2 0 0 0 .874-.874C16 10.48 16 9.92 16 8.8V7.2c0-1.12 0-1.68-.218-2.108a2 2 0 0 0-.874-.874C14.48 4 13.92 4 12.8 4H3.2c-1.12 0-1.68 0-2.108.218a2 2 0 0 0-.874.874ZM10.5 5a.5.5 0 0 0-.5.5V6h-.5a.5.5 0 1 0 0 1h.5v3.5a.5.5 0 0 0 1 0V7h.5a.5.5 0 0 0 0-1H11v-.5a.5.5 0 0 0-.5-.5Zm2.5.5a.5.5 0 0 1 1 0V8h.5a.5.5 0 0 1 0 1H14v1.5a.5.5 0 0 1-1 0V9h-.5a.5.5 0 0 1 0-1h.5V5.5ZM7.5 10H5.908c.056-.157.092-.324.092-.5a1.5 1.5 0 0 0-1.79-1.47l-.885-1.131a.163.163 0 0 0-.284.15l.429 1.365C3.182 8.687 3 9.072 3 9.5c0 .176.036.343.092.5H1.5a.5.5 0 0 1-.5-.5 3.5 3.5 0 0 1 7 0 .5.5 0 0 1-.5.5Z"
    clip-rule="evenodd" />
</svg>