<svg xmlns="http://www.w3.org/2000/svg" viewBox="0 0 16 16" fill="none">
  <path fill="#000"
    d="M7 3a1 1 0 1 1-2 0 1 1 0 0 1 2 0ZM8 6a1 1 0 1 0 0-2 1 1 0 0 0 0 2ZM11 3a1 1 0 1 1-2 0 1 1 0 0 1 2 0ZM6 10a1 1 0 0 0-1 1v1a1 1 0 0 0 1 1h4a1 1 0 0 0 1-1v-1a1 1 0 0 0-1-1H6Z" />
  <path fill="#000" fill-rule="evenodd"
    d="M13 7v6a3 3 0 0 1-3 3H6a3 3 0 0 1-3-3V7a1 1 0 0 1-1-1V5a1 1 0 0 1 1-1V3a3 3 0 0 1 3-3h4a3 3 0 0 1 3 3v1a1 1 0 0 1 1 1v1a1 1 0 0 1-1 1ZM6 1h4a2 2 0 0 1 2 2v4H4V3a2 2 0 0 1 2-2ZM4 8v5a2 2 0 0 0 2 2h4a2 2 0 0 0 2-2V8H4Z"
    clip-rule="evenodd" />
</svg>