<svg xmlns="http://www.w3.org/2000/svg" viewBox="0 0 16 16" fill="none">
  <path fill="#000"
    d="M14.908 1.164c1.827 1.828 1.279 5.119-.996 7.395a4.007 4.007 0 0 1-1.68 1.04c.11.466.306.797.577 1.007l.156.113c.079.052.164.1.275.158l.36.179c.532.26.864.489 1.233.91.879 1.005.914 2.63-.038 3.506-.95.874-2.515.61-3.483-.393-.341-.354-.54-.816-.716-1.528l-.094-.407-.072-.338c-.126-.59-.215-.868-.312-.983-.227-.269-1.075-.577-2.48-.838l-.014.004-.872.873c-.15.15-.254.37-.361.772l-.107.446c-.216.938-.38 1.376-.839 1.837-1.263 1.263-3.205 1.478-4.356.326-1.152-1.152-.937-3.094.326-4.357.427-.428.835-.602 1.656-.807l.42-.102c.556-.134.818-.243.975-.4l.871-.873c.437-.437.606-.937.735-2.129l.055-.572c.173-1.937.439-2.89 1.39-3.841C9.79-.116 13.08-.665 14.908 1.164Zm-3.645 8.688-.424.082-.666.114c-.455.074-.827.145-1.138.223.93.247 1.536.539 1.847.907.203.24.315.52.44 1.036l.191.87c.154.683.307 1.081.52 1.3.625.65 1.586.811 2.085.352.526-.484.504-1.492-.038-2.111a2.363 2.363 0 0 0-.75-.585l-.265-.133c-.419-.203-.612-.31-.87-.511-.46-.358-.768-.878-.933-1.545ZM8.224 2.867c-.795.797-.968 1.845-1.072 2.916l-.074.803c-.102 1.048-.272 2.062-1.033 2.824l-.872.873c-.816.817-2.34.597-3.05 1.309-.904.903-1.05 2.221-.327 2.943.722.722 2.04.577 2.942-.326.71-.712.45-2.196 1.307-3.055l.871-.872c1.702-1.704 4.634-.774 6.289-2.43 1.926-1.928 2.371-4.606.996-5.982-1.376-1.377-4.052-.93-5.977.997ZM5.668.422a.5.5 0 0 1-.336.942c-.955-.34-1.783-.439-2.486-.308-1.148.213-2.068 1.52-1.795 3.088.275 1.585 1.34 3.034 2.17 3.44a.5.5 0 0 1-.441.898C1.66 7.932.395 6.212.065 4.315-.3 2.205.98.385 2.663.073c.892-.166 1.894-.046 3.005.349Z" />
</svg>