<svg xmlns="http://www.w3.org/2000/svg" viewBox="0 0 16 16" fill="none">
  <path fill="#000"
    d="M8 3c4.55 0 6.882 1.064 6.996 2.397L15 5.5v5c0 1.54-3.122 2.5-7 2.5s-7-.96-7-2.5v-5C1 4.12 3.333 3 8 3Zm6.001 3.907c-.28.169-.621.323-1.02.459.012.042.019.087.019.134v1a.5.5 0 0 1-1 0l.001-.865c-.584.128-1.253.226-2.008.289A.4.4 0 0 1 10 8v1a.5.5 0 0 1-1 0V8l.003-.018a26.82 26.82 0 0 1-2.005 0L7 8v1a.5.5 0 0 1-1 0V8l.007-.076A15.247 15.247 0 0 1 4 7.635V8.5a.5.5 0 0 1-1 0v-1a.5.5 0 0 1 .019-.135 5.24 5.24 0 0 1-1.02-.458L2 10.5c0 .67 2.698 1.5 6 1.5s6-.83 6-1.5l.001-3.593ZM8 4c-3.878 0-6 .823-6 1.5S4.122 7 8 7c3.877 0 6-.823 6-1.5S11.877 4 8 4Z" />
</svg>