<svg xmlns="http://www.w3.org/2000/svg" viewBox="0 0 16 16" fill="none">
  <path fill="#000"
    d="M11 .5a2.5 2.5 0 0 1 1.934 4.085c.2.288.375.595.523.917L13.5 5.5a2.5 2.5 0 0 1 0 5l-.043-.001a5.996 5.996 0 0 1-.523.917A2.5 2.5 0 1 1 8.69 13.96a6.038 6.038 0 0 1-1.383 0 2.5 2.5 0 1 1-4.242-2.546 5.96 5.96 0 0 1-.523-.916L2.5 10.5a2.5 2.5 0 1 1 0-5l.043.002c.148-.322.323-.629.523-.917A2.5 2.5 0 1 1 7.31 2.04a6.024 6.024 0 0 1 1.383 0A2.5 2.5 0 0 1 11 .5Zm1.275 11.71-.032.033a5.996 5.996 0 0 1-2.538 1.512 1.5 1.5 0 1 0 2.57-1.545Zm-8.55 0-.064.113a1.5 1.5 0 0 0 2.636 1.432 5.995 5.995 0 0 1-2.572-1.545ZM8 3a5.06 5.06 0 0 0-.5.025V3a2.5 2.5 0 0 1-3.655 2.218c-.11.164-.21.335-.3.512a2.5 2.5 0 0 1 .002 4.542c.088.176.188.347.298.511A2.5 2.5 0 0 1 7.5 12.974a5.041 5.041 0 0 0 1.002.001L8.5 13a2.5 2.5 0 0 1 3.655-2.217c.11-.164.21-.335.3-.512a2.5 2.5 0 0 1-.002-4.542 4.76 4.76 0 0 0-.298-.511A2.5 2.5 0 0 1 8.5 3.027 4.621 4.621 0 0 0 8 3Zm3 8.5a1.5 1.5 0 0 0-1.481 1.264 4.974 4.974 0 0 0 1.97-1.181A1.475 1.475 0 0 0 11 11.5Zm-6 0c-.17 0-.335.029-.488.081.549.536 1.22.946 1.967 1.184A1.497 1.497 0 0 0 5 11.5Zm8.82-4.966.035.15a6.026 6.026 0 0 1-.035 2.781 1.499 1.499 0 0 0 0-2.93Zm-11.64.001-.101.025a1.5 1.5 0 0 0 .101 2.906 6.008 6.008 0 0 1 0-2.93Zm10.64.129-.116.065a1.499 1.499 0 0 0 .115 2.608 5.006 5.006 0 0 0 0-2.673Zm-9.639 0-.02.074a5.009 5.009 0 0 0 .02 2.599 1.499 1.499 0 0 0 0-2.673Zm6.34-3.428.006.05a1.5 1.5 0 0 0 1.96 1.133 4.981 4.981 0 0 0-1.966-1.183Zm-3.04.001-.14.045a5 5 0 0 0-1.83 1.136 1.5 1.5 0 0 0 1.97-1.181ZM11 1.5a1.5 1.5 0 0 0-1.297.746c.989.292 1.869.83 2.572 1.544A1.5 1.5 0 0 0 11 1.5Zm-6 0a1.5 1.5 0 0 0-1.275 2.291 5.986 5.986 0 0 1 2.57-1.545A1.494 1.494 0 0 0 5 1.5Z" />
</svg>