<svg fill="none" viewBox="0 0 24 24" xmlns="http://www.w3.org/2000/svg"><path d="m8.87 3.06c-0.196-0.0596-0.421-0.0647-1.08-0.0647h-2.49c-0.848 0-1.45 3.9e-4 -1.93 0.0392-0.469 0.0383-0.767 0.112-1.01 0.233-0.47 0.24-0.853 0.622-1.09 1.09-0.122 0.239-0.195 0.536-0.233 1.01-0.0388 0.475-0.0392 1.08-0.0392 1.93v9.4c0 0.848 3.9e-4 1.45 0.0392 1.93 0.0384 0.469 0.112 0.767 0.233 1.01 0.24 0.47 0.622 0.853 1.09 1.09 0.239 0.122 0.536 0.195 1.01 0.233 0.475 0.0388 1.08 0.0392 1.93 0.0392h13.4c0.848 0 1.45-4e-4 1.93-0.0392 0.469-0.0384 0.767-0.112 1.01-0.233 0.47-0.24 0.853-0.622 1.09-1.09 0.122-0.239 0.195-0.536 0.233-1.01 0.0388-0.475 0.0392-1.08 0.0392-1.93v-6.4c0-0.848-4e-4 -1.45-0.0392-1.93-0.0384-0.469-0.112-0.767-0.233-1.01-0.24-0.47-0.622-0.853-1.09-1.09-0.239-0.122-0.536-0.195-1.01-0.233-0.475-0.0388-1.08-0.0392-1.93-0.0392h-5.49c-0.0249 0-0.0495 1e-5 -0.0738 2e-5 -0.555 2e-4 -0.938 3.4e-4 -1.29-0.108-0.314-0.0955-0.607-0.252-0.861-0.461-0.288-0.237-0.5-0.556-0.808-1.02-0.0134-0.0202-0.0271-0.0407-0.0409-0.0614l-0.1-0.15c-0.365-0.547-0.493-0.731-0.652-0.861-0.152-0.125-0.328-0.219-0.517-0.276zm-1-1.06c0.555-2.1e-4 0.938-3.4e-4 1.29 0.108 0.314 0.0955 0.607 0.252 0.861 0.461 0.288 0.237 0.5 0.556 0.808 1.02 0.0134 0.0202 0.0271 0.0407 0.0409 0.0614l0.1 0.15c0.364 0.547 0.493 0.731 0.652 0.861 0.152 0.125 0.328 0.219 0.517 0.276 0.196 0.0596 0.421 0.0647 1.08 0.0647h5.51c0.821 0 1.47 0 1.99 0.0425 0.531 0.0434 0.975 0.134 1.38 0.339 0.658 0.336 1.19 0.871 1.53 1.53 0.205 0.403 0.296 0.847 0.339 1.38 0.0425 0.521 0.0425 1.17 0.0425 1.99v6.44c0 0.821 0 1.47-0.0425 1.99-0.0434 0.531-0.134 0.975-0.339 1.38-0.336 0.658-0.871 1.19-1.53 1.53-0.403 0.205-0.847 0.296-1.38 0.339-0.521 0.0425-1.17 0.0425-1.99 0.0425h-13.4c-0.821 0-1.47 0-1.99-0.0425-0.531-0.0434-0.975-0.134-1.38-0.339-0.659-0.336-1.19-0.871-1.53-1.53-0.205-0.403-0.296-0.847-0.339-1.38-0.0425-0.521-0.0425-1.17-0.0425-1.99v-9.44c-3.34e-6 -0.821-6.08e-6 -1.47 0.0425-1.99 0.0434-0.531 0.134-0.975 0.339-1.38 0.336-0.659 0.871-1.19 1.53-1.53 0.403-0.205 0.847-0.296 1.38-0.339 0.521-0.0425 1.17-0.0425 1.99-0.0425h2.51c0.0249 0 0.0495 0 0.0738-1e-5z" clip-rule="evenodd" fill="#000" fill-rule="evenodd"/></svg>
