<svg viewBox="0 0 24 24" xmlns="http://www.w3.org/2000/svg"><path d="m17 11.5c0-0.276-0.224-0.5-0.5-0.5s-0.5 0.224-0.5 0.5v4.73l-2.78 1.85c-0.23 0.153-0.292 0.464-0.139 0.693 0.153 0.23 0.464 0.292 0.693 0.139l3-2c0.139-0.0927 0.223-0.249 0.223-0.416v-5z" fill="#000"/><path d="m6.79 1c0.657 0 0.882 0.0051 1.08 0.0647 0.189 0.0573 0.364 0.151 0.517 0.276 0.159 0.13 0.287 0.314 0.652 0.861l0.141 0.212c0.308 0.462 0.52 0.781 0.808 1.02 0.254 0.209 0.546 0.365 0.861 0.461 0.356 0.108 0.74 0.108 1.29 0.108l3.86-2e-5c0.706 0 1.21 2.7e-4 1.61 0.0274 0.393 0.0268 0.645 0.0782 0.849 0.163 0.613 0.254 1.1 0.74 1.35 1.35 0.0049 0.0117 0.0096 0.0236 0.0142 0.0356 0.09 0.234 0.292 0.421 0.542 0.421 0.305 0 0.549-0.27 0.464-0.563-0.0273-0.0945-0.0592-0.186-0.0965-0.277-0.355-0.858-1.04-1.54-1.89-1.89-0.347-0.144-0.72-0.206-1.16-0.237-0.435-0.0297-0.974-0.0297-1.66-0.0297h-3.81c-0.657 0-0.882-0.00509-1.08-0.0647-0.189-0.0573-0.364-0.151-0.517-0.276-0.158-0.13-0.287-0.314-0.652-0.861l-0.141-0.212c-0.308-0.462-0.52-0.781-0.808-1.02-0.254-0.209-0.546-0.365-0.861-0.461-0.356-0.108-0.74-0.108-1.29-0.108l-1.58 1.76e-5c-0.821-3.34e-6 -1.47-5.97e-6 -1.99 0.0425-0.531 0.0434-0.975 0.134-1.38 0.339-0.659 0.336-1.19 0.871-1.53 1.53-0.205 0.403-0.296 0.847-0.339 1.38-0.0425 0.521-0.0425 1.17-0.0425 1.99v7.44c-3.06e-6 0.821-5.47e-6 1.47 0.0425 1.99 0.0434 0.531 0.134 0.975 0.339 1.38 0.336 0.659 0.871 1.19 1.53 1.53 0.403 0.205 0.847 0.296 1.38 0.339 0.521 0.0426 1.17 0.0426 1.99 0.0426h2.97c0.888 3.45 4.02 6 7.75 6 4.42 0 8-3.58 8-8 0-1.62-0.479-3.12-1.3-4.38l0.776-2.11c0.361-0.979-0.364-2.02-1.41-2.02h-14.2c-1.05 0-1.98 0.653-2.35 1.64l-2.84 7.72c-0.129-0.0349-0.239-0.0774-0.339-0.128-0.47-0.24-0.853-0.622-1.09-1.09-0.122-0.239-0.195-0.536-0.233-1.01-0.0388-0.475-0.0392-1.08-0.0392-1.93v-7.4c0-0.848 3.9e-4 -1.45 0.0392-1.93 0.0384-0.469 0.112-0.767 0.233-1.01 0.24-0.47 0.622-0.853 1.09-1.09 0.239-0.122 0.536-0.195 1.01-0.233 0.475-0.0388 1.08-0.0392 1.93-0.0392h1.49zm9.21 22c3.87 0 7-3.13 7-7s-3.13-7-7-7-7 3.13-7 7 3.13 7 7 7z" clip-rule="evenodd" fill="#000" fill-rule="evenodd"/></svg>
