<svg xmlns="http://www.w3.org/2000/svg" viewBox="0 0 16 16" fill="none">
  <path fill="#000"
    d="M9 8a1 1 0 1 1-2 0 1 1 0 0 1 2 0Zm3.777 2.73a.47.47 0 0 0 .663-.196C13.8 9.764 14 8.906 14 8c0-.905-.2-1.764-.56-2.534a.47.47 0 0 0-.663-.195l-1.737.992c-.24.137-.319.442-.224.702a2.993 2.993 0 0 1 0 2.071c-.095.26-.016.564.224.701l1.737.993ZM2 8c0 .906.2 1.765.56 2.534.116.25.424.333.663.196l1.737-.993c.24-.137.319-.442.224-.701a2.994 2.994 0 0 1 0-2.071c.095-.26.016-.565-.224-.702l-1.737-.992a.469.469 0 0 0-.663.195C2.2 6.236 2 7.095 2 8Z" />
  <path fill="#000" fill-rule="evenodd" d="M16 8A8 8 0 1 1 0 8a8 8 0 0 1 16 0Zm-1 0A7 7 0 1 1 1 8a7 7 0 0 1 14 0Z"
    clip-rule="evenodd" />
</svg>