<svg xmlns="http://www.w3.org/2000/svg" viewBox="0 0 16 16" fill="none">
  <path fill="#000" fill-rule="evenodd"
    d="M12.578 1.006c.723.015 1.183.062 1.57.223a3 3 0 0 1 1.624 1.623C16 3.404 16 4.102 16 5.5c0 1.398 0 2.097-.228 2.648a3 3 0 0 1-1.624 1.624c-.307.127-.659.183-1.152.208.004.136.004.303.004.52 0 .465 0 .697-.038.89a2 2 0 0 1-1.572 1.572c-.107.021-.226.03-.39.035V13c0 .465 0 .698-.051.889a1.5 1.5 0 0 1-1.06 1.06C9.696 15 9.464 15 9 15H7c-.465 0-.697 0-.888-.05a1.5 1.5 0 0 1-1.06-1.061C5 13.697 5 13.465 5 13v-.003a2.291 2.291 0 0 1-.39-.035 2 2 0 0 1-1.572-1.572C3 11.197 3 10.965 3 10.5c0-.217 0-.384.004-.52-.493-.025-.845-.081-1.152-.208A3 3 0 0 1 .228 8.148C0 7.597 0 6.898 0 5.5c0-1.398 0-2.096.228-2.648A3 3 0 0 1 1.852 1.23c.387-.16.847-.208 1.57-.223a.503.503 0 0 1 .14-.002C3.834 1 4.144 1 4.5 1h7c.355 0 .665 0 .939.004a.505.505 0 0 1 .139.002ZM4.004 10.01a1 1 0 0 0-.95-1.027c-.451-.023-.67-.072-.82-.134a2 2 0 0 1-1.082-1.082c-.055-.134-.1-.325-.126-.692C1.001 6.697 1 6.213 1 5.5c0-.712 0-1.197.026-1.573.025-.368.07-.559.126-.692a2 2 0 0 1 1.083-1.082c.133-.056.324-.101.692-.126L3 2.022V4.5a.5.5 0 0 0 1 0V2h2v2.5a.5.5 0 0 0 1 0V2h2v2.5a.5.5 0 0 0 1 0V2h2v2.5a.5.5 0 0 0 1 0V2.022l.073.005c.368.025.559.07.692.126a2 2 0 0 1 1.083 1.082c.055.133.1.324.126.692.025.376.026.86.026 1.573s0 1.197-.026 1.574c-.025.367-.07.558-.126.692a2 2 0 0 1-1.083 1.082c-.15.062-.368.11-.82.134a1 1 0 0 0-.949 1.027c.004.118.004.268.004.491 0 .513-.005.623-.02.695a1 1 0 0 1-.785.786 1.407 1.407 0 0 1-.22.016 1 1 0 0 0-.975 1V13c0 .242 0 .39-.005.502a.795.795 0 0 1-.012.128.5.5 0 0 1-.354.353.843.843 0 0 1-.128.012C9.39 14 9.241 14 9 14H7c-.242 0-.39 0-.501-.005-.107-.005-.132-.013-.128-.012a.5.5 0 0 1-.354-.353c.001.003-.007-.022-.012-.128C6 13.39 6 13.242 6 13v-.003a1 1 0 0 0-.974-1 1.406 1.406 0 0 1-.221-.016 1 1 0 0 1-.786-.786C4.005 11.123 4 11.013 4 10.5c0-.223 0-.373.004-.49Z"
    clip-rule="evenodd" />
</svg>