<svg xmlns="http://www.w3.org/2000/svg" viewBox="0 0 16 16" fill="none">
  <path fill="#000" fill-rule="evenodd"
    d="M10.5 11a3.5 3.5 0 1 0 0-7 3.5 3.5 0 0 0 0 7Zm0-1a2.5 2.5 0 1 0 0-5 2.5 2.5 0 0 0 0 5Z" clip-rule="evenodd" />
  <path fill="#000"
    d="M3.5 5a.5.5 0 0 1 .5.5v4a.5.5 0 0 1-1 0v-4a.5.5 0 0 1 .5-.5Zm2.5.5a.5.5 0 1 0-1 0v4a.5.5 0 0 0 1 0v-4Z" />
  <path fill="#000" fill-rule="evenodd"
    d="M.5 1a.5.5 0 1 0 0 1H1v1H.5a.5.5 0 0 0-.5.5v2a.5.5 0 0 0 .5.5H1v2H.5a.5.5 0 0 0-.5.5v3a.5.5 0 0 0 .5.5H1v1.5a.5.5 0 0 0 1 0v-.51c.157.01.35.01.6.01H3v1.5a.5.5 0 0 0 .5.5h2a.5.5 0 0 0 .5-.5V13h2v1.5a.5.5 0 0 0 .5.5h5a.5.5 0 0 0 .5-.5V13h.4c.56 0 .84 0 1.054-.109a1 1 0 0 0 .437-.437C16 12.24 16 11.96 16 11.4V6.8c0-1.68 0-2.52-.327-3.162a3 3 0 0 0-1.311-1.31C13.72 2 12.88 2 11.2 2H2.6c-.25 0-.443 0-.6.01V1.5a.5.5 0 0 0-.5-.5h-1ZM13 13H9v1h4v-1Zm1.4-1c.296 0 .459 0 .575-.01l.014-.001v-.013c.01-.117.011-.28.011-.576V6.8c0-.856 0-1.439-.038-1.889-.035-.438-.1-.662-.18-.819a2 2 0 0 0-.874-.874c-.156-.08-.38-.144-.819-.18C12.639 3 12.057 3 11.2 3H2.6c-.297 0-.459.001-.575.01l-.014.002v.013C2 3.142 2 3.304 2 3.6v7.8c0 .297 0 .46.01.576l.001.013.014.001c.116.01.278.01.575.01h11.8ZM5 14H4v-1h1v1Z"
    clip-rule="evenodd" />
</svg>