<svg xmlns="http://www.w3.org/2000/svg" viewBox="0 0 16 16" fill="none">
  <path fill="#000" fill-rule="evenodd"
    d="M11.53 1a2.5 2.5 0 0 1 2.386 1.754l1.763 6.142c.089.285.16.574.212.866.07.234.109.481.109.738v1a2.5 2.5 0 0 1-2.5 2.5h-11A2.5 2.5 0 0 1 0 11.5v-1c0-.25.037-.499.11-.738.052-.292.122-.58.211-.866l1.763-6.142A2.5 2.5 0 0 1 4.47 1h7.06Zm1.97 8h-11a1.5 1.5 0 0 0-1.418 1.01A6.022 6.022 0 0 0 1 11v.5A1.5 1.5 0 0 0 2.5 13h11a1.5 1.5 0 0 0 1.5-1.5V11c0-.332-.027-.663-.081-.99A1.501 1.501 0 0 0 13.5 9Zm0 1a.5.5 0 0 1 .5.5v1a.5.5 0 0 1-1 0v-1a.5.5 0 0 1 .5-.5Zm-2 0a.5.5 0 0 1 .5.5v1a.5.5 0 0 1-1 0v-1a.5.5 0 0 1 .5-.5Zm-2 0a.5.5 0 0 1 .5.5v1a.5.5 0 0 1-1 0v-1a.5.5 0 0 1 .5-.5Zm-2 0a.5.5 0 0 1 .5.5v1a.5.5 0 0 1-1 0v-1a.5.5 0 0 1 .5-.5Zm4.03-8H4.47a1.5 1.5 0 0 0-1.43 1.053L1.596 8.17c.28-.11.584-.17.904-.17h11c.319 0 .624.06.904.17l-1.443-5.117A1.5 1.5 0 0 0 11.53 2Z"
    clip-rule="evenodd" />
</svg>