<svg xmlns="http://www.w3.org/2000/svg" viewBox="0 0 16 16" fill="none">
  <path fill="#000"
    d="M2 6c0-.471 0-.707.146-.853C2.293 5 2.53 5 3 5s.707 0 .854.147C4 5.293 4 5.529 4 6c0 .472 0 .707-.146.854C3.707 7 3.47 7 3 7s-.707 0-.854-.146C2 6.707 2 6.472 2 6Zm3 0c0-.471 0-.707.146-.853C5.293 5 5.53 5 6 5s.707 0 .854.147C7 5.293 7 5.529 7 6c0 .472 0 .707-.146.854C6.707 7 6.47 7 6 7s-.707 0-.854-.146C5 6.707 5 6.472 5 6ZM2.146 8.147C2 8.293 2 8.529 2 9c0 .472 0 .707.146.854C2.293 10 2.53 10 3 10h1c.471 0 .707 0 .854-.146C5 9.707 5 9.472 5 9c0-.471 0-.707-.146-.853C4.707 8 4.47 8 4 8H3c-.471 0-.707 0-.854.147ZM6 9c0-.471 0-.707.146-.853C6.293 8 6.53 8 7 8h3c.471 0 .707 0 .854.147C11 8.293 11 8.529 11 9c0 .472 0 .707-.146.854C10.707 10 10.47 10 10 10H7c-.471 0-.707 0-.854-.146C6 9.707 6 9.472 6 9Zm2.146-3.853C8 5.293 8 5.529 8 6c0 .472 0 .707.146.854C8.293 7 8.53 7 9 7s.707 0 .854-.146C10 6.707 10 6.472 10 6c0-.471 0-.707-.146-.853C9.707 5 9.47 5 9 5s-.707 0-.854.147Zm3 0C11 5.293 11 5.529 11 6c0 .472 0 .707.146.854.082.082.192.118.354.134.247.024.37.036.435.107.065.072.065.183.065.405V9c0 .472 0 .707.146.854.147.146.383.146.854.146s.707 0 .854-.146C14 9.707 14 9.472 14 9V6c0-.471 0-.707-.146-.853C13.707 5 13.47 5 13 5h-1c-.471 0-.707 0-.854.147Z" />
  <path fill="#000" fill-rule="evenodd"
    d="M8 2H4.8c-1.68 0-2.52 0-3.162.327A3 3 0 0 0 .327 3.638C0 4.28 0 5.12 0 6.8v1.4c0 1.68 0 2.52.327 3.162a3 3 0 0 0 1.311 1.311C2.28 13 3.12 13 4.8 13h6.4c1.68 0 2.52 0 3.162-.327a3 3 0 0 0 1.311-1.31C16 10.72 16 9.88 16 8.2V6.8c0-1.68 0-2.52-.327-3.162a3 3 0 0 0-1.311-1.31C13.72 2 12.88 2 11.2 2H8Zm5.089 1.038C12.639 3 12.057 3 11.2 3H4.8c-.857 0-1.439.001-1.889.038-.438.036-.663.1-.819.18a2 2 0 0 0-.874.874c-.08.157-.145.38-.18.82C1 5.361 1 5.943 1 6.8v1.4c0 .857 0 1.44.038 1.89.035.438.1.662.18.818a2 2 0 0 0 .874.874c.156.08.38.145.819.18C3.361 12 3.943 12 4.8 12h6.4c.857 0 1.439 0 1.889-.037.438-.036.663-.101.819-.18a2 2 0 0 0 .874-.875c.08-.156.145-.38.18-.819C15 9.64 15 9.057 15 8.2V6.8c0-.856 0-1.439-.038-1.889-.035-.438-.1-.662-.18-.819a2 2 0 0 0-.874-.874c-.156-.08-.38-.144-.819-.18Z"
    clip-rule="evenodd" />
</svg>