<svg fill="none" viewBox="0 0 16 16" xmlns="http://www.w3.org/2000/svg"><path d="m8 1c2.76 0 5 2.24 5 5v4c0 2.76-2.24 5-5 5-2.76 0-5-2.24-5-5v-4c0-2.76 2.24-5 5-5zm4 8v1c0 2.21-1.79 4-4 4-2.21 0-4-1.79-4-4v-1h8zm-5-3c0 0.37 0.201 0.693 0.5 0.866v1.13h-3.5v-2c0-2.04 1.53-3.72 3.5-3.97v1.1c-0.299 0.173-0.5 0.496-0.5 0.866v2zm1.5-2.87c0.299 0.173 0.5 0.496 0.5 0.866v2c0 0.37-0.201 0.693-0.5 0.866v1.13h3.5v-2c0-2.04-1.53-3.72-3.5-3.97v1.1z" clip-rule="evenodd" fill="#000" fill-rule="evenodd"/></svg>
