<svg xmlns="http://www.w3.org/2000/svg" viewBox="0 0 16 16" fill="none">
  <path fill="#000" fill-rule="evenodd"
    d="M5.152 1.235C5 1.602 5 2.068 5 3c0 .932 0 1.398.152 1.766a2 2 0 0 0 1.083 1.082C6.602 6 7.068 6 8 6v2H3.5A1.5 1.5 0 0 0 2 9.5v.514c-.327.017-.561.054-.765.139a2 2 0 0 0-1.083 1.082C0 11.602 0 12.068 0 13c0 .932 0 1.398.152 1.766a2 2 0 0 0 1.083 1.082C1.602 16 2.068 16 3 16c.932 0 1.398 0 1.765-.152a2 2 0 0 0 1.083-1.082C6 14.398 6 13.932 6 13s0-1.398-.152-1.765a2 2 0 0 0-1.083-1.082C4.398 10 3.932 10 3 10v-.5a.5.5 0 0 1 .5-.5h9a.5.5 0 0 1 .5.5v.5c-.932 0-1.398 0-1.765.152a2 2 0 0 0-1.083 1.083C10 11.602 10 12.068 10 13c0 .932 0 1.398.152 1.766a2 2 0 0 0 1.083 1.082C11.602 16 12.068 16 13 16c.932 0 1.398 0 1.765-.152a2 2 0 0 0 1.083-1.082C16 14.398 16 13.932 16 13s0-1.398-.152-1.765a2 2 0 0 0-1.083-1.082c-.204-.085-.438-.123-.765-.14V9.5A1.5 1.5 0 0 0 12.5 8H9V5.987c.327-.017.561-.054.765-.139a2 2 0 0 0 1.083-1.082C11 4.398 11 3.932 11 3s0-1.398-.152-1.765A2 2 0 0 0 9.765.153C9.398 0 8.932 0 8 0c-.932 0-1.398 0-1.765.153a2 2 0 0 0-1.083 1.082ZM1.11 11.546C1 11.76 1 12.04 1 12.6v.8c0 .56 0 .84.109 1.054a1 1 0 0 0 .437.437C1.76 15 2.04 15 2.6 15h.8c.56 0 .84 0 1.054-.109a1 1 0 0 0 .437-.437C5 14.24 5 13.96 5 13.4v-.8c0-.56 0-.84-.109-1.054a1 1 0 0 0-.437-.437C4.24 11 3.96 11 3.4 11h-.8c-.56 0-.84 0-1.054.109a1 1 0 0 0-.437.437ZM11 12.6c0-.56 0-.84.109-1.054a1 1 0 0 1 .437-.437C11.76 11 12.04 11 12.6 11h.8c.56 0 .84 0 1.054.109a1 1 0 0 1 .437.437C15 11.76 15 12.04 15 12.6v.8c0 .56 0 .84-.109 1.054a1 1 0 0 1-.437.437C14.24 15 13.96 15 13.4 15h-.8c-.56 0-.84 0-1.054-.109a1 1 0 0 1-.437-.437C11 14.24 11 13.96 11 13.4v-.8ZM6.109 1.546C6 1.76 6 2.04 6 2.6v.8c0 .56 0 .84.109 1.054a1 1 0 0 0 .437.437C6.76 5 7.04 5 7.6 5h.8c.56 0 .84 0 1.054-.109a1 1 0 0 0 .437-.437C10 4.24 10 3.96 10 3.4v-.8c0-.56 0-.84-.109-1.054a1 1 0 0 0-.437-.437C9.24 1 8.96 1 8.4 1h-.8c-.56 0-.84 0-1.054.109a1 1 0 0 0-.437.437Z"
    clip-rule="evenodd" />
</svg>