<svg xmlns="http://www.w3.org/2000/svg" viewBox="0 0 16 16" fill="none">
  <path fill="#000"
    d="M3.605.002 7.155 0c1.336 0 1.821.14 2.31.401.353.189.651.44.888.75l-.57.988-.066-.132a1.726 1.726 0 0 0-.723-.724C8.603 1.073 8.222 1 7.154 1H3.846c-1.068 0-1.449.074-1.84.283a1.723 1.723 0 0 0-.723.724c-.21.39-.283.77-.283 1.84v8.308c0 1.068.073 1.448.283 1.839.168.315.409.556.723.724.391.209.772.282 1.84.282h3.308l.418-.004c.76-.02 1.087-.099 1.422-.278.314-.168.555-.41.723-.724.085-.159.148-.315.192-.517l1.083-.808c-.034.959-.168 1.376-.393 1.797A2.726 2.726 0 0 1 9.465 15.6l-.185.092c-.438.202-.956.308-2.126.308H3.846c-1.337 0-1.822-.139-2.311-.4A2.726 2.726 0 0 1 .4 14.466l-.093-.185c-.187-.408-.292-.883-.306-1.886L0 3.846C0 2.51.14 2.024.4 1.535A2.726 2.726 0 0 1 1.536.401L1.72.309C2.127.12 2.602.016 3.605.002ZM4.5 13l1.992.002c.15.187.32.348.506.48L7 13.5a.5.5 0 0 1-.5.5h-2a.5.5 0 0 1 0-1ZM14.382.202l.866.5a1.5 1.5 0 0 1 .55 2.049L11.4 10.367a1.49 1.49 0 0 1-.4.451l-1.951 1.46a1 1 0 0 1-1.592-.92l.289-2.419a1.5 1.5 0 0 1 .19-.572L12.333.751a1.5 1.5 0 0 1 2.05-.55ZM8 2a1 1 0 0 1 1 1v.493L8 5.224V3H3v8h2.985l-.017.15a2.5 2.5 0 0 0 .044.851H3a1 1 0 0 1-1-1V3a1 1 0 0 1 1-1h5Zm5.2-.75L8.801 8.868a.5.5 0 0 0-.064.19l-.287 2.418 1.95-1.458a.5.5 0 0 0 .095-.094l.038-.056 4.397-7.616a.5.5 0 0 0-.183-.683l-.866-.5a.5.5 0 0 0-.683.183Z" />
</svg>