<svg xmlns="http://www.w3.org/2000/svg" viewBox="0 0 16 16" fill="none">
  <path fill="#000" fill-rule="evenodd"
    d="m14.54 14.37.375-.375.107-.108.225-.224-.005-.004c.108-.117.205-.233.285-.353.63-.944.63-2.174 0-3.118-.155-.233-.372-.449-.612-.689l-.056-.056-.056-.056c-.24-.24-.456-.457-.689-.612a2.806 2.806 0 0 0-3.118 0c-.232.155-.449.372-.689.612l-.055.056-.056.056c-.24.24-.457.456-.613.689a2.807 2.807 0 0 0-.29.562 35.55 35.55 0 0 1-2.097-1.945A35.553 35.553 0 0 1 5.25 6.707c.195-.074.383-.171.561-.29.233-.155.45-.372.69-.612l.055-.056.056-.056c.24-.24.457-.456.612-.689.63-.944.63-2.174 0-3.118-.155-.233-.372-.449-.612-.689l-.056-.055-.056-.056c-.24-.24-.456-.457-.689-.613a2.806 2.806 0 0 0-3.118 0c-.232.156-.448.372-.688.613l-.063.063c-.122.122-.23.23-.32.323-1.61 1.62-2.257 4.165-.845 6.26.769 1.143 1.867 2.542 3.409 4.083 1.541 1.542 2.94 2.64 4.083 3.41 2.098 1.413 4.652.765 6.271-.855Zm-5.714.025c1.324.892 2.934.747 4.227-.098a4.862 4.862 0 0 0 .78-.634l-.003-.002c.087-.082.19-.185.322-.318.132-.132.235-.235.317-.321.102-.107.172-.19.227-.272a1.81 1.81 0 0 0 0-2.007c-.1-.148-.248-.296-.544-.593-.297-.296-.445-.445-.593-.544a1.806 1.806 0 0 0-2.007 0c-.148.1-.297.248-.593.544-.297.297-.445.445-.544.593a1.805 1.805 0 0 0-.238.518c-.142.509-.582 1.029-.993.697a34.458 34.458 0 0 1-2.696-2.446 34.48 34.48 0 0 1-2.446-2.696c-.331-.41.188-.85.697-.992.181-.051.356-.13.518-.238.148-.1.296-.248.593-.544.297-.297.445-.445.544-.593.406-.608.406-1.4 0-2.007-.099-.148-.247-.297-.544-.593-.297-.297-.445-.445-.593-.544a1.806 1.806 0 0 0-2.007 0c-.148.099-.296.247-.593.544-.132.132-.235.235-.317.321C.97 3.54.523 5.567 1.605 7.174c.734 1.09 1.792 2.439 3.287 3.934 1.495 1.496 2.845 2.553 3.934 3.287Z"
    clip-rule="evenodd" />
</svg>