<svg xmlns="http://www.w3.org/2000/svg" viewBox="0 0 16 16" fill="none">
  <path fill="#000" fill-rule="evenodd" d="M11 8a3 3 0 1 1-6 0 3 3 0 0 1 6 0Zm-1 0a2 2 0 1 1-4 0 2 2 0 0 1 4 0Z"
    clip-rule="evenodd" />
  <path fill="#000" fill-rule="evenodd"
    d="M1.174 3.62c.649-.498 1.534-.596 3.073-.615l.665-1.065A2 2 0 0 1 6.61 1h2.783a2 2 0 0 1 1.696.94l.665 1.065c1.54.02 2.424.117 3.073.615a3 3 0 0 1 .554.554c.62.808.62 1.98.62 4.326 0 2.346 0 3.519-.62 4.327a3 3 0 0 1-.554.553c-.808.62-1.98.62-4.326.62h-5c-2.346 0-3.518 0-4.326-.62a3 3 0 0 1-.554-.553C0 12.019 0 10.846 0 8.5c0-2.345 0-3.518.62-4.326a3 3 0 0 1 .554-.554Zm9.73-.085a1 1 0 0 0 .836.47c1.592.02 2.132.143 2.477.409.14.106.263.23.37.369.154.2.274.491.342 1.09.07.618.071 1.431.071 2.627 0 1.196-.002 2.01-.071 2.628-.068.598-.188.889-.342 1.09a1.96 1.96 0 0 1-.37.369c-.2.154-.491.275-1.09.342C12.51 13 11.697 13 10.5 13h-5c-1.196 0-2.01-.001-2.628-.07-.598-.068-.889-.189-1.09-.343a1.999 1.999 0 0 1-.369-.37c-.154-.2-.274-.49-.342-1.089C1.001 10.51 1 9.696 1 8.5c0-1.196.001-2.01.071-2.627.068-.599.188-.89.342-1.09a2 2 0 0 1 .37-.37c.345-.265.885-.388 2.477-.408a1 1 0 0 0 .835-.47l.666-1.065A1 1 0 0 1 6.609 2h2.783a1 1 0 0 1 .848.47l.665 1.065Z"
    clip-rule="evenodd" />
</svg>