<svg xmlns="http://www.w3.org/2000/svg" viewBox="0 0 16 16" fill="none">
  <path fill="#000" fill-rule="evenodd"
    d="M.327 2.638C0 3.28 0 4.12 0 5.8v2.4c0 1.68 0 2.52.327 3.162a3 3 0 0 0 1.311 1.311C2.28 13 3.12 13 4.8 13H6v1.5a.5.5 0 0 1-.5.5h-1a.5.5 0 0 0 0 1h7a.5.5 0 0 0 0-1h-1a.5.5 0 0 1-.5-.5V13h1.2c1.68 0 2.52 0 3.162-.327a3 3 0 0 0 1.311-1.31C16 10.72 16 9.88 16 8.2V5.8c0-1.68 0-2.52-.327-3.162a3 3 0 0 0-1.311-1.31C13.72 1 12.88 1 11.2 1H4.8c-1.68 0-2.52 0-3.162.327A3 3 0 0 0 .327 2.638ZM11.2 2H4.8c-.857 0-1.439.001-1.889.038-.438.036-.663.1-.819.18a2 2 0 0 0-.874.874c-.08.157-.145.38-.18.82C1 4.361 1 4.943 1 5.8v2.4c0 .857 0 1.44.038 1.89.035.438.1.662.18.818a2 2 0 0 0 .874.874c.156.08.38.145.819.18C3.361 12 3.943 12 4.8 12h6.4c.857 0 1.439 0 1.889-.037.438-.036.663-.101.819-.18a2 2 0 0 0 .874-.875c.08-.156.145-.38.18-.819C15 9.64 15 9.057 15 8.2V5.8c0-.856 0-1.439-.038-1.889-.035-.438-.1-.662-.18-.819a2 2 0 0 0-.874-.874c-.156-.08-.38-.144-.819-.18C12.639 2 12.057 2 11.2 2Z"
    clip-rule="evenodd" />
</svg>