<svg xmlns="http://www.w3.org/2000/svg" viewBox="0 0 16 16" fill="none">
  <path fill="#000" fill-rule="evenodd"
    d="M3 4.8c0-1.68 0-2.52.327-3.162A3 3 0 0 1 4.638.328C5.28 0 6.12 0 7.8 0h.4c1.68 0 2.52 0 3.162.327a3 3 0 0 1 1.311 1.311C13 2.28 13 3.12 13 4.8v6.4c0 1.68 0 2.52-.327 3.162a3 3 0 0 1-1.311 1.311C10.72 16 9.88 16 8.2 16h-.4c-1.68 0-2.52 0-3.162-.327a3 3 0 0 1-1.311-1.31C3 13.72 3 12.88 3 11.2V4.8Zm3-3.769-.089.007c-.438.036-.663.1-.819.18a2 2 0 0 0-.874.874c-.08.157-.145.38-.18.82C4 3.361 4 3.943 4 4.8v6.4c0 .857 0 1.44.038 1.89.035.438.1.662.18.818a2 2 0 0 0 .874.874c.156.08.38.145.819.18C6.361 15 6.943 15 7.8 15h.4c.857 0 1.439 0 1.889-.037.438-.036.663-.101.819-.18a2 2 0 0 0 .874-.875c.08-.156.145-.38.18-.819C12 12.64 12 12.057 12 11.2V4.8c0-.856 0-1.439-.038-1.889-.035-.438-.1-.662-.18-.819a2 2 0 0 0-.874-.874c-.156-.08-.38-.144-.819-.18a7.074 7.074 0 0 0-.09-.007 1 1 0 0 1-.999.97H7a1 1 0 0 1-1-.97Z"
    clip-rule="evenodd" />
</svg>