<svg xmlns="http://www.w3.org/2000/svg" viewBox="0 0 16 16" fill="none">
  <path fill="#000" fill-rule="evenodd" d="M8 9a3 3 0 1 0 0-6 3 3 0 0 0 0 6Zm0-1a2 2 0 1 0 0-4 2 2 0 0 0 0 4Z"
    clip-rule="evenodd" />
  <path fill="#000" fill-rule="evenodd"
    d="M10 11h1.2c1.68 0 2.52 0 3.162-.327a3 3 0 0 0 1.311-1.31C16 8.72 16 7.88 16 6.2v-.4c0-1.68 0-2.52-.327-3.162a3 3 0 0 0-1.311-1.31C13.72 1 12.88 1 11.2 1H4.8c-1.68 0-2.52 0-3.162.327A3 3 0 0 0 .327 2.638C0 3.28 0 4.12 0 5.8v.4c0 1.68 0 2.52.327 3.162a3 3 0 0 0 1.311 1.311C2.28 11 3.12 11 4.8 11H6v3H2.5a.5.5 0 0 0 0 1h11a.5.5 0 0 0 0-1H10v-3Zm1.2-9H4.8c-.857 0-1.439.001-1.889.038-.438.036-.663.1-.819.18a2 2 0 0 0-.874.874c-.08.157-.145.38-.18.82C1 4.361 1 4.943 1 5.8v.4c0 .857 0 1.44.038 1.89.035.438.1.662.18.818a2 2 0 0 0 .874.874c.156.08.38.145.819.18C3.361 10 3.943 10 4.8 10h6.4c.857 0 1.439 0 1.889-.037.438-.036.663-.101.819-.18a2 2 0 0 0 .874-.875c.08-.156.145-.38.18-.819C15 7.64 15 7.057 15 6.2v-.4c0-.856 0-1.439-.038-1.889-.035-.438-.1-.662-.18-.819a2 2 0 0 0-.874-.874c-.156-.08-.38-.144-.819-.18C12.639 2 12.057 2 11.2 2ZM9 11H7v3h2v-3Z"
    clip-rule="evenodd" />
</svg>