<svg fill="none" viewBox="0 0 24 24" xmlns="http://www.w3.org/2000/svg"><path d="m0.327 3.64c-0.327 0.642-0.327 1.48-0.327 3.16v10.4c0 1.68 0 2.52 0.327 3.16 0.288 0.564 0.747 1.02 1.31 1.31 0.642 0.327 1.48 0.327 3.16 0.327h14.4c1.68 0 2.52 0 3.16-0.327 0.564-0.288 1.02-0.746 1.31-1.31 0.327-0.642 0.327-1.48 0.327-3.16v-10.4c0-1.68 0-2.52-0.327-3.16-0.288-0.564-0.746-1.02-1.31-1.31-0.642-0.327-1.48-0.327-3.16-0.327h-14.4c-1.68 0-2.52 0-3.16 0.327-0.564 0.288-1.02 0.747-1.31 1.31zm4.67 0.862c0 0.828-0.672 1.5-1.5 1.5s-1.5-0.672-1.5-1.5 0.672-1.5 1.5-1.5 1.5 0.672 1.5 1.5zm4 0c0 0.828-0.672 1.5-1.5 1.5s-1.5-0.672-1.5-1.5 0.672-1.5 1.5-1.5 1.5 0.672 1.5 1.5zm2.5 1.5c0.828 0 1.5-0.672 1.5-1.5s-0.672-1.5-1.5-1.5-1.5 0.672-1.5 1.5 0.672 1.5 1.5 1.5zm5.5-1.5c0 0.828-0.672 1.5-1.5 1.5s-1.5-0.672-1.5-1.5 0.672-1.5 1.5-1.5 1.5 0.672 1.5 1.5zm3.05-1.23c-0.0545 0.107-0.0545 0.247-0.0545 0.527v1.4c0 0.28 0 0.42 0.0545 0.527 0.0479 0.0941 0.124 0.171 0.218 0.218 0.107 0.0545 0.247 0.0545 0.527 0.0545h0.4c0.28 0 0.42 0 0.527-0.0545 0.0941-0.0479 0.171-0.124 0.218-0.218 0.0545-0.107 0.0545-0.247 0.0545-0.527v-1.4c0-0.28 0-0.42-0.0545-0.527-0.0479-0.0941-0.124-0.171-0.218-0.218-0.107-0.0545-0.247-0.0545-0.527-0.0545h-0.4c-0.28 0-0.42 0-0.527 0.0545-0.0941 0.0479-0.171 0.124-0.218 0.218zm-19.1 7.93c0-1.12 0-1.68 0.218-2.11 0.192-0.376 0.498-0.682 0.874-0.874 0.428-0.218 0.988-0.218 2.11-0.218h15.6c1.12 0 1.68 0 2.11 0.218 0.376 0.192 0.682 0.498 0.874 0.874 0.218 0.428 0.218 0.988 0.218 2.11v6.6c0 1.12 0 1.68-0.218 2.11-0.192 0.376-0.498 0.682-0.874 0.874-0.428 0.218-0.988 0.218-2.11 0.218h-15.6c-1.12 0-1.68 0-2.11-0.218-0.376-0.192-0.682-0.498-0.874-0.874-0.218-0.428-0.218-0.988-0.218-2.11v-6.6z" clip-rule="evenodd" fill="#000" fill-rule="evenodd"/></svg>
