<svg viewBox="0 0 24 24" xmlns="http://www.w3.org/2000/svg"><path d="m9.34 0.432-1.17-0.383c-0.0956-0.0313-0.195-0.0479-0.296-0.0495-0.098 0.00622-0.194 0.0331-0.281 0.0789-0.087 0.0458-0.163 0.109-0.224 0.187-0.325 0.356-0.56 0.784-0.686 1.25-0.171 0.486-0.226 1-0.159 1.52 0.00909 0.116 0.0499 0.228 0.118 0.323 0.0681 0.0947 0.161 0.169 0.268 0.214l1.15 0.378c0.105 0.0344 0.215 0.0527 0.325 0.0544 0.125 0.00155 0.247-0.0364 0.349-0.108 0.287-0.203 0.456-0.65 0.604-1.04l0.00975-0.0257c0.0953-0.251 0.18-0.507 0.24-0.769 0.106-0.458 0.225-1.03 0.0388-1.37-0.0646-0.117-0.168-0.208-0.293-0.258z" fill="#000"/><path d="m6.34 5.05 1.17 0.383c0.124 0.0493 0.228 0.14 0.293 0.258 0.186 0.337 0.067 0.911-0.0388 1.37-0.0603 0.262-0.145 0.518-0.24 0.769l-0.00976 0.0257c-0.148 0.389-0.317 0.836-0.604 1.04-0.102 0.0721-0.224 0.11-0.349 0.109-0.111-0.00168-0.22-0.02-0.325-0.0544l-1.15-0.378c-0.107-0.0456-0.2-0.12-0.268-0.214-0.0681-0.0947-0.109-0.206-0.118-0.323-0.0666-0.511-0.0119-1.03 0.159-1.52 0.126-0.465 0.362-0.893 0.686-1.25 0.0607-0.0773 0.137-0.141 0.224-0.187 0.087-0.0458 0.183-0.0726 0.281-0.0789 0.101 0.00152 0.2 0.0182 0.296 0.0495z" fill="#000"/><path d="m4.51 10 1.17 0.382c0.124 0.0493 0.228 0.14 0.293 0.258 0.186 0.337 0.067 0.91-0.0388 1.37-0.0603 0.262-0.145 0.518-0.24 0.769l-0.00976 0.0257c-0.148 0.389-0.317 0.836-0.604 1.04-0.102 0.072-0.224 0.11-0.349 0.108-0.111-0.0017-0.22-0.0201-0.325-0.0545l-1.15-0.378c-0.107-0.0456-0.2-0.12-0.268-0.214-0.0681-0.0947-0.109-0.206-0.118-0.323-0.0666-0.511-0.0119-1.03 0.159-1.52 0.126-0.465 0.362-0.894 0.686-1.25 0.0607-0.0773 0.137-0.141 0.224-0.187 0.087-0.0458 0.183-0.0727 0.281-0.0789 0.101 0.0015 0.2 0.0182 0.296 0.0495z" fill="#000"/><path d="m3.84 15.4-1.17-0.382c-0.0956-0.0313-0.195-0.048-0.296-0.0495-0.098 0.0062-0.194 0.0331-0.281 0.0789-0.087 0.0457-0.163 0.109-0.224 0.187-0.325 0.356-0.56 0.784-0.686 1.25-0.171 0.486-0.226 1-0.159 1.52 0.00909 0.116 0.0499 0.228 0.118 0.323 0.0681 0.0947 0.161 0.169 0.268 0.214l1.15 0.378c0.105 0.0344 0.215 0.0528 0.325 0.0545 0.125 0.0015 0.247-0.0365 0.349-0.108 0.287-0.203 0.456-0.65 0.604-1.04l0.00975-0.0257c0.0953-0.251 0.18-0.507 0.24-0.769 0.106-0.458 0.225-1.03 0.0388-1.37-0.0646-0.117-0.168-0.208-0.293-0.258z" fill="#000"/><path d="m11.4 3.51c0.535-1.5 1.96-2.51 3.56-2.51 1.41 0 2.42 0.901 2.81 2.07 0.393 1.18 0.147 2.58-0.93 3.53-0.413 0.366-0.767 0.701-1.02 0.981-0.126 0.139-0.238 0.276-0.322 0.405-0.0689 0.106-0.176 0.291-0.176 0.506 0 0.197 0.0585 0.467 0.129 0.737 0.0754 0.289 0.181 0.639 0.306 1.02 0.248 0.772 0.579 1.71 0.906 2.65l0.0017 0.0049c0.33 0.939 0.656 1.87 0.9 2.63 0.122 0.379 0.222 0.709 0.29 0.971 0.0731 0.28 0.0968 0.433 0.0968 0.485 0 0.184-0.0955 0.393-0.351 0.632-0.255 0.238-0.622 0.459-1.04 0.654-1.41 0.653-2.6 1.98-2.6 3.66v1.55c0 0.276 0.234 0.5 0.501 0.5 0.287 0 0.511-0.224 0.501-0.5v-1.55c0-1.17 0.844-2.21 2.03-2.76 0.464-0.216 0.938-0.49 1.3-0.831 0.365-0.341 0.668-0.796 0.668-1.36 0-0.198-0.0585-0.467-0.129-0.737-0.0754-0.289-0.181-0.639-0.306-1.02-0.248-0.772-0.579-1.71-0.906-2.65l-0.0017-0.0049c-0.33-0.939-0.656-1.87-0.9-2.63-0.122-0.379-0.222-0.709-0.29-0.971-0.0555-0.213-0.0826-0.352-0.0923-0.43 0.0019-0.00325 0.0041-0.00674 0.0065-0.0105 0.0014-0.00234 3e-3 -0.00477 0.0046-0.0073 0.0421-0.0648 0.114-0.157 0.224-0.278 0.217-0.239 0.538-0.546 0.942-0.903 1.41-1.25 1.72-3.09 1.22-4.6-0.506-1.52-1.85-2.76-3.76-2.76-2.02 0-3.83 1.27-4.5 3.17l-5.42 15.2c-0.279 0.785 0.133 1.62 0.87 1.94 0.616 0.264 1.41 0.645 2.05 1.08 0.318 0.217 0.576 0.433 0.749 0.638 0.177 0.21 0.226 0.36 0.226 0.455v1c0 0.276 0.224 0.5 0.501 0.5 0.277 0 0.501-0.224 0.501-0.5v-1c0-0.428-0.21-0.801-0.461-1.1-0.255-0.302-0.594-0.578-0.951-0.82-0.715-0.487-1.58-0.898-2.22-1.17-0.282-0.121-0.413-0.43-0.321-0.687l5.42-15.2z" fill="#000"/></svg>
