<svg viewBox="0 0 24 24" xmlns="http://www.w3.org/2000/svg"><path d="m12 8c0 0.132-0.0171 0.262-0.0503 0.39l-1.96 8.72c-0.00368 0.0163-0.00817 0.0325-0.0135 0.0484-0.162 0.487-0.493 0.969-1.15 1.32-0.632 0.335-1.54 0.527-2.83 0.527-1.29 0-2.2-0.192-2.83-0.527-0.654-0.346-0.984-0.828-1.15-1.32-0.00529-0.0159-0.00978-0.032-0.0135-0.0484l-1.96-8.72c-0.0332-0.128-0.0504-0.258-0.0504-0.39 0-1.66 2.69-3 6-3s6 1.34 6 3zm-2.2 1.23c0.979-0.49 1.2-0.981 1.2-1.23s-0.225-0.737-1.2-1.23c-0.92-0.46-2.26-0.773-3.8-0.773s-2.88 0.313-3.8 0.773c-0.979 0.49-1.2 0.981-1.2 1.23s0.225 0.737 1.2 1.23c0.92 0.46 2.26 0.773 3.8 0.773s2.88-0.313 3.8-0.773zm-3.8 1.77c1.83 0 3.48-0.411 4.58-1.06l-1.56 6.92c-0.0898 0.256-0.261 0.515-0.658 0.725-0.429 0.227-1.15 0.41-2.35 0.411h-0.00772c-1.21 0-1.93-0.183-2.36-0.411-0.397-0.21-0.568-0.469-0.658-0.725l-1.56-6.92c1.1 0.648 2.74 1.06 4.58 1.06z" clip-rule="evenodd" fill="#000" fill-rule="evenodd"/><path d="m12 8c0 0.132 0.0171 0.263 0.0504 0.39l1.96 8.72c0.0037 0.0164 0.0082 0.0325 0.0135 0.0484 0.162 0.487 0.493 0.969 1.15 1.32 0.632 0.335 1.54 0.527 2.83 0.527s2.2-0.192 2.83-0.527c0.654-0.346 0.984-0.828 1.15-1.32 0.0053-0.0159 0.0098-0.0321 0.0135-0.0484l1.96-8.72c0.0332-0.128 0.0503-0.258 0.0503-0.39 0-1.66-2.69-3-6-3s-6 1.34-6 3zm9.8 1.23c0.98-0.49 1.2-0.981 1.2-1.23s-0.225-0.737-1.2-1.23c-0.92-0.46-2.26-0.773-3.8-0.773s-2.88 0.313-3.8 0.773c-0.98 0.49-1.2 0.981-1.2 1.23s0.225 0.737 1.2 1.23c0.92 0.46 2.26 0.773 3.8 0.773s2.88-0.313 3.8-0.773zm-3.8 1.77c1.83 0 3.48-0.411 4.58-1.06l-1.56 6.92c-0.0899 0.256-0.261 0.515-0.658 0.725-0.43 0.227-1.15 0.41-2.35 0.411h-0.0078c-1.21 0-1.93-0.183-2.36-0.411-0.397-0.21-0.568-0.469-0.658-0.725l-1.56-6.92c1.1 0.648 2.74 1.06 4.58 1.06z" clip-rule="evenodd" fill="#000" fill-rule="evenodd"/></svg>
