<svg viewBox="0 0 24 24" xmlns="http://www.w3.org/2000/svg"><path d="m9.45 24h0.06c0.24 0 0.46-0.19 0.49-0.44l0.44-3.52c0.05-0.47-0.1-0.92-0.43-1.25l-0.88-0.82c-0.1-0.11-0.15-0.25-0.14-0.4l1.01-10c0.02-0.17-0.06-0.33-0.19-0.44s-0.31-0.14-0.47-0.08c-0.27 0.09-1.13 0.3-1.57 0.04-0.34-0.2-0.04-0.88-0.04-0.88 0.09-0.18 0.06-0.39-0.07-0.54s-0.34-0.21-0.53-0.15c-0.34 0.11-0.97 0.22-1.21 0.12-0.08-0.03-0.12-0.29-0.1-0.47 0.03-0.23-0.1-0.45-0.31-0.53-0.1-0.04-0.56-0.23-0.5-0.51 0.01-0.06 0.08-0.13 0.18-0.19 0.2-0.12 0.49-0.16 0.68-0.1l0.48 0.16c0.15 0.05 0.32 0.02 0.45-0.07s0.21-0.24 0.21-0.4c0-0.01 0.03-1 0.5-1 0.69 0 2.34 0.67 2.72 0.92 0.16 0.1 0.37 0.1 0.54 0s0.26-0.3 0.23-0.49c-0.08-0.59-0.03-1.39 0.16-1.58 0.249-0.249 0.4-0.35 0.84-0.35s0.591 0.101 0.84 0.35c0.19 0.19 0.24 0.99 0.16 1.58-0.03 0.19 0.06 0.39 0.23 0.49s0.38 0.1 0.54 0c0.38-0.25 2.03-0.92 2.72-0.92 0.47 0 0.5 0.99 0.5 1 0 0.16 0.08 0.31 0.21 0.4s0.3 0.12 0.45 0.07l0.48-0.16c0.19-0.06 0.48-0.02 0.68 0.1 0.1 0.06 0.17 0.13 0.18 0.19 0.06 0.28-0.4 0.47-0.5 0.51-0.21 0.08-0.34 0.3-0.31 0.53 0.02 0.18-0.02 0.44-0.1 0.47-0.24 0.1-0.87-0.01-1.21-0.12-0.19-0.06-0.4 0-0.53 0.15s-0.16 0.36-0.07 0.54c0 0 0.3 0.68-0.04 0.88-0.44 0.26-1.3 0.05-1.57-0.04-0.16-0.06-0.34-0.03-0.47 0.08s-0.21 0.27-0.19 0.44l1.01 10c0.01 0.15-0.04 0.29-0.14 0.4l-0.88 0.82c-0.33 0.33-0.48 0.78-0.43 1.25l0.44 3.52c0.03 0.25 0.25 0.44 0.49 0.44h0.06c0.27-0.03 0.47-0.28 0.43-0.56l-0.44-3.51c-0.02-0.15 0.03-0.31 0.14-0.42l0.88-0.82c0.32-0.32 0.47-0.75 0.43-1.2l-0.95-9.33c0.5 0.08 1.16 0.09 1.69-0.22 0.52-0.31 0.67-0.83 0.64-1.3 0.36 0.04 0.76 0.04 1.08-0.09 0.51-0.21 0.69-0.72 0.72-1.15 0.63-0.36 0.93-0.91 0.8-1.5-0.07-0.35-0.31-0.65-0.66-0.85-0.42-0.24-0.96-0.32-1.4-0.21-0.15-0.64-0.55-1.34-1.42-1.34-0.64 0-1.89 0.32-2.46 0.61 0 0 0.151-0.81-0.48-1.46-0.632-0.65-1.02-0.65-1.55-0.65s-0.919 0-1.55 0.65c-0.631 0.65-0.48 1.46-0.48 1.46-0.57-0.29-1.82-0.61-2.46-0.61-0.87 0-1.27 0.7-1.42 1.34-0.44-0.11-0.98-0.03-1.4 0.21-0.35 0.2-0.59 0.5-0.66 0.85-0.13 0.59 0.17 1.14 0.8 1.5 0.03 0.43 0.21 0.94 0.72 1.15 0.32 0.13 0.72 0.13 1.08 0.09-0.03 0.47 0.12 0.99 0.64 1.3 0.53 0.31 1.19 0.3 1.69 0.22l-0.95 9.33c-0.04 0.45 0.11 0.88 0.43 1.2l0.88 0.82c0.11 0.11 0.16 0.27 0.14 0.42l-0.44 3.51c-0.04 0.28 0.16 0.53 0.43 0.56z" fill="#000"/><path d="m5.3 9c-1.7 0-2.3 0.897-2.3 2 0 1.1 0.635 2 2.3 2s1.7-0.897 1.7-2c0-1.1-0.0115-2-1.7-2z" fill="#000"/><path d="m2 17c0-1.1 0.601-2 2.3-2 1.69 0 1.7 0.897 1.7 2s-0.0421 2-1.7 2-2.3-0.897-2.3-2z" fill="#000"/><path d="m18.7 9c1.7 0 2.3 0.897 2.3 2 0 1.1-0.635 2-2.3 2-1.66 0-1.7-0.897-1.7-2 0-1.1 0.0115-2 1.7-2z" fill="#000"/><path d="m22 17c0-1.1-0.601-2-2.3-2-1.69 0-1.7 0.897-1.7 2s0.0421 2 1.7 2c1.66 0 2.3-0.897 2.3-2z" fill="#000"/></svg>
