<svg fill="none" viewBox="0 0 24 24" xmlns="http://www.w3.org/2000/svg"><path d="m11.9 9.09e-6c-0.409-1.01e-4 -0.687-1.7e-4 -0.93 0.048-0.992 0.197-1.77 0.973-1.96 1.96-0.0482 0.242-0.0482 0.521-0.048 0.93l1e-5 2.1c-0.281 0.031-0.527 0.0848-0.757 0.178-0.479 0.194-0.899 0.509-1.22 0.913-0.365 0.459-0.542 1.06-0.815 1.99l-2.38 8.11c-0.301 1.02-0.536 1.82-0.665 2.47-0.131 0.655-0.166 1.21-0.0207 1.74 0.235 0.845 0.778 1.57 1.52 2.03 0.462 0.288 1.01 0.411 1.67 0.47 0.657 0.0587 1.49 0.0586 2.56 0.0586h6.22c1.07 0 1.9 1e-4 2.56-0.0586 0.666-0.0595 1.21-0.183 1.67-0.47 0.744-0.464 1.29-1.19 1.52-2.03 0.146-0.524 0.11-1.08-0.0207-1.74-0.129-0.647-0.364-1.45-0.665-2.47l-2.38-8.11c-0.272-0.926-0.45-1.53-0.815-1.99-0.322-0.405-0.742-0.719-1.22-0.913-0.231-0.0936-0.477-0.147-0.757-0.178v-2.1c1e-4 -0.409 2e-4 -0.687-0.048-0.93-0.197-0.992-0.972-1.77-1.96-1.96-0.242-0.0482-0.521-0.0481-0.93-0.048h-0.116zm2.06 5v-2c0-0.489-0.0024-0.66-0.0288-0.793-0.118-0.595-0.584-1.06-1.18-1.18-0.133-0.0264-0.304-0.0288-0.793-0.0288s-0.66 0.00242-0.793 0.0288c-0.595 0.118-1.06 0.584-1.18 1.18-0.0264 0.133-0.0288 0.304-0.0288 0.793v2c0.121-5.4e-4 0.248-5e-4 0.381-4.6e-4h3.24c0.133-4e-5 0.26-8e-5 0.381 4.6e-4zm-5.38 1.15c0.34-0.138 0.756-0.147 1.87-0.147h3.01c1.12 0 1.53 0.00892 1.87 0.147 0.319 0.13 0.6 0.339 0.814 0.609 0.228 0.287 0.354 0.684 0.67 1.76l2.35 7.97c0.31 1.05 0.532 1.81 0.651 2.41 0.119 0.595 0.122 0.972 0.0378 1.27-0.168 0.603-0.556 1.12-1.09 1.45-0.266 0.166-0.629 0.269-1.23 0.323-0.608 0.0543-1.4 0.0547-2.49 0.0547h-6.17c-1.1 0-1.89-4e-4 -2.49-0.0547-0.604-0.0539-0.967-0.157-1.23-0.323-0.532-0.331-0.919-0.85-1.09-1.45-0.084-0.302-0.0809-0.679 0.0378-1.27 0.119-0.598 0.342-1.36 0.651-2.41l2.35-7.97c0.315-1.07 0.442-1.47 0.67-1.76 0.214-0.27 0.495-0.479 0.814-0.609z" clip-rule="evenodd" fill="#000" fill-rule="evenodd"/></svg>
