<svg viewBox="0 0 24 24" xmlns="http://www.w3.org/2000/svg"><path d="m6.2 9.64 13.5-9.49c0.399-0.281 0.941-0.164 1.2 0.259 0.259 0.423 0.134 0.986-0.278 1.25l-13.9 8.77c-0.209 0.132-0.481 0.0658-0.612-0.149s-0.0751-0.5 0.127-0.642z" fill="#000"/><path d="m22.8 4.57-15 6.5c-0.226 0.0977-0.339 0.372-0.254 0.618 0.085 0.246 0.337 0.374 0.567 0.289l15.3-5.68c0.454-0.168 0.69-0.707 0.523-1.19s-0.673-0.726-1.12-0.533z" fill="#000"/><path d="m1 11c0-1.57 2.49-2.93 6.11-3.58l-2.02 1.52c-0.181 0.0573-0.357 0.117-0.525 0.178-0.932 0.339-1.62 0.719-2.05 1.09-0.435 0.374-0.516 0.648-0.516 0.799s0.0811 0.424 0.516 0.799c0.432 0.371 1.12 0.751 2.05 1.09 1.86 0.674 4.48 1.11 7.44 1.11 2.95 0 5.58-0.437 7.44-1.11 0.932-0.339 1.62-0.719 2.05-1.09 0.435-0.374 0.516-0.648 0.516-0.799s-0.0811-0.424-0.516-0.799c-0.432-0.371-1.12-0.751-2.05-1.09l-0.0534-0.0193 1.42-0.49c1.38 0.668 2.2 1.5 2.2 2.4v9c0 2.21-4.92 4-11 4-6.08 0-11-1.79-11-4v-9zm21 1.67c-0.504 0.398-1.18 0.762-2 1.08v2.5c0 0.276-0.224 0.5-0.5 0.5s-0.5-0.224-0.5-0.5v-2.16c-1.16 0.348-2.52 0.611-4 0.764v2.65c0 0.276-0.224 0.5-0.5 0.5s-0.5-0.224-0.5-0.5v-2.57c-0.649 0.0433-1.32 0.0659-2 0.0659s-1.35-0.0226-2-0.0659v2.57c0 0.276-0.224 0.5-0.5 0.5s-0.5-0.224-0.5-0.5v-2.65c-1.48-0.153-2.84-0.416-4-0.764v2.16c0 0.276-0.224 0.5-0.5 0.5s-0.5-0.224-0.5-0.5v-2.5c-0.818-0.315-1.5-0.678-2-1.08v7.33c0 0.151 0.0811 0.424 0.516 0.799 0.432 0.371 1.12 0.751 2.05 1.09 1.86 0.674 4.48 1.11 7.44 1.11 2.95 0 5.58-0.437 7.44-1.11 0.932-0.339 1.62-0.719 2.05-1.09 0.435-0.374 0.516-0.648 0.516-0.799v-7.33z" clip-rule="evenodd" fill="#000" fill-rule="evenodd"/></svg>
