<svg viewBox="0 0 24 24" xmlns="http://www.w3.org/2000/svg"><path d="m9.49 24c-0.28 0-0.499-0.22-0.499-0.5 0-2.63-1.92-3.3-3.07-3.46-0.529-0.08-0.929-0.52-0.929-1.04v-16c0-0.5 0.379-0.94 0.909-1.03 0.352-0.0667 0.55-0.224 0.775-0.403l0.034-0.027c0.29-0.24 0.659-0.54 1.29-0.54s1.13 0.31 1.45 0.62c0.479-0.67 1.37-1.62 2.55-1.62h0.0014l0.0028 7.29e-6c1.18 0.00221 2.06 0.951 2.54 1.62 0.32-0.31 0.819-0.62 1.45-0.62s0.999 0.3 1.29 0.54l0.034 0.027c0.225 0.179 0.423 0.336 0.775 0.403 0.529 0.09 0.909 0.53 0.909 1.03v16c0 0.52-0.4 0.96-0.929 1.04-1.15 0.16-3.07 0.83-3.07 3.46 0 0.28-0.22 0.5-0.499 0.5h-0.02c-0.28 0-0.499-0.22-0.499-0.5 0-3.62 3.02-4.32 4.01-4.5v-16c0-0.01-0.0586-0.04-0.108-0.05-0.619-0.12-0.979-0.41-1.26-0.64-0.26-0.21-0.39-0.31-0.649-0.31-0.669 0-1.05 0.72-1.05 0.72-0.17 0.34-0.719 0.34-0.889 0 0 0-0.0041-0.00693-0.0105-0.0184-0.103-0.185-0.945-1.7-2.04-1.7-1.09 6.2e-4 -1.93 1.52-2.04 1.7-0.00636 0.0114-0.0105 0.0184-0.0105 0.0184-0.17 0.34-0.719 0.34-0.889 0 0 0-0.379-0.72-1.05-0.72-0.26 0-0.389 0.1-0.649 0.31-0.28 0.23-0.639 0.52-1.26 0.64-0.0499 0.01-0.109 0.04-0.109 0.05v16c0.989 0.18 4.01 0.88 4.01 4.5 0 0.28-0.22 0.5-0.499 0.5h-0.02z" fill="#000"/><path d="m9.5 6c0.276 0 0.5 0.224 0.5 0.5v10c0 0.276-0.224 0.5-0.5 0.5s-0.5-0.224-0.5-0.5v-10c0-0.276 0.224-0.5 0.5-0.5z" fill="#000"/><path d="m14.5 6c0.276 0 0.5 0.224 0.5 0.5v10c0 0.276-0.224 0.5-0.5 0.5s-0.5-0.224-0.5-0.5v-10c0-0.276 0.224-0.5 0.5-0.5z" fill="#000"/><path d="m0.503 7.99 1.88-0.33c0.359-0.063 0.62-0.375 0.62-0.739v-0.841c0-0.364-0.262-0.676-0.62-0.739l-1.88-0.33c-0.0428-0.00753-0.0878-0.0151-0.128 0.00119-0.5 0.202-0.5 2.78 0 2.98 0.0403 0.0163 0.0853 0.00871 0.128 0.00118z" fill="#000"/><path d="m0.503 12.5 1.88-0.33c0.359-0.063 0.62-0.375 0.62-0.739v-0.841c0-0.364-0.262-0.676-0.62-0.739l-1.88-0.33c-0.0428-0.00753-0.0878-0.0151-0.128 0.00118-0.5 0.202-0.5 2.78 0 2.98 0.0403 0.0163 0.0853 0.0088 0.128 0.0012z" fill="#000"/><path d="m2.38 16.7-1.88 0.33c-0.0428 0.0075-0.0878 0.0151-0.128-0.0012-0.5-0.202-0.5-2.78 0-2.98 0.0403-0.0163 0.0853-0.0087 0.128-0.0012l1.88 0.33c0.359 0.063 0.62 0.375 0.62 0.739v0.841c0 0.364-0.262 0.676-0.62 0.739z" fill="#000"/><path d="m21.6 7.66 1.88 0.33c0.0428 0.00753 0.0878 0.0151 0.128-0.00118 0.5-0.202 0.5-2.78 0-2.98-0.0403-0.0163-0.0853-0.00872-0.128-0.00119l-1.88 0.33c-0.359 0.063-0.62 0.375-0.62 0.739v0.841c0 0.364 0.262 0.676 0.62 0.739z" fill="#000"/><path d="m21.6 12.2 1.88 0.33c0.0428 0.0076 0.0878 0.0151 0.128-0.0012 0.5-0.202 0.5-2.78 0-2.98-0.0403-0.0163-0.0853-0.00871-0.128-0.00118l-1.88 0.33c-0.359 0.063-0.62 0.375-0.62 0.739v0.841c0 0.364 0.262 0.676 0.62 0.739z" fill="#000"/><path d="m23.5 17-1.88-0.33c-0.359-0.063-0.62-0.375-0.62-0.739v-0.841c0-0.364 0.262-0.676 0.62-0.739l1.88-0.33c0.0428-0.0075 0.0878-0.0151 0.128 0.0012 0.5 0.202 0.5 2.78 0 2.98-0.0403 0.0163-0.0853 0.0087-0.128 0.0012z" fill="#000"/></svg>
