<svg viewBox="0 0 24 24" xmlns="http://www.w3.org/2000/svg"><path d="m9 23.5c0 0.28 0.22 0.5 0.501 0.5l-0.01 0.02c0.28 0 0.501-0.22 0.501-0.5 0-2.44-1.77-3.3-3.02-3.47l-0.951-17.1c0.541-0.11 1.45-0.34 2.2-0.71 0.384-0.187 0.701-0.413 0.978-0.61l0.0132-0.00937 0.00505-0.00365c0.468-0.338 0.798-0.576 1.29-0.576 0.58 0 0.943 0.538 1.03 0.684 0.0436 0.108 0.124 0.201 0.234 0.256 0.0738 0.0354 0.152 0.0516 0.229 0.0508 0.0766 8.3e-4 0.155-0.0154 0.229-0.0508 0.11-0.0549 0.191-0.148 0.234-0.256 0.0877-0.146 0.451-0.684 1.03-0.684 0.489 0 0.819 0.238 1.29 0.576l0.0182 0.013c0.277 0.198 0.594 0.423 0.978 0.61 0.751 0.37 1.66 0.6 2.2 0.71l-0.951 17.1c-1.25 0.17-3.02 1.03-3.02 3.47 0 0.28 0.22 0.5 0.501 0.5l-0.0101-0.02c0.28 0 0.501-0.22 0.501-0.5 0-2.41 2.25-2.5 2.5-2.5 0.26 0 0.48-0.21 0.5-0.47l1-18c0.01-0.26-0.17-0.48-0.42-0.52-0.01 0-1.39-0.22-2.35-0.7-0.32-0.16-0.591-0.35-0.851-0.54-0.521-0.37-1.07-0.76-1.87-0.76-0.683 0-1.18 0.341-1.5 0.671-0.322-0.33-0.82-0.671-1.5-0.671-0.801 0-1.35 0.39-1.87 0.76-0.26 0.19-0.531 0.38-0.851 0.54-0.961 0.48-2.34 0.7-2.35 0.7-0.25 0.04-0.43 0.26-0.42 0.52l1 18c0.02 0.26 0.24 0.47 0.501 0.47 0.25 0 2.5 0.0899 2.5 2.5z" fill="#000"/><path d="m9.48 5c0.276-0.0115 0.509 0.203 0.52 0.479l0.5 12c0.0115 0.276-0.203 0.509-0.479 0.52-0.276 0.0115-0.509-0.203-0.52-0.479l-0.5-12c-0.0115-0.276 0.203-0.509 0.479-0.52z" fill="#000"/><path d="m15 5.52c0.0115-0.276-0.203-0.509-0.479-0.52-0.276-0.0115-0.509 0.203-0.52 0.479l-0.5 12c-0.0115 0.276 0.203 0.509 0.479 0.52s0.509-0.203 0.52-0.479l0.5-12z" fill="#000"/><path d="m0.422 5.22 2.07-0.277c0.239-0.0319 0.417-0.239 0.417-0.484v-0.696c0-0.245-0.178-0.452-0.417-0.484l-2.07-0.277c-0.563 0-0.563 2.22 0 2.22z" fill="#000"/><path d="m0.64 8.17 2.07-0.277c0.239-0.0319 0.417-0.239 0.417-0.484v-0.696c0-0.245-0.178-0.452-0.417-0.484l-2.07-0.277c-0.563 0-0.563 2.22 0 2.22z" fill="#000"/><path d="m0.858 11.1 2.07-0.277c0.239-0.0319 0.417-0.239 0.417-0.484v-0.696c0-0.245-0.178-0.452-0.417-0.484l-2.07-0.277c-0.563 0-0.563 2.22 0 2.22z" fill="#000"/><path d="m1.08 14.1 2.07-0.277c0.239-0.0319 0.417-0.239 0.417-0.484v-0.696c0-0.245-0.178-0.452-0.417-0.484l-2.07-0.277c-0.563 0-0.563 2.22 0 2.22z" fill="#000"/><path d="m1.29 17 2.07-0.277c0.239-0.0319 0.417-0.239 0.417-0.484v-0.696c0-0.245-0.178-0.452-0.417-0.484l-2.07-0.277c-0.563 0-0.563 2.22 0 2.22z" fill="#000"/><path d="m1.51 20 2.07-0.277c0.239-0.0319 0.417-0.239 0.417-0.484v-0.696c0-0.245-0.178-0.452-0.417-0.484l-2.07-0.277c-0.563 0-0.563 2.22 0 2.22z" fill="#000"/><path d="m21.5 4.94 2.07 0.277c0.563 0 0.563-2.22 0-2.22l-2.07 0.277c-0.239 0.0319-0.417 0.239-0.417 0.484v0.696c0 0.245 0.178 0.452 0.417 0.484z" fill="#000"/><path d="m21.3 7.9 2.07 0.277c0.563 0 0.563-2.22 0-2.22l-2.07 0.277c-0.239 0.0319-0.417 0.239-0.417 0.484v0.696c0 0.245 0.178 0.452 0.417 0.484z" fill="#000"/><path d="m21.1 10.9 2.07 0.277c0.563 0 0.563-2.22 0-2.22l-2.07 0.277c-0.239 0.0319-0.417 0.239-0.417 0.484v0.696c0 0.245 0.178 0.452 0.417 0.484z" fill="#000"/><path d="m20.9 13.8 2.07 0.277c0.563 0 0.563-2.22 0-2.22l-2.07 0.277c-0.239 0.0319-0.417 0.239-0.417 0.484v0.696c0 0.245 0.178 0.452 0.417 0.484z" fill="#000"/><path d="m20.6 16.8 2.07 0.277c0.563 0 0.563-2.22 0-2.22l-2.07 0.277c-0.239 0.0318-0.417 0.239-0.417 0.484v0.696c0 0.245 0.178 0.452 0.417 0.484z" fill="#000"/><path d="m20.4 19.7 2.07 0.277c0.563 0 0.563-2.22 0-2.22l-2.07 0.277c-0.239 0.0319-0.417 0.239-0.417 0.484v0.696c0 0.245 0.178 0.452 0.417 0.484z" fill="#000"/></svg>
