<svg viewBox="0 0 24 24" xmlns="http://www.w3.org/2000/svg"><path d="m13.1 3.37c0.465-1.42 1.78-2.37 3.26-2.37 2.36 0 3.54 2.87 1.87 4.55l-1.97 1.98c-0.528 0.531-0.568 1.34-0.238 1.94 0.42 0.766 0.975 2.06 0.975 3.52 0 0.523-0.156 1.04-0.417 1.59-0.241 0.505-0.556 1.01-0.898 1.55l-0.0999 0.159c-0.739 1.18-1.57 2.54-1.57 4.2v3c0 0.276 0.225 0.5 0.5 0.5s0.5-0.224 0.5-0.5v-3c0-1.34 0.657-2.47 1.41-3.67l0.103-0.164c0.336-0.532 0.683-1.08 0.95-1.64 0.298-0.624 0.515-1.29 0.515-2.02 0-1.7-0.64-3.17-1.1-4.01-0.147-0.269-0.102-0.58 0.0702-0.753l1.97-1.98c2.3-2.31 0.67-6.26-2.58-6.26-1.91 0-3.61 1.23-4.21 3.06l-5.06 15.4c-0.25 0.761 0.143 1.56 0.844 1.87 0.767 0.34 0.929 0.524 1.01 0.799 0.0517 0.167 0.0567 0.395 0.0644 0.752 5.5e-4 0.0252 0.00111 0.0511 0.0017 0.0776 0.00471 0.211 0.00302 0.446 0.00106 0.718-3.6e-4 0.0496-7.2e-4 0.1-0.00106 0.153-8.7e-4 0.135-6e-4 0.279-3.1e-4 0.433 1.5e-4 0.0809 3.1e-4 0.165 3.1e-4 0.251 0 0.276 0.225 0.5 0.5 0.5s0.5-0.224 0.5-0.5c0-0.0792-1.5e-4 -0.157-3e-4 -0.233-2.8e-4 -0.147-5.5e-4 -0.288 3e-4 -0.422 4e-4 -0.0553 7e-4 -0.11 0.0011-0.163 2e-3 -0.284 0.0038-0.538-0.0011-0.759l-1.7e-4 -0.0076c-0.0092-0.413-0.0174-0.778-0.116-1.1-0.224-0.723-0.763-1.06-1.56-1.42-0.261-0.116-0.381-0.396-0.301-0.639l5.06-15.4z" fill="#000"/><path d="m10.2 2.37-1.01-0.322c-0.0214-0.00672-0.0384-0.0231-0.052-0.0435-0.0555-0.0835-0.0588-0.193-0.0618-0.296l-1.8e-4 -0.00591c-0.00486-0.162 0.01-0.44 0.122-0.782 0.111-0.339 0.261-0.572 0.362-0.701l0.00825-0.0107c0.064-0.0827 0.132-0.17 0.227-0.204 0.0215-0.00754 0.0432-0.01 0.0629-0.00335l1.01 0.32c0.0386 0.0128 0.0706 0.0398 0.0894 0.0752 0.0284 0.0535 0.016 0.117 0.0039 0.179-0.0035 0.0178-0.0069 0.0354-0.0094 0.0527l-0.0261 0.183c-0.0594 0.416-0.19 0.817-0.385 1.18l-0.0919 0.172c-0.0087 0.0162-0.0167 0.0334-0.0248 0.0506-0.0268 0.0575-0.054 0.116-0.107 0.143-0.0359 0.0182-0.0778 0.0218-0.117 0.00982z" fill="#000"/><path d="m9.21 5.5-1.01-0.322c-0.022-0.00732-0.0394-0.0246-0.0532-0.0459-0.0541-0.0837-0.0575-0.192-0.0607-0.294l-8e-5 -0.00255c-0.00511-0.162 0.00931-0.441 0.122-0.785 0.115-0.353 0.274-0.591 0.373-0.717 0.0588-0.0743 0.121-0.151 0.204-0.191 0.0278-0.0135 0.057-0.0207 0.0826-0.0125l1.01 0.322c0.039 0.0129 0.0714 0.04 0.0904 0.0757 0.0288 0.054 0.0164 0.118 0.00419 0.181-0.00346 0.0178-0.0069 0.0355-0.00938 0.0529l-0.0248 0.174c-0.0602 0.422-0.192 0.828-0.39 1.2l-0.0878 0.164c-0.00856 0.016-0.0165 0.033-0.0245 0.05-0.0272 0.058-0.0548 0.117-0.108 0.143-0.0362 0.018-0.0784 0.021-0.117 0.0086z" fill="#000"/><path d="m5.79 15.9-1.01-0.322c-0.0253-8e-3 -0.0537-0.0016-0.0807 0.0109-0.0847 0.0391-0.148 0.117-0.207 0.192-0.0994 0.126-0.257 0.363-0.372 0.715-0.112 0.342-0.127 0.62-0.122 0.782l1.7e-4 0.0059c0.00306 0.102 0.00633 0.212 0.0614 0.296 0.0133 0.0203 0.0301 0.0365 0.051 0.0432l1.01 0.322c0.0388 0.0124 0.0809 0.0093 0.117-0.0086 0.0535-0.0265 0.0811-0.0854 0.108-0.143 0.00798-0.017 0.0159-0.034 0.0245-0.05l0.0878-0.164c0.198-0.37 0.33-0.776 0.39-1.2l0.025-0.175c0.00247-0.0173 0.00592-0.035 0.00939-0.0528 0.0121-0.0621 0.0245-0.125-0.0039-0.179-0.0188-0.0354-0.0508-0.0624-0.0894-0.0752z" fill="#000"/><path d="m7.17 8.3 1.01 0.322c0.0386 0.012 0.0803 0.00865 0.116-0.00926 0.053-0.0265 0.0805-0.0849 0.108-0.142 0.0079-0.0168 0.0158-0.0336 0.0242-0.0494l0.0977-0.183c0.191-0.358 0.319-0.752 0.378-1.16l0.0278-0.195c0.00258-0.018 0.00628-0.0365 0.01-0.055 0.0123-0.0614 0.0249-0.124-0.00283-0.177-0.0186-0.0356-0.0508-0.0626-0.0895-0.075l-1.01-0.322c-0.029-0.00928-0.0624 8.6e-4 -0.0933 0.0175-0.074 0.0399-0.132 0.107-0.185 0.174-0.0987 0.123-0.263 0.364-0.381 0.728-0.112 0.344-0.127 0.623-0.122 0.785l1.4e-4 0.00441c0.00318 0.101 0.00659 0.209 0.0609 0.292 0.0137 0.0209 0.0311 0.0377 0.0529 0.0445z" fill="#000"/><path d="m6.15 11.4 1.01 0.322c0.0388 0.0124 0.0809 0.0093 0.117-0.0086 0.0535-0.0265 0.0811-0.0854 0.108-0.143 0.00798-0.017 0.0159-0.034 0.0245-0.05l0.0878-0.164c0.198-0.37 0.33-0.776 0.39-1.2l0.0249-0.174c0.00242-0.0169 0.00573-0.0342 0.00905-0.0515 0.012-0.0627 0.0243-0.127-0.00463-0.18-0.019-0.0354-0.0512-0.0622-0.0898-0.0751l-1.01-0.322c-0.029-0.00927-0.0624 8.6e-4 -0.0933 0.0175-0.074 0.0399-0.132 0.107-0.185 0.174-0.0987 0.123-0.262 0.364-0.381 0.727-0.112 0.342-0.127 0.62-0.122 0.782l1.7e-4 0.0059c0.00306 0.102 0.00633 0.212 0.0619 0.296 0.0136 0.0204 0.0307 0.0368 0.052 0.0435z" fill="#000"/><path d="m5.13 14.5 1.01 0.322c0.0388 0.0125 0.0809 0.0094 0.117-0.0085 0.0535-0.0266 0.0811-0.0854 0.108-0.143 0.00798-0.0171 0.0159-0.034 0.0245-0.05l0.0973-0.182c0.191-0.358 0.319-0.752 0.378-1.16l0.0278-0.195c0.00258-0.0181 0.00628-0.0365 0.01-0.055 0.0124-0.0614 0.0249-0.124-0.00282-0.177-0.0186-0.0356-0.0508-0.0625-0.0895-0.075l-1.01-0.322c-0.029-0.0092-0.0624 9e-4 -0.0933 0.0176-0.074 0.0399-0.132 0.107-0.185 0.174-0.0987 0.123-0.263 0.364-0.381 0.727-0.112 0.342-0.127 0.62-0.122 0.782l1.8e-4 6e-3c0.00305 0.102 0.00632 0.212 0.0618 0.296 0.0136 0.0204 0.0307 0.0367 0.052 0.0435z" fill="#000"/></svg>
