<svg viewBox="0 0 24 24" xmlns="http://www.w3.org/2000/svg"><path d="m9.51 24c-0.28 0-0.501-0.22-0.501-0.5 0-2.41-2.25-2.5-2.5-2.5-0.26 0-0.481-0.21-0.501-0.47l-1-18c-0.01-0.26 0.17-0.48 0.42-0.52 0.01 0 1.39-0.22 2.35-0.7 0.32-0.16 0.591-0.35 0.851-0.54 0.521-0.37 1.07-0.76 1.87-0.76 0.683 0 1.18 0.341 1.5 0.671 0.322-0.33 0.82-0.671 1.5-0.671 0.801 0 1.35 0.39 1.87 0.76 0.26 0.19 0.531 0.38 0.851 0.54 0.961 0.48 2.34 0.7 2.35 0.7 0.25 0.04 0.43 0.26 0.42 0.52l-1 18c-0.02 0.26-0.24 0.47-0.5 0.47-0.25 0-2.5 0.0899-2.5 2.5 0 0.28-0.22 0.5-0.501 0.5l0.0101 0.02c-0.28 0-0.501-0.22-0.501-0.5 0-2.44 1.77-3.3 3.02-3.47l0.951-17.1c-0.541-0.11-1.45-0.34-2.2-0.71-0.384-0.187-0.701-0.413-0.978-0.61l-0.0182-0.013c-0.468-0.338-0.798-0.576-1.29-0.576-0.58 0-0.943 0.538-1.03 0.684-0.0435 0.108-0.124 0.201-0.234 0.256-0.0738 0.0354-0.152 0.0516-0.229 0.0508-0.0766 8.3e-4 -0.155-0.0154-0.229-0.0508-0.11-0.0549-0.191-0.148-0.234-0.256-0.0876-0.146-0.45-0.684-1.03-0.684-0.489 0-0.819 0.238-1.29 0.576l-0.00505 0.00365-0.0132 0.00937c-0.277 0.198-0.594 0.423-0.978 0.61-0.751 0.37-1.66 0.6-2.2 0.71l0.951 17.1c1.25 0.17 3.02 1.03 3.02 3.47 0 0.28-0.22 0.5-0.501 0.5l0.01-0.02z" fill="#000"/><path d="m10 5.48c-0.0115-0.276-0.244-0.49-0.52-0.479-0.276 0.0115-0.49 0.244-0.479 0.52l0.5 12c0.0115 0.276 0.244 0.49 0.52 0.479 0.276-0.0115 0.49-0.244 0.479-0.52l-0.5-12z" fill="#000"/><path d="m15 5.52c0.0115-0.276-0.203-0.509-0.479-0.52-0.276-0.0115-0.509 0.203-0.52 0.479l-0.5 12c-0.0115 0.276 0.203 0.509 0.479 0.52s0.509-0.203 0.52-0.479l0.5-12z" fill="#000"/><path d="m3.38 7.66-1.94 0.341c-0.585 0-0.585-3 0-3l1.94 0.341c0.359 0.063 0.62 0.375 0.62 0.739v0.84c0 0.364-0.262 0.676-0.62 0.739z" fill="#000"/><path d="m1.94 18 1.94-0.341c0.359-0.063 0.62-0.374 0.62-0.739v-0.841c0-0.364-0.262-0.676-0.62-0.739l-1.94-0.341c-0.585 0-0.585 3 0 3z" fill="#000"/><path d="m1.69 13 1.94-0.341c0.359-0.063 0.62-0.374 0.62-0.739v-0.841c0-0.364-0.262-0.676-0.62-0.739l-1.94-0.341c-0.585 0-0.585 3 0 3z" fill="#000"/><path d="m22.6 8-1.94-0.341c-0.359-0.063-0.62-0.375-0.62-0.739v-0.84c0-0.364 0.262-0.676 0.62-0.739l1.94-0.341c0.585 0 0.585 3 0 3z" fill="#000"/><path d="m20.1 17.7 1.94 0.341c0.585 0 0.585-3 0-3l-1.94 0.341c-0.359 0.063-0.62 0.374-0.62 0.739v0.841c0 0.364 0.262 0.676 0.62 0.739z" fill="#000"/><path d="m20.4 12.7 1.94 0.341c0.585 0 0.585-3 0-3l-1.94 0.341c-0.359 0.063-0.62 0.374-0.62 0.739v0.841c0 0.364 0.262 0.676 0.62 0.739z" fill="#000"/></svg>
