<svg viewBox="0 0 24 24" xmlns="http://www.w3.org/2000/svg"><path d="m8.22 2.45c0.457-0.229 0.836-0.559 1.14-0.822 0.0735-0.064 0.143-0.124 0.207-0.178 0.358-0.299 0.616-0.447 0.93-0.447 0.321 0 0.576 0.158 0.771 0.354 0.0964 0.0964 0.17 0.194 0.219 0.268 0.0242 0.0363 0.0417 0.0655 0.0522 0.084 0.0053 0.00923 9e-3 0.016 0.0107 0.0192 0.124 0.246 0.424 0.346 0.67 0.223 0.1-0.0502 0.176-0.13 0.223-0.223 0.0017-0.00326 0.0055-0.00993 0.0108-0.0192 0.0105-0.0185 0.028-0.0477 0.0522-0.084 0.0489-0.0734 0.122-0.171 0.219-0.268 0.196-0.196 0.451-0.354 0.771-0.354 0.314 0 0.571 0.148 0.93 0.447 0.0646 0.0538 0.134 0.114 0.207 0.178 0.303 0.264 0.682 0.594 1.14 0.823 0.576 0.288 1.27 0.422 1.79 0.486 0.148 0.0186 0.286 0.0319 0.408 0.0415l-0.946 16.1c-0.0329 0.0063-0.0672 0.0133-0.103 0.0212-0.326 0.0723-0.762 0.217-1.2 0.51-0.906 0.604-1.72 1.77-1.72 3.92 0 0.276 0.224 0.5 0.5 0.5s0.5-0.224 0.5-0.5c0-1.85 0.684-2.69 1.28-3.08 0.312-0.208 0.625-0.313 0.862-0.365 0.118-0.0262 0.214-0.0389 0.279-0.045 0.0321-0.0031 0.0559-0.0045 0.07-0.0051l0.0136-5e-4h-0.0015c0.264-3e-4 0.483-0.207 0.498-0.471l1-17c0.0081-0.137-0.0408-0.272-0.135-0.372-0.0944-0.1-0.226-0.157-0.364-0.157l-2e-3 -1e-5 -0.01-8e-5c-0.0093-1e-4 -0.0239-3.2e-4 -0.0433-7.6e-4 -0.0389-8.8e-4 -0.0969-0.00268-0.17-0.00634-0.147-0.00733-0.353-0.022-0.588-0.0514-0.481-0.0602-1.04-0.177-1.46-0.389-0.333-0.166-0.589-0.388-0.881-0.642-0.0866-0.0751-0.176-0.153-0.272-0.233-0.392-0.326-0.884-0.678-1.57-0.678-0.679 0-1.17 0.342-1.48 0.646l-0.0214 0.0217-0.0214-0.0217c-0.304-0.304-0.799-0.646-1.48-0.646-0.686 0-1.18 0.352-1.57 0.678-0.0959 0.0799-0.186 0.158-0.272 0.233-0.292 0.253-0.548 0.475-0.881 0.642-0.424 0.212-0.982 0.328-1.46 0.389-0.235 0.0294-0.441 0.0441-0.588 0.0514-0.0732 0.00366-0.131 0.00546-0.17 0.00634-0.0194 4.4e-4 -0.034 6.6e-4 -0.0434 7.6e-4l-0.00998 8e-5 -2e-3 1e-5c-0.138 9e-5 -0.269 0.0569-0.363 0.157-0.0945 0.1-0.143 0.235-0.135 0.372l1 17c0.0155 0.264 0.234 0.47 0.499 0.471h-0.00152l0.0136 5e-4c0.0141 6e-4 0.0379 2e-3 0.07 0.0051 0.0644 0.0061 0.161 0.0188 0.279 0.045 0.237 0.0527 0.551 0.158 0.862 0.365 0.594 0.396 1.28 1.23 1.28 3.08 0 0.276 0.224 0.5 0.5 0.5s0.5-0.224 0.5-0.5c0-2.15-0.817-3.31-1.72-3.92-0.438-0.292-0.875-0.437-1.2-0.51-0.0355-0.0079-0.0697-0.0149-0.103-0.0212l-0.946-16.1c0.122-0.0096 0.26-0.023 0.408-0.0415 0.519-0.0648 1.21-0.198 1.79-0.486z" fill="#000"/><path d="m1.44 7 1.94-0.341c0.359-0.063 0.62-0.375 0.62-0.739v-0.84c0-0.364-0.262-0.676-0.62-0.739l-1.94-0.341c-0.585 0-0.585 3 0 3z" fill="#000"/><path d="m3.88 16.7-1.94 0.341c-0.585 0-0.585-3 0-3l1.94 0.341c0.359 0.063 0.62 0.374 0.62 0.739v0.841c0 0.364-0.262 0.676-0.62 0.739z" fill="#000"/><path d="m1.69 12 1.94-0.341c0.359-0.063 0.62-0.374 0.62-0.739v-0.841c0-0.364-0.262-0.676-0.62-0.739l-1.94-0.341c-0.585 0-0.585 3 0 3z" fill="#000"/><path d="m20.6 6.66 1.94 0.341c0.585 0 0.585-3 0-3l-1.94 0.341c-0.359 0.063-0.62 0.375-0.62 0.739v0.84c0 0.364 0.262 0.676 0.62 0.739z" fill="#000"/><path d="m22.1 17-1.94-0.341c-0.359-0.063-0.62-0.374-0.62-0.739v-0.841c0-0.364 0.262-0.676 0.62-0.739l1.94-0.341c0.585 0 0.585 3 0 3z" fill="#000"/><path d="m20.4 11.7 1.94 0.341c0.585 0 0.585-3 0-3l-1.94 0.341c-0.359 0.063-0.62 0.375-0.62 0.739v0.841c0 0.364 0.262 0.676 0.62 0.739z" fill="#000"/></svg>
