<svg viewBox="0 0 24 24" xmlns="http://www.w3.org/2000/svg"><path d="m9.11 2.42-1.03-0.372c-0.0218-0.00778-0.0387-0.0251-0.0519-0.0464-0.0537-0.087-0.0521-0.198-0.0507-0.302l8e-5 -0.00599c0.00226-0.164 0.0302-0.445 0.161-0.786 0.13-0.338 0.296-0.566 0.406-0.693l0.00902-0.0104c0.0699-0.0807 0.144-0.166 0.244-0.196 0.0226-0.00664 0.0451-0.00817 0.0652-4.98e-4l1.03 0.371c0.0393 0.0148 0.0713 0.0435 0.0891 0.0802 0.0269 0.0554 0.0113 0.119-0.00402 0.181-0.00438 0.0178-0.00874 0.0355-0.0121 0.0529l-0.0353 0.184c-0.0802 0.418-0.233 0.818-0.451 1.18l-0.103 0.17c-0.0097 0.016-0.0188 0.033-0.0279 0.0501-0.0304 0.057-0.0612 0.115-0.117 0.139-0.038 0.0168-0.0815 0.0184-0.121 0.00458z" fill="#000"/><path d="m7.92 5.53-1.03-0.372c-0.0224-0.00842-0.0397-0.0267-0.053-0.0489-0.0522-0.0872-0.0508-0.197-0.0496-0.3l3e-5 -0.00258c0.00198-0.164 0.0295-0.445 0.161-0.789 0.135-0.352 0.31-0.586 0.418-0.708 0.0641-0.0725 0.132-0.147 0.22-0.184 0.0294-0.0124 0.0599-0.0183 0.0861-0.00882l1.03 0.372c0.0397 0.0148 0.0721 0.0438 0.0902 0.0808 0.0274 0.056 0.0117 0.12-0.0038 0.183-0.00438 0.0179-0.00874 0.0356-0.0121 0.0531l-0.0335 0.175c-0.0813 0.424-0.236 0.829-0.457 1.19l-0.0982 0.162c-0.00958 0.0158-0.0186 0.0326-0.0276 0.0495-0.0308 0.0575-0.062 0.116-0.119 0.14-0.0383 0.0165-0.082 0.0177-0.122 0.00331z" fill="#000"/><path d="m3.92 16-1.03-0.372c-0.0258-0.0093-0.0555-0.0042-0.084 0.0072-0.0894 0.0358-0.158 0.112-0.223 0.185-0.108 0.123-0.282 0.356-0.417 0.707-0.131 0.341-0.159 0.622-0.161 0.786l-8e-5 0.0059c-0.00145 0.104-3e-3 0.215 0.0502 0.302 0.0129 0.0211 0.0295 0.0383 0.0508 0.0461l1.03 0.372c0.0395 0.0144 0.0833 0.0132 0.122-0.0033 0.0566-0.0244 0.0878-0.0826 0.119-0.14 0.00902-0.0169 0.018-0.0337 0.0276-0.0495l0.0982-0.162c0.221-0.366 0.376-0.77 0.457-1.19l0.0337-0.176c0.00334-0.0174 0.0077-0.0351 0.0121-0.0529 0.0153-0.0623 0.0309-0.126 0.00401-0.181-0.0178-0.0367-0.0498-0.0654-0.0891-0.0802z" fill="#000"/><path d="m5.69 8.27 1.03 0.372c0.0394 0.0139 0.0827 0.0124 0.121-0.00403 0.0561-0.0244 0.0871-0.0822 0.118-0.139 0.00894-0.0167 0.0178-0.0332 0.0273-0.0489l0.109-0.181c0.214-0.354 0.364-0.746 0.443-1.16l0.0376-0.196c0.00348-0.0181 0.00815-0.0366 0.0128-0.0552 0.0155-0.0616 0.0313-0.124 0.00504-0.179-0.0176-0.0368-0.0497-0.0656-0.0892-0.0801l-1.03-0.372c-0.0295-0.0107-0.0646-2e-3 -0.0973 0.0134-0.0783 0.037-0.141 0.103-0.2 0.168-0.108 0.12-0.288 0.356-0.427 0.719-0.132 0.343-0.159 0.625-0.161 0.789l-6e-5 0.00447c-0.00125 0.102-0.00259 0.212 0.0499 0.298 0.0133 0.0218 0.0305 0.0396 0.0527 0.0475z" fill="#000"/><path d="m4.49 11.4 1.03 0.372c0.0395 0.0144 0.0833 0.0132 0.122-0.0033 0.0565-0.0244 0.0878-0.0826 0.119-0.14 0.00903-0.0169 0.018-0.0337 0.0276-0.0495l0.0982-0.162c0.221-0.366 0.376-0.77 0.457-1.19l0.0336-0.175c0.00326-0.017 0.00746-0.0343 0.0117-0.0517 0.0153-0.0629 0.0309-0.127 0.00332-0.183-0.0181-0.0366-0.0502-0.0653-0.0895-0.0801l-1.03-0.372c-0.0295-0.0107-0.0646-2e-3 -0.0973 0.0134-0.0783 0.037-0.141 0.103-0.2 0.168-0.108 0.12-0.288 0.356-0.427 0.718-0.131 0.341-0.159 0.622-0.161 0.786l-9e-5 6e-3c-0.00144 0.104-3e-3 0.215 0.0507 0.302 0.0131 0.0213 0.0301 0.0386 0.0519 0.0464z" fill="#000"/><path d="m3.3 14.5 1.03 0.372c0.0395 0.0144 0.0833 0.0132 0.122-0.0033 0.0565-0.0243 0.0878-0.0827 0.119-0.14 0.00902-0.0169 0.018-0.0337 0.0276-0.0495l0.109-0.18c0.214-0.354 0.364-0.746 0.443-1.16l0.0376-0.196c0.00348-0.0182 0.00814-0.0367 0.0128-0.0552 0.0155-0.0616 0.0313-0.124 0.00504-0.179-0.0176-0.0369-0.0497-0.0657-0.0892-0.0801l-1.04-0.372c-0.0295-0.0107-0.0646-2e-3 -0.0973 0.0134-0.0783 0.037-0.141 0.102-0.2 0.168-0.108 0.12-0.288 0.356-0.427 0.718-0.131 0.341-0.159 0.622-0.161 0.786l-9e-5 6e-3c-0.00145 0.104-3e-3 0.215 0.0507 0.302 0.0131 0.0213 0.0301 0.0386 0.0519 0.0464z" fill="#000"/><path d="m11.9 3.69c0.624-1.62 2.19-2.69 3.93-2.69 3.17 0 4.44 4.15 1.77 5.98-1.14 0.778-1.77 2.18-1.46 3.52l1.89 7.65c-1.51 0.465-2.52 0.982-3.14 1.79-0.676 0.896-0.844 1.55-0.844 3.55 0 0.276 0.222 0.5 0.5 0.5s0.5-0.224 0.5-0.5c0-1.5 0.194-2.35 0.649-2.95 0.458-0.607 1.32-1.07 3.07-1.57 0.258-0.0734 0.413-0.335 0.352-0.595l-2-8.11c-0.221-0.934 0.249-1.92 1.05-2.47 3.42-2.34 1.89-7.8-2.34-7.8-2.16 0-4.1 1.32-4.87 3.33l-5.81 15.1c-0.294 0.762 0.0807 1.64 0.878 1.91 0.0946 0.0331 0.187 0.0651 0.276 0.0962 0.909 0.316 1.55 0.54 2.01 0.926 0.445 0.375 0.736 0.95 0.736 2.16 0 0.276 0.222 0.5 0.5 0.5s0.5-0.224 0.5-0.5c0-1.5-0.345-2.3-1.08-2.93-0.61-0.514-1.44-0.802-2.3-1.1-0.101-0.0347-0.201-0.0695-0.302-0.105-0.241-0.0842-0.372-0.355-0.272-0.614l5.81-15.1z" fill="#000"/></svg>
