<svg viewBox="0 0 24 24" xmlns="http://www.w3.org/2000/svg"><path d="m12 0.5c0-0.28-0.22-0.5-0.5-0.5s-0.5 0.22-0.5 0.5v3.52c-1.8 0.167-3.18 1.23-4.15 2.36-4.03 0.693-6.85 2.28-6.85 4.11 0 2.49 5.15 4.5 11.5 4.5s11.5-2.01 11.5-4.5c0-1.84-2.83-3.42-6.87-4.12-0.976-1.13-2.35-2.19-4.13-2.36v-3.52zm-1 4.52v1.48c0 0.28 0.22 0.5 0.5 0.5s0.5-0.22 0.5-0.5v-1.48c3.27 0.413 5 4.61 5.02 4.66 0.1 0.26 0.39 0.38 0.65 0.28s0.38-0.39 0.28-0.65c-0.0296-0.0777-0.336-0.825-0.927-1.74 0.832 0.188 1.59 0.417 2.25 0.676 0.97 0.38 1.69 0.81 2.15 1.23 0.45 0.43 0.58 0.77 0.58 1.02s-0.12 0.6-0.58 1.02-1.18 0.85-2.15 1.23c-1.94 0.76-4.68 1.25-7.77 1.25s-5.83-0.49-7.77-1.25c-0.97-0.38-1.69-0.81-2.15-1.23-0.45-0.43-0.58-0.77-0.58-1.02s0.12-0.6 0.58-1.02 1.18-0.85 2.15-1.23c0.655-0.257 1.4-0.484 2.23-0.672-0.587 0.907-0.892 1.65-0.926 1.73-0.1 0.26 0.02 0.55 0.28 0.65 0.07 0.03 0.13 0.04 0.19 0.04l-0.02-0.01c0.19 0 0.38-0.11 0.46-0.31 0.0191-0.0477 1.76-4.28 5.06-4.66z" clip-rule="evenodd" fill="#000" fill-rule="evenodd"/><path d="m22.9 13c-0.64 2.25-5.51 4-11.4 4s-10.8-1.75-11.4-4c-0.05 0.16-0.07 0.33-0.07 0.5 0 2.42 4.88 4.4 11 4.5v5.5c0 0.28 0.22 0.5 0.5 0.5s0.5-0.22 0.5-0.5v-5.5c6.12-0.11 11-2.08 11-4.5 0-0.17-0.02-0.34-0.07-0.5z" fill="#000"/></svg>
