<svg viewBox="0 0 24 24" xmlns="http://www.w3.org/2000/svg"><path d="m8 12v1c0 0.932 0 1.4-0.152 1.77-0.203 0.49-0.592 0.879-1.08 1.08-0.368 0.152-0.833 0.152-1.77 0.152s-1.4 0-1.77-0.152c-0.49-0.203-0.879-0.592-1.08-1.08-0.152-0.368-0.152-0.834-0.152-1.77v-1h-1.5c-0.276 0-0.5-0.224-0.5-0.5s0.224-0.5 0.5-0.5h1.5v-5h-1.5c-0.276 0-0.5-0.224-0.5-0.5s0.224-0.5 0.5-0.5h1.5v-1c0-0.932 0-1.4 0.152-1.77 0.203-0.49 0.592-0.879 1.08-1.08 0.368-0.152 0.833-0.152 1.77-0.152s1.4 0 1.77 0.152c0.49 0.203 0.879 0.592 1.08 1.08 0.152 0.368 0.152 0.833 0.152 1.77v1h1c0-0.932 0-1.4 0.152-1.77 0.203-0.49 0.592-0.879 1.08-1.08 0.368-0.152 0.834-0.152 1.77-0.152s1.4 0 1.77 0.152c0.49 0.203 0.879 0.592 1.08 1.08 0.152 0.368 0.152 0.833 0.152 1.77h1.01c0.0168-0.327 0.0544-0.561 0.139-0.765 0.203-0.49 0.592-0.879 1.08-1.08 0.368-0.152 0.834-0.152 1.77-0.152s1.4 0 1.77 0.152c0.49 0.203 0.879 0.592 1.08 1.08 0.0844 0.204 0.122 0.438 0.139 0.765h1.51c0.276 0 0.5 0.224 0.5 0.5s-0.224 0.5-0.5 0.5h-1.5v5h1.5c0.276 0 0.5 0.224 0.5 0.5s-0.224 0.5-0.5 0.5h-1.51c-0.0168 0.327-0.0544 0.562-0.139 0.765-0.203 0.49-0.592 0.879-1.08 1.08-0.368 0.152-0.834 0.152-1.77 0.152s-1.4 0-1.77-0.152c-0.49-0.203-0.879-0.592-1.08-1.08-0.0844-0.204-0.122-0.438-0.139-0.765h-1.01c0 0.932 0 1.4-0.152 1.77-0.203 0.49-0.592 0.879-1.08 1.08-0.368 0.152-0.834 0.152-1.77 0.152s-1.4 0-1.77-0.152c-0.49-0.203-0.879-0.592-1.08-1.08-0.152-0.368-0.152-0.834-0.152-1.77h-1zm-1-8c0-0.48-5.4e-4 -0.789-0.0167-1.03-0.0156-0.228-0.0422-0.315-0.0594-0.356-0.101-0.245-0.296-0.44-0.541-0.541-0.0416-0.0172-0.128-0.0438-0.356-0.0594-0.237-0.0162-0.547-0.0167-1.03-0.0167s-0.789 5.4e-4 -1.03 0.0167c-0.228 0.0156-0.315 0.0422-0.356 0.0594-0.245 0.101-0.44 0.296-0.541 0.541-0.0172 0.0416-0.0438 0.128-0.0594 0.356-0.0162 0.237-0.0167 0.547-0.0167 1.03v9c0 0.48 5.4e-4 0.789 0.0167 1.03 0.0156 0.228 0.0422 0.315 0.0594 0.356 0.101 0.245 0.296 0.44 0.541 0.541 0.0416 0.0172 0.128 0.0438 0.356 0.0594 0.237 0.0162 0.547 0.0167 1.03 0.0167s0.789-5e-4 1.03-0.0167c0.228-0.0156 0.315-0.0422 0.356-0.0594 0.245-0.102 0.44-0.296 0.541-0.541 0.0172-0.0416 0.0438-0.128 0.0594-0.356 0.0162-0.237 0.0167-0.547 0.0167-1.03v-9zm9 2v5h-1v-5h1zm-2 6c0 0.48-5e-4 0.789-0.0167 1.03-0.0156 0.228-0.0422 0.315-0.0594 0.356-0.102 0.245-0.296 0.44-0.541 0.541-0.0416 0.0172-0.128 0.0438-0.356 0.0594-0.237 0.0162-0.547 0.0167-1.03 0.0167s-0.789-5e-4 -1.03-0.0167c-0.228-0.0156-0.315-0.0422-0.356-0.0594-0.245-0.102-0.44-0.296-0.541-0.541-0.0172-0.0416-0.0438-0.128-0.0594-0.356-0.0162-0.237-0.0167-0.547-0.0167-1.03v-7c0-0.48 5e-4 -0.789 0.0167-1.03 0.0156-0.228 0.0422-0.315 0.0594-0.356 0.102-0.245 0.296-0.44 0.541-0.541 0.0416-0.0172 0.128-0.0438 0.356-0.0594 0.237-0.0162 0.547-0.0167 1.03-0.0167s0.789 5.4e-4 1.03 0.0167c0.228 0.0156 0.315 0.0422 0.356 0.0594 0.245 0.101 0.44 0.296 0.541 0.541 0.0172 0.0416 0.0438 0.128 0.0594 0.356 0.0162 0.237 0.0167 0.547 0.0167 1.03v7zm-5-1h-1v-5h1v5zm12 0v-5c0-0.48-5e-4 -0.789-0.0167-1.03-0.0156-0.228-0.0422-0.315-0.0594-0.356-0.102-0.245-0.296-0.44-0.541-0.541-0.0416-0.0172-0.128-0.0438-0.356-0.0594-0.237-0.0162-0.547-0.0167-1.03-0.0167s-0.789 5.4e-4 -1.03 0.0167c-0.228 0.0156-0.315 0.0422-0.356 0.0594-0.245 0.101-0.44 0.296-0.541 0.541-0.0172 0.0416-0.0438 0.128-0.0594 0.356-0.0162 0.237-0.0167 0.547-0.0167 1.03v5c0 0.48 5e-4 0.789 0.0167 1.03 0.0156 0.228 0.0422 0.315 0.0594 0.356 0.102 0.245 0.296 0.44 0.541 0.541 0.0416 0.0172 0.128 0.0438 0.356 0.0594 0.237 0.0162 0.547 0.0167 1.03 0.0167s0.789-5e-4 1.03-0.0167c0.228-0.0156 0.315-0.0422 0.356-0.0594 0.245-0.102 0.44-0.296 0.541-0.541 0.0172-0.0416 0.0438-0.128 0.0594-0.356 0.0162-0.237 0.0167-0.547 0.0167-1.03z" clip-rule="evenodd" fill="#000" fill-rule="evenodd"/><path d="m2 20.5c0-0.276 0.224-0.5 0.5-0.5h13.5c0.118-1.06 0.97-1.9 2.04-1.99 0.0979-0.0086 0.214-0.0086 0.446-0.0086h2c0.232 0 0.348 0 0.446 0.0086 1.09 0.0951 1.95 0.958 2.05 2.05 0.0086 0.0979 0.0086 0.214 0.0086 0.446s0 0.348-0.0086 0.446c-0.0951 1.09-0.958 1.95-2.05 2.05-0.0979 0.0086-0.214 0.0086-0.446 0.0086h-2c-0.232 0-0.348 0-0.446-0.0086-1.07-0.0936-1.92-0.929-2.04-1.99h-13.5c-0.276 0-0.5-0.224-0.5-0.5z" fill="#000"/></svg>
