<svg viewBox="0 0 24 24" xmlns="http://www.w3.org/2000/svg"><path d="m1 11.5c0-5.8 4.7-10.5 10.5-10.5 5.8 0 10.5 4.7 10.5 10.5 0 3.18-1.42 6.03-3.65 7.96-0.209 0.18-0.233 0.496-0.0527 0.705 0.18 0.209 0.496 0.233 0.705 0.0526 0.0801-0.069 0.159-0.139 0.237-0.21l1.85 2.77c0.153 0.23 0.464 0.292 0.693 0.139 0.23-0.153 0.292-0.464 0.139-0.693l-1.96-2.93c1.89-2.05 3.04-4.78 3.04-7.79 0-6.35-5.15-11.5-11.5-11.5-6.35 0-11.5 5.15-11.5 11.5 0 3 1.15 5.74 3.04 7.79l-1.96 2.93c-0.153 0.23-0.0911 0.54 0.139 0.693 0.23 0.153 0.54 0.0911 0.693-0.139l1.85-2.77c0.0782 0.0712 0.157 0.141 0.237 0.21 0.209 0.18 0.525 0.157 0.705-0.0526 0.18-0.209 0.157-0.525-0.0526-0.705-2.24-1.93-3.65-4.78-3.65-7.96z" fill="#000"/><path d="m10.3 18c-0.733 0-1.36 0.53-1.48 1.25l-0.5 3c-0.152 0.914 0.553 1.75 1.48 1.75h3.46c0.927 0 1.63-0.832 1.48-1.75l-0.5-3c-0.12-0.723-0.746-1.25-1.48-1.25h-0.729v-3.05c1.14-0.232 2-1.24 2-2.45 0-1.38-1.12-2.5-2.5-2.5s-2.5 1.12-2.5 2.5c0 1.21 0.859 2.22 2 2.45v3.05h-0.729z" fill="#000"/></svg>
