<svg viewBox="0 0 24 24" xmlns="http://www.w3.org/2000/svg"><path d="m12 1 1.03 1.29c0.536 0.575 1.36 0.639 2.25 0.708l0.0225 0.00175c0.83 0.06 1.72 0.13 2.52 0.61 1.67 1 1.17 2.4 0.86 3.09-0.2 0.46-1.04 1.09-1.87 1.09-0.45 0-0.9-0.19-1.24-0.71-0.95-1.48 0.54-2.26 0.54-2.26h-0.04c-0.13 0-0.58 0.02-0.97 0.27-0.47 0.29-1.26 1.3-0.86 2.8s2.16 2.3 2.16 2.3-1.84 0.97-1.84 3.81 1.82 5.42 1.82 5.42-3.38 0.55-3.38 3.08v0.995c0 0.279 0.226 0.505 0.505 0.505s0.505-0.226 0.505-0.505v-1c0-1.64 2.51-2.08 2.54-2.08 0.34-0.06 0.63-0.28 0.76-0.6s0.09-0.68-0.11-0.96c-0.02-0.02-1.63-2.34-1.63-4.81 0-2.11 1.21-2.89 1.32-2.97l0.0061-0.0039c0.32-0.19 0.52-0.55 0.5-0.92s-0.24-0.71-0.58-0.86c-0.21-0.1-0.63-0.35-1-0.7 0.31 0.14 0.64 0.21 1 0.21 1.23 0 2.44-0.88 2.79-1.7 1.09-2.47-0.33-3.78-1.27-4.34-0.987-0.592-2.05-0.678-2.92-0.747l-0.0338-0.00271c-0.7-0.05-1.31-0.1-1.6-0.38l-0.99-1.25c-0.19-0.24-0.39-0.38-0.79-0.38h-0.01c-0.4 0-0.7 0.22-0.87 0.51-0.72 1.28-1.56 2.69-2.26 3.76-0.1-0.16-0.24-0.29-0.41-0.37l-0.0168-0.0076c-0.145-0.0658-0.884-0.402-1.73-0.402-1.07 0-1.94 0.54-2.37 1.49-1.01 2.19 0.39 4.13 1.89 5.13 1.53 1.01 2.31 2.33 2.31 3.9 0 2.17-1.66 4.81-1.68 4.83-0.18 0.28-0.21 0.64-0.07 0.95 0.14 0.31 0.42 0.52 0.75 0.58 0.02 0 2.47 0.44 2.47 2.08l-8e-3 1.05c-0.0011 0.276 0.223 0.501 0.499 0.501 0.276 0 0.499-0.223 0.499-0.499v-1c0-2.53-3.3-3.12-3.3-3.12s1.84-2.89 1.84-5.38-1.57-3.94-2.76-4.73c-1.19-0.79-2.27-2.26-1.53-3.88 0.32-0.71 0.92-0.9 1.46-0.9 0.68 0 1.31 0.31 1.31 0.31s-1.12 0.23-1.22 1.07c-0.09 0.69 0.27 1.04 0.81 1.04 0.13 0 0.27-0.02 0.41-0.06 0.79-0.15 3.98-5.85 3.98-5.85z" fill="#000"/><path d="m3.38 10.7c0.358-0.0629 0.62-0.375 0.62-0.739v-0.841c0-0.365-0.261-0.676-0.62-0.739l-1.91-0.336c-0.0213-0.00374-0.0434-0.00667-0.0646-0.0024-0.537 0.108-0.537 2.89 0 3 0.0212 0.0043 0.0432 0.0013 0.0646-0.0024l1.91-0.336z" fill="#000"/><path d="m4.38 20.7c0.358-0.0629 0.62-0.375 0.62-0.739v-0.841c0-0.364-0.261-0.676-0.62-0.739l-1.91-0.336c-0.0213-0.0037-0.0434-0.0067-0.0646-0.0024-0.537 0.108-0.537 2.89 0 3 0.0212 0.0043 0.0432 0.0013 0.0646-0.0024l1.91-0.336z" fill="#000"/><path d="m4.33 13.3c0 0.364-0.261 0.676-0.62 0.739l-1.91 0.336c-0.0213 0.0037-0.0434 0.0067-0.0646 0.0024-0.537-0.108-0.537-2.89 0-3 0.0212-0.0042 0.0433-0.0013 0.0646 0.0024l1.91 0.336c0.358 0.0629 0.62 0.375 0.62 0.739v0.841z" fill="#000"/><path d="m4.05 17.3c0.358-0.0629 0.62-0.375 0.62-0.739v-0.841c0-0.364-0.261-0.676-0.62-0.739l-1.91-0.336c-0.0213-0.0037-0.0434-0.0066-0.0646-0.0024-0.537 0.108-0.537 2.89 0 3 0.0212 0.0043 0.0432 0.0014 0.0646-0.0024l1.91-0.336z" fill="#000"/><path d="m19 19.9c0 0.364 0.261 0.676 0.62 0.739l1.91 0.336c0.0213 0.0037 0.0433 0.0067 0.0646 0.0024 0.537-0.108 0.537-2.89 0-3-0.0213-0.0043-0.0433-0.0013-0.0646 0.0024l-1.91 0.336c-0.358 0.0629-0.62 0.375-0.62 0.739v0.841z" fill="#000"/><path d="m20.6 10.7c-0.358-0.0629-0.62-0.375-0.62-0.739v-0.841c0-0.365 0.261-0.676 0.62-0.739l1.91-0.336c0.0213-0.00374 0.0433-0.00667 0.0646-0.0024 0.537 0.108 0.537 2.89 0 3-0.0213 0.0043-0.0433 0.0013-0.0646-0.0024l-1.91-0.336z" fill="#000"/><path d="m19.7 13.3c0 0.364 0.261 0.676 0.62 0.739l1.91 0.336c0.0213 0.0037 0.0433 0.0067 0.0646 0.0024 0.537-0.108 0.537-2.89 0-3-0.0213-0.0042-0.0433-0.0013-0.0646 0.0024l-1.91 0.336c-0.358 0.0629-0.62 0.375-0.62 0.739v0.841z" fill="#000"/><path d="m20 17.3c-0.358-0.0629-0.62-0.375-0.62-0.739v-0.841c0-0.364 0.261-0.676 0.62-0.739l1.91-0.336c0.0213-0.0037 0.0433-0.0066 0.0645-0.0024 0.537 0.108 0.537 2.89 0 3-0.0212 0.0043-0.0432 0.0014-0.0645-0.0024l-1.91-0.336z" fill="#000"/></svg>
