<svg fill="none" viewBox="0 0 24 24" xmlns="http://www.w3.org/2000/svg"><path d="m0 10.8c0-1.68 0-2.52 0.327-3.16 0.288-0.564 0.747-1.02 1.31-1.31 0.642-0.327 1.48-0.327 3.16-0.327h14.4c1.68 0 2.52 0 3.16 0.327 0.564 0.288 1.02 0.747 1.31 1.31 0.327 0.642 0.327 1.48 0.327 3.16v2.4c0 1.68 0 2.52-0.327 3.16-0.288 0.564-0.746 1.02-1.31 1.31-0.642 0.327-1.48 0.327-3.16 0.327h-14.4c-1.68 0-2.52 0-3.16-0.327-0.564-0.288-1.02-0.746-1.31-1.31-0.327-0.642-0.327-1.48-0.327-3.16v-2.4zm2 3.2c0-2.76 2.24-5 5-5s5 2.24 5 5v0.143c0 0.473-0.384 0.857-0.857 0.857h-1.69c0.0328-0.162 0.05-0.329 0.05-0.5 0-1.38-1.12-2.5-2.5-2.5-0.154 0-0.304 0.0139-0.45 0.0404l-0.826-1.65c-0.057-0.114-0.191-0.167-0.31-0.123-0.12 0.0443-0.187 0.171-0.156 0.295l0.45 1.8c-0.724 0.438-1.21 1.23-1.21 2.14 0 0.171 0.0172 0.338 0.05 0.5h-1.69c-0.473 0-0.857-0.384-0.857-0.857v-0.143zm14-5.5c0-0.276-0.224-0.5-0.5-0.5s-0.5 0.224-0.5 0.5v0.5h-1c-0.232 0-0.349 0-0.444 0.0256-0.259 0.0694-0.461 0.272-0.53 0.53-0.0256 0.0954-0.0256 0.212-0.0256 0.444 0 0.232 0 0.349 0.0256 0.444 0.0693 0.259 0.272 0.461 0.53 0.53 0.0954 0.0256 0.212 0.0256 0.444 0.0256h1v4.5c0 0.276 0.224 0.5 0.5 0.5s0.5-0.224 0.5-0.5v-4.5h1c0.232 0 0.349 0 0.444-0.0256 0.259-0.0693 0.461-0.272 0.53-0.53 0.0256-0.0954 0.0256-0.212 0.0256-0.444 0-0.232 0-0.349-0.0256-0.444-0.0693-0.259-0.272-0.461-0.53-0.53-0.0954-0.0256-0.212-0.0256-0.444-0.0256h-1v-0.5zm5 0c0-0.276-0.224-0.5-0.5-0.5s-0.5 0.224-0.5 0.5v3.5h-1c-0.232 0-0.349 0-0.444 0.0256-0.259 0.0693-0.461 0.272-0.53 0.53-0.0256 0.0954-0.0256 0.212-0.0256 0.444s0 0.349 0.0256 0.444c0.0693 0.259 0.272 0.461 0.53 0.53 0.0954 0.0256 0.212 0.0256 0.444 0.0256h1v1.5c0 0.276 0.224 0.5 0.5 0.5s0.5-0.224 0.5-0.5v-1.5h1c0.232 0 0.349 0 0.444-0.0256 0.259-0.0693 0.461-0.272 0.53-0.53 0.0256-0.0954 0.0256-0.212 0.0256-0.444s0-0.349-0.0256-0.444c-0.0693-0.259-0.272-0.461-0.53-0.53-0.0954-0.0256-0.212-0.0256-0.444-0.0256h-1v-3.5z" clip-rule="evenodd" fill="#000" fill-rule="evenodd"/></svg>
