<svg fill="none" viewBox="0 0 24 24" xmlns="http://www.w3.org/2000/svg"><path d="m1.32 22.4c-0.266-0.266-0.506-0.506-0.69-0.722-0.198-0.232-0.387-0.5-0.501-0.836-0.165-0.489-0.176-1.02-0.0302-1.51 0.1-0.341 0.278-0.615 0.467-0.855 0.175-0.224 0.406-0.473 0.661-0.749l9.76-10.6c-0.0193-0.205-0.0292-0.412-0.0292-0.621 0-3.6 2.92-6.52 6.52-6.52s6.52 2.92 6.52 6.52c0 3.6-2.92 6.52-6.52 6.52-0.209 0-0.416-0.0099-0.621-0.0292l-10.6 9.76c-0.276 0.255-0.526 0.485-0.749 0.661-0.24 0.188-0.515 0.366-0.855 0.467-0.495 0.146-1.02 0.135-1.51-0.0302-0.337-0.114-0.604-0.303-0.836-0.501-0.216-0.184-0.456-0.424-0.722-0.69l-0.29-0.29zm-0.241-1.88c0.113 0.333 0.4 0.621 0.975 1.2l0.24 0.24c0.575 0.575 0.862 0.862 1.2 0.975 0.293 0.0992 0.61 0.106 0.907 0.0182 0.337-0.0993 0.636-0.375 1.23-0.926l7.06-6.52-4.19-4.19-6.52 7.06c-0.551 0.597-0.827 0.896-0.926 1.23-0.0874 0.297-0.0811 0.614 0.0181 0.907zm8.11-9.94 4.24 4.24 2.39-2.21-4.43-4.43-2.21 2.39zm8.29 1.47c-0.563 0-1.08-0.281-1.47-0.679l-3.36-3.36c-0.398-0.398-0.679-0.912-0.679-1.47 0-3.05 2.47-5.52 5.52-5.52s5.52 2.47 5.52 5.52-2.47 5.52-5.52 5.52z" clip-rule="evenodd" fill="#000" fill-rule="evenodd"/></svg>
