<svg viewBox="0 0 24 24" xmlns="http://www.w3.org/2000/svg"><path d="m4.44 2.18c-0.436 0.856-0.436 1.98-0.436 4.22v4.65c0.0083-0.0085 0.0167-0.017 0.0251-0.0255 0.548-0.548 1.24-0.794 2.12-0.911 0.85-0.114 1.94-0.114 3.32-0.114h5.08c1.38-1e-5 2.47-2e-5 3.32 0.114 0.872 0.117 1.57 0.363 2.12 0.911 0.0084 0.0085 0.0168 0.017 0.0251 0.0255v-4.65c0-2.24 0-3.36-0.436-4.22-0.384-0.753-0.995-1.36-1.75-1.75-0.856-0.436-1.98-0.436-4.22-0.436h-3.2c-2.24 0-3.36 0-4.22 0.436-0.753 0.383-1.36 0.995-1.75 1.75zm3.56 2.82c1.1 0 2-0.895 2-2s-0.895-2-2-2-2 0.895-2 2 0.895 2 2 2zm10-2c0 1.1-0.895 2-2 2s-2-0.895-2-2 0.895-2 2-2 2 0.895 2 2zm-6 6c1.1 0 2-0.895 2-2s-0.895-2-2-2-2 0.895-2 2 0.895 2 2 2z" clip-rule="evenodd" fill="#000" fill-rule="evenodd"/><path d="m20 16.5c0-1.43-0.0011-2.45-0.105-3.23-0.102-0.762-0.296-1.21-0.627-1.54-0.331-0.331-0.781-0.524-1.54-0.627-0.776-0.104-1.8-0.105-3.23-0.105h-5c-1.43 0-2.45 0.0011-3.23 0.105-0.762 0.102-1.21 0.296-1.54 0.627-0.331 0.331-0.524 0.781-0.627 1.54-0.104 0.776-0.105 1.8-0.105 3.23v1.1c0 2.24 0 3.36 0.436 4.22 0.384 0.753 0.995 1.36 1.75 1.75 0.856 0.436 1.98 0.436 4.22 0.436h3.2c2.24 0 3.36 0 4.22-0.436 0.753-0.384 1.36-0.995 1.75-1.75 0.436-0.856 0.436-1.98 0.436-4.22v-1.1zm-14 0.5c0-0.932 0-1.4 0.152-1.77 0.203-0.49 0.592-0.879 1.08-1.08 0.368-0.152 0.833-0.152 1.77-0.152h6c0.932 0 1.4 0 1.77 0.152 0.49 0.203 0.879 0.592 1.08 1.08 0.152 0.368 0.152 0.834 0.152 1.77s0 1.4-0.152 1.77c-0.203 0.49-0.592 0.879-1.08 1.08-0.368 0.152-0.834 0.152-1.77 0.152h-6c-0.932 0-1.4 0-1.77-0.152-0.49-0.203-0.879-0.592-1.08-1.08-0.152-0.368-0.152-0.834-0.152-1.77z" clip-rule="evenodd" fill="#000" fill-rule="evenodd"/></svg>
