<svg viewBox="0 0 24 24" xmlns="http://www.w3.org/2000/svg"><path d="m7.2 15.8c-0.201 0.348-0.201 0.815-0.201 1.75s0 1.4 0.201 1.75c0.132 0.228 0.321 0.417 0.549 0.549 0.348 0.201 0.815 0.201 1.75 0.201h5c0.935 0 1.4 0 1.75-0.201 0.228-0.132 0.417-0.321 0.549-0.549 0.201-0.348 0.201-0.815 0.201-1.75s0-1.4-0.201-1.75c-0.132-0.228-0.321-0.417-0.549-0.549-0.348-0.201-0.815-0.201-1.75-0.201h-5c-0.935 0-1.4 0-1.75 0.201-0.228 0.132-0.417 0.321-0.549 0.549z" fill="#000"/><path d="m10 4.5c0 0.828-0.672 1.5-1.5 1.5s-1.5-0.672-1.5-1.5 0.672-1.5 1.5-1.5 1.5 0.672 1.5 1.5z" fill="#000"/><path d="m15.5 6c0.828 0 1.5-0.672 1.5-1.5s-0.672-1.5-1.5-1.5-1.5 0.672-1.5 1.5 0.672 1.5 1.5 1.5z" fill="#000"/><path d="m13.5 7.5c0 0.828-0.672 1.5-1.5 1.5s-1.5-0.672-1.5-1.5 0.672-1.5 1.5-1.5 1.5 0.672 1.5 1.5z" fill="#000"/><path d="m20 10v6c0 2.8 0 4.2-0.545 5.27-0.479 0.941-1.24 1.71-2.18 2.18-1.07 0.545-2.47 0.545-5.27 0.545-2.8 0-4.2 0-5.27-0.545-0.941-0.479-1.71-1.24-2.19-2.18-0.545-1.07-0.545-2.47-0.545-5.27v-6c-0.552 0-1-0.448-1-1v-2c0-0.552 0.448-1 1-1l0.011 6e-5c0.0295-1.54 0.138-2.49 0.534-3.27 0.479-0.941 1.24-1.71 2.19-2.19 1.07-0.545 2.47-0.545 5.27-0.545 2.8 0 4.2 0 5.27 0.545 0.941 0.479 1.71 1.24 2.18 2.19 0.396 0.778 0.504 1.73 0.534 3.27 0.0036-4e-5 0.0073-6e-5 0.011-6e-5 0.552 0 1 0.448 1 1v2c0 0.552-0.448 1-1 1zm-1 2v4c0 1.42-8e-4 2.42-0.0648 3.2-0.0631 0.772-0.182 1.24-0.371 1.61-0.384 0.753-0.995 1.36-1.75 1.75-0.37 0.189-0.842 0.308-1.61 0.371-0.784 0.064-1.79 0.0648-3.2 0.0648s-2.42-8e-4 -3.2-0.0648c-0.772-0.0631-1.24-0.182-1.61-0.371-0.753-0.384-1.36-0.995-1.75-1.75-0.189-0.37-0.308-0.842-0.371-1.61-0.064-0.784-0.0648-1.79-0.0648-3.2v-4h14zm-14-4c0-1.42 7.8e-4 -2.42 0.0648-3.2 0.0631-0.772 0.182-1.24 0.371-1.61 0.384-0.753 0.995-1.36 1.75-1.75 0.37-0.189 0.841-0.308 1.61-0.371 0.784-0.064 1.79-0.0648 3.2-0.0648s2.42 7.8e-4 3.2 0.0648c0.772 0.0631 1.24 0.182 1.61 0.371 0.753 0.384 1.36 0.995 1.75 1.75 0.189 0.37 0.308 0.841 0.371 1.61 0.064 0.784 0.0648 1.79 0.0648 3.2v3h-14v-3z" clip-rule="evenodd" fill="#000" fill-rule="evenodd"/></svg>
