<svg fill="none" viewBox="0 0 24 24" xmlns="http://www.w3.org/2000/svg"><path d="m0.272 1.37c-0.272 0.535-0.272 1.23-0.272 2.63v10c0 1.4 0 2.1 0.272 2.64 0.24 0.47 0.622 0.853 1.09 1.09 0.535 0.272 1.23 0.272 2.63 0.272h3c1.4 0 2.1 0 2.63-0.272 0.47-0.24 0.853-0.622 1.09-1.09 0.272-0.535 0.272-1.23 0.272-2.64v-1h2v7c0 1.4 0 2.1 0.272 2.64 0.24 0.47 0.622 0.853 1.09 1.09 0.535 0.272 1.23 0.272 2.64 0.272h3c1.4 0 2.1 0 2.64-0.272 0.47-0.24 0.853-0.622 1.09-1.09 0.272-0.535 0.272-1.23 0.272-2.64v-10c0-1.4 0-2.1-0.272-2.63-0.24-0.47-0.622-0.853-1.09-1.09-0.535-0.272-1.23-0.272-2.64-0.272h-3c-1.4 0-2.1 0-2.64 0.272-0.47 0.24-0.853 0.622-1.09 1.09-0.272 0.535-0.272 1.23-0.272 2.63v2h-2v-8c0-1.4 0-2.1-0.272-2.63-0.24-0.47-0.622-0.853-1.09-1.09-0.535-0.272-1.23-0.272-2.63-0.272h-3c-1.4 0-2.1 0-2.63 0.272-0.47 0.24-0.853 0.622-1.09 1.09zm9.73 11c0-0.84 0-1.26-0.163-1.58-0.144-0.282-0.373-0.512-0.656-0.656-0.321-0.164-0.741-0.164-1.58-0.164h-4.2c-0.84 0-1.26 0-1.58 0.164-0.282 0.144-0.512 0.373-0.656 0.656-0.163 0.321-0.163 0.741-0.163 1.58v0.2c0 0.84 0 1.26 0.163 1.58 0.144 0.282 0.373 0.512 0.656 0.656 0.321 0.164 0.741 0.164 1.58 0.164h4.2c0.84 0 1.26 0 1.58-0.164 0.282-0.144 0.512-0.373 0.656-0.656 0.163-0.321 0.163-0.741 0.163-1.58v-0.2zm-7-6.4c1.1 0 2-0.895 2-2s-0.895-2-2-2-2 0.895-2 2 0.895 2 2 2zm5 0c1.1 0 2-0.895 2-2s-0.895-2-2-2-2 0.895-2 2 0.895 2 2 2zm8 6c1.1 0 2-0.895 2-2 0-1.1-0.895-2-2-2s-2 0.895-2 2c0 1.1 0.895 2 2 2zm5 0c1.1 0 2-0.895 2-2 0-1.1-0.895-2-2-2s-2 0.895-2 2c0 1.1 0.895 2 2 2zm-7 6.4c0-0.84 0-1.26 0.164-1.58 0.144-0.282 0.373-0.512 0.656-0.656 0.321-0.164 0.741-0.164 1.58-0.164h4.2c0.84 0 1.26 0 1.58 0.164 0.282 0.144 0.512 0.373 0.656 0.656 0.164 0.321 0.164 0.741 0.164 1.58v0.2c0 0.84 0 1.26-0.164 1.58-0.144 0.282-0.373 0.512-0.656 0.656-0.321 0.164-0.741 0.164-1.58 0.164h-4.2c-0.84 0-1.26 0-1.58-0.164-0.282-0.144-0.512-0.373-0.656-0.656-0.164-0.321-0.164-0.741-0.164-1.58v-0.2z" clip-rule="evenodd" fill="#000" fill-rule="evenodd"/></svg>
