<svg fill="none" viewBox="0 0 24 24" xmlns="http://www.w3.org/2000/svg"><path d="m1 4.5v17c0 1.38 1.12 2.5 2.5 2.5 1.22 0 2.24-0.876 2.46-2.03 0.425 0.334 0.961 0.533 1.54 0.533 1.22 0 2.24-0.876 2.46-2.03 0.425 0.334 0.961 0.533 1.54 0.533 1.22 0 2.24-0.876 2.46-2.03 0.425 0.334 0.961 0.533 1.54 0.533 1.22 0 2.24-0.876 2.46-2.03 0.425 0.334 0.961 0.533 1.54 0.533 1.38 0 2.5-1.12 2.5-2.5v-11c0-0.828-0.672-1.5-1.5-1.5h-18c-0.828 0-1.5 0.672-1.5 1.5zm1.5-0.5c-0.276 0-0.5 0.224-0.5 0.5v4.5h3v-2.5c0-0.276 0.224-0.5 0.5-0.5s0.5 0.224 0.5 0.5v2.5h3v-2.5c0-0.276 0.224-0.5 0.5-0.5s0.5 0.224 0.5 0.5v2.5h3v-2.5c0-0.276 0.224-0.5 0.5-0.5s0.5 0.224 0.5 0.5v2.5h3v-2.5c0-0.276 0.224-0.5 0.5-0.5s0.5 0.224 0.5 0.5v2.5h3v-4.5c0-0.276-0.224-0.5-0.5-0.5h-18zm18.5 6h-3v5.5c0 0.828 0.672 1.5 1.5 1.5s1.5-0.672 1.5-1.5v-5.5zm-4 0h-3v7c0 0.828 0.672 1.5 1.5 1.5s1.5-0.672 1.5-1.5v-7zm-4 0h-3v8.5c0 0.828 0.672 1.5 1.5 1.5s1.5-0.672 1.5-1.5v-8.5zm-4 0h-3v10c0 0.828 0.672 1.5 1.5 1.5s1.5-0.672 1.5-1.5v-10zm-4 0h-3v11.5c0 0.828 0.672 1.5 1.5 1.5s1.5-0.672 1.5-1.5v-11.5z" clip-rule="evenodd" fill="#000" fill-rule="evenodd"/></svg>
