<svg viewBox="0 0 24 24" xmlns="http://www.w3.org/2000/svg"><path d="m1.55 1.57c2.32-2.32 6.06-1.85 8.88-0.0261-0.0194 0.0199-0.0386 0.0399-0.0578 0.0599-0.215 0.224-0.415 0.461-0.601 0.706-0.95-0.597-2.01-1.02-3.06-1.21-1.72-0.306-3.32 0.0404-4.46 1.18-1.13 1.13-1.46 2.71-1.15 4.43 0.317 1.73 1.28 3.5 2.56 4.78 0.505 0.505 1.17 0.921 1.93 1.26l-0.276 0.276c-0.168 0.168-0.356 0.314-0.558 0.435-0.675-0.341-1.29-0.757-1.8-1.26-2.83-2.83-4.27-7.78-1.42-10.6z" fill="#000"/><path d="m14 16.9c0.38-0.042 0.798-0.0968 1.24-0.169 0.666 0.713 1.15 1.58 1.4 2.53l0.396 1.5c0.593 2.25 3.4 3 5.04 1.36 1.65-1.65 0.877-4.47-1.39-5.05l-1.47-0.375c-0.487-0.124-0.955-0.31-1.39-0.551l0.0266-8e-3c0.442-0.134 0.901-0.292 1.36-0.481 0.0825 0.0258 0.166 0.0494 0.25 0.0708l1.47 0.375c3.01 0.768 4.05 4.53 1.85 6.73-2.19 2.19-5.93 1.18-6.72-1.81l-0.396-1.5c-0.221-0.838-0.661-1.6-1.27-2.22l-0.395-0.395z" fill="#000"/><path d="m11.8 2.99c2.79-2.91 7.78-4.27 10.6-1.42 2.85 2.85 1.42 7.79-1.42 10.6-1.92 1.92-5.47 2.54-7.56 2.74-1.06 0.101-2.08 0.517-2.83 1.27l-1.08 1.08c-0.613 0.613-1.05 1.38-1.27 2.22l-0.396 1.5c-0.79 2.99-4.53 4-6.72 1.81-2.2-2.2-1.17-5.96 1.85-6.73l1.47-0.375c0.85-0.216 1.63-0.658 2.24-1.28l1.08-1.08c0.745-0.745 1.16-1.75 1.27-2.8 0.209-2.07 0.839-5.6 2.73-7.57zm0.722 0.692c1.26-1.31 3.01-2.27 4.74-2.58 1.72-0.306 3.32 0.0404 4.46 1.18 1.13 1.13 1.46 2.71 1.15 4.43-0.317 1.73-1.28 3.5-2.56 4.78-0.794 0.793-1.98 1.37-3.3 1.77-1.3 0.394-2.64 0.59-3.65 0.686-1.25 0.119-2.5 0.615-3.44 1.56l-1.08 1.08c-0.738 0.738-1.27 1.66-1.53 2.67l-0.396 1.5c-0.593 2.25-3.4 3-5.04 1.36-1.65-1.65-0.877-4.47 1.39-5.05l1.47-0.375c1.02-0.261 1.96-0.792 2.71-1.54l1.08-1.08c0.934-0.934 1.43-2.17 1.55-3.41 0.101-0.998 0.302-2.33 0.697-3.63 0.399-1.32 0.971-2.52 1.76-3.35z" clip-rule="evenodd" fill="#000" fill-rule="evenodd"/></svg>
