<svg viewBox="0 0 24 24" xmlns="http://www.w3.org/2000/svg"><path d="m12 1c-1.8 0-3.23 0.271-4.16 0.524-0.547 0.148-0.897 0.694-0.83 1.34l0.355 3.39c0.0581 0.554 0.418 1.03 0.935 1.24l1.38 0.552c0.19 0.0759 0.322 0.26 0.322 0.464v3.5c0 0.157-0.082 0.306-0.208 0.4l-1.2 0.9c-0.378 0.283-0.592 0.728-0.592 1.2v0.438c0 0.609 0.151 1.21 0.453 1.74l1.47 2.58c0.0432 0.0756 0.0738 0.161 0.0738 0.248v4c0 0.276-0.224 0.5-0.5 0.5s-0.5-0.224-0.5-0.5v-3.87l-1.42-2.46c-0.389-0.68-0.585-1.45-0.585-2.23v-0.438c0-0.787 0.363-1.53 0.992-2l1.01-0.75v-2.91l-1.07-0.426c-0.861-0.345-1.46-1.14-1.56-2.06l-0.355-3.39c-0.11-1.05 0.466-2.11 1.56-2.41 1.01-0.273 2.53-0.559 4.42-0.559s3.42 0.286 4.42 0.559c1.1 0.297 1.67 1.36 1.56 2.41l-0.355 3.39c-0.0969 0.923-0.697 1.72-1.56 2.06l-1.07 0.426v2.91l1.01 0.75c0.63 0.472 0.992 1.21 0.992 2v0.438c0 0.783-0.196 1.55-0.585 2.23l-1.42 2.46v3.87c0 0.276-0.224 0.5-0.5 0.5s-0.5-0.224-0.5-0.5v-4c0-0.087 0.0306-0.172 0.0738-0.248l1.47-2.58c0.302-0.529 0.453-1.13 0.453-1.74v-0.438c0-0.472-0.214-0.917-0.592-1.2l-1.2-0.9c-0.126-0.0944-0.208-0.243-0.208-0.4v-3.5c0-0.204 0.132-0.388 0.322-0.464l1.38-0.552c0.517-0.207 0.877-0.683 0.935-1.24l0.356-3.39c0.0676-0.644-0.282-1.19-0.83-1.34-0.936-0.253-2.37-0.524-4.16-0.524z" fill="#000"/><path d="m0 10c0-0.572 0.467-1.03 1.02-0.999l4.25 0.218c0.406 0.0208 0.725 0.364 0.725 0.781 0 0.417-0.319 0.76-0.725 0.781l-4.25 0.218c-0.557 0.0286-1.02-0.427-1.02-0.999z" fill="#000"/><path d="m23.2 8.56c0.559-0.121 0.9-0.705 0.749-1.28s-0.734-0.907-1.28-0.728l-4.15 1.36c-0.396 0.13-0.62 0.561-0.51 0.98 0.11 0.419 0.517 0.678 0.924 0.59l4.26-0.926z" fill="#000"/><path d="m24 13.7c0.152-0.575-0.19-1.16-0.749-1.28l-4.26-0.926c-0.407-0.0885-0.814 0.171-0.924 0.59-0.11 0.419 0.114 0.85 0.51 0.98l4.15 1.36c0.544 0.179 1.13-0.153 1.28-0.728z" fill="#000"/></svg>
