<svg fill="none" viewBox="0 0 24 24" xmlns="http://www.w3.org/2000/svg"><path d="m23 8v8c0 2.21-4.92 4-11 4-6.08 0-11-1.79-11-4v-8c0-2.21 4.92-4 11-4 6.08 0 11 1.79 11 4zm-1 0c0 0.151-0.0811 0.425-0.516 0.799-0.432 0.371-1.12 0.751-2.05 1.09-1.86 0.675-4.48 1.11-7.44 1.11-2.95 0-5.58-0.437-7.44-1.11-0.932-0.339-1.62-0.719-2.05-1.09-0.435-0.374-0.516-0.648-0.516-0.799s0.0811-0.425 0.516-0.799c0.432-0.371 1.12-0.751 2.05-1.09 1.86-0.675 4.48-1.11 7.44-1.11 2.95 0 5.58 0.437 7.44 1.11 0.932 0.339 1.62 0.719 2.05 1.09 0.435 0.374 0.516 0.648 0.516 0.799zm-8 3.93c-0.649 0.0434-1.32 0.066-2 0.066s-1.35-0.0226-2-0.066v1.57c0 0.276-0.224 0.5-0.5 0.5s-0.5-0.224-0.5-0.5v-1.65c-1.48-0.153-2.84-0.416-4-0.764v1.41c0 0.276-0.224 0.5-0.5 0.5s-0.5-0.224-0.5-0.5v-1.75c-0.818-0.315-1.5-0.678-2-1.08v6.33c0 0.151 0.0811 0.424 0.516 0.799 0.432 0.371 1.12 0.751 2.05 1.09 1.86 0.675 4.48 1.11 7.44 1.11 2.95 0 5.58-0.437 7.44-1.11 0.932-0.339 1.62-0.718 2.05-1.09 0.435-0.374 0.516-0.648 0.516-0.799v-6.33c-0.504 0.398-1.18 0.762-2 1.08v1.75c0 0.276-0.224 0.5-0.5 0.5s-0.5-0.224-0.5-0.5v-1.41c-1.16 0.348-2.52 0.611-4 0.764v1.65c0 0.276-0.224 0.5-0.5 0.5s-0.5-0.224-0.5-0.5v-1.57z" clip-rule="evenodd" fill="#000" fill-rule="evenodd"/></svg>
