<svg viewBox="0 0 24 24" xmlns="http://www.w3.org/2000/svg"><path d="m6.5 5h11c0.28 0 0.5 0.22 0.5 0.5 0 0.28-0.22 0.5-0.5 0.5h-11c-0.28 0-0.5-0.22-0.5-0.5 0-0.28 0.22-0.5 0.5-0.5z" fill="#000"/><path d="m20 0.26c0.4 0.23 0.71 0.59 0.879 1.02h0.01c0.186 0.48 0.094 1.09-0.088 2.31l-1.49 9.95c-0.29 1.94-0.44 2.9-0.909 3.63-0.41 0.64-0.999 1.14-1.7 1.46-0.28 0.13-0.58 0.21-0.939 0.26l1.94 2.73c0.709 0.99 0 2.37-1.22 2.37h-8.98c-1.22 0-1.93-1.38-1.22-2.37l1.94-2.73c-0.36-0.05-0.659-0.13-0.939-0.26-0.689-0.31-1.28-0.82-1.7-1.46-0.47-0.73-0.62-1.7-0.909-3.63l-1.49-9.92c-0.185-1.23-0.28-1.86-0.0926-2.34 0.17-0.43 0.48-0.79 0.879-1.02 0.46-0.26 1.1-0.26 2.38-0.26h11.3c1.28 0 1.92 0 2.38 0.26zm-3.73 17.5c0.53-0.24 0.969-0.62 1.28-1.1 0.24-0.38 0.41-0.93 0.56-1.81l-3.08-5.27-2.59 5.17c-0.12 0.24-0.42 0.34-0.669 0.22-0.09-0.04-0.16-0.12-0.21-0.2l-3.03-5.19-2.64 5.28c0.15 0.88 0.29 1.43 0.53 1.8 0.32 0.48 0.759 0.86 1.28 1.1 0.19 0.08 0.4 0.14 0.669 0.18 0.34 0.05 0.63 0.28 0.769 0.6 0.13 0.32 0.0899 0.69-0.11 0.97l-1.94 2.73c-0.16 0.23-0.0799 0.44-0.04 0.52 0.04 0.08 0.16 0.27 0.44 0.27h8.98c0.27 0 0.4-0.19 0.44-0.27 0.04-0.0801 0.12-0.3-0.04-0.52l-1.94-2.73c-0.21-0.28-0.25-0.65-0.11-0.97 0.13-0.32 0.43-0.55 0.769-0.6 0.27-0.0401 0.49-0.1 0.67-0.18zm2.06-4.47 1.46-9.73h0.01c0.15-0.96 0.24-1.64 0.15-1.89-0.08-0.21-0.24-0.4-0.44-0.51-0.23-0.13-0.929-0.13-1.89-0.13h-11.3c-0.959 0-1.66 0-1.89 0.13-0.2 0.11-0.36 0.29-0.44 0.51-0.0944 0.236-0.00147 0.866 0.127 1.74 0.00748 0.0507 0.0151 0.102 0.0228 0.155l1.44 9.6 2.42-4.85c0.0799-0.17 0.25-0.28 0.43-0.28 0.19 0 0.36 0.09 0.45 0.25l3.03 5.2 2.59-5.17c0.08-0.17 0.25-0.28 0.43-0.28 0.19 0 0.36 0.09 0.45 0.25l2.92 5.01z" clip-rule="evenodd" fill="#000" fill-rule="evenodd"/></svg>
