<svg viewBox="0 0 24 24" xmlns="http://www.w3.org/2000/svg"><path d="m16 12.5c0-0.276-0.224-0.5-0.5-0.5s-0.5 0.224-0.5 0.5v6c0 0.276 0.224 0.5 0.5 0.5s0.5-0.224 0.5-0.5v-6z" fill="#000"/><path d="m9 12.5c0-0.276-0.224-0.5-0.5-0.5s-0.5 0.224-0.5 0.5v6c0 0.276 0.224 0.5 0.5 0.5s0.5-0.224 0.5-0.5v-6z" fill="#000"/><path d="m1 5.5v13c0 2.49 4.92 4.5 11 4.5 6.08 0 11-2.01 11-4.5v-13c0-2.49-4.92-4.5-11-4.5-6.08 0-11 2.01-11 4.5zm21 0c0 0.266-0.128 0.615-0.56 1.03-0.435 0.421-1.12 0.846-2.04 1.22-1.84 0.754-4.46 1.24-7.4 1.24-2.94 0-5.56-0.489-7.4-1.24-0.924-0.378-1.61-0.803-2.04-1.22-0.432-0.418-0.56-0.767-0.56-1.03s0.128-0.615 0.56-1.03c0.435-0.421 1.12-0.846 2.04-1.22 1.84-0.754 4.46-1.24 7.4-1.24 2.94 0 5.56 0.489 7.4 1.24 0.924 0.378 1.61 0.803 2.04 1.22 0.432 0.418 0.56 0.767 0.56 1.03zm-20 13v-11.1c1.74 1.55 5.56 2.62 10 2.62s8.26-1.07 10-2.62v11.1c0 0.266-0.128 0.615-0.56 1.03-0.435 0.421-1.12 0.846-2.04 1.22-1.84 0.754-4.46 1.24-7.4 1.24-2.94 0-5.56-0.49-7.4-1.24-0.924-0.378-1.61-0.803-2.04-1.22-0.432-0.418-0.56-0.767-0.56-1.03z" clip-rule="evenodd" fill="#000" fill-rule="evenodd"/></svg>
