<svg viewBox="0 0 24 24" xmlns="http://www.w3.org/2000/svg"><path d="m12 7.12c-1.86 1.3-3.74 1.81-5.96 1.87l0.918 11c0.485 0.0207 1.11 0.104 1.67 0.44 0.817 0.49 1.37 1.43 1.37 3.05 0 0.276-0.224 0.5-0.5 0.5s-0.5-0.224-0.5-0.5c0-1.38-0.449-1.94-0.882-2.2-0.489-0.293-1.1-0.304-1.62-0.304-0.26 0-0.477-0.199-0.498-0.458l-1-12c-0.0116-0.139 0.0356-0.277 0.13-0.38 0.0947-0.103 0.228-0.161 0.368-0.161 2.42 0 4.31-0.479 6.2-1.9 0.185-0.139 0.435-0.13 0.609 0.00673 1.89 1.42 3.78 1.89 6.19 1.89 0.14 0 0.273 0.0586 0.368 0.161 0.0947 0.103 0.142 0.241 0.13 0.38l-1 12c-0.0216 0.259-0.238 0.458-0.498 0.458-0.518 0-1.13 0.0104-1.62 0.304-0.433 0.26-0.882 0.818-0.882 2.2 0 0.276-0.224 0.5-0.5 0.5s-0.5-0.224-0.5-0.5c0-1.62 0.551-2.56 1.37-3.05 0.559-0.335 1.19-0.419 1.67-0.44l0.918-11c-2.22-0.0676-4.1-0.57-5.96-1.87z" fill="#000"/><path d="m1 11.3c0-0.408 0.366-0.718 0.768-0.651l1.68 0.28c0.318 0.053 0.552 0.328 0.552 0.651v0.882c0 0.323-0.233 0.598-0.552 0.651l-1.68 0.28c-0.402 0.0671-0.768-0.243-0.768-0.651v-1.44z" fill="#000"/><path d="m2.27 16.1c-0.402-0.0671-0.768 0.243-0.768 0.651v1.44c0 0.408 0.366 0.718 0.768 0.651l1.68-0.28c0.318-0.053 0.552-0.328 0.552-0.651v-0.882c0-0.323-0.233-0.598-0.552-0.651l-1.68-0.28z" fill="#000"/><path d="m23 11.3c0-0.408-0.366-0.718-0.768-0.651l-1.68 0.28c-0.318 0.053-0.552 0.328-0.552 0.651v0.882c0 0.323 0.233 0.598 0.552 0.651l1.68 0.28c0.402 0.0671 0.768-0.243 0.768-0.651v-1.44z" fill="#000"/><path d="m21.7 16.1c0.402-0.0671 0.768 0.243 0.768 0.651v1.44c0 0.408-0.366 0.718-0.768 0.651l-1.68-0.28c-0.318-0.053-0.552-0.328-0.552-0.651v-0.882c0-0.323 0.233-0.598 0.552-0.651l1.68-0.28z" fill="#000"/></svg>
