<svg viewBox="0 0 24 24" xmlns="http://www.w3.org/2000/svg"><path d="m15 0.59c0.39-0.39 0.9-0.59 1.41-0.59s1.02 0.2 1.41 0.59l5.62 5.64c0.78 0.78 0.78 2.05 0 2.83-0.39 0.39-0.9 0.59-1.41 0.59s-1.02-0.2-1.41-0.59c-0.39-0.39-0.9-0.59-1.41-0.59s-1.02 0.2-1.41 0.59l-11.8 11.8c-0.1 0.0901-0.1 0.25 0 0.35l0.18 0.18c0.59 0.58 0.59 1.53 0 2.12-0.29 0.29-0.68 0.44-1.06 0.44s-0.77-0.15-1.06-0.44l-3.53-3.53c-0.59-0.58-0.59-1.53 0-2.12 0.29-0.29 0.68-0.44 1.06-0.44 0.38 0 0.77 0.15 1.06 0.44l0.18 0.18c0.05 0.0501 0.11 0.0701 0.18 0.0701s0.18-0.0701 0.18-0.0701l11.9-11.8c0.78-0.78 0.78-2.05 0-2.83-0.78-0.78-0.78-2.05 0-2.83zm2.12 0.7c-0.19-0.19-0.44-0.29-0.71-0.29v0.01c-0.27 0-0.52 0.1-0.71 0.29-0.39 0.39-0.39 1.02 0 1.41 0.57 0.57 0.88 1.32 0.88 2.12 0 0.8-0.31 1.55-0.88 2.12l-11.8 11.9c-0.23 0.24-0.55 0.37-0.88 0.37-0.33 0-0.64-0.13-0.88-0.37l-0.18-0.18c-0.12-0.13-0.28-0.15-0.35-0.15s-0.22 0.02-0.35 0.15c-0.13 0.12-0.15 0.28-0.15 0.35s0.02 0.22 0.15 0.35l3.53 3.53c0.12 0.13 0.28 0.15 0.35 0.15s0.22-0.02 0.35-0.15c0.19-0.2 0.19-0.52 0-0.71l-0.18-0.18c-0.49-0.49-0.49-1.28 0-1.77l11.8-11.8c0.57-0.57 1.32-0.88 2.12-0.88s1.55 0.31 2.12 0.88c0.19 0.19 0.44 0.29 0.71 0.29s0.52-0.1 0.71-0.29c0.39-0.39 0.39-1.02 0-1.41l-5.66-5.66z" clip-rule="evenodd" fill="#000" fill-rule="evenodd"/><path d="m12.8 6.28c0.293-0.293 0.293-0.768 0-1.06s-0.768-0.293-1.06 0l-1.5 1.5c-0.293 0.293-0.293 0.768 0 1.06 0.293 0.293 0.768 0.293 1.06 0l1.5-1.5z" fill="#000"/><path d="m8.78 9.22c0.293 0.293 0.293 0.768 0 1.06l-1.5 1.5c-0.293 0.293-0.768 0.293-1.06 0s-0.293-0.768 0-1.06l1.5-1.5c0.293-0.293 0.768-0.293 1.06 0z" fill="#000"/><path d="m4.78 14.3c0.293-0.293 0.293-0.768 0-1.06s-0.768-0.293-1.06 0l-1.5 1.5c-0.293 0.293-0.293 0.768 0 1.06s0.768 0.293 1.06 0l1.5-1.5z" fill="#000"/></svg>
