<svg fill="none" viewBox="0 0 16 16" xmlns="http://www.w3.org/2000/svg"><path d="m13.6 3c-1.05-0.476-2.16-0.814-3.3-1-0.156 0.276-0.297 0.56-0.423 0.851-1.21-0.181-2.45-0.181-3.66 0-0.126-0.291-0.267-0.575-0.423-0.851-1.14 0.192-2.25 0.531-3.3 1.01-2.09 3.06-2.66 6.04-2.37 8.98 1.22 0.894 2.59 1.57 4.05 2.01 0.328-0.436 0.618-0.899 0.867-1.38-0.473-0.175-0.93-0.391-1.37-0.645 0.115-0.0822 0.227-0.167 0.335-0.249 1.27 0.589 2.65 0.895 4.05 0.895s2.78-0.306 4.05-0.895c0.11 0.0884 0.222 0.173 0.335 0.249-0.436 0.255-0.894 0.471-1.37 0.646 0.249 0.484 0.539 0.947 0.867 1.38 1.46-0.435 2.83-1.11 4.05-2.01 0.332-3.41-0.568-6.36-2.38-8.99zm-8.21 7.18c-0.789 0-1.44-0.709-1.44-1.58s0.629-1.59 1.44-1.59c0.809 0 1.46 0.715 1.44 1.59-0.0138 0.872-0.636 1.58-1.44 1.58zm5.32 0c-0.79 0-1.44-0.709-1.44-1.58s0.629-1.59 1.44-1.59c0.81 0 1.45 0.715 1.44 1.59-0.0139 0.872-0.634 1.58-1.44 1.58z" fill="#000"/></svg>
