<svg viewBox="0 0 16 16" xmlns="http://www.w3.org/2000/svg"><path d="m9 8.5c0 0.826 0.615 1.5 1.36 1.5 0.762 0 1.35-0.671 1.36-1.5s-0.595-1.5-1.36-1.5c-0.768 0-1.36 0.677-1.36 1.5z" fill="#000"/><path d="m5.63 10c-0.747 0-1.36-0.671-1.36-1.5s0.596-1.5 1.36-1.5 1.38 0.677 1.37 1.5c-0.0131 0.826-0.602 1.5-1.36 1.5z" fill="#000"/><path d="m13.3 2.72c0.165 0.0748 0.307 0.193 0.41 0.342 1.71 2.47 2.57 5.29 2.25 8.53-0.0276 0.284-0.175 0.542-0.405 0.71-1.16 0.851-2.47 1.5-3.85 1.91-0.4 0.12-0.833-0.0227-1.08-0.357-0.243-0.323-0.465-0.661-0.665-1.01-0.634 0.133-1.28 0.201-1.93 0.201-0.652 0-1.3-0.0679-1.94-0.201-0.199 0.351-0.421 0.689-0.664 1.01-0.252 0.335-0.685 0.478-1.09 0.357-1.38-0.414-2.68-1.06-3.85-1.91-0.23-0.168-0.378-0.427-0.405-0.711-0.269-2.79 0.277-5.64 2.25-8.52 0.103-0.151 0.246-0.271 0.413-0.347 0.999-0.452 2.05-0.774 3.14-0.957 0.415-0.0701 0.83 0.128 1.04 0.494 0.0301 0.0533 0.0596 0.107 0.0886 0.161 0.674-0.0578 1.35-0.0578 2.03-1e-5 0.029-0.0539 0.0586-0.108 0.0887-0.161 0.207-0.366 0.621-0.564 1.04-0.494 1.08 0.181 2.14 0.502 3.14 0.955zm-3.67 0.776c-1.06-0.158-2.14-0.158-3.21 0-0.11-0.254-0.234-0.503-0.37-0.744-0.998 0.168-1.97 0.465-2.89 0.882-1.83 2.68-2.32 5.29-2.08 7.86 1.07 0.783 2.27 1.38 3.54 1.76 0.0832-0.111 0.164-0.223 0.241-0.338 0.0762-0.112 0.15-0.227 0.22-0.343 0.105-0.173 0.205-0.35 0.297-0.53-0.15-0.0556-0.299-0.116-0.445-0.181-0.159-0.0706-0.316-0.147-0.47-0.228-0.0431-0.0228-0.0861-0.046-0.129-0.0697-0.0508-0.0281-0.101-0.0568-0.151-0.0861 0.1-0.0719 0.198-0.146 0.293-0.218 0.339 0.158 0.687 0.292 1.04 0.403 0.278 0.0867 0.561 0.159 0.846 0.216 0.542 0.109 1.1 0.164 1.65 0.164 0.556 0 1.11-0.0552 1.65-0.164 0.285-0.0572 0.568-0.129 0.846-0.216 0.356-0.111 0.705-0.246 1.04-0.404 0.0958 0.0773 0.194 0.151 0.293 0.218-0.0502 0.0293-0.101 0.058-0.151 0.0861-0.0435 0.0241-0.0871 0.0477-0.131 0.0709-0.168 0.0886-0.339 0.171-0.513 0.247-0.132 0.0577-0.266 0.112-0.402 0.162 0.0927 0.18 0.192 0.357 0.297 0.53 0.0707 0.116 0.144 0.23 0.221 0.343 0.0775 0.114 0.158 0.226 0.241 0.337 1.27-0.38 2.47-0.975 3.54-1.76 0.291-2.98-0.497-5.57-2.08-7.86-0.92-0.417-1.89-0.712-2.89-0.879-0.136 0.241-0.26 0.49-0.37 0.744z" clip-rule="evenodd" fill="#000" fill-rule="evenodd"/></svg>
