<svg fill="none" viewBox="0 0 16 16" xmlns="http://www.w3.org/2000/svg"><path d="m13.7 1h-11.5c-0.338 0-0.661 0.134-0.9 0.373-0.239 0.239-0.373 0.562-0.373 0.9v11.5c0 0.338 0.134 0.661 0.373 0.9 0.239 0.239 0.562 0.373 0.9 0.373h6.36v-5.73h-1.91v-1.91h1.91v-1.03c0-1.94 0.946-2.79 2.56-2.79 0.772 0 1.18 0.0573 1.37 0.0834v1.83h-1.1c-0.685 0-0.924 0.361-0.924 1.09v0.816h2.01l-0.272 1.91h-1.73v5.73h3.18c0.338 0 0.661-0.134 0.9-0.373s0.373-0.562 0.373-0.9v-11.5c0-0.338-0.134-0.661-0.373-0.9-0.239-0.239-0.562-0.373-0.9-0.373z" fill="#000"/></svg>
