<svg fill="none" viewBox="0 0 16 16" xmlns="http://www.w3.org/2000/svg"><path d="m8.01 0c-4.43 0-8.01 3.67-8.01 8.2 0 3.63 2.29 6.7 5.47 7.78 0.398 0.0817 0.543-0.176 0.543-0.394 0-0.19-0.0131-0.842-0.0131-1.52-2.23 0.489-2.69-0.978-2.69-0.978-0.358-0.951-0.888-1.2-0.888-1.2-0.729-0.502 0.0531-0.502 0.0531-0.502 0.809 0.0544 1.23 0.842 1.23 0.842 0.716 1.25 1.87 0.896 2.33 0.679 0.0662-0.53 0.278-0.896 0.504-1.1-1.78-0.19-3.65-0.896-3.65-4.05 0-0.896 0.318-1.63 0.822-2.2-0.0795-0.204-0.358-1.05 0.0796-2.17 0 0 0.676-0.217 2.2 0.842 0.653-0.18 1.33-0.271 2-0.272 0.676 0 1.37 0.0952 2 0.272 1.52-1.06 2.2-0.842 2.2-0.842 0.438 1.13 0.159 1.97 0.0795 2.17 0.517 0.57 0.822 1.3 0.822 2.2 0 3.15-1.87 3.84-3.66 4.05 0.292 0.258 0.543 0.747 0.543 1.52 0 1.1-0.0131 1.98-0.0131 2.25 0 0.217 0.146 0.476 0.543 0.394 3.18-1.09 5.47-4.16 5.47-7.78 0.0131-4.54-3.58-8.2-7.99-8.2z" clip-rule="evenodd" fill="#000" fill-rule="evenodd"/></svg>
