<svg fill="none" viewBox="0 0 16 16" xmlns="http://www.w3.org/2000/svg"><path d="m3.37 0.501c0.158 0.00828 0.313 0.0524 0.451 0.128l0.133 0.0859 0.00488 0.00391 0.119 0.109c0.104 0.112 0.181 0.246 0.227 0.394h0.00196l1.26 3.77h4.86l1.26-3.77c0.0622-0.198 0.183-0.372 0.345-0.5l0.0078-0.00586c0.169-0.128 0.372-0.203 0.583-0.214 0.211-0.011 0.421 0.0418 0.602 0.151l0.0039 0.00195c0.138 0.0848 0.254 0.2 0.338 0.338l0.0733 0.145 0.0019 0.00585 2.04 5.19 0.0195 0.0488 2e-3 0.00489c0.333 0.85 0.373 1.78 0.115 2.66-0.257 0.871-0.795 1.63-1.53 2.18l9e-4 1e-3 -0.0078 0.0058c-4e-3 0.0032-0.0085 0.0068-0.0127 0.0098l-3.13 2.28-9e-4 -1e-3 -1.54 1.13-0.938 0.689-9.8e-4 -9e-4c-0.196 0.145-0.434 0.223-0.677 0.223-0.243 0-0.482-0.0774-0.679-0.223l-0.936-0.688-1.54-1.13-3.11-2.27-0.00781-0.0059c-0.00609-0.0042-0.0126-0.0082-0.0186-0.0127l-0.00684-0.0058c-0.739-0.545-1.28-1.31-1.54-2.18-0.258-0.876-0.217-1.81 0.117-2.66l0.0195-0.0498 9.77e-4 -0.00292 2.05-5.19 0.00293-0.00684c0.0826-0.2 0.227-0.367 0.409-0.48l0.0039-0.00293c0.181-0.11 0.392-0.162 0.603-0.151zm-0.083 1.01c-0.00507 0.00373-0.00781 0.00743-0.00879 0.00976l-2.04 5.18-0.0195 0.0498-9.7e-4 0.00293c-0.253 0.644-0.284 1.35-0.0889 2.01 0.195 0.661 0.605 1.25 1.17 1.66l0.0186 0.0127 0.0107 0.0078 3.11 2.27 0.00196 0.0019 2.48 1.82c0.0227 0.0167 0.0532 0.0273 0.085 0.0273 0.0318 0 0.0613-0.0105 0.084-0.0273l2.48-1.82 2e-3 -0.0019 3.13-2.28 0.0058-0.0049c0.568-0.418 0.98-1 1.17-1.67 0.195-0.662 0.164-1.37-0.0879-2.01l-0.0195-0.0478-1e-3 -0.0039-2.04-5.18c-0.0012-0.00188-0.0031-0.00434-0.0068-0.00684-0.0084-0.00448-0.0188-0.00741-0.0303-0.00683-0.0105 5.5e-4 -0.0193 0.00445-0.0264 0.00879-0.0044 0.00449-0.0068 0.00846-0.0078 0.0117-0.0018 0.00632-0.0047 0.0123-0.0068 0.0186l-1.38 4.11c-0.0685 0.204-0.26 0.341-0.475 0.341h-5.58c-0.215-7e-5 -0.405-0.137-0.474-0.341l-1.38-4.11c-0.00249-0.00742-0.00471-0.0149-0.00684-0.0225-4.5e-4 -0.00159-0.00249-0.00446-0.00586-0.00781-0.00719-0.00474-0.0162-0.00914-0.0273-0.00977-0.0117-6.1e-4 -0.0228 0.00222-0.0312 0.00684z" fill="#000"/></svg>
