<svg fill="none" viewBox="0 0 16 16" xmlns="http://www.w3.org/2000/svg"><path d="m15.7 6.19-0.0225-0.056-2.18-5.53c-0.0443-0.108-0.123-0.2-0.224-0.263-0.101-0.0613-0.22-0.0908-0.339-0.0846-0.119 0.00624-0.234 0.0479-0.328 0.119-0.0931 0.0736-0.161 0.173-0.193 0.285l-1.47 4.38h-5.95l-1.47-4.38c-0.0319-0.113-0.0995-0.213-0.193-0.286-0.0941-0.0715-0.208-0.113-0.328-0.119-0.119-0.00624-0.237 0.0233-0.339 0.0846-0.101 0.0626-0.18 0.155-0.224 0.263l-2.18 5.53-0.0217 0.056c-0.314 0.797-0.352 1.67-0.11 2.49s0.751 1.54 1.45 2.06l0.0075 0.0056 0.02 0.0138 3.32 2.42 2.64 1.94c0.117 0.0864 0.26 0.133 0.407 0.133s0.29-0.0468 0.407-0.133l2.64-1.94 3.34-2.43 0.0083-0.0065c0.699-0.514 1.21-1.24 1.45-2.06s0.203-1.69-0.109-2.49z" fill="#000"/></svg>
