<svg viewBox="0 0 16 16" xmlns="http://www.w3.org/2000/svg"><path d="m10.9 0c0.144 0.973-0.255 1.92-0.779 2.6-0.562 0.721-1.53 1.28-2.47 1.25-0.171-0.931 0.268-1.89 0.8-2.53 0.585-0.712 1.59-1.26 2.45-1.32z" fill="#000"/><path d="m11.3 4c1.07 0 2.2 0.583 3.01 1.59-2.65 1.45-2.22 5.23 0.458 6.24-0.278 0.664-0.619 1.3-1.02 1.9-0.661 1.01-1.59 2.26-2.75 2.27-0.476 0.0043-0.787-0.138-1.12-0.292-0.39-0.178-0.812-0.371-1.56-0.368-0.744 0.0036-1.17 0.195-1.57 0.371-0.345 0.154-0.663 0.295-1.14 0.291-1.16-0.01-2.04-1.14-2.7-2.15-1.85-2.81-2.04-6.12-0.903-7.87 0.811-1.25 2.09-1.98 3.29-1.98 0.641 0 1.16 0.184 1.65 0.36 0.447 0.159 0.874 0.312 1.36 0.312 0.446 0 0.813-0.139 1.21-0.29 0.481-0.182 1.01-0.382 1.78-0.382z" fill="#000"/></svg>
