<svg viewBox="0 0 16 16" xmlns="http://www.w3.org/2000/svg"><path d="m9.52 2.36c0.48-0.61 0.84-1.48 0.71-2.36h-0.01c-0.77 0.06-1.68 0.55-2.21 1.2-0.48 0.58-0.88 1.45-0.72 2.3 0.84 0.02 1.72-0.48 2.23-1.14z" fill="#000"/><path d="m9.35 4.38c0.488-0.179 1.03-0.377 1.8-0.377h0.01c0.92 0 1.88 0.42 2.65 1.15 0.23 0.22 0.15 0.58-0.1 0.77-1.97 1.51-1.62 4.53 0.49 5.69 0.25 0.14 0.38 0.43 0.26 0.69-0.24 0.5-0.51 0.97-0.82 1.43-0.67 1.01-1.62 2.26-2.79 2.27h-0.02c-0.463 0-0.771-0.136-1.1-0.283l-0.0154-0.0068c-0.39-0.18-0.81-0.37-1.56-0.37h-0.02c-0.75 0-1.19 0.19-1.59 0.37l-0.0145 0.0062c-0.344 0.148-0.662 0.284-1.13 0.284h-0.02c-1.17-0.01-2.07-1.14-2.74-2.15-1.88-2.81-2.08-6.11-0.92-7.87 0.82-1.25 2.12-1.98 3.34-1.98 0.65 0 1.17 0.18 1.67 0.36l0.0035 0.00122c0.459 0.16 0.888 0.309 1.38 0.309 0.438 0 0.8-0.133 1.2-0.278 0.0109-0.00399 0.0218-0.00799 0.0328-0.012l0.00828-0.00304zm3.31 1.13c-0.48-0.33-1.01-0.51-1.51-0.51-0.57 0-0.96 0.144-1.39 0.305-0.0226 0.00839-0.0453 0.0168-0.0682 0.0253-0.025 0.00907-0.05 0.0182-0.0753 0.0275-0.42 0.153-0.882 0.323-1.5 0.323-0.644 0-1.19-0.191-1.68-0.358-0.0117-0.00406-0.0233-0.0081-0.0349-0.0121l-0.00712-0.00247c-0.457-0.159-0.855-0.298-1.33-0.298-0.91 0-1.9 0.6-2.51 1.53-0.88 1.34-0.78 4.23 0.91 6.77 0.49 0.73 1.22 1.7 1.92 1.7 0.256 0 0.404-0.063 0.701-0.189 0.016-0.0068 0.0325-0.0138 0.0494-0.021l0.0145-0.0064c0.429-0.19 1.03-0.454 1.98-0.454 0.961 0 1.54 0.254 1.96 0.443 0.0129 0.0056 0.0255 0.0113 0.0381 0.0168 0.32 0.14 0.46 0.2 0.71 0.2 0.767 0 1.67-1.36 1.98-1.81l0.0039-0.0058c0.2-0.3 0.38-0.6 0.55-0.91-1.12-0.76-1.83-1.99-1.94-3.36-0.1-1.28 0.36-2.51 1.24-3.4z" clip-rule="evenodd" fill="#000" fill-rule="evenodd"/></svg>
