<svg viewBox="0 0 16 16" xmlns="http://www.w3.org/2000/svg"><path d="m8.44 3.52c0.444-0.647 1.12-0.966 2.01-0.966 0.773 0 1.39 0.261 1.86 0.754 0.454 0.493 0.686 1.17 0.686 2.01v4.13h-1.74v-4.01c0-0.841-0.377-1.28-1.14-1.28-0.841 0-1.26 0.512-1.26 1.52v2.19h-1.73v-2.19c0-1-0.415-1.52-1.26-1.52-0.763 0-1.14 0.435-1.14 1.28v4.01h-1.74v-4.13c0-0.841 0.232-1.52 0.686-2.01 0.473-0.502 1.09-0.754 1.86-0.754 0.899 0 1.57 0.319 2.02 0.966l0.435 0.686 0.435-0.686z" fill="#000"/><path d="m15.5 2.72c0.17 0.37 0.36 0.84 0.45 1.43v0.01c0.1 0.59 0 3.52 0 3.52s-0.13 1.68-0.56 2.56c-0.66 1.31-1.92 2.17-3.91 2.41 0.25 0.33 0.19 1.2 0.14 1.61-0.101 0.943-1.13 1.21-1.95 1.41-0.154 0.0392-0.3 0.0765-0.431 0.116-3.24 0.69-7.56-0.21-8.71-3.78-0.41-1.54-0.54-3.89-0.54-5.96s0.13-2.99 1.14-4.17c1.25-1.44 3.12-1.88 6.74-1.88 3.17 0 6.43 0.08 7.63 2.72zm-3.75 8.87c1.53-0.26 2.9-1.1 3.14-3.28 0.13-1.24 0.14-3.4 0-4.21-0.13-0.81-0.48-1.3-0.84-1.72-1.11-1.3-2.94-1.33-5.72-1.37-0.162-0.0024-0.328-0.00485-0.496-0.00761-3.73 0.03-5.72 0.19-6.71 2.99-0.275 1.45-0.174 2.94-0.0741 4.41 0.0274 0.405 0.0547 0.808 0.0741 1.21 0.07 0.73 0.2 1.44 0.38 2.15 0.34 1.3 1.72 2.39 3.06 2.83 1.94 0.59 4.26 0.63 6.06-0.37v-1.06c0-0.01-0.01-0.02-0.01-0.02-1.51 0.33-4.29 0.47-5.19-0.75-0.16-0.23-0.28-0.76-0.16-0.87 2.12 0.47 4.36 0.39 6.49 0.07z" clip-rule="evenodd" fill="#000" fill-rule="evenodd"/></svg>
