<svg fill="none" viewBox="0 0 16 16" xmlns="http://www.w3.org/2000/svg"><path d="m3.56 0.168c-0.307-0.205-0.701-0.224-1.03-0.0496-0.325 0.174-0.528 0.513-0.528 0.882v14c0 0.369 0.203 0.708 0.528 0.882 0.325 0.174 0.72 0.155 1.03-0.0496l10.5-7c0.278-0.185 0.445-0.498 0.445-0.832 0-0.334-0.167-0.647-0.445-0.832l-10.5-7zm4.04 11.3c0.152 0.097 0.155 0.319 0.00445 0.419l-4.21 2.81c-0.166 0.111-0.389-0.0084-0.389-0.208v-5.48c0-0.197 0.218-0.317 0.384-0.211l4.21 2.68zm1.41-0.983c0 0.2 0.223 0.319 0.389 0.208l3.8-2.53c0.148-0.099 0.148-0.317 0-0.416l-3.8-2.53c-0.166-0.111-0.389 0.00834-0.389 0.208v5.07zm-1.4-6.47c0.15 0.1 0.148 0.322-0.00445 0.419l-4.21 2.68c-0.166 0.106-0.384-0.0136-0.384-0.211v-5.48c0-0.2 0.223-0.319 0.389-0.208l4.21 2.81zm0.402 6.07c0 0.197-0.218 0.317-0.384 0.211l-3.35-2.13c-0.154-0.0982-0.154-0.324 0-0.422l3.35-2.13c0.166-0.106 0.384 0.0136 0.384 0.211v4.27z" clip-rule="evenodd" fill="#000" fill-rule="evenodd"/></svg>
