<svg fill="none" viewBox="0 0 16 16" xmlns="http://www.w3.org/2000/svg"><path d="m15.8 2.76c0.292 0.333 0.331 0.818 0.0951 1.19-0.354 0.562-0.783 1.07-1.27 1.5-0.0351 4.36-3.21 9.54-9.17 9.54-1.77 0.0057-3.49-0.529-4.97-1.53-0.383-0.26-0.537-0.749-0.373-1.18 0.164-0.433 0.604-0.696 1.06-0.637 0.183 0.0237 0.367 0.0349 0.552 0.0337h0.00824c0.41 7e-4 0.816-0.0551 1.21-0.164-0.609-0.502-1.06-1.18-1.29-1.94-0.058-0.188-0.0584-0.385-0.00639-0.568-0.0639-0.0714-0.125-0.145-0.184-0.222-0.557-0.721-0.857-1.61-0.858-2.53l-1e-6 -0.00111 1e-6 -0.033c0-0.263 0.103-0.511 0.28-0.694-0.0674-0.182-0.122-0.369-0.164-0.56-0.215-0.988-0.0656-2.03 0.424-2.91 0.164-0.295 0.465-0.487 0.801-0.512 0.336-0.0248 0.662 0.121 0.867 0.389 0.634 0.827 1.42 1.5 2.32 1.98 0.56 0.3 1.15 0.519 1.76 0.654 0.0694-0.636 0.284-1.25 0.631-1.79 0.43-0.667 1.05-1.19 1.77-1.49 0.729-0.304 1.53-0.371 2.3-0.189 0.558 0.132 1.08 0.39 1.52 0.749 0.351-0.115 0.69-0.273 1.01-0.472 0.353-0.221 0.807-0.2 1.14 0.0534s0.47 0.685 0.35 1.08c-0.0068 0.0226-0.0139 0.0452-0.0211 0.0677 0.0753 0.049 0.145 0.109 0.206 0.179zm-2.96 0.197c-0.394-0.443-0.904-0.752-1.47-0.885-0.562-0.133-1.15-0.0848-1.68 0.138-0.535 0.223-0.995 0.611-1.32 1.11-0.268 0.415-0.432 0.893-0.481 1.39-0.0103 0.104-0.0154 0.209-0.0154 0.314-0.00216 0.232 0.0201 0.464 0.0664 0.69-0.347-0.0181-0.692-0.0597-1.03-0.124-0.779-0.147-1.54-0.415-2.24-0.794-0.701-0.376-1.35-0.856-1.91-1.42-0.257-0.258-0.499-0.533-0.723-0.826-0.194 0.349-0.317 0.731-0.368 1.12-0.0461 0.359-0.0313 0.726 0.0469 1.09 0.0373 0.171 0.0885 0.338 0.152 0.498 0.0418 0.105 0.0891 0.207 0.142 0.305 0.129 0.243 0.29 0.467 0.478 0.664 0.0102 0.0108 0.0205 0.0214 0.0309 0.032 3.3e-4 3.4e-4 6.5e-4 6.7e-4 9.8e-4 1e-3 0.0343 0.035 0.0695 0.0691 0.105 0.102 0.0926 0.0854 0.191 0.165 0.294 0.238-0.0916-0.00262-0.183-0.0099-0.273-0.0218-0.337-0.0442-0.664-0.152-0.965-0.318l-1.2e-4 -6e-5c-0.0194-0.0107-0.0388-0.0217-0.058-0.0329v0.033c2.1e-4 0.188 0.0169 0.374 0.0494 0.557 0.0365 0.205 0.093 0.406 0.168 0.599 0.107 0.273 0.251 0.53 0.431 0.763 0.0361 0.0467 0.0735 0.0922 0.112 0.136 0.114 0.131 0.238 0.251 0.371 0.358 0.128 0.103 0.264 0.195 0.406 0.274 4e-3 0.00222 8e-3 0.00444 0.012 0.00664 0.066 0.0363 0.133 0.0699 0.202 0.101 0.087 0.0392 0.176 0.0739 0.267 0.104 0.092 0.0305 0.186 0.0562 0.281 0.0769-0.074 0.0206-0.149 0.0381-0.224 0.0524-0.174 0.0331-0.351 0.0491-0.529 0.0476-0.182 0.00418-0.364-0.0126-0.543-0.05 0.0717 0.232 0.169 0.453 0.289 0.659 0.0736 0.126 0.156 0.246 0.246 0.359 0.00843 0.0106 0.0169 0.0212 0.0255 0.0316 6e-5 1e-4 1.3e-4 2e-4 1.9e-4 3e-4 0.137 0.168 0.292 0.32 0.462 0.454 0.128 0.101 0.263 0.19 0.403 0.266 0.387 0.211 0.816 0.328 1.26 0.339-0.378 0.311-0.788 0.569-1.22 0.771-0.349 0.162-0.712 0.288-1.08 0.375-0.409 0.0952-0.829 0.144-1.25 0.143-0.23 0.0015-0.459-0.0125-0.687-0.042 0.223 0.152 0.452 0.291 0.686 0.418 0.00103 5e-4 0.00207 0.0011 0.00311 0.0017 0.379 0.205 0.771 0.377 1.17 0.516 0.816 0.282 1.67 0.426 2.54 0.423 5.28 0 8.17-4.62 8.17-8.62 0-0.134-0.0042-0.263-0.0104-0.391 0.0608-0.0459 0.121-0.093 0.18-0.141 0.0444-0.0363 0.0881-0.0733 0.131-0.111 0.435-0.378 0.815-0.823 1.13-1.32-0.527 0.243-1.08 0.404-1.65 0.479 0.0414-0.0259 0.082-0.0529 0.122-0.0808 0.322-0.226 0.596-0.517 0.806-0.855 0.0812-0.13 0.153-0.268 0.214-0.411 0.0458-0.106 0.0858-0.216 0.12-0.329-0.495 0.31-1.03 0.539-1.59 0.68-0.077 0.0194-0.154 0.0372-0.232 0.0532z" clip-rule="evenodd" fill="#000" fill-rule="evenodd"/></svg>
