<svg fill="none" viewBox="0 0 16 16" xmlns="http://www.w3.org/2000/svg"><path d="m15.4 3.42c-0.556 0.243-1.14 0.404-1.74 0.479 0.634-0.376 1.11-0.972 1.33-1.67-0.594 0.352-1.24 0.6-1.92 0.733-0.415-0.443-0.954-0.752-1.55-0.885s-1.21-0.0848-1.78 0.138c-0.565 0.223-1.05 0.611-1.39 1.11-0.341 0.502-0.524 1.1-0.524 1.7-0.00228 0.232 0.0212 0.464 0.07 0.69-1.2-0.0595-2.38-0.373-3.46-0.919-1.08-0.546-2.02-1.31-2.78-2.25-0.391 0.666-0.512 1.46-0.339 2.21 0.173 0.753 0.627 1.41 1.27 1.84-0.479-0.013-0.948-0.141-1.37-0.373v0.033c8.2e-4 0.699 0.242 1.38 0.684 1.92s1.06 0.915 1.74 1.06c-0.259 0.0684-0.526 0.102-0.794 0.1-0.192 0.00417-0.384-0.0126-0.573-0.05 0.196 0.601 0.573 1.13 1.08 1.5s1.12 0.589 1.75 0.605c-1.07 0.837-2.39 1.29-3.75 1.29-0.242 0.0015-0.484-0.0125-0.724-0.042 1.38 0.892 3 1.36 4.64 1.36 5.57 0 8.62-4.62 8.62-8.62 0-0.134-0.0045-0.263-0.011-0.391 0.597-0.427 1.11-0.96 1.52-1.57z" fill="#000"/></svg>
