<svg viewBox="0 0 16 16" xmlns="http://www.w3.org/2000/svg"><path d="m11.1 7.59c-0.583 0.374-1.32 0.56-2.22 0.56-0.282 0-0.548-0.0196-0.798-0.0594-0.251-0.0398-0.565-0.114-0.943-0.224-0.211-0.0607-0.385-0.0918-0.521-0.0918-0.115 0-0.235 0.0304-0.363 0.0918-0.127 0.0607-0.231 0.154-0.31 0.279h-0.244v-2.34h0.244c0.194 0.659 0.566 1.16 1.12 1.51 0.552 0.346 1.15 0.519 1.78 0.519 0.492 0 0.885-0.0931 1.18-0.279 0.292-0.186 0.439-0.402 0.439-0.65 0-0.146-0.056-0.288-0.168-0.425-0.112-0.137-0.283-0.268-0.511-0.391-0.229-0.123-0.633-0.284-1.21-0.482-0.814-0.277-1.4-0.513-1.75-0.709-0.356-0.195-0.63-0.413-0.821-0.654-0.0288-0.0364-0.0555-0.0736-0.08-0.111l0.18-0.339 0.00476-0.00863c0.0887-0.161 0.283-0.514 0.626-0.514-0.348 0-0.638 0.164-0.725 0.321l-2.36 4.44h-0.457l-2.38-4.5c-0.13-0.231-0.519-0.267-0.794-0.267v-0.258h3.36v0.258l-0.0364-2.6e-4c-0.223-0.00218-0.994-0.00974-0.826 0.321l1.54 2.8 1.33-2.57c0.182-0.42-0.351-0.55-1-0.55v-0.258h1.41c0.111-0.312 0.348-0.588 0.711-0.829 0.523-0.347 1.18-0.522 1.98-0.522 0.29 0 0.572 0.0243 0.844 0.0729 0.207 0.0364 0.459 0.105 0.755 0.204 0.297 0.0992 0.504 0.148 0.623 0.148 0.119 0 0.204-0.0243 0.27-0.0729 0.0662-0.0486 0.128-0.166 0.185-0.352h0.27v2.07h-0.27c-0.0182-0.0742-0.0406-0.146-0.0667-0.217-0.0837 0.0553-0.158 0.115-0.219 0.177-0.168 0.171-0.308 0.437-0.395 0.72-0.0778-0.0304-0.158-0.0614-0.24-0.0924v-1.31h0.578c-0.155-0.202-0.354-0.38-0.597-0.534-0.499-0.316-1.04-0.474-1.62-0.474-0.449 0-0.804 0.083-1.07 0.249-0.262 0.166-0.393 0.358-0.393 0.574 0 0.137 0.0464 0.259 0.139 0.366 0.127 0.143 0.332 0.285 0.613 0.425 0.207 0.101 0.684 0.279 1.43 0.535 1.05 0.357 1.75 0.694 2.12 1.01 0.36 0.317 0.541 0.68 0.541 1.09 0 0.518-0.291 0.964-0.874 1.34l0.0016 0.00203z" fill="#000"/><path d="m11.6 3.01v0.287c0.0891-0.0182 0.182-0.029 0.277-0.029h0.464v3.78c0 0.25-0.0176 0.405-0.0523 0.464-0.0474 0.0837-0.112 0.142-0.195 0.177-0.114 0.0513-0.264 0.0776-0.451 0.0776h-0.213v0.238h3.37v-0.238h-0.213c-0.183 0-0.328-0.0236-0.434-0.0715-0.106-0.0479-0.177-0.104-0.213-0.167-0.0363-0.0641-0.0544-0.223-0.0544-0.479v-3.78h0.479c0.318 0 0.684 0.137 0.963 0.408 0.279 0.271 0.44 0.696 0.512 0.972h0.171v-1.64l-4.41-6.7e-4z" fill="#000"/><path d="m6.95 15h5.47l2.58-4h-5.47l-0.313 0.485h2.42l-0.784 1.27h-2l-0.313 0.485h2.01l-0.784 1.27h-2.51l-0.313 0.485z" fill="#000"/><path d="m9.8 11.9-0.299 0.485h-1.94l-0.821 1.27h1.98l-0.299 0.485h-1.99l-0.568 0.879h-4.86l2.58-4h4.86l-0.568 0.879h1.92z" fill="#000"/></svg>
