<svg viewBox="0 0 16 16" xmlns="http://www.w3.org/2000/svg"><path d="m6.34 5.45c0.0387-0.0223 0.0864-0.0223 0.125 1.3e-4l4.14 2.4c0.0386 0.0224 0.0623 0.0636 0.0623 0.108s-0.0237 0.0858-0.0623 0.108l-4.14 2.4c-0.0387 0.0224-0.0864 0.0225-0.125 2e-4 -0.0387-0.0224-0.0626-0.0637-0.0626-0.108v-4.8c0-0.0447 0.0238-0.086 0.0626-0.108z" fill="#000"/><path d="m11.3 2.07c1.2 0.0512 2.38 0.14 2.9 0.292 0.339 0.0983 0.648 0.29 0.897 0.556 0.248 0.266 0.428 0.597 0.519 0.96 0.528 2.28 0.406 5.88 0.0102 8.24-0.0917 0.363-0.271 0.694-0.519 0.96-0.248 0.266-0.558 0.458-0.897 0.556-1.17 0.341-5.65 0.361-6.19 0.363l-0.538-0.0025c-0.545-0.0045-1.48-0.0172-2.45-0.0527l-0.31-0.0121-0.296-0.0128c-1.12-0.0524-2.2-0.139-2.69-0.282-0.339-0.0983-0.648-0.29-0.897-0.556-0.248-0.266-0.427-0.597-0.519-0.96-0.532-2.27-0.386-5.87-0.0103-8.23 0.0918-0.363 0.271-0.694 0.519-0.96 0.248-0.266 0.558-0.458 0.897-0.556 1.09-0.317 5.04-0.365 6.02-0.373l0.243-0.0011 0.435 0.00231c0.581 0.00461 1.64 0.0187 2.71 0.0614l0.171 0.00703zm3.07 1.53c0.128 0.137 0.226 0.313 0.278 0.514 0.482 2.09 0.381 5.5 0.0032 7.79-0.0537 0.19-0.149 0.357-0.271 0.489-0.129 0.139-0.284 0.232-0.444 0.278l-2e-3 6e-4c-0.184 0.0536-0.589 0.113-1.19 0.164-0.57 0.0479-1.24 0.0818-1.9 0.106-1.31 0.047-2.55 0.0526-2.82 0.0533l-0.531-0.0025h-0.00171c-0.54-0.0045-1.46-0.017-2.42-0.052h-0.00139l-0.303-0.0118-0.293-0.0127-0.00157-1e-4c-0.553-0.0258-1.08-0.0596-1.53-0.103-0.468-0.0459-0.778-0.0969-0.926-0.14l-0.00213-6e-4c-0.16-0.0465-0.315-0.14-0.444-0.278-0.128-0.137-0.227-0.314-0.279-0.516-0.483-2.07-0.362-5.48-0.00202-7.79 0.0539-0.189 0.149-0.355 0.27-0.485 0.129-0.139 0.284-0.232 0.444-0.278l0.00203-5.9e-4c0.168-0.0491 0.531-0.106 1.07-0.155 0.516-0.0471 1.12-0.0823 1.74-0.108 1.23-0.0518 2.45-0.0656 2.93-0.0692l0.00144-1e-5 0.235-0.00106 0.428 0.00227 0.00129 1e-5c0.577 0.00458 1.62 0.0185 2.67 0.0606l0.169 0.00695c0.591 0.0252 1.17 0.0593 1.65 0.105 0.511 0.0475 0.851 0.102 1.01 0.148l0.0021 5.8e-4c0.16 0.0465 0.315 0.14 0.444 0.278z" clip-rule="evenodd" fill="#000" fill-rule="evenodd"/></svg>
