<svg fill="none" viewBox="0 0 16 16" xmlns="http://www.w3.org/2000/svg"><path d="m7.77 2.36 0.243-0.00102 0.435 0.00215c0.581 0.00431 1.64 0.0174 2.7 0.0573l0.171 0.00657c1.2 0.0478 2.38 0.13 2.9 0.272 0.339 0.0917 0.648 0.271 0.896 0.519 0.248 0.248 0.427 0.557 0.519 0.896 0.528 2.13 0.406 5.48 0.0102 7.69-0.0917 0.339-0.271 0.648-0.519 0.896-0.248 0.248-0.557 0.427-0.896 0.519-1.17 0.318-5.65 0.337-6.18 0.338l-0.537-0.0023c-0.545-0.0042-1.48-0.016-2.45-0.0491l-0.31-0.0113-0.296-0.012c-1.12-0.0489-2.2-0.13-2.69-0.264-0.339-0.0917-0.648-0.271-0.896-0.519-0.248-0.248-0.427-0.557-0.519-0.896-0.531-2.12-0.386-5.48-0.0103-7.68 0.0917-0.339 0.271-0.648 0.519-0.896 0.248-0.248 0.557-0.427 0.896-0.519 1.08-0.296 5.04-0.341 6.02-0.348zm-1.37 3.2v4.8l4.14-2.4-4.14-2.4z" fill="#000"/></svg>
