<svg viewBox="0 0 16 16" xmlns="http://www.w3.org/2000/svg"><path d="m5 9c0.552 0 1 0.448 1 1v1c0 0.552-0.448 1-1 1h-1c-0.552 0-1-0.448-1-1v-1c0-0.552 0.448-1 1-1h1z" fill="#000"/><path d="m1.17 0.122c0.209-0.181 0.524-0.158 0.705 0.0508l1.58 1.83h0.0146l0.866 1h-0.0146l1.73 2h0.0146l1.73 2h-0.0146l5.2 6h0.0147l0.866 1h-0.0147l1.02 1.17c0.181 0.209 0.158 0.524-0.0508 0.705-0.209 0.181-0.524 0.158-0.705-0.0507l-1.58-1.83h-10.5c-1.1 0-2-0.897-2-2v-8c0-1.1 0.897-2 2-2h0.139l-1.02-1.17c-0.181-0.209-0.158-0.524 0.0508-0.705zm-0.173 6.88v5c0 0.55 0.45 1 1 1h9.67l-5.2-6h-5.47zm1-4c-0.55 0-1 0.45-1 1v1h3.74l-1.73-2h-1z" clip-rule="evenodd" fill="#000" fill-rule="evenodd"/><path d="m14 2c1.1 0 2 0.897 2 2v8c0 0.385-0.112 0.743-0.301 1.05l-0.724-0.835c0.0152-0.0691 0.0244-0.14 0.0244-0.214v-5h-4.54l-1.73-2h6.28v-1c0-0.55-0.45-1-1-1h-7.01l-0.866-1h7.88z" fill="#000"/></svg>
