<svg viewBox="0 0 16 16" xmlns="http://www.w3.org/2000/svg"><path d="m11.5 14c2.49 0 4.5-1 4.5-2.5v-9.5c0-1-2-2-4.5-2s-4.5 1-4.5 2v3.5c1.17 0.49 2.17 1.31 2.88 2.35 0.49 0.0961 1.03 0.149 1.62 0.149 1.31 0 2.4-0.261 3.18-0.686 0.112-0.0613 0.22-0.127 0.323-0.198v1.38c0 0.235-0.187 0.6-0.802 0.936-0.596 0.325-1.51 0.564-2.7 0.564-0.238 0-0.465-0.00956-0.68-0.0275 0.0792 0.329 0.133 0.667 0.16 1.01 0.169 0.0093 0.342 0.0141 0.52 0.0141 1.31 0 2.4-0.261 3.18-0.686 0.112-0.0613 0.22-0.127 0.323-0.198v1.38c0 0.236-0.149 0.586-0.791 0.932-0.632 0.34-1.58 0.568-2.71 0.568-0.23 0-0.453-0.0096-0.668-0.0278-0.0777 0.336-0.181 0.661-0.309 0.974 0.314 0.0352 0.641 0.0534 0.976 0.0534zm2.7-7.56c0.615-0.336 0.802-0.701 0.802-0.936v-1.38c-0.103 0.0706-0.211 0.137-0.323 0.198-0.778 0.425-1.87 0.686-3.18 0.686s-2.4-0.261-3.18-0.686c-0.112-0.0613-0.22-0.127-0.323-0.198v1.38c3e-4 0.235 0.187 0.6 0.802 0.935 0.596 0.325 1.51 0.564 2.7 0.564s2.1-0.239 2.7-0.564zm-6.2-3.94c0-0.288 0.125-0.565 0.358-0.734 0.127-0.092 0.265-0.184 0.374-0.234 0.273-0.126 1.64-0.533 2.77-0.533s2.11 0.227 2.77 0.533c0.124 0.0573 0.261 0.146 0.382 0.234 0.231 0.167 0.35 0.442 0.35 0.727v0.0058c0 0.235-0.187 0.6-0.802 0.936-0.596 0.325-1.51 0.564-2.7 0.564s-2.1-0.239-2.7-0.564c-0.615-0.335-0.802-0.701-0.802-0.935z" clip-rule="evenodd" fill="#000" fill-rule="evenodd"/><path d="m9 11.5c0 2.49-2.01 4.5-4.5 4.5s-4.5-2.01-4.5-4.5c0-2.49 2.01-4.5 4.5-4.5s4.5 2.01 4.5 4.5zm-1 0c0 1.93-1.57 3.5-3.5 3.5s-3.5-1.57-3.5-3.5 1.57-3.5 3.5-3.5 3.5 1.57 3.5 3.5z" clip-rule="evenodd" fill="#000" fill-rule="evenodd"/></svg>
