<svg viewBox="0 0 16 16" xmlns="http://www.w3.org/2000/svg"><path d="m11.9 2.77c0.148-0.233 0.0796-0.542-0.153-0.69-0.233-0.148-0.542-0.0796-0.69 0.153l-7 11c-0.148 0.233-0.0796 0.542 0.153 0.69 0.233 0.148 0.542 0.0796 0.69-0.153l7-11z" fill="#000"/><path d="m2.04 3.61c-0.0384 0.193-0.0384 0.426-0.0384 0.89 0 0.465 0 0.697 0.0384 0.89 0.158 0.793 0.778 1.41 1.57 1.57 0.193 0.0384 0.426 0.0384 0.89 0.0384s0.697 0 0.89-0.0384c0.793-0.158 1.41-0.778 1.57-1.57 0.0384-0.193 0.0384-0.426 0.0384-0.89 0-0.465 0-0.697-0.0384-0.89-0.158-0.793-0.778-1.41-1.57-1.57-0.193-0.0384-0.426-0.0384-0.89-0.0384s-0.697 0-0.89 0.0384c-0.793 0.158-1.41 0.778-1.57 1.57zm1.77 2.37c0.0722 0.0144 0.182 0.0192 0.695 0.0192s0.623-0.00484 0.695-0.0192c0.397-0.0789 0.707-0.389 0.786-0.786 0.0144-0.0722 0.0192-0.182 0.0192-0.695 0-0.513-0.00484-0.623-0.0192-0.695-0.0789-0.397-0.389-0.707-0.786-0.786-0.0722-0.0144-0.182-0.0192-0.695-0.0192s-0.623 0.00484-0.695 0.0192c-0.397 0.0789-0.707 0.389-0.786 0.786-0.0144 0.0722-0.0192 0.183-0.0192 0.695 0 0.513 0.00484 0.623 0.0192 0.695 0.0789 0.397 0.389 0.707 0.786 0.786z" clip-rule="evenodd" fill="#000" fill-rule="evenodd"/><path d="m9.04 10.6c-0.0384 0.193-0.0384 0.426-0.0384 0.89 0 0.465 0 0.697 0.0384 0.89 0.158 0.793 0.778 1.41 1.57 1.57 0.193 0.0385 0.426 0.0385 0.89 0.0385s0.697 0 0.89-0.0385c0.793-0.158 1.41-0.778 1.57-1.57 0.0384-0.193 0.0384-0.426 0.0384-0.89 0-0.465 0-0.697-0.0384-0.89-0.158-0.793-0.778-1.41-1.57-1.57-0.193-0.0384-0.426-0.0384-0.89-0.0384s-0.697 0-0.89 0.0384c-0.793 0.158-1.41 0.778-1.57 1.57zm1.77 2.37c0.0723 0.0144 0.182 0.0193 0.695 0.0193s0.623-0.0049 0.695-0.0193c0.397-0.0789 0.707-0.389 0.786-0.786 0.0144-0.0723 0.0192-0.183 0.0192-0.695 0-0.513-0.0048-0.623-0.0192-0.695-0.0789-0.397-0.389-0.707-0.786-0.786-0.0723-0.0144-0.182-0.0192-0.695-0.0192s-0.623 0.0048-0.695 0.0192c-0.397 0.0789-0.707 0.389-0.786 0.786-0.0144 0.0722-0.0192 0.182-0.0192 0.695 0 0.512 0.0048 0.623 0.0192 0.695 0.0789 0.397 0.389 0.707 0.786 0.786z" clip-rule="evenodd" fill="#000" fill-rule="evenodd"/></svg>
