<svg fill="none" viewBox="0 0 16 16" xmlns="http://www.w3.org/2000/svg"><path d="m8 0c1.66 0 3 1.34 3 3v1h3c0.552 0 1 0.448 1 1v5.2c0 0.824 1e-3 1.5-0.0439 2.05-0.046 0.562-0.144 1.08-0.392 1.56-0.384 0.752-0.996 1.36-1.75 1.75-0.485 0.247-1 0.346-1.56 0.392-0.55 0.0449-1.23 0.0439-2.05 0.0439h-2.4c-0.823 0-1.5 1e-3 -2.05-0.0439-0.562-0.046-1.08-0.144-1.56-0.392-0.753-0.384-1.36-0.996-1.75-1.75-0.247-0.485-0.346-1-0.392-1.56-0.045-0.55-0.044-1.23-0.044-2.05v-5.2c0-0.552 0.448-1 1-1h3v-1c0-1.66 1.34-3 3-3zm-6 10.2 0.00488 1.11c0.0153 0.975 0.077 1.57 0.322 2.05 0.288 0.564 0.746 1.02 1.31 1.31 0.642 0.327 1.48 0.327 3.16 0.327h2.4l1.11-0.0049c0.894-0.014 1.47-0.067 1.93-0.265l0.123-0.0576c0.494-0.252 0.907-0.635 1.2-1.1l0.115-0.206c0.245-0.481 0.307-1.07 0.322-2.05l0.0049-1.11v-5.2h-3v1.5c0 0.276-0.224 0.5-0.5 0.5s-0.5-0.224-0.5-0.5v-1.5h-4v1.5c0 0.276-0.224 0.5-0.5 0.5s-0.5-0.224-0.5-0.5v-1.5h-3v5.2zm6-9.2c-1.1 0-2 0.895-2 2v1h4v-1c0-1.1-0.895-2-2-2z" clip-rule="evenodd" fill="#000" fill-rule="evenodd"/></svg>
