<svg fill="none" viewBox="0 0 16 16" xmlns="http://www.w3.org/2000/svg"><path d="m9.7 0c0.831-4.99e-8 1.48 7.78e-5 2.01 0.043 0.531 0.0434 0.974 0.134 1.38 0.339 0.195 0.0994 0.378 0.217 0.55 0.35 0.237 0.183 0.356 0.275 0.366 0.397 0.0079 0.0979-0.05 0.211-0.134 0.262-0.105 0.0642-0.292 0.00995-0.665-0.0986-0.734-0.213-1.49-0.278-2.37-0.287-0.324-0.00539-0.697-0.00488-1.13-0.00488h-4.4c-0.848 0-1.45 2.4e-4 -1.93 0.0391-0.469 0.0383-0.766 0.112-1 0.233-0.47 0.24-0.853 0.622-1.09 1.09-0.122 0.239-0.195 0.536-0.233 1-0.0388 0.475-0.0391 1.08-0.0391 1.93v5.4c0 0.848 2.4e-4 1.45 0.0391 1.93 0.0383 0.469 0.112 0.766 0.233 1 0.24 0.47 0.622 0.853 1.09 1.09 0.239 0.122 0.536 0.195 1 0.233 0.475 0.0389 1.08 0.0391 1.93 0.0391h4.4c0.848 0 1.45-2e-4 1.93-0.0391 0.469-0.0383 0.766-0.112 1-0.233 0.47-0.24 0.853-0.622 1.09-1.09 0.086-0.169 0.147-0.367 0.19-0.635h-3.42c-0.828 0-1.5-0.672-1.5-1.5v-5c0-0.828 0.672-1.5 1.5-1.5h3.42c-0.0425-0.268-0.104-0.466-0.19-0.635-0.24-0.47-0.622-0.853-1.09-1.09-0.239-0.122-0.536-0.195-1-0.233-0.475-0.0388-1.08-0.0391-1.93-0.0391h-5.2c-0.276 0-0.5-0.224-0.5-0.5s0.224-0.5 0.5-0.5h5.2c0.832 0 1.49 6e-5 2.01 0.043 0.531 0.0434 0.975 0.133 1.38 0.339 0.318 0.162 0.606 0.372 0.858 0.618h0.0527c1.1 0 2 0.895 2 2v6.5c0 0.678-0.45 1.25-1.07 1.44-0.0499 0.434-0.138 0.808-0.313 1.15-0.336 0.658-0.871 1.19-1.53 1.53-0.403 0.205-0.847 0.295-1.38 0.339-0.525 0.0429-1.18 0.043-2.01 0.043h-4.4c-0.832 0-1.49-1e-4 -2.01-0.043-0.531-0.0434-0.975-0.133-1.38-0.339-0.659-0.336-1.19-0.871-1.53-1.53-0.205-0.403-0.295-0.847-0.339-1.38-0.0429-0.525-0.043-1.18-0.043-2.01v-5.4c-6.05e-8 -0.832 6.13e-5 -1.49 0.043-2.01 0.0434-0.531 0.133-0.975 0.339-1.38 0.336-0.659 0.871-1.19 1.53-1.53 0.403-0.205 0.847-0.295 1.38-0.339 0.525-0.0429 1.18-0.043 2.01-0.043h4.4zm2.3 8c-0.552 0-1 0.448-1 1s0.448 1 1 1 1-0.448 1-1-0.448-1-1-1z" clip-rule="evenodd" fill="#000" fill-rule="evenodd"/></svg>
