<svg fill="none" viewBox="0 0 16 16" xmlns="http://www.w3.org/2000/svg"><path d="m13.5 1.15c0.734 0.926 0.892 2.16 0.408 3.12-0.283 0.56-0.498 0.815-1.18 1.19-0.0314 0.0154-0.0314 0.0154-0.0614 0.0302-0.0417 0.0205-0.0792 0.0392-0.113 0.0564l-0.0823 0.0416 0.0072 0.0745c0.0077 0.0772 0.019 0.165 0.0337 0.263l0.0248 0.154c0.0825 0.485 0.0694 1.1 0.296 2 0.0339 0.136 0.0339 0.136 0.0681 0.271 0.0682 0.27 0.0682 0.27 0.136 0.537 0.0544 0.215 0.0935 0.371 0.131 0.52 0.0958 0.386 0.167 0.684 0.223 0.941 0.0682 0.313 0.113 0.56 0.134 0.757 0.0575 0.532 0.0406 0.755-0.365 1.1-0.0618 0.0505-0.0618 0.0505-0.121 0.0938-0.217 0.155-1.02 0.542-1.13 0.603-0.214 0.125-0.365 0.247-0.469 0.381-0.0536 0.0693-0.104 0.146-0.151 0.228-0.131 0.23-0.307 0.482-0.307 0.838v0.645c0 0.552-0.328 1-1 1h-4c-0.672 0-1-0.448-1-1l-2e-4 -0.149-0.749-0.455c-0.0673-0.0445-0.143-0.1-0.223-0.169l-0.122-0.113c-0.19-0.189-0.335-0.396-0.407-0.651-0.0134-0.0474-0.0235-0.0939-0.0305-0.14l-0.00469-0.0374-0.908-0.232c-0.492-0.128-0.72-0.382-0.859-0.687-0.0538-0.118-0.0792-0.218-0.0802-0.243-0.0114-0.0509-0.0114-0.0509-0.025-0.142-0.0423-0.333-0.00704-0.732 0.154-1.17 0.0664-0.182 0.148-0.351 0.242-0.509 0.177-0.296 0.37-0.51 0.476-0.595 0.0544-0.0521 0.121-0.108 0.21-0.168l0.0259-0.0163-0.0103-0.0234c-0.0252-0.0653-0.0403-0.119-0.0462-0.149l-0.00281-0.0209c-0.0114-0.0509-0.0114-0.0509-0.025-0.142-0.0423-0.333-0.00703-0.732 0.154-1.17 0.0664-0.182 0.148-0.351 0.242-0.509 0.177-0.296 0.37-0.51 0.475-0.595 0.0543-0.052 0.121-0.108 0.21-0.168l0.0254-0.0161-0.00888-0.0219c-0.0252-0.0648-0.0406-0.119-0.047-0.15l-0.00343-0.0229c-0.0114-0.0509-0.0114-0.0509-0.025-0.142-0.0423-0.333-0.00704-0.732 0.154-1.17 0.0665-0.182 0.148-0.352 0.242-0.509 0.177-0.296 0.37-0.51 0.479-0.597 0.0543-0.0516 0.121-0.107 0.21-0.167l0.0217-0.0145-0.0101-0.0262c-0.0249-0.065-0.0398-0.119-0.0455-0.148l-0.00264-0.0202c-0.0114-0.0509-0.0114-0.0509-0.025-0.142-0.0423-0.333-0.00704-0.732 0.154-1.17 0.0665-0.182 0.148-0.352 0.242-0.509 0.177-0.296 0.37-0.51 0.475-0.593 0.0543-0.052 0.121-0.108 0.21-0.168 0.138-0.0931 0.289-0.169 0.488-0.221 0.239-0.0627 0.504-0.0748 0.787-0.00406l0.997 0.254 0.0777-0.0819c0.252-0.253 0.574-0.49 0.959-0.691l0.238-0.116c1.34-0.608 3.36-0.23 4.22 0.862zm-1.02 0.547c-0.532-0.67-1.86-0.876-2.62-0.534-0.754 0.343-1.08 0.796-1.16 1.02l-3.88 10.4s-0.206 0.431-0.149 0.631c0.0564 0.2 0.329 0.38 0.329 0.38l0.791 0.567s0.196 0.172 0.196 0.298v0.518h4v-0.645l0.0053-0.0393c0.0264-0.178-0.0627-0.932 0.426-1.56 0.558-0.721 1.55-0.968 1.87-1.24 0.319-0.269-1.46-5.94-0.953-6.43 0.502-0.49 1.13-0.572 1.45-1.2 0.317-0.627 0.228-1.52-0.304-2.19zm-8.91 8.57c-0.0841-0.0219-0.199 0.0883-0.199 0.0883s-0.295 0.245-0.476 0.74c-0.181 0.495-0.1 0.836-0.1 0.836s0.0224 0.145 0.106 0.167l1.06 0.27c0.0201 5e-3 0.0413 0.0066 0.0622 0.0049 0.0209-0.0018 0.0412-0.0069 0.0597-0.0151 0.0185-0.0082 0.0348-0.0194 0.0481-0.0328 0.0132-0.0134 0.0231-0.0288 0.0291-0.0454l0.45-0.746 0.126-0.829c0.0121-0.0337 0.00777-0.07-0.0121-0.101s-0.0537-0.0548-0.0944-0.0659l-1.06-0.27zm1.02-2.8c-0.0841-0.021-0.199 0.0892-0.199 0.0892s-0.295 0.245-0.476 0.74c-0.181 0.495-0.1 0.836-0.1 0.836s0.0213 0.145 0.105 0.167l1.06 0.269c0.0201 0.00497 0.0413 0.00663 0.0622 0.00488 0.0209-0.00175 0.0412-0.00688 0.0597-0.0151 0.0185-0.00821 0.0348-0.0193 0.0481-0.0328 0.0132-0.0134 0.0232-0.0288 0.0291-0.0454l0.45-0.746 0.126-0.829c0.0121-0.0338 0.00778-0.0701-0.0121-0.101-0.0199-0.0312-0.0537-0.0548-0.0944-0.0659l-1.06-0.27zm1.02-2.8c-0.0841-0.021-0.2 0.0892-0.2 0.0892s-0.295 0.244-0.476 0.739c-0.181 0.495-0.1 0.836-0.1 0.836s0.0224 0.146 0.106 0.167l1.06 0.27c0.0201 0.00497 0.0413 0.00663 0.0622 0.00488 0.0209-0.00175 0.0412-0.00688 0.0597-0.0151 0.0185-0.00821 0.0348-0.0194 0.0481-0.0328s0.0232-0.0288 0.0291-0.0454l0.45-0.746 0.127-0.829c0.0121-0.0338 0.00778-0.0701-0.0121-0.101-0.0199-0.0312-0.0537-0.0548-0.0944-0.0659l-1.06-0.27zm1.02-2.8c-0.0841-0.021-0.199 0.0892-0.199 0.0892s-0.295 0.244-0.476 0.739c-0.165 0.45-0.113 0.772-0.1 0.836 0 0 0.0213 0.146 0.105 0.167l1.06 0.27c0.0202 0.00511 0.0414 0.00687 0.0625 0.00519 0.021-0.00169 0.0415-0.00679 0.0601-0.015s0.0351-0.0194 0.0484-0.0329c0.0133-0.0135 0.0232-0.029 0.0292-0.0457l0.45-0.746 0.126-0.829c0.0121-0.0338 0.00778-0.0701-0.0121-0.101s-0.0537-0.0548-0.0944-0.0658l-1.06-0.27z" fill="#000"/></svg>
