<svg viewBox="0 0 16 16" xmlns="http://www.w3.org/2000/svg"><path d="m12.5 1.82c1.01 0.575 1.28 1.34 1.32 1.88 0.05 0.575-0.138 1.08-0.3 1.45-0.275 0.575-0.988 1.08-1.72 1.24 0.125 0.162 0.2 0.362 0.212 0.575 0.0125 0.388-0.2 0.75-0.55 0.925 0 0-0.725 0.425-0.725 1.61 0 1.38 0.927 2.69 1.06 2.88 0.0093 0.0132 0.0155 0.0224 0.0155 0.0224 0.212 0.275 0.262 0.65 0.138 0.975-0.138 0.325-0.412 0.55-0.762 0.612-0.0875 0.0125-1.18 0.25-1.18 1.01v0.5c0 0.275-0.225 0.5-0.5 0.5s-0.5-0.225-0.5-0.5v-0.5c0-1.65 2-2 2-2s-1.26-1.66-1.26-3.51 1.28-2.5 1.28-2.5-1.22-0.525-1.5-1.5c-0.275-0.975 0.275-1.64 0.6-1.82 0.275-0.162 0.588-0.175 0.675-0.175h0.025s-1.04 0.512-0.375 1.48c0.238 0.338 0.55 0.462 0.862 0.462 0.575 0 1.16-0.412 1.3-0.712 0.212-0.45 0.562-1.36-0.6-2.01-0.556-0.311-1.18-0.356-1.75-0.397-0.626-0.0454-1.2-0.0869-1.58-0.465l-0.675-0.838s-2.25 3.71-2.8 3.81c-0.1 0.025-0.2 0.0375-0.288 0.0375-0.375 0-0.625-0.225-0.562-0.675 0.075-0.55 0.85-0.7 0.85-0.7s-0.438-0.2-0.912-0.2c-0.375 0-0.788 0.125-1.01 0.588-0.512 1.05 0.238 2.01 1.06 2.52s1.91 1.46 1.91 3.09-1.28 3.5-1.28 3.5 2 0.35 2 2v0.5c0 0.275-0.225 0.5-0.5 0.5s-0.5-0.225-0.5-0.5v-0.5c0-0.762-1.09-1-1.18-1.01-0.338-0.05-0.612-0.275-0.75-0.588s-0.0875-0.662 0.1-0.95c0.312-0.45 1.1-1.86 1.1-2.94 0-0.9-0.462-1.62-1.44-2.22-1.51-0.938-2.09-2.46-1.42-3.81 0.362-0.725 1.06-1.15 1.91-1.15 0.662 0 1.22 0.25 1.34 0.3 0.0375 0.0125 0.0625 0.025 0.1 0.05 0.45-0.65 0.95-1.42 1.39-2.15 0.162-0.25 0.425-0.438 0.725-0.488 0.05-0.0125 0.1-0.0125 0.15-0.0125 0.3 0 0.588 0.138 0.775 0.375l0.625 0.775c0.13 0.0947 0.519 0.122 0.857 0.146 0.0188 0.00133 0.0375 0.00264 0.0559 0.00396 0.0191 0.0015 0.0384 3e-3 0.0578 0.00451 0.627 0.0488 1.39 0.108 2.12 0.52z" fill="#000"/><path d="m2 6.28c0 0.243-0.174 0.451-0.414 0.492l-1.28 0.224c-0.0142 0.00249-0.0289 0.00444-0.0431 0.0016-0.359-0.0719-0.359-1.92 0-2 0.0142-0.00284 0.0289-9e-4 0.0431 0.0016l1.28 0.224c0.239 0.0419 0.414 0.25 0.414 0.492v0.56z" fill="#000"/><path d="m2.34 8.61c0 0.243-0.175 0.451-0.414 0.492l-1.28 0.224c-0.0142 0.00249-0.0289 0.00444-0.0431 0.0016-0.359-0.0719-0.359-1.92 0-2 0.0142-0.00285 0.0289-9e-4 0.0431 0.0016l1.28 0.224c0.239 0.0419 0.414 0.25 0.414 0.492v0.56z" fill="#000"/><path d="m2.26 11.4c0.239-0.0419 0.414-0.25 0.414-0.492v-0.56c0-0.243-0.175-0.451-0.414-0.493l-1.28-0.224c-0.0142-0.0025-0.0289-0.00445-0.0431-0.0016-0.359 0.0719-0.359 1.92 0 2 0.0142 0.0028 0.0289 9e-4 0.0431-0.0016l1.28-0.224z" fill="#000"/><path d="m3 13.3c0 0.243-0.174 0.451-0.414 0.492l-1.28 0.224c-0.0142 0.0025-0.029 0.0045-0.0431 0.0016-0.359-0.0719-0.359-1.92 0-2 0.0142-0.0028 0.0289-9e-4 0.0431 0.0016l1.28 0.224c0.239 0.0419 0.414 0.25 0.414 0.492v0.56z" fill="#000"/><path d="m14.4 6.77c-0.239-0.0419-0.414-0.25-0.414-0.492v-0.56c0-0.243 0.174-0.451 0.414-0.492l1.28-0.224c0.0142-0.0025 0.0289-0.00444 0.0431-0.0016 0.358 0.0719 0.358 1.92 0 2-0.0142 0.00284-0.0289 8.9e-4 -0.0431-0.0016l-1.28-0.224z" fill="#000"/><path d="m13.7 8.61c0 0.243 0.174 0.451 0.414 0.492l1.28 0.224c0.0143 0.00249 0.029 0.00444 0.0432 0.0016 0.358-0.0719 0.358-1.92 0-2-0.0142-0.00285-0.0289-9e-4 -0.0432 0.0016l-1.28 0.224c-0.239 0.0419-0.414 0.25-0.414 0.492v0.56z" fill="#000"/><path d="m13.7 11.4c-0.239-0.0419-0.414-0.25-0.414-0.492v-0.56c0-0.243 0.174-0.451 0.414-0.493l1.28-0.224c0.0142-0.0025 0.0289-0.00445 0.0431-0.0016 0.358 0.0719 0.358 1.92 0 2-0.0142 0.0028-0.0289 9e-4 -0.0431-0.0016l-1.28-0.224z" fill="#000"/><path d="m13 13.3c0 0.243 0.174 0.451 0.414 0.492l1.28 0.224c0.0142 0.0025 0.0289 0.0045 0.0431 0.0016 0.358-0.0719 0.358-1.92 0-2-0.0142-0.0028-0.0289-9e-4 -0.0431 0.0016l-1.28 0.224c-0.239 0.0419-0.414 0.25-0.414 0.492v0.56z" fill="#000"/></svg>
