<svg fill="none" viewBox="0 0 16 16" xmlns="http://www.w3.org/2000/svg"><path d="m1.5 0c-0.828 0-1.5 0.672-1.5 1.5v9c0 0.828 0.672 1.5 1.5 1.5h4c0.828 0 1.5-0.672 1.5-1.5v-1.5h2v4.6c0 0.84 0 1.26 0.163 1.58 0.144 0.282 0.373 0.512 0.656 0.656 0.321 0.164 0.741 0.164 1.58 0.164h2.2c0.84 0 1.26 0 1.58-0.164 0.282-0.144 0.512-0.373 0.656-0.656 0.164-0.321 0.164-0.741 0.164-1.58v-7.2c0-0.84 0-1.26-0.164-1.58-0.144-0.282-0.373-0.512-0.656-0.656-0.321-0.163-0.741-0.163-1.58-0.163h-2.2c-0.84 0-1.26 0-1.58 0.163-0.282 0.144-0.512 0.373-0.656 0.656-0.163 0.321-0.163 0.741-0.163 1.58v1.6h-2v-6.5c0-0.828-0.672-1.5-1.5-1.5h-4zm0.5 3c0.552 0 1-0.448 1-1s-0.448-1-1-1-1 0.448-1 1 0.448 1 1 1zm4-1c0 0.552-0.448 1-1 1s-1-0.448-1-1 0.448-1 1-1 1 0.448 1 1zm-4.5 5c-0.276 0-0.5 0.224-0.5 0.5v2c0 0.276 0.224 0.5 0.5 0.5h4c0.276 0 0.5-0.224 0.5-0.5v-2c0-0.276-0.224-0.5-0.5-0.5h-4zm9.5 0c0.552 0 1-0.448 1-1s-0.448-1-1-1-1 0.448-1 1 0.448 1 1 1zm4-1c0 0.552-0.448 1-1 1s-1-0.448-1-1 0.448-1 1-1 1 0.448 1 1zm-4.5 5c-0.276 0-0.5 0.224-0.5 0.5v2c0 0.276 0.224 0.5 0.5 0.5h4c0.276 0 0.5-0.224 0.5-0.5v-2c0-0.276-0.224-0.5-0.5-0.5h-4z" clip-rule="evenodd" fill="#000" fill-rule="evenodd"/></svg>
