<svg viewBox="0 0 16 16" xmlns="http://www.w3.org/2000/svg"><path d="m3.22 1.09c-0.218 0.428-0.218 0.988-0.218 2.11v2.3c0.418-0.314 0.937-0.5 1.5-0.5h7c0.563 0 1.08 0.186 1.5 0.5v-2.3c0-1.12 0-1.68-0.218-2.11-0.192-0.376-0.498-0.682-0.874-0.874-0.428-0.218-0.988-0.218-2.11-0.218h-3.6c-1.12 0-1.68 0-2.11 0.218-0.376 0.192-0.682 0.498-0.874 0.874zm2.78 0.908c0 0.552-0.448 1-1 1s-1-0.448-1-1 0.448-1 1-1 1 0.448 1 1zm2 2c0.552 0 1-0.448 1-1s-0.448-1-1-1-1 0.448-1 1 0.448 1 1 1zm4-2c0 0.552-0.448 1-1 1s-1-0.448-1-1 0.448-1 1-1 1 0.448 1 1z" clip-rule="evenodd" fill="#000" fill-rule="evenodd"/><path d="m13 12.8v-5.3c0-0.828-0.672-1.5-1.5-1.5h-7c-0.828 0-1.5 0.672-1.5 1.5v5.3c0 1.12 0 1.68 0.218 2.11 0.192 0.376 0.498 0.682 0.874 0.874 0.428 0.218 0.988 0.218 2.11 0.218h3.6c1.12 0 1.68 0 2.11-0.218 0.376-0.192 0.682-0.498 0.874-0.874 0.218-0.428 0.218-0.988 0.218-2.11zm-8.89-4.25c-0.109 0.214-0.109 0.494-0.109 1.05v1.8c0 0.56 0 0.84 0.109 1.05 0.0959 0.188 0.249 0.341 0.437 0.437 0.214 0.109 0.494 0.109 1.05 0.109h4.8c0.56 0 0.84 0 1.05-0.109 0.188-0.0959 0.341-0.249 0.437-0.437 0.109-0.214 0.109-0.494 0.109-1.05v-1.8c0-0.56 0-0.84-0.109-1.05-0.0959-0.188-0.249-0.341-0.437-0.437-0.214-0.109-0.494-0.109-1.05-0.109h-4.8c-0.56 0-0.84 0-1.05 0.109-0.188 0.0959-0.341 0.249-0.437 0.437z" clip-rule="evenodd" fill="#000" fill-rule="evenodd"/></svg>
