<svg fill="none" viewBox="0 0 16 16" xmlns="http://www.w3.org/2000/svg"><path d="m16 0.5c0-0.276-0.224-0.5-0.5-0.5s-0.5 0.224-0.5 0.5v0.106c0 0.521-0.119 1.07-0.537 1.38-0.524 0.389-1.55 0.866-3.48 1.02h-5.48c-3.04 0-5.5 2.46-5.5 5.5v0.5c0 2.76 2.24 5 5 5h4c1.38 0 2.5-1.12 2.5-2.5v-0.293c0-0.585-0.232-1.15-0.646-1.56-0.195-0.195-0.512-0.195-0.707 1e-5 -0.195 0.195-0.195 0.512 1e-4 0.707 0.226 0.226 0.354 0.533 0.354 0.854v0.293c0 0.828-0.672 1.5-1.5 1.5h-1.5c-0.00986 0-0.0196 3e-4 -0.0294 8e-4 -0.757-0.0164-1.52-0.176-2.02-0.739-0.456-0.507-0.86-1.18-0.86-1.76 0-0.848 0.408-1.34 1.41-1.47v2.47c0 0.276 0.224 0.5 0.5 0.5s0.5-0.224 0.5-0.5v-2.5h1v2.5c0 0.276 0.224 0.5 0.5 0.5s0.5-0.224 0.5-0.5v-2.5h2c1.65 0 2.67 0.468 3.27 0.904 0.0482 0.035 0.0952 0.072 0.14 0.11 0.429 0.359 0.591 0.926 0.591 1.49 0 0.276 0.224 0.5 0.5 0.5s0.5-0.224 0.5-0.5v-11zm-1 8.7v-6.38c-0.724 0.517-1.94 1.01-3.96 1.17-0.0127 9.8e-4 -0.0255 0.00147-0.0383 0.00147h-5.5c-2.49 0-4.5 2.01-4.5 4.5v0.5c0 2.2 2.21 4 3.8 4-0.417-0.375-1.3-1.2-1.3-2.5 0-1.5 0.767-2.5 2.87-2.5h4.63c1.85 0 3.08 0.532 3.86 1.1 0.0498 0.0362 0.0975 0.0724 0.143 0.109z" clip-rule="evenodd" fill="#000" fill-rule="evenodd"/></svg>
