<svg xmlns="http://www.w3.org/2000/svg" viewBox="0 0 16 16" fill="none">
  <path fill="#fff" d="M5 .5a.5.5 0 0 1 .5-.5h5a.5.5 0 0 1 0 1h-5A.5.5 0 0 1 5 .5Z" />
  <path fill="#fff"
    d="M3 0H2v3.8c0 1.12 0 1.68.218 2.108a2 2 0 0 0 .874.874C3.52 7 4.08 7 5.2 7h5.6c1.12 0 1.68 0 2.108-.218a2 2 0 0 0 .874-.874C14 5.48 14 4.92 14 3.8V0h-1v3.8c0 .577 0 .95-.024 1.232-.022.272-.06.373-.085.422a1 1 0 0 1-.437.437c-.05.025-.15.063-.422.085C11.75 6 11.377 6 10.8 6H5.2c-.577 0-.949 0-1.232-.024-.272-.022-.373-.06-.422-.085a1 1 0 0 1-.437-.437c-.025-.05-.063-.15-.085-.422C3 4.75 3 4.377 3 3.8V0ZM14 16v-3.8c0-1.12 0-1.68-.218-2.108a2 2 0 0 0-.874-.874C12.48 9 11.92 9 10.8 9H5.2c-1.12 0-1.68 0-2.108.218a2 2 0 0 0-.874.874C2 10.52 2 11.08 2 12.2V16h1v-3.8c0-.576 0-.949.024-1.232.022-.272.06-.372.085-.422a1 1 0 0 1 .437-.437c.05-.025.15-.063.422-.085C4.25 10.001 4.623 10 5.2 10h5.6c.577 0 .949.001 1.232.024.272.022.373.06.422.085a1 1 0 0 1 .437.437c.025.05.063.15.085.422.023.283.024.656.024 1.232V16h1Z" />
  <path fill="#fff"
    d="M5 12.5a.5.5 0 0 1 .5-.5h5a.5.5 0 0 1 0 1h-5a.5.5 0 0 1-.5-.5ZM5.5 15a.5.5 0 0 0 0 1h5a.5.5 0 0 0 0-1h-5ZM5.5 3a.5.5 0 0 0 0 1h3a.5.5 0 0 0 0-1h-3Z" />
</svg>