<svg xmlns="http://www.w3.org/2000/svg" viewBox="0 0 16 16" fill="none">
  <path fill="#fff"
    d="M9 4.5a.5.5 0 0 0-1 0v4.793L5.854 7.147a.5.5 0 1 0-.708.707l3 3a.499.499 0 0 0 .351.146h.006a.498.498 0 0 0 .35-.146l3-3a.5.5 0 0 0-.707-.707L9 9.293V4.5Z" />
  <path fill="#fff" fill-rule="evenodd"
    d="M0 5.8c0-1.68 0-2.52.327-3.162a3 3 0 0 1 1.311-1.31C2.28 1 3.12 1 4.8 1h6.4c1.68 0 2.52 0 3.162.327a3 3 0 0 1 1.311 1.311C16 3.28 16 4.12 16 5.8v3.4c0 1.68 0 2.52-.327 3.162a3 3 0 0 1-1.311 1.311C13.72 14 12.88 14 11.2 14H4.8c-1.68 0-2.52 0-3.162-.327a3 3 0 0 1-1.311-1.31C0 11.72 0 10.88 0 9.2V5.8ZM4.8 2h6.4c.857 0 1.439.001 1.889.038.438.036.663.1.819.18a2 2 0 0 1 .874.874c.08.157.145.38.18.82C15 4.361 15 4.943 15 5.8v3.4c0 .857 0 1.44-.038 1.89-.035.438-.1.662-.18.818a2 2 0 0 1-.874.874c-.156.08-.38.145-.819.18-.45.037-1.032.038-1.889.038H4.8c-.857 0-1.439 0-1.889-.037-.438-.036-.663-.101-.819-.18a2 2 0 0 1-.874-.875c-.08-.156-.145-.38-.18-.819C1 10.64 1 10.057 1 9.2V5.8c0-.856 0-1.439.038-1.889.035-.438.1-.662.18-.819a2 2 0 0 1 .874-.874c.156-.08.38-.144.819-.18C3.361 2 3.943 2 4.8 2Z"
    clip-rule="evenodd" />
</svg>