<svg xmlns="http://www.w3.org/2000/svg" viewBox="0 0 16 16" fill="none">
  <path fill="#fff" fill-rule="evenodd"
    d="M1 2.4c0-.84 0-1.26.163-1.58A1.5 1.5 0 0 1 1.82.163C2.139 0 2.559 0 3.4 0h1.2c.84 0 1.26 0 1.581.164a1.5 1.5 0 0 1 .656.655C7 1.14 7 1.56 7 2.4v2.2c0 .84 0 1.26-.163 1.581a1.5 1.5 0 0 1-.656.656C5.861 7 5.441 7 4.6 7H3.4c-.84 0-1.26 0-1.581-.163a1.5 1.5 0 0 1-.656-.656C1 5.861 1 5.441 1 4.601V2.4ZM3.4 1h1.2c.437 0 .704.001.904.017a1.281 1.281 0 0 1 .215.035l.008.003a.5.5 0 0 1 .222.226 1.282 1.282 0 0 1 .034.215c.016.2.017.468.017.904v2.2c0 .437 0 .704-.017.904a1.281 1.281 0 0 1-.034.215.086.086 0 0 1-.003.007v.001a.5.5 0 0 1-.219.219h-.001A12.587 12.587 0 0 1 4.6 6H3.4c-.437 0-.704 0-.904-.017a1.281 1.281 0 0 1-.215-.034l-.008-.003a.5.5 0 0 1-.222-.227 1.281 1.281 0 0 1-.034-.215C2.001 5.304 2 5.037 2 4.6V2.4c0-.436 0-.704.017-.904a1.282 1.282 0 0 1 .034-.215.5.5 0 0 1 .222-.226l.008-.003a1.281 1.281 0 0 1 .215-.034C2.696 1 2.963 1 3.4 1ZM1 11.4c0-.84 0-1.26.163-1.58a1.5 1.5 0 0 1 .656-.656C2.139 9 2.559 9 3.4 9h1.2c.84 0 1.26 0 1.581.164a1.5 1.5 0 0 1 .656.655C7 10.14 7 10.56 7 11.4v2.2c0 .84 0 1.26-.163 1.581a1.5 1.5 0 0 1-.656.656C5.861 16 5.441 16 4.6 16H3.4c-.84 0-1.26 0-1.581-.163a1.5 1.5 0 0 1-.656-.656C1 14.861 1 14.441 1 13.601v-2.2ZM3.4 10h1.2c.437 0 .704.001.904.017a1.275 1.275 0 0 1 .215.035.097.097 0 0 1 .007.002h.001a.5.5 0 0 1 .218.22l.004.007a1.283 1.283 0 0 1 .034.215c.016.2.017.468.017.904v2.2c0 .437 0 .704-.017.904a1.279 1.279 0 0 1-.034.216.08.08 0 0 1-.003.006v.001a.5.5 0 0 1-.219.219h-.002l-.006.003a1.275 1.275 0 0 1-.215.034C5.304 15 5.037 15 4.6 15H3.4c-.437 0-.704 0-.904-.017a1.275 1.275 0 0 1-.215-.034.5.5 0 0 1-.226-.222l-.001-.002-.003-.005a1.279 1.279 0 0 1-.034-.216c-.016-.2-.017-.467-.017-.904v-2.2c0-.436 0-.704.017-.904a1.283 1.283 0 0 1 .034-.215l.003-.008a.5.5 0 0 1 .219-.218l.003-.002A12.536 12.536 0 0 1 3.4 10ZM9.163.82C9 1.14 9 1.56 9 2.4v2.2c0 .84 0 1.26.163 1.581a1.5 1.5 0 0 0 .656.656c.32.163.74.163 1.581.163h1.2c.84 0 1.26 0 1.581-.163a1.5 1.5 0 0 0 .655-.656c.164-.32.164-.74.164-1.58V2.4c0-.84 0-1.26-.164-1.582a1.5 1.5 0 0 0-.655-.655C13.861 0 13.441 0 12.6 0h-1.2c-.84 0-1.26 0-1.581.164a1.5 1.5 0 0 0-.656.655ZM12.6 1h-1.2c-.437 0-.704.001-.904.017a1.281 1.281 0 0 0-.215.035l-.008.003a.5.5 0 0 0-.218.218l-.004.008a1.29 1.29 0 0 0-.034.215c-.016.2-.017.468-.017.904v2.2c0 .437 0 .704.017.904a1.29 1.29 0 0 0 .034.215.057.057 0 0 0 .003.007v.001a.5.5 0 0 0 .219.219l.008.003a1.281 1.281 0 0 0 .215.034c.2.016.468.017.904.017h1.2c.437 0 .704 0 .904-.017a1.281 1.281 0 0 0 .215-.034.093.093 0 0 0 .006-.002l.002-.001a.5.5 0 0 0 .218-.219l.004-.008a1.29 1.29 0 0 0 .034-.215c.016-.2.017-.467.017-.904V2.4c0-.436 0-.704-.017-.904a1.29 1.29 0 0 0-.034-.215l-.004-.008a.5.5 0 0 0-.218-.218l-.008-.003a1.281 1.281 0 0 0-.215-.034C13.304 1 13.036 1 12.6 1Z"
    clip-rule="evenodd" />
  <path fill="#fff"
    d="M16 8.5a.5.5 0 0 0-1 0v1.8c0 .568 0 .965-.026 1.273-.024.303-.07.477-.138.608a1.5 1.5 0 0 1-.655.656c-.132.067-.305.113-.608.138-.309.025-.705.025-1.273.025h-1.593l1.147-1.146a.5.5 0 0 0-.708-.707l-2 2a.498.498 0 0 0-.146.35v.006a.498.498 0 0 0 .146.35l2 2a.5.5 0 0 0 .708-.706L10.707 14h1.614c.542 0 .98 0 1.333-.029.365-.03.685-.092.981-.243a2.5 2.5 0 0 0 1.092-1.093c.151-.296.214-.616.244-.98.029-.354.029-.791.029-1.333V8.5Z" />
</svg>