<svg xmlns="http://www.w3.org/2000/svg" viewBox="0 0 16 16" fill="none">
  <path fill="#fff"
    d="M12.908.218C12.48 0 11.92 0 10.8 0H5.2C4.08 0 3.52 0 3.092.218a2 2 0 0 0-.874.874C2 1.52 2 2.08 2 3.2V16h1V3.2c0-.576 0-.949.024-1.232.022-.272.06-.372.085-.422a1 1 0 0 1 .437-.437c.05-.025.15-.063.422-.085C4.25 1.001 4.623 1 5.2 1h5.6c.577 0 .949.001 1.232.024.272.022.373.06.422.085a1 1 0 0 1 .437.437c.025.05.063.15.085.422C13 2.251 13 2.624 13 3.2V16h1V3.2c0-1.12 0-1.68-.218-2.108a2 2 0 0 0-.874-.874Z" />
  <path fill="#fff"
    d="M5.5 3a.5.5 0 0 0 0 1h5a.5.5 0 0 0 0-1h-5ZM5.5 6a.5.5 0 0 0 0 1h5a.5.5 0 0 0 0-1h-5ZM5 9.5a.5.5 0 0 1 .5-.5h5a.5.5 0 0 1 0 1h-5a.5.5 0 0 1-.5-.5ZM5.5 12a.5.5 0 0 0 0 1h5a.5.5 0 0 0 0-1h-5ZM5 15.5a.5.5 0 0 1 .5-.5h5a.5.5 0 0 1 0 1h-5a.5.5 0 0 1-.5-.5Z" />
</svg>