<svg xmlns="http://www.w3.org/2000/svg" viewBox="0 0 16 16" fill="none">
  <path fill="#fff" fill-rule="evenodd"
    d="M8 6c.233 0 .442.134.525.338l2.438 5.95c.11.27-.035.574-.325.678-.29.103-.615-.033-.726-.303L9.247 11H6.753l-.665 1.663c-.11.27-.436.406-.726.303-.29-.104-.436-.408-.325-.678l2.438-5.95A.563.563 0 0 1 8 6Zm0 1.885L8.847 10H7.153L8 7.885Z"
    clip-rule="evenodd" />
  <path fill="#fff" fill-rule="evenodd"
    d="M2.327 1.638C2 2.28 2 3.12 2 4.8v6.4c0 1.68 0 2.52.327 3.162a3 3 0 0 0 1.311 1.311C4.28 16 5.12 16 6.8 16h2.4c1.68 0 2.52 0 3.162-.327a3 3 0 0 0 1.311-1.31C14 13.72 14 12.88 14 11.2V4.826c0-.49 0-.734-.055-.964-.05-.204-.13-.4-.24-.578-.123-.202-.296-.375-.642-.721L11.437.938c-.346-.346-.519-.52-.72-.643a2.001 2.001 0 0 0-.579-.24C9.909 0 9.665 0 9.176 0H6.8C5.12 0 4.28 0 3.638.327a3 3 0 0 0-1.311 1.311Zm2.584 13.325C5.361 15 5.943 15 6.8 15h2.4c.857 0 1.439 0 1.889-.037.438-.036.663-.101.819-.18a2 2 0 0 0 .874-.875c.08-.156.145-.38.18-.819C13 12.64 13 12.057 13 11.2V5H9.5a.5.5 0 0 1-.5-.5V1H6.8c-.857 0-1.439.001-1.889.038-.438.036-.663.1-.819.18a2 2 0 0 0-.874.874c-.08.157-.145.38-.18.82C3 3.361 3 3.943 3 4.8v6.4c0 .857 0 1.44.038 1.89.035.438.1.662.18.818a2 2 0 0 0 .874.874c.156.08.38.145.819.18Zm7.942-11.157a.995.995 0 0 1 .091.194H10V1.056c.068.023.133.054.194.092.077.047.157.117.536.497l1.626 1.625c.38.38.45.459.497.536Z"
    clip-rule="evenodd" />
</svg>