<svg xmlns="http://www.w3.org/2000/svg" viewBox="0 0 16 16" fill="none">
  <path fill="#fff" fill-rule="evenodd"
    d="M6 5c.233 0 .442.134.525.338l2.438 5.95c.11.27-.035.574-.325.678-.29.103-.615-.033-.726-.303L7.247 10H4.753l-.665 1.663c-.11.27-.436.406-.726.303-.29-.104-.436-.408-.325-.678l2.438-5.95A.563.563 0 0 1 6 5Zm0 1.885L6.847 9H5.153L6 6.885Z"
    clip-rule="evenodd" />
  <path fill="#fff" fill-rule="evenodd"
    d="M14.362 2.327C13.72 2 12.88 2 11.2 2H4.8c-1.68 0-2.52 0-3.162.327A3 3 0 0 0 .327 3.638C0 4.28 0 5.12 0 6.8v2.4c0 1.68 0 2.52.327 3.162a3 3 0 0 0 1.311 1.311C2.28 14 3.12 14 4.8 14h6.375c.489 0 .733 0 .963-.055a2 2 0 0 0 .579-.24c.201-.123.374-.296.72-.642l1.626-1.626c.346-.345.519-.518.642-.72a2 2 0 0 0 .24-.578c.055-.23.055-.475.055-.964V6.8c0-1.68 0-2.52-.327-3.162a3 3 0 0 0-1.311-1.31ZM1 6.8v2.4c0 .857 0 1.44.038 1.89.035.438.1.662.18.818a2 2 0 0 0 .874.874c.156.08.38.145.819.18C3.361 13 3.943 13 4.8 13H11V9.5a.5.5 0 0 1 .5-.5H15V6.8c0-.856 0-1.439-.038-1.889-.035-.438-.1-.662-.18-.819a2 2 0 0 0-.874-.874c-.156-.08-.38-.144-.819-.18C12.639 3 12.057 3 11.2 3H4.8c-.857 0-1.439.001-1.889.038-.438.036-.663.1-.819.18a2 2 0 0 0-.874.874c-.08.157-.145.38-.18.82C1 5.361 1 5.943 1 6.8Zm11.194 6.053a1.008 1.008 0 0 1-.194.092V10h2.944a.993.993 0 0 1-.091.194c-.048.078-.118.157-.497.536l-1.626 1.626c-.38.38-.459.45-.536.497Z"
    clip-rule="evenodd" />
</svg>