<svg xmlns="http://www.w3.org/2000/svg" viewBox="0 0 16 16" fill="none">
  <path fill="#fff"
    d="M2 5.5a.5.5 0 0 1 .5-.5h3a.5.5 0 0 1 0 1h-3a.5.5 0 0 1-.5-.5ZM2.5 7a.5.5 0 0 0 0 1h3a.5.5 0 1 0 0-1h-3ZM2 9.5a.5.5 0 0 1 .5-.5h2a.5.5 0 0 1 0 1h-2a.5.5 0 0 1-.5-.5ZM10.5 5a.5.5 0 0 0 0 1h3a.5.5 0 0 0 0-1h-3ZM10 7.5a.5.5 0 0 1 .5-.5h3a.5.5 0 0 1 0 1h-3a.5.5 0 0 1-.5-.5ZM10.5 9a.5.5 0 0 0 0 1h2a.5.5 0 1 0 0-1h-2Z" />
  <path fill="#fff" fill-rule="evenodd"
    d="M0 4.4c0-.84 0-1.26.163-1.58a1.5 1.5 0 0 1 .656-.656C1.139 2 1.559 2 2.4 2h3.2c.84 0 1.26 0 1.581.164a1.5 1.5 0 0 1 .656.655C8 3.14 8 3.56 8 4.4c0-.84 0-1.26.163-1.58a1.5 1.5 0 0 1 .656-.656C9.139 2 9.559 2 10.4 2h3.2c.84 0 1.26 0 1.581.164a1.5 1.5 0 0 1 .655.655C16 3.14 16 3.56 16 4.4v7.2c0 .84 0 1.26-.164 1.581a1.5 1.5 0 0 1-.655.656c-.32.163-.74.163-1.581.163h-3.2c-.84 0-1.26 0-1.581-.163a1.5 1.5 0 0 1-.656-.656C8 12.861 8 12.441 8 11.601c0 .84 0 1.26-.163 1.58a1.5 1.5 0 0 1-.656.656C6.861 14 6.441 14 5.6 14H2.4c-.84 0-1.26 0-1.581-.163a1.5 1.5 0 0 1-.656-.656C0 12.861 0 12.441 0 11.601V4.4ZM2.4 3h3.2c.437 0 .704.001.904.017a1.281 1.281 0 0 1 .215.035.5.5 0 0 1 .23.23 1.282 1.282 0 0 1 .034.215c.016.2.017.467.017.903v7.2c0 .437 0 .704-.017.904a1.279 1.279 0 0 1-.034.216l-.003.007a.5.5 0 0 1-.219.219l-.008.003a1.275 1.275 0 0 1-.215.034C6.304 13 6.037 13 5.6 13H2.4c-.437 0-.704 0-.904-.017a1.275 1.275 0 0 1-.215-.034l-.008-.003a.5.5 0 0 1-.218-.219l-.004-.008a1.279 1.279 0 0 1-.034-.216c-.016-.199-.017-.466-.017-.903V4.4c0-.436 0-.704.017-.904a1.282 1.282 0 0 1 .034-.215l.004-.008a.5.5 0 0 1 .218-.218l.008-.003a1.281 1.281 0 0 1 .215-.034C1.696 3 1.963 3 2.4 3Zm8 0h3.2c.437 0 .704.001.904.017a1.281 1.281 0 0 1 .215.035.5.5 0 0 1 .23.23 1.29 1.29 0 0 1 .034.215c.016.2.017.467.017.903v7.2c0 .437 0 .704-.017.904a1.288 1.288 0 0 1-.034.216.5.5 0 0 1-.222.226l-.008.003a1.275 1.275 0 0 1-.215.034c-.2.016-.468.017-.904.017h-3.2c-.437 0-.704 0-.904-.017a1.275 1.275 0 0 1-.215-.034l-.008-.003a.5.5 0 0 1-.218-.219l-.004-.008a1.279 1.279 0 0 1-.034-.216c-.016-.199-.017-.466-.017-.903V4.4c0-.436 0-.704.017-.904a1.282 1.282 0 0 1 .034-.215.5.5 0 0 1 .222-.226l.008-.003a1.281 1.281 0 0 1 .215-.034C9.696 3 9.963 3 10.4 3Z"
    clip-rule="evenodd" />
</svg>