<svg xmlns="http://www.w3.org/2000/svg" viewBox="0 0 16 16" fill="none">
  <path fill="#fff"
    d="M2 2.5a.5.5 0 0 1 .5-.5h2a.5.5 0 0 1 0 1h-2a.5.5 0 0 1-.5-.5ZM2 4.5a.5.5 0 0 1 .5-.5h1a.5.5 0 0 1 0 1h-1a.5.5 0 0 1-.5-.5Z" />
  <path fill="#fff" fill-rule="evenodd"
    d="M.163.82C0 1.14 0 1.56 0 2.4v2.2c0 .84 0 1.26.163 1.581a1.5 1.5 0 0 0 .656.656C1.139 7 1.559 7 2.4 7h2.2c.84 0 1.26 0 1.581-.163a1.5 1.5 0 0 0 .656-.656C7 5.861 7 5.441 7 4.601V2.4c0-.84 0-1.26-.163-1.582A1.5 1.5 0 0 0 6.18.164C5.861 0 5.441 0 4.6 0H2.4C1.56 0 1.14 0 .819.164a1.5 1.5 0 0 0-.656.655ZM4.6 1H2.4c-.437 0-.704.001-.904.017a1.281 1.281 0 0 0-.215.035l-.008.003a.5.5 0 0 0-.218.218l-.004.008a1.282 1.282 0 0 0-.034.215c-.016.2-.017.468-.017.904v2.2c0 .437 0 .704.017.904a1.281 1.281 0 0 0 .034.215l.004.008a.5.5 0 0 0 .226.222 1.281 1.281 0 0 0 .215.034C1.696 6 1.963 6 2.4 6h2.2c.437 0 .704 0 .904-.017a1.281 1.281 0 0 0 .215-.034.128.128 0 0 0 .007-.003h.001a.5.5 0 0 0 .218-.219h.001l.003-.008a1.281 1.281 0 0 0 .034-.215c.016-.2.017-.467.017-.904V2.4c0-.436 0-.704-.017-.904a1.282 1.282 0 0 0-.034-.215l-.003-.008a.5.5 0 0 0-.219-.218l-.008-.003a1.281 1.281 0 0 0-.215-.034C5.304 1 5.037 1 4.6 1Z"
    clip-rule="evenodd" />
  <path fill="#fff" d="M11.5 2a.5.5 0 0 0 0 1h2a.5.5 0 0 0 0-1h-2ZM11.5 4a.5.5 0 0 0 0 1h1a.5.5 0 0 0 0-1h-1Z" />
  <path fill="#fff" fill-rule="evenodd"
    d="M9.163.82C9 1.14 9 1.56 9 2.4v2.2c0 .84 0 1.26.163 1.581a1.5 1.5 0 0 0 .656.656c.32.163.74.163 1.581.163h2.2c.84 0 1.26 0 1.581-.163a1.5 1.5 0 0 0 .655-.656c.164-.32.164-.74.164-1.58V2.4c0-.84 0-1.26-.164-1.582a1.5 1.5 0 0 0-.655-.655C14.861 0 14.441 0 13.6 0h-2.2c-.84 0-1.26 0-1.581.164a1.5 1.5 0 0 0-.656.655ZM13.6 1h-2.2c-.437 0-.704.001-.904.017a1.281 1.281 0 0 0-.215.035l-.008.003a.5.5 0 0 0-.218.218l-.004.008a1.29 1.29 0 0 0-.034.215c-.016.2-.017.468-.017.904v2.2c0 .437 0 .704.017.904a1.29 1.29 0 0 0 .034.215l.003.007v.001a.5.5 0 0 0 .227.222 1.281 1.281 0 0 0 .215.034c.2.016.468.017.904.017h2.2c.437 0 .704 0 .904-.017a1.281 1.281 0 0 0 .215-.034l.004-.002h.003l.001-.001a.5.5 0 0 0 .218-.219l.002-.002.002-.006a1.29 1.29 0 0 0 .034-.215c.016-.2.017-.467.017-.904V2.4c0-.436 0-.704-.017-.904a1.29 1.29 0 0 0-.034-.215l-.004-.008a.5.5 0 0 0-.218-.218l-.008-.003a1.281 1.281 0 0 0-.215-.034C14.304 1 14.036 1 13.6 1Z"
    clip-rule="evenodd" />
  <path fill="#fff"
    d="M2 11.5a.5.5 0 0 1 .5-.5h2a.5.5 0 0 1 0 1h-2a.5.5 0 0 1-.5-.5ZM2 13.5a.5.5 0 0 1 .5-.5h1a.5.5 0 0 1 0 1h-1a.5.5 0 0 1-.5-.5Z" />
  <path fill="#fff" fill-rule="evenodd"
    d="M0 11.4c0-.84 0-1.26.163-1.58a1.5 1.5 0 0 1 .656-.656C1.139 9 1.559 9 2.4 9h2.2c.84 0 1.26 0 1.581.164a1.5 1.5 0 0 1 .656.655C7 10.14 7 10.56 7 11.4v2.2c0 .84 0 1.26-.163 1.581a1.5 1.5 0 0 1-.656.656C5.861 16 5.441 16 4.6 16H2.4c-.84 0-1.26 0-1.581-.163a1.5 1.5 0 0 1-.656-.656C0 14.861 0 14.441 0 13.601v-2.2ZM4.6 10c.437 0 .704.001.904.017a1.275 1.275 0 0 1 .215.035.123.123 0 0 1 .007.002h.001a.5.5 0 0 1 .222.227 1.283 1.283 0 0 1 .034.215c.016.2.017.468.017.904v2.2c0 .437 0 .704-.017.904a1.279 1.279 0 0 1-.034.216.128.128 0 0 1-.003.006v.001a.5.5 0 0 1-.219.219h-.001l-.007.003a1.275 1.275 0 0 1-.215.034C5.304 15 5.037 15 4.6 15H2.4c-.437 0-.704 0-.904-.017a1.275 1.275 0 0 1-.215-.034l-.008-.003a.5.5 0 0 1-.218-.219l-.004-.008a1.279 1.279 0 0 1-.034-.216c-.016-.199-.017-.466-.017-.903v-2.2c0-.436 0-.704.017-.904a1.283 1.283 0 0 1 .034-.215l.004-.008a.5.5 0 0 1 .218-.218l.008-.003a1.275 1.275 0 0 1 .215-.034C1.696 10 1.963 10 2.4 10h2.2Z"
    clip-rule="evenodd" />
  <path fill="#fff" d="M11.5 13a.5.5 0 0 0 0 1h1a.5.5 0 1 0 0-1h-1ZM11.5 11a.5.5 0 0 0 0 1h2a.5.5 0 1 0 0-1h-2Z" />
  <path fill="#fff" fill-rule="evenodd"
    d="M9.163 9.82C9 10.14 9 10.56 9 11.4v2.2c0 .84 0 1.26.163 1.581a1.5 1.5 0 0 0 .656.656c.32.163.74.163 1.581.163h2.2c.84 0 1.26 0 1.581-.163a1.5 1.5 0 0 0 .655-.656c.164-.32.164-.74.164-1.58v-2.2c0-.84 0-1.26-.164-1.582a1.5 1.5 0 0 0-.655-.655C14.861 9 14.441 9 13.6 9h-2.2c-.84 0-1.26 0-1.581.164a1.5 1.5 0 0 0-.656.655ZM13.6 10h-2.2c-.437 0-.704.001-.904.017a1.275 1.275 0 0 0-.215.035.177.177 0 0 0-.006.002h-.002a.5.5 0 0 0-.218.22l-.001.001-.003.006a1.292 1.292 0 0 0-.034.215c-.016.2-.017.468-.017.904v2.2c0 .437 0 .704.017.904a1.288 1.288 0 0 0 .034.216.5.5 0 0 0 .23.23 1.275 1.275 0 0 0 .215.034c.2.015.468.016.904.016h2.2c.437 0 .704 0 .904-.017a1.275 1.275 0 0 0 .215-.034l.005-.002h.002l.001-.001a.5.5 0 0 0 .218-.219l.004-.008a1.288 1.288 0 0 0 .034-.216c.016-.199.017-.466.017-.903v-2.2c0-.436 0-.704-.017-.904a1.292 1.292 0 0 0-.034-.215.5.5 0 0 0-.222-.226l-.008-.003a1.275 1.275 0 0 0-.215-.034C14.304 10 14.036 10 13.6 10Z"
    clip-rule="evenodd" />
</svg>