<svg xmlns="http://www.w3.org/2000/svg" viewBox="0 0 16 16" fill="none">
  <path fill="#fff"
    d="M9.833 0 11 1v.002c.445.003.795.012 1.089.036.438.036.663.1.819.18a2 2 0 0 1 .874.874c.08.157.145.38.18.82C14 3.361 14 3.943 14 4.8V6l1 1.167V4.8c0-1.68 0-2.52-.327-3.162a3 3 0 0 0-1.311-1.31C12.72 0 11.88 0 10.2 0h-.367ZM5.166.001 4 1.001v.03l-.089.007c-.438.036-.663.1-.819.18a2 2 0 0 0-.874.874c-.08.157-.145.38-.18.82C2 3.361 2 3.943 2 4.8V6L1 7.167V4.8c0-1.68 0-2.52.327-3.162A3 3 0 0 1 2.638.328C3.193.043 3.898.005 5.166 0ZM3.911 14.963l.089.006V15l1.166 1c-1.269-.006-1.973-.044-2.528-.327a3 3 0 0 1-1.311-1.31c-.283-.556-.321-1.26-.326-2.528L2 13h.03l.008.09c.035.438.1.662.18.818a2 2 0 0 0 .874.874c.156.08.38.145.819.18ZM9.833 16 11 15v-.002a15.13 15.13 0 0 0 1.089-.035c.438-.036.663-.101.819-.18a2 2 0 0 0 .874-.875c.08-.156.145-.38.18-.819L13.97 13H14l1-1.165c-.006 1.268-.044 1.972-.327 2.527a3 3 0 0 1-1.311 1.311C12.72 16 11.88 16 10.2 16h-.367ZM4.854 7.854a.5.5 0 1 0-.708-.707l-2 2a.499.499 0 0 0 0 .707l2 2a.5.5 0 1 0 .708-.707L3.707 10H7v4.293l-1.146-1.146a.5.5 0 1 0-.708.707l2 2a.5.5 0 0 0 .708 0l2-2a.5.5 0 0 0-.708-.707L8 14.293V10h4.293l-1.147 1.147a.5.5 0 0 0 .708.707l2-2a.5.5 0 0 0 .146-.35v-.007a.5.5 0 0 0-.146-.35l-2-2a.5.5 0 0 0-.708.707L12.293 9H8V1.707l1.146 1.147a.5.5 0 1 0 .708-.707l-2-2a.499.499 0 0 0-.708 0l-2 2a.5.5 0 1 0 .708.707L7 1.707V9H3.707l1.147-1.146Z" />
</svg>