<svg xmlns="http://www.w3.org/2000/svg" viewBox="0 0 16 16" fill="none">
  <path fill="#fff"
    d="M5 1 4 2v.002c-.446.003-.795.012-1.089.036-.438.036-.663.1-.819.18a2 2 0 0 0-.874.874c-.08.157-.145.38-.18.82-.014.17-.023.361-.029.579L0 5.501c.001-1.483.02-2.26.327-2.863a3 3 0 0 1 1.311-1.31C2.28 1 3.12 1 4.8 1H5ZM10 1l1 1h.2c.857 0 1.439.001 1.889.038.438.036.663.1.819.18a2 2 0 0 1 .874.874c.08.157.145.38.18.82.014.17.023.361.029.579L16 5.501c-.001-1.483-.02-2.26-.327-2.863a3 3 0 0 0-1.311-1.31C13.72 1 12.88 1 11.2 1H10ZM2.911 11.963c.294.024.643.032 1.089.036V12l1 1h-.2c-1.68 0-2.52 0-3.162-.327a3 3 0 0 1-1.311-1.31c-.228-.449-.297-.994-.318-1.854l1.105 1.105c.03.125.065.218.104.294a2 2 0 0 0 .874.874c.156.08.38.145.819.18ZM5 13l1.793 1.793a1 1 0 0 0 1.414 0L11 12h.2c.857 0 1.439 0 1.889-.037.438-.036.663-.101.819-.18a2 2 0 0 0 .874-.875c.039-.076.074-.169.104-.294l1.105-1.105c-.02.86-.09 1.405-.318 1.853a3 3 0 0 1-1.311 1.311C13.72 13 12.88 13 11.2 13H11v2h1.5a.5.5 0 0 1 0 1h-9a.5.5 0 1 1 0-1H5v-2Z" />
  <path fill="#fff"
    d="M7.309 12.962a.498.498 0 0 0 .188.038h.006c.127 0 .254-.05.35-.146l2-2a.5.5 0 1 0-.707-.707L8 11.293V8h5.293l-1.147 1.147a.5.5 0 0 0 .707.707l2-2a.498.498 0 0 0 .147-.35v-.007a.498.498 0 0 0-.146-.35l-2-2a.5.5 0 1 0-.708.707L13.293 7H8V2.707l1.146 1.147a.5.5 0 0 0 .708-.707l-2-2A.499.499 0 0 0 7.503 1h-.006a.498.498 0 0 0-.35.147l-2 2a.5.5 0 0 0 .707.707L7 2.707V7H2.707l1.147-1.146a.5.5 0 0 0-.708-.707l-2 2a.499.499 0 0 0-.146.35v.006c0 .127.05.254.146.35l2 2a.5.5 0 1 0 .708-.706L2.707 8H7v3.293l-1.146-1.146a.5.5 0 1 0-.708.707l2 2a.5.5 0 0 0 .163.108Z" />
</svg>