<svg viewBox="0 0 24 24" xmlns="http://www.w3.org/2000/svg"><path d="m9.6 1h-3.2c-1.14 0-1.93 7.8e-4 -2.55 0.0512-0.605 0.0494-0.953 0.142-1.22 0.276-0.564 0.288-1.02 0.747-1.31 1.31-0.134 0.263-0.226 0.611-0.276 1.22-0.0504 0.617-0.0512 1.41-0.0512 2.55v7.2c0 1.14 7.8e-4 1.93 0.0512 2.55 0.0494 0.605 0.142 0.953 0.276 1.22 0.288 0.564 0.747 1.02 1.31 1.31 0.263 0.134 0.611 0.226 1.22 0.276 0.542 0.0443 1.22 0.0503 2.15 0.0511v1c-1.98-0.0015-3.01-0.0267-3.82-0.436-0.753-0.384-1.36-0.995-1.75-1.75-0.436-0.856-0.436-1.98-0.436-4.22v-7.2c0-2.24 0-3.36 0.436-4.22 0.383-0.753 0.995-1.36 1.75-1.75 0.856-0.436 1.98-0.436 4.22-0.436h3.2c2.24 0 3.36 0 4.22 0.436 0.69 0.352 1.26 0.896 1.65 1.56h-1.23c-0.246-0.275-0.542-0.504-0.874-0.673-0.263-0.134-0.611-0.226-1.22-0.276-0.617-0.0504-1.41-0.0512-2.55-0.0512z" fill="#000"/><path d="m12 13.5c0-0.276 0.224-0.5 0.5-0.5h7c0.276 0 0.5 0.224 0.5 0.5s-0.224 0.5-0.5 0.5h-7c-0.276 0-0.5-0.224-0.5-0.5z" fill="#000"/><path d="m12 17.5c0-0.276 0.224-0.5 0.5-0.5h5c0.276 0 0.5 0.224 0.5 0.5s-0.224 0.5-0.5 0.5h-5c-0.276 0-0.5-0.224-0.5-0.5z" fill="#000"/><path d="m12 9.5c0-0.276 0.224-0.5 0.5-0.5h7c0.276 0 0.5 0.224 0.5 0.5s-0.224 0.5-0.5 0.5h-7c-0.276 0-0.5-0.224-0.5-0.5z" fill="#000"/><path d="m8 10.4c0-2.24 0-3.36 0.436-4.22 0.384-0.753 0.995-1.36 1.75-1.75 0.856-0.436 1.98-0.436 4.22-0.436h3.2c2.24 0 3.36 0 4.22 0.436 0.753 0.384 1.36 0.995 1.75 1.75 0.436 0.856 0.436 1.98 0.436 4.22v7.2c0 2.24 0 3.36-0.436 4.22-0.384 0.753-0.995 1.36-1.75 1.75-0.856 0.436-1.98 0.436-4.22 0.436h-3.2c-2.24 0-3.36 0-4.22-0.436-0.753-0.384-1.36-0.995-1.75-1.75-0.436-0.856-0.436-1.98-0.436-4.22v-7.2zm6.4-5.4h3.2c1.14 0 1.93 7.8e-4 2.55 0.0512 0.605 0.0494 0.953 0.142 1.22 0.276 0.564 0.288 1.02 0.747 1.31 1.31 0.134 0.263 0.226 0.611 0.276 1.22 0.0504 0.617 0.0512 1.41 0.0512 2.55v7.2c0 1.14-8e-4 1.93-0.0512 2.55-0.0494 0.605-0.142 0.953-0.276 1.22-0.288 0.564-0.746 1.02-1.31 1.31-0.263 0.134-0.611 0.226-1.22 0.276-0.617 0.0504-1.41 0.0512-2.55 0.0512h-3.2c-1.14 0-1.93-8e-4 -2.55-0.0512-0.605-0.0494-0.953-0.142-1.22-0.276-0.564-0.288-1.02-0.746-1.31-1.31-0.134-0.263-0.226-0.611-0.276-1.22-0.0504-0.617-0.0512-1.41-0.0512-2.55v-7.2c0-1.14 7.8e-4 -1.93 0.0512-2.55 0.0494-0.605 0.142-0.953 0.276-1.22 0.288-0.564 0.747-1.02 1.31-1.31 0.263-0.134 0.611-0.226 1.22-0.276 0.617-0.0504 1.41-0.0512 2.55-0.0512z" clip-rule="evenodd" fill="#000" fill-rule="evenodd"/></svg>
