<svg viewBox="0 0 24 24" xmlns="http://www.w3.org/2000/svg"><path d="m11.3 0.0379c-0.059 0.0244-0.114 0.0606-0.162 0.109l-5 5c-0.195 0.195-0.195 0.512 0 0.707 0.195 0.195 0.512 0.195 0.707 0l4.15-4.15v12.8c0 0.276 0.224 0.5 0.5 0.5s0.5-0.224 0.5-0.5v-12.8l4.15 4.15c0.195 0.195 0.512 0.195 0.707 0 0.195-0.195 0.195-0.512 0-0.707l-5-5c-0.048-0.0479-0.103-0.0841-0.162-0.109-0.059-0.0244-0.124-0.0379-0.191-0.0379s-0.132 0.0135-0.191 0.0379z" fill="#000"/><path d="m5.5 9c-2.49 0-4.5 2.01-4.5 4.5v2.5c0 1.17 2.7e-4 2.03 0.0464 2.7 0.0458 0.672 0.135 1.13 0.296 1.52 0.457 1.1 1.33 1.98 2.44 2.44 0.388 0.161 0.849 0.25 1.52 0.296 0.676 0.0461 1.53 0.0464 2.7 0.0464h7c1.17 0 2.03-3e-4 2.7-0.0464 0.672-0.0459 1.13-0.135 1.52-0.296 1.1-0.457 1.98-1.33 2.44-2.44 0.161-0.388 0.25-0.848 0.296-1.52 0.0461-0.676 0.0464-1.53 0.0464-2.7v-2.5c0-2.49-2.01-4.5-4.5-4.5-0.276 0-0.5-0.224-0.5-0.5s0.224-0.5 0.5-0.5c3.04 0 5.5 2.46 5.5 5.5v2.52c0 1.15 0 2.04-0.0487 2.75-0.0493 0.723-0.15 1.3-0.37 1.84-0.558 1.35-1.63 2.42-2.98 2.98-0.53 0.22-1.11 0.321-1.84 0.37-0.714 0.0487-1.6 0.0487-2.75 0.0487h-7.04c-1.15 0-2.04 0-2.75-0.0487-0.723-0.0493-1.3-0.15-1.83-0.37-1.35-0.558-2.42-1.63-2.98-2.98-0.22-0.53-0.321-1.11-0.37-1.84-0.0487-0.714-0.0487-1.6-0.0487-2.75v-2.52c0-3.04 2.46-5.5 5.5-5.5 0.276 0 0.5 0.224 0.5 0.5s-0.224 0.5-0.5 0.5z" fill="#000"/></svg>
