<svg viewBox="0 0 24 24" xmlns="http://www.w3.org/2000/svg"><path d="m6.5 6c-0.52 0-0.71 0-0.89-0.04-0.79-0.16-1.41-0.77-1.57-1.57-0.0208-0.099-0.0308-0.203-0.0356-0.35-0.0512 0.0034-0.101 0.00708-0.15 0.0111-0.605 0.0494-0.953 0.142-1.22 0.276-0.564 0.288-1.02 0.747-1.31 1.31-0.134 0.263-0.226 0.611-0.276 1.22-0.0504 0.617-0.0512 1.41-0.0512 2.55v6.2c0 1.14 7.8e-4 1.93 0.0512 2.55 0.0494 0.605 0.142 0.953 0.276 1.22 0.288 0.564 0.747 1.02 1.31 1.31 0.263 0.134 0.611 0.226 1.22 0.276 0.617 0.0504 1.41 0.0512 2.55 0.0512h3.6v1h-3.6c-2.24 0-3.36 0-4.22-0.436-0.753-0.384-1.36-0.995-1.75-1.75-0.436-0.856-0.436-1.98-0.436-4.22v-6.2c0-2.24 0-3.36 0.436-4.22 0.383-0.753 0.995-1.36 1.75-1.75 0.476-0.242 1.03-0.35 1.82-0.398 0.00372-0.189 0.0132-0.313 0.0376-0.428 0.16-0.8 0.77-1.41 1.57-1.57 0.19-0.04 0.39-0.04 0.89-0.04 0.48-0.64 1.21-1 2-1s1.52 0.36 2 1c0.5 0 0.7 0 0.89 0.04 0.8 0.16 1.41 0.77 1.57 1.57 0.025 0.113 0.0344 0.229 0.0379 0.428 0.786 0.0478 1.34 0.155 1.82 0.398 0.753 0.383 1.36 0.995 1.75 1.75 0.242 0.475 0.35 1.03 0.398 1.82h-1c-0.0033-0.0497-0.0069-0.0982-0.0108-0.146-0.0494-0.605-0.142-0.953-0.276-1.22-0.288-0.564-0.746-1.02-1.31-1.31-0.263-0.134-0.611-0.226-1.22-0.276-0.0488-0.00399-0.0987-0.00766-0.15-0.011-0.0046 0.153-0.0145 0.253-0.0361 0.35-0.16 0.79-0.77 1.41-1.57 1.57-0.18 0.04-0.37 0.04-0.89 0.04h-4zm0-4c-0.42 0-0.61 0-0.69 0.02-0.4 0.08-0.71 0.39-0.79 0.79-0.02 0.09-0.02 0.28-0.02 0.7s0 0.61 0.02 0.7c0.08 0.4 0.39 0.71 0.79 0.79 0.09 0.02 0.27 0.02 0.7 0.02h4c0.43 0 0.61 0 0.69-0.02 0.4-0.08 0.71-0.39 0.79-0.79 0.02-0.09 0.02-0.27 0.02-0.7s0-0.61-0.02-0.69c-0.08-0.4-0.39-0.71-0.79-0.79-0.09-0.02-0.28-0.02-0.7-0.02-0.315 0-0.611-0.148-0.8-0.4-0.57-0.76-1.83-0.76-2.4 0-0.189 0.246-0.482 0.39-0.792 0.39h-0.00796z" clip-rule="evenodd" fill="#000" fill-rule="evenodd"/><path d="m15 13.5c0-0.276 0.224-0.5 0.5-0.5h5c0.276 0 0.5 0.224 0.5 0.5s-0.224 0.5-0.5 0.5h-5c-0.276 0-0.5-0.224-0.5-0.5z" fill="#000"/><path d="m15 16.5c0-0.276 0.224-0.5 0.5-0.5h5c0.276 0 0.5 0.224 0.5 0.5s-0.224 0.5-0.5 0.5h-5c-0.276 0-0.5-0.224-0.5-0.5z" fill="#000"/><path d="m15 19.5c0-0.276 0.224-0.5 0.5-0.5h3c0.276 0 0.5 0.224 0.5 0.5s-0.224 0.5-0.5 0.5h-3c-0.276 0-0.5-0.224-0.5-0.5z" fill="#000"/><path d="m12.3 10.6c-0.327 0.642-0.327 1.48-0.327 3.16v5.4c0 1.68 0 2.52 0.327 3.16 0.288 0.564 0.746 1.02 1.31 1.31 0.642 0.327 1.48 0.327 3.16 0.327h2.4c1.68 0 2.52 0 3.16-0.327 0.564-0.288 1.02-0.746 1.31-1.31 0.327-0.642 0.327-1.48 0.327-3.16v-5.4c0-1.68 0-2.52-0.327-3.16-0.288-0.564-0.746-1.02-1.31-1.31-0.642-0.327-1.48-0.327-3.16-0.327h-2.4c-1.68 0-2.52 0-3.16 0.327-0.564 0.288-1.02 0.747-1.31 1.31zm6.87-0.638h-2.4c-0.857 0-1.44 8e-4 -1.89 0.0376-0.438 0.0358-0.663 0.101-0.819 0.18-0.376 0.192-0.682 0.498-0.874 0.874-0.0797 0.156-0.145 0.381-0.18 0.819-0.0368 0.45-0.0376 1.03-0.0376 1.89v5.4c0 0.857 8e-4 1.44 0.0376 1.89 0.0358 0.438 0.101 0.663 0.18 0.819 0.192 0.376 0.498 0.682 0.874 0.874 0.156 0.0797 0.381 0.145 0.819 0.18 0.45 0.0368 1.03 0.0376 1.89 0.0376h2.4c0.857 0 1.44-8e-4 1.89-0.0376 0.438-0.0358 0.663-0.101 0.819-0.18 0.376-0.192 0.682-0.498 0.874-0.874 0.0797-0.156 0.145-0.381 0.18-0.819 0.0368-0.45 0.0376-1.03 0.0376-1.89v-5.4c0-0.857-8e-4 -1.44-0.0376-1.89-0.0358-0.438-0.101-0.663-0.18-0.819-0.192-0.376-0.498-0.682-0.874-0.874-0.156-0.0797-0.381-0.145-0.819-0.18-0.45-0.0368-1.03-0.0376-1.89-0.0376z" clip-rule="evenodd" fill="#000" fill-rule="evenodd"/></svg>
