<svg viewBox="0 0 24 24" xmlns="http://www.w3.org/2000/svg"><path d="m6 11.5c0-0.276 0.224-0.5 0.5-0.5h4.5v-4.5c0-0.276 0.224-0.5 0.5-0.5s0.5 0.224 0.5 0.5v4.5h4.5c0.276 0 0.5 0.224 0.5 0.5s-0.224 0.5-0.5 0.5h-4.5v4.5c0 0.276-0.224 0.5-0.5 0.5s-0.5-0.224-0.5-0.5v-4.5h-4.5c-0.276 0-0.5-0.224-0.5-0.5z" fill="#000"/><path d="m11.5 23c6.35 0 11.5-5.15 11.5-11.5 0-6.35-5.15-11.5-11.5-11.5-6.35 0-11.5 5.15-11.5 11.5 0 6.35 5.15 11.5 11.5 11.5zm0-1c5.8 0 10.5-4.7 10.5-10.5 0-5.8-4.7-10.5-10.5-10.5-5.8 0-10.5 4.7-10.5 10.5 0 5.8 4.7 10.5 10.5 10.5z" clip-rule="evenodd" fill="#000" fill-rule="evenodd"/></svg>
