<svg fill="none" viewBox="0 0 24 24" xmlns="http://www.w3.org/2000/svg"><path d="m17.7 1h-11.4c-0.821-3e-6 -1.47-6e-6 -1.99 0.0425-0.531 0.0434-0.975 0.134-1.38 0.339-0.659 0.336-1.19 0.871-1.53 1.53-0.205 0.403-0.296 0.847-0.339 1.38-0.0425 0.521-0.0425 1.17-0.0425 1.99v8.8c-9.8e-5 0.672-1.57e-4 1.09 0.0967 1.5 0.0857 0.357 0.227 0.699 0.419 1.01 0.217 0.354 0.516 0.652 0.991 1.13l2.78 2.78c0.475 0.475 0.774 0.774 1.13 0.991 0.313 0.192 0.655 0.333 1.01 0.419 0.403 0.0969 0.826 0.0968 1.5 0.0967h8.8c0.821 0 1.47 0 1.99-0.0425 0.531-0.0434 0.975-0.134 1.38-0.339 0.658-0.336 1.19-0.871 1.53-1.53 0.205-0.403 0.296-0.847 0.339-1.38 0.0425-0.521 0.0425-1.17 0.0425-1.99v-11.4c0-0.821 0-1.47-0.0425-1.99-0.0434-0.531-0.134-0.975-0.339-1.38-0.336-0.659-0.871-1.19-1.53-1.53-0.403-0.205-0.847-0.296-1.38-0.339-0.521-0.0425-1.17-0.0425-1.99-0.0425zm-14.4 1.27c0.239-0.122 0.536-0.195 1.01-0.233 0.417-0.0341 0.935-0.0385 1.63-0.0391v4.32c0 0.542-1e-5 0.979 0.0289 1.33 0.0298 0.364 0.0927 0.685 0.244 0.981 0.24 0.47 0.622 0.853 1.09 1.09 0.296 0.151 0.616 0.214 0.981 0.244 0.354 0.0289 0.791 0.0289 1.33 0.0289h4.64c0.542 0 0.979 0 1.33-0.0289 0.364-0.0298 0.684-0.0927 0.981-0.244 0.47-0.24 0.853-0.622 1.09-1.09 0.151-0.296 0.214-0.616 0.244-0.981 0.0289-0.354 0.0289-0.791 0.0289-1.33v-4.32c0.694 5.8e-4 1.21 0.00504 1.63 0.0391 0.469 0.0384 0.767 0.112 1.01 0.233 0.47 0.24 0.853 0.622 1.09 1.09 0.122 0.239 0.195 0.536 0.233 1.01 0.0388 0.475 0.0392 1.08 0.0392 1.93v11.4c0 0.848-4e-4 1.45-0.0392 1.93-0.0383 0.469-0.112 0.767-0.233 1.01-0.24 0.47-0.622 0.853-1.09 1.09-0.239 0.122-0.536 0.195-1.01 0.233-0.417 0.0341-0.935 0.0385-1.63 0.0391v-3.32c0-0.542 0-0.979-0.0289-1.33-0.0298-0.364-0.0927-0.684-0.244-0.981-0.24-0.47-0.622-0.853-1.09-1.09-0.296-0.151-0.616-0.214-0.981-0.244-0.354-0.0289-0.791-0.0289-1.33-0.0289h-4.64c-0.542 0-0.979 0-1.33 0.0289-0.364 0.0298-0.685 0.0927-0.981 0.244-0.47 0.24-0.853 0.622-1.09 1.09-0.151 0.296-0.214 0.616-0.244 0.981-0.0289 0.354-0.0289 0.791-0.0289 1.33v2.11l-2.74-2.74c-0.536-0.536-0.744-0.748-0.891-0.989-0.137-0.224-0.238-0.468-0.299-0.723-0.0659-0.274-0.0691-0.572-0.0691-1.33v-8.71c0-0.848 3.9e-4 -1.45 0.0392-1.93 0.0384-0.469 0.112-0.767 0.233-1.01 0.24-0.47 0.622-0.853 1.09-1.09zm10.6 19.7v-6h-4.3c-0.568 0-0.964 4e-4 -1.27 0.0256-0.303 0.0247-0.476 0.0708-0.608 0.138-0.282 0.144-0.512 0.373-0.656 0.656-0.0671 0.132-0.113 0.306-0.138 0.608-0.0252 0.308-0.0256 0.705-0.0256 1.27v2.97c0.206 0.118 0.428 0.206 0.659 0.262 0.274 0.0659 0.572 0.0691 1.33 0.0691h5.01zm3-20h-10v4.3c0 0.568 3.9e-4 0.964 0.0256 1.27 0.0247 0.303 0.0708 0.476 0.138 0.608 0.144 0.282 0.373 0.512 0.656 0.656 0.132 0.0671 0.306 0.113 0.608 0.138 0.308 0.0252 0.705 0.0256 1.27 0.0256h4.6c0.568 0 0.964-3.9e-4 1.27-0.0256 0.303-0.0247 0.476-0.0708 0.608-0.138 0.282-0.144 0.512-0.373 0.656-0.656 0.0671-0.132 0.113-0.306 0.138-0.608 0.0252-0.308 0.0256-0.705 0.0256-1.27v-4.3z" clip-rule="evenodd" fill="#000" fill-rule="evenodd"/></svg>
