<svg fill="none" viewBox="0 0 24 24" xmlns="http://www.w3.org/2000/svg"><path d="m18.5 0c2.49 0 4.5 2.01 4.5 4.5s-2.01 4.5-4.5 4.5c-1.74 0-3.25-0.986-4-2.43l-5.8 3.32c0.192 0.5 0.299 1.04 0.299 1.61 0 0.878-0.253 1.7-0.688 2.39l6.19 3.54c0.75-1.44 2.26-2.43 4-2.43 2.49 0 4.5 2.01 4.5 4.5s-2.01 4.5-4.5 4.5-4.5-2.01-4.5-4.5c0-0.39 0.0485-0.768 0.142-1.13l-6.46-3.69c-0.814 0.815-1.94 1.32-3.18 1.32-2.49 0-4.5-2.01-4.5-4.5 0-2.49 2.01-4.5 4.5-4.5 1.57 0 2.95 0.806 3.76 2.03-0.00571-0.00867-0.0108-0.0177-0.0166-0.0264l5.9-3.37c-0.0928-0.36-0.142-0.738-0.142-1.13 0-2.49 2.01-4.5 4.5-4.5zm0 16c-1.93 0-3.5 1.57-3.5 3.5s1.57 3.5 3.5 3.5 3.5-1.57 3.5-3.5-1.57-3.5-3.5-3.5zm-14-8c-1.93 0-3.5 1.57-3.5 3.5s1.57 3.5 3.5 3.5 3.5-1.57 3.5-3.5-1.57-3.5-3.5-3.5zm14-7c-1.93 0-3.5 1.57-3.5 3.5s1.57 3.5 3.5 3.5 3.5-1.57 3.5-3.5-1.57-3.5-3.5-3.5z" clip-rule="evenodd" fill="#000" fill-rule="evenodd"/></svg>
