<svg viewBox="0 0 24 24" xmlns="http://www.w3.org/2000/svg"><path d="m5 2.5c0-0.276-0.224-0.5-0.5-0.5s-0.5 0.224-0.5 0.5v17.8l-3.15-3.15c-0.195-0.195-0.512-0.195-0.707 0-0.195 0.195-0.195 0.512 0 0.707l4 4c0.195 0.195 0.512 0.195 0.707 0l4-4c0.195-0.195 0.195-0.512 0-0.707-0.195-0.195-0.512-0.195-0.707 0l-3.15 3.15v-17.8z" fill="#000"/><path d="m17 7.5c0-0.276-0.224-0.5-0.5-0.5s-0.5 0.224-0.5 0.5v4c0 0.189 0.107 0.362 0.276 0.447l2 1c0.247 0.124 0.547 0.0234 0.671-0.224s0.0234-0.547-0.224-0.671l-1.72-0.862v-3.69z" fill="#000"/><path d="m16.5 19c4.14 0 7.5-3.36 7.5-7.5 0-4.14-3.36-7.5-7.5-7.5s-7.5 3.36-7.5 7.5c0 4.14 3.36 7.5 7.5 7.5zm0-1c3.59 0 6.5-2.91 6.5-6.5 0-3.59-2.91-6.5-6.5-6.5s-6.5 2.91-6.5 6.5c0 3.59 2.91 6.5 6.5 6.5z" clip-rule="evenodd" fill="#000" fill-rule="evenodd"/></svg>
