<svg viewBox="0 0 24 24" xmlns="http://www.w3.org/2000/svg"><path d="m15 0.5c0-0.276 0.224-0.5 0.5-0.5h6c0.188 0 0.36 0.105 0.445 0.272 0.0855 0.167 0.0701 0.368-0.0399 0.52l-5.93 8.21h5.52c0.276 0 0.5 0.224 0.5 0.5s-0.224 0.5-0.5 0.5h-6.5c-0.188 0-0.36-0.105-0.445-0.272s-0.0701-0.368 0.0399-0.52l5.93-8.21h-5.02c-0.276 0-0.5-0.224-0.5-0.5z" fill="#000"/><path d="m5 21.5c0 0.276-0.224 0.5-0.5 0.5s-0.5-0.224-0.5-0.5v-17.8l-3.15 3.15c-0.195 0.195-0.512 0.195-0.707 0-0.195-0.195-0.195-0.512 0-0.707l4-4c0.195-0.195 0.512-0.195 0.707 0l4 4c0.195 0.195 0.195 0.512 0 0.707-0.195 0.195-0.512 0.195-0.707 0l-3.15-3.15v17.8z" fill="#000"/><path d="m18.5 14.3c-0.0747-0.192-0.26-0.319-0.466-0.319s-0.391 0.127-0.466 0.319l-3.5 9c-0.1 0.257 0.0274 0.547 0.285 0.647s0.547-0.0274 0.647-0.285l1.04-2.68h3.98l1.04 2.68c0.1 0.257 0.39 0.385 0.647 0.285 0.257-0.1 0.385-0.39 0.285-0.647l-3.5-9zm1.14 5.68-1.6-4.12-1.6 4.12h3.2z" clip-rule="evenodd" fill="#000" fill-rule="evenodd"/></svg>
