<svg viewBox="0 0 24 24" xmlns="http://www.w3.org/2000/svg"><path d="m9.5 10c0.276 0 0.5 0.224 0.5 0.5v7c0 0.276-0.224 0.5-0.5 0.5s-0.5-0.224-0.5-0.5v-7c0-0.276 0.224-0.5 0.5-0.5z" fill="#000"/><path d="m15 10.5c0-0.276-0.224-0.5-0.5-0.5s-0.5 0.224-0.5 0.5v7c0 0.276 0.224 0.5 0.5 0.5s0.5-0.224 0.5-0.5v-7z" fill="#000"/><path d="m8 4c0-1.4 0-2.1 0.272-2.63 0.24-0.47 0.622-0.853 1.09-1.09 0.535-0.272 1.23-0.272 2.63-0.272s2.1 0 2.64 0.272c0.47 0.24 0.853 0.622 1.09 1.09 0.272 0.535 0.272 1.23 0.272 2.63h6.5c0.276 0 0.5 0.224 0.5 0.5s-0.224 0.5-0.5 0.5h-1.54l-1 12.7c-0.0806 1.02-0.144 1.82-0.245 2.46-0.103 0.648-0.251 1.17-0.523 1.64-0.453 0.78-1.13 1.41-1.94 1.8-0.488 0.234-1.02 0.341-1.68 0.392-0.644 0.0508-1.44 0.0508-2.47 0.0508h-2.21c-1.02 0-1.82 0-2.47-0.0508-0.654-0.0517-1.19-0.158-1.68-0.392-0.813-0.39-1.49-1.02-1.94-1.8-0.272-0.468-0.42-0.993-0.523-1.64-0.101-0.638-0.164-1.43-0.245-2.46l-1-12.7h-1.54c-0.276 0-0.5-0.224-0.5-0.5s0.224-0.5 0.5-0.5h6.5zm6.97-1.56c0.0299 0.367 0.0307 0.844 0.0307 1.56h-6c0-0.717 7.8e-4 -1.19 0.0307-1.56 0.029-0.355 0.0803-0.518 0.133-0.62 0.144-0.282 0.373-0.512 0.656-0.656 0.103-0.0524 0.265-0.104 0.62-0.133 0.367-0.03 0.844-0.0307 1.56-0.0307s1.19 7.8e-4 1.56 0.0307c0.355 0.029 0.518 0.0803 0.62 0.133 0.282 0.144 0.512 0.373 0.656 0.656 0.0525 0.103 0.104 0.265 0.133 0.62zm-10.9 2.56h15.9l-0.992 12.6c-0.0827 1.05-0.143 1.8-0.237 2.4-0.0934 0.588-0.215 0.977-0.4 1.3-0.352 0.607-0.879 1.09-1.51 1.4-0.332 0.16-0.73 0.25-1.32 0.297-0.6 0.0473-1.36 0.0477-2.41 0.0477h-2.17c-1.05 0-1.81-4e-4 -2.41-0.0477-0.594-0.0469-0.991-0.138-1.32-0.297-0.632-0.304-1.16-0.79-1.51-1.4-0.185-0.319-0.307-0.708-0.4-1.3-0.0944-0.594-0.155-1.35-0.237-2.4l-0.992-12.6z" clip-rule="evenodd" fill="#000" fill-rule="evenodd"/></svg>
