<svg viewBox="0 0 24 24" xmlns="http://www.w3.org/2000/svg"><path d="m3 9.5c0-0.148 0.0936-0.636 0.388-1.32 0.287-0.661 0.744-1.46 1.42-2.23 1.35-1.52 3.59-2.96 7.19-2.96 3.57 0 5.81 1.66 7.18 3.32 0.686 0.835 1.15 1.67 1.44 2.3 0.0646 0.139 0.121 0.268 0.169 0.383h-5.29c-0.276 0-0.5 0.224-0.5 0.5s0.224 0.5 0.5 0.5h5.99c0.0267 6e-4 0.0537-9.4e-4 0.0808-0.00477 0.0592-0.0082 0.115-0.0268 0.166-0.0538 0.0655-0.0348 0.121-0.0831 0.164-0.14 0.0438-0.058 0.0753-0.126 0.0905-0.199 0.0076-0.0367 0.0112-0.0744 0.0103-0.113v-5.99c0-0.276-0.224-0.5-0.5-0.5s-0.5 0.224-0.5 0.5v3.7c-0.278-0.476-0.625-0.994-1.05-1.51-1.51-1.84-4.02-3.68-7.95-3.68-3.9 0-6.41 1.57-7.94 3.29-0.758 0.857-1.27 1.75-1.59 2.49-0.315 0.726-0.471 1.36-0.471 1.71 0 0.276 0.224 0.5 0.5 0.5 0.276 0 0.5-0.224 0.5-0.5z" fill="#000"/><path d="m20.6 15.8c0.295-0.68 0.388-1.17 0.388-1.32 0-0.276 0.224-0.5 0.5-0.5s0.5 0.224 0.5 0.5c0 0.352-0.156 0.988-0.471 1.71-0.323 0.745-0.834 1.64-1.59 2.49-1.53 1.73-4.03 3.29-7.94 3.29-3.93 0-6.44-1.84-7.95-3.68-0.426-0.518-0.773-1.04-1.05-1.51v3.7c0 0.276-0.224 0.5-0.5 0.5-0.276 0-0.5-0.224-0.5-0.5v-5.99c-0.0026-0.114 0.0344-0.224 0.101-0.313 0.043-0.057 0.0985-0.105 0.164-0.14 0.0506-0.027 0.106-0.0455 0.166-0.0537 0.0271-0.0039 0.0542-0.0054 0.081-0.0048h5.99c0.276 0 0.5 0.224 0.5 0.5s-0.224 0.5-0.5 0.5h-5.29c0.048 0.116 0.104 0.244 0.169 0.383 0.292 0.628 0.755 1.46 1.44 2.3 1.36 1.66 3.61 3.32 7.18 3.32 3.6 0 5.84-1.43 7.19-2.96 0.68-0.768 1.14-1.57 1.42-2.23z" fill="#000"/></svg>
