<svg viewBox="0 0 24 24" xmlns="http://www.w3.org/2000/svg"><path d="m11.4 3.09c0.359 0.161 0.59 0.518 0.59 0.912v16c0 0.394-0.231 0.751-0.59 0.912-0.359 0.161-0.78 0.0967-1.07-0.165l-9-8c-0.213-0.19-0.336-0.462-0.336-0.747 0-0.286 0.122-0.558 0.336-0.747l9-8c0.294-0.262 0.715-0.326 1.07-0.165z" fill="#000"/><path d="m23.4 3.09c0.359 0.161 0.59 0.518 0.59 0.912v16c0 0.394-0.231 0.751-0.59 0.912-0.359 0.161-0.78 0.0967-1.07-0.165l-9-8c-0.214-0.19-0.336-0.462-0.336-0.747 0-0.286 0.122-0.558 0.336-0.747l9-8c0.294-0.262 0.715-0.326 1.07-0.165z" fill="#000"/></svg>
