<svg fill="none" viewBox="0 0 16 16" xmlns="http://www.w3.org/2000/svg"><path d="m8 1c-1.38 0-2.5 1.12-2.5 2.5 0 0.797 0.372 1.51 0.954 1.96 0.195 0.154 0.248 0.428 0.123 0.643-0.124 0.215-0.388 0.306-0.619 0.214l-2.68-1.07c-0.612-0.245-1.28 0.206-1.28 0.865 0 0.353 0.199 0.676 0.515 0.834l3.21 1.6c0.169 0.0847 0.276 0.258 0.276 0.447v1c0 0.106-0.0335 0.209-0.0956 0.294l-2.14 2.94c-0.535 0.736-0.00953 1.77 0.901 1.77 0.36 0 0.697-0.174 0.906-0.466l1.61-2.25c0.399-0.558 1.23-0.558 1.63 0l1.61 2.25c0.209 0.293 0.547 0.466 0.906 0.466 0.91 0 1.44-1.03 0.901-1.77l-2.14-2.94c-0.0621-0.0855-0.0956-0.188-0.0956-0.294v-1c0-0.189 0.107-0.363 0.276-0.447l3.21-1.6c0.316-0.158 0.515-0.481 0.515-0.834 0-0.659-0.666-1.11-1.28-0.865l-2.68 1.07c-0.231 0.0923-0.494 0.00111-0.619-0.214-0.124-0.215-0.0718-0.489 0.123-0.643 0.582-0.459 0.954-1.17 0.954-1.96 0-1.38-1.12-2.5-2.5-2.5zm-3.5 2.5c0-1.93 1.57-3.5 3.5-3.5s3.5 1.57 3.5 3.5c0 0.442-0.0819 0.865-0.231 1.25l1.08-0.433c1.27-0.508 2.65 0.427 2.65 1.79 0 0.732-0.413 1.4-1.07 1.73l-2.93 1.47v0.528l2.04 2.81c1.02 1.4 0.0181 3.36-1.71 3.36-0.683 0-1.32-0.33-1.72-0.885l-1.61-2.25-1.61 2.25c-0.397 0.556-1.04 0.885-1.72 0.885-1.73 0-2.73-1.96-1.71-3.36l2.04-2.81v-0.528l-2.93-1.47c-0.655-0.327-1.07-0.996-1.07-1.73 0-1.37 1.38-2.3 2.65-1.79l1.08 0.433c-0.149-0.389-0.231-0.812-0.231-1.25z" clip-rule="evenodd" fill="#000" fill-rule="evenodd"/></svg>
