<svg xmlns="http://www.w3.org/2000/svg" viewBox="0 0 16 16" fill="none">
  <path fill="#000"
    d="M5 3.5a.5.5 0 0 1 .5-.5h5a.5.5 0 0 1 0 1h-5a.5.5 0 0 1-.5-.5ZM6.5 5a.5.5 0 1 0 0 1h3a.5.5 0 0 0 0-1h-3Z" />
  <path fill="#000" fill-rule="evenodd"
    d="M2 1.5A1.5 1.5 0 0 1 3.5 0h9A1.5 1.5 0 0 1 14 1.5v10a1.5 1.5 0 0 1-.729 1.287l-.14.423a2.5 2.5 0 0 0 0 1.58l.07.21h.299a.5.5 0 0 1 0 1H4a2 2 0 0 1-2-2V1.5ZM12.5 1h-9a.5.5 0 0 0-.5.5v10.768A1.99 1.99 0 0 1 4 12h8.5a.5.5 0 0 0 .5-.5v-10a.5.5 0 0 0-.5-.5Zm-.352 12H4a1 1 0 1 0 0 2h8.148a3.499 3.499 0 0 1 0-2Z"
    clip-rule="evenodd" />
</svg>