<svg xmlns="http://www.w3.org/2000/svg" viewBox="0 0 16 16" fill="none">
  <path fill="#000"
    d="M6 7.5a.5.5 0 0 0-.5-.5h-1a.5.5 0 0 0-.5.5v1a.5.5 0 0 0 .5.5h1a.5.5 0 0 0 .5-.5v-1Zm0 3a.5.5 0 0 0-.5-.5h-1a.5.5 0 0 0-.5.5v1a.5.5 0 0 0 .5.5h1a.5.5 0 0 0 .5-.5v-1ZM7.5 7h1a.5.5 0 0 1 .5.5v1a.5.5 0 0 1-.5.5h-1a.5.5 0 0 1-.5-.5v-1a.5.5 0 0 1 .5-.5Zm1 3h-1a.5.5 0 0 0-.5.5v1a.5.5 0 0 0 .5.5h1a.5.5 0 0 0 .5-.5v-1a.5.5 0 0 0-.5-.5ZM10 7.5a.5.5 0 0 1 .5-.5h1a.5.5 0 0 1 .5.5v1a.5.5 0 0 1-.5.5h-1a.5.5 0 0 1-.5-.5v-1Z" />
  <path fill="#000" fill-rule="evenodd"
    d="M4.5 0a.5.5 0 0 1 .5.5V1h6V.5a.5.5 0 0 1 1 0V1a3 3 0 0 1 3 3v8a3 3 0 0 1-3 3H4a3 3 0 0 1-3-3V4a3 3 0 0 1 3-3V.5a.5.5 0 0 1 .5-.5ZM14 4v1H2V4a2 2 0 0 1 2-2v.5a.5.5 0 0 0 1 0V2h6v.5a.5.5 0 0 0 1 0V2a2 2 0 0 1 2 2ZM2 12V6h12v6a2 2 0 0 1-2 2H4a2 2 0 0 1-2-2Z"
    clip-rule="evenodd" />
</svg>