<svg xmlns="http://www.w3.org/2000/svg" viewBox="0 0 16 16" fill="none">
  <path fill="#000" fill-rule="evenodd"
    d="M5.196 4C4.558 3.567 4 2.926 4 2c0-.607.192-1.115.54-1.474a1.754 1.754 0 0 1 1.273-.527c.937 0 1.872.678 2.172 1.88L8 1.94l.015-.06C8.315.677 9.25 0 10.187 0c.466 0 .929.17 1.274.527C11.808.885 12 1.393 12 2c0 .926-.558 1.567-1.196 2H12.6c.84 0 1.26 0 1.581.164a1.5 1.5 0 0 1 .655.655C15 5.14 15 5.56 15 6.4v.2c0 .84 0 1.26-.164 1.581a1.5 1.5 0 0 1-.655.656 1.097 1.097 0 0 1-.181.072V13.6c0 .84 0 1.26-.164 1.581a1.5 1.5 0 0 1-.655.656c-.32.163-.74.163-1.581.163H4.4c-.84 0-1.26 0-1.581-.163a1.5 1.5 0 0 1-.656-.656C2 14.861 2 14.441 2 13.601V8.908a1.095 1.095 0 0 1-.181-.072 1.5 1.5 0 0 1-.656-.656C1 7.861 1 7.441 1 6.601v-.2c0-.84 0-1.26.163-1.582a1.5 1.5 0 0 1 .656-.655C2.139 4 2.559 4 3.4 4h1.796Zm5.546-2.779c.137.142.258.385.258.78 0 .666-.586 1.173-1.447 1.541a6.84 6.84 0 0 1-.959.323c.07-.372.188-.93.391-1.743.2-.798.765-1.123 1.203-1.123.221 0 .415.079.554.222ZM7 5.001H3.4c-.437 0-.704 0-.904.016a1.281 1.281 0 0 0-.215.035.5.5 0 0 0-.226.222l-.004.007a1.282 1.282 0 0 0-.034.215c-.016.2-.017.468-.017.904v.2c0 .437 0 .704.017.904a1.282 1.282 0 0 0 .034.216.5.5 0 0 0 .23.23 1.281 1.281 0 0 0 .215.034C2.696 8 2.963 8 3.4 8H7V5Zm2 0v3h3.6c.437 0 .704-.001.904-.018a1.281 1.281 0 0 0 .215-.034l.008-.003a.5.5 0 0 0 .218-.219l.004-.007a1.29 1.29 0 0 0 .034-.215c.016-.2.017-.468.017-.905v-.2c0-.436 0-.704-.017-.903a1.29 1.29 0 0 0-.034-.216l-.004-.008a.5.5 0 0 0-.218-.218l-.004-.002-.004-.001a1.281 1.281 0 0 0-.215-.034C13.304 5 13.036 5 12.6 5H9ZM7 9H3v4.6c0 .436 0 .703.017.903a1.281 1.281 0 0 0 .034.216.5.5 0 0 0 .23.23 1.29 1.29 0 0 0 .215.034c.2.015.467.016.904.016H7V9Zm2 6h2.6c.437 0 .704-.002.904-.018a1.29 1.29 0 0 0 .215-.034.5.5 0 0 0 .226-.222l.004-.008a1.29 1.29 0 0 0 .034-.215c.016-.2.017-.467.017-.904V9H9v6ZM5 2c0-.395.12-.638.258-.78A.755.755 0 0 1 5.812 1c.438 0 1.003.325 1.203 1.123.203.813.322 1.37.39 1.743a6.84 6.84 0 0 1-.958-.323C5.586 3.174 5 2.667 5 2Z"
    clip-rule="evenodd" />
</svg>