<svg xmlns="http://www.w3.org/2000/svg" viewBox="0 0 16 16" fill="none">
  <path fill="#000"
    d="M8 0a8 8 0 1 1 0 16A8 8 0 0 1 8 0Zm1.763 11H6.236l.05.305c.119.655.266 1.245.43 1.753l.127.365C7.208 14.411 7.635 15 8 15s.792-.59 1.157-1.577l.126-.365c.182-.574.326-1.16.43-1.753l.05-.305Zm-4.544 0H1.674a7.014 7.014 0 0 0 4.76 3.824c-.531-.868-.953-2.165-1.198-3.71L5.219 11Zm9.107 0H10.78l-.016.114c-.245 1.545-.667 2.842-1.198 3.71a7.015 7.015 0 0 0 4.76-3.823ZM5.094 6H1.29A7.001 7.001 0 0 0 1 8c0 .695.101 1.367.29 2.001h3.804l-.038-.46a21.157 21.157 0 0 1 .038-3.54Zm4.803 0H6.103a19.393 19.393 0 0 0 0 4.002h3.794a19.38 19.38 0 0 0 0-4.002Zm4.813 0h-3.805l.04.46a21.148 21.148 0 0 1-.04 3.541h3.805c.189-.634.29-1.306.29-2 0-.696-.101-1.367-.29-2ZM6.434 1.175l-.071.018A7.015 7.015 0 0 0 1.673 5H5.22l.017-.114c.245-1.545.667-2.842 1.198-3.71h-.001ZM8 1c-.365 0-.792.59-1.157 1.577l-.126.365a13.54 13.54 0 0 0-.43 1.753L6.236 5h3.527l-.05-.305a13.538 13.538 0 0 0-.43-1.753l-.126-.365c-.341-.922-.736-1.497-1.083-1.57L8 1Zm1.566.176.065.108c.5.866.898 2.12 1.133 3.602L10.78 5h3.546a7.014 7.014 0 0 0-4.76-3.824Z" />
</svg>