<svg xmlns="http://www.w3.org/2000/svg" viewBox="0 0 16 16" fill="none">
  <path fill="#000"
    d="M9.5 5a.5.5 0 1 0 0 1h3a.5.5 0 0 0 0-1h-3Zm0 2a.5.5 0 1 0 0 1h3a.5.5 0 0 0 0-1h-3ZM9 9.5a.5.5 0 0 1 .5-.5h2a.5.5 0 0 1 0 1h-2a.5.5 0 0 1-.5-.5Zm-2.395-3C6.605 7.33 5.887 8 5 8s-1.605-.67-1.605-1.5C3.395 5.672 4.113 5 5 5s1.605.672 1.605 1.5ZM5 8h-.04c-.92 0-1.722.585-1.945 1.419-.079.295.16.581.486.581H6.5c.326 0 .565-.286.486-.581C6.762 8.585 5.96 8 5.04 8H5Z" />
  <path fill="#000" fill-rule="evenodd"
    d="M.327 3.638C0 4.28 0 5.12 0 6.8v2.4c0 1.68 0 2.52.327 3.162a3 3 0 0 0 1.311 1.311C2.28 14 3.12 14 4.8 14h6.4c1.68 0 2.52 0 3.162-.327a3 3 0 0 0 1.311-1.31C16 11.72 16 10.88 16 9.2V6.8c0-1.68 0-2.52-.327-3.162a3 3 0 0 0-1.311-1.31C13.72 2 12.88 2 11.2 2H4.8c-1.68 0-2.52 0-3.162.327A3 3 0 0 0 .327 3.638ZM11.2 3H4.8c-.857 0-1.439.001-1.889.038-.438.036-.663.1-.819.18a2 2 0 0 0-.874.874c-.08.157-.145.38-.18.82C1 5.361 1 5.943 1 6.8v2.4c0 .857 0 1.44.038 1.89.035.438.1.662.18.818a2 2 0 0 0 .874.874c.156.08.38.145.819.18C3.361 13 3.943 13 4.8 13h6.4c.857 0 1.439 0 1.889-.037.438-.036.663-.101.819-.18a2 2 0 0 0 .874-.875c.08-.156.145-.38.18-.819C15 10.64 15 10.057 15 9.2V6.8c0-.856 0-1.439-.038-1.889-.035-.438-.1-.662-.18-.819a2 2 0 0 0-.874-.874c-.156-.08-.38-.144-.819-.18C12.639 3 12.057 3 11.2 3Z"
    clip-rule="evenodd" />
</svg>