<svg xmlns="http://www.w3.org/2000/svg" viewBox="0 0 16 16" fill="none">
  <path fill="#000" fill-rule="evenodd"
    d="M4.333 2a2.5 2.5 0 0 0-2.307 1.54L.192 7.94A2.5 2.5 0 0 0 0 8.9v2.6A2.5 2.5 0 0 0 2.5 14h11a2.5 2.5 0 0 0 2.5-2.5V8.9a2.5 2.5 0 0 0-.192-.961l-1.834-4.4A2.5 2.5 0 0 0 11.667 2H4.333ZM2.95 3.923A1.5 1.5 0 0 1 4.333 3h7.334a1.5 1.5 0 0 1 1.384.923L14.75 8h-2.132a1.5 1.5 0 0 0-1.342.83l-.447.894a.5.5 0 0 1-.447.276H5.618a.5.5 0 0 1-.447-.276l-.447-.895A1.5 1.5 0 0 0 3.382 8H1.25l1.699-4.077ZM1.5 9a.5.5 0 0 0-.5.5v2A1.5 1.5 0 0 0 2.5 13h11a1.5 1.5 0 0 0 1.5-1.5v-2a.5.5 0 0 0-.5-.5h-1.882a.5.5 0 0 0-.447.277l-.447.894a1.5 1.5 0 0 1-1.342.83H5.618a1.5 1.5 0 0 1-1.342-.83l-.447-.894A.5.5 0 0 0 3.382 9H1.5Z"
    clip-rule="evenodd" />
</svg>