<svg xmlns="http://www.w3.org/2000/svg" viewBox="0 0 16 16" fill="none">
  <path fill="#000"
    d="M15 5.277V3a2 2 0 0 0-2-2s-3 3-6 3H1.5A1.5 1.5 0 0 0 0 5.5v3A1.5 1.5 0 0 0 1.5 10h1.75s-.077.677-.154 1.226a7.938 7.938 0 0 0 .003 2.02c.095.636.296 1.386.913 1.65.147.063.312.104.494.104C5.283 15 6 14.823 6 14.25c0-.574-.5-.732-.5-1.25s.25-.576.25-1c0-.424-.25-.424-.25-1 0-.576.586-1 1.5-1 3 0 6 3 6 3a2 2 0 0 0 2-2V8.723c.595-.347 1-.985 1-1.723 0-.738-.405-1.376-1-1.723ZM14 11a1 1 0 0 1-.668.943C12.376 11.093 9.747 9 7 9H1.75A.75.75 0 0 1 1 8.25v-2.5A.75.75 0 0 1 1.75 5H7c2.747 0 5.376-2.092 6.332-2.943A1 1 0 0 1 14 3v8Z" />
</svg>