<svg xmlns="http://www.w3.org/2000/svg" viewBox="0 0 16 16" fill="none">
  <path fill="#000"
    d="M8 4.5A1.25 1.25 0 1 0 8 2a1.25 1.25 0 0 0 0 2.5Zm0 0c.597 0 1.127.382 1.316.949l.087.26a.221.221 0 0 1-.21.291H6.807a.221.221 0 0 1-.21-.29l.087-.261A1.387 1.387 0 0 1 8 4.5Zm-3 4a.5.5 0 0 1 .5-.5h5a.5.5 0 0 1 0 1h-5a.5.5 0 0 1-.5-.5Zm0 2a.5.5 0 0 1 .5-.5h5a.5.5 0 0 1 0 1h-5a.5.5 0 0 1-.5-.5Zm.5 1.5a.5.5 0 0 0 0 1h2a.5.5 0 0 0 0-1h-2Z" />
  <path fill="#000" fill-rule="evenodd"
    d="M2.327 1.638C2 2.28 2 3.12 2 4.8v6.4c0 1.68 0 2.52.327 3.162a3 3 0 0 0 1.311 1.311C4.28 16 5.12 16 6.8 16h2.4c1.68 0 2.52 0 3.162-.327a3 3 0 0 0 1.311-1.31C14 13.72 14 12.88 14 11.2V4.8c0-1.68 0-2.52-.327-3.162a3 3 0 0 0-1.311-1.31C11.72 0 10.88 0 9.2 0H6.8C5.12 0 4.28 0 3.638.327a3 3 0 0 0-1.311 1.311ZM9.2 1H6.8c-.857 0-1.439.001-1.889.038-.438.036-.663.1-.819.18a2 2 0 0 0-.874.874c-.08.157-.145.38-.18.82C3 3.361 3 3.943 3 4.8v6.4c0 .857 0 1.44.038 1.89.035.438.1.662.18.818a2 2 0 0 0 .874.874c.156.08.38.145.819.18C5.361 15 5.943 15 6.8 15h2.4c.857 0 1.439 0 1.889-.037.438-.036.663-.101.819-.18a2 2 0 0 0 .874-.875c.08-.156.145-.38.18-.819C13 12.64 13 12.057 13 11.2V4.8c0-.856 0-1.439-.038-1.889-.035-.438-.1-.662-.18-.819a2 2 0 0 0-.874-.874c-.156-.08-.38-.144-.819-.18C10.639 1 10.057 1 9.2 1Z"
    clip-rule="evenodd" />
</svg>