<svg xmlns="http://www.w3.org/2000/svg" viewBox="0 0 16 16" fill="none">
  <path fill="#000" d="M7.25 7.25a.75.75 0 1 0 1.5 0v-3.5a.75.75 0 1 0-1.5 0v3.5ZM8 10a1 1 0 1 0 0 2 1 1 0 0 0 0-2Z" />
  <path fill="#000" fill-rule="evenodd"
    d="M5.925 0c-.297 0-.596 0-.887.07a2.5 2.5 0 0 0-.723.299C4.06.526 3.85.737 3.64.947L.947 3.64c-.21.209-.422.42-.578.676a2.5 2.5 0 0 0-.3.722C0 5.33 0 5.628 0 5.925v4.151c0 .296 0 .595.07.887a2.5 2.5 0 0 0 .299.722c.156.256.368.467.578.676l2.692 2.693c.21.21.42.421.676.578.224.137.468.238.723.3.291.07.59.069.887.068h4.15c.297 0 .596.001.887-.069.255-.06.5-.162.723-.299.256-.157.467-.368.676-.578l2.693-2.693c.21-.21.421-.42.578-.676.137-.223.238-.467.3-.722.07-.292.069-.59.068-.887V5.925c0-.297.001-.595-.069-.887a2.501 2.501 0 0 0-.3-.722c-.156-.256-.367-.467-.577-.676L12.36.947c-.21-.21-.42-.421-.676-.578a2.5 2.5 0 0 0-.723-.3C10.671 0 10.372 0 10.076 0H5.925ZM4.297 1.703c.26-.259.39-.389.54-.482a1.5 1.5 0 0 1 .434-.18c.173-.04.356-.04.723-.04h4.012c.367 0 .55 0 .723.04.153.038.3.098.434.18.15.093.28.223.54.482l2.594 2.595c.26.259.39.389.482.54.082.134.143.28.18.434.041.172.041.356.041.723v4.011c0 .367 0 .55-.041.723-.037.153-.098.3-.18.434-.093.151-.222.281-.482.54l-2.594 2.595c-.26.259-.39.389-.54.481a1.5 1.5 0 0 1-.434.18c-.173.041-.356.041-.723.041H5.994c-.367 0-.55 0-.723-.041a1.5 1.5 0 0 1-.433-.18c-.152-.092-.281-.222-.54-.482l-2.595-2.594c-.26-.259-.39-.389-.482-.54a1.5 1.5 0 0 1-.18-.434c-.04-.172-.04-.356-.04-.723V5.995c0-.367 0-.55.04-.723a1.5 1.5 0 0 1 .18-.434c.093-.151.223-.281.482-.54l2.594-2.595Z"
    clip-rule="evenodd" />
</svg>