<svg xmlns="http://www.w3.org/2000/svg" viewBox="0 0 16 16" fill="none">
  <path fill="#000" d="M11.909 5.122a1.03 1.03 0 1 0 0-2.06 1.03 1.03 0 0 0 0 2.06Z" />
  <path fill="#000" fill-rule="evenodd"
    d="M15 2.03C15 1.463 14.539 1 13.97 1H9.76a2.06 2.06 0 0 0-1.458.604L1.604 8.302a2.061 2.061 0 0 0 0 2.915l3.18 3.18c.804.804 2.11.804 2.914 0l6.698-6.699c.387-.386.604-.91.604-1.457v-4.21ZM9.76 2H14v4.241c0 .273-.14.536-.332.729L6.97 13.668a1.03 1.03 0 0 1-1.458 0l-3.18-3.18a1.03 1.03 0 0 1 0-1.457l6.699-6.698c.193-.194.455-.333.728-.333Z"
    clip-rule="evenodd" />
</svg>