<svg fill="none" viewBox="0 0 16 16" xmlns="http://www.w3.org/2000/svg"><path d="m0.5 1.5h10" stroke="#fff" stroke-linecap="round"/><path d="m0.5 5.5h5" stroke="#fff" stroke-linecap="round"/><path d="m0.5 9.5h1.5" stroke="#fff" stroke-linecap="round"/><path d="m0.5 13.5h1" stroke="#fff" stroke-linecap="round"/><path d="m14 0.00355 0.614 0.0912 0.0016-0.00252c0.405 0.0626 0.766 0.286 0.999 0.62l0.354 0.51c0.0658 0.0967 0.0699 0.225 0.0073 0.326l-0.996 1.6-1.09 0.63-1.69 2.89 0.0305-0.0421c0.78 0.606 1.33 1.35 1.17 2.39-0.123 0.761-0.502 1.01-0.898 1.27-0.293 0.193-0.595 0.392-0.809 0.809l-0.0026-0.0015c-0.176 0.343-0.162 0.756-0.147 1.22 0.0286 0.856 0.0628 1.88-1.09 2.94-1.69 1.55-3.72 0.261-4.35-0.139-0.0326-0.0207-0.0615-0.0391-0.0863-0.0545s-0.0541-0.0331-0.0871-0.0531c-0.638-0.387-2.7-1.63-2.06-3.84 0.437-1.5 1.37-1.93 2.15-2.28 0.421-0.192 0.798-0.363 1.03-0.674 0.279-0.377 0.323-0.736 0.366-1.08 0.0581-0.471 0.114-0.921 0.741-1.37 0.861-0.615 1.78-0.447 2.68-0.0098l0.0065 0.00399 1.8-2.76 0.0664-1.19c0.0077-0.0406 0.0205-0.0781 0.0424-0.113l0.961-1.55c0.0626-0.101 0.177-0.156 0.295-0.138z" fill="#000"/></svg>
