<svg fill="none" viewBox="0 0 32 32" xmlns="http://www.w3.org/2000/svg"><path d="m1.87 6.66 4.78-4.78c0.692-0.692 1.04-1.04 1.44-1.29 0.358-0.219 0.748-0.381 1.16-0.479 0.46-0.111 0.949-0.111 1.93-0.111h9.63c0.978 0 1.47 0 1.93 0.111 0.408 0.098 0.798 0.26 1.16 0.479 0.404 0.247 0.75 0.593 1.44 1.29l4.78 4.78c0.692 0.692 1.04 1.04 1.29 1.44 0.219 0.358 0.381 0.748 0.479 1.16 0.11 0.46 0.11 0.949 0.11 1.93v9.63c0 0.978 0 1.47-0.11 1.93-0.098 0.408-0.26 0.798-0.479 1.16-0.247 0.404-0.593 0.75-1.29 1.44l-4.78 4.78c-0.692 0.692-1.04 1.04-1.44 1.29-0.358 0.219-0.748 0.381-1.16 0.479-0.46 0.11-0.95 0.11-1.93 0.11h-9.63c-0.978 0-1.47 0-1.93-0.11-0.408-0.098-0.798-0.26-1.16-0.479-0.404-0.247-0.75-0.593-1.44-1.29l-4.78-4.78c-0.692-0.692-1.04-1.04-1.29-1.44-0.219-0.358-0.381-0.748-0.479-1.16-0.111-0.46-0.111-0.95-0.111-1.93v-9.63c0-0.978 0-1.47 0.111-1.93 0.098-0.408 0.26-0.798 0.479-1.16 0.247-0.404 0.593-0.75 1.29-1.44z" fill="#000"/></svg>
