<svg xmlns="http://www.w3.org/2000/svg" viewBox="0 0 16 16" fill="none">
  <path fill="#000" fill-rule="evenodd"
    d="M4 8a4 4 0 0 1 4-4h1.167A3.833 3.833 0 0 1 13 7.834v.416a1.75 1.75 0 0 1-3.266.875C9.448 9.635 8.906 10 8 10c-1.5 0-2-1-2-2s.5-2 2-2c.702 0 1.185.22 1.5.555V6.5a.5.5 0 0 1 1 0v1.75a.75.75 0 0 0 1.5 0v-.416A2.833 2.833 0 0 0 9.167 5H8a3 3 0 1 0 .001 6H8.5c.694 0 1.13-.115 1.377-.214.124-.05.202-.096.244-.124l.037-.026a.5.5 0 1 1 .635.772 1.512 1.512 0 0 1-.117.086 2.33 2.33 0 0 1-.428.22C9.87 11.866 9.306 12 8.5 12h-.499A4.001 4.001 0 0 1 4 8Zm5 0c0 .352-.09.596-.206.735C8.705 8.842 8.51 9 8 9s-.705-.158-.794-.265C7.09 8.596 7 8.352 7 8c0-.351.09-.595.206-.735C7.295 7.158 7.49 7 8 7s.705.158.794.265C8.91 7.405 9 7.65 9 8Z"
    clip-rule="evenodd" />
  <path fill="#000" fill-rule="evenodd"
    d="M2 11.2V10H.5a.5.5 0 1 1 0-1H2V7H.5a.5.5 0 1 1 0-1H2V4.8c0-.29 0-.556.002-.8H.5a.5.5 0 1 1 0-1h1.529c.036-.588.116-1.005.298-1.362A3 3 0 0 1 3.638.328C4.28 0 5.12 0 6.8 0h3.4c1.68 0 2.52 0 3.162.327a3 3 0 0 1 1.311 1.311c.181.357.262.774.298 1.362h.529a.5.5 0 0 1 .5.5v2a.5.5 0 0 1-.5.5H15v2h.5a.5.5 0 0 1 .5.5v2a.5.5 0 0 1-.5.5H15v.2c0 1.68 0 2.52-.327 3.162a3 3 0 0 1-1.311 1.311C12.72 16 11.88 16 10.2 16H6.8c-1.68 0-2.52 0-3.162-.327a3 3 0 0 1-1.311-1.31c-.182-.357-.262-.774-.298-1.363H.5a.5.5 0 1 1 0-1h1.502C2 11.757 2 11.491 2 11.2Zm12-6.4c0-.856 0-1.439-.038-1.889-.035-.438-.1-.662-.18-.819a2 2 0 0 0-.874-.874c-.156-.08-.38-.144-.819-.18C11.639 1 11.057 1 10.2 1H6.8c-.857 0-1.439.001-1.889.038-.438.036-.663.1-.819.18a2 2 0 0 0-.874.874c-.08.157-.145.38-.18.82C3 3.361 3 3.943 3 4.8v6.4c0 .857 0 1.44.038 1.89.035.438.1.662.18.818a2 2 0 0 0 .874.874c.156.08.38.145.819.18C5.361 15 5.943 15 6.8 15h3.4c.857 0 1.439 0 1.889-.037.438-.036.663-.101.819-.18a2 2 0 0 0 .874-.875c.08-.156.145-.38.18-.819C14 12.64 14 12.057 14 11.2V4.8Z"
    clip-rule="evenodd" />
</svg>