<svg xmlns="http://www.w3.org/2000/svg" viewBox="0 0 16 16" fill="none">
  <path fill="#000"
    d="M4.054 11.273C4 11.38 4 11.52 4 11.8v.4c0 .28 0 .42.054.527a.5.5 0 0 0 .219.219C4.38 13 4.52 13 4.8 13h.4c.28 0 .42 0 .527-.054a.5.5 0 0 0 .218-.219C6 12.62 6 12.48 6 12.2v-.4c0-.28 0-.42-.054-.527a.5.5 0 0 0-.219-.218C5.62 11 5.48 11 5.2 11h-.4c-.28 0-.42 0-.527.055a.5.5 0 0 0-.218.218ZM7 11.8c0-.28 0-.42.054-.527a.5.5 0 0 1 .219-.218C7.38 11 7.52 11 7.8 11h.4c.28 0 .42 0 .527.055a.5.5 0 0 1 .218.218C9 11.38 9 11.52 9 11.8v.4c0 .28 0 .42-.055.527a.5.5 0 0 1-.218.219C8.62 13 8.48 13 8.2 13h-.4c-.28 0-.42 0-.527-.054a.5.5 0 0 1-.218-.219C7 12.62 7 12.48 7 12.2v-.4Zm3.055-.527C10 11.38 10 11.52 10 11.8v.4c0 .28 0 .42.055.527a.5.5 0 0 0 .218.219c.107.054.247.054.527.054h.4c.28 0 .42 0 .527-.054a.5.5 0 0 0 .218-.219C12 12.62 12 12.48 12 12.2v-.4c0-.28 0-.42-.055-.527a.5.5 0 0 0-.218-.218C11.62 11 11.48 11 11.2 11h-.4c-.28 0-.42 0-.527.055a.5.5 0 0 0-.218.218Z" />
  <path fill="#000" fill-rule="evenodd"
    d="M0 5.8c0-1.68 0-2.52.327-3.162a3 3 0 0 1 1.311-1.31C2.28 1 3.12 1 4.8 1h6.4c1.68 0 2.52 0 3.162.327a3 3 0 0 1 1.311 1.311C16 3.28 16 4.12 16 5.8v4.4c0 1.68 0 2.52-.327 3.162a3 3 0 0 1-1.311 1.311C13.72 15 12.88 15 11.2 15H4.8c-1.68 0-2.52 0-3.162-.327a3 3 0 0 1-1.311-1.31C0 12.72 0 11.88 0 10.2V5.8ZM4.8 2h6.4c.857 0 1.439.001 1.889.038.438.036.663.1.819.18a2 2 0 0 1 .874.874c.08.157.145.38.18.82C15 4.361 15 4.943 15 5.8v4.4c0 .857 0 1.44-.038 1.89-.035.438-.1.662-.18.818a2 2 0 0 1-.874.874c-.156.08-.38.145-.819.18-.45.037-1.032.038-1.889.038H4.8c-.857 0-1.439 0-1.889-.037-.438-.036-.663-.101-.819-.18a2 2 0 0 1-.874-.875c-.08-.156-.145-.38-.18-.819C1 11.64 1 11.057 1 10.2V5.8c0-.856 0-1.439.038-1.889.035-.438.1-.662.18-.819a2 2 0 0 1 .874-.874c.156-.08.38-.144.819-.18C3.361 2 3.943 2 4.8 2Z"
    clip-rule="evenodd" />
</svg>