<svg xmlns="http://www.w3.org/2000/svg" viewBox="0 0 16 16" fill="none">
  <path fill="#000" fill-rule="evenodd"
    d="M3.5 0A2.5 2.5 0 0 0 1 2.5v12A1.5 1.5 0 0 0 2.5 16h12a.5.5 0 1 0 0-1 .5.5 0 0 1-.5-.5v-2.585a1.5 1.5 0 0 0 1-1.415v-9A1.5 1.5 0 0 0 13.5 0h-10Zm10 11a.5.5 0 0 0 .5-.5v-9a.5.5 0 0 0-.5-.5H12v6a.5.5 0 0 1-.757.429L9 6.083 6.757 7.43A.5.5 0 0 1 6 7V1H3.5A1.5 1.5 0 0 0 2 2.5v8.586A1.48 1.48 0 0 1 2.5 11h11Zm-.5 1v2.5c0 .176.03.344.085.5H2.5a.5.5 0 0 1-.5-.5v-2a.5.5 0 0 1 .5-.5H13ZM7 1h4v5.117L9.257 5.072a.5.5 0 0 0-.514 0L7 6.117V1Z"
    clip-rule="evenodd" />
</svg>