<svg xmlns="http://www.w3.org/2000/svg" viewBox="0 0 16 16" fill="none">
  <path fill="#000" fill-rule="evenodd"
    d="M10 .5a.5.5 0 1 0-1 0v9a.5.5 0 0 0 1 0v-.309c.196.176.416.327.658.447C12.653 10.636 15 9.185 15 6.955v-.91c0-2.23-2.347-3.68-4.342-2.683a3.004 3.004 0 0 0-.658.447V.5Zm0 5.545v.91a2 2 0 1 0 4 0v-.91a2 2 0 1 0-4 0ZM3.618 3c-.875 0-1.674.494-2.065 1.277a.5.5 0 0 0 .894.447A1.309 1.309 0 0 1 3.618 4H4.5A1.5 1.5 0 0 1 6 5.5V6H3a2 2 0 1 0 0 4h1.5c.563 0 1.082-.186 1.5-.5a.5.5 0 0 0 1 0v-4A2.5 2.5 0 0 0 4.5 3h-.882ZM2 8a1 1 0 0 1 1-1h3v.5A1.5 1.5 0 0 1 4.5 9H3a1 1 0 0 1-1-1Z"
    clip-rule="evenodd" />
  <path fill="#000"
    d="M7.535 13.32a.5.5 0 0 1 .93 0l.683 1.726c.492 1.244 2.238 1.272 2.77.045l.767-1.77a.5.5 0 0 1 .887-.06l1.5 2.497a.5.5 0 1 0 .856-.518l-1.5-2.496c-.628-1.047-2.174-.944-2.66.176l-.767 1.771a.5.5 0 0 1-.924-.015l-.683-1.726c-.5-1.266-2.287-1.266-2.788 0l-.683 1.726a.5.5 0 0 1-.924.015l-.767-1.77c-.486-1.121-2.032-1.224-2.66-.177l-1.5 2.496a.5.5 0 1 0 .857.517l1.499-2.496a.5.5 0 0 1 .887.06l.767 1.77c.532 1.227 2.278 1.199 2.77-.045l.683-1.726Z" />
</svg>