<svg viewBox="0 0 16 16" xmlns="http://www.w3.org/2000/svg"><path d="m12.9 7.83c-0.183 0.206-0.5 0.225-0.706 0.0415l-4.17-3.7-4.17 3.7c-0.206 0.183-0.522 0.165-0.706-0.0415s-0.165-0.522 0.0415-0.706l4.5-4c0.189-0.168 0.475-0.168 0.664 0l4.5 4c0.206 0.183 0.225 0.499 0.0415 0.706z" clip-rule="evenodd" fill="#000" fill-rule="evenodd"/><path d="m12.9 11.8c-0.183 0.206-0.5 0.225-0.706 0.0415l-4.17-3.7-4.17 3.7c-0.206 0.184-0.522 0.165-0.706-0.0415s-0.165-0.522 0.0415-0.706l4.5-4c0.189-0.168 0.475-0.168 0.664 0l4.5 4c0.206 0.184 0.225 0.5 0.0415 0.706z" clip-rule="evenodd" fill="#000" fill-rule="evenodd"/></svg>
