<svg viewBox="0 0 16 16" xmlns="http://www.w3.org/2000/svg"><path d="m6 9.5c0 0.276 0.224 0.5 0.5 0.5 0.276 0 0.5-0.224 0.5-0.5v-1.5h0.25l1.1 1.76c0.0914 0.146 0.252 0.235 0.424 0.235h0.625c0.201 0 0.32-0.225 0.207-0.391l-1.15-1.68c0.328-0.106 0.61-0.323 0.797-0.612 0.187-0.29 0.269-0.635 0.231-0.978-0.0376-0.343-0.192-0.662-0.438-0.904-0.246-0.242-0.568-0.393-0.911-0.426l-0.144-0.00684h-1.5c-0.276 0-0.5 0.224-0.5 0.5v4zm2.06-3.5c0.119 0.0135 0.23 0.07 0.312 0.158 0.0813 0.0882 0.128 0.202 0.132 0.322 0.00388 0.12-0.0349 0.238-0.11 0.331-0.0756 0.0933-0.183 0.157-0.301 0.178l-0.0898 0.00781h-1v-1h1l0.0576 0.00293z" clip-rule="evenodd" fill="#000" fill-rule="evenodd"/><path d="m2.6 2c-0.263 0-0.521-0.00111-0.738 0.0166-0.228 0.0187-0.498 0.063-0.77 0.201-0.329 0.168-0.605 0.423-0.797 0.736l-0.0771 0.138-0.0869 0.203c-0.0715 0.201-0.1 0.395-0.114 0.566-0.0177 0.217-0.0166 0.475-0.0166 0.738v5.8c-7.63e-7 0.263-0.00111 0.522 0.0166 0.738 0.0187 0.228 0.063 0.498 0.201 0.77 0.192 0.376 0.498 0.682 0.874 0.874 0.271 0.138 0.541 0.182 0.77 0.201 0.217 0.0177 0.475 0.0166 0.738 0.0166h10.9c0.219 0 0.434 7e-4 0.615-0.0117 0.19-0.013 0.416-0.0437 0.65-0.141 0.49-0.203 0.879-0.592 1.08-1.08 0.0969-0.234 0.128-0.46 0.141-0.65 0.0124-0.181 0.0117-0.396 0.0117-0.615 0-1.15 6e-4 -2.06-0.0498-2.8-0.051-0.748-0.158-1.39-0.407-1.99-0.609-1.47-1.78-2.64-3.25-3.25-0.602-0.249-1.24-0.356-1.99-0.407-0.739-0.0504-1.65-0.0498-2.8-0.0498h-4.9zm4.9 1 1.54 0.00586c1.35 0.0178 2.18 0.0896 2.87 0.375l0.227 0.101c1.12 0.53 2 1.46 2.48 2.61l0.0673 0.175c0.314 0.894 0.314 2.05 0.314 4.24l-1e-3 0.309c-0.0035 0.271-0.0181 0.436-0.0752 0.574-0.101 0.245-0.296 0.44-0.541 0.541-0.184 0.0762-0.417 0.0762-0.883 0.0762h-10.9l-0.37-0.0019c-0.271-0.0043-0.453-0.0192-0.6-0.0713l-0.084-0.0362c-0.141-0.0719-0.262-0.176-0.354-0.303l-0.082-0.134c-0.0818-0.16-0.102-0.358-0.107-0.684l-0.00196-0.37v-5.8c0-0.56 4.1e-4 -0.84 0.109-1.05 0.0719-0.141 0.176-0.262 0.303-0.354l0.134-0.082c0.16-0.0818 0.358-0.102 0.684-0.107l0.37-0.00196h4.9z" clip-rule="evenodd" fill="#000" fill-rule="evenodd"/></svg>
