<svg fill="none" viewBox="0 0 16 16" xmlns="http://www.w3.org/2000/svg"><path d="m14 10.3v-5.76c0-0.828-0.672-1.5-1.5-1.5-0.0877 0-0.174 0.00754-0.257 0.022-0.0835 0.0144-0.165 0.0358-0.243 0.0634v-0.585c0-0.828-0.672-1.5-1.5-1.5-0.195 0-0.381 0.0373-0.552 0.105-0.173-0.637-0.756-1.11-1.45-1.11s-1.27 0.468-1.45 1.11c-0.171-0.0678-0.357-0.105-0.552-0.105-0.828 0-1.5 0.672-1.5 1.5v4.79l-0.146-0.146c-0.748-0.748-1.96-0.748-2.71 0-0.748 0.748-0.748 1.96 0 2.71l3.76 3.76c0.889 0.889 2.1 1.39 3.35 1.39 2.62 0 4.74-2.12 4.74-4.74zm-5.5-9.26c-0.276 0-0.5 0.224-0.5 0.5v5c0 0.276-0.224 0.5-0.5 0.5-0.276 0-0.5-0.224-0.5-0.5v-4c0-0.276-0.224-0.5-0.5-0.5-0.276 0-0.5 0.224-0.5 0.5v6c0 0.202-0.122 0.385-0.309 0.462-0.187 0.0774-0.402 0.0346-0.545-0.108l-1-1c-0.357-0.357-0.936-0.357-1.29 0-0.357 0.357-0.357 0.936 0 1.29l3.76 3.76c0.702 0.702 1.65 1.1 2.65 1.1 2.07 0 3.74-1.68 3.74-3.74v-5.76c0-0.276-0.224-0.5-0.5-0.5s-0.5 0.224-0.5 0.5v2c0 0.276-0.224 0.5-0.5 0.5s-0.5-0.224-0.5-0.5v-4c0-0.276-0.224-0.5-0.5-0.5s-0.5 0.224-0.5 0.5v4c0 0.276-0.224 0.5-0.5 0.5-0.276 0-0.5-0.224-0.5-0.5v-5c0-0.276-0.224-0.5-0.5-0.5z" clip-rule="evenodd" fill="#000" fill-rule="evenodd"/></svg>
