<svg fill="none" viewBox="0 0 16 16" xmlns="http://www.w3.org/2000/svg"><path d="m12 4.5c0-0.276 0.224-0.5 0.5-0.5s0.5 0.224 0.5 0.5v1.63c0 0.23-0.0912 0.45-0.254 0.612-0.162 0.162-0.383 0.254-0.612 0.254h-8.43l1.15 1.15c0.0939 0.0938 0.147 0.221 0.147 0.354 9e-5 0.133-0.0525 0.26-0.146 0.354s-0.221 0.147-0.354 0.147c-0.133 9e-5 -0.26-0.0525-0.354-0.146l-2-2c-0.0937-0.0938-0.146-0.221-0.146-0.354s0.0526-0.26 0.146-0.354l2-2c0.0943-0.0911 0.221-0.141 0.352-0.14s0.257 0.0537 0.349 0.146 0.145 0.218 0.146 0.349-0.0493 0.257-0.14 0.352l-1.15 1.15h8.29v-1.5zm2.5-2.5h-13c-0.133 0-0.26 0.0527-0.354 0.146-0.0938 0.0938-0.146 0.221-0.146 0.354v8c0 0.133 0.0527 0.26 0.146 0.354 0.0938 0.0937 0.221 0.146 0.354 0.146h5.5c0.552 0 1 0.448 1 1v1.5c0 0.133 0.0527 0.26 0.146 0.354 0.0938 0.0937 0.221 0.146 0.354 0.146h6c0.133 0 0.26-0.0527 0.354-0.146 0.0937-0.0938 0.146-0.221 0.146-0.354v-11c0-0.133-0.0527-0.26-0.146-0.354-0.0938-0.0938-0.221-0.146-0.354-0.146zm0-1c0.398 0 0.779 0.158 1.06 0.439s0.439 0.663 0.439 1.06v11c0 0.398-0.158 0.779-0.439 1.06s-0.663 0.439-1.06 0.439h-6c-0.398 0-0.779-0.158-1.06-0.439s-0.439-0.663-0.439-1.06v-1.5h-5.5c-0.398 0-0.779-0.158-1.06-0.439-0.281-0.281-0.439-0.663-0.439-1.06v-8c0-0.398 0.158-0.779 0.439-1.06 0.281-0.281 0.663-0.439 1.06-0.439h13z" fill="#000"/></svg>
