<svg fill="none" viewBox="0 0 16 16" xmlns="http://www.w3.org/2000/svg"><path d="m4.5 2c-1.38 0-2.5 1.12-2.5 2.5s1.12 2.5 2.5 2.5h1c0.276 0 0.5 0.224 0.5 0.5v1c0 0.276-0.224 0.5-0.5 0.5h-1c-1.38 0-2.5 1.12-2.5 2.5s1.12 2.5 2.5 2.5 2.5-1.12 2.5-2.5v-1c0-0.276 0.224-0.5 0.5-0.5h1c0.276 0 0.5 0.224 0.5 0.5v1c0 1.38 1.12 2.5 2.5 2.5s2.5-1.12 2.5-2.5-1.12-2.5-2.5-2.5h-1c-0.276 0-0.5-0.224-0.5-0.5v-1c0-0.276 0.224-0.5 0.5-0.5h1c1.38 0 2.5-1.12 2.5-2.5s-1.12-2.5-2.5-2.5-2.5 1.12-2.5 2.5v1c0 0.276-0.224 0.5-0.5 0.5h-1c-0.276 0-0.5-0.224-0.5-0.5v-1c0-1.38-1.12-2.5-2.5-2.5zm4.5 5.5c0-0.276-0.224-0.5-0.5-0.5h-1c-0.276 0-0.5 0.224-0.5 0.5v1c0 0.276 0.224 0.5 0.5 0.5h1c0.276 0 0.5-0.224 0.5-0.5v-1zm-3-3v1c0 0.276-0.224 0.5-0.5 0.5h-1c-0.828 0-1.5-0.672-1.5-1.5s0.672-1.5 1.5-1.5 1.5 0.672 1.5 1.5zm5.5 1.5h-1c-0.276 0-0.5-0.224-0.5-0.5v-1c0-0.828 0.672-1.5 1.5-1.5s1.5 0.672 1.5 1.5-0.672 1.5-1.5 1.5zm-5.5 5.5v-1c0-0.276-0.224-0.5-0.5-0.5h-1c-0.828 0-1.5 0.672-1.5 1.5s0.672 1.5 1.5 1.5 1.5-0.672 1.5-1.5zm5.5-1.5h-1c-0.276 0-0.5 0.224-0.5 0.5v1c0 0.828 0.672 1.5 1.5 1.5s1.5-0.672 1.5-1.5-0.672-1.5-1.5-1.5z" clip-rule="evenodd" fill="#000" fill-rule="evenodd"/></svg>
