<svg fill="none" viewBox="0 0 16 16" xmlns="http://www.w3.org/2000/svg"><path d="m8.69 4.06c-0.0256-0.00467-0.0256-0.00467-0.0512-0.00906-0.422-0.0711-0.852-0.0711-1.27 0-0.0256 0.00438-0.0256 0.00438-0.0511 0.00905-0.405 0.0753-0.646 0.169-1.56 0.57l-4.66 2.05c-0.231 0.102-0.306 0.136-0.41 0.194-0.245 0.136-0.432 0.296-0.562 0.57-0.167 0.35-0.167 0.758-5.9e-5 1.11 0.0871 0.183 0.21 0.324 0.358 0.437 0.159 0.123 0.243 0.164 0.614 0.327l4.66 2.05c0.94 0.414 1.19 0.508 1.61 0.58 0.422 0.0711 0.852 0.0711 1.27 0 0.0128-0.0021 0.0192-0.0032 0.0256-0.0044 0.0064-0.0011 0.0128-0.0023 0.0256-0.0046 0.405-0.0753 0.646-0.169 1.56-0.57l4.66-2.05c0.231-0.102 0.306-0.136 0.41-0.194 0.245-0.136 0.432-0.296 0.562-0.57 0.167-0.35 0.167-0.758-3e-4 -1.11-0.13-0.274-0.316-0.433-0.562-0.569-0.104-0.0578-0.179-0.0923-0.41-0.194l-4.66-2.05c-0.912-0.402-1.15-0.495-1.56-0.57zm-1.16 0.977c0.312-0.0526 0.63-0.0526 0.942 0 0.352 0.0593 0.692 0.209 1.37 0.509l4.66 2.05c0.286 0.126 0.43 0.189 0.472 0.279 0.0371 0.0778 0.0371 0.17 0 0.248-0.0427 0.0896-0.186 0.153-0.472 0.279l-4.66 2.05c-0.681 0.3-1.02 0.449-1.37 0.509-0.312 0.0526-0.63 0.0526-0.942 0-0.352-0.0592-0.692-0.209-1.37-0.509l-4.66-2.05c-0.287-0.126-0.43-0.189-0.472-0.279-0.037-0.0778-0.037-0.17 0-0.248 0.0427-0.0896 0.186-0.153 0.472-0.279l4.66-2.05c0.681-0.3 1.02-0.449 1.37-0.509z" clip-rule="evenodd" fill="#000" fill-rule="evenodd"/></svg>
