<svg fill="none" viewBox="0 0 16 16" xmlns="http://www.w3.org/2000/svg"><path d="m16 2.5c0-0.166-0.0823-0.321-0.22-0.414-0.137-0.093-0.312-0.112-0.466-0.0502l-4.81 1.93-4.81-1.93c-0.119-0.0477-0.252-0.0477-0.371 0l-5 2c-0.19 0.0759-0.314 0.26-0.314 0.464v9c0 0.166 0.0823 0.321 0.22 0.414 0.137 0.0931 0.312 0.112 0.466 0.0502l4.81-1.93 4.81 1.93c0.119 0.0477 0.252 0.0477 0.371 0l5-2c0.19-0.0759 0.314-0.26 0.314-0.464v-9zm-10 0.739 4 1.6v7.92l-4-1.6v-7.92zm9 7.92-4 1.6v-7.92l4-1.6v7.92zm-10-7.92v7.92l-4 1.6v-7.92l4-1.6z" clip-rule="evenodd" fill="#000" fill-rule="evenodd"/></svg>
