<svg viewBox="0 0 16 16" xmlns="http://www.w3.org/2000/svg"><path d="m13 10v-4c0-0.946-5e-4 -1.6-0.0357-2.12-0.0346-0.507-0.0993-0.802-0.193-1.03-0.304-0.735-0.888-1.32-1.62-1.62-0.225-0.0934-0.521-0.158-1.03-0.193-0.516-0.0352-1.18-0.0357-2.12-0.0357s-1.6 5.4e-4 -2.12 0.0357c-0.507 0.0346-0.802 0.0993-1.03 0.193-0.735 0.304-1.32 0.889-1.62 1.62-0.0934 0.225-0.158 0.521-0.193 1.03-0.0352 0.516-0.0357 1.17-0.0357 2.12v4c0 0.946 5.4e-4 1.6 0.0357 2.12 0.0346 0.507 0.0993 0.802 0.193 1.03 0.304 0.735 0.889 1.32 1.62 1.62 0.225 0.0934 0.521 0.158 1.03 0.193 0.516 0.0352 1.17 0.0357 2.12 0.0357s1.6-5e-4 2.12-0.0357c0.507-0.0346 0.802-0.0993 1.03-0.193 0.735-0.304 1.32-0.888 1.62-1.62 0.0934-0.225 0.158-0.521 0.193-1.03 0.0352-0.516 0.0357-1.18 0.0357-2.12zm-10.7-7.53c-0.304 0.735-0.304 1.67-0.304 3.53v4c0 1.86 0 2.8 0.304 3.53 0.406 0.98 1.18 1.76 2.16 2.16 0.735 0.304 1.67 0.304 3.53 0.304s2.8 0 3.53-0.304c0.98-0.406 1.76-1.18 2.16-2.16 0.304-0.735 0.304-1.67 0.304-3.53v-4c0-1.86 0-2.8-0.304-3.53-0.406-0.98-1.18-1.76-2.16-2.16-0.735-0.304-1.67-0.304-3.53-0.304s-2.8 0-3.53 0.304c-0.98 0.406-1.76 1.18-2.16 2.16z" clip-rule="evenodd" fill="#000" fill-rule="evenodd"/><path d="m7 3c0-0.552 0.448-1 1-1s1 0.448 1 1v4c0 0.552-0.448 1-1 1s-1-0.448-1-1v-4z" fill="#000"/></svg>
