<svg viewBox="0 0 16 16" xmlns="http://www.w3.org/2000/svg"><path d="m11.6 4c0.0681 0.00333 0.135 0.0235 0.194 0.0586 0.02 0.012 0.0397 0.0265 0.0576 0.042 0.0072 0.00621 0.0156 0.0128 0.0225 0.0195 0.0074 0.00755 0.0137 0.0174 0.0205 0.0254 0.0197 0.0232 0.0388 0.0478 0.0527 0.0742 0.0282 0.0538 0.0439 0.114 0.0469 0.175 9e-4 0.0201 1e-3 0.0413-1e-3 0.0615-4e-3 0.0404-0.0142 0.0813-0.0303 0.12l-2.11 5.05-0.04 0.0732c-0.0114 0.017-0.0244 0.0337-0.0381 0.0488-0.0418 0.0462-0.0941 0.0831-0.152 0.107l-5.05 2.11-0.0596 0.0195c-0.03 0.0075-0.0615 0.012-0.0918 0.0127-0.0914 0.0021-0.183-0.0264-0.258-0.081l-0.0469-0.0401c-0.103-0.104-0.144-0.255-0.109-0.396l0.0205-0.0605 2.11-5.05c0.0432-0.103 0.127-0.186 0.229-0.229l5.05-2.11c0.0588-0.0245 0.122-0.0341 0.183-0.0312zm-3.6 3c-0.552 2.3e-4 -1 0.448-1 1 2.6e-4 0.552 0.448 1 1 1 0.552-2.5e-4 1-0.448 1-1-2.5e-4 -0.552-0.448-1-1-1z" clip-rule="evenodd" fill="#000" fill-rule="evenodd"/><path d="m1.07 4c2.21-3.83 7.1-5.14 10.9-2.93 3.83 2.21 5.14 7.1 2.93 10.9-2.21 3.83-7.1 5.14-10.9 2.93-3.83-2.21-5.14-7.1-2.93-10.9zm10.4-2.06c-3.35-1.93-7.63-0.786-9.56 2.56-1.93 3.35-0.785 7.63 2.56 9.56 3.35 1.93 7.63 0.786 9.56-2.56 1.93-3.35 0.786-7.63-2.56-9.56z" clip-rule="evenodd" fill="#000" fill-rule="evenodd"/></svg>
