<svg fill="none" viewBox="0 0 16 16" xmlns="http://www.w3.org/2000/svg"><path d="m14 7c0.255 2.8e-4 0.5 0.0979 0.685 0.273 0.185 0.175 0.297 0.414 0.312 0.669 0.0149 0.254-0.0679 0.505-0.232 0.7-0.164 0.195-0.396 0.321-0.649 0.351l-0.117 7e-3h-1v5.5c0 0.133-0.0527 0.26-0.146 0.354-0.0938 0.0937-0.221 0.146-0.354 0.146s-0.26-0.0527-0.354-0.146c-0.0937-0.0938-0.146-0.221-0.146-0.354v-5.5h-1c-0.265 0-0.52-0.105-0.707-0.293-0.188-0.188-0.293-0.442-0.293-0.707s0.105-0.52 0.293-0.707c0.188-0.188 0.442-0.293 0.707-0.293h3zm-5 3c0.255 3e-4 0.5 0.0979 0.685 0.273 0.185 0.175 0.297 0.414 0.312 0.669 0.0149 0.254-0.0678 0.505-0.231 0.7-0.164 0.196-0.396 0.321-0.649 0.351l-0.117 7e-3h-1v2.5c0 0.133-0.0527 0.26-0.146 0.354-0.0938 0.0937-0.221 0.146-0.354 0.146s-0.26-0.0527-0.354-0.146c-0.0938-0.0938-0.146-0.221-0.146-0.354v-2.5h-1c-0.265 0-0.52-0.105-0.707-0.293-0.188-0.188-0.293-0.442-0.293-0.707s0.105-0.52 0.293-0.707c0.188-0.188 0.442-0.293 0.707-0.293h3zm-5-4c0.255 2.8e-4 0.5 0.0979 0.685 0.273 0.185 0.175 0.297 0.414 0.312 0.669 0.0149 0.254-0.0678 0.505-0.231 0.7-0.164 0.195-0.396 0.321-0.649 0.351l-0.117 7e-3h-1v6.5c0 0.133-0.0527 0.26-0.146 0.354-0.0938 0.0937-0.221 0.146-0.354 0.146s-0.26-0.0527-0.354-0.146c-0.0938-0.0938-0.146-0.221-0.146-0.354l-1e-3 -6.5h-0.999c-0.265 0-0.52-0.105-0.707-0.293-0.188-0.188-0.293-0.442-0.293-0.707s0.105-0.52 0.293-0.707c0.188-0.188 0.442-0.293 0.707-0.293h3zm3.5-5c0.133 0 0.26 0.0527 0.354 0.146 0.0938 0.0938 0.146 0.221 0.146 0.354v7c0 0.133-0.0527 0.26-0.146 0.354-0.0938 0.0938-0.221 0.146-0.354 0.146s-0.26-0.0527-0.354-0.146c-0.0938-0.0938-0.146-0.221-0.146-0.354v-7c0-0.133 0.0527-0.26 0.146-0.354 0.0938-0.0938 0.221-0.146 0.354-0.146zm5 0c0.133 0 0.26 0.0527 0.354 0.146 0.0937 0.0938 0.146 0.221 0.146 0.354v4c0 0.133-0.0527 0.26-0.146 0.354-0.0938 0.0938-0.221 0.146-0.354 0.146s-0.26-0.0527-0.354-0.146c-0.0937-0.0938-0.146-0.221-0.146-0.354v-4c0-0.133 0.0527-0.26 0.146-0.354 0.0938-0.0938 0.221-0.146 0.354-0.146zm-10 0c0.133 0 0.26 0.0527 0.354 0.146 0.0938 0.0938 0.146 0.221 0.146 0.354v3c0 0.133-0.0527 0.26-0.146 0.354-0.0938 0.0938-0.221 0.146-0.354 0.146s-0.26-0.0527-0.354-0.146c-0.0938-0.0938-0.146-0.221-0.146-0.354v-3c0-0.133 0.0527-0.26 0.146-0.354 0.0938-0.0938 0.221-0.146 0.354-0.146z" fill="#000"/></svg>
