<svg viewBox="0 0 16 16" xmlns="http://www.w3.org/2000/svg"><path d="m7.5 0c0.276 0 0.5 0.224 0.5 0.5v8.79l3.15-3.15c0.195-0.195 0.512-0.195 0.707 0 0.195 0.195 0.195 0.512 0 0.707l-4 4c-0.0969 0.0968-0.224 0.146-0.351 0.146h-3e-3 -3e-3c-0.0667-4e-4 -0.13-0.0139-0.188-0.0379-0.059-0.0244-0.114-0.0606-0.162-0.108l-4-4c-0.195-0.195-0.195-0.512 0-0.707 0.195-0.195 0.512-0.195 0.707 0l3.15 3.15v-8.79c0-0.276 0.224-0.5 0.5-0.5z" fill="#000"/><path d="m7.5 16c0.828 0 1.5-0.672 1.5-1.5s-0.672-1.5-1.5-1.5-1.5 0.672-1.5 1.5 0.672 1.5 1.5 1.5z" fill="#000"/></svg>
