<svg fill="none" viewBox="0 0 16 16" xmlns="http://www.w3.org/2000/svg"><rect x=".5" y="1.5" width="15" height="13" rx="2.5" stroke="#000"/><path d="m2 4.6c0-0.56 0-0.84 0.109-1.05 0.0959-0.188 0.249-0.341 0.437-0.437 0.214-0.109 0.494-0.109 1.05-0.109h0.4v7h-2v-5.4z" fill="#000"/><path d="m12 3h0.4c0.56 0 0.84 0 1.05 0.109 0.188 0.0959 0.341 0.249 0.437 0.437 0.109 0.214 0.109 0.494 0.109 1.05v5.4h-2v-7z" fill="#000"/><path d="m2 11h12v0.4c0 0.56 0 0.84-0.109 1.05-0.0959 0.188-0.249 0.341-0.437 0.437-0.214 0.109-0.494 0.109-1.05 0.109h-8.8c-0.56 0-0.84 0-1.05-0.109-0.188-0.0959-0.341-0.249-0.437-0.437-0.109-0.214-0.109-0.494-0.109-1.05v-0.4z" fill="#000"/></svg>
