<svg viewBox="0 0 16 16" xmlns="http://www.w3.org/2000/svg"><path d="m6.5 7c-0.276 0-0.5 0.224-0.5 0.5s0.224 0.5 0.5 0.5h3c0.276 0 0.5-0.224 0.5-0.5s-0.224-0.5-0.5-0.5h-3z" fill="#000"/><path d="m1.5 2c-0.276 0-0.5 0.224-0.5 0.5v2c0 0.133 0.0527 0.26 0.146 0.354 0.0938 0.0938 0.221 0.146 0.354 0.146h0.5v7.5c0 0.828 0.672 1.5 1.5 1.5h9c0.828 0 1.5-0.672 1.5-1.5v-7.5h0.5c0.276 0 0.5-0.224 0.5-0.5v-2c0-0.276-0.224-0.5-0.5-0.5h-13zm1.5 10.5v-7.5h10v7.5c0 0.276-0.224 0.5-0.5 0.5h-9c-0.276 0-0.5-0.224-0.5-0.5zm11-8.5v-1h-12v1h12z" clip-rule="evenodd" fill="#000" fill-rule="evenodd"/></svg>
