<svg viewBox="0 0 16 16" xmlns="http://www.w3.org/2000/svg"><path d="m11.2 2h-6.4c-0.857 0-1.44 7.8e-4 -1.89 0.0376-0.438 0.0358-0.663 0.101-0.819 0.18-0.376 0.192-0.682 0.498-0.874 0.874-0.0797 0.156-0.145 0.381-0.18 0.819-0.0368 0.45-0.0376 1.03-0.0376 1.89v2.4c0 0.857 7.8e-4 1.44 0.0376 1.89 0.0358 0.438 0.101 0.663 0.18 0.819 0.192 0.376 0.498 0.682 0.874 0.874 0.156 0.0797 0.381 0.145 0.819 0.18 0.361 0.0295 0.934 0.0359 1.59 0.0372 0.276 6e-4 0.5 0.224 0.5 0.5s-0.224 0.5-0.5 0.5c-1.48-0.0028-2.28-0.0315-2.86-0.327-0.564-0.288-1.02-0.746-1.31-1.31-0.327-0.642-0.327-1.48-0.327-3.16v-2.4c0-1.68 0-2.52 0.327-3.16 0.288-0.564 0.747-1.02 1.31-1.31 0.642-0.327 1.48-0.327 3.16-0.327h6.4c1.68 0 2.52 0 3.16 0.327 0.564 0.288 1.02 0.747 1.31 1.31 0.327 0.642 0.327 1.48 0.327 3.16v2.4c0 1.68 0 2.52-0.327 3.16-0.288 0.564-0.746 1.02-1.31 1.31-0.173 0.0882-0.362-0.0515-0.362-0.246v-0.37c0-0.201 0.112-0.383 0.267-0.51 0.213-0.174 0.388-0.391 0.515-0.639 0.0797-0.156 0.145-0.381 0.18-0.819 0.0318-0.388 0.0367-0.874 0.0375-1.55l1e-4 -0.0392-1e-4 -0.0288 1e-4 -2.67c0-0.857-8e-4 -1.44-0.0376-1.89-0.0358-0.438-0.101-0.663-0.18-0.819-0.192-0.376-0.498-0.682-0.874-0.874-0.156-0.0797-0.381-0.145-0.819-0.18-0.45-0.0368-1.03-0.0376-1.89-0.0376z" fill="#000"/><path d="m12 15.5v-3.26c1.21-0.807 2-2.18 2-3.74 0-2.49-2.01-4.5-4.5-4.5-2.49 0-4.5 2.01-4.5 4.5 0 1.56 0.794 2.94 2 3.74v3.26c0 0.433 0.512 0.661 0.834 0.372l1.67-1.5 1.67 1.5c0.322 0.289 0.834 0.0606 0.834-0.372zm-0.556-4.09c-0.277 0.186-0.444 0.497-0.444 0.831v2.14l-0.832-0.747c-0.38-0.341-0.956-0.341-1.34 0l-0.832 0.747v-2.14c0-0.334-0.166-0.645-0.444-0.831-0.941-0.63-1.56-1.7-1.56-2.91 0-1.93 1.57-3.5 3.5-3.5s3.5 1.57 3.5 3.5c0 1.21-0.616 2.28-1.56 2.91z" clip-rule="evenodd" fill="#000" fill-rule="evenodd"/></svg>
