<svg viewBox="0 0 16 16" xmlns="http://www.w3.org/2000/svg"><path d="m5 7.29 2-2.29h1v6h-1v-4.29l-2 2.29-2-2.29v4.29h-1v-6h1l2 2.29z" fill="#000"/><path d="m11.5 11-2.5-3h2v-3h1v3h2l-2.5 3z" fill="#000"/><path d="m12.8 3c1.12 0 1.68-2.1e-4 2.11 0.218 0.376 0.192 0.682 0.498 0.874 0.874 0.218 0.428 0.218 0.988 0.218 2.11v3.6c0 1.12 2e-4 1.68-0.218 2.11l-0.0771 0.138c-0.192 0.313-0.468 0.569-0.797 0.736l-0.168 0.0713c-0.409 0.146-0.96 0.146-1.94 0.146h-9.6l-0.742-0.0029c-0.542-0.0085-0.906-0.0393-1.2-0.144l-0.168-0.0713c-0.329-0.168-0.605-0.423-0.797-0.736l-0.0771-0.138c-0.218-0.428-0.218-0.988-0.218-2.11v-3.6c-1.04e-13 -1.12-2.14e-4 -1.68 0.218-2.11 0.192-0.376 0.498-0.682 0.874-0.874 0.321-0.163 0.716-0.205 1.37-0.215l0.742-0.00293h9.6zm-9.6 1c-0.577 0-0.949 0.00126-1.23 0.0244-0.272 0.0222-0.372 0.0598-0.422 0.085-0.188 0.0958-0.341 0.249-0.437 0.437-0.0252 0.0494-0.0628 0.15-0.085 0.422-0.0232 0.283-0.0244 0.656-0.0244 1.23v3.6c0 0.577 0.00126 0.949 0.0244 1.23 0.0222 0.272 0.0598 0.372 0.085 0.422 0.0958 0.188 0.249 0.341 0.437 0.436 0.0494 0.0252 0.15 0.0628 0.422 0.085 0.283 0.0231 0.656 0.0244 1.23 0.0244h9.6c0.577 0 0.949-0.0013 1.23-0.0244 0.272-0.0222 0.372-0.0598 0.422-0.085 0.188-0.0958 0.341-0.248 0.436-0.436 0.0252-0.0494 0.0628-0.15 0.085-0.422 0.0231-0.283 0.0244-0.656 0.0244-1.23v-3.6c0-0.577-0.0013-0.949-0.0244-1.23-0.0222-0.272-0.0598-0.372-0.085-0.422-0.0958-0.188-0.248-0.341-0.436-0.437-0.0494-0.0252-0.15-0.0628-0.422-0.085-0.283-0.0232-0.656-0.0244-1.23-0.0244h-9.6z" clip-rule="evenodd" fill="#000" fill-rule="evenodd"/></svg>
