<svg viewBox="0 0 16 16" xmlns="http://www.w3.org/2000/svg"><path d="m0.821 7.73-0.821-0.00165 0.295-1.4 0.526 0.00101v-0.13c0-0.387 0.0616-0.717 0.181-0.992 0.122-0.281 0.291-0.51 0.511-0.686 0.228-0.182 0.497-0.317 0.809-0.401 0.319-0.0853 0.667-0.127 1.05-0.127l0.397 1.56-0.481-0.0107c-0.306-0.00677-0.535 0.0657-0.683 0.203-0.144 0.133-0.213 0.345-0.213 0.595l0.906-0.0169v1.4h-0.906v3.99l-1.57 0.181-5e-6 -4.17z" fill="#000"/><path d="m5.79 4.21 0.00495 7.52-1.59 0.204v-7.54l1.59-0.182z" fill="#000"/><path d="m6.22 10.1c0-1.14 0.742-1.93 1.84-1.92 0.551 0.00347 0.974 0.161 1.26 0.469l0.00206-0.299c0-0.252-0.0832-0.452-0.25-0.602-0.158-0.149-0.41-0.224-0.773-0.224-0.274 0-0.552 0.0452-0.77 0.106-0.218 0.0532-0.396 0.114-0.534 0.182l0.238-1.46c0.101-0.0421 0.278-0.0894 0.53-0.142 0.252-0.0526 0.57-0.0789 0.963-0.0789 0.579 0 1.14 0.174 1.51 0.515 0.44 0.403 0.539 0.688 0.542 1.48 0.0046 1.21-0.103 3.68-0.103 3.68l-1.38 0.135 0.0033-0.48c-0.292 0.356-0.715 0.561-1.24 0.565-1.04 0.0069-1.84-0.782-1.84-1.92zm3.05-0.111c0-0.427-0.339-0.716-0.771-0.716s-0.771 0.292-0.771 0.716c0 0.425 0.317 0.716 0.771 0.716s0.771-0.289 0.771-0.716z" clip-rule="evenodd" fill="#000" fill-rule="evenodd"/><path d="m11.3 9.04c0-1.75 1.25-2.95 2.83-2.95 0.726 0 1.38 0.252 1.88 0.694l-0.835 1.22c-0.236-0.243-0.56-0.382-0.924-0.382-0.737 0-1.36 0.578-1.36 1.42 0 0.77 0.588 1.43 1.36 1.43 0.391 0 0.721-0.148 0.954-0.402l0.85 1.23c-0.49 0.448-1.15 0.704-1.92 0.704-1.66 0-2.83-1.2-2.83-2.95z" fill="#000"/></svg>
