<svg fill="none" viewBox="0 0 16 16" xmlns="http://www.w3.org/2000/svg"><path d="m13.5 6c0.276 0 0.5-0.224 0.5-0.5 0-0.828-0.672-1.5-1.5-1.5h-5c-0.315 0-0.611-0.148-0.8-0.4l-0.9-1.2c-0.189-0.252-0.485-0.4-0.8-0.4h-3.5c-0.828 0-1.5 0.672-1.5 1.5v9c0 0.828 0.672 1.5 1.5 1.5h11.1c0.646 0 1.22-0.413 1.42-1.03l1.77-5.32c0.108-0.324-0.133-0.658-0.474-0.658h-10.8c-0.323 0-0.609 0.207-0.712 0.513l-1.83 5.49h-0.5c-0.276 0-0.5-0.224-0.5-0.5v-9c0-0.276 0.224-0.5 0.5-0.5h3.5l0.9 1.2c0.378 0.504 0.97 0.8 1.6 0.8h5c0.276 0 0.5 0.224 0.5 0.5s0.224 0.5 0.5 0.5z" fill="#000"/></svg>
