<svg viewBox="0 0 16 16" xmlns="http://www.w3.org/2000/svg"><path d="m12 13c-0.453 0-0.856-0.0785-1.21-0.236-0.354-0.16-0.634-0.396-0.841-0.707-0.203-0.314-0.305-0.705-0.305-1.17 0-0.394 0.0724-0.725 0.217-0.993 0.145-0.268 0.342-0.483 0.591-0.647 0.249-0.163 0.533-0.286 0.85-0.369 0.32-0.0831 0.656-0.142 1.01-0.175 0.412-0.0431 0.745-0.0831 0.998-0.12 0.252-0.04 0.436-0.0985 0.55-0.175s0.171-0.191 0.171-0.342v-0.0277c0-0.292-0.0923-0.519-0.277-0.679-0.182-0.16-0.44-0.24-0.776-0.24-0.354 0-0.636 0.0785-0.845 0.236-0.09 0.0661-0.167 0.14-0.231 0.221-0.147 0.187-0.355 0.348-0.592 0.328l-0.845-0.0686c-0.301-0.0244-0.516-0.312-0.392-0.587 0.0953-0.21 0.218-0.403 0.369-0.577 0.271-0.317 0.62-0.56 1.05-0.73 0.431-0.172 0.93-0.259 1.5-0.259 0.394 0 0.771 0.0462 1.13 0.139 0.363 0.0924 0.685 0.236 0.965 0.429 0.283 0.194 0.506 0.443 0.67 0.748 0.163 0.302 0.245 0.663 0.245 1.09v4.28c0 0.276-0.224 0.5-0.5 0.5h-0.866c-0.276 0-0.5-0.224-0.5-0.5v-0.484h-0.0554c-0.114 0.222-0.266 0.417-0.457 0.586-0.191 0.166-0.42 0.297-0.688 0.393-0.268 0.0923-0.577 0.138-0.928 0.138zm0.563-1.36c0.289 0 0.545-0.057 0.767-0.171 0.222-0.117 0.396-0.274 0.522-0.471 0.126-0.197 0.189-0.42 0.189-0.67v-0.753c-0.0616 0.04-0.146 0.077-0.254 0.111-0.105 0.0308-0.223 0.06-0.356 0.0878-0.132 0.0246-0.265 0.0477-0.397 0.0693-0.132 0.0185-0.252 0.0354-0.36 0.0508-0.231 0.0339-0.432 0.0878-0.605 0.162-0.172 0.0739-0.306 0.174-0.402 0.3-0.0955 0.123-0.143 0.277-0.143 0.462 0 0.268 0.097 0.473 0.291 0.614 0.197 0.139 0.446 0.208 0.748 0.208z" fill="#000"/><path d="m5.47 1.34c-0.0696-0.204-0.263-0.341-0.478-0.339-0.216 0.00221-0.406 0.143-0.471 0.348l-3.28 10.3c-0.066 0.208-0.259 0.348-0.476 0.348h-0.269c-0.276 0-0.5 0.224-0.5 0.5s0.224 0.5 0.5 0.5h2.5c0.276 0 0.5-0.224 0.5-0.5s-0.224-0.5-0.5-0.5h-0.474c-0.169 0-0.29-0.165-0.238-0.326l0.422-1.33c0.066-0.208 0.259-0.348 0.476-0.348h2.86c0.217 0 0.409 0.14 0.476 0.346l0.43 1.33c0.0523 0.162-0.0681 0.327-0.238 0.327h-0.219c-0.276 0-0.5 0.224-0.5 0.5s0.224 0.5 0.5 0.5h3c0.276 0 0.5-0.224 0.5-0.5s-0.224-0.5-0.5-0.5h-0.0344c-0.214 0-0.404-0.136-0.473-0.339l-3.52-10.3zm0.376 7.66c0.119 0 0.203-0.116 0.166-0.229l-1.25-3.85c-0.0524-0.162-0.282-0.161-0.333 8.8e-4l-1.22 3.85c-0.0359 0.113 0.0483 0.228 0.167 0.228h2.47z" clip-rule="evenodd" fill="#000" fill-rule="evenodd"/></svg>
