<svg viewBox="0 0 16 16" xmlns="http://www.w3.org/2000/svg"><path d="m6.25 9.59v-4.18c0-0.259 0.195-0.475 0.45-0.501l4.05-0.408c0.235-0.0237 0.443 0.138 0.488 0.362 6e-3 0.0295 0.0091 0.06 0.0091 0.0914v4.79c0 0.5-0.383 1.03-1.12 1.2-0.821 0.189-1.38-0.245-1.38-0.859 0-0.614 0.697-1.05 1.38-1.1 0.241-0.0208 0.452 0.0181 0.625 0.0994v-2.57l-4 0.403v3.33c0 0.507-0.383 1.03-1.12 1.21-0.821 0.189-1.38-0.245-1.38-0.859 0-0.614 0.697-1.05 1.38-1.1 0.241-0.0208 0.452 0.0181 0.625 0.0994z" fill="#000"/><path d="m15 8c0 3.87-3.13 7-7 7-3.87 0-7-3.13-7-7 0-3.87 3.13-7 7-7 3.87 0 7 3.13 7 7zm-0.75 0c0 3.45-2.8 6.25-6.25 6.25-3.45 0-6.25-2.8-6.25-6.25 0-3.45 2.8-6.25 6.25-6.25 3.45 0 6.25 2.8 6.25 6.25z" clip-rule="evenodd" fill="#000" fill-rule="evenodd"/></svg>
