<svg viewBox="0 0 16 16" xmlns="http://www.w3.org/2000/svg"><path d="m9.99 1.67c0.0667-0.294-0.113-0.587-0.402-0.655-0.289-0.0678-0.577 0.115-0.643 0.409l-2.93 12.9c-0.0666 0.294 0.113 0.587 0.402 0.655 0.289 0.0678 0.577-0.115 0.643-0.409l2.93-12.9z" fill="#000"/><path d="m3.84 5.16c0.21 0.212 0.21 0.555 0 0.767l-2.37 2.4c-0.0964 0.0974-0.0964 0.254 0 0.352l2.37 2.4c0.21 0.212 0.21 0.555 0 0.767-0.21 0.212-0.549 0.212-0.759 0l-2.93-2.96c-0.21-0.212-0.21-0.555 0-0.767l2.93-2.96c0.21-0.212 0.549-0.212 0.759 0z" fill="#000"/><path d="m12.2 5.16c-0.21 0.212-0.21 0.555 0 0.767l2.37 2.4c0.0964 0.0974 0.0964 0.254 0 0.352l-2.37 2.4c-0.21 0.212-0.21 0.555 0 0.767 0.21 0.212 0.549 0.212 0.759 0l2.93-2.96c0.21-0.212 0.21-0.555 0-0.767l-2.93-2.96c-0.21-0.212-0.549-0.212-0.759 0z" fill="#000"/></svg>
