<svg viewBox="0 0 16 16" xmlns="http://www.w3.org/2000/svg"><path d="m7 8.5c0-0.828 0.672-1.5 1.5-1.5s1.5 0.672 1.5 1.5-0.672 1.5-1.5 1.5-1.5-0.672-1.5-1.5zm1.5-0.5c-0.276 0-0.5 0.224-0.5 0.5s0.224 0.5 0.5 0.5 0.5-0.224 0.5-0.5-0.224-0.5-0.5-0.5z" clip-rule="evenodd" fill="#000" fill-rule="evenodd"/><path d="m5 13.5v-3.5h-2.5c-1.38 0-2.5-1.12-2.5-2.5v-5c0-1.38 1.12-2.5 2.5-2.5h7c1.38 0 2.5 1.12 2.5 2.5v2.5h1.5c1.38 0 2.5 1.12 2.5 2.5v6c0 1.38-1.12 2.5-2.5 2.5h-6c-1.38 0-2.5-1.12-2.5-2.5zm-4-11c0-0.828 0.672-1.5 1.5-1.5h0.5v2h-2v-0.5zm0 1.5h2v2h-2v-2zm0 3h2v2h-0.5c-0.828 0-1.5-0.672-1.5-1.5v-0.5zm3 2v-8h4v4h-0.5c-1.38 0-2.5 1.12-2.5 2.5v1.5h-1zm7-4v-1h-2v1h2zm0-2.5v0.5h-2v-2h0.5c0.828 0 1.5 0.672 1.5 1.5zm-3.5 3.5c-0.828 0-1.5 0.672-1.5 1.5v6c0 0.489 0.234 0.923 0.596 1.2l5.55-5.55c0.195-0.195 0.512-0.195 0.707 0l2.15 2.15v-3.79c0-0.828-0.672-1.5-1.5-1.5h-6zm7.5 6.71-2.5-2.5-4.79 4.79h5.79c0.828 0 1.5-0.672 1.5-1.5v-0.793z" clip-rule="evenodd" fill="#000" fill-rule="evenodd"/></svg>
