<svg fill="none" viewBox="0 0 16 16" xmlns="http://www.w3.org/2000/svg"><path d="m3.41 13c-0.819-0.042-1.57-0.365-2.16-0.953-0.718-0.721-1.13-1.73-1.23-2.73-0.125-1.34 0.218-2.76 0.94-3.88 0.841-1.31 2.24-2.22 3.68-2.4 1.28-0.158 2.45 0.461 3.07 1.62 0.166 0.31 0.357 0.83 0.336 0.912-0.0214 0.0838-0.0738 0.0474-0.106-0.0733-0.264-1-1.23-1.81-2.21-2.04-1.55-0.363-2.92 0.606-3.84 1.75-0.604 0.753-0.879 1.65-1.04 2.72-0.221 1.48 0.312 3.61 1.99 4.03 1.16 0.292 2.19-0.28 2.88-1.2 0.442-0.588 0.632-1.43 0.889-2.16l0.311-0.905c0.0359-0.124-0.0103-0.224-0.14-0.25s-0.266 0.0859-0.332 0.25l-0.801 2.31h-1.31l0.776-2.38s0.043-0.178-0.0781-0.206c-0.121-0.0282-0.253 0.0355-0.332 0.255l-0.852 2.33h-1.3l1.13-3.27 1.27-0.00117-0.0839 0.27s0.348-0.344 0.895-0.344c0.547 0 0.687 0.344 0.687 0.344s0.162-0.102 0.274-0.152c0.442-0.2 0.889-0.276 1.24-0.113 0.126 0.0587 0.275 0.23 0.316 0.363 0.0464 0.15 0.0397 0.387-0.0167 0.594-0.108 0.396-0.829 2.29-1.03 2.78-0.69 1.71-2 2.62-3.84 2.52zm4-1.33 1.74-4.92h1.38l-0.0786 0.257c0.211-0.192 0.545-0.339 0.823-0.34 0.536-0.00204 0.85 0.197 0.948 0.6 0.157 0.645-0.319 1.83-0.944 2.35-0.361 0.299-0.721 0.457-1.14 0.457s-0.633-0.293-0.633-0.293l-0.681 1.89-1.41 0.0011zm2.7-2.26c0.191-0.0993 0.43-0.546 0.648-1.21 0.107-0.327 0.154-0.568 0.146-0.753-0.0052-0.116-0.0143-0.157-0.04-0.18-0.123-0.112-0.38 0.102-0.579 0.482-0.171 0.325-0.379 0.898-0.438 1.2-0.0364 0.189-0.0288 0.378 0.0177 0.442 0.0387 0.0533 0.156 0.0594 0.245 0.0129zm2.67 0.63c-0.234-0.0398-0.365-0.0868-0.557-0.201-0.131-0.0778-0.192-0.131-0.296-0.257-0.0716-0.0874-0.124-0.182-0.124-0.182l0.695-0.635 0.249 0.134s-0.0204 0.415 0 0.476c0.0526 0.158 0.24 0.224 0.468 0.166 0.211-0.0536 0.341-0.144 0.514-0.361 0.222-0.278 0.343-0.594 0.329-0.861-0.0084-0.165-0.0527-0.252-0.16-0.317-0.0675-0.0407-0.107-0.0455-0.377-0.0455l-0.312-0.00312 0.162-0.542h0.216c0.234 0 0.352-0.031 0.543-0.143 0.268-0.157 0.518-0.558 0.566-0.905 0.0169-0.123 0.0154-0.151-0.0121-0.223-0.0433-0.113-0.133-0.168-0.277-0.168-0.191 0-0.378 0.0888-0.512 0.242-0.0908 0.104-0.135 0.212-0.148 0.357l-0.0094 0.108-0.335 0.112-0.322-0.637s0.129-0.165 0.418-0.345c0.431-0.268 1.05-0.409 1.58-0.359 0.579 0.0546 0.894 0.303 0.922 0.727 0.056 0.869-0.662 1.23-1.11 1.41 0.287 0.272 0.593 0.591 0.381 1.19-0.125 0.355-0.413 0.702-0.767 0.925-0.161 0.102-0.488 0.241-0.676 0.288-0.333 0.0836-0.729 0.101-1.05 0.0457z" fill="#000"/></svg>
