<svg fill="none" viewBox="0 0 16 16" xmlns="http://www.w3.org/2000/svg"><path d="m1 5.8c0-1.68 0-2.52 0.327-3.16 0.288-0.564 0.747-1.02 1.31-1.31 0.642-0.327 1.48-0.327 3.16-0.327h4.4c1.68 0 2.52 0 3.16 0.327 0.564 0.288 1.02 0.747 1.31 1.31 0.327 0.642 0.327 1.48 0.327 3.16v1.71c0 0.734 0 1.1-0.0829 1.45-0.0735 0.306-0.195 0.599-0.359 0.867-0.186 0.303-0.445 0.562-0.964 1.08l-2.69 2.69c-0.519 0.519-0.778 0.778-1.08 0.964-0.268 0.164-0.561 0.286-0.867 0.359-0.345 0.0829-0.712 0.0829-1.45 0.0829h-1.71c-1.68 0-2.52 0-3.16-0.327-0.564-0.288-1.02-0.746-1.31-1.31-0.327-0.642-0.327-1.48-0.327-3.16v-4.4zm4.8-3.8h4.4c0.857 0 1.44 7.8e-4 1.89 0.0376 0.438 0.0358 0.663 0.101 0.819 0.18 0.376 0.192 0.682 0.498 0.874 0.874 0.0797 0.156 0.145 0.381 0.18 0.819 0.0368 0.45 0.0376 1.03 0.0376 1.89v1.71c0 0.194-4e-4 0.354-0.0017 0.488h-4.5c-0.828 0-1.5 0.672-1.5 1.5v4.5c-0.134 0.0013-0.294 0.0017-0.488 0.0017h-1.71c-0.857 0-1.44-8e-4 -1.89-0.0376-0.438-0.0358-0.663-0.101-0.819-0.18-0.376-0.192-0.682-0.498-0.874-0.874-0.0797-0.156-0.145-0.381-0.18-0.819-0.0368-0.45-0.0376-1.03-0.0376-1.89v-4.4c0-0.857 7.8e-4 -1.44 0.0376-1.89 0.0358-0.438 0.101-0.663 0.18-0.819 0.192-0.376 0.498-0.682 0.874-0.874 0.156-0.0797 0.381-0.145 0.819-0.18 0.45-0.0368 1.03-0.0376 1.89-0.0376zm3.2 11.9c0.105-0.0419 0.206-0.0926 0.302-0.152 0.178-0.109 0.344-0.266 0.896-0.818l2.69-2.69c0.552-0.553 0.709-0.718 0.818-0.896 0.0591-0.0965 0.11-0.198 0.152-0.302h-4.36c-0.276 0-0.5 0.224-0.5 0.5v4.36z" clip-rule="evenodd" fill="#000" fill-rule="evenodd"/></svg>
