<svg viewBox="0 0 16 16" xmlns="http://www.w3.org/2000/svg"><path d="M3.75 4C3.52 4 3.4 4 3.3 4.01C2.63 4.1 2.1 4.63 2.01 5.3C2 5.4 2 5.51 2 5.75V8.25C2 8.48 2 8.6 2.01 8.7C2.1 9.37 2.63 9.9 3.3 9.99C3.4 10 3.51 10 3.75 10C3.99 10 4.1 10 4.2 9.99C4.87 9.9 5.4 9.37 5.49 8.7C5.5 8.6 5.5 8.49 5.5 8.25V5.75C5.5 5.52 5.5 5.4 5.49 5.3C5.4 4.63 4.87 4.1 4.2 4.01C4.1 4 3.99 4 3.75 4ZM4.07 5C4.29 5.03 4.47 5.21 4.5 5.43V8.57C4.47 8.79 4.29 8.97 4.07 9H3.43C3.21 8.97 3.03 8.79 3 8.57V5.43C3.03 5.21 3.21 5.03 3.43 5H4.07Z" clip-rule="evenodd" fill="#000" fill-rule="evenodd"/><path d="m8.45 7.01c0.25 0.04 0.45 0.14 0.6 0.27 0.08-0.16 0.25-0.28 0.45-0.28 0.28 0 0.5 0.22 0.5 0.5v3c0 0.83-0.67 1.5-1.5 1.5h-1.5c-0.28 0-0.5-0.22-0.5-0.5s0.22-0.5 0.5-0.5h1.5c0.28 0 0.5-0.22 0.5-0.5v-0.74c-0.15 0.11-0.33 0.19-0.55 0.23-0.03 0.01-0.38 0.02-0.7 0.02-0.24 0-0.35 0-0.45-0.02-0.54-0.09-0.96-0.51-1.04-1.04-0.02-0.1-0.02-0.21-0.02-0.45s0-0.35 0.02-0.45c0.09-0.54 0.51-0.96 1.04-1.04 0.1-0.02 0.22-0.02 0.45-0.02 0.245 0 0.507 0.0117 0.631 0.0172 0.0377 0.00168 0.0624 0.00278 0.0694 0.00278zm0.05 0.99h-1.05c-0.1 0.01-0.18 0.1-0.2 0.2v0.6c0.01 0.1 0.1 0.18 0.2 0.2h1.05c0.38 0 0.5-0.09 0.5-0.5s-0.12-0.5-0.5-0.5z" clip-rule="evenodd" fill="#000" fill-rule="evenodd"/><path d="m13 7.28c-0.15-0.13-0.35-0.23-0.6-0.27-7e-3 0-0.0317-0.0011-0.0693-0.00278-0.123-0.0055-0.386-0.0172-0.631-0.0172-0.23 0-0.35 0-0.45 0.02-0.53 0.08-0.95 0.5-1.04 1.04-0.02 0.1-0.02 0.21-0.02 0.45s0 0.35 0.02 0.45c0.08 0.53 0.5 0.95 1.04 1.04 0.1 0.02 0.21 0.02 0.45 0.02 0.32 0 0.67-0.01 0.7-0.02 0.22-0.04 0.4-0.12 0.55-0.23v0.74c0 0.28-0.22 0.5-0.5 0.5h-1.5c-0.28 0-0.5 0.22-0.5 0.5s0.22 0.5 0.5 0.5h1.5c0.83 0 1.5-0.67 1.5-1.5v-3c0-0.28-0.22-0.5-0.5-0.5-0.2 0-0.37 0.12-0.45 0.28zm-0.55 0.72c0.38 0 0.5 0.09 0.5 0.5s-0.12 0.5-0.5 0.5h-1.05c-0.1-0.02-0.19-0.1-0.2-0.2v-0.6c0.02-0.1 0.1-0.19 0.2-0.2h1.05z" clip-rule="evenodd" fill="#000" fill-rule="evenodd"/><path d="m5 11.5c0-0.28-0.22-0.5-0.5-0.5h-1.5c-0.28 0-0.5 0.22-0.5 0.5s0.22 0.5 0.5 0.5h1.5c0.28 0 0.5-0.22 0.5-0.5z" fill="#000"/><path d="m0.22 3.09c-0.22 0.43-0.22 0.99-0.22 2.11v5.6c0 1.12 0 1.68 0.22 2.11 0.19 0.38 0.5 0.68 0.87 0.87 0.43 0.22 0.99 0.22 2.11 0.22h9.6c1.12 0 1.68 0 2.11-0.22 0.38-0.19 0.68-0.5 0.87-0.87 0.22-0.43 0.22-0.99 0.22-2.11v-5.6c0-1.12 0-1.68-0.22-2.11-0.19-0.38-0.5-0.68-0.87-0.87-0.43-0.22-0.99-0.22-2.11-0.22h-9.6c-1.12 0-1.68 0-2.11 0.22-0.38 0.19-0.68 0.5-0.87 0.87zm12.6-0.09h-9.6c-0.58 0-0.95 0-1.23 0.02-0.27 0.02-0.37 0.06-0.42 0.09-0.19 0.1-0.34 0.25-0.44 0.44-0.03 0.05-0.06 0.15-0.09 0.42-0.02 0.28-0.02 0.66-0.02 1.23v5.6c0 0.58 0 0.95 0.02 1.23 0.02 0.27 0.06 0.37 0.09 0.42 0.1 0.19 0.25 0.34 0.44 0.44 0.05 0.03 0.15 0.06 0.42 0.09 0.28 0.02 0.66 0.02 1.23 0.02h9.6c0.58 0 0.95 0 1.23-0.02 0.27-0.02 0.37-0.06 0.42-0.09 0.19-0.1 0.34-0.25 0.44-0.44 0.03-0.05 0.06-0.15 0.09-0.42 0.02-0.28 0.02-0.66 0.02-1.23v-5.6c0-0.58 0-0.95-0.02-1.23-0.02-0.27-0.06-0.37-0.09-0.42-0.1-0.19-0.25-0.34-0.44-0.44-0.05-0.03-0.15-0.06-0.42-0.09-0.28-0.02-0.66-0.02-1.23-0.02z" clip-rule="evenodd" fill="#000" fill-rule="evenodd"/></svg>
