<svg fill="none" viewBox="0 0 16 16" xmlns="http://www.w3.org/2000/svg"><path d="m1 2c0-0.552 0.448-1 1-1s1 0.448 1 1h-2zm2 12v-11h-2.5c-0.276 0-0.5-0.224-0.5-0.5v-0.5c0-1.1 0.895-2 2-2h8.5c1.38 0 2.5 1.12 2.5 2.5v10.5h2.5c0.276 0 0.5 0.224 0.5 0.5 0 1.38-1.12 2.5-2.5 2.5h-8.5c-1.1 0-2-0.895-2-2zm9-1v-10.5c0-0.828-0.672-1.5-1.5-1.5h-6.77c0.17 0.294 0.268 0.636 0.268 1v12c0 0.552 0.448 1 1 1s1-0.448 1-1v-0.5c0-0.276 0.224-0.5 0.5-0.5h5.5zm-5 1c0 0.364-0.0974 0.706-0.268 1h6.77c0.653 0 1.21-0.417 1.41-1h-7.91zm-0.5-10c-0.276 0-0.5 0.224-0.5 0.5s0.224 0.5 0.5 0.5h3c0.276 0 0.5-0.224 0.5-0.5s-0.224-0.5-0.5-0.5h-3zm-0.5 2.5c0-0.276 0.224-0.5 0.5-0.5h3c0.276 0 0.5 0.224 0.5 0.5s-0.224 0.5-0.5 0.5h-3c-0.276 0-0.5-0.224-0.5-0.5zm0.5 1.5c-0.276 0-0.5 0.224-0.5 0.5s0.224 0.5 0.5 0.5h2c0.276 0 0.5-0.224 0.5-0.5s-0.224-0.5-0.5-0.5h-2z" clip-rule="evenodd" fill="#000" fill-rule="evenodd"/></svg>
