<svg viewBox="0 0 16 16" xmlns="http://www.w3.org/2000/svg"><path d="m6.43 15.1c0.0514-0.0424 0.102-0.0862 0.151-0.131l0.0114-0.0037s0.297-0.273 0.461-0.492c0.426-0.569 0.699-1.26 0.699-1.98v-3.66c0-0.621 0.504-1.12 1.12-1.12h1.88c0-0.427-0.204-0.818-0.406-1.21-0.0766-0.147-0.153-0.294-0.218-0.441-0.0811-0.185-0.126-0.388-0.126-0.603 0-0.175 0.0334-0.343 0.0968-0.499 0.0167-0.0285 0.0413-0.0674 0.0752-0.114 0.0881-0.121 0.24-0.295 0.482-0.474 0.227-0.168 0.476-0.272 0.675-0.333 0.098-0.0301 0.18-0.0487 0.236-0.0596 0.0147-0.00288 0.0275-0.0052 0.0381-0.00703 0.0884-0.00903 0.18-0.0137 0.273-0.0137 1.12 0 1.88 0.406 1.88 1.5 0 0.214-0.045 0.418-0.126 0.603-0.065 0.148-0.141 0.295-0.218 0.441-0.202 0.388-0.406 0.779-0.406 1.21h1.88c0.621 0 1.12 0.504 1.12 1.12l-1e-4 3.78c0 1.22-0.162 3.35-1.81 3.35h-7.45c-0.458 0-0.666-0.567-0.314-0.857zm2.32-4.89v2.29c0 0.914-0.325 1.76-0.829 2.46h6.27c0.175 0 0.256-0.0481 0.315-0.1 0.0798-0.0707 0.178-0.208 0.267-0.455 0.184-0.51 0.228-1.2 0.228-1.79v-2.4h-6.25z" clip-rule="evenodd" fill="#000" fill-rule="evenodd"/><path d="m10.7 3.23-1.76-1.76c-0.173-0.173-0.259-0.259-0.36-0.321-0.0895-0.0548-0.187-0.0952-0.289-0.12-0.115-0.0276-0.237-0.0276-0.482-0.0276h-5.44c-0.84 0-1.26 0-1.58 0.163-0.282 0.144-0.512 0.373-0.656 0.656-0.163 0.321-0.163 0.741-0.163 1.58v9.2c0 0.84 0 1.26 0.163 1.58 0.144 0.282 0.373 0.512 0.656 0.656 0.321 0.164 0.741 0.164 1.58 0.164h1.76c0.19-0.0335 0.922-0.177 1.31-0.464 0.231-0.168 0.515-0.51 0.536-0.536h-3.61c-0.437 0-0.704-8e-4 -0.904-0.0171-0.0932-0.0076-0.15-0.0172-0.184-0.0252-0.0163-0.0039-0.0263-0.0071-0.0317-9e-3 -0.0052-0.0019-0.00779-0.0032-0.00779-0.0032-0.0941-0.0479-0.171-0.124-0.218-0.218 0 0-0.00132-0.0026-0.00317-0.0078-0.00194-0.0054-0.00515-0.0154-0.00898-0.0317-0.00806-0.0342-0.0176-0.0906-0.0252-0.184-0.0163-0.2-0.0171-0.467-0.0171-0.904v-9.2c0-0.437 7.8e-4 -0.704 0.0171-0.904 0.00761-0.0932 0.0172-0.15 0.0252-0.184 0.00383-0.0163 0.00704-0.0263 0.00898-0.0317 0.00185-0.0052 0.00317-0.00779 0.00317-0.00779 0.0479-0.0941 0.124-0.171 0.218-0.218 0 0 0.00259-0.00132 0.00779-0.00317 0.00541-0.00194 0.0154-0.00515 0.0317-0.00898 0.0342-0.00806 0.0906-0.0176 0.184-0.0252 0.2-0.0163 0.467-0.0171 0.904-0.0171h5.44c0.071 0 0.123 7e-5 0.163 4.8e-4v2.5c0 0.276 0.224 0.5 0.5 0.5h0.508l0.14-0.336 6.4e-4 -0.00153 7.1e-4 -0.00169 0.00164-0.00385 0.00418-0.00954c0.00319-0.00716 0.00721-0.0159 0.0121-0.0262 0.00979-0.0205 0.0231-0.0469 0.0405-0.0785 0.0347-0.0631 0.0856-0.147 0.156-0.244 0.142-0.195 0.363-0.443 0.694-0.688 0.228-0.169 0.464-0.291 0.675-0.378z" fill="#000"/></svg>
