<svg viewBox="0 0 16 16" xmlns="http://www.w3.org/2000/svg"><path d="m9.1 2.49c-0.594-0.648-1.61-0.647-2.21 7.1e-4l-5.49 5.99c-0.884 0.964-0.202 2.52 1.1 2.52h11c1.31 0 1.99-1.56 1.1-2.52l-5.5-5.99zm-1.47 0.68c0.198-0.216 0.538-0.216 0.736-2.3e-4l5.5 5.99c0.295 0.321 0.0677 0.841-0.368 0.841h-11c-0.435 0-0.663-0.519-0.368-0.841l5.49-5.99z" clip-rule="evenodd" fill="#000" fill-rule="evenodd"/><path d="m1.5 13c-0.276 0-0.5 0.224-0.5 0.5s0.224 0.5 0.5 0.5h13c0.276 0 0.5-0.224 0.5-0.5s-0.224-0.5-0.5-0.5h-13z" fill="#000"/></svg>
