<svg viewBox="0 0 16 16" xmlns="http://www.w3.org/2000/svg"><path d="m8 9c1.1 0 2 0.895 2 2v1.01c0.193 0.0115 0.33 0.0371 0.447 0.0957 0.194 0.0967 0.35 0.254 0.447 0.447 0.106 0.211 0.106 0.487 0.106 1.04v0.82c0 0.551 0 0.826-0.106 1.04-0.0967 0.194-0.254 0.35-0.447 0.447-0.211 0.106-0.487 0.106-1.04 0.106h-2.82c-0.551 0-0.826 0-1.04-0.106-0.194-0.0967-0.35-0.254-0.447-0.447-0.105-0.211-0.105-0.487-0.105-1.04v-0.82c0-0.55 3e-5 -0.826 0.105-1.04 0.0968-0.194 0.254-0.35 0.447-0.447 0.117-0.0586 0.254-0.0842 0.447-0.0957v-1.01c0-1.1 0.895-2 2-2zm0 1c-0.552 0-1 0.448-1 1v1h2v-1c0-0.552-0.448-1-1-1z" clip-rule="evenodd" fill="#000" fill-rule="evenodd"/><path d="m4.5 4.03c0.275-0.0274 0.499 0.199 0.499 0.475-2e-5 0.276-0.225 0.497-0.499 0.531-1.97 0.246-3.5 1.93-3.5 3.97 1e-5 1.48 0.806 2.77 2 3.46v1.12c-1.76-0.776-3-2.54-3-4.58 0-2.58 1.98-4.72 4.5-4.97z" fill="#000"/><path d="m10.3 1c0.194-0.194 0.513-0.194 0.707 0 0.194 0.194 0.194 0.513 0 0.707l-2.29 2.29h2.29c2.75 0 5 2.25 5 5 0 2.04-1.24 3.8-3 4.58v-1.12c1.19-0.693 2-1.98 2-3.46 0-2.21-1.79-4-4-4h-2.29l2.29 2.29c0.194 0.194 0.194 0.513 0 0.707-0.194 0.194-0.513 0.194-0.707 0l-3.14-3.14-0.00391-0.00293c-0.098-0.097-0.146-0.226-0.146-0.354-3.4e-4 -0.0656 0.0121-0.131 0.0371-0.191 0.0251-0.0608 0.0628-0.117 0.109-0.163l3.15-3.15z" fill="#000"/></svg>
