<svg viewBox="0 0 16 16" xmlns="http://www.w3.org/2000/svg"><path d="m0 1.5c0-0.276 0.224-0.5 0.5-0.5h13c0.276 0 0.5 0.224 0.5 0.5s-0.224 0.5-0.5 0.5h-13c-0.276 0-0.5-0.224-0.5-0.5z" fill="#000"/><path d="m0 5.5c0-0.276 0.224-0.5 0.5-0.5h5c0.276 0 0.5 0.224 0.5 0.5s-0.224 0.5-0.5 0.5h-5c-0.276 0-0.5-0.224-0.5-0.5z" fill="#000"/><path d="m0.5 9c-0.276 0-0.5 0.224-0.5 0.5s0.224 0.5 0.5 0.5h4c0.276 0 0.5-0.224 0.5-0.5s-0.224-0.5-0.5-0.5h-4z" fill="#000"/><path d="m0 13.5c0-0.276 0.224-0.5 0.5-0.5h2c0.276 0 0.5 0.224 0.5 0.5s-0.224 0.5-0.5 0.5h-2c-0.276 0-0.5-0.224-0.5-0.5z" fill="#000"/><path d="m8 15c1.1 0 2-0.672 2-1.5v-5.79l5-1.43v4.91c-0.294-0.128-0.636-0.201-1-0.201-1.1 0-2 0.672-2 1.5s0.895 1.5 2 1.5 2-0.672 2-1.5v-7.17c0-0.664-0.636-1.14-1.27-0.962l-5 1.43c-0.429 0.123-0.725 0.515-0.725 0.962v5.45c-0.294-0.128-0.636-0.201-1-0.201-1.1 0-2 0.672-2 1.5s0.895 1.5 2 1.5z" fill="#000"/></svg>
