<svg viewBox="0 0 16 16" xmlns="http://www.w3.org/2000/svg"><path d="m12.3 2.04c0.38 0.0304 0.699 0.0848 0.989 0.187 1.15 0.402 2.05 1.31 2.45 2.45 0.225 0.642 0.225 1.42 0.225 2.7v0.234c2e-4 1.28 2e-4 2.06-0.225 2.7-0.402 1.15-1.31 2.05-2.45 2.45-0.642 0.225-1.42 0.225-2.7 0.225h-2.91l2.15 2.15c0.195 0.195 0.195 0.512 0 0.707-0.195 0.195-0.512 0.195-0.707 0l-3-3c-0.195-0.195-0.195-0.512 0-0.707l3-3c0.195-0.195 0.512-0.195 0.707 0 0.195 0.195 0.195 0.512 0 0.707l-2.15 2.15h2.79c1.44 0 2.03-0.0067 2.49-0.168 0.862-0.302 1.54-0.979 1.84-1.84 0.161-0.461 0.168-1.05 0.168-2.49 0-1.44-0.0067-2.03-0.168-2.49-0.302-0.862-0.979-1.54-1.84-1.84-0.0408-0.0143-0.0835-0.0251-0.127-0.0371-0.0288-0.1-0.0628-0.205-0.108-0.312l-0.0732-0.16-0.117-0.213c-0.0809-0.134-0.159-0.27-0.234-0.408z" fill="#000"/><path d="m3.43 2.45-0.117 0.213c-0.081 0.162-0.14 0.321-0.184 0.472-0.0424 0.0118-0.084 0.0231-0.124 0.0371-0.862 0.302-1.54 0.979-1.84 1.84-0.161 0.461-0.168 1.05-0.168 2.49v2c0 1.38 1.12 2.5 2.5 2.5 0.276 0 0.5 0.224 0.5 0.5 0 0.276-0.224 0.5-0.5 0.5-1.93 0-3.5-1.57-3.5-3.5v-2.12c-1.98e-4 -1.28-1.71e-4 -2.06 0.225-2.7 0.402-1.15 1.31-2.05 2.45-2.45 0.29-0.102 0.608-0.156 0.988-0.187-0.0749 0.138-0.153 0.275-0.233 0.408z" fill="#000"/><path d="m8 0c1.1 0 2 0.895 2 2v1.01c0.193 0.0116 0.33 0.0372 0.447 0.0957 0.194 0.0968 0.35 0.254 0.447 0.447 0.106 0.211 0.106 0.487 0.106 1.04v0.82c0 0.551 0 0.826-0.106 1.04-0.0967 0.194-0.254 0.35-0.447 0.447-0.211 0.105-0.487 0.105-1.04 0.105h-2.82c-0.551 0-0.826-2e-5 -1.04-0.105-0.194-0.0968-0.351-0.254-0.447-0.447-0.105-0.211-0.105-0.487-0.105-1.04v-0.82c0-0.551 2e-5 -0.826 0.105-1.04 0.0968-0.194 0.254-0.35 0.447-0.447 0.117-0.0585 0.254-0.0841 0.447-0.0957v-1.01c0-1.1 0.895-2 2-2zm0 1c-0.552 0-1 0.448-1 1v1h2v-1c0-0.552-0.448-1-1-1z" clip-rule="evenodd" fill="#000" fill-rule="evenodd"/></svg>
