<svg fill="none" viewBox="0 0 16 16" xmlns="http://www.w3.org/2000/svg"><path d="m8 12c-0.836 0.628-1.87 1-3 1-2.76 0-5-2.24-5-5 0-2.76 2.24-5 5-5 1.13 0 2.16 0.372 3 1 0.836-0.628 1.87-1 3-1 2.76 0 5 2.24 5 5 0 2.76-2.24 5-5 5-1.13 0-2.16-0.372-3-1zm-0.75-0.693c-0.641 0.437-1.42 0.692-2.25 0.692-2.21 0-4-1.79-4-4 0-2.21 1.79-4 4-4 0.834 0 1.61 0.255 2.25 0.692-0.778 0.881-1.25 2.04-1.25 3.31s0.472 2.43 1.25 3.31zm1.5-6.62c0.641-0.437 1.42-0.692 2.25-0.692 2.21 0 4 1.79 4 4 0 2.21-1.79 4-4 4-0.834 0-1.61-0.256-2.25-0.692 0.778-0.881 1.25-2.04 1.25-3.31s-0.472-2.43-1.25-3.31zm-0.75 0.662c0.622 0.705 1 1.63 1 2.65s-0.378 1.94-1 2.65c-0.622-0.705-1-1.63-1-2.65s0.378-1.94 1-2.65z" clip-rule="evenodd" fill="#000" fill-rule="evenodd"/></svg>
