<svg fill="none" viewBox="0 0 16 16" xmlns="http://www.w3.org/2000/svg"><path d="m4 6.4c0-0.84 0-1.26 0.163-1.58 0.144-0.282 0.373-0.512 0.656-0.656 0.321-0.163 0.741-0.163 1.58-0.163h3.2c0.84 0 1.26 0 1.58 0.163 0.282 0.144 0.512 0.373 0.656 0.656 0.164 0.321 0.164 0.741 0.164 1.58v3.2c0 0.84 0 1.26-0.164 1.58-0.144 0.282-0.373 0.512-0.656 0.656-0.321 0.164-0.741 0.164-1.58 0.164h-3.2c-0.84 0-1.26 0-1.58-0.164-0.282-0.144-0.512-0.373-0.656-0.656-0.163-0.321-0.163-0.741-0.163-1.58v-3.2z" fill="#000"/></svg>
