<svg viewBox="0 0 16 16" xmlns="http://www.w3.org/2000/svg"><path d="m9.95 0.275c0.0254 0.0503 0.0425 0.106 0.0496 0.164 0.00302 0.0243 0.0042 0.0484 0.0037 0.0723v1.98c9e-4 0.041-0.0033 0.0813-0.0121 0.12-0.0164 0.0734-0.049 0.141-0.0938 0.198-0.0447 0.0573-0.102 0.105-0.169 0.139-0.0357 0.018-0.0738 0.0319-0.114 0.0409l-2.85 0.713c-0.445 0.111-0.757 0.511-0.757 0.969v5.48c0 0.853-0.73 2.27-2.7 2.74s-3.3-0.609-3.3-2.13c0-1.52 1.54-2.75 3.17-2.75 0.715 0 1.35 0.171 1.83 0.468v-6.19c0-0.688 0.467-1.29 1.13-1.45 0.996-0.25 2.41-0.605 3.23-0.811 0.0231-0.0063 0.0468-0.011 0.0711-0.014 0.0583-0.00725 0.116-0.00401 0.171 0.00842 0.0733 0.0164 0.141 0.049 0.198 0.0938 0.0573 0.0447 0.105 0.102 0.139 0.169z" fill="#000"/><path d="m9 11.3c0-1.18 0-1.77 0.24-2.21 0.185-0.343 0.467-0.625 0.81-0.81 0.445-0.24 1.03-0.24 2.21-0.24h0.48c1.18 0 1.77 0 2.21 0.24 0.343 0.185 0.625 0.467 0.81 0.81 0.24 0.445 0.24 1.03 0.24 2.21v0.48c0 1.18 0 1.77-0.24 2.21-0.185 0.343-0.467 0.625-0.81 0.81-0.445 0.24-1.03 0.24-2.21 0.24h-0.48c-1.18 0-1.77 0-2.21-0.24-0.343-0.185-0.625-0.467-0.81-0.81-0.24-0.445-0.24-1.03-0.24-2.21v-0.48z" fill="#000"/></svg>
