<svg viewBox="0 0 24 24" xmlns="http://www.w3.org/2000/svg"><path d="m3.03 5.61c-0.0257 0.195-0.0257 0.427-0.0257 0.892s0 0.697 0.0257 0.892c0.177 1.35 1.24 2.41 2.58 2.58 0.195 0.0257 0.427 0.0257 0.892 0.0257s0.697 0 0.892-0.0257c1.35-0.177 2.41-1.24 2.58-2.58 0.0257-0.195 0.0257-0.427 0.0257-0.892s0-0.697-0.0257-0.892c-0.177-1.35-1.24-2.41-2.58-2.58-0.195-0.0257-0.427-0.0257-0.892-0.0257s-0.697 0-0.892 0.0257c-1.35 0.177-2.41 1.24-2.58 2.58zm2.71 3.37c0.114 0.015 0.265 0.0171 0.761 0.0171s0.647-0.00216 0.761-0.0171c0.897-0.118 1.6-0.824 1.72-1.72 0.015-0.114 0.0171-0.265 0.0171-0.761s-0.00216-0.647-0.0171-0.761c-0.118-0.897-0.824-1.6-1.72-1.72-0.114-0.015-0.265-0.0171-0.761-0.0171s-0.647 0.00216-0.761 0.0171c-0.897 0.118-1.6 0.824-1.72 1.72-0.015 0.114-0.0171 0.265-0.0171 0.761s0.00216 0.647 0.0171 0.761c0.118 0.897 0.824 1.6 1.72 1.72z" clip-rule="evenodd" fill="#000" fill-rule="evenodd"/><path d="m17.8 3.08c0.232 0.15 0.298 0.46 0.148 0.691l-11 17c-0.15 0.232-0.46 0.298-0.691 0.148-0.232-0.15-0.298-0.46-0.148-0.691l11-17c0.15-0.232 0.46-0.298 0.691-0.148z" fill="#000"/><path d="m14 17.5c0-0.464 0-0.697 0.0257-0.892 0.177-1.35 1.24-2.41 2.58-2.58 0.195-0.0257 0.427-0.0257 0.892-0.0257s0.697 0 0.892 0.0257c1.35 0.177 2.41 1.24 2.58 2.58 0.0257 0.195 0.0257 0.427 0.0257 0.892s0 0.697-0.0257 0.892c-0.177 1.35-1.24 2.41-2.58 2.58-0.195 0.0257-0.427 0.0257-0.892 0.0257s-0.697 0-0.892-0.0257c-1.35-0.177-2.41-1.24-2.58-2.58-0.0257-0.195-0.0257-0.427-0.0257-0.892zm3.5 2.5c-0.496 0-0.648-0.0022-0.761-0.0171-0.897-0.118-1.6-0.824-1.72-1.72-0.0149-0.114-0.0171-0.265-0.0171-0.761s0.0022-0.648 0.0171-0.761c0.118-0.897 0.824-1.6 1.72-1.72 0.114-0.0149 0.265-0.0171 0.761-0.0171s0.648 0.0022 0.761 0.0171c0.897 0.118 1.6 0.824 1.72 1.72 0.0149 0.114 0.0171 0.265 0.0171 0.761s-0.0022 0.648-0.0171 0.761c-0.118 0.897-0.824 1.6-1.72 1.72-0.114 0.0149-0.265 0.0171-0.761 0.0171z" clip-rule="evenodd" fill="#000" fill-rule="evenodd"/></svg>
