<svg xmlns="http://www.w3.org/2000/svg" viewBox="0 0 16 16" fill="none">
  <path fill="#000" fill-rule="evenodd"
    d="M5.223.084a.5.5 0 0 1 .693.139l.591.887c.32-.072.652-.11.993-.11h1c.341 0 .673.038.993.11l.591-.887a.5.5 0 1 1 .832.554l-.45.674a4.513 4.513 0 0 1 2.335 2.721A1.5 1.5 0 0 1 15 5.5v4a1.5 1.5 0 0 1-2 1.415V11a2 2 0 0 1-2 2v1.5a1.5 1.5 0 0 1-3 0A1.499 1.499 0 0 1 6.5 16 1.5 1.5 0 0 1 5 14.5V13a2 2 0 0 1-2-2v-.085A1.5 1.5 0 0 1 1 9.5v-4a1.5 1.5 0 0 1 2.199-1.328 4.513 4.513 0 0 1 2.334-2.72L5.084.776a.5.5 0 0 1 .139-.693ZM3 9.5v-4a.5.5 0 0 0-1 0v4a.5.5 0 0 0 1 0Zm1-4a.5.5 0 0 0 .5.5h7a.5.5 0 0 0 .5-.5A3.5 3.5 0 0 0 8.5 2h-1A3.5 3.5 0 0 0 4 5.5Zm9 4a.5.5 0 0 0 1 0v-4a.5.5 0 0 0-1 0v4Zm-1-2a.5.5 0 0 0-.5-.5h-7a.5.5 0 0 0-.5.5V11a1 1 0 0 0 1 1h.5a.5.5 0 0 1 .5.5v2a.5.5 0 0 0 1 0v-2a.5.5 0 0 1 .5-.5h1a.5.5 0 0 1 .5.5v2a.5.5 0 0 0 1 0v-2a.5.5 0 0 1 .5-.5h.5a1 1 0 0 0 1-1V7.5Zm-5-4a.5.5 0 1 1-1 0 .5.5 0 0 1 1 0Zm2.5.5a.5.5 0 1 0 0-1 .5.5 0 0 0 0 1Z"
    clip-rule="evenodd" />
</svg>