<svg xmlns="http://www.w3.org/2000/svg" viewBox="0 0 16 16" fill="none">
  <path fill="#000" fill-rule="evenodd"
    d="M3.2 14.867A2.067 2.067 0 0 1 1.133 12.8V3.2A2.067 2.067 0 0 1 3.2 1.133h9.6A2.067 2.067 0 0 1 14.867 3.2v9.6a2.067 2.067 0 0 1-2.067 2.067H3.2Zm8.387-5.8h-1.454v4.8H12.8a1.066 1.066 0 0 0 1.067-1.067V3.2A1.066 1.066 0 0 0 12.8 2.133H3.2A1.067 1.067 0 0 0 2.133 3.2v9.6A1.066 1.066 0 0 0 3.2 13.867h5.333v-4.8h-1.6v-1.6h1.6v-.86c0-1.626.793-2.34 2.145-2.34.635 0 .976.046 1.142.068l.01.002v1.53h-.922c-.465 0-.685.198-.752.6a2.02 2.02 0 0 0-.023.316v.684h1.683l-.229 1.6Z"
    clip-rule="evenodd" />
</svg>