<svg xmlns="http://www.w3.org/2000/svg" viewBox="0 0 16 16" fill="none">
  <path fill="#000"
    d="M8 10.25A2.254 2.254 0 0 1 5.75 8 2.254 2.254 0 0 1 8 5.75 2.254 2.254 0 0 1 10.25 8 2.254 2.254 0 0 1 8 10.25Z" />
  <path fill="#000" fill-rule="evenodd"
    d="M5.078 1.047C5.672 1.016 6.646 1 8 1s2.328.016 2.922.047a5.88 5.88 0 0 1 1.547.266 3.66 3.66 0 0 1 2.219 2.218c.158.508.253 1.032.281 1.563.02.583.031 1.552.031 2.906s-.016 2.328-.047 2.922a5.883 5.883 0 0 1-.265 1.547 3.66 3.66 0 0 1-2.219 2.219 5.883 5.883 0 0 1-1.547.265C10.328 14.984 9.354 15 8 15s-2.328-.016-2.922-.047a5.1 5.1 0 0 1-1.547-.296 3.33 3.33 0 0 1-1.359-.829 3.64 3.64 0 0 1-.86-1.359 5.88 5.88 0 0 1-.265-1.547C1.016 10.328 1 9.354 1 8s.016-2.328.047-2.922a5.876 5.876 0 0 1 .266-1.547A3.658 3.658 0 0 1 3.53 1.313a5.876 5.876 0 0 1 1.547-.265Zm6.186 2.474a.871.871 0 0 1 1.102.113.885.885 0 0 1 .259.616 1.01 1.01 0 0 1-.275.616.789.789 0 0 1-.6.259.842.842 0 0 1-.616-.26.87.87 0 0 1 .13-1.344ZM6.25 4.97A3.406 3.406 0 0 1 8 4.5c.615-.004 1.22.16 1.75.472A3.515 3.515 0 0 1 11.5 8 3.507 3.507 0 0 1 8 11.5 3.507 3.507 0 0 1 4.5 8a3.514 3.514 0 0 1 1.75-3.028Z"
    clip-rule="evenodd" />
</svg>