<svg xmlns="http://www.w3.org/2000/svg" viewBox="0 0 16 16" fill="none">
  <path fill="#000"
    d="M10.886 0c.144.973-.254 1.924-.78 2.598-.561.721-1.53 1.28-2.466 1.252-.171-.931.268-1.888.8-2.534C9.025.605 10.028.06 10.886 0Zm.379 4c1.07 0 2.203.583 3.011 1.59-2.646 1.449-2.216 5.226.458 6.237-.278.665-.62 1.3-1.018 1.9-.661 1.007-1.594 2.26-2.748 2.27-.476.005-.788-.138-1.124-.291-.39-.178-.812-.371-1.56-.368-.743.004-1.173.195-1.568.371-.345.154-.663.295-1.14.29-1.156-.01-2.04-1.142-2.7-2.147-1.85-2.814-2.043-6.117-.903-7.873C2.783 4.732 4.063 4 5.265 4c.641 0 1.158.184 1.65.36.447.159.874.311 1.355.311.446 0 .813-.139 1.214-.29C9.964 4.2 10.494 4 11.265 4Z" />
</svg>