<svg xmlns="http://www.w3.org/2000/svg" viewBox="0 0 16 16" fill="none">
  <path fill="#000"
    d="M13.521 13.996c.711-2.686 1.29-5.477.902-8.258-.15-.947-.618-2.692-1.906-2.22-1.623.593-2.775 2.364-3.679 3.771a31.256 31.256 0 0 1 2.7 6.701h-1.47c-.626-1.787-1.168-3.487-2.065-5.183a29.978 29.978 0 0 0-2.037 5.189H4.484c.262-1.15 1.26-4.16 2.68-6.705-.865-1.373-1.833-2.8-3.284-3.618-1.678-.986-2.264 1.293-2.365 2.537-.266 2.646.324 5.233.957 7.781H1.001C.173 10.998-.661 6.366.792 3.5c.692-1.357 2.122-1.863 3.504-1.227C5.95 2.98 6.965 4.498 7.994 5.89c.62-.856 1.218-1.713 2.002-2.435 1.517-1.527 3.896-2.272 5.167-.042 1.51 2.819.677 7.61-.167 10.587l-1.475-.004Z" />
</svg>