<svg xmlns="http://www.w3.org/2000/svg" viewBox="0 0 16 16" fill="none">
  <path fill="#000" fill-rule="evenodd"
    d="M15.751 2.761a1 1 0 0 1 .095 1.192 6.94 6.94 0 0 1-1.275 1.504C14.536 9.82 11.364 15 5.405 15a8.776 8.776 0 0 1-4.968-1.532 1 1 0 0 1 .691-1.819c.183.024.367.035.552.034h.008c.41 0 .817-.055 1.21-.164a4.062 4.062 0 0 1-1.29-1.939 1 1 0 0 1-.007-.568A4.146 4.146 0 0 1 .56 6.262v-.035a1 1 0 0 1 .28-.694 4.173 4.173 0 0 1 .26-3.468 1 1 0 0 1 1.669-.123 7.223 7.223 0 0 0 2.315 1.977c.56.3 1.154.52 1.764.654.07-.636.284-1.25.63-1.789a3.903 3.903 0 0 1 1.775-1.495 3.73 3.73 0 0 1 2.3-.188c.558.132 1.075.39 1.518.749.35-.115.69-.273 1.008-.473a1 1 0 0 1 1.467 1.205.999.999 0 0 1 .206.179Zm-2.964.197a2.838 2.838 0 0 0-1.466-.884 2.73 2.73 0 0 0-1.684.138 2.903 2.903 0 0 0-1.319 1.114 3.133 3.133 0 0 0-.496 1.703c-.002.232.02.463.066.69A7.836 7.836 0 0 1 4.61 4.8a8.14 8.14 0 0 1-1.913-1.424 8.412 8.412 0 0 1-.723-.826 3.19 3.19 0 0 0-.027 3.013 3.02 3.02 0 0 0 .509.696v.001a2.933 2.933 0 0 0 .4.34 2.695 2.695 0 0 1-1.238-.34 2.847 2.847 0 0 1-.059-.033v.033a3.203 3.203 0 0 0 .218 1.156 3.08 3.08 0 0 0 .543.9 2.944 2.944 0 0 0 .79.637 2.818 2.818 0 0 0 .75.282 2.731 2.731 0 0 1-.754.1 2.386 2.386 0 0 1-.543-.05 3.137 3.137 0 0 0 .561 1.05 2.965 2.965 0 0 0 .866.72c.387.21.816.328 1.255.34-.378.31-.788.569-1.221.77a5.563 5.563 0 0 1-2.338.518A5.089 5.089 0 0 1 1 12.641c.222.152.451.29.686.418a7.84 7.84 0 0 0 1.177.518 7.693 7.693 0 0 0 2.54.423c5.281 0 8.169-4.615 8.169-8.616 0-.134-.005-.263-.01-.391a5.693 5.693 0 0 0 .31-.252A5.936 5.936 0 0 0 15 3.42a5.754 5.754 0 0 1-1.654.48 2.94 2.94 0 0 0 1.143-1.346c.046-.108.086-.217.12-.33a5.57 5.57 0 0 1-1.822.733Z"
    clip-rule="evenodd" />
</svg>