<svg xmlns="http://www.w3.org/2000/svg" viewBox="0 0 16 16" fill="none">
  <path fill="#000"
    d="M15.384 3.42a6.325 6.325 0 0 1-1.744.48 3.012 3.012 0 0 0 1.332-1.675 6.05 6.05 0 0 1-1.922.733 3.027 3.027 0 0 0-5.238 2.07c-.002.233.021.464.07.691A8.57 8.57 0 0 1 1.643 2.55a3.029 3.029 0 0 0 .93 4.05 2.993 2.993 0 0 1-1.367-.373v.033a3.041 3.041 0 0 0 2.426 2.975 3.017 3.017 0 0 1-.794.1 2.65 2.65 0 0 1-.573-.05 3.057 3.057 0 0 0 2.829 2.11A6.085 6.085 0 0 1 .615 12.64 8.523 8.523 0 0 0 5.26 14c5.572 0 8.618-4.615 8.618-8.616a8.27 8.27 0 0 0-.011-.391 6.036 6.036 0 0 0 1.517-1.572Z" />
</svg>