<svg xmlns="http://www.w3.org/2000/svg" viewBox="0 0 16 16" fill="none">
  <path fill="#000"
    d="m7.768 2.36.243-.001.435.002c.581.004 1.636.018 2.704.057l.172.007c1.197.048 2.38.13 2.902.272a2.01 2.01 0 0 1 1.415 1.416c.528 2.126.406 5.484.01 7.692a2.011 2.011 0 0 1-1.415 1.415c-1.167.319-5.65.338-6.184.339l-.537-.002a97.132 97.132 0 0 1-2.454-.05l-.31-.01-.295-.013c-1.124-.049-2.201-.13-2.692-.264a2.01 2.01 0 0 1-1.415-1.415C-.185 9.688-.04 6.328.337 4.123a2.01 2.01 0 0 1 1.415-1.415c1.085-.296 5.038-.341 6.016-.348Zm-1.37 3.199v4.8l4.144-2.4-4.144-2.4Z" />
</svg>