<svg xmlns="http://www.w3.org/2000/svg" viewBox="0 0 16 16" fill="none">
  <path fill="#000"
    d="M6.336 5.45a.125.125 0 0 1 .125 0l4.143 2.4a.125.125 0 0 1 0 .217l-4.143 2.4a.125.125 0 0 1-.188-.108v-4.8c0-.045.024-.086.063-.108Z" />
  <path fill="#000" fill-rule="evenodd"
    d="M11.327 2.07c1.198.052 2.382.14 2.903.293.34.098.649.29.897.556.249.266.428.597.52.96.528 2.278.406 5.876.01 8.242a2.19 2.19 0 0 1-.52.96 1.984 1.984 0 0 1-.896.556c-1.167.341-5.653.362-6.187.363l-.538-.002a90.673 90.673 0 0 1-2.454-.053l-.31-.012-.296-.013c-1.124-.053-2.202-.14-2.693-.283a1.985 1.985 0 0 1-.897-.556 2.194 2.194 0 0 1-.52-.96c-.53-2.268-.385-5.868-.01-8.23.092-.364.271-.695.52-.961.248-.266.557-.458.897-.556 1.085-.317 5.04-.366 6.019-.373L8.015 2l.435.002c.581.005 1.637.019 2.706.062l.171.007Zm3.07 1.531c.127.137.226.314.278.515.481 2.088.38 5.502.003 7.794a1.19 1.19 0 0 1-.271.489.985.985 0 0 1-.445.278h-.002c-.183.054-.59.114-1.187.164-.57.048-1.24.082-1.899.106A91.926 91.926 0 0 1 8.055 13l-.53-.002h-.002a89.585 89.585 0 0 1-2.424-.053h-.001l-.303-.011h-.004l-.289-.013h-.001a31.242 31.242 0 0 1-1.532-.103c-.468-.046-.778-.097-.926-.14l-.002-.001a.985.985 0 0 1-.444-.278 1.192 1.192 0 0 1-.279-.516C.835 9.811.956 6.4 1.316 4.097a1.2 1.2 0 0 1 .27-.485.985.985 0 0 1 .445-.278h.002c.168-.05.531-.106 1.071-.155a37.044 37.044 0 0 1 1.74-.109 90.148 90.148 0 0 1 2.934-.069h.001L8.015 3l.427.002h.001c.577.005 1.62.019 2.673.06l.17.008c.59.025 1.166.06 1.654.104.51.048.85.102 1.01.149h.002c.16.047.315.14.444.278Z"
    clip-rule="evenodd" />
</svg>