<svg viewBox="0 0 32 32" xmlns="http://www.w3.org/2000/svg"><path d="m17 10c0 0.552-0.448 1-1 1s-1-0.448-1-1c0-0.552 0.448-1 1-1s1 0.448 1 1z" fill="#000"/><path d="m16 14c0.414 0 0.75 0.336 0.75 0.75v7.5c0 0.414-0.336 0.75-0.75 0.75s-0.75-0.336-0.75-0.75v-7.5c0-0.414 0.336-0.75 0.75-0.75z" fill="#000"/><path d="m32 16c0 8.84-7.16 16-16 16-8.84 0-16-7.16-16-16 0-8.84 7.16-16 16-16 8.84 0 16 7.16 16 16zm-1 0c0 8.28-6.72 15-15 15-8.28 0-15-6.72-15-15 0-8.28 6.72-15 15-15 8.28 0 15 6.72 15 15z" clip-rule="evenodd" fill="#000" fill-rule="evenodd"/></svg>
