<svg width="32" height="32" viewBox="0 0 32 32" fill="none" xmlns="http://www.w3.org/2000/svg">
<path d="M16.75 10.75C16.75 10.3358 16.4142 10 16 10C15.5858 10 15.25 10.3358 15.25 10.75V19.25C15.25 19.6642 15.5858 20 16 20C16.4142 20 16.75 19.6642 16.75 19.25V10.75Z" fill="white"/>
<path d="M16 25C16.5523 25 17 24.5523 17 24C17 23.4477 16.5523 23 16 23C15.4477 23 15 23.4477 15 24C15 24.5523 15.4477 25 16 25Z" fill="white"/>
<path fill-rule="evenodd" clip-rule="evenodd" d="M12.4389 2.20483L0.429392 26.2024C-0.902217 28.8633 1.02448 32 3.99049 32H28.0095C30.9755 32 32.9022 28.8633 31.5706 26.2024L19.5611 2.20483C18.0899 -0.734944 13.9101 -0.734943 12.4389 2.20483ZM1.32366 26.65L13.3332 2.65236C14.4357 0.449212 17.5643 0.449212 18.6668 2.65236L30.6763 26.65C31.6781 28.6517 30.2255 31 28.0095 31H3.99049C1.77453 31 0.321886 28.6517 1.32366 26.65Z" fill="white"/>
</svg>
