<svg viewBox="0 0 16 16" xmlns="http://www.w3.org/2000/svg"><path d="m1 2.4c0-0.84 0-1.26 0.163-1.58 0.144-0.282 0.373-0.512 0.656-0.656 0.321-0.163 0.741-0.163 1.58-0.163h1.2c0.84 0 1.26 0 1.58 0.163 0.282 0.144 0.512 0.373 0.656 0.656 0.163 0.321 0.163 0.741 0.163 1.58v2.2c0 0.84 0 1.26-0.163 1.58-0.144 0.282-0.373 0.512-0.656 0.656-0.321 0.163-0.741 0.163-1.58 0.163h-1.2c-0.84 0-1.26 0-1.58-0.163-0.282-0.144-0.512-0.373-0.656-0.656-0.163-0.321-0.163-0.741-0.163-1.58v-2.2zm2.4-1.4h1.2c0.437 0 0.704 7.8e-4 0.904 0.0171 0.0932 0.00761 0.15 0.0172 0.184 0.0252 0.0163 0.00383 0.0263 0.00704 0.0317 0.00898 0.0052 0.00185 0.00738 0.00296 0.00779 0.00317 0.0941 0.0479 0.171 0.124 0.218 0.218 2.1e-4 4.1e-4 0.00132 0.00259 0.00317 0.00779 0.00194 0.00541 0.00515 0.0154 0.00898 0.0317 0.00806 0.0342 0.0176 0.0906 0.0252 0.184 0.0163 0.2 0.0171 0.467 0.0171 0.904v2.2c0 0.437-7.8e-4 0.704-0.0171 0.904-0.00761 0.0932-0.0172 0.15-0.0252 0.184-0.00383 0.0163-0.00704 0.0263-0.00898 0.0317-0.00122 0.00343-0.00212 0.00555-0.00265 0.00671l-5.2e-4 0.00108c-0.0479 0.0941-0.124 0.171-0.218 0.218l-0.00108 5.2e-4c-0.00116 5.3e-4 -0.00328 0.00143-0.00671 0.00265-0.00541 0.00194-0.0154 0.00515-0.0317 0.00898-0.0342 0.00806-0.0906 0.0176-0.184 0.0252-0.2 0.0163-0.467 0.0171-0.904 0.0171h-1.2c-0.437 0-0.704-7.8e-4 -0.904-0.0171-0.0932-0.00761-0.15-0.0172-0.184-0.0252-0.0163-0.00383-0.0263-0.00704-0.0317-0.00898-0.0052-0.00185-0.00738-0.00296-0.00779-0.00317-0.0941-0.0479-0.171-0.124-0.218-0.218-2.1e-4 -4.1e-4 -0.00132-0.00259-0.00317-0.00779-0.00194-0.00541-0.00515-0.0154-0.00898-0.0317-0.00806-0.0342-0.0176-0.0906-0.0252-0.184-0.0163-0.2-0.0171-0.467-0.0171-0.904v-2.2c0-0.437 7.8e-4 -0.704 0.0171-0.904 0.00761-0.0932 0.0172-0.15 0.0252-0.184 0.00383-0.0163 0.00704-0.0263 0.00898-0.0317 0.00185-0.0052 0.00296-0.00738 0.00317-0.00779 0.0479-0.0941 0.124-0.171 0.218-0.218 4.1e-4 -2.1e-4 0.00259-0.00132 0.00779-0.00317 0.00541-0.00194 0.0154-0.00515 0.0317-0.00898 0.0342-0.00806 0.0906-0.0176 0.184-0.0252 0.2-0.0163 0.467-0.0171 0.904-0.0171z" clip-rule="evenodd" fill="#000" fill-rule="evenodd"/><path d="m1 11.4c0-0.84 0-1.26 0.163-1.58 0.144-0.282 0.373-0.512 0.656-0.656 0.321-0.163 0.741-0.163 1.58-0.163h1.2c0.84 0 1.26 0 1.58 0.163 0.282 0.144 0.512 0.373 0.656 0.656 0.163 0.321 0.163 0.741 0.163 1.58v2.2c0 0.84 0 1.26-0.163 1.58-0.144 0.282-0.373 0.512-0.656 0.656-0.321 0.164-0.741 0.164-1.58 0.164h-1.2c-0.84 0-1.26 0-1.58-0.164-0.282-0.144-0.512-0.373-0.656-0.656-0.163-0.321-0.163-0.741-0.163-1.58v-2.2zm2.4-1.4h1.2c0.437 0 0.704 8e-4 0.904 0.0171 0.0932 0.0076 0.15 0.0172 0.184 0.0252 0.0163 0.0039 0.0263 0.0071 0.0317 9e-3 0.00343 0.0012 0.00555 0.0021 0.00671 0.0027l0.00108 5e-4c0.0941 0.0479 0.171 0.124 0.218 0.218 2.1e-4 4e-4 0.00132 0.0026 0.00317 0.0078 0.00194 0.0054 0.00515 0.0154 0.00898 0.0317 0.00806 0.0342 0.0176 0.0906 0.0252 0.184 0.0163 0.2 0.0171 0.467 0.0171 0.904v2.2c0 0.436-7.8e-4 0.704-0.0171 0.904-0.00761 0.0931-0.0172 0.15-0.0252 0.184-0.00383 0.0163-0.00704 0.0263-0.00898 0.0317-0.00123 0.0035-0.00214 0.0056-0.00267 0.0068l-5e-4 1e-3c-0.0479 0.0941-0.124 0.171-0.218 0.218l-0.00221 1e-3 -0.00558 0.0022c-0.00541 0.0019-0.0154 0.0051-0.0317 9e-3 -0.0342 8e-3 -0.0906 0.0176-0.184 0.0252-0.2 0.0163-0.467 0.0171-0.904 0.0171h-1.2c-0.437 0-0.704-8e-4 -0.904-0.0171-0.0932-0.0076-0.15-0.0172-0.184-0.0252-0.0163-0.0039-0.0263-0.0071-0.0317-9e-3 -0.0052-0.0019-0.00738-3e-3 -0.00779-0.0032-0.0941-0.0479-0.171-0.124-0.218-0.218l-9.4e-4 -2e-3 -0.00223-0.0058c-0.00194-0.0054-0.00515-0.0154-0.00898-0.0317-0.00806-0.0342-0.0176-0.0906-0.0252-0.184-0.0163-0.2-0.0171-0.467-0.0171-0.904v-2.2c0-0.436 7.8e-4 -0.704 0.0171-0.904 0.00761-0.0931 0.0172-0.15 0.0252-0.184 0.00383-0.0163 0.00704-0.0263 0.00898-0.0317 0.00185-0.0052 0.00296-0.0074 0.00317-0.0078 0.0479-0.0941 0.124-0.171 0.218-0.218 4.5e-4 -2e-4 0.00184-9e-4 0.00269-0.0012 0.00122-5e-4 0.00288-0.0012 0.0051-2e-3 0.00541-0.0019 0.0154-0.0051 0.0317-9e-3 0.0342-8e-3 0.0906-0.0176 0.184-0.0252 0.2-0.0163 0.467-0.0171 0.904-0.0171z" clip-rule="evenodd" fill="#000" fill-rule="evenodd"/><path d="m9.16 0.819c-0.163 0.321-0.163 0.741-0.163 1.58v2.2c0 0.84 0 1.26 0.163 1.58 0.144 0.282 0.373 0.512 0.656 0.656 0.321 0.163 0.741 0.163 1.58 0.163h1.2c0.84 0 1.26 0 1.58-0.163 0.282-0.144 0.512-0.373 0.656-0.656 0.164-0.321 0.164-0.741 0.164-1.58v-2.2c0-0.84 0-1.26-0.164-1.58-0.144-0.282-0.373-0.512-0.656-0.656-0.321-0.163-0.741-0.163-1.58-0.163h-1.2c-0.84 0-1.26 0-1.58 0.163-0.282 0.144-0.512 0.373-0.656 0.656zm3.44 0.181h-1.2c-0.436 0-0.704 7.8e-4 -0.904 0.0171-0.0931 0.00761-0.15 0.0172-0.184 0.0252-0.0163 0.00383-0.0263 0.00704-0.0317 0.00898-0.0052 0.00185-0.0074 0.00296-0.0078 0.00317-0.0941 0.0479-0.171 0.124-0.218 0.218-2e-4 4.1e-4 -0.0013 0.00259-0.0032 0.00779-0.0019 0.00541-0.0051 0.0154-9e-3 0.0317-8e-3 0.0342-0.0176 0.0906-0.0252 0.184-0.0163 0.2-0.0171 0.467-0.0171 0.904v2.2c0 0.437 8e-4 0.704 0.0171 0.904 0.0076 0.0932 0.0172 0.15 0.0252 0.184 0.0039 0.0163 0.0071 0.0263 9e-3 0.0317 0.0012 0.00343 0.0021 0.00555 0.0027 0.00671 3e-4 5.9e-4 4e-4 9.4e-4 5e-4 0.00108 0.0479 0.0941 0.124 0.171 0.218 0.218 4e-4 2.1e-4 0.0026 0.00132 0.0078 0.00317 0.0054 0.00194 0.0154 0.00515 0.0317 0.00898 0.0342 0.00806 0.0906 0.0176 0.184 0.0252 0.2 0.0163 0.467 0.0171 0.904 0.0171h1.2c0.436 0 0.704-7.8e-4 0.904-0.0171 0.0931-0.00761 0.15-0.0172 0.184-0.0252 0.0163-0.00383 0.0263-0.00704 0.0317-0.00898 0.0028-0.00101 0.0048-0.00179 6e-3 -0.00234 0.0011-4.5e-4 0.0016-7.3e-4 0.0018-8.3e-4 0.0941-0.0479 0.171-0.124 0.218-0.218-1e-4 2e-4 0-8e-5 0 0 4e-4 -9e-4 0.0017-0.00354 0.0032-0.00779 0.0019-0.00541 0.0051-0.0154 9e-3 -0.0317 8e-3 -0.0342 0.0176-0.0906 0.0252-0.184 0.0163-0.2 0.0171-0.467 0.0171-0.904v-2.2c0-0.437-8e-4 -0.704-0.0171-0.904-0.0076-0.0932-0.0172-0.15-0.0252-0.184-0.0039-0.0163-0.0071-0.0263-9e-3 -0.0317-0.0019-0.0052-3e-3 -0.00738-0.0032-0.00779-0.0479-0.0941-0.124-0.171-0.218-0.218-4e-4 -2.1e-4 -0.0026-0.00132-0.0078-0.00317-0.0054-0.00194-0.0154-0.00515-0.0317-0.00898-0.0342-0.00806-0.0906-0.0176-0.184-0.0252-0.2-0.0163-0.467-0.0171-0.904-0.0171z" clip-rule="evenodd" fill="#000" fill-rule="evenodd"/><path d="m16 8.5c0-0.276-0.224-0.5-0.5-0.5s-0.5 0.224-0.5 0.5v1.8c0 0.568-4e-4 0.964-0.0256 1.27-0.0247 0.303-0.0708 0.476-0.138 0.608-0.144 0.282-0.373 0.512-0.656 0.656-0.132 0.0671-0.306 0.113-0.608 0.138-0.308 0.0252-0.705 0.0256-1.27 0.0256h-1.59l1.15-1.15c0.195-0.195 0.195-0.512 0-0.707-0.195-0.195-0.512-0.195-0.707 0l-2 2c-0.0479 0.048-0.0841 0.103-0.109 0.162-0.0241 0.0581-0.0375 0.122-0.0379 0.188l-1e-5 3e-3 1e-5 3e-3c3.9e-4 0.0667 0.0138 0.13 0.0379 0.188 0.0244 0.059 0.0606 0.114 0.109 0.162l2 2c0.195 0.195 0.512 0.195 0.707 0 0.195-0.195 0.195-0.512 0-0.707l-1.15-1.15h1.61c0.542 0 0.979 0 1.33-0.0289 0.364-0.0298 0.684-0.0927 0.981-0.244 0.47-0.24 0.853-0.622 1.09-1.09 0.151-0.296 0.214-0.616 0.244-0.981 0.0289-0.354 0.0289-0.791 0.0289-1.33v-1.82z" fill="#000"/></svg>
