<svg viewBox="0 0 16 16" xmlns="http://www.w3.org/2000/svg"><path d="m14 5h-3.5c-0.276 0-0.5-0.224-0.5-0.5v-3.5h-3c-0.717 0-1.19 7.8e-4 -1.56 0.0307-0.355 0.029-0.518 0.0803-0.62 0.133-0.282 0.144-0.512 0.373-0.656 0.656-0.0524 0.103-0.104 0.265-0.133 0.62-0.03 0.367-0.0307 0.844-0.0307 1.56v2.5l-1-1v-1.5c0-1.4 0-2.1 0.272-2.63 0.24-0.47 0.622-0.853 1.09-1.09 0.535-0.272 1.23-0.272 2.63-0.272h3.51c0.367 0 0.55 0 0.723 0.0414 0.153 0.0367 0.299 0.0974 0.434 0.18 0.151 0.0928 0.281 0.222 0.54 0.482l2.09 2.09c0.259 0.259 0.389 0.389 0.482 0.541 0.0822 0.134 0.143 0.281 0.18 0.434 0.0414 0.173 0.0414 0.356 0.0414 0.723v2.51h-1v-2zm-3-3.99c0.0494 0.0124 0.0965 0.0322 0.14 0.0587 0.027 0.0165 0.0629 0.0433 0.356 0.336l2.09 2.09c0.293 0.293 0.32 0.329 0.336 0.356 0.0266 0.0434 0.0464 0.0906 0.0588 0.14h-2.99v-2.99z" clip-rule="evenodd" fill="#000" fill-rule="evenodd"/><path d="m4 12.5-0.978 0.978c0.0292 0.502 0.0963 0.856 0.25 1.16 0.24 0.47 0.622 0.853 1.09 1.09 0.535 0.272 1.23 0.272 2.63 0.272h4c1.4 0 2.1 0 2.64-0.272 0.47-0.24 0.853-0.622 1.09-1.09 0.272-0.535 0.272-1.23 0.272-2.64h-1c0 0.717-8e-4 1.19-0.0307 1.56-0.029 0.355-0.0803 0.518-0.133 0.62-0.144 0.282-0.373 0.512-0.656 0.656-0.103 0.0525-0.265 0.104-0.62 0.133-0.367 0.0299-0.844 0.0307-1.56 0.0307h-4c-0.717 0-1.19-8e-4 -1.56-0.0307-0.355-0.029-0.518-0.0803-0.62-0.133-0.282-0.144-0.512-0.373-0.656-0.656-0.0524-0.103-0.104-0.265-0.133-0.62-0.0224-0.274-0.0285-0.61-0.0301-1.06z" fill="#000"/><path d="m5 9.5c0-0.276 0.224-0.5 0.5-0.5h2c0.276 0 0.5 0.224 0.5 0.5s-0.224 0.5-0.5 0.5h-2c-0.276 0-0.5-0.224-0.5-0.5z" fill="#000"/><path d="m13 9.5c0-0.276 0.224-0.5 0.5-0.5h2c0.276 0 0.5 0.224 0.5 0.5s-0.224 0.5-0.5 0.5h-2c-0.276 0-0.5-0.224-0.5-0.5z" fill="#000"/><path d="m0.985 7.17c-0.225-0.232-0.591-0.232-0.816 0-0.225 0.232-0.225 0.609 0 0.842l1.44 1.48-1.44 1.48c-0.225 0.232-0.225 0.609 0 0.842 0.225 0.232 0.591 0.232 0.816 0l1.85-1.9c0.225-0.232 0.225-0.609 0-0.842l-1.85-1.9z" fill="#000"/><path d="m11.5 10c0.276 0 0.5-0.224 0.5-0.5s-0.224-0.5-0.5-0.5h-2c-0.276 0-0.5 0.224-0.5 0.5s0.224 0.5 0.5 0.5h2z" fill="#000"/></svg>
