<svg viewBox="0 0 16 16" xmlns="http://www.w3.org/2000/svg"><path d="m16 13.5c0 1.38-1.12 2.5-2.5 2.5h-6c-0.979 0-1.83-0.562-2.24-1.38-0.152-0.303 0.104-0.618 0.443-0.618 0.227 0 0.422 0.149 0.549 0.338 0.269 0.4 0.726 0.662 1.24 0.662h6c0.828 0 1.5-0.672 1.5-1.5v-8c0-0.828-0.672-1.5-1.5-1.5h-1c-0.276 0-0.5-0.224-0.5-0.5s0.224-0.5 0.5-0.5h1c1.38 0 2.5 1.12 2.5 2.5v8z" fill="#000" opacity=".3"/><path d="m6.15 3.15c0.143-0.143 0.358-0.186 0.545-0.108 0.187 0.0774 0.309 0.26 0.309 0.462v5c-1e-5 0.276-0.224 0.5-0.5 0.5-0.276 0-0.5-0.224-0.5-0.5v-3.79l-1.15 1.15c-0.195 0.195-0.512 0.195-0.707 0-0.195-0.195-0.195-0.512 0-0.707l2-2z" fill="#000"/><path d="m8.5 0c1.38 0 2.5 1.12 2.5 2.5v8c0 1.38-1.12 2.5-2.5 2.5h-6c-1.38 0-2.5-1.12-2.5-2.5v-8c0-1.38 1.12-2.5 2.5-2.5h6zm-6 1c-0.828 0-1.5 0.672-1.5 1.5v8c0 0.828 0.672 1.5 1.5 1.5h6c0.828 0 1.5-0.672 1.5-1.5v-8c0-0.828-0.672-1.5-1.5-1.5h-6z" clip-rule="evenodd" fill="#000" fill-rule="evenodd"/></svg>
