<svg viewBox="0 0 16 16" xmlns="http://www.w3.org/2000/svg"><path d="m6 5c0.233 0 0.442 0.134 0.525 0.338l2.44 5.95c0.111 0.271-0.0344 0.574-0.324 0.678-0.29 0.104-0.615-0.032-0.726-0.303l-0.665-1.66h-2.49l-0.665 1.66c-0.111 0.271-0.436 0.406-0.726 0.303-0.29-0.104-0.435-0.407-0.324-0.678l2.44-5.95c0.0833-0.203 0.292-0.338 0.525-0.338zm-1e-5 1.88 0.847 2.12h-1.69l0.847-2.12z" clip-rule="evenodd" fill="#000" fill-rule="evenodd"/><path d="m14.4 2.33c-0.642-0.327-1.48-0.327-3.16-0.327h-6.4c-1.68 0-2.52 0-3.16 0.327-0.564 0.288-1.02 0.747-1.31 1.31-0.327 0.642-0.327 1.48-0.327 3.16v2.4c0 1.68 0 2.52 0.327 3.16 0.288 0.564 0.747 1.02 1.31 1.31 0.642 0.327 1.48 0.327 3.16 0.327h6.37c0.489 0 0.734 0 0.964-0.0553 0.204-0.049 0.399-0.13 0.578-0.239 0.202-0.124 0.375-0.297 0.721-0.643l1.63-1.63c0.346-0.346 0.519-0.519 0.643-0.721 0.11-0.179 0.19-0.374 0.239-0.578 0.0553-0.23 0.0553-0.475 0.0553-0.964v-2.37c0-1.68 0-2.52-0.327-3.16-0.288-0.564-0.746-1.02-1.31-1.31zm-13.4 4.47v2.4c0 0.857 7.8e-4 1.44 0.0376 1.89 0.0358 0.438 0.101 0.663 0.18 0.819 0.192 0.376 0.498 0.682 0.874 0.874 0.156 0.0797 0.381 0.145 0.819 0.18 0.45 0.0368 1.03 0.0376 1.89 0.0376h6.2v-3.5c0-0.276 0.224-0.5 0.5-0.5h3.5v-2.2c0-0.857-8e-4 -1.44-0.0376-1.89-0.0358-0.438-0.101-0.663-0.18-0.819-0.192-0.376-0.498-0.682-0.874-0.874-0.156-0.0797-0.381-0.145-0.819-0.18-0.45-0.0368-1.03-0.0376-1.89-0.0376h-6.4c-0.857 0-1.44 7.8e-4 -1.89 0.0376-0.438 0.0358-0.663 0.101-0.819 0.18-0.376 0.192-0.682 0.498-0.874 0.874-0.0797 0.156-0.145 0.381-0.18 0.819-0.0368 0.45-0.0376 1.03-0.0376 1.89zm11.2 6.05c-0.0613 0.0376-0.126 0.0684-0.194 0.0919v-2.94h2.94c-0.0235 0.0677-0.0543 0.133-0.0919 0.194-0.0474 0.0774-0.117 0.156-0.497 0.536l-1.63 1.63c-0.38 0.38-0.459 0.45-0.536 0.497z" clip-rule="evenodd" fill="#000" fill-rule="evenodd"/></svg>
