<svg viewBox="0 0 16 16" xmlns="http://www.w3.org/2000/svg"><path d="m5 1-1 1v0.00176c-0.446 0.00313-0.795 0.0118-1.09 0.0358-0.438 0.0358-0.663 0.101-0.819 0.18-0.376 0.192-0.682 0.498-0.874 0.874-0.0797 0.156-0.145 0.381-0.18 0.819-0.014 0.171-0.0228 0.362-0.0283 0.58l-1.01 1.01c0.00116-1.48 0.02-2.26 0.327-2.86 0.288-0.564 0.747-1.02 1.31-1.31 0.642-0.327 1.48-0.327 3.16-0.327h0.2z" fill="#000"/><path d="m10 1 1 1h0.2c0.857 0 1.44 7.8e-4 1.89 0.0376 0.438 0.0358 0.663 0.101 0.819 0.18 0.376 0.192 0.682 0.498 0.874 0.874 0.0797 0.156 0.145 0.381 0.18 0.819 0.014 0.171 0.0228 0.362 0.0283 0.58l1.01 1.01c-0.0011-1.48-0.02-2.26-0.327-2.86-0.288-0.564-0.747-1.02-1.31-1.31-0.642-0.327-1.48-0.327-3.16-0.327h-1.2z" fill="#000"/><path d="m2.91 12c0.294 0.024 0.643 0.0327 1.09 0.0358v0.0018l1 1h-0.2c-1.68 0-2.52 0-3.16-0.327-0.564-0.288-1.02-0.746-1.31-1.31-0.228-0.448-0.297-0.993-0.318-1.85l1.1 1.1c0.0302 0.126 0.0656 0.218 0.104 0.294 0.192 0.376 0.498 0.682 0.874 0.874 0.156 0.0797 0.381 0.145 0.819 0.18z" fill="#000"/><path d="m5 13 1.79 1.79c0.391 0.39 1.02 0.39 1.41 0l2.79-2.79h0.2c0.857 0 1.44-8e-4 1.89-0.0376 0.438-0.0358 0.663-0.101 0.819-0.18 0.376-0.192 0.682-0.498 0.874-0.874 0.0389-0.0763 0.0743-0.169 0.104-0.294l1.1-1.1c-0.0208 0.86-0.0897 1.4-0.318 1.85-0.288 0.564-0.747 1.02-1.31 1.31-0.642 0.327-1.48 0.327-3.16 0.327h-0.2v2h1.5c0.276 0 0.5 0.224 0.5 0.5s-0.224 0.5-0.5 0.5h-9c-0.276 0-0.5-0.224-0.5-0.5s0.224-0.5 0.5-0.5h1.5v-2z" fill="#000"/><path d="m7.31 13c0.0581 0.024 0.122 0.0375 0.188 0.0379h0.00299 3e-3c0.127-8e-4 0.254-0.0496 0.351-0.146l2-2c0.195-0.195 0.195-0.512 0-0.707-0.195-0.195-0.512-0.195-0.707 0l-1.15 1.15v-3.29h5.29l-1.15 1.15c-0.195 0.195-0.195 0.512 0 0.707 0.195 0.195 0.512 0.195 0.707 0l2-2c0.048-0.0479 0.0841-0.103 0.108-0.162 0.0241-0.0581 0.0376-0.122 0.038-0.188v-3e-3 -3e-3c-4e-4 -0.0667-0.0139-0.13-0.038-0.188-0.0244-0.059-0.0605-0.114-0.108-0.162l-2-2c-0.195-0.195-0.512-0.195-0.707 0-0.195 0.195-0.195 0.512 0 0.707l1.15 1.15h-5.29v-4.29l1.15 1.15c0.195 0.195 0.512 0.195 0.707 0 0.195-0.195 0.195-0.512 0-0.707l-2-2c-0.0479-0.0479-0.103-0.0841-0.162-0.109-0.0581-0.0241-0.122-0.0375-0.188-0.0379l-3e-3 -1e-5 -0.00299 1e-5c-0.0667 3.9e-4 -0.13 0.0138-0.188 0.0379-0.059 0.0244-0.114 0.0606-0.162 0.109l-2 2c-0.195 0.195-0.195 0.512 0 0.707 0.195 0.195 0.512 0.195 0.707 0l1.15-1.15v4.29h-4.29l1.15-1.15c0.195-0.195 0.195-0.512 0-0.707-0.195-0.195-0.512-0.195-0.707 0l-2 2c-0.0479 0.0479-0.0841 0.103-0.109 0.162-0.0241 0.0581-0.0375 0.122-0.0379 0.188l-8e-6 3e-3 8e-6 3e-3c7.57e-4 0.127 0.0496 0.254 0.146 0.351l2 2c0.195 0.195 0.512 0.195 0.707 0 0.195-0.195 0.195-0.512 0-0.707l-1.15-1.15h4.29v3.29l-1.15-1.15c-0.195-0.195-0.512-0.195-0.707 0-0.195 0.195-0.195 0.512 0 0.707l2 2c0.0479 0.0479 0.103 0.0841 0.162 0.108z" fill="#000"/></svg>
