<svg xmlns="http://www.w3.org/2000/svg" viewBox="0 0 16 16" fill="none">
  <path fill="#000"
    d="M12.5 2A2.5 2.5 0 0 1 15 4.5v10a.5.5 0 0 1-.686.464L12 14.038l-2.314.926a.5.5 0 0 1-.28.027l-.092-.027L7 14.038l-2.314.926a.5.5 0 0 1-.679-.378L4 14.5V7.36l-.985-.328-2.33.932a.5.5 0 0 1-.678-.378L0 7.5v-3A2.5 2.5 0 0 1 2.5 2h10Zm0 1H4.499l.019.024C4.82 3.437 5 3.948 5 4.5v9.261l1.814-.725a.5.5 0 0 1 .28-.027l.092.027 2.313.925 2.315-.925a.5.5 0 0 1 .28-.027l.092.027 1.814.725v-9.26a1.5 1.5 0 0 0-1.355-1.494L12.5 3Zm-3 6a.5.5 0 0 1 0 1h-3a.5.5 0 1 1 0-1h3Zm3-2a.5.5 0 0 1 0 1h-6a.5.5 0 1 1 0-1h6Zm-10-4-.144.007A1.5 1.5 0 0 0 1 4.5v2.261l1.814-.725a.5.5 0 0 1 .258-.03l.086.02.842.28V4.5a1.5 1.5 0 0 0-1.356-1.493L2.5 3Zm10 2a.5.5 0 0 1 0 1h-6a.5.5 0 1 1 0-1h6Z" />
</svg>