<svg xmlns="http://www.w3.org/2000/svg" viewBox="0 0 16 16" fill="none">
  <path fill="#000"
    d="M5 6.5a.5.5 0 0 1 1 0v1a.5.5 0 1 1-1 0v-1Zm3 0a.5.5 0 0 1 1 0v1a.5.5 0 1 1-1 0v-1Zm3.5-.5a.5.5 0 0 0-.5.5v1a.5.5 0 0 0 1 0v-1a.5.5 0 0 0-.5-.5Z" />
  <path fill="#000" fill-rule="evenodd"
    d="M13.505 4H3.257l-.264-1.582A.5.5 0 0 0 2.5 2h-1a.5.5 0 1 0 0 1h.576l1.431 8.582A.5.5 0 0 0 4 12h8.5a.5.5 0 1 0 0-1H4.424l-.167-1H13a1 1 0 0 0 .992-.876l.491-3.929A.999.999 0 0 0 13.505 4ZM3.418 5l.664 4H13l.5-4H3.418Z"
    clip-rule="evenodd" />
  <path fill="#000"
    d="M3.616 12.866a1.25 1.25 0 1 1 1.768 1.768 1.25 1.25 0 0 1-1.768-1.768Zm8 0a1.25 1.25 0 1 1 1.768 1.768 1.25 1.25 0 0 1-1.768-1.768Z" />
</svg>