<svg fill="none" viewBox="0 0 16 16" xmlns="http://www.w3.org/2000/svg"><path d="m11.6 1.07e-6c0.405 0 0.763-5.04e-4 1.06 0.0205 0.302 0.0216 0.619 0.0698 0.932 0.209 0.457 0.204 0.855 0.541 1.11 0.984 0.184 0.316 0.247 0.639 0.274 0.932 0.0257 0.276 0.0244 0.606 0.0244 0.955v10.2c0 0.329 0.0013 0.654-0.0264 0.921-0.0286 0.276-0.0991 0.636-0.348 0.961-0.315 0.412-0.777 0.666-1.26 0.75-0.364 0.0629-0.7-2e-3 -0.974-0.0771-0.271-0.0745-0.594-0.193-0.948-0.322l-0.0108-0.0039-0.0097-0.0039-3.17-1.23c-0.107-0.039-0.166-0.0601-0.21-0.0742-0.039-0.0124-0.0384-0.01-0.0225-0.0078-0.00583-8e-4 -0.0123-0.0019-0.0186-2e-3 -0.00676 0-0.0142 0.0011-0.0205 2e-3 0.016-0.0022 0.0166-0.0046-0.0225 0.0078-0.0445 0.0142-0.103 0.034-0.211 0.0732l-3.17 1.24-0.00977 0.0039-0.0107 0.0039c-0.354 0.129-0.677 0.248-0.948 0.322-0.274 0.0751-0.61 0.14-0.974 0.0771-0.485-0.0839-0.947-0.338-1.26-0.75-0.249-0.325-0.319-0.685-0.348-0.961-0.0277-0.267-0.0264-0.592-0.0264-0.921v-10.2c-1e-6 -0.349-0.00136-0.679 0.0244-0.955 0.0273-0.292 0.0907-0.616 0.274-0.932l0.104-0.161c0.255-0.364 0.61-0.645 1.01-0.823 0.312-0.139 0.629-0.187 0.932-0.209 0.294-0.021 0.651-0.0205 1.06-0.0205h7.2zm-7.2 1-0.557 0.00195c-0.488 0.00671-0.784 0.0343-1.02 0.142l-0.104 0.0498c-0.235 0.126-0.427 0.307-0.553 0.523-0.163 0.281-0.163 0.649-0.163 1.38v10.2l0.00293 0.464c0.00791 0.406 0.0393 0.645 0.166 0.811 0.148 0.193 0.377 0.327 0.638 0.372 0.223 0.0385 0.487-0.0283 0.918-0.178l0.491-0.176 3.17-1.24c0.17-0.0622 0.277-0.101 0.369-0.123l0.0889-0.0175c0.0533-0.0075 0.107-0.011 0.161-0.0108 0.0512 2e-4 0.103 0.0037 0.153 0.0108 0.117 0.0163 0.231 0.0578 0.458 0.141l3.17 1.24c0.648 0.236 1.01 0.369 1.29 0.364l0.115-0.0107c0.26-0.045 0.49-0.179 0.638-0.372 0.127-0.166 0.158-0.405 0.166-0.811l0.0029-0.464v-10.2c0-0.643 0-1-0.109-1.27l-0.0537-0.11c-0.126-0.216-0.318-0.397-0.553-0.523l-0.104-0.0498c-0.321-0.143-0.741-0.144-1.58-0.144h-7.2z" clip-rule="evenodd" fill="#000" fill-rule="evenodd"/></svg>
