<svg fill="none" viewBox="0 0 16 16" xmlns="http://www.w3.org/2000/svg"><path d="m14.4 2.22c0.3-0.239 0.711-0.285 1.06-0.119 0.346 0.167 0.566 0.517 0.566 0.901v8c0 0.304-0.139 0.592-0.376 0.781l-0.0029 0.0019-0.0039 3e-3c-3e-3 0.0023-0.0067 0.0055-0.0108 0.0087-0.0085 0.0067-0.0198 0.0154-0.0332 0.0254-0.0271 0.0205-0.0646 0.048-0.111 0.0811-0.0938 0.0664-0.227 0.157-0.398 0.263-0.344 0.211-0.843 0.486-1.49 0.758-1.29 0.544-3.17 1.08-5.58 1.08-4.11-1e-4 -6.7-1.57-7.42-2.07-0.0203-0.014-0.179-0.115-0.31-0.278-0.0989-0.124-0.176-0.272-0.222-0.424-0.0608-0.205-0.0518-0.405-0.0518-0.424v-6.98c-1.1e-6 -0.126-5.72e-4 -0.278 0.00879-0.403 0.00641-0.0858 0.0252-0.396 0.229-0.677l0.084-0.104c0.205-0.229 0.482-0.371 0.794-0.405l0.129-0.00586c0.291 0.00276 0.518 0.117 0.581 0.147 0.115 0.0554 0.25 0.133 0.367 0.2 0.918 0.524 2.9 1.42 5.81 1.42 2.1 0 3.72-0.466 4.8-0.922 0.541-0.228 0.949-0.454 1.21-0.617 0.133-0.0816 0.23-0.148 0.291-0.19 0.0298-0.0211 0.0507-0.037 0.0625-0.0459l0.0088-0.00683zm0.623 0.782c-0.0284 0.0226-2.53 2-7 2-2.72-8e-5 -4.72-0.733-5.86-1.31l-0.439-0.236c-0.262-0.15-0.394-0.225-0.475-0.216-0.0751 0.00834-0.13 0.0404-0.175 0.102-0.0474 0.0657-0.0478 0.209-0.0478 0.494v6.98c0 0.0688 4.3e-4 0.104 0.0107 0.139 0.00854 0.0285 0.0254 0.0617 0.0439 0.085 0.0226 0.0282 0.0483 0.0461 0.0986 0.081 0.607 0.422 2.99 1.89 6.85 1.89 4.47 0 6.97-1.98 7-2v-8z" clip-rule="evenodd" fill="#000" fill-rule="evenodd"/></svg>
