<svg fill="none" viewBox="0 0 16 16" xmlns="http://www.w3.org/2000/svg"><path d="m8 2c2.4 0 4.28 0.534 5.58 1.08 0.645 0.272 1.14 0.546 1.49 0.758 0.171 0.106 0.305 0.196 0.398 0.263 0.0467 0.0331 0.0842 0.0606 0.111 0.0811 0.0134 0.0101 0.0247 0.0188 0.0332 0.0254 0.0041 0.00318 0.0078 0.00645 0.0108 0.00879l0.0039 0.00293 0.0019 9.7e-4c0.234 0.19 0.377 0.48 0.377 0.782v6c0 0.304-0.139 0.592-0.376 0.781l-0.0029 2e-3 -0.0039 0.0029c-3e-3 0.0024-0.0067 0.0056-0.0108 0.0088-0.0085 0.0066-0.0198 0.0154-0.0332 0.0254-0.0271 0.0205-0.0646 0.048-0.111 0.0811-0.0938 0.0664-0.227 0.157-0.398 0.263-0.344 0.211-0.843 0.486-1.49 0.758-1.29 0.544-3.17 1.08-5.58 1.08-4.11-1e-4 -6.7-1.57-7.42-2.07-0.0201-0.0139-0.179-0.115-0.31-0.278-0.099-0.124-0.176-0.272-0.222-0.424-0.0305-0.102-0.0435-0.204-0.0488-0.282l-0.00293-0.142v-5.62c0-0.0186-0.00908-0.219 0.0518-0.424l0.04-0.112c0.0455-0.112 0.107-0.219 0.182-0.312l0.102-0.111c0.1-0.0974 0.193-0.157 0.208-0.167 0.719-0.5 3.3-2.07 7.42-2.07zm0 1c-3.85 1.2e-4 -6.24 1.47-6.85 1.89-0.0503 0.035-0.076 0.0529-0.0986 0.081-0.0186 0.0233-0.0354 0.0564-0.044 0.085-0.0103 0.0348-0.0107 0.0698-0.0107 0.139v5.62c0 0.0688 4.1e-4 0.104 0.0107 0.139 0.00855 0.0285 0.0254 0.0617 0.044 0.0849 0.0226 0.0282 0.0483 0.0461 0.0986 0.0811 0.607 0.422 2.99 1.89 6.85 1.89 4.47 0 6.97-1.98 7-2v-6c-0.0313-0.0249-2.53-2-7-2z" clip-rule="evenodd" fill="#000" fill-rule="evenodd"/></svg>
