<svg fill="none" viewBox="0 0 16 16" xmlns="http://www.w3.org/2000/svg"><path d="m11.9 0.499c0.82-0.666 1.99-0.666 2.81 0 0.0894 0.0726 0.186 0.169 0.378 0.362 0.192 0.192 0.289 0.289 0.362 0.378 0.665 0.819 0.665 1.99 0 2.81-0.0364 0.0448-0.0788 0.092-0.136 0.151l-0.226 0.228-3.57 3.57 3.57 3.57 0.226 0.228c0.0573 0.0594 0.0998 0.106 0.136 0.15 0.666 0.82 0.666 1.99 0 2.81-0.0727 0.0895-0.169 0.186-0.362 0.378-0.192 0.192-0.289 0.289-0.378 0.362-0.82 0.666-1.99 0.666-2.81 0-0.0894-0.0726-0.186-0.169-0.378-0.362l-3.57-3.57-3.57 3.57c-0.192 0.192-0.29 0.289-0.379 0.362-0.819 0.665-1.99 0.665-2.81 0-0.0894-0.0726-0.186-0.169-0.378-0.362-0.192-0.192-0.289-0.289-0.362-0.378-0.666-0.82-0.666-1.99 0-2.81 0.0726-0.0894 0.169-0.186 0.362-0.378l3.57-3.57-3.57-3.57c-0.192-0.192-0.289-0.29-0.362-0.379-0.665-0.82-0.666-1.99 0-2.81 0.0726-0.0894 0.169-0.186 0.362-0.378 0.192-0.192 0.289-0.289 0.378-0.362 0.819-0.666 1.99-0.665 2.81 0 0.0894 0.0726 0.187 0.169 0.379 0.362l3.57 3.57 3.57-3.57c0.192-0.192 0.289-0.289 0.378-0.362z" fill="#000"/></svg>
