<svg fill="none" viewBox="0 0 16 16" xmlns="http://www.w3.org/2000/svg"><path d="m5.78 1.65c0.761-0.913 1.14-1.37 1.6-1.54 0.4-0.146 0.838-0.146 1.24 0 0.456 0.166 0.836 0.623 1.6 1.54l3.84 4.61c0.517 0.62 0.776 0.931 0.875 1.28 0.0871 0.305 0.0871 0.629 0 0.934-0.0989 0.346-0.357 0.656-0.875 1.28l-3.84 4.61c-0.761 0.913-1.14 1.37-1.6 1.54-0.4 0.146-0.838 0.146-1.24 0-0.456-0.166-0.836-0.623-1.6-1.54l-3.84-4.61c-0.517-0.62-0.776-0.931-0.875-1.28-0.0871-0.305-0.0871-0.629 0-0.934 0.0988-0.346 0.357-0.656 0.875-1.28l3.84-4.61z" fill="#000"/></svg>
