<svg fill="none" viewBox="0 0 16 16" xmlns="http://www.w3.org/2000/svg"><path d="m7.55 0.579c0.289-0.105 0.606-0.105 0.895 0 0.128 0.0468 0.276 0.144 0.501 0.371 0.228 0.23 0.498 0.552 0.884 1.02l3.84 4.61c0.263 0.316 0.443 0.532 0.571 0.712 0.124 0.174 0.179 0.285 0.207 0.382 0.0615 0.216 0.0615 0.445 0 0.66-0.0276 0.0966-0.0825 0.207-0.207 0.382-0.128 0.18-0.308 0.396-0.571 0.712l-3.84 4.61c-0.386 0.463-0.655 0.786-0.884 1.02-0.225 0.227-0.373 0.324-0.501 0.371-0.289 0.106-0.606 0.106-0.895 0-0.128-0.0468-0.276-0.144-0.501-0.371-0.228-0.23-0.498-0.552-0.884-1.02l-3.84-4.61c-0.263-0.316-0.443-0.532-0.571-0.712-0.125-0.174-0.179-0.285-0.207-0.382-0.0615-0.216-0.0615-0.445 0-0.66 0.0276-0.0966 0.0825-0.207 0.207-0.382 0.128-0.18 0.308-0.396 0.571-0.712l3.84-4.61c0.386-0.463 0.655-0.786 0.884-1.02 0.225-0.227 0.373-0.324 0.501-0.371z" stroke="#000"/></svg>
