<svg viewBox="0 0 16 16" xmlns="http://www.w3.org/2000/svg"><path d="m15.8 4.15c0.137 0.455 0.211 0.948 0.211 1.47-1e-4 3.25-2.81 6.43-7.37 9.15-0.183 0.115-0.447 0.23-0.63 0.23-0.173-1e-4 -0.447-0.116-0.63-0.23-0.96-0.572-1.84-1.17-2.64-1.78l0.806-0.645c0.709 0.531 1.5 1.06 2.36 1.57l0.0654 0.0371 0.0303 0.0156c0.0266-0.0118 0.053-0.0253 0.0781-0.04l0.042-0.0245c4.47-2.67 6.88-5.59 6.88-8.29 0-0.271-0.0253-0.533-0.0723-0.782l0.861-0.688z" fill="#000"/><path d="m15.3 1.05c0.207-0.106 0.467-0.0558 0.618 0.133 0.151 0.189 0.143 0.453-0.0058 0.632l-0.0723 0.0713-15 12c-0.216 0.172-0.531 0.138-0.703-0.0781-0.172-0.216-0.137-0.531 0.0781-0.703l2.46-1.97c-1.69-1.77-2.65-3.63-2.65-5.52 2.27e-5 -2.7 1.97-4.62 4.5-4.62 1.6 0 2.77 0.834 3.5 2.07 0.742-1.25 1.9-2.07 3.5-2.07 1.03 2e-5 1.97 0.322 2.72 0.884l0.969-0.774 0.085-0.0547zm-3.78 0.945c-1.14 6e-5 -2.02 0.544-2.64 1.58l-0.862 1.45-0.857-1.45c-0.61-1.03-1.49-1.58-2.64-1.58-2.01 1.3e-4 -3.5 1.5-3.5 3.62 4.9e-5 1.59 0.834 3.25 2.43 4.89l9.98-7.98c-0.541-0.342-1.19-0.534-1.91-0.534z" clip-rule="evenodd" fill="#000" fill-rule="evenodd"/></svg>
