<svg fill="none" viewBox="0 0 16 16" xmlns="http://www.w3.org/2000/svg"><path d="m4.69 3.25-1.43 1.43c-0.715 0.715-1.21 1.21-1.56 1.62-0.344 0.406-0.495 0.669-0.569 0.899-0.167 0.512-0.167 1.06 0 1.58 0.0747 0.23 0.225 0.493 0.569 0.899 0.352 0.415 0.845 0.909 1.56 1.62l1.43 1.43c0.715 0.715 1.21 1.21 1.62 1.56 0.406 0.344 0.669 0.495 0.899 0.569 0.512 0.166 1.06 0.166 1.58 0 0.23-0.0747 0.493-0.225 0.899-0.569 0.415-0.352 0.909-0.845 1.62-1.56l1.43-1.43c0.715-0.715 1.21-1.21 1.56-1.62 0.344-0.406 0.495-0.669 0.569-0.899 0.166-0.512 0.166-1.06 0-1.58-0.0747-0.23-0.225-0.493-0.569-0.899-0.352-0.415-0.845-0.909-1.56-1.62l-1.43-1.43c-0.715-0.715-1.21-1.21-1.62-1.56-0.406-0.344-0.669-0.495-0.899-0.569-0.512-0.167-1.06-0.167-1.58 0-0.23 0.0747-0.493 0.225-0.899 0.569-0.415 0.352-0.909 0.845-1.62 1.56zm-4.52 5.84c0.263 0.811 0.967 1.51 2.37 2.92l1.43 1.43c1.41 1.41 2.11 2.11 2.92 2.37 0.713 0.232 1.48 0.232 2.2 0 0.811-0.264 1.51-0.967 2.92-2.37l1.43-1.43c1.41-1.41 2.11-2.11 2.37-2.92 0.232-0.713 0.232-1.48 0-2.2-0.264-0.811-0.967-1.51-2.37-2.92l-1.43-1.43c-1.41-1.41-2.11-2.11-2.92-2.37-0.713-0.232-1.48-0.232-2.2 0-0.811 0.263-1.51 0.967-2.92 2.37l-1.43 1.43c-1.41 1.41-2.11 2.11-2.37 2.92-0.232 0.713-0.232 1.48 0 2.2z" clip-rule="evenodd" fill="#000" fill-rule="evenodd"/></svg>
