<svg fill="none" viewBox="0 0 16 16" xmlns="http://www.w3.org/2000/svg"><path d="m9.57 2.02-0.677-0.497c-0.604-0.444-0.691-0.486-0.753-0.502-0.0938-0.0243-0.192-0.0243-0.286 0-0.0611 0.0158-0.148 0.0583-0.753 0.502l-0.677 0.497c-0.0114 0.00841-0.0229 0.0168-0.0343 0.0252-0.151 0.111-0.3 0.221-0.466 0.309-0.146 0.0775-0.299 0.141-0.456 0.189-0.18 0.055-0.363 0.0828-0.548 0.111-0.014 0.00214-0.028 0.00428-0.0421 0.00643l-0.83 0.127c-0.741 0.114-0.833 0.145-0.887 0.177-0.0835 0.0492-0.153 0.119-0.202 0.202-0.032 0.0544-0.0636 0.146-0.177 0.887l-0.127 0.83c-0.00215 0.014-0.00429 0.0281-0.00643 0.0421-0.0282 0.185-0.0561 0.368-0.111 0.548-0.0482 0.158-0.112 0.311-0.189 0.456-0.0884 0.166-0.198 0.315-0.309 0.466-0.0084 0.0114-0.0168 0.0229-0.0252 0.0343l-0.497 0.677c-0.444 0.604-0.486 0.691-0.502 0.753-0.0243 0.0938-0.0243 0.192 0 0.286 0.0158 0.0611 0.0583 0.148 0.502 0.753l0.497 0.677c0.00841 0.0115 0.0168 0.0229 0.0252 0.0343 0.111 0.151 0.221 0.3 0.309 0.466 0.0775 0.146 0.141 0.299 0.189 0.456 0.055 0.18 0.0828 0.363 0.111 0.548 0.00214 0.0141 0.00428 0.0281 0.00643 0.0421l0.127 0.83c0.114 0.741 0.145 0.833 0.177 0.887 0.0492 0.0835 0.119 0.153 0.202 0.202 0.0544 0.032 0.146 0.0636 0.887 0.177l0.83 0.127c0.014 0.0022 0.0281 0.0043 0.0421 0.0064 0.185 0.0283 0.368 0.0561 0.548 0.111 0.158 0.0482 0.311 0.112 0.456 0.189 0.166 0.0884 0.315 0.198 0.466 0.309 0.0114 0.0084 0.0229 0.0168 0.0343 0.0252l0.677 0.497c0.604 0.444 0.691 0.486 0.753 0.502 0.0938 0.0243 0.192 0.0243 0.286 0 0.0611-0.0158 0.148-0.0583 0.753-0.502l0.677-0.497c0.0115-0.0084 0.0229-0.0168 0.0343-0.0252 0.151-0.111 0.3-0.22 0.466-0.309 0.146-0.0776 0.299-0.141 0.456-0.189 0.18-0.055 0.363-0.0828 0.548-0.111 0.014-0.0021 0.028-0.0042 0.042-0.0064l0.83-0.127c0.741-0.114 0.833-0.145 0.887-0.177 0.0835-0.0491 0.153-0.119 0.202-0.202 0.032-0.0544 0.0636-0.146 0.177-0.887l0.127-0.83c0.0022-0.014 0.0043-0.028 0.0064-0.042 0.0283-0.185 0.0561-0.368 0.111-0.548 0.0482-0.158 0.112-0.311 0.189-0.456 0.0884-0.166 0.198-0.315 0.309-0.466 0.0084-0.0114 0.0168-0.0229 0.0252-0.0343l0.497-0.677c0.444-0.604 0.486-0.691 0.502-0.753 0.0243-0.0938 0.0243-0.192 0-0.286-0.0158-0.0611-0.0583-0.148-0.502-0.753l-0.497-0.677c-0.0084-0.0115-0.0168-0.0229-0.0252-0.0343-0.111-0.151-0.22-0.3-0.309-0.466-0.0776-0.146-0.141-0.299-0.189-0.456-0.055-0.18-0.0828-0.363-0.111-0.548-0.0021-0.014-0.0042-0.028-0.0064-0.0421l-0.127-0.83c-0.114-0.741-0.145-0.833-0.177-0.887-0.0491-0.0835-0.119-0.153-0.202-0.202-0.0544-0.032-0.146-0.0636-0.887-0.177l-0.83-0.127c-0.014-0.00215-0.028-0.00429-0.0421-0.00643-0.185-0.0282-0.368-0.0561-0.548-0.111-0.158-0.0482-0.311-0.112-0.456-0.189-0.166-0.0884-0.315-0.198-0.466-0.309-0.0114-0.0084-0.0229-0.0168-0.0343-0.0252zm-1.97-1.97c-0.292 0.0757-0.56 0.272-1.09 0.664l-0.677 0.497c-0.185 0.136-0.278 0.204-0.378 0.257-0.089 0.0474-0.182 0.086-0.279 0.116-0.109 0.0332-0.222 0.0506-0.449 0.0854l-0.83 0.127c-0.655 0.1-0.983 0.151-1.24 0.304-0.23 0.135-0.421 0.327-0.557 0.557-0.153 0.26-0.203 0.588-0.304 1.24l-0.127 0.83c-0.0348 0.227-0.0522 0.341-0.0854 0.449-0.0295 0.0964-0.0681 0.19-0.116 0.279-0.0533 0.1-0.121 0.193-0.257 0.378l-0.497 0.677c-0.392 0.534-0.588 0.801-0.664 1.09-0.0668 0.258-0.0668 0.529 0 0.787 0.0757 0.292 0.272 0.56 0.664 1.09l0.497 0.677c0.136 0.185 0.204 0.278 0.257 0.378 0.0474 0.089 0.086 0.182 0.116 0.279 0.0332 0.109 0.0506 0.222 0.0854 0.449l0.127 0.83c0.1 0.655 0.151 0.982 0.304 1.24 0.135 0.23 0.327 0.422 0.557 0.557 0.26 0.153 0.588 0.203 1.24 0.304h3e-5l0.83 0.127c0.227 0.0348 0.341 0.0522 0.449 0.0854 0.0964 0.0295 0.19 0.0681 0.279 0.116 0.1 0.0533 0.193 0.121 0.378 0.257h3e-5l0.677 0.497 3e-5 1e-4c0.534 0.392 0.801 0.588 1.09 0.664 0.258 0.0668 0.529 0.0668 0.787 0 0.292-0.0757 0.56-0.272 1.09-0.664l0.677-0.497c0.185-0.136 0.278-0.204 0.378-0.257 0.089-0.0474 0.182-0.086 0.279-0.116 0.109-0.0332 0.222-0.0506 0.449-0.0854l0.83-0.127h1e-4c0.655-0.1 0.982-0.151 1.24-0.304 0.23-0.135 0.422-0.327 0.557-0.557 0.153-0.26 0.203-0.588 0.304-1.24v-1e-4l0.127-0.83c0.0348-0.227 0.0522-0.341 0.0854-0.449 0.0295-0.0965 0.0681-0.19 0.116-0.279 0.0533-0.1 0.121-0.193 0.257-0.378l0.497-0.677c0.392-0.534 0.588-0.801 0.664-1.09 0.0668-0.258 0.0668-0.529 0-0.787-0.0757-0.292-0.272-0.56-0.664-1.09l-0.497-0.677v-2e-5c-0.136-0.185-0.204-0.278-0.257-0.378-0.0474-0.089-0.086-0.182-0.116-0.279-0.0332-0.109-0.0506-0.222-0.0854-0.449l-0.127-0.83v-3e-5c-0.1-0.655-0.151-0.982-0.304-1.24-0.135-0.23-0.327-0.421-0.557-0.557-0.26-0.153-0.588-0.203-1.24-0.304l-0.83-0.127c-0.227-0.0348-0.341-0.0522-0.449-0.0854-0.0965-0.0295-0.19-0.0681-0.279-0.116-0.1-0.0533-0.193-0.121-0.378-0.257l-0.677-0.497c-0.534-0.392-0.801-0.588-1.09-0.664-0.258-0.0668-0.529-0.0668-0.787 0z" clip-rule="evenodd" fill="#000" fill-rule="evenodd"/></svg>
