<svg fill="none" viewBox="0 0 16 16" xmlns="http://www.w3.org/2000/svg"><path d="m5.92 6.81e-5c-0.296-4.33e-4 -0.595-8.7e-4 -0.887 0.0691-0.255 0.0612-0.499 0.162-0.723 0.299-0.256 0.157-0.467 0.368-0.676 0.578l-2.69 2.69c-0.21 0.209-0.421 0.42-0.578 0.676-0.137 0.224-0.238 0.468-0.299 0.723-0.07 0.292-0.0696 0.59-0.0691 0.887v4.15c-4.33e-4 0.296-8.7e-4 0.595 0.0691 0.887 0.0612 0.255 0.162 0.499 0.299 0.723 0.157 0.256 0.368 0.466 0.578 0.676l2.69 2.69c0.209 0.21 0.42 0.421 0.676 0.578 0.224 0.137 0.468 0.238 0.723 0.299 0.292 0.07 0.59 0.0695 0.887 0.0691h4.15c0.296 4e-4 0.595 9e-4 0.887-0.0691 0.255-0.0613 0.499-0.162 0.723-0.299 0.256-0.157 0.466-0.368 0.676-0.578l2.69-2.69c0.21-0.209 0.421-0.42 0.578-0.676 0.137-0.224 0.238-0.468 0.299-0.723 0.07-0.292 0.0695-0.59 0.0691-0.887v-4.15c4e-4 -0.296 9e-4 -0.595-0.0691-0.887-0.0613-0.255-0.162-0.499-0.299-0.723-0.157-0.256-0.368-0.467-0.578-0.676l-2.69-2.69c-0.209-0.21-0.42-0.421-0.676-0.578-0.224-0.137-0.468-0.238-0.723-0.299-0.292-0.07-0.59-0.0696-0.887-0.0691h-4.15zm-1.63 1.7c0.259-0.259 0.389-0.389 0.541-0.482 0.134-0.0822 0.281-0.143 0.434-0.18 0.173-0.0414 0.356-0.0414 0.723-0.0414h4.01c0.367 0 0.55 0 0.723 0.0414 0.153 0.0368 0.299 0.0974 0.434 0.18 0.151 0.0928 0.281 0.222 0.54 0.482l2.59 2.59c0.259 0.259 0.389 0.389 0.482 0.541 0.0822 0.134 0.143 0.281 0.18 0.434 0.0414 0.173 0.0414 0.356 0.0414 0.723v4.01c0 0.367 0 0.55-0.0414 0.723-0.0368 0.153-0.0974 0.299-0.18 0.434-0.0928 0.151-0.222 0.281-0.482 0.54l-2.59 2.59c-0.259 0.259-0.389 0.389-0.54 0.482-0.134 0.0822-0.281 0.143-0.434 0.18-0.173 0.0414-0.356 0.0414-0.723 0.0414h-4.01c-0.367 0-0.55 0-0.723-0.0414-0.153-0.0368-0.299-0.0974-0.434-0.18-0.151-0.0928-0.281-0.222-0.541-0.482l-2.59-2.59c-0.259-0.259-0.389-0.389-0.482-0.54-0.0822-0.134-0.143-0.281-0.18-0.434-0.0414-0.173-0.0414-0.356-0.0414-0.723v-4.01c0-0.367 0-0.55 0.0414-0.723 0.0368-0.153 0.0974-0.299 0.18-0.434 0.0928-0.151 0.222-0.281 0.482-0.541l2.59-2.59z" clip-rule="evenodd" fill="#000" fill-rule="evenodd"/></svg>
