<svg fill="none" viewBox="0 0 16 16" xmlns="http://www.w3.org/2000/svg"><path d="m7.56 0.767c0.18-0.356 0.696-0.356 0.876 1e-6l2.1 4.16c0.0711 0.141 0.208 0.238 0.366 0.261l4.68 0.68c0.4 0.0581 0.559 0.54 0.271 0.818l-3.38 3.25c-0.114 0.11-0.166 0.268-0.14 0.423l0.786 4.58c0.0672 0.392-0.35 0.69-0.708 0.506l-4.19-2.15c-0.142-0.0728-0.311-0.0728-0.453 0l-4.19 2.15c-0.358 0.184-0.776-0.114-0.708-0.506l0.786-4.58c0.0266-0.155-0.0256-0.313-0.14-0.423l-3.38-3.25c-0.289-0.278-0.129-0.76 0.271-0.818l4.68-0.68c0.158-0.023 0.295-0.121 0.366-0.261l2.1-4.16zm0.438 1.35v10.1c0.234 0 0.469 0.055 0.683 0.165l3.28 1.68-0.611-3.56c-0.0833-0.485 0.0813-0.975 0.432-1.31l2.61-2.51-3.63-0.528c-0.475-0.0691-0.894-0.364-1.11-0.8l-1.65-3.26z" clip-rule="evenodd" fill="#000" fill-rule="evenodd"/></svg>
