<svg fill="none" viewBox="0 0 16 16" xmlns="http://www.w3.org/2000/svg"><path d="m8 2.12-1.65 3.26c-0.221 0.436-0.639 0.731-1.11 0.8l-3.63 0.528 2.61 2.51c0.35 0.338 0.515 0.828 0.432 1.31l-0.611 3.56 3.28-1.68c0.428-0.22 0.937-0.22 1.37 0l3.28 1.68-0.611-3.56c-0.0833-0.485 0.0813-0.975 0.432-1.31l2.61-2.51-3.63-0.528c-0.475-0.0691-0.894-0.364-1.11-0.8l-1.65-3.26zm0.438-1.35c-0.18-0.356-0.696-0.356-0.876-1e-6l-2.1 4.16c-0.0712 0.141-0.208 0.238-0.366 0.261l-4.68 0.68c-0.4 0.0581-0.559 0.54-0.271 0.818l3.38 3.25c0.114 0.11 0.167 0.268 0.14 0.423l-0.786 4.58c-0.0672 0.392 0.35 0.69 0.708 0.506l4.19-2.15c0.142-0.0728 0.311-0.0728 0.453 0l4.19 2.15c0.358 0.184 0.776-0.114 0.708-0.506l-0.786-4.58c-0.0267-0.155 0.0256-0.313 0.14-0.423l3.38-3.25c0.288-0.278 0.129-0.76-0.271-0.818l-4.68-0.68c-0.158-0.023-0.295-0.121-0.366-0.261l-2.1-4.16z" clip-rule="evenodd" fill="#000" fill-rule="evenodd"/></svg>
