<svg fill="none" viewBox="0 0 16 16" xmlns="http://www.w3.org/2000/svg"><path d="m7.56 0.767c0.18-0.356 0.696-0.356 0.876 1e-6l2.1 4.16c0.0711 0.141 0.208 0.238 0.366 0.261l4.68 0.68c0.4 0.0581 0.559 0.54 0.271 0.818l-3.38 3.25c-0.114 0.11-0.166 0.268-0.14 0.423l0.786 4.58c0.0672 0.392-0.35 0.69-0.708 0.506l-4.19-2.15c-0.142-0.0728-0.311-0.0728-0.453 0l-4.19 2.15c-0.358 0.184-0.776-0.114-0.708-0.506l0.786-4.58c0.0266-0.155-0.0256-0.313-0.14-0.423l-3.38-3.25c-0.289-0.278-0.129-0.76 0.271-0.818l4.68-0.68c0.158-0.023 0.295-0.121 0.366-0.261l2.1-4.16z" fill="#000"/></svg>
