<svg fill="none" viewBox="0 0 16 16" xmlns="http://www.w3.org/2000/svg"><path d="m0 3c0-1.1 0.895-2 2-2h12c1.1 0 2 0.895 2 2v10c0 1.1-0.895 2-2 2h-12c-1.1 0-2-0.895-2-2v-10zm1 4c0-0.552 0.448-1 1-1h12c0.552 0 1 0.448 1 1v6c0 0.552-0.448 1-1 1h-12c-0.552 0-1-0.448-1-1v-6zm1-3c0.552 0 1-0.448 1-1s-0.448-1-1-1-1 0.448-1 1 0.448 1 1 1zm4-1c0 0.552-0.448 1-1 1s-1-0.448-1-1 0.448-1 1-1 1 0.448 1 1zm2 1c0.552 0 1-0.448 1-1s-0.448-1-1-1c-0.552 0-1 0.448-1 1s0.448 1 1 1zm4-1c0 0.552-0.448 1-1 1s-1-0.448-1-1 0.448-1 1-1 1 0.448 1 1zm2.25-1c-0.138 0-0.25 0.112-0.25 0.25v1.5c0 0.138 0.112 0.25 0.25 0.25h0.5c0.138 0 0.25-0.112 0.25-0.25v-1.5c0-0.138-0.112-0.25-0.25-0.25h-0.5z" clip-rule="evenodd" fill="#000" fill-rule="evenodd"/></svg>
