<svg viewBox="0 0 16 16" xmlns="http://www.w3.org/2000/svg"><path d="m6.5 16c-0.276 0-0.5-0.224-0.5-0.5v-1.5c0-0.83-1.08-1.38-1.09-1.38-0.0622-0.0286-0.118-0.0701-0.162-0.122-0.0448-0.0517-0.0781-0.112-0.0975-0.178-0.0275-0.0631-0.0417-0.131-0.0417-0.2s0.0142-0.137 0.0417-0.2l0.28-0.5c-0.0797-0.115-0.167-0.226-0.26-0.33-0.406-0.433-0.643-0.997-0.67-1.59 0.029-0.568 0.272-1.1 0.68-1.5 0.0482-0.0568 0.0949-0.1 0.137-0.139 0.106-0.0988 0.183-0.17 0.183-0.361 0-0.201-0.177-0.372-0.346-0.534-0.0543-0.0524-0.108-0.104-0.154-0.156-0.875-0.892-1.41-2.06-1.5-3.31-0.0656-0.468-0.00786-0.944 0.168-1.38 0.175-0.439 0.492-0.849 0.863-1.07 0.371-0.223 0.781-0.35 1.21-0.366 0.433-0.0155 0.865 0.063 1.26 0.23l1.28-0.859c0.0656-0.0302 0.137-0.0459 0.209-0.0459 0.0722 0 0.144 0.0156 0.209 0.0459l1.28 0.859c0.4-0.167 0.832-0.246 1.26-0.23 0.433 0.0155 0.87 0.102 1.25 0.363 0.375 0.262 0.657 0.636 0.832 1.07 0.175 0.439 0.233 0.915 0.168 1.38-0.0935 1.25-0.625 2.42-1.5 3.31-0.0447 0.0477-0.0949 0.0948-0.146 0.143-0.173 0.163-0.354 0.333-0.354 0.557 0 0.236 0.113 0.325 0.236 0.421 0.028 0.022 0.0566 0.0444 0.0844 0.069 0.408 0.396 0.651 0.932 0.68 1.5-0.0376 0.598-0.29 1.16-0.71 1.59-0.0934 0.104-0.18 0.215-0.26 0.33l0.28 0.5c0.0275 0.0631 0.0417 0.131 0.0417 0.2s-0.0142 0.137-0.0417 0.2c-0.0194 0.0656-0.0527 0.126-0.0975 0.178-0.0449 0.0518-0.1 0.0933-0.162 0.122 0 0-1.05 0.55-1.05 1.38v1.5c0 0.276-0.224 0.5-0.5 0.5s-0.5-0.224-0.5-0.5v-1.5c0.0289-0.404 0.153-0.796 0.361-1.14 0.208-0.347 0.496-0.641 0.839-0.857l-0.14-0.24c-0.0414-0.0803-0.0621-0.25-0.06-0.34 0.0417-0.401 0.226-0.694 0.52-0.97 0.263-0.253 0.432-0.588 0.48-0.95-0.0406-0.327-0.197-0.628-0.44-0.85-0.324-0.3-0.56-0.65-0.56-1.15s0.345-0.968 0.72-1.32c0.726-0.717 1.18-1.66 1.28-2.68 0.0427-0.297 0.0121-0.6-0.089-0.882s-0.27-0.536-0.491-0.738c-0.641-0.409-1.71 0.0457-1.86 0.112-0.0119 0.00506-0.0192 0.00787-0.0192 0.00787-0.0798 0.0221-0.163 0.0244-0.244 0.00704-0.0362-0.00781-0.0694-0.024-0.101-0.0436-0.366-0.228-1.2-0.803-1.2-0.803s-0.761 0.502-1.18 0.792c-0.039 0.0268-0.081 0.0495-0.128 0.0581-0.0756 0.0139-0.154 0.0106-0.228-0.0101-0.29-0.145-0.608-0.226-0.931-0.24-0.324-0.0138-0.647 0.0408-0.949 0.16-0.39 0.21-0.58 0.76-0.58 1.58 0.102 1.02 0.554 1.96 1.28 2.68 0.375 0.352 0.72 0.82 0.72 1.32s-0.236 0.85-0.56 1.15c-0.247 0.219-0.404 0.522-0.44 0.85 0.0477 0.362 0.217 0.697 0.48 0.95 0.294 0.276 0.478 0.569 0.52 0.97 4.2e-4 0.0869-0.0202 0.253-0.06 0.33l-0.14 0.25c0.343 0.216 0.63 0.509 0.839 0.857 0.208 0.348 0.332 0.739 0.361 1.14v1.5c0 0.276-0.224 0.5-0.5 0.5z" fill="#000"/><path d="m2.35 4.52c0-0.114-0.0821-0.212-0.195-0.232l-1.61-0.282c-0.0134-0.00236-0.027-0.00354-0.0407-0.00354-0.16 0-0.262 0.105-0.316 0.185-0.0555 0.083-0.0923 0.185-0.118 0.285-0.0526 0.202-0.0764 0.459-0.0764 0.706 0 0.247 0.0238 0.504 0.0764 0.706 0.0259 0.0994 0.0627 0.202 0.118 0.285 0.0539 0.0806 0.156 0.185 0.316 0.185 0.0136 0 0.0272-0.00118 0.0407-0.00354l1.61-0.282c0.113-0.0198 0.195-0.117 0.195-0.232v-1.32z" fill="#000"/><path d="m1.49 12c-0.0134 0.0023-0.027 0.0035-0.0407 0.0035-0.16 0-0.262-0.105-0.316-0.185-0.0555-0.083-0.0923-0.185-0.118-0.285-0.0526-0.202-0.0764-0.459-0.0764-0.706 0-0.247 0.0238-0.504 0.0764-0.706 0.0258-0.0995 0.0627-0.202 0.118-0.285 0.0539-0.0806 0.156-0.185 0.316-0.185 0.0136 0 0.0272 0.00118 0.0407 0.00354l1.61 0.282c0.113 0.0198 0.195 0.117 0.195 0.232v1.32c0 0.114-0.0821 0.212-0.195 0.232l-1.61 0.282z" fill="#000"/><path d="m13.8 4.29c-0.112 0.0198-0.195 0.117-0.195 0.232v1.32c0 0.114 0.0821 0.212 0.195 0.232l1.61 0.282c0.0134 0.00236 0.027 0.00354 0.0406 0.00354 0.16 0 0.262-0.105 0.316-0.185 0.0554-0.083 0.0922-0.185 0.118-0.285 0.0526-0.202 0.0764-0.459 0.0764-0.706 0-0.247-0.0238-0.504-0.0764-0.706-0.0259-0.0994-0.0627-0.202-0.118-0.285-0.0539-0.0806-0.156-0.185-0.316-0.185-0.0136 0-0.0272 0.00118-0.0406 0.00354l-1.61 0.282z" fill="#000"/><path d="m14.6 12c-0.0136 0-0.0272-0.0012-0.0406-0.0035l-1.61-0.282c-0.113-0.0197-0.195-0.118-0.195-0.232v-1.32c0-0.114 0.0821-0.212 0.195-0.232l1.61-0.282c0.0134-0.00236 0.027-0.00354 0.0406-0.00354 0.16 0 0.262 0.105 0.316 0.185 0.0554 0.083 0.0923 0.185 0.118 0.285 0.0526 0.202 0.0764 0.459 0.0764 0.706 0 0.247-0.0238 0.504-0.0764 0.706-0.0258 0.0994-0.0627 0.202-0.118 0.285-0.0539 0.0806-0.156 0.185-0.316 0.185z" fill="#000"/></svg>
