<svg fill="none" viewBox="0 0 16 16" xmlns="http://www.w3.org/2000/svg"><path d="m10 3.03c0.166 0.0221 0.334 0.0607 0.494 0.128 0.328 0.138 0.613 0.36 0.826 0.645 0.248 0.33 0.349 0.745 0.43 1.08l0.0228 0.0924 1.71 6.84c0.077 0.308 0.15 0.599 0.189 0.846 0.0417 0.264 0.0662 0.592-0.041 0.939-0.144 0.468-0.456 0.866-0.874 1.12-0.31 0.188-0.635 0.244-0.901 0.268-0.249 0.0221-0.55 0.022-0.867 0.022h-5.98c-0.317 0-0.618 1e-4 -0.867-0.022-0.266-0.0235-0.591-0.0795-0.901-0.268-0.419-0.254-0.73-0.652-0.874-1.12-0.107-0.347-0.0827-0.675-0.041-0.939 0.0391-0.247 0.112-0.538 0.189-0.846l1.71-6.84 0.0228-0.0924c0.0811-0.331 0.183-0.745 0.43-1.08 0.213-0.285 0.498-0.507 0.826-0.645 0.16-0.0671 0.328-0.106 0.494-0.128v-1.03c0-0.465 0-0.697 0.0511-0.888 0.139-0.518 0.543-0.922 1.06-1.06 0.191-0.0511 0.423-0.0511 0.888-0.0511s0.697 0 0.888 0.0511c0.518 0.139 0.922 0.543 1.06 1.06 0.0511 0.191 0.0511 0.423 0.0511 0.888v1.03zm-3.28 0.972c-0.428 3e-5 -0.646 0.00163-0.828 0.0781-0.164 0.0689-0.307 0.18-0.413 0.323-0.121 0.161-0.175 0.378-0.283 0.811l-1.7 6.8c-0.169 0.678-0.254 1.02-0.172 1.28 0.0723 0.234 0.228 0.433 0.437 0.56 0.239 0.145 0.588 0.145 1.29 0.145h5.9c0.699 0 1.05 0 1.29-0.145 0.209-0.127 0.365-0.326 0.437-0.56 0.0825-0.267-0.0022-0.606-0.172-1.28l-1.7-6.8c-0.108-0.433-0.162-0.65-0.283-0.811-0.107-0.142-0.249-0.254-0.413-0.323-0.182-0.0764-0.4-0.078-0.828-0.0781h-2.56zm2.28-1v-1c0-0.242-2.4e-4 -0.389-0.00535-0.501-0.00486-0.107-0.0127-0.132-0.0117-0.128-0.0462-0.173-0.181-0.307-0.354-0.354 0.00374 1e-3 -0.0214-0.00683-0.128-0.0117-0.112-0.00511-0.26-0.00535-0.501-0.00535s-0.389 2.4e-4 -0.501 0.00535c-0.107 0.00486-0.132 0.0127-0.128 0.0117-0.173 0.0462-0.307 0.181-0.354 0.354 0 1e-5 6e-5 -2.2e-4 0 0-1e-5 -9e-5 -0.00712 0.0277-0.0117 0.128-0.00511 0.112-0.00535 0.26-0.00535 0.501v1h2z" clip-rule="evenodd" fill="#000" fill-rule="evenodd"/></svg>
