<svg viewBox="0 0 16 16" xmlns="http://www.w3.org/2000/svg"><path d="m15.1 5.05c0.315-0.141 0.685-2.2e-4 0.826 0.314 0.141 0.315 0 0.685-0.314 0.826l-3.69 1.68c-0.565 0.258-1.06 0.644-1.45 1.13-2.29 2.84-5.32 6.6-5.34 6.62-0.324 0.403-0.901 0.493-1.33 0.207l-0.00391-2e-3s-0.00365-0.0033-0.00586-0.0048c-0.00467-0.0032-0.0112-0.0068-0.0186-0.0118-0.0151-0.0103-0.0361-0.025-0.0615-0.0429-0.0512-0.0362-0.123-0.0876-0.21-0.153-0.173-0.131-0.411-0.322-0.679-0.562-0.528-0.476-1.2-1.18-1.71-2.05-0.517-0.892-0.793-1.94-0.942-2.71-0.0765-0.395-0.124-0.74-0.152-0.987-0.0141-0.124-0.0233-0.224-0.0293-0.295-0.00299-0.0354-0.00538-0.0638-0.00684-0.084-7.12e-4 -0.01-5.84e-4 -0.0184-9.77e-4 -0.0244-2.02e-4 -0.00283-9.77e-4 -0.00781-9.77e-4 -0.00781v-0.00391c-0.0323-0.539 0.369-1.01 0.906-1.06l8.86-0.824c0.895-0.0833 1.77-0.316 2.59-0.69l2.76-1.26zm-14.1 3.77c8.1e-4 0.0134 0.133 2.18 1 3.67 0.0967 0.167 0.202 0.327 0.312 0.48l2.33-2.33c0.195-0.195 0.512-0.195 0.707 0 0.195 0.195 0.195 0.512 0 0.707l-2.4 2.4c0.719 0.77 1.42 1.24 1.43 1.24l5.62-7-9 0.829z" clip-rule="evenodd" fill="#000" fill-rule="evenodd"/><path d="m14.1 0.185c0.268-0.217 0.661-0.177 0.879 0.0898 0.217 0.267 0.177 0.662-0.0898 0.88l-3.13 2.58c-0.479 0.395-0.858 0.896-1.11 1.46-0.0238 0.0537-0.0482 0.108-0.0722 0.162-0.303 0.0732-0.612 0.126-0.923 0.155l-7.72 0.718 7.5-2.78c0.843-0.312 1.63-0.764 2.32-1.34l2.34-1.94z" fill="#000"/></svg>
