<svg viewBox="0 0 16 16" xmlns="http://www.w3.org/2000/svg"><path d="m8.33 1.13c-0.189-0.167-0.473-0.167-0.662 0l-0.838 0.74c-0.108 0.0956-0.252 0.14-0.396 0.121-0.143-0.0186-0.271-0.0979-0.351-0.218l-5.7e-4 -8.6e-4 -0.00146-0.00212-0.0118-0.0168c-0.0112-0.0157-0.0286-0.0395-0.0513-0.0686-0.046-0.0591-0.11-0.136-0.185-0.211-0.0767-0.0767-0.154-0.14-0.224-0.183-0.0341-0.0205-0.0614-0.0327-0.0815-0.0394-0.0196-0.00652-0.0284-0.00656-0.0284-0.00656-0.00266 0-0.0404 0.00168-0.149 0.0591-0.0732 0.0387-0.14 0.0801-0.224 0.132-0.0522 0.0325-0.111 0.0693-0.183 0.112-0.244 0.146-0.554 0.312-0.945 0.394v9.83c0 0.215 0.138 0.406 0.342 0.474l0.265 0.0883c1.43 0.476 2.39 1.31 2.39 2.82v0.338c0 0.276-0.224 0.5-0.5 0.5s-0.5-0.224-0.5-0.5v-0.338c0-1.08-0.689-1.53-1.71-1.87l-0.265-0.0883c-0.613-0.204-1.03-0.777-1.03-1.42v-10.3c0-0.276 0.224-0.5 0.5-0.5 0.364 0 0.645-0.132 0.93-0.304 0.0383-0.023 0.0816-0.0499 0.128-0.0784 0.105-0.0651 0.223-0.138 0.325-0.193 0.157-0.0832 0.369-0.175 0.617-0.175 0.248-1.4e-5 0.463 0.0915 0.624 0.188 0.164 0.0985 0.306 0.222 0.417 0.333l0.0133 0.0134 0.453-0.4c0.567-0.501 1.42-0.501 1.99-1e-6l0.453 0.4 0.0133-0.0134c0.111-0.111 0.252-0.235 0.417-0.333 0.162-0.0969 0.377-0.188 0.624-0.188 0.247 0 0.46 0.0921 0.617 0.175 0.102 0.0541 0.22 0.128 0.325 0.193 0.0459 0.0285 0.0893 0.0554 0.128 0.0784 0.286 0.171 0.566 0.304 0.93 0.304 0.276 0 0.5 0.224 0.5 0.5v10.3c0 0.646-0.413 1.22-1.03 1.42l-0.265 0.0883c-1.02 0.34-1.71 0.796-1.71 1.87v0.338c0 0.276-0.224 0.5-0.5 0.5s-0.5-0.224-0.5-0.5v-0.338c0-1.51 0.964-2.34 2.39-2.82l0.265-0.0883c0.204-0.0681 0.342-0.259 0.342-0.474v-9.83c-0.391-0.0822-0.701-0.248-0.945-0.394-0.0716-0.043-0.131-0.0797-0.183-0.112-0.084-0.0523-0.15-0.0937-0.224-0.132-0.0511-0.027-0.0876-0.0425-0.114-0.0511-0.0254-0.0082-0.0348-0.00801-0.0348-0.00801s-0.0087-2e-5 -0.0284 0.00657c-0.0201 0.0067-0.0474 0.0189-0.0815 0.0394-0.0702 0.0421-0.147 0.106-0.224 0.183-0.0751 0.0751-0.14 0.152-0.185 0.211-0.0227 0.0292-0.0401 0.0529-0.0513 0.0686l-0.0118 0.0168-0.00146 0.00212c-0.0801 0.12-0.208 0.2-0.351 0.218-0.143 0.0187-0.287-0.0255-0.396-0.121l-0.838-0.74z" fill="#000"/><path d="m1.59 4.77-1.25 0.22c-0.0286 0.00501-0.0585 0.01-0.0854-7.9e-4 -0.333-0.134-0.333-1.85 0-1.98 0.0269-0.0108 0.0568-0.0058 0.0854-7.9e-4l1.25 0.22c0.239 0.042 0.414 0.25 0.414 0.492v0.56c0 0.243-0.174 0.45-0.414 0.492z" fill="#000"/><path d="m6 4.5c0-0.276 0.224-0.5 0.5-0.5s0.5 0.224 0.5 0.5v6c0 0.276-0.224 0.5-0.5 0.5s-0.5-0.224-0.5-0.5v-6z" fill="#000"/><path d="m9 4.5c0-0.276 0.224-0.5 0.5-0.5s0.5 0.224 0.5 0.5v6c0 0.276-0.224 0.5-0.5 0.5s-0.5-0.224-0.5-0.5v-6z" fill="#000"/><path d="m15.7 4.99-1.25-0.22c-0.239-0.042-0.414-0.25-0.414-0.492v-0.56c0-0.243 0.174-0.45 0.414-0.492l1.25-0.22c0.0285-0.00501 0.0585-0.01 0.0854 7.9e-4 0.333 0.134 0.333 1.85 0 1.98-0.0269 0.0108-0.0569 0.0058-0.0854 7.9e-4z" fill="#000"/><path d="m1.59 7.77-1.25 0.22c-0.0286 0.00502-0.0585 0.01-0.0854-7.8e-4 -0.333-0.134-0.333-1.85 0-1.98 0.0269-0.0108 0.0568-0.0058 0.0854-7.9e-4l1.25 0.22c0.239 0.042 0.414 0.25 0.414 0.492v0.56c0 0.243-0.174 0.45-0.414 0.492z" fill="#000"/><path d="m15.7 7.99-1.25-0.22c-0.239-0.042-0.414-0.25-0.414-0.492v-0.56c0-0.243 0.174-0.45 0.414-0.492l1.25-0.22c0.0285-0.00501 0.0585-0.01 0.0854 7.9e-4 0.333 0.134 0.333 1.85 0 1.98-0.0269 0.0108-0.0569 0.0058-0.0854 7.8e-4z" fill="#000"/><path d="m1.59 10.8-1.25 0.22c-0.0286 5e-3 -0.0585 0.01-0.0854-8e-4 -0.333-0.134-0.333-1.85 0-1.98 0.0269-0.0108 0.0568-0.0058 0.0854-7.9e-4l1.25 0.22c0.239 0.042 0.414 0.25 0.414 0.492v0.56c0 0.243-0.174 0.45-0.414 0.492z" fill="#000"/><path d="m15.7 11-1.25-0.22c-0.239-0.042-0.414-0.25-0.414-0.492v-0.56c0-0.243 0.174-0.45 0.414-0.492l1.25-0.22c0.0285-0.00501 0.0585-0.01 0.0854 7.9e-4 0.333 0.134 0.333 1.85 0 1.98-0.0269 0.0108-0.0569 0.0058-0.0854 8e-4z" fill="#000"/></svg>
