<svg viewBox="0 0 16 16" xmlns="http://www.w3.org/2000/svg"><path d="m9.5 16c0.276 0 0.5-0.224 0.5-0.5v-1.18c0-0.942 0.453-1.73 1.08-2.68 0.0361-0.0545 0.073-0.11 0.111-0.166 0.27-0.405 0.572-0.859 0.807-1.32 0.275-0.541 0.499-1.17 0.499-1.88 0-1.06-0.472-1.68-0.764-2.06l-0.0499-0.0658c-0.142-0.188-0.188-0.267-0.211-0.335-0.0144-0.0418-0.039-0.131 0.0038-0.338 0.0012-0.00573 0.0223-0.0796 0.153-0.212 0.125-0.127 0.298-0.255 0.49-0.371 0.654-0.397 1.23-1.13 1.23-2.07v-0.114c0-1.31-0.944-2.44-2.24-2.66-1.32-0.231-2.61 0.538-3.03 1.81l-3.44 10.3c-0.177 0.531-0.0439 1.12 0.345 1.52l1.01 1.04v0.773c0 0.276 0.224 0.5 0.5 0.5s0.5-0.224 0.5-0.5v-0.773c0-0.26-0.101-0.509-0.281-0.695l-1.01-1.04c-0.13-0.134-0.174-0.329-0.115-0.506l3.44-10.3c0.267-0.8 1.08-1.28 1.91-1.14 0.815 0.143 1.41 0.85 1.41 1.68v0.114c0 0.507-0.318 0.957-0.752 1.22-0.465 0.282-0.994 0.709-1.1 1.24-0.157 0.758 0.126 1.13 0.431 1.53 0.276 0.364 0.569 0.751 0.569 1.47 0 0.939-0.551 1.77-1.14 2.65-0.66 0.993-1.36 2.05-1.36 3.4v1.18c0 0.276 0.224 0.5 0.5 0.5z" fill="#000"/><path d="m6.07 1.37 0.658 0.221c0.0252 0.00819 0.0527 0.00607 0.0763-0.00589 0.0357-0.018 0.0533-0.0559 0.0708-0.0933 0.00538-0.0115 0.0107-0.023 0.0166-0.0338l0.0632-0.117c0.131-0.242 0.22-0.506 0.262-0.778l0.0203-0.131c0.00181-0.0117 0.0043-0.0235 0.0068-0.0354 0.0086-0.041 0.0173-0.0827-8.7e-4 -0.119-0.0119-0.0238-0.0326-0.042-0.0577-0.0508l-0.658-0.22c-0.0101-0.00361-0.021-0.00342-0.0322-7.73e-4 -0.0675 0.0161-0.113 0.0766-0.156 0.133l-0.0132 0.0174c-0.0668 0.0869-0.165 0.24-0.239 0.46-0.0777 0.232-0.0895 0.419-0.0875 0.527l7e-5 0.00401c0.00118 0.065 0.00242 0.134 0.0352 0.189 0.00897 0.0153 0.0206 0.0278 0.0357 0.0328z" fill="#000"/><path d="m5.37 3.45 0.658 0.221c0.0252 0.00854 0.0528 0.00671 0.0767-0.00507 0.0361-0.0178 0.054-0.056 0.0717-0.0937 0.00534-0.0114 0.0106-0.0227 0.0164-0.0334l0.0605-0.112c0.133-0.246 0.222-0.512 0.265-0.788l0.0194-0.125c0.00182-0.0117 0.00431-0.0236 0.0068-0.0356 0.00867-0.0415 0.0175-0.0836-0.00105-0.12-0.0121-0.024-0.033-0.0423-0.0584-0.0511l-0.658-0.221c-0.0145-0.00489-0.0308-0.00205-0.0468 0.00457-0.0606 0.025-0.103 0.0797-0.144 0.131l-0.00272 0.00347c-0.0664 0.0846-0.17 0.241-0.247 0.472-0.0782 0.233-0.0896 0.422-0.0875 0.529l4e-5 0.00193c0.00128 0.0644 0.00263 0.132 0.0346 0.188 0.00906 0.0158 0.0209 0.029 0.0363 0.0344z" fill="#000"/><path d="m3.69 10.6-0.658-0.221c-0.0142-0.0047-0.0299-0.0023-0.0453 0.0036-0.0612 0.0236-0.104 0.0786-0.145 0.13l-0.00415 0.0053c-0.0665 0.0849-0.169 0.241-0.246 0.471-0.0777 0.232-0.0895 0.419-0.0875 0.527l6e-5 0.0038c0.00118 0.065 0.00243 0.134 0.0349 0.19 0.00881 0.0152 0.0202 0.0276 0.035 0.0326l0.658 0.221c0.0252 0.0085 0.0528 0.0067 0.0767-0.0051 0.0361-0.0178 0.054-0.056 0.0717-0.0937 0.00533-0.0114 0.0106-0.0227 0.0164-0.0334l0.0605-0.112c0.133-0.246 0.222-0.512 0.265-0.788l0.0195-0.126c0.00181-0.0117 0.0043-0.0235 0.0068-0.0355 0.0086-0.041 0.0173-0.0826-8.7e-4 -0.119-0.0119-0.0238-0.0326-0.042-0.0577-0.0508z" fill="#000"/><path d="m5.33 5.75-0.658-0.221c-0.0153-0.00509-0.0271-0.0179-0.0362-0.0334-0.0321-0.0553-0.0334-0.123-0.0347-0.187l-6e-5 -0.00314c-0.00213-0.107 0.00933-0.296 0.0875-0.529 0.0797-0.238 0.187-0.397 0.253-0.48 0.038-0.0477 0.0782-0.0969 0.133-0.123 0.0185-0.00888 0.0378-0.0136 0.0547-0.00786l0.659 0.221c0.0252 0.00856 0.046 0.0268 0.0578 0.0506 0.0178 0.036 0.00892 0.0771 1.9e-4 0.118-0.00267 0.0124-0.00534 0.0248-0.00722 0.0369l-0.0201 0.129c-0.0425 0.273-0.131 0.538-0.263 0.781l-0.0626 0.116c-0.00572 0.0106-0.011 0.0218-0.0163 0.033-0.0176 0.0374-0.0354 0.0753-0.0712 0.0931-0.0236 0.0118-0.051 0.0137-0.0761 0.00551z" fill="#000"/><path d="m3.97 7.61 0.658 0.221c0.0252 0.00853 0.0528 0.00671 0.0767-0.00507 0.0361-0.0178 0.054-0.056 0.0717-0.0937 0.00533-0.0114 0.0106-0.0227 0.0164-0.0334l0.0605-0.112c0.133-0.246 0.222-0.512 0.265-0.788l0.0316-0.203c0.00765-0.0255 0.00519-0.053-0.00689-0.0767-0.0121-0.0237-0.0328-0.0419-0.058-0.0507l-0.658-0.221c-0.0168-0.00569-0.0362-0.00102-0.0547 0.00786-0.055 0.0265-0.0951 0.0757-0.133 0.123-0.0661 0.0828-0.173 0.241-0.253 0.479-0.0777 0.232-0.0895 0.419-0.0875 0.527l7e-5 0.00401c0.00118 0.065 0.00242 0.134 0.0352 0.189 0.00897 0.0153 0.0206 0.0278 0.0357 0.0328z" fill="#000"/><path d="m3.93 9.91-0.658-0.221c-0.015-0.00499-0.0267-0.0175-0.0357-0.0328-0.0328-0.0559-0.034-0.124-0.0352-0.189l-7e-5 -0.00401c-0.00197-0.107 0.00981-0.295 0.0875-0.527 0.0796-0.237 0.187-0.396 0.253-0.479 0.0381-0.0477 0.0782-0.0969 0.133-0.123 0.0185-0.00888 0.0378-0.0136 0.0547-0.00786l0.66 0.221c0.0252 0.00857 0.046 0.0268 0.0578 0.0507 0.0178 0.036 0.00893 0.0771 1.9e-4 0.118-0.00267 0.0124-0.00534 0.0248-0.00722 0.0369l-0.0201 0.129c-0.0425 0.273-0.131 0.538-0.263 0.781l-0.0623 0.115c-0.00579 0.0107-0.0111 0.022-0.0164 0.0334-0.0177 0.0377-0.0356 0.0759-0.0717 0.0937-0.0239 0.0118-0.0514 0.0136-0.0767 0.00507z" fill="#000"/></svg>
