<svg fill="none" viewBox="0 0 16 16" xmlns="http://www.w3.org/2000/svg"><path d="m7.5 0c-0.276 0-0.5 0.224-0.5 0.5v0.5c0 0.0162 8.6e-4 0.0321 0.00253 0.0475-1.21 0.105-2.54 0.366-3.53 0.588-0.877 0.198-1.48 0.986-1.48 1.89v3.96c0 0.899 0.6 1.69 1.48 1.89 0.718 0.162 1.62 0.344 2.52 0.472v0.664c0 0.276 0.224 0.5 0.5 0.5h0.804c0.0183 0.15 0.0296 0.316 0.0296 0.5 0 1-0.333 1.5-0.333 1.5h-0.5c-0.276 0-0.5 0.224-0.5 0.5v0.5h-1v-0.5c0-0.276-0.224-0.5-0.5-0.5s-0.5 0.224-0.5 0.5v2c0 0.276 0.224 0.5 0.5 0.5s0.5-0.224 0.5-0.5v-0.5h1v0.5c0 0.276 0.224 0.5 0.5 0.5h0.5c0.276 0 0.5-0.224 0.5-0.5v-0.5h1v0.5c0 0.276 0.224 0.5 0.5 0.5h0.5c0.276 0 0.5-0.224 0.5-0.5v-0.5h1v0.5c0 0.276 0.224 0.5 0.5 0.5s0.5-0.224 0.5-0.5v-2c0-0.276-0.224-0.5-0.5-0.5s-0.5 0.224-0.5 0.5v0.5h-1v-0.5c0-0.276-0.224-0.5-0.5-0.5h-0.5s-0.333-0.5-0.333-1.5c0-0.184 0.0112-0.35 0.0296-0.5h0.804c0.276 0 0.5-0.224 0.5-0.5v-0.664c0.904-0.128 1.81-0.31 2.52-0.472 0.877-0.198 1.48-0.986 1.48-1.89v-3.96c0-0.899-0.6-1.69-1.48-1.89-0.985-0.222-2.32-0.483-3.53-0.588 0.00167-0.0155 0.00253-0.0313 0.00253-0.0475v-0.5c0-0.276-0.224-0.5-0.5-0.5h-1zm5.5 3.52v3.96c0 0.456-0.299 0.82-0.697 0.91-1.26 0.285-3.01 0.612-4.3 0.612s-3.04-0.327-4.3-0.612c-0.397-0.0896-0.697-0.454-0.697-0.91v-3.96c0-0.456 0.299-0.82 0.697-0.91 1.26-0.285 3.01-0.612 4.3-0.612s3.04 0.327 4.3 0.612c0.397 0.0896 0.697 0.454 0.697 0.91z" clip-rule="evenodd" fill="#000" fill-rule="evenodd"/></svg>
