<svg viewBox="0 0 16 16" xmlns="http://www.w3.org/2000/svg"><path d="m5.51 1.36 0.718 0.233c0.0275 0.00863 0.0576 0.00695 0.0836-0.00469 0.0382-0.0171 0.0588-0.0558 0.079-0.0939 0.00608-0.0114 0.0121-0.0228 0.0186-0.0336l0.0689-0.114c0.146-0.242 0.247-0.509 0.297-0.787l0.022-0.122c0.00208-0.0116 0.00486-0.0234 0.00766-0.0352 0.00979-0.0415 0.0198-0.0837 4.2e-4 -0.12-0.0128-0.0241-0.0352-0.0427-0.0626-0.0519l-0.718-0.232c-0.014-0.00481-0.0295-0.00349-0.0451 0.00122-0.0686 0.0208-0.119 0.0785-0.166 0.133l-0.00609 0.00702c-0.074 0.0851-0.186 0.239-0.271 0.464-0.0861 0.228-0.102 0.414-0.101 0.523l2e-5 0.00397c3.5e-4 0.0688 7.2e-4 0.142 0.039 0.199 0.00935 0.0139 0.0213 0.0252 0.0364 0.03z" fill="#000"/><path d="m4.72 3.44 0.718 0.233c0.0275 0.00898 0.0577 0.00759 0.084-0.00386 0.0388-0.0169 0.0596-0.0559 0.0801-0.0944 0.00602-0.0113 0.012-0.0225 0.0184-0.0332l0.0658-0.109c0.148-0.245 0.25-0.515 0.301-0.797l0.0209-0.116c0.00208-0.0116 0.00486-0.0234 0.00766-0.0353 0.00986-0.042 0.0199-0.0847 2.4e-4 -0.121-0.013-0.0243-0.0357-0.043-0.0634-0.0522l-0.718-0.233c-0.0182-0.00594-0.0392-0.00159-0.0594 0.00702-0.0601 0.0257-0.106 0.0758-0.149 0.125-0.0733 0.0827-0.191 0.24-0.28 0.475-0.0866 0.229-0.102 0.416-0.101 0.525l2e-5 0.00171c4.7e-4 0.0682 9.8e-4 0.141 0.0382 0.198 0.00947 0.0145 0.0216 0.0264 0.0372 0.0317z" fill="#000"/><path d="m2.81 10.6-0.718-0.232c-0.018-0.0058-0.0384-2e-3 -0.0579 6e-3 -0.0613 0.0249-0.108 0.0761-0.152 0.126-0.0734 0.0829-0.19 0.24-0.279 0.474-0.0861 0.228-0.102 0.414-0.101 0.523l3e-5 0.0039c3.4e-4 0.0688 7.2e-4 0.142 0.0386 0.2 0.00918 0.0138 0.0209 0.025 0.0357 0.0298l0.718 0.232c0.0275 9e-3 0.0577 0.0076 0.084-0.0038 0.0388-0.0169 0.0596-0.056 0.0801-0.0944 0.00602-0.0113 0.012-0.0226 0.0184-0.0332l0.0658-0.109c0.148-0.245 0.25-0.515 0.301-0.797l0.021-0.117c0.00208-0.0116 0.00487-0.0234 0.00767-0.0352 0.00979-0.0415 0.0198-0.0837 4.2e-4 -0.12-0.0128-0.024-0.0352-0.0427-0.0626-0.0519z" fill="#000"/><path d="m4.65 5.76-0.718-0.233c-0.0155-0.00496-0.0276-0.0165-0.0371-0.0307-0.0374-0.0564-0.0379-0.129-0.0384-0.197l-2e-5 -0.00296c-7.6e-4 -0.108 0.0146-0.295 0.101-0.525 0.0912-0.242 0.213-0.401 0.286-0.482 0.0398-0.0442 0.0822-0.0884 0.136-0.114 0.0224-0.0107 0.0465-0.0169 0.067-0.0102l0.719 0.233c0.0275 9e-3 0.0501 0.0276 0.0627 0.0518 0.0189 0.036 0.00879 0.0777-0.00115 0.119-3e-3 0.0124-0.00598 0.0247-0.00815 0.0367l-0.0234 0.13c-0.049 0.273-0.148 0.535-0.291 0.772l-0.0732 0.121c-0.00634 0.0105-0.0123 0.0216-0.0182 0.0328-0.0204 0.0382-0.0411 0.0769-0.0795 0.0938-0.026 0.0114-0.0559 0.013-0.0833 0.00431z" fill="#000"/><path d="m3.15 7.6 0.718 0.233c0.0275 0.00898 0.0577 0.00759 0.084-0.00385 0.0388-0.0169 0.0596-0.056 0.0801-0.0944 0.00602-0.0113 0.012-0.0225 0.0184-0.0332l0.0658-0.109c0.148-0.245 0.25-0.515 0.301-0.797l0.021-0.117c0.00203-0.0113 0.00471-0.0228 0.0074-0.0344 0.00974-0.0419 0.0197-0.0846-8e-5 -0.121-0.013-0.024-0.0355-0.0426-0.0629-0.0518l-0.718-0.233c-0.0206-0.0067-0.0447-4.4e-4 -0.067 0.0102-0.0537 0.0256-0.096 0.0698-0.136 0.114-0.0728 0.0808-0.194 0.24-0.286 0.481-0.0861 0.228-0.102 0.414-0.101 0.523l2e-5 0.00397c3.5e-4 0.0688 7.2e-4 0.142 0.039 0.199 0.00935 0.0139 0.0213 0.0252 0.0364 0.03z" fill="#000"/><path d="m3.08 9.92-0.718-0.233c-0.0152-0.00485-0.0271-0.0161-0.0364-0.03-0.0382-0.0569-0.0386-0.131-0.039-0.199l-2e-5 -0.00398c-5.7e-4 -0.109 0.0151-0.295 0.101-0.523 0.0912-0.242 0.213-0.4 0.286-0.481 0.0398-0.0442 0.0822-0.0884 0.136-0.114 0.0224-0.0107 0.0465-0.0169 0.0671-0.0102l0.72 0.233c0.0275 0.00901 0.0501 0.0276 0.0627 0.0518 0.0189 0.036 0.00878 0.0777-0.00116 0.119-0.00299 0.0124-0.00598 0.0247-0.00814 0.0367l-0.0234 0.13c-0.049 0.273-0.148 0.535-0.291 0.772l-0.0729 0.121c-0.00641 0.0106-0.0124 0.0218-0.0184 0.0331-0.0205 0.0385-0.0413 0.0775-0.0801 0.0944-0.0262 0.0114-0.0564 0.0128-0.084 0.00386z" fill="#000"/><path d="m13.2 4.32c0.47-0.99 0.314-2.27-0.385-3.22-0.472-0.634-1.26-0.923-1.88-1.03-0.63-0.113-1.41-0.1-2.02 0.197-0.453 0.22-0.797 0.523-1.03 0.776-0.413 0.443-0.623 0.973-0.762 1.35l-3.53 9.71c-0.272 0.748 0.0875 1.58 0.819 1.89l1.56 0.67v0.841c0 0.276 0.224 0.5 0.5 0.5s0.5-0.224 0.5-0.5v-0.841c0-0.4-0.238-0.761-0.606-0.919l-1.56-0.67c-0.244-0.104-0.363-0.381-0.273-0.63l3.53-9.71c0.133-0.365 0.288-0.728 0.553-1.01 0.181-0.194 0.428-0.408 0.738-0.558 0.706-0.342 2.17-0.136 2.67 0.534 0.498 0.67 0.582 1.56 0.285 2.19-0.142 0.301-0.57 0.569-0.975 0.767-0.468 0.228-0.764 0.737-0.647 1.24l1.2 5.19c0.0548 0.237-0.0696 0.48-0.294 0.574l-0.765 0.32c-1.12 0.467-1.84 1.56-1.84 2.77l6.3e-4 0.747c2.3e-4 0.276 0.224 0.5 0.5 0.5 0.276 0 0.5-0.224 0.5-0.5l-6e-4 -0.747c-7e-4 -0.807 0.484-1.54 1.23-1.85l0.765-0.32c0.675-0.282 1.05-1.01 0.884-1.72l-1.2-5.19 2e-4 -0.00195c5e-4 -0.00323 0.0025-0.0126 0.0102-0.0268 0.0169-0.0314 0.0515-0.0684 0.1-0.0923 0.233-0.114 0.5-0.26 0.742-0.439 0.224-0.166 0.522-0.427 0.698-0.798z" fill="#000"/></svg>
