<svg viewBox="0 0 16 16" xmlns="http://www.w3.org/2000/svg"><path d="m10-5.01e-5c0.193 0.00356 0.375 0.118 0.455 0.293l2.5 5.5 0.0234 0.0625c0.0384 0.127 0.025 0.265-0.0381 0.382l-0.0361 0.0566c-0.996 1.37-1.71 2.45-2.18 3.78-0.474 1.33-0.721 2.96-0.721 5.43 0 0.276-0.224 0.5-0.5 0.5-0.276-2e-4 -0.5-0.224-0.5-0.5 0-2.53 0.253-4.28 0.779-5.76 0.496-1.39 1.3-2.46 2.22-3.74l-2-4.34-5.72 11.4c0.251 0.0295 0.544 0.0756 0.839 0.149 0.403 0.101 0.852 0.262 1.21 0.53 0.372 0.279 0.669 0.696 0.669 1.27v0.5c0 0.276-0.224 0.5-0.5 0.5-0.276-2e-4 -0.5-0.224-0.5-0.5v-0.5c-3e-5 -0.178-0.0786-0.324-0.269-0.467-0.204-0.153-0.506-0.274-0.853-0.36-0.34-0.0849-0.687-0.129-0.952-0.151-0.131-0.0109-0.24-0.0158-0.315-0.0185-0.0374-0.0014-0.067-0.0026-0.0859-3e-3h-0.0254c-0.173-1e-4 -0.335-0.0899-0.426-0.237-0.0908-0.147-0.0988-0.332-0.0215-0.486l6.5-13 0.0361-0.0615c0.0942-0.136 0.243-0.218 0.411-0.215z" fill="#000"/><path d="m1.9 10.9c0.0808 0.0014 0.159 0.0408 0.314 0.119l0.278 0.14c0.154 0.0776 0.231 0.117 0.28 0.181 0.0412 0.0536 0.0685 0.128 0.0723 0.195 0.00448 0.0804-0.0257 0.154-0.0869 0.302-0.123 0.296-0.265 0.578-0.425 0.846-0.0806 0.135-0.121 0.203-0.188 0.247-0.0561 0.0369-0.133 0.0588-0.2 0.0576-0.0805-0.0014-0.157-0.0394-0.31-0.116l-0.284-0.144c-0.155-0.0781-0.233-0.117-0.282-0.182-0.0411-0.0538-0.0678-0.129-0.0713-0.196-0.00402-0.081 0.027-0.155 0.0898-0.303 0.12-0.282 0.261-0.56 0.42-0.831 0.0826-0.141 0.124-0.211 0.191-0.256 0.0568-0.0378 0.133-0.0606 0.201-0.0596z" fill="#000"/><path d="m3 8.73c0.081 0.00119 0.159 0.0405 0.315 0.119l0.278 0.14c0.154 0.0776 0.231 0.117 0.28 0.181 0.0411 0.0536 0.0685 0.128 0.0723 0.195 0.00448 0.0804-0.0267 0.154-0.0879 0.302-0.123 0.296-0.265 0.578-0.425 0.846-0.0806 0.135-0.12 0.203-0.188 0.247-0.0561 0.0369-0.133 0.0587-0.2 0.0576-0.0805-0.0013-0.157-0.0394-0.31-0.116l-0.285-0.144c-0.155-0.078-0.232-0.117-0.281-0.182-0.0412-0.0539-0.0688-0.128-0.0723-0.196-0.00403-0.0809 0.028-0.155 0.0908-0.303 0.12-0.282 0.26-0.56 0.419-0.831 0.0827-0.141 0.125-0.211 0.192-0.256 0.0568-0.0378 0.132-0.0606 0.2-0.0596z" fill="#000"/><path d="m4.1 6.55c0.081 0.00128 0.159 0.0406 0.315 0.119l0.277 0.14c0.154 0.0775 0.231 0.117 0.28 0.181 0.0412 0.0536 0.0685 0.128 0.0723 0.195 0.00449 0.0804-0.0257 0.154-0.0869 0.302-0.123 0.296-0.265 0.578-0.425 0.846-0.0806 0.135-0.121 0.203-0.188 0.247-0.0561 0.0368-0.133 0.0588-0.2 0.0576-0.0805-0.0015-0.157-0.0394-0.31-0.116l-0.284-0.144c-0.155-0.078-0.232-0.117-0.281-0.182-0.0412-0.0539-0.0688-0.129-0.0723-0.196-0.00402-0.0809 0.0271-0.155 0.0898-0.303 0.12-0.282 0.261-0.56 0.42-0.831 0.0826-0.14 0.124-0.211 0.191-0.256 0.0568-0.0378 0.133-0.0606 0.201-0.0596z" fill="#000"/><path d="m5.2 4.37c0.081 0.0012 0.159 0.0406 0.315 0.119l0.278 0.14c0.154 0.0776 0.231 0.117 0.28 0.181 0.0412 0.0536 0.0685 0.128 0.0723 0.195 0.00448 0.0804-0.0257 0.154-0.0869 0.302-0.123 0.296-0.265 0.578-0.425 0.846-0.0806 0.135-0.121 0.203-0.188 0.247-0.0561 0.0369-0.133 0.0588-0.2 0.0576-0.0806-0.00138-0.157-0.0394-0.31-0.116l-0.284-0.144c-0.155-0.078-0.233-0.117-0.282-0.182-0.0411-0.0539-0.0678-0.129-0.0713-0.196-0.00402-0.0809 0.027-0.155 0.0898-0.303 0.12-0.282 0.261-0.56 0.42-0.831 0.0827-0.141 0.124-0.211 0.191-0.256 0.0567-0.0378 0.132-0.0605 0.2-0.0596z" fill="#000"/><path d="m6.3 2.18c0.081 0.00121 0.159 0.0405 0.315 0.119l0.277 0.14c0.154 0.0775 0.231 0.117 0.28 0.181 0.0412 0.0536 0.0695 0.128 0.0732 0.195 0.00448 0.0804-0.0267 0.154-0.0879 0.302-0.123 0.296-0.265 0.578-0.425 0.846-0.0806 0.135-0.121 0.203-0.188 0.247-0.056 0.0367-0.132 0.0587-0.199 0.0576-0.0805-0.00138-0.157-0.0395-0.31-0.116l-0.285-0.144c-0.155-0.078-0.232-0.117-0.281-0.182-0.0412-0.0539-0.0688-0.129-0.0723-0.196-0.00403-0.081 0.028-0.155 0.0908-0.303 0.12-0.282 0.26-0.56 0.419-0.831 0.0825-0.14 0.124-0.211 0.191-0.256 0.0568-0.0378 0.133-0.0606 0.201-0.0596z" fill="#000"/><path d="m7.4-5.01e-5c0.0808 0.00134 0.159 0.0408 0.314 0.119l0.278 0.141c0.154 0.0775 0.231 0.116 0.28 0.18 0.0412 0.0536 0.0685 0.128 0.0723 0.195 0.0045 0.0804-0.0257 0.154-0.0869 0.302-0.123 0.296-0.265 0.578-0.425 0.846-0.0806 0.135-0.121 0.203-0.188 0.247-0.0561 0.0369-0.133 0.0588-0.2 0.0576-0.0805-0.00143-0.157-0.0394-0.31-0.116l-0.284-0.144c-0.155-0.078-0.233-0.117-0.282-0.182-0.0411-0.0539-0.0679-0.129-0.0713-0.196-0.00403-0.0809 0.027-0.155 0.0898-0.303 0.12-0.282 0.261-0.56 0.42-0.831 0.0826-0.141 0.124-0.211 0.191-0.256 0.0568-0.0378 0.133-0.0606 0.201-0.0596z" fill="#000"/></svg>
