<svg viewBox="0 0 16 16" xmlns="http://www.w3.org/2000/svg"><path d="m12 1c0.138 0 0.262 0.025 0.375 0.075 0.4 0.188 0.625 0.588 0.6 0.988l-0.75 11c-0.025 0.375-0.25 0.7-0.588 0.85l-1.06 0.475c-0.362 0.162-0.6 0.512-0.6 0.912v0.2c0 0.275-0.225 0.5-0.5 0.5s-0.5-0.225-0.5-0.5v-0.2c0-0.788 0.462-1.5 1.19-1.82l1.06-0.475 0.75-11s-1.05-0.0375-1.65-0.25c-0.274-0.0952-0.463-0.256-0.638-0.404-0.215-0.183-0.408-0.346-0.712-0.346-0.55 0-1 0.5-1 0.5s-0.45-0.5-1-0.5c-0.306 0-0.504 0.167-0.723 0.351-0.174 0.147-0.361 0.305-0.627 0.399-0.6 0.212-1.65 0.25-1.65 0.25l0.75 11 1.06 0.475c0.725 0.312 1.19 1.04 1.19 1.82v0.2c0 0.275-0.225 0.5-0.5 0.5s-0.5-0.225-0.5-0.5v-0.2c0-0.4-0.238-0.75-0.6-0.912l-1.06-0.475c-0.338-0.15-0.562-0.475-0.588-0.85l-0.75-11c-0.025-0.412 0.2-0.812 0.6-0.988 0.112-0.05 0.238-0.075 0.362-0.075 0.362-0.0125 1.04-0.075 1.36-0.2 0.0818-0.0234 0.164-0.0904 0.286-0.191 0.00856-0.00702 0.0173-0.0142 0.0263-0.0215 0.275-0.238 0.688-0.588 1.36-0.588 0.388 0 0.725 0.112 1 0.262 0.275-0.15 0.612-0.262 1-0.262 0.675 0 1.09 0.35 1.36 0.588 9e-3 0.00734 0.0177 0.0145 0.0263 0.0215 0.123 0.101 0.204 0.168 0.286 0.191 0.325 0.125 1 0.188 1.35 0.2z" fill="#000"/><path d="m0.288 3.25 1.43-0.187c0.164-0.0216 0.287-0.162 0.287-0.327v-0.471c0-0.166-0.123-0.306-0.287-0.327l-1.43-0.187c-0.387 0-0.387 1.5 0 1.5z" fill="#000"/><path d="m0.438 5.25 1.43-0.187c0.164-0.0216 0.287-0.162 0.287-0.327v-0.471c0-0.166-0.123-0.306-0.287-0.327l-1.43-0.187c-0.387 0-0.387 1.5 0 1.5z" fill="#000"/><path d="m2.01 7.06-1.43 0.187c-0.388 0-0.388-1.5 0-1.5l1.43 0.187c0.164 0.0216 0.287 0.162 0.287 0.327v0.471c0 0.166-0.123 0.306-0.287 0.327z" fill="#000"/><path d="m0.737 9.25 1.43-0.187c0.164-0.0216 0.287-0.162 0.287-0.327v-0.471c0-0.166-0.123-0.306-0.287-0.327l-1.43-0.187c-0.388 0-0.388 1.5 0 1.5z" fill="#000"/><path d="m2.31 11.1-1.43 0.187c-0.388 0-0.388-1.5 0-1.5l1.43 0.187c0.164 0.0216 0.287 0.162 0.287 0.327v0.471c0 0.166-0.123 0.306-0.287 0.327z" fill="#000"/><path d="m1.04 13.2 1.43-0.187c0.164-0.0216 0.287-0.162 0.287-0.327v-0.471c0-0.166-0.123-0.306-0.287-0.327l-1.43-0.187c-0.387 0-0.387 1.5 0 1.5z" fill="#000"/><path d="m14.3 3.06 1.43 0.187c0.388 0 0.388-1.5 0-1.5l-1.43 0.187c-0.164 0.0216-0.287 0.162-0.287 0.327v0.471c0 0.166 0.123 0.306 0.287 0.327z" fill="#000"/><path d="m15.6 5.25-1.43-0.187c-0.164-0.0216-0.287-0.162-0.287-0.327v-0.471c0-0.166 0.123-0.306 0.287-0.327l1.43-0.187c0.388 0 0.388 1.5 0 1.5z" fill="#000"/><path d="m14 7.06 1.43 0.187c0.388 0 0.388-1.5 0-1.5l-1.43 0.187c-0.164 0.0216-0.287 0.162-0.287 0.327v0.471c0 0.166 0.123 0.306 0.287 0.327z" fill="#000"/><path d="m15.3 9.25-1.43-0.187c-0.164-0.0216-0.287-0.162-0.287-0.327v-0.471c0-0.166 0.123-0.306 0.287-0.327l1.43-0.187c0.388 0 0.388 1.5 0 1.5z" fill="#000"/><path d="m13.7 11.1 1.43 0.187c0.388 0 0.388-1.5 0-1.5l-1.43 0.187c-0.164 0.0216-0.287 0.162-0.287 0.327v0.471c0 0.166 0.123 0.306 0.287 0.327z" fill="#000"/><path d="m15 13.2-1.43-0.187c-0.164-0.0216-0.287-0.162-0.287-0.327v-0.471c0-0.166 0.123-0.306 0.287-0.327l1.43-0.187c0.388 0 0.388 1.5 0 1.5z" fill="#000"/><path d="m6.5 3.46c-0.0125-0.275-0.25-0.475-0.525-0.462-0.288 0.0125-0.488 0.25-0.462 0.525l0.5 8c0.0125 0.275 0.25 0.475 0.525 0.462s0.475-0.25 0.462-0.525l-0.5-8z" fill="#000"/><path d="m10 3c-0.275-0.0125-0.512 0.188-0.525 0.462l-0.5 8c-0.0125 0.275 0.188 0.512 0.462 0.525 0.275 0.0125 0.512-0.188 0.525-0.462l0.5-8c0.025-0.275-0.175-0.512-0.462-0.525z" fill="#000"/></svg>
