<svg fill="none" viewBox="0 0 16 16" xmlns="http://www.w3.org/2000/svg"><path d="m14.4 9.66c0.194 0.196 0.192 0.513-0.0045 0.707-1.03 1.02-3.38 1.58-6.39 1.63l-0.00159 2.5c0 0.276-0.224 0.5-0.5 0.5s-0.5-0.224-0.5-0.5l-1.5e-4 -2.5c-2.97-0.0543-5.3-0.597-6.35-1.59-0.201-0.19-0.209-0.506-0.0195-0.707 0.19-0.201 0.506-0.209 0.707-0.0195 0.867 0.821 3.2 1.32 6.16 1.32 3 0 5.34-0.513 6.19-1.35 0.196-0.194 0.513-0.192 0.707 0.00447zm-6.9-9.66c0.276 0 0.5 0.224 0.5 0.5l8.7e-4 2.24c0.878 0.132 1.66 0.619 2.34 1.44 2.73 0.367 4.66 1.31 4.66 2.82 0 1.95-3.2 2.95-7.21 3l-0.288 0.00162c-4.14 0-7.5-1-7.5-3 0-1.51 1.93-2.46 4.66-2.82 0.683-0.822 1.46-1.31 2.34-1.44l-1.3e-4 -2.24c0-0.276 0.224-0.5 0.5-0.5zm0.501 3.76-9.4e-4 0.745c0 0.276-0.224 0.5-0.5 0.5s-0.5-0.224-0.5-0.5l6e-5 -0.745c-0.964 0.217-1.81 1.08-2.55 2.66-0.117 0.25-0.414 0.358-0.665 0.242-0.25-0.117-0.358-0.414-0.242-0.665 0.073-0.156 0.148-0.307 0.224-0.453l0.115-0.214-0.128 0.026c-1.74 0.364-2.76 0.985-2.76 1.65 0 1.06 2.56 2 6.5 2s6.5-0.943 6.5-2c0-0.683-1.07-1.32-2.89-1.68 0.116 0.211 0.23 0.435 0.34 0.671 0.117 0.25 0.0086 0.548-0.242 0.665-0.25 0.117-0.548 0.00859-0.664-0.242-0.735-1.57-1.58-2.44-2.55-2.66z" fill="#000"/></svg>
