<svg fill="none" viewBox="0 0 16 16" xmlns="http://www.w3.org/2000/svg"><path d="m0.218 5.09c-0.218 0.428-0.218 0.988-0.218 2.11v1.6c0 1.12 0 1.68 0.218 2.11 0.192 0.376 0.498 0.682 0.874 0.874 0.428 0.218 0.988 0.218 2.11 0.218h9.6c1.12 0 1.68 0 2.11-0.218 0.376-0.192 0.682-0.498 0.874-0.874 0.218-0.428 0.218-0.988 0.218-2.11v-1.6c0-1.12 0-1.68-0.218-2.11-0.192-0.376-0.498-0.682-0.874-0.874-0.428-0.218-0.988-0.218-2.11-0.218h-9.6c-1.12 0-1.68 0-2.11 0.218-0.376 0.192-0.682 0.498-0.874 0.874zm10.3-0.092c-0.276 0-0.5 0.224-0.5 0.5v0.5h-0.5c-0.276 0-0.5 0.224-0.5 0.5s0.224 0.5 0.5 0.5h0.5v3.5c0 0.276 0.224 0.5 0.5 0.5s0.5-0.224 0.5-0.5v-3.5h0.5c0.276 0 0.5-0.224 0.5-0.5s-0.224-0.5-0.5-0.5h-0.5v-0.5c0-0.276-0.224-0.5-0.5-0.5zm2.5 0.5c0-0.276 0.224-0.5 0.5-0.5s0.5 0.224 0.5 0.5v2.5h0.5c0.276 0 0.5 0.224 0.5 0.5s-0.224 0.5-0.5 0.5h-0.5v1.5c0 0.276-0.224 0.5-0.5 0.5s-0.5-0.224-0.5-0.5v-1.5h-0.5c-0.276 0-0.5-0.224-0.5-0.5s0.224-0.5 0.5-0.5h0.5v-2.5zm-5.5 4.5h-1.59c0.056-0.157 0.092-0.324 0.092-0.5-1e-4 -0.222-0.0493-0.44-0.144-0.64s-0.233-0.377-0.404-0.518c-0.171-0.141-0.371-0.242-0.586-0.296-0.215-0.0541-0.439-0.0599-0.656-0.0171l-0.885-1.13c-0.0486-0.0622-0.135-0.0806-0.205-0.0438-0.0697 0.0368-0.103 0.118-0.0796 0.193l0.429 1.37c-0.288 0.273-0.47 0.658-0.47 1.09 0 0.176 0.036 0.343 0.092 0.5h-1.59c-0.276 0-0.5-0.224-0.5-0.5 0-0.928 0.369-1.82 1.03-2.47 0.656-0.656 1.55-1.03 2.47-1.03s1.82 0.369 2.47 1.03c0.656 0.656 1.03 1.55 1.03 2.47 0 0.276-0.224 0.5-0.5 0.5z" clip-rule="evenodd" fill="#000" fill-rule="evenodd"/></svg>
