<svg viewBox="0 0 16 16" xmlns="http://www.w3.org/2000/svg"><path d="m7 3c0 0.552-0.448 1-1 1s-1-0.448-1-1 0.448-1 1-1 1 0.448 1 1z" fill="#000"/><path d="m8 6c0.552 0 1-0.448 1-1s-0.448-1-1-1-1 0.448-1 1 0.448 1 1 1z" fill="#000"/><path d="m11 3c0 0.552-0.448 1-1 1-0.552 0-1-0.448-1-1s0.448-1 1-1c0.552 0 1 0.448 1 1z" fill="#000"/><path d="m6 10c-0.552 0-1 0.448-1 1v1c0 0.552 0.448 1 1 1h4c0.552 0 1-0.448 1-1v-1c0-0.552-0.448-1-1-1h-4z" fill="#000"/><path d="m13 7v6c0 1.66-1.34 3-3 3h-4c-1.66 0-3-1.34-3-3v-6c-0.552 0-1-0.448-1-1v-1c0-0.552 0.448-1 1-1v-1c0-1.66 1.34-3 3-3h4c1.66 0 3 1.34 3 3v1c0.552 0 1 0.448 1 1v1c0 0.552-0.448 1-1 1zm-7-6h4c1.1 0 2 0.895 2 2v4h-8v-4c0-1.1 0.895-2 2-2zm-2 7v5c0 1.1 0.895 2 2 2h4c1.1 0 2-0.895 2-2v-5h-8z" clip-rule="evenodd" fill="#000" fill-rule="evenodd"/></svg>
