<svg fill="none" viewBox="0 0 16 16" xmlns="http://www.w3.org/2000/svg"><path d="m2.5 14c-0.663 0-1.3-0.263-1.77-0.732-0.469-0.469-0.732-1.1-0.732-1.77v-7c0-0.663 0.263-1.3 0.732-1.77 0.469-0.469 1.1-0.732 1.77-0.732h11c0.663 0 1.3 0.263 1.77 0.732 0.469 0.469 0.732 1.1 0.732 1.77v7c0 0.663-0.263 1.3-0.732 1.77-0.469 0.469-1.1 0.732-1.77 0.732h-11zm1.5-11h-1.5c-0.398 0-0.779 0.158-1.06 0.439s-0.439 0.663-0.439 1.06v7c0 0.398 0.158 0.779 0.439 1.06s0.663 0.439 1.06 0.439h2.5v-3c-0.265 0-0.52-0.105-0.707-0.293-0.188-0.188-0.293-0.442-0.293-0.707v-6zm5 0h-2v6c0 0.265-0.105 0.52-0.293 0.707-0.188 0.188-0.442 0.293-0.707 0.293v3h4v-3c-0.265 0-0.52-0.105-0.707-0.293-0.188-0.188-0.293-0.442-0.293-0.707v-6zm4.5 0h-1.5v6c0 0.265-0.105 0.52-0.293 0.707-0.188 0.188-0.442 0.293-0.707 0.293v3h2.5c0.398 0 0.779-0.158 1.06-0.439s0.439-0.663 0.439-1.06v-7c0-0.398-0.158-0.779-0.439-1.06s-0.663-0.439-1.06-0.439z" fill="#000"/></svg>
