<svg fill="none" viewBox="0 0 16 16" xmlns="http://www.w3.org/2000/svg"><path d="m6.19 0.999c-0.352 0-0.698 0.253-0.839 0.651-0.13 0.366-0.313 0.794-0.559 1.14-0.232 0.327-0.612 0.708-1.16 0.708-0.872 0-1.37-0.544-1.61-0.907-0.024-0.0375-0.0523-0.0644-0.0756-0.0793-0.0162-0.0104-0.0252-0.0123-0.0274-0.0126h-0.897c0.206 0.451 0.505 1.04 0.858 1.54 0.182 0.261 0.37 0.488 0.558 0.661 0.191 0.175 0.357 0.273 0.494 0.312 0.552 0.156 0.924 0.0509 1.15-0.0668 0.119-0.0617 0.207-0.132 0.263-0.183 0.0277-0.0258 0.0468-0.0465 0.0574-0.0585 0.00467-0.00532 0.00871-0.0103 0.00871-0.0103 0.146-0.192 0.41-0.255 0.629-0.148 0.221 0.107 0.331 0.356 0.262 0.589l-9.1e-4 0.00305-0.00312 0.0106-0.0125 0.0431c-0.0111 0.0382-0.0273 0.0949-0.048 0.168-0.0412 0.147-0.0997 0.359-0.168 0.621-0.137 0.525-0.474 1.25-0.633 2.03-0.16 0.789-0.3 1.64-0.366 2.42-0.0673 0.791-0.0542 1.47 0.0651 1.93 0.25 0.979 0.938 1.65 1.62 2.06 0.694 0.424 1.58 0.611 2.57 0.557 0.956-0.0524 1.76-0.214 2.37-0.544 0.588-0.318 1.01-0.804 1.21-1.58 0.117-0.459 0.18-0.823 0.236-1.14l0.0055-0.032c0.0746-0.431 0.144-0.835 0.345-1.25 0.208-0.427 0.538-0.828 1.08-1.32l0.0027-0.0025c0.151-0.139 0.373-0.174 0.56-0.0873 0.246 0.114 0.548 0.0437 0.715-0.181 0.191-0.256 0.135-0.615-0.124-0.804l-3.6-2.61c-0.259-0.188-0.624-0.133-0.814 0.122-0.149 0.2-0.148 0.464-0.0153 0.66 0.12 0.177 0.113 0.409-0.017 0.579-0.51 0.666-1.49 1.15-1.83 1.9-0.195 0.422-0.0922 0.969-0.043 1.41-0.00173-0.0155 0.00169 0.0151 0 0 0.0361 0.322 0.0886 0.566 0.0886 1.11s-0.422 0.772-0.842 0.772-0.676-0.338-0.676-0.838v-9.16c0-0.552-0.0932-0.999-0.652-0.999h-0.152zm3.1 5.4c-0.155-0.467-0.0879-0.999 0.23-1.43 0.522-0.7 1.52-0.85 2.23-0.335l3.6 2.61c0.709 0.515 0.861 1.5 0.34 2.2-0.383 0.514-1.02 0.731-1.61 0.608-0.355 0.347-0.536 0.598-0.647 0.825-0.133 0.273-0.184 0.545-0.265 1.01l-5e-4 0.0028c-0.0562 0.324-0.125 0.72-0.252 1.22-0.268 1.05-0.88 1.76-1.71 2.21-0.804 0.435-1.79 0.61-2.81 0.666-1.14 0.0627-2.25-0.15-3.16-0.705-0.919-0.561-1.76-1.45-2.07-2.67-0.161-0.632-0.162-1.44-0.0923-2.26 0.0708-0.831 0.219-1.72 0.382-2.53 0.135-0.67 0.443-1.29 0.569-1.79-0.375 0.0864-0.83 0.0944-1.36-0.0554-0.346-0.0979-0.65-0.306-0.906-0.542-0.259-0.238-0.494-0.528-0.701-0.825-0.415-0.594-0.751-1.27-0.968-1.75-0.304-0.67 0.215-1.36 0.91-1.36h0.931c0.446 0 0.781 0.28 0.958 0.557 0.141 0.22 0.37 0.442 0.751 0.442 0.032 0 0.148-0.0267 0.329-0.282 0.167-0.236 0.314-0.564 0.433-0.897 0.258-0.727 0.94-1.32 1.79-1.32h0.152c1.12 0 1.66 0.895 1.66 2v5.65s0.887-0.83 1.28-1.26z" clip-rule="evenodd" fill="#000" fill-rule="evenodd"/></svg>
