<svg fill="none" viewBox="0 0 16 16" xmlns="http://www.w3.org/2000/svg"><path d="m14.9 1.16c1.83 1.83 1.28 5.12-0.996 7.39-0.504 0.505-0.997 0.812-1.68 1.04 0.112 0.466 0.306 0.796 0.578 1.01l0.156 0.112c0.0791 0.0522 0.164 0.101 0.275 0.158l0.36 0.178c0.532 0.261 0.864 0.489 1.23 0.911 0.879 1 0.914 2.63-0.0378 3.51-0.95 0.874-2.52 0.61-3.48-0.393-0.341-0.354-0.539-0.816-0.716-1.53l-0.0937-0.406-0.0724-0.339c-0.126-0.589-0.215-0.868-0.312-0.983-0.227-0.269-1.08-0.577-2.48-0.838l-0.0133 4e-3 -0.872 0.873c-0.15 0.15-0.255 0.371-0.362 0.772l-0.107 0.447c-0.215 0.938-0.379 1.38-0.838 1.84-1.26 1.26-3.2 1.48-4.36 0.327-1.15-1.15-0.936-3.09 0.326-4.36 0.427-0.428 0.835-0.602 1.66-0.807l0.421-0.101c0.555-0.135 0.817-0.244 0.974-0.4l0.872-0.873c0.437-0.437 0.606-0.937 0.735-2.13l0.0551-0.573c0.173-1.94 0.438-2.89 1.39-3.84 2.27-2.28 5.56-2.83 7.39-0.998zm-3.65 8.69-0.423 0.0827-0.666 0.113c-0.456 0.0743-0.828 0.145-1.14 0.224 0.93 0.247 1.54 0.538 1.85 0.907 0.203 0.24 0.315 0.52 0.44 1.04l0.192 0.87c0.154 0.683 0.307 1.08 0.519 1.3 0.626 0.649 1.59 0.811 2.09 0.352 0.526-0.484 0.504-1.49-0.0377-2.11-0.229-0.262-0.43-0.416-0.75-0.585l-0.265-0.133c-0.419-0.203-0.612-0.311-0.87-0.512-0.46-0.357-0.768-0.877-0.932-1.54zm-3.04-6.98c-0.796 0.797-0.968 1.85-1.07 2.92l-0.0738 0.803c-0.102 1.05-0.272 2.06-1.03 2.82l-0.872 0.873c-0.817 0.818-2.34 0.597-3.05 1.31-0.903 0.903-1.05 2.22-0.327 2.94 0.722 0.722 2.04 0.576 2.94-0.327 0.711-0.712 0.449-2.2 1.31-3.05l0.872-0.873c1.7-1.7 4.63-0.774 6.29-2.43 1.93-1.93 2.37-4.6 0.996-5.98-1.38-1.38-4.05-0.93-5.98 0.998zm-2.56-2.45c0.26 0.0925 0.396 0.378 0.304 0.639-0.0925 0.26-0.378 0.396-0.639 0.304-0.956-0.34-1.78-0.439-2.49-0.308-1.15 0.214-2.07 1.52-1.8 3.09 0.275 1.58 1.34 3.03 2.17 3.44 0.248 0.122 0.35 0.421 0.228 0.669-0.122 0.248-0.421 0.35-0.669 0.228-1.12-0.549-2.38-2.27-2.71-4.17-0.366-2.11 0.914-3.93 2.6-4.24 0.891-0.166 1.89-0.0457 3 0.349z" fill="#000"/></svg>
