<svg viewBox="0 0 16 16" xmlns="http://www.w3.org/2000/svg"><path d="m5.18 0.324c0.621-0.143 1.96-0.324 2.82-0.324s2.2 0.182 2.82 0.324c0.768 0.148 1.26 0.872 1.16 1.63l-0.309 2.48c-0.0714 0.573-0.464 1.05-1.01 1.24l-0.669 0.187v1.83c1.18 0.637 1.76 2.11 1.16 3.32l-1.17 2.11 0.00815 2.38c0 0.276-0.231 0.5-0.506 0.5s-0.498-0.224-0.498-0.5v-2.5c0-0.0776 0.018-0.154 0.0526-0.224l1.22-2.21c0.369-0.741-0.0497-1.64-0.788-2.01l-0.21-0.106c-0.169-0.0847-0.275-0.258-0.275-0.447v-2.5c0-0.215 0.137-0.406 0.34-0.474l1.02-0.301c0.182-0.0609 0.313-0.221 0.337-0.412l0.309-2.48c0.032-0.257-0.133-0.478-0.364-0.523-0.617-0.142-1.88-0.307-2.64-0.307s-2.02 0.164-2.64 0.307c-0.231 0.0446-0.396 0.266-0.364 0.523l0.309 2.48c0.0238 0.191 0.155 0.351 0.337 0.412l1.02 0.301c0.203 0.0681 0.34 0.259 0.34 0.474v2.5c0 0.189-0.107 0.363-0.275 0.447l-0.21 0.106c-0.738 0.37-1.16 1.27-0.788 2.01l1.22 2.21c0.0346 0.0694 0.0526 0.146 0.0526 0.224v2.5c0 0.276-0.223 0.5-0.498 0.5s-0.506-0.224-0.506-0.5l0.00815-2.38-1.17-2.11c-0.604-1.21-0.0225-2.68 1.16-3.32v-1.83l-0.669-0.187c-0.546-0.183-0.939-0.664-1.01-1.24l-0.309-2.48c-0.0942-0.757 0.396-1.48 1.16-1.63z" fill="#000"/><path d="m15 4.04-2.7 0.907c-0.256 0.086-0.401 0.356-0.331 0.617l0.0161 0.0599c0.0699 0.261 0.331 0.422 0.596 0.369l2.79-0.563c0.408-0.0823 0.662-0.491 0.554-0.892s-0.532-0.629-0.926-0.496z" fill="#000"/><path d="m3.53 5.97-2.78-0.174c-0.406-0.0254-0.749 0.297-0.749 0.703 2.41e-6 0.406 0.343 0.729 0.749 0.703l2.78-0.174c0.264-0.0165 0.469-0.235 0.469-0.499v-0.0606c0-0.264-0.205-0.483-0.469-0.499z" fill="#000"/><path d="m12.6 7.01 2.79 0.563c0.408 0.0823 0.662 0.491 0.554 0.892s-0.532 0.629-0.926 0.496l-2.7-0.907c-0.256-0.086-0.401-0.356-0.331-0.617l0.0161-0.0599c0.0699-0.261 0.331-0.422 0.596-0.369z" fill="#000"/></svg>
