<svg viewBox="0 0 16 16" xmlns="http://www.w3.org/2000/svg"><path d="m7 2v4.69c0 0.045 5e-5 0.0894 9e-5 0.133 5.9e-4 0.569 0.00107 1.05-0.0994 1.43-0.00177 0.00672-0.00356 0.0135-0.00537 0.0204-0.0363 0.138-0.0803 0.305-0.156 0.47-0.076 0.166-0.174 0.308-0.255 0.425-0.00403 0.00586-0.00802 0.0117-0.012 0.0174-0.326 0.474-0.678 0.849-0.995 1.16-0.102 0.102-0.195 0.193-0.282 0.278-0.201 0.197-0.369 0.361-0.533 0.547-0.392 0.446-0.664 0.914-0.664 1.82 0 0.592 0.263 1.03 0.871 1.38 0.663 0.379 1.72 0.618 3.13 0.618s2.47-0.24 3.13-0.618c0.608-0.348 0.871-0.79 0.871-1.38 0-0.909-0.272-1.38-0.664-1.82-0.163-0.186-0.331-0.35-0.532-0.547-0.087-0.085-0.18-0.176-0.282-0.278-0.316-0.316-0.669-0.691-0.995-1.16-0.00394-0.00573-0.00793-0.0115-0.012-0.0174-0.0808-0.117-0.179-0.26-0.255-0.425-0.076-0.166-0.12-0.333-0.156-0.47-0.00181-0.00688-0.00361-0.0137-0.00538-0.0204-0.1-0.381-0.1-0.858-0.0994-1.43 4e-5 -0.0439 9e-5 -0.0883 9e-5 -0.133v-4.69c0-0.367-7.8e-4 -0.581-0.0137-0.74-0.00654-0.0801-0.0146-0.119-0.0181-0.132-0.0225-0.0403-0.0558-0.0736-0.0961-0.0961-0.0137-0.00346-0.0524-0.0116-0.132-0.0181-0.158-0.0129-0.373-0.0137-0.74-0.0137s-0.581 7.8e-4 -0.74 0.0137c-0.0801 0.00654-0.119 0.0146-0.132 0.0181-0.0403 0.0226-0.0736 0.0558-0.0961 0.0961-0.00346 0.0137-0.0116 0.0524-0.0181 0.132-0.0129 0.158-0.0137 0.373-0.0137 0.74zm0.0335-0.878-4.3e-4 0.00132 4.3e-4 -0.00132zm1.84-0.0884-0.00132-4.3e-4 0.00132 4.3e-4zm-2.2-0.897c0.267-0.136 0.617-0.136 1.32-0.136s1.05 0 1.32 0.136c0.235 0.12 0.426 0.311 0.546 0.546 0.136 0.267 0.136 0.617 0.136 1.32v4.69c0 0.703 0 1.05 0.0662 1.31 0.0854 0.324 0.0958 0.346 0.285 0.622 0.351 0.51 0.748 0.899 1.13 1.27 0.805 0.788 1.52 1.49 1.52 3.11 0 2-2 3-5 3s-5-1-5-3c0-1.62 0.718-2.32 1.52-3.11 0.378-0.37 0.774-0.758 1.13-1.27 0.19-0.276 0.2-0.299 0.285-0.622 0.0662-0.251 0.0662-0.602 0.0662-1.31v-4.69c0-0.7 0-1.05 0.136-1.32 0.12-0.235 0.311-0.426 0.546-0.546z" clip-rule="evenodd" fill="#000" fill-rule="evenodd"/><path d="m5 1c0 0.552-0.448 1-1 1s-1-0.448-1-1c0-0.552 0.448-1 1-1s1 0.448 1 1z" fill="#000"/><path d="m4 5c0.552 0 1-0.448 1-1s-0.448-1-1-1-1 0.448-1 1 0.448 1 1 1z" fill="#000"/><path d="m6.5 12c-0.276 0-0.5 0.224-0.5 0.5s0.224 0.5 0.5 0.5h3c0.276 0 0.5-0.224 0.5-0.5s-0.224-0.5-0.5-0.5h-3z" fill="#000"/><path d="m4 8c0.552 0 1-0.448 1-1s-0.448-1-1-1-1 0.448-1 1 0.448 1 1 1z" fill="#000"/></svg>
