<svg fill="none" viewBox="0 0 16 16" xmlns="http://www.w3.org/2000/svg"><path d="m8 3c4.55 0 6.88 1.06 7 2.4l0.0044 0.103v5c0 1.54-3.12 2.5-7 2.5s-7-0.961-7-2.5v-5c0-1.38 2.33-2.5 7-2.5zm6 3.91c-0.281 0.169-0.621 0.323-1.02 0.459 0.0128 0.0421 0.0193 0.0875 0.0193 0.134v1c0 0.276-0.224 0.5-0.5 0.5s-0.5-0.224-0.5-0.5l0.0012-0.865c-0.584 0.128-1.25 0.227-2.01 0.289 0.00484 0.0247 0.00686 0.0505 0.00686 0.0768v1c0 0.276-0.224 0.5-0.5 0.5s-0.5-0.224-0.5-0.5v-1l0.00273-0.0182c-0.321 0.012-0.656 0.0182-1 0.0182-0.347 0-0.681-0.00618-1-0.0182l0.00174 0.0182v1c0 0.276-0.224 0.5-0.5 0.5s-0.5-0.224-0.5-0.5v-1l0.00686-0.0768c-0.754-0.0621-1.42-0.16-2.01-0.288l1.8e-4 0.865c0 0.276-0.224 0.5-0.5 0.5s-0.5-0.224-0.5-0.5v-1c0-0.0469 0.00646-0.0923 0.0186-0.135-0.398-0.135-0.738-0.289-1.02-0.457l1.2e-4 3.59c0 0.67 2.7 1.5 6 1.5 3.3 0 6-0.83 6-1.5l1e-3 -3.59zm-6-2.91c-3.88 0-6 0.823-6 1.5s2.12 1.5 6 1.5c3.88 0 6-0.823 6-1.5s-2.12-1.5-6-1.5z" fill="#000"/></svg>
