<svg fill="none" viewBox="0 0 16 16" xmlns="http://www.w3.org/2000/svg"><path d="m1.64 14.7c0.642 0.327 1.48 0.327 3.16 0.327h6.4c1.68 0 2.52 0 3.16-0.327 0.564-0.288 1.02-0.746 1.31-1.31 0.327-0.642 0.327-1.48 0.327-3.16v-4.4c0-1.68 0-2.52-0.327-3.16-0.288-0.564-0.746-1.02-1.31-1.31-0.642-0.327-1.48-0.327-3.16-0.327h-6.4c-1.68 0-2.52 0-3.16 0.327-0.564 0.288-1.02 0.747-1.31 1.31-0.327 0.642-0.327 1.48-0.327 3.16v4.4c0 1.68 0 2.52 0.327 3.16 0.288 0.564 0.747 1.02 1.31 1.31zm-0.638-8.67v4.2c0 0.857 7.8e-4 1.44 0.0376 1.89 0.0358 0.438 0.101 0.663 0.18 0.819 0.192 0.376 0.498 0.682 0.874 0.874 0.156 0.0797 0.381 0.145 0.819 0.18 0.45 0.0368 1.03 0.0376 1.89 0.0376h0.2v-3.01c-0.164-0.0084-0.281-0.0272-0.383-0.0694-0.245-0.102-0.44-0.296-0.541-0.541-0.0761-0.184-0.0761-0.417-0.0761-0.883v-3c0-0.207 0-0.369 0.00672-0.5h-3.01zm5 4.99v3.01h4v-3.01c-0.164-0.0084-0.281-0.0272-0.383-0.0694-0.245-0.102-0.44-0.296-0.541-0.541-0.0761-0.184-0.0761-0.417-0.0761-0.883v-3c0-0.207 0-0.369 0.00672-0.5h-2.01c0.00672 0.131 0.00672 0.293 0.00672 0.5v3c0 0.466 0 0.699-0.0761 0.883-0.101 0.245-0.296 0.44-0.541 0.541-0.102 0.0422-0.219 0.061-0.383 0.0694zm5 0v3.01h0.2c0.857 0 1.44-8e-4 1.89-0.0376 0.438-0.0358 0.663-0.101 0.819-0.18 0.376-0.192 0.682-0.498 0.874-0.874 0.0797-0.156 0.145-0.381 0.18-0.819 0.0368-0.45 0.0376-1.03 0.0376-1.89v-4.2h-3.01c0.0067 0.131 0.0067 0.293 0.0067 0.5v3c0 0.466 0 0.699-0.0761 0.883-0.102 0.245-0.296 0.44-0.541 0.541-0.102 0.0422-0.219 0.061-0.383 0.0694zm-7.5-5.99c0.828 0 1.5-0.672 1.5-1.5s-0.672-1.5-1.5-1.5-1.5 0.672-1.5 1.5 0.672 1.5 1.5 1.5zm5.5-1.5c0 0.828-0.672 1.5-1.5 1.5s-1.5-0.672-1.5-1.5 0.672-1.5 1.5-1.5 1.5 0.672 1.5 1.5zm1.05-1.23c-0.0545 0.107-0.0545 0.247-0.0545 0.527v1.4c0 0.28 0 0.42 0.0545 0.527 0.0479 0.0941 0.124 0.171 0.218 0.218 0.107 0.0545 0.247 0.0545 0.527 0.0545h2.4c0.28 0 0.42 0 0.527-0.0545 0.0941-0.0479 0.171-0.124 0.218-0.218 0.0545-0.107 0.0545-0.247 0.0545-0.527v-1.4c0-0.28 0-0.42-0.0545-0.527-0.0479-0.0941-0.124-0.171-0.218-0.218-0.107-0.0545-0.247-0.0545-0.527-0.0545h-2.4c-0.28 0-0.42 0-0.527 0.0545-0.0941 0.0479-0.171 0.124-0.218 0.218z" clip-rule="evenodd" fill="#000" fill-rule="evenodd"/></svg>
