<svg fill="none" viewBox="0 0 16 16" xmlns="http://www.w3.org/2000/svg"><path d="m11 0.5c1.38 0 2.5 1.12 2.5 2.5 0 0.602-0.212 1.15-0.566 1.58 0.2 0.288 0.375 0.594 0.523 0.916l0.0434-0.0013c1.38 0 2.5 1.12 2.5 2.5s-1.12 2.5-2.5 2.5l-0.0434-0.0013c-0.148 0.322-0.323 0.628-0.523 0.917 0.354 0.431 0.566 0.983 0.566 1.58 0 1.38-1.12 2.5-2.5 2.5-1.04 0-1.93-0.636-2.31-1.54-0.227 0.0261-0.457 0.0395-0.691 0.0395s-0.465-0.0134-0.692-0.0394c-0.376 0.904-1.27 1.54-2.31 1.54-1.38 0-2.5-1.12-2.5-2.5 0-0.602 0.212-1.15 0.566-1.58-0.2-0.288-0.375-0.594-0.523-0.916l-0.0434 0.0013c-1.38 0-2.5-1.12-2.5-2.5s1.12-2.5 2.5-2.5l0.0434 0.0013c0.148-0.322 0.323-0.628 0.523-0.917-0.354-0.431-0.566-0.983-0.566-1.58 0-1.38 1.12-2.5 2.5-2.5 1.04 0 1.93 0.636 2.31 1.54 0.227-0.0262 0.457-0.0395 0.691-0.0395s0.465 0.0134 0.692 0.0394c0.376-0.904 1.27-1.54 2.31-1.54zm1.27 11.7-0.0321 0.0336c-0.698 0.698-1.57 1.22-2.54 1.51 0.258 0.446 0.742 0.746 1.29 0.746 0.828 0 1.5-0.672 1.5-1.5 0-0.29-0.0825-0.561-0.225-0.791zm-8.55 9e-4 -0.0637 0.113c-0.103 0.204-0.161 0.434-0.161 0.677 0 0.828 0.672 1.5 1.5 1.5 0.553 0 1.04-0.3 1.3-0.746-0.988-0.292-1.87-0.831-2.57-1.54zm4.28-9.21c-0.169 0-0.336 0.00838-0.501 0.0248l7e-4 -0.0248c0 1.38-1.12 2.5-2.5 2.5-0.417 0-0.809-0.102-1.15-0.282-0.11 0.164-0.211 0.334-0.301 0.512 0.86 0.395 1.46 1.26 1.46 2.27s-0.596 1.88-1.45 2.27c0.0887 0.176 0.189 0.347 0.299 0.511 0.345-0.181 0.738-0.283 1.15-0.283 1.37 0 2.49 1.11 2.5 2.47 0.164 0.0177 0.331 0.0261 0.5 0.0261 0.169 0 0.337-0.0084 0.502-0.0249l-0.0017 0.0249c0-1.38 1.12-2.5 2.5-2.5 0.417 0 0.809 0.102 1.15 0.282 0.11-0.164 0.211-0.334 0.301-0.512-0.86-0.395-1.46-1.26-1.46-2.27s0.596-1.88 1.45-2.27c-0.0887-0.176-0.189-0.347-0.3-0.511-0.345 0.181-0.738 0.283-1.15 0.283-1.37 0-2.49-1.11-2.5-2.47-0.163-0.0178-0.331-0.0262-0.5-0.0262zm3 8.5c-0.748 0-1.37 0.547-1.48 1.26 0.75-0.237 1.42-0.647 1.97-1.18-0.154-0.0537-0.318-0.0822-0.488-0.0822zm-6 0c-0.171 0-0.335 0.0285-0.488 0.0811 0.548 0.536 1.22 0.945 1.97 1.18-0.111-0.717-0.732-1.26-1.48-1.26zm8.82-4.97 0.0359 0.151c0.0946 0.423 0.145 0.864 0.145 1.32 0 0.505-0.0625 0.996-0.18 1.46 0.674-0.145 1.18-0.746 1.18-1.46s-0.506-1.32-1.18-1.47zm-11.6 0.00105-0.101 0.0248c-0.623 0.182-1.08 0.758-1.08 1.44 0 0.719 0.506 1.32 1.18 1.47-0.118-0.47-0.18-0.961-0.18-1.47s0.0625-0.996 0.18-1.46zm10.6 0.128-0.115 0.0649c-0.423 0.265-0.704 0.736-0.704 1.27 0 0.583 0.333 1.09 0.819 1.34 0.118-0.426 0.181-0.874 0.181-1.34s-0.0629-0.911-0.181-1.34zm-9.64-1.6e-4 -0.0206 0.0745c-0.105 0.403-0.161 0.826-0.161 1.26 0 0.463 0.0629 0.911 0.181 1.34 0.487-0.248 0.819-0.753 0.819-1.34s-0.333-1.09-0.819-1.34zm6.34-3.43 0.00645 0.0496c0.133 0.692 0.742 1.21 1.47 1.21 0.171 0 0.335-0.0285 0.488-0.0811-0.548-0.536-1.22-0.945-1.97-1.18zm-3.04 0.00124-0.14 0.045c-0.692 0.243-1.31 0.635-1.83 1.14 0.153 0.0537 0.318 0.0822 0.488 0.0822 0.748 0 1.37-0.547 1.48-1.26zm4.52-1.74c-0.553 0-1.04 0.3-1.3 0.746 0.988 0.292 1.87 0.831 2.57 1.54 0.142-0.229 0.225-0.5 0.225-0.79 0-0.828-0.672-1.5-1.5-1.5zm-6 0c-0.828 0-1.5 0.672-1.5 1.5 0 0.29 0.0825 0.561 0.225 0.791 0.703-0.715 1.58-1.25 2.57-1.55-0.258-0.446-0.742-0.746-1.29-0.746z" fill="#000"/></svg>
