<svg fill="none" viewBox="0 0 16 16" xmlns="http://www.w3.org/2000/svg"><path d="m14 2.5c0-0.192-0.11-0.367-0.283-0.451s-0.379-0.0598-0.529 0.0602c0 0-0.682 0.607-1.57 1.2-0.884 0.592-2.34 0.943-3.52 1.11-0.592 0.0811-1.67 0.19-2.73 0.297-1.06 0.107-2.11 0.213-2.65 0.289-1.64 0.23-2.71 1.34-2.71 3s1.34 3 3 3h11c0.552 0 1 0.448 1 1s-0.448 1-1 1h-4v-1c0-0.276-0.224-0.5-0.5-0.5s-0.5 0.224-0.5 0.5v1h-1v-1c0-0.276-0.224-0.5-0.5-0.5s-0.5 0.224-0.5 0.5v1h-1.5c-0.276 0-0.5 0.224-0.5 0.5s0.224 0.5 0.5 0.5h8.5c1.1 0 2-0.895 2-2s-0.895-2-2-2h-7v-2.5c0-0.276-0.224-0.5-0.5-0.5s-0.5 0.224-0.5 0.5v2.5h-1v-2.5c0-0.276-0.224-0.5-0.5-0.5s-0.5 0.224-0.5 0.5v2.5h-1c-1.1 0-2-0.895-2-2s0.895-1.84 2-1.84 6.28 0.62 6.28 0.62c0.991 0.132 1.93 0.532 2.71 1.16l1.2 0.958c0.15 0.12 0.356 0.143 0.529 0.0602s0.283-0.258 0.283-0.451v-6zm-1.39 1.35 0.386-0.308v3.92l-0.386-0.308c-0.923-0.738-2.03-1.12-3.2-1.27l-3.41-0.38 3.41-0.38c1.17-0.156 2.28-0.533 3.2-1.27z" clip-rule="evenodd" fill="#000" fill-rule="evenodd"/></svg>
