<svg viewBox="0 0 16 16" xmlns="http://www.w3.org/2000/svg"><path d="m8.28 2.59c-0.195-0.135-0.464-0.116-0.638 0.0578l-3 3-0.0579 0.0692c-0.135 0.195-0.116 0.464 0.0579 0.638l0.0692 0.0578c0.195 0.135 0.464 0.116 0.638-0.0578l2.65-2.65 2.65 2.65 0.0693 0.0578c0.195 0.135 0.464 0.116 0.638-0.0578 0.195-0.195 0.195-0.512 0-0.707l-3-3-0.0692-0.0578z" fill="#000"/><path d="m7.72 13.4c0.195 0.135 0.464 0.116 0.638-0.0579l3-3 0.0578-0.0693c0.135-0.195 0.116-0.464-0.0578-0.638l-0.0693-0.0578c-0.195-0.135-0.464-0.116-0.638 0.0578l-2.65 2.65-2.65-2.65-0.0692-0.0578c-0.195-0.135-0.464-0.116-0.638 0.0578-0.195 0.195-0.195 0.512 0 0.707l3 3 0.0692 0.0579z" fill="#000"/></svg>
