<svg fill="none" viewBox="0 0 16 16" xmlns="http://www.w3.org/2000/svg"><path d="m2 1.61 1e-5 8.06c0.0969-0.0438 0.202-0.0888 0.314-0.134 0.665-0.266 1.6-0.536 2.69-0.536 1.38 0 2.36 0.557 3.22 1.05l0.026 0.0149c0.879 0.502 1.65 0.934 2.75 0.934 0.963 0 1.79-0.121 2.36-0.291 0.287-0.0862 0.483-0.178 0.596-0.254 0.0204-0.014 0.0358-0.0257 0.0472-0.0351v-8.3c-0.105 0.0468-0.221 0.107-0.361 0.179-0.0867 0.0448-0.182 0.0943-0.291 0.148-0.547 0.273-1.25 0.553-2.35 0.553-1.38 0-2.36-0.557-3.22-1.05l-0.026-0.0148c-0.879-0.502-1.65-0.934-2.75-0.934-0.78 0-1.61 0.119-2.23 0.294-0.315 0.0882-0.552 0.184-0.699 0.27-0.0294 0.0173-0.0518 0.0322-0.0685 0.0444zm-1-0.108c-5.5e-5 -0.224 0.105-0.399 0.207-0.516 0.102-0.116 0.23-0.209 0.355-0.282 0.252-0.148 0.581-0.271 0.935-0.371 0.715-0.2 1.64-0.331 2.5-0.331 1.38 0 2.36 0.557 3.22 1.05l0.026 0.0148c0.879 0.502 1.65 0.934 2.75 0.934 0.9 0 1.45-0.221 1.9-0.447 0.0672-0.0336 0.137-0.0704 0.209-0.109 0.384-0.203 0.84-0.444 1.39-0.444 0.276 0 0.5 0.224 0.5 0.5v9c1e-4 0.384-0.277 0.64-0.484 0.78-0.231 0.157-0.535 0.285-0.872 0.386-0.682 0.205-1.61 0.334-2.64 0.334-1.38 0-2.36-0.557-3.22-1.05l-0.026-0.0149c-0.879-0.502-1.65-0.934-2.75-0.934-0.919 0-1.73 0.23-2.31 0.464-0.291 0.117-0.523 0.233-0.681 0.318l-0.00505 0.0028v4.71c0 0.276-0.224 0.5-0.5 0.5s-0.5-0.224-0.5-0.5v-14z" clip-rule="evenodd" fill="#000" fill-rule="evenodd"/></svg>
