<svg viewBox="0 0 16 16" xmlns="http://www.w3.org/2000/svg"><path d="m15 8.5c0 0.276-0.224 0.5-0.5 0.5h-9.79l4.15 4.15c0.195 0.195 0.195 0.512 0 0.707-0.195 0.195-0.512 0.195-0.707 0l-5-5c-0.195-0.195-0.195-0.512 0-0.707l5-5c0.195-0.195 0.512-0.195 0.707 0 0.195 0.195 0.195 0.512 0 0.707l-4.15 4.15h9.79c0.276 0 0.5 0.224 0.5 0.5z" fill="#000"/><path d="m1 4.5c0-0.276-0.224-0.5-0.5-0.5s-0.5 0.224-0.5 0.5l-3.5e-7 8c-1.2e-8 0.276 0.224 0.5 0.5 0.5 0.276 0 0.5-0.224 0.5-0.5v-8z" fill="#000"/></svg>
