<svg xmlns="http://www.w3.org/2000/svg" viewBox="0 0 16 16" fill="none">
  <path fill="#000"
    d="m14 8.603.165.397H10.5a.5.5 0 0 0 0 1h5a.5.5 0 0 0 .5-.5v-5a.5.5 0 0 0-.5-.5l-.09.008A.5.5 0 0 0 15 4.5v3.893l-.048-.109a3.978 3.978 0 0 0-.026-.06l-.065-.144-.095-.196a10.281 10.281 0 0 0-1.519-2.218C11.752 4.006 9.843 3 7.5 3 3.957 3 1.443 4.796.036 8.315a.5.5 0 1 0 .928.371C2.224 5.538 4.376 4 7.5 4c2.032 0 3.685.87 5.003 2.335a9.294 9.294 0 0 1 1.4 2.06l.097.208ZM7.5 16a1.5 1.5 0 1 0 0-3 1.5 1.5 0 0 0 0 3Z" />
</svg>