<svg xmlns="http://www.w3.org/2000/svg" viewBox="0 0 16 16" fill="none">
  <path fill="#000" fill-rule="evenodd"
    d="M4.5 2a2.5 2.5 0 1 0 0 5h1a.5.5 0 0 1 .5.5v1a.5.5 0 0 1-.5.5h-1A2.5 2.5 0 1 0 7 11.5v-1a.5.5 0 0 1 .5-.5h1a.5.5 0 0 1 .5.5v1A2.5 2.5 0 1 0 11.5 9h-1a.5.5 0 0 1-.5-.5v-1a.5.5 0 0 1 .5-.5h1A2.5 2.5 0 1 0 9 4.5v1a.5.5 0 0 1-.5.5h-1a.5.5 0 0 1-.5-.5v-1A2.5 2.5 0 0 0 4.5 2ZM9 7.5a.5.5 0 0 0-.5-.5h-1a.5.5 0 0 0-.5.5v1a.5.5 0 0 0 .5.5h1a.5.5 0 0 0 .5-.5v-1Zm-3-3v1a.5.5 0 0 1-.5.5h-1A1.5 1.5 0 1 1 6 4.5ZM11.5 6h-1a.5.5 0 0 1-.5-.5v-1A1.5 1.5 0 1 1 11.5 6ZM6 11.5v-1a.5.5 0 0 0-.5-.5h-1A1.5 1.5 0 1 0 6 11.5Zm5.5-1.5h-1a.5.5 0 0 0-.5.5v1a1.5 1.5 0 1 0 1.5-1.5Z"
    clip-rule="evenodd" />
</svg>