<svg xmlns="http://www.w3.org/2000/svg" viewBox="0 0 16 16" fill="none">
  <path fill="#000"
    d="M12 4.5a.5.5 0 0 1 1 0v1.634a.866.866 0 0 1-.866.866H3.707l1.146 1.146a.5.5 0 1 1-.707.708l-2-2a.5.5 0 0 1 0-.707l2-2a.5.5 0 0 1 .707.707L3.707 6H12V4.5ZM14.5 2h-13a.5.5 0 0 0-.5.5v8a.5.5 0 0 0 .5.5H7a1 1 0 0 1 1 1v1.5a.5.5 0 0 0 .5.5h6a.5.5 0 0 0 .5-.5v-11a.5.5 0 0 0-.5-.5Zm0-1A1.5 1.5 0 0 1 16 2.5v11a1.5 1.5 0 0 1-1.5 1.5h-6A1.5 1.5 0 0 1 7 13.5V12H1.5A1.5 1.5 0 0 1 0 10.5v-8A1.5 1.5 0 0 1 1.5 1h13Z" />
</svg>