<svg fill="none" viewBox="0 0 16 16" xmlns="http://www.w3.org/2000/svg"><path d="m8 0.5c0.137 0 0.268 0.0564 0.363 0.156l5.36 5.66c0.604 0.637 0.152 1.69-0.726 1.69h-1.75c-0.138 0-0.25 0.112-0.25 0.25v4.25c0 0.828-0.672 1.5-1.5 1.5h-3c-0.828 0-1.5-0.672-1.5-1.5v-4.25c0-0.138-0.112-0.25-0.25-0.25h-1.75c-0.878 0-1.33-1.05-0.726-1.69l5.36-5.66c0.0944-0.0996 0.226-0.156 0.363-0.156zm0.181 1.42c-0.0986-0.104-0.264-0.104-0.363 0l-4.82 5.08h2c0.552 0 1 0.448 1 1v4.5c0 0.276 0.224 0.5 0.5 0.5h3c0.276 0 0.5-0.224 0.5-0.5v-4.5c0-0.552 0.448-1 1-1h2l-4.82-5.08z" clip-rule="evenodd" fill="#000" fill-rule="evenodd"/></svg>
