<svg xmlns="http://www.w3.org/2000/svg" viewBox="0 0 16 16" fill="none">
  <path fill="#000"
    d="M14.263 10.56a.5.5 0 1 1 .474.88l-6.5 3.5a.5.5 0 0 1-.474 0l-6.5-3.5a.501.501 0 1 1 .474-.88L8 13.932l6.263-3.372Zm.677-2.797a.5.5 0 0 1-.203.677l-6.5 3.5a.5.5 0 0 1-.474 0l-6.5-3.5a.5.5 0 1 1 .474-.88L8 10.932l6.263-3.372a.5.5 0 0 1 .677.203ZM8.237 1.06l6.5 3.5a.5.5 0 0 1 0 .88l-6.5 3.5a.5.5 0 0 1-.474 0l-6.5-3.5a.5.5 0 0 1 0-.88l6.5-3.5a.5.5 0 0 1 .474 0ZM8 2.068 2.555 5 8 7.932 13.446 5 8 2.068Z" />
</svg>