<svg viewBox="0 0 16 16" xmlns="http://www.w3.org/2000/svg"><path d="m7 4c0-0.139 0-0.209 0.00815-0.267 0.0525-0.376 0.348-0.672 0.724-0.724 0.0584-0.00816 0.128-0.00816 0.267-0.00816s0.209 0 0.267 0.00816c0.376 0.0525 0.672 0.348 0.724 0.724 0.00815 0.0584 0.00815 0.128 0.00815 0.267 0 0.139 0 0.209-0.00815 0.267-0.0525 0.376-0.348 0.672-0.724 0.724-0.0584 0.00815-0.128 0.00815-0.267 0.00815s-0.209 0-0.267-0.00815c-0.376-0.0525-0.672-0.348-0.724-0.724-0.00815-0.0584-0.00815-0.128-0.00815-0.267z" fill="#000"/><path d="m7 8c0-0.139 0-0.209 0.00815-0.267 0.0525-0.376 0.348-0.672 0.724-0.724 0.0584-0.00816 0.128-0.00816 0.267-0.00816s0.209 0 0.267 0.00816c0.376 0.0525 0.672 0.348 0.724 0.724 0.00815 0.0584 0.00815 0.128 0.00815 0.267 0 0.139 0 0.209-0.00815 0.267-0.0525 0.376-0.348 0.672-0.724 0.724-0.0584 0.00815-0.128 0.00815-0.267 0.00815s-0.209 0-0.267-0.00815c-0.376-0.0525-0.672-0.348-0.724-0.724-0.00815-0.0584-0.00815-0.128-0.00815-0.267z" fill="#000"/><path d="m7 12c0-0.139 0-0.209 0.00815-0.267 0.0525-0.376 0.348-0.672 0.724-0.724 0.0584-0.0082 0.128-0.0082 0.267-0.0082s0.209 0 0.267 0.0082c0.376 0.0525 0.672 0.348 0.724 0.724 0.00815 0.0584 0.00815 0.128 0.00815 0.267 0 0.139 0 0.209-0.00815 0.268-0.0525 0.376-0.348 0.672-0.724 0.724-0.0584 0.0081-0.128 0.0081-0.267 0.0081s-0.209 0-0.267-0.0081c-0.376-0.0525-0.672-0.348-0.724-0.724-0.00815-0.0585-0.00815-0.128-0.00815-0.268z" fill="#000"/></svg>
