<svg xmlns="http://www.w3.org/2000/svg" viewBox="0 0 16 16" fill="none">
  <path fill="#000" fill-rule="evenodd"
    d="M2.5 1A1.5 1.5 0 0 0 1 2.5v2a.5.5 0 0 1-1 0v-2A2.5 2.5 0 0 1 2.5 0h2a.5.5 0 0 1 0 1h-2ZM9 .5a.5.5 0 0 1 .5-.5h2A2.5 2.5 0 0 1 14 2.5v2a.5.5 0 0 1-1 0v-2A1.5 1.5 0 0 0 11.5 1h-2A.5.5 0 0 1 9 .5ZM.5 9a.5.5 0 0 1 .5.5v2A1.5 1.5 0 0 0 2.5 13h2a.5.5 0 0 1 0 1h-2A2.5 2.5 0 0 1 0 11.5v-2A.5.5 0 0 1 .5 9Zm8.38-3.825A.5.5 0 0 0 8 5.5v9a.5.5 0 0 0 .812.39l1.97-1.575.848 2.355a.5.5 0 0 0 .94-.339l-.839-2.33H14.5a.5.5 0 0 0 .38-.826l-6-7ZM11.032 12h2.38L9 6.852v6.608l1.688-1.35A.5.5 0 0 1 11 12h.032Z"
    clip-rule="evenodd" />
</svg>