<svg viewBox="0 0 24 24" xmlns="http://www.w3.org/2000/svg"><path d="m16.3 0.0473c0.181 0.101 0.246 0.329 0.146 0.51l-0.955 1.72c1.34 0.826 2.28 2.24 2.47 3.89 0.0253 0.225 0.0312 0.778 0.0326 1.34 7e-4 0.276-0.224 0.5-0.5 0.5h-11c-0.276 0-0.5-0.224-0.5-0.5 0.00136-0.56 0.00723-1.11 0.0326-1.34 0.186-1.65 1.13-3.06 2.47-3.89l-0.955-1.72c-0.101-0.181-0.0354-0.409 0.146-0.51 0.181-0.101 0.409-0.0354 0.51 0.146l0.965 1.74c0.0279-0.0121 0.056-0.0239 0.0841-0.0355 0.443-0.182 0.916-0.306 1.41-0.361 0.293-0.033 0.641-0.033 1.34-0.033 0.696 0 1.04 0 1.34 0.033 0.526 0.0592 1.03 0.195 1.49 0.397l0.965-1.74c0.101-0.181 0.329-0.246 0.51-0.146zm-6.56 4.45c0 0.414-0.336 0.75-0.75 0.75s-0.75-0.336-0.75-0.75c0-0.414 0.336-0.75 0.75-0.75s0.75 0.336 0.75 0.75zm5.25 0.75c0.414 0 0.75-0.336 0.75-0.75 0-0.414-0.336-0.75-0.75-0.75s-0.75 0.336-0.75 0.75c0 0.414 0.336 0.75 0.75 0.75z" clip-rule="evenodd" fill="#000" fill-rule="evenodd"/><path d="m6.5 9c-0.276 0-0.5 0.224-0.5 0.5v7.5c0 1.1 0.895 2 2 2v3.5c0 0.828 0.672 1.5 1.5 1.5 0.828 0 1.5-0.672 1.5-1.5v-3.5h2v3.5c0 0.828 0.672 1.5 1.5 1.5s1.5-0.672 1.5-1.5v-3.5c1.1 0 2-0.895 2-2v-7.5c0-0.276-0.224-0.5-0.5-0.5h-11z" fill="#000"/><path d="m3.5 7c-0.828 0-1.5 0.672-1.5 1.5v6c0 0.828 0.672 1.5 1.5 1.5s1.5-0.672 1.5-1.5v-6c0-0.828-0.672-1.5-1.5-1.5z" fill="#000"/><path d="m19 8.5c0-0.828 0.672-1.5 1.5-1.5s1.5 0.672 1.5 1.5v6c0 0.828-0.672 1.5-1.5 1.5s-1.5-0.672-1.5-1.5v-6z" fill="#000"/></svg>
