<svg viewBox="0 0 24 24" xmlns="http://www.w3.org/2000/svg"><path d="m10.2 5.5c0 0.414-0.336 0.75-0.75 0.75s-0.75-0.336-0.75-0.75 0.336-0.75 0.75-0.75 0.75 0.336 0.75 0.75z" fill="#000"/><path d="m14.5 6.25c0.414 0 0.75-0.336 0.75-0.75s-0.336-0.75-0.75-0.75-0.75 0.336-0.75 0.75 0.336 0.75 0.75 0.75z" fill="#000"/><path d="m8.28 0.0528c0.247-0.123 0.547-0.0234 0.671 0.224l0.916 1.83c0.368-0.0706 0.748-0.108 1.14-0.108h2c0.389 0 0.769 0.037 1.14 0.108l0.916-1.83c0.124-0.247 0.424-0.347 0.671-0.224 0.247 0.123 0.347 0.424 0.224 0.671l-0.83 1.66c2.06 0.776 3.58 2.65 3.84 4.91 0.303-0.185 0.66-0.292 1.04-0.292 1.1 0 2 0.895 2 2v5c0 1.1-0.895 2-2 2-0.364 0-0.706-0.0974-1-0.268v1.27c0 1.66-1.34 3-3 3v2c0 1.1-0.895 2-2 2s-2-0.895-2-2c0 1.1-0.895 2-2 2-1.1 0-2-0.895-2-2v-2c-1.66 0-3-1.34-3-3v-1.27c-0.294 0.17-0.636 0.268-1 0.268-1.1 0-2-0.895-2-2v-5c0-1.1 0.895-2 2-2 0.381 0 0.738 0.107 1.04 0.292 0.265-2.26 1.78-4.13 3.84-4.91l-0.83-1.66c-0.123-0.247-0.0234-0.547 0.224-0.671zm-3.28 8.95v5c0 0.552-0.448 1-1 1s-1-0.448-1-1v-5c0-0.552 0.448-1 1-1s1 0.448 1 1zm3 10h0.5c0.276 0 0.5 0.224 0.5 0.5v2.5c0 0.552 0.448 1 1 1 0.552 0 1-0.448 1-1v-2.5c0-0.276 0.224-0.5 0.5-0.5h1c0.276 0 0.5 0.224 0.5 0.5v2.5c0 0.552 0.448 1 1 1s1-0.448 1-1v-2.5c0-0.276 0.224-0.5 0.5-0.5h0.5c1.1 0 2-0.895 2-2v-6.5c0-0.276-0.224-0.5-0.5-0.5h-11c-0.276 0-0.5 0.224-0.5 0.5v6.5c0 1.1 0.895 2 2 2zm-2-11c0-2.76 2.24-5 5-5h2c2.76 0 5 2.24 5 5v0.5c0 0.276-0.224 0.5-0.5 0.5h-11c-0.276 0-0.5-0.224-0.5-0.5v-0.5zm13 1c0-0.552 0.448-1 1-1s1 0.448 1 1v5c0 0.552-0.448 1-1 1s-1-0.448-1-1v-5z" clip-rule="evenodd" fill="#000" fill-rule="evenodd"/></svg>
