<svg fill="none" viewBox="0 0 24 24" xmlns="http://www.w3.org/2000/svg"><path d="m20.3 4.51c-1.58-0.714-3.24-1.22-4.95-1.51-0.234 0.414-0.446 0.84-0.634 1.28-1.82-0.272-3.67-0.272-5.49 0-0.189-0.436-0.4-0.862-0.634-1.28-1.71 0.289-3.38 0.797-4.96 1.51-3.13 4.59-3.98 9.06-3.56 13.5 1.84 1.34 3.89 2.36 6.07 3.02 0.492-0.654 0.927-1.35 1.3-2.08-0.71-0.262-1.4-0.586-2.05-0.968 0.172-0.123 0.34-0.25 0.502-0.374 1.9 0.884 3.97 1.34 6.07 1.34 2.1 0 4.17-0.458 6.07-1.34 0.164 0.133 0.332 0.26 0.502 0.374-0.654 0.382-1.34 0.706-2.05 0.97 0.373 0.726 0.808 1.42 1.3 2.07 2.19-0.652 4.24-1.67 6.08-3.01 0.498-5.11-0.851-9.55-3.57-13.5zm-12.3 10.8c-1.18 0-2.16-1.06-2.16-2.37s0.944-2.38 2.16-2.38c1.21 0 2.18 1.07 2.16 2.38-0.0208 1.31-0.953 2.37-2.16 2.37zm7.97 0c-1.19 0-2.16-1.06-2.16-2.37s0.944-2.38 2.16-2.38c1.22 0 2.18 1.07 2.16 2.38-0.0208 1.31-0.951 2.37-2.16 2.37z" fill="#000"/></svg>
