<svg fill="none" viewBox="0 0 24 24" xmlns="http://www.w3.org/2000/svg"><path d="m20 4.47c0.165 0.0748 0.307 0.193 0.41 0.342 2.61 3.78 3.92 8.08 3.44 13-0.0276 0.284-0.175 0.542-0.405 0.71-1.77 1.3-3.76 2.28-5.87 2.91-0.401 0.12-0.833-0.0227-1.08-0.357-0.452-0.6-0.856-1.24-1.21-1.9-1.09 0.262-2.21 0.396-3.33 0.396-1.13 0-2.25-0.134-3.33-0.397-0.351 0.663-0.754 1.3-1.21 1.9-0.252 0.335-0.685 0.478-1.09 0.357-2.11-0.633-4.1-1.62-5.87-2.92-0.23-0.168-0.378-0.427-0.405-0.711-0.41-4.26 0.418-8.6 3.43-13 0.103-0.151 0.246-0.271 0.413-0.347 1.53-0.691 3.14-1.18 4.79-1.46 0.415-0.0701 0.83 0.128 1.04 0.494 0.107 0.19 0.21 0.382 0.308 0.577 1.28-0.137 2.57-0.137 3.84 0 0.0979-0.195 0.2-0.387 0.308-0.577 0.207-0.366 0.621-0.564 1.04-0.494 1.65 0.277 3.26 0.767 4.79 1.46zm-5.53 0.699c-1.67-0.249-3.37-0.249-5.04 0-0.173-0.4-0.367-0.79-0.581-1.17-1.57 0.265-3.1 0.73-4.54 1.39-2.87 4.21-3.65 8.31-3.26 12.3 1.68 1.23 3.56 2.17 5.57 2.77 0.248-0.33 0.48-0.67 0.695-1.02 0.112-0.182 0.22-0.367 0.323-0.554 0.0596-0.108 0.118-0.218 0.174-0.327-0.303-0.112-0.601-0.236-0.893-0.372-0.0109-5e-3 -0.0218-0.0101-0.0327-0.0152-0.242-0.113-0.48-0.235-0.714-0.364-0.0798-0.0442-0.159-0.0893-0.238-0.135 0.157-0.113 0.311-0.23 0.46-0.342 0.532 0.248 1.08 0.459 1.64 0.633 0.23 0.0717 0.462 0.137 0.696 0.196 1.05 0.266 2.14 0.401 3.23 0.401 1.09 0 2.18-0.135 3.23-0.401 0.233-0.0588 0.465-0.124 0.695-0.196 0.56-0.174 1.11-0.386 1.64-0.634 0.151 0.122 0.305 0.238 0.46 0.342-0.0788 0.046-0.158 0.0911-0.238 0.135-0.235 0.13-0.474 0.252-0.717 0.366-0.0106 0.0049-0.0212 0.0099-0.0318 0.0148-0.292 0.136-0.591 0.26-0.894 0.372 0.0565 0.11 0.114 0.219 0.174 0.327 0.103 0.187 0.211 0.372 0.323 0.554 0.216 0.35 0.448 0.69 0.695 1.02 2-0.598 3.89-1.53 5.57-2.76 0.457-4.69-0.78-8.75-3.27-12.4-1.45-0.655-2.97-1.12-4.54-1.38-0.214 0.379-0.408 0.77-0.581 1.17zm-8.15 7.91c0 1.2 0.896 2.17 1.98 2.17 1.11 0 1.96-0.974 1.98-2.17 0.019-1.2-0.87-2.18-1.98-2.18-1.11 0-1.98 0.983-1.98 2.18zm7.31 0c0 1.2 0.893 2.17 1.98 2.17 1.11 0 1.96-0.974 1.98-2.17 0.0191-1.2-0.863-2.18-1.98-2.18s-1.98 0.983-1.98 2.18z" clip-rule="evenodd" fill="#000" fill-rule="evenodd"/></svg>
