<svg fill="none" viewBox="0 0 24 24" xmlns="http://www.w3.org/2000/svg"><path d="m21 1h-18c-0.53 0-1.04 0.211-1.41 0.586-0.375 0.375-0.586 0.884-0.586 1.41v18c0 0.53 0.211 1.04 0.586 1.41 0.375 0.375 0.884 0.586 1.41 0.586h10v-9h-3v-3h3v-1.61c0-3.05 1.49-4.39 4.02-4.39 1.21 0 1.86 0.09 2.16 0.131v2.87h-1.73c-1.08 0-1.45 0.568-1.45 1.72v1.28h3.15l-0.428 3h-2.73v9h5c0.53 0 1.04-0.211 1.41-0.586s0.586-0.884 0.586-1.41v-18c0-0.53-0.211-1.04-0.586-1.41-0.375-0.375-0.884-0.586-1.41-0.586z" fill="#000"/></svg>
