<svg fill="none" viewBox="0 0 24 24" xmlns="http://www.w3.org/2000/svg"><path d="m23.6 8.71-0.0337-0.0821-3.27-8.12c-0.0665-0.159-0.184-0.294-0.336-0.385-0.152-0.0899-0.33-0.133-0.508-0.124-0.179 0.00915-0.35 0.0703-0.492 0.175-0.14 0.108-0.241 0.254-0.29 0.419l-2.21 6.42h-8.93l-2.21-6.42c-0.0478-0.166-0.149-0.312-0.29-0.42-0.141-0.105-0.313-0.166-0.491-0.175-0.179-0.00915-0.356 0.0341-0.508 0.124-0.152 0.0918-0.269 0.227-0.336 0.385l-3.27 8.11-0.0325 0.0821c-0.47 1.17-0.528 2.45-0.165 3.66 0.363 1.2 1.13 2.26 2.18 3.02l0.0112 0.0083 0.03 0.0203 4.98 3.55 3.96 2.85c0.175 0.127 0.39 0.195 0.61 0.195 0.22 0 0.434-0.0686 0.61-0.195l3.96-2.85 5.01-3.57 0.0125-0.0095c1.05-0.754 1.81-1.81 2.17-3.01 0.362-1.2 0.305-2.48-0.163-3.65z" fill="#000"/></svg>
