<svg viewBox="0 0 24 24" xmlns="http://www.w3.org/2000/svg"><path d="m12 15.5c-0.937-0.0014-1.84-0.374-2.5-1.04-0.663-0.663-1.04-1.56-1.04-2.5 0.00145-0.937 0.374-1.84 1.04-2.5 0.663-0.663 1.56-1.04 2.5-1.04 0.937 0.00145 1.84 0.374 2.5 1.04 0.663 0.663 1.04 1.56 1.04 2.5-0.0014 0.937-0.374 1.84-1.04 2.5-0.663 0.663-1.56 1.04-2.5 1.04z" fill="#000"/><path d="m7.41 1.07c0.933-0.0492 2.46-0.0739 4.59-0.0739 2.13 0 3.66 0.0246 4.59 0.0739 0.825 0.0298 1.64 0.17 2.43 0.417 0.803 0.286 1.53 0.748 2.14 1.35 0.603 0.603 1.06 1.33 1.35 2.14 0.249 0.797 0.398 1.62 0.442 2.46 0.0325 0.917 0.0487 2.44 0.0487 4.57 0 2.13-0.0246 3.66-0.0739 4.59-0.0298 0.825-0.17 1.64-0.417 2.43-0.286 0.803-0.748 1.53-1.35 2.14-0.603 0.603-1.33 1.06-2.14 1.35-0.788 0.247-1.61 0.387-2.43 0.417-0.933 0.0493-2.46 0.0739-4.59 0.0739-2.13 0-3.66-0.0246-4.59-0.0739-0.829-0.0285-1.65-0.186-2.43-0.466-0.807-0.255-1.54-0.702-2.14-1.3-0.604-0.602-1.07-1.33-1.35-2.14-0.247-0.788-0.387-1.61-0.417-2.43-0.0492-0.933-0.0739-2.46-0.0739-4.59 0-2.13 0.0246-3.66 0.0739-4.59 0.0298-0.825 0.17-1.64 0.417-2.43 0.286-0.803 0.748-1.53 1.35-2.14s1.33-1.06 2.14-1.35c0.788-0.247 1.61-0.387 2.43-0.417zm9.72 3.89c0.226-0.151 0.492-0.23 0.764-0.229 0.363 0.00428 0.711 0.151 0.968 0.407s0.403 0.604 0.408 0.968c-0.0292 0.362-0.182 0.704-0.432 0.967-0.119 0.131-0.264 0.236-0.427 0.306-0.163 0.0704-0.338 0.105-0.516 0.102-0.181 0.00171-0.36-0.0336-0.526-0.104-0.166-0.0701-0.317-0.174-0.442-0.304-0.193-0.191-0.326-0.436-0.379-0.702-0.054-0.266-0.0273-0.543 0.0765-0.794 0.104-0.251 0.28-0.466 0.507-0.617zm-7.88 2.28c0.833-0.491 1.78-0.747 2.75-0.741 0.967-0.00588 1.92 0.25 2.75 0.741 0.834 0.483 1.53 1.18 2.01 2.01 0.485 0.835 0.741 1.78 0.741 2.75s-0.256 1.91-0.741 2.75c-0.483 0.834-1.18 1.53-2.01 2.01-0.835 0.485-1.78 0.741-2.75 0.741s-1.91-0.256-2.75-0.741c-0.834-0.483-1.53-1.18-2.01-2.01-0.485-0.835-0.741-1.78-0.741-2.75s0.256-1.91 0.741-2.75c0.483-0.833 1.18-1.53 2.01-2.01z" clip-rule="evenodd" fill="#000" fill-rule="evenodd"/></svg>
