<svg fill="none" viewBox="0 0 24 24" xmlns="http://www.w3.org/2000/svg"><path d="m12 1c-2.13 0-3.66 0.0246-4.59 0.0739-0.825 0.0298-1.64 0.17-2.43 0.417-0.803 0.286-1.53 0.748-2.14 1.35s-1.06 1.33-1.35 2.14c-0.247 0.788-0.387 1.61-0.417 2.43-0.0492 0.933-0.0739 2.46-0.0739 4.59 0 2.13 0.0246 3.66 0.0739 4.59 0.0298 0.825 0.17 1.64 0.417 2.43 0.285 0.804 0.747 1.53 1.35 2.14 0.596 0.6 1.33 1.05 2.14 1.3 0.781 0.28 1.6 0.437 2.43 0.466 0.933 0.0493 2.46 0.0739 4.59 0.0739 2.13 0 3.66-0.0246 4.59-0.0739 0.825-0.0298 1.64-0.17 2.43-0.417 0.803-0.286 1.53-0.748 2.14-1.35 0.603-0.603 1.06-1.33 1.35-2.14 0.247-0.788 0.387-1.61 0.417-2.43 0.0493-0.933 0.0739-2.46 0.0739-4.59 0-2.13-0.0162-3.65-0.0487-4.57-0.0444-0.834-0.193-1.66-0.442-2.46-0.286-0.803-0.747-1.53-1.35-2.14-0.603-0.603-1.33-1.06-2.14-1.35-0.788-0.247-1.61-0.387-2.43-0.417-0.933-0.0492-2.46-0.0739-4.59-0.0739zm-0.786 20c-1.31 0-2.32-0.0162-3.04-0.0487-0.897-0.0155-1.79-0.148-2.65-0.393-0.479-0.187-0.913-0.471-1.28-0.835-0.363-0.364-0.647-0.798-0.834-1.28-0.246-0.863-0.378-1.75-0.393-2.65-0.033-0.72-0.0495-1.74-0.0495-3.04v-1.57c0-1.31 0.0165-2.32 0.0495-3.04 0.00945-0.898 0.142-1.79 0.393-2.65 0.177-0.484 0.458-0.924 0.822-1.29 0.365-0.365 0.805-0.645 1.29-0.822 0.863-0.246 1.75-0.378 2.65-0.393 0.72-0.033 1.74-0.0495 3.04-0.0495h1.57c1.31 0 2.32 0.0165 3.04 0.0495 0.898 0.00945 1.79 0.142 2.65 0.393 0.484 0.177 0.925 0.458 1.29 0.822 0.365 0.365 0.646 0.805 0.823 1.29 0.251 0.862 0.383 1.75 0.393 2.65 0.0325 0.688 0.0487 1.7 0.0487 3.04v1.57c0 1.31-0.0162 2.32-0.0487 3.04-0.0155 0.897-0.148 1.79-0.393 2.65-0.187 0.479-0.472 0.914-0.835 1.28-0.363 0.364-0.798 0.648-1.28 0.835-0.862 0.251-1.75 0.383-2.65 0.393-0.687 0.0325-1.7 0.0487-3.04 0.0487h-1.57zm6.68-16.3c-0.272-0.00117-0.538 0.0787-0.764 0.229-0.226 0.151-0.403 0.365-0.506 0.617-0.104 0.251-0.13 0.528-0.0766 0.794 0.054 0.266 0.186 0.511 0.38 0.702 0.125 0.13 0.275 0.234 0.442 0.304 0.166 0.0701 0.346 0.105 0.526 0.104 0.177 0.00336 0.353-0.0313 0.516-0.102s0.308-0.175 0.427-0.306c0.25-0.263 0.403-0.605 0.432-0.967-0.0043-0.363-0.151-0.711-0.408-0.968s-0.604-0.403-0.968-0.407zm-5.89 1.77c-0.967-0.00588-1.92 0.25-2.75 0.741-0.833 0.483-1.53 1.18-2.01 2.01-0.485 0.835-0.741 1.78-0.741 2.75s0.256 1.91 0.741 2.75c0.483 0.834 1.18 1.53 2.01 2.01 0.835 0.485 1.78 0.741 2.75 0.741s1.91-0.256 2.75-0.741c0.834-0.483 1.53-1.18 2.01-2.01 0.485-0.835 0.741-1.78 0.741-2.75s-0.256-1.91-0.741-2.75c-0.483-0.833-1.18-1.53-2.01-2.01-0.833-0.491-1.78-0.747-2.75-0.741zm0 9.04c-0.937-0.0014-1.84-0.374-2.5-1.04-0.663-0.663-1.04-1.56-1.04-2.5 0.00145-0.937 0.374-1.84 1.04-2.5 0.663-0.663 1.56-1.04 2.5-1.04 0.937 0.00145 1.84 0.374 2.5 1.04 0.663 0.663 1.04 1.56 1.04 2.5-0.0014 0.937-0.374 1.84-1.04 2.5-0.663 0.663-1.56 1.04-2.5 1.04z" fill="#000"/></svg>
