<svg fill="none" viewBox="0 0 24 24" xmlns="http://www.w3.org/2000/svg"><path d="m20.3 21c1.07-4.03 1.94-8.22 1.35-12.4-0.224-1.42-0.927-4.04-2.86-3.33-2.44 0.89-4.16 3.55-5.52 5.66 1.73 3.18 3.09 6.56 4.05 10.1h-2.21c-0.938-2.68-1.75-5.23-3.1-7.78-1.26 2.49-2.28 5.1-3.06 7.78h-2.22c0.392-1.72 1.89-6.24 4.02-10.1-1.3-2.06-2.75-4.2-4.93-5.43-2.52-1.48-3.4 1.94-3.55 3.8-0.4 3.97 0.485 7.85 1.44 11.7h-2.21c-1.24-4.49-2.49-11.4-0.312-15.7 1.04-2.03 3.18-2.79 5.26-1.84 2.48 1.06 4 3.34 5.55 5.43 0.93-1.28 1.83-2.57 3-3.65 2.28-2.29 5.85-3.41 7.75-0.0629 2.27 4.23 1.02 11.4-0.249 15.9l-2.21-0.0066z" fill="#000"/></svg>
