<svg viewBox="0 0 24 24" xmlns="http://www.w3.org/2000/svg"><path d="m4.5 3c-0.828 0-1.5 0.672-1.5 1.5s0.672 1.5 1.5 1.5c7.46 0 13.5 6.04 13.5 13.5 0 0.828 0.672 1.5 1.5 1.5s1.5-0.672 1.5-1.5c0-9.11-7.39-16.5-16.5-16.5z" fill="#000"/><path d="m3 10.5c0-0.828 0.672-1.5 1.5-1.5 5.8 0 10.5 4.7 10.5 10.5 0 0.828-0.672 1.5-1.5 1.5s-1.5-0.672-1.5-1.5c0-4.14-3.36-7.5-7.5-7.5-0.828 0-1.5-0.672-1.5-1.5z" fill="#000"/><path d="m9 18c0 1.66-1.34 3-3 3s-3-1.34-3-3 1.34-3 3-3 3 1.34 3 3z" fill="#000"/></svg>
