<svg viewBox="0 0 24 24" xmlns="http://www.w3.org/2000/svg"><path d="m16.6 11.1c-0.874 0.576-1.98 0.863-3.33 0.863-0.422 0-0.822-0.0301-1.2-0.0915-0.376-0.0613-0.848-0.176-1.42-0.345-0.317-0.0936-0.578-0.141-0.782-0.141-0.172 0-0.353 0.0468-0.544 0.141-0.191 0.0935-0.346 0.237-0.465 0.429h-0.366v-3.61h0.366c0.29 1.01 0.85 1.79 1.68 2.32 0.828 0.533 1.72 0.8 2.68 0.8 0.738 0 1.33-0.144 1.77-0.429 0.438-0.287 0.658-0.62 0.658-1 0-0.226-0.084-0.444-0.252-0.655s-0.424-0.413-0.767-0.603-0.95-0.438-1.82-0.743c-1.22-0.427-2.1-0.791-2.63-1.09-0.534-0.3-0.945-0.636-1.23-1.01-0.0432-0.0561-0.0832-0.113-0.12-0.17l0.27-0.522 0.00713-0.0133c0.133-0.248 0.425-0.791 0.938-0.791-0.522 0-0.958 0.253-1.09 0.495l-3.54 6.84h-0.686l-3.57-6.93c-0.194-0.357-0.778-0.411-1.19-0.411v-0.398h5.04v0.398c-0.0142 0-0.0326-1.9e-4 -0.0545-4.1e-4 -0.334-0.00336-1.49-0.015-1.24 0.495l2.3 4.31 1.99-3.96c0.274-0.648-0.526-0.847-1.5-0.847v-0.398h2.12c0.167-0.48 0.522-0.906 1.07-1.28 0.785-0.535 1.77-0.804 2.97-0.804 0.435 0 0.858 0.0374 1.27 0.112 0.31 0.0561 0.688 0.161 1.13 0.314 0.446 0.153 0.757 0.229 0.935 0.229s0.306-0.0374 0.406-0.112c0.0991-0.0749 0.191-0.256 0.277-0.543h0.406v3.19h-0.406c-0.0272-0.114-0.0608-0.226-0.1-0.334-0.126 0.0852-0.237 0.178-0.329 0.273-0.253 0.263-0.462 0.673-0.593 1.11-0.117-0.0468-0.237-0.0946-0.361-0.142v-2.01h0.867c-0.233-0.311-0.531-0.585-0.896-0.822-0.749-0.487-1.56-0.73-2.43-0.73-0.673 0-1.21 0.128-1.6 0.384-0.393 0.256-0.589 0.551-0.589 0.885 0 0.211 0.0696 0.399 0.208 0.563 0.191 0.22 0.498 0.44 0.92 0.655 0.31 0.155 1.03 0.429 2.15 0.824 1.57 0.55 2.63 1.07 3.18 1.56 0.541 0.489 0.811 1.05 0.811 1.68 0 0.798-0.437 1.49-1.31 2.06l0.0024 0.0031z" fill="#000"/><path d="m17.4 4.08v0.442c0.134-0.0281 0.273-0.0447 0.416-0.0447h0.697v5.82c0 0.386-0.0264 0.624-0.0784 0.715-0.0712 0.129-0.168 0.219-0.292 0.272-0.17 0.079-0.396 0.12-0.676 0.12h-0.32v0.367h5.05v-0.367h-0.32c-0.275 0-0.492-0.0364-0.651-0.11s-0.266-0.16-0.32-0.258c-0.0544-0.0988-0.0816-0.344-0.0816-0.738v-5.82h0.718c0.478 0 1.03 0.211 1.44 0.629s0.661 1.07 0.769 1.5h0.256v-2.52l-6.61-0.00104z" fill="#000"/><path d="m10.3 22h8.59l4.06-7h-8.59l-0.492 0.849h3.8l-1.23 2.23h-3.14l-0.492 0.849h3.16l-1.23 2.23h-3.94l-0.492 0.849z" fill="#000"/><path d="m14.8 16.5-0.47 0.849h-3.05l-1.29 2.23h3.11l-0.47 0.849h-3.13l-0.892 1.54h-7.64l4.06-7h7.64l-0.892 1.54h3.02z" fill="#000"/></svg>
