<svg fill="none" viewBox="0 0 24 24" xmlns="http://www.w3.org/2000/svg"><path d="m11.7 3.6 0.365-0.00153 0.653 0.00323c0.872 0.00646 2.46 0.0262 4.06 0.086l0.257 0.00984c1.8 0.0717 3.57 0.195 4.36 0.409 0.509 0.138 0.972 0.406 1.35 0.778 0.373 0.372 0.641 0.836 0.779 1.34 0.793 3.19 0.61 8.23 0.0154 11.5-0.138 0.508-0.406 0.972-0.779 1.34s-0.836 0.641-1.35 0.778c-1.75 0.477-8.48 0.506-9.28 0.508l-0.807-0.0035c-0.817-0.0063-2.22-0.024-3.68-0.0737l-0.465-0.0169-0.444-0.0181c-1.69-0.0733-3.3-0.195-4.04-0.396-0.509-0.138-0.973-0.406-1.35-0.778-0.373-0.372-0.641-0.836-0.779-1.34-0.797-3.18-0.579-8.22-0.0154-11.5 0.138-0.508 0.406-0.972 0.779-1.34 0.373-0.372 0.836-0.641 1.35-0.779 1.63-0.444 7.56-0.511 9.03-0.522zm-2.66 4.4v8l7-4-7-4z" fill="#000"/></svg>
