<svg viewBox="0 0 24 24" xmlns="http://www.w3.org/2000/svg"><path d="m9.25 8.07c0.155-0.0892 0.346-0.0885 0.501 0.00168l6 3.5c0.154 0.0896 0.248 0.254 0.248 0.432s-0.0945 0.342-0.248 0.432l-6 3.5c-0.155 0.0902-0.346 0.0908-0.501 0.0017-0.155-0.0892-0.251-0.255-0.251-0.434v-7c0-0.179 0.0957-0.344 0.251-0.434z" fill="#000"/><path d="m11.7 3-0.0028 2e-5c-0.677 0.00487-2.39 0.0235-4.12 0.0943-0.865 0.0354-1.74 0.0841-2.51 0.152-0.739 0.0654-1.44 0.154-1.92 0.288-0.64 0.18-1.22 0.53-1.68 1.01-0.463 0.48-0.793 1.07-0.961 1.72l-0.0117 0.0448-0.00748 0.0456c-0.526 3.21-0.747 8.16 0.0289 11.4l0.00209 0.0086 0.00224 0.0086c0.169 0.647 0.499 1.24 0.961 1.72 0.462 0.48 1.04 0.83 1.68 1.01 0.433 0.123 1.05 0.206 1.7 0.267 0.671 0.0637 1.45 0.111 2.23 0.146l0.843 0.0337c1.35 0.0477 2.65 0.0647 3.4 0.0707l0.743 0.0034h0.0069c0.371-9e-4 2.11-0.0081 3.96-0.0726 0.924-0.0321 1.89-0.0789 2.72-0.147 0.81-0.0661 1.59-0.158 2.09-0.301 0.64-0.18 1.22-0.53 1.68-1.01 0.463-0.48 0.793-1.07 0.961-1.72l0.0106-0.0406 0.0071-0.0414c0.557-3.23 0.743-8.17-0.027-11.4l-0.0023-0.00977-0.0025-0.00972c-0.169-0.647-0.499-1.24-0.961-1.72-0.463-0.48-1.04-0.83-1.68-1.01-0.457-0.129-1.13-0.215-1.83-0.279-0.725-0.0654-1.56-0.113-2.39-0.147l-0.237-0.00944-0.0011-5e-5c-1.48-0.0576-2.95-0.0764-3.75-0.0826l-0.601-0.00314-0.344 0.0015zm-9.5 2.24c0.342-0.355 0.767-0.61 1.23-0.741 1.49-0.423 6.93-0.487 8.28-0.497l0.334-0.00147 0.598 0.00308c0.799 0.00615 2.25 0.0249 3.72 0.0819l0.235 0.00938c1.65 0.0683 3.28 0.186 3.99 0.389 0.466 0.131 0.892 0.387 1.23 0.741s0.588 0.796 0.714 1.28c0.727 3.04 0.559 7.83 0.0141 11-0.126 0.484-0.372 0.926-0.714 1.28-0.342 0.355-0.767 0.61-1.23 0.741-1.6 0.454-7.77 0.482-8.51 0.484l-0.739-0.0033c-0.749-6e-3 -2.04-0.0229-3.38-0.0702l-0.426-0.0161-0.407-0.0172c-1.55-0.0699-3.03-0.186-3.7-0.377-0.466-0.131-0.892-0.387-1.23-0.741-0.342-0.355-0.588-0.796-0.714-1.28-0.731-3.02-0.531-7.82-0.0141-11 0.126-0.484 0.372-0.926 0.714-1.28z" clip-rule="evenodd" fill="#000" fill-rule="evenodd"/></svg>
