<svg fill="none" viewBox="0 0 16 16" xmlns="http://www.w3.org/2000/svg"><path d="m4 4c2.21 0 4 0.895 4 2 0 0.122-0.022 0.242-0.0641 0.358l-1.11 5.25-0.0572 0.148c-0.492 0.843-1.44 1.25-2.77 1.25s-2.27-0.405-2.77-1.25l-0.0572-0.148-1.12-5.25c-0.0252-0.0707-0.043-0.143-0.0529-0.216l-0.00933-0.138c0-1.1 1.79-2 4-2zm4 2c0-1.1 1.79-2 4-2 2.21 0 4 0.895 4 2 0 0.122-0.022 0.242-0.0641 0.358l-1.11 5.25-0.0573 0.148c-0.492 0.843-1.44 1.25-2.77 1.25s-2.27-0.405-2.77-1.25l-0.0572-0.148-1.12-5.25c-0.0252-0.0707-0.043-0.143-0.0529-0.216l-0.00933-0.138zm-4 2c-1.03 0-1.97-0.194-2.67-0.513l0.81 3.82 0.0288 0.0437c0.285 0.392 0.812 0.614 1.63 0.646l0.209 4e-3c1.01 0 1.62-0.261 1.9-0.752l-0.0384 0.0579 0.811-3.82c-0.709 0.319-1.65 0.513-2.67 0.513zm8 0c-1.03 0-1.97-0.194-2.67-0.513l0.81 3.82 0.0289 0.0437c0.285 0.392 0.812 0.614 1.63 0.646l0.209 4e-3c1.01 0 1.62-0.261 1.9-0.752l-0.0384 0.0579 0.811-3.82c-0.709 0.319-1.65 0.513-2.67 0.513zm-8-3c-0.927 0-1.78 0.181-2.38 0.48-0.401 0.2-0.584 0.392-0.614 0.492l0.0226 0.104c0.0646 0.107 0.248 0.272 0.592 0.444 0.599 0.299 1.45 0.48 2.38 0.48s1.78-0.181 2.38-0.48c0.343-0.172 0.527-0.337 0.592-0.444l0.0211-0.105c-0.0366-0.107-0.22-0.295-0.613-0.491-0.599-0.299-1.45-0.48-2.38-0.48zm8 0c-0.927 0-1.78 0.181-2.38 0.48-0.401 0.2-0.584 0.392-0.614 0.492l0.0226 0.104c0.0646 0.107 0.248 0.272 0.592 0.444 0.599 0.299 1.45 0.48 2.38 0.48s1.78-0.181 2.38-0.48c0.344-0.172 0.527-0.337 0.592-0.444l0.0211-0.105c-0.0365-0.107-0.22-0.295-0.613-0.491-0.599-0.299-1.45-0.48-2.38-0.48z" fill="#000"/></svg>
