<svg xmlns="http://www.w3.org/2000/svg" viewBox="0 0 16 16" fill="none">
  <path fill="#000"
    d="M4 4c2.21 0 4 .896 4 2 0 .123-.022.242-.064.359l-1.114 5.245-.057.148C6.274 12.595 5.328 13 4 13s-2.274-.405-2.765-1.248l-.057-.148-1.116-5.25a1.071 1.071 0 0 1-.053-.216L0 6c0-1.104 1.79-2 4-2Zm4 2c0-1.104 1.79-2 4-2s4 .896 4 2c0 .123-.022.242-.064.359l-1.114 5.245-.057.148C14.274 12.595 13.328 13 12 13s-2.274-.405-2.765-1.248l-.057-.148-1.116-5.25a1.07 1.07 0 0 1-.053-.216L8 6ZM4 8c-1.028 0-1.966-.194-2.674-.512l.81 3.818.029.044c.285.392.812.614 1.626.646L4 12c1.005 0 1.615-.261 1.901-.752l-.038.058.811-3.818C5.966 7.806 5.028 8 4 8Zm8 0c-1.028 0-1.966-.194-2.674-.512l.81 3.818.029.044c.285.392.812.614 1.626.646L12 12c1.005 0 1.615-.261 1.901-.752l-.038.058.811-3.818C13.966 7.806 13.028 8 12 8ZM4 5c-.927 0-1.783.181-2.381.48-.401.201-.584.392-.614.493l.022.104c.065.106.248.271.592.443C2.217 6.82 3.073 7 4 7c.927 0 1.783-.18 2.381-.48.344-.172.527-.337.592-.443l.02-.106c-.036-.107-.22-.294-.612-.49C5.783 5.18 4.927 5 4 5Zm8 0c-.927 0-1.783.181-2.381.48-.401.201-.584.392-.614.493l.022.104c.065.106.248.271.592.443.598.3 1.454.48 2.381.48.927 0 1.783-.18 2.381-.48.344-.172.527-.337.592-.443l.02-.106c-.036-.107-.22-.294-.612-.49C13.783 5.18 12.927 5 12 5Z" />
</svg>