<svg xmlns="http://www.w3.org/2000/svg" viewBox="0 0 16 16" fill="none">
  <path fill="#000"
    d="m11.773 2.348.11.099c.144.14.253.3.328.472l.025-.013a1.579 1.579 0 0 1 1.734.16l.11.1c.5.49.588 1.23.265 1.81l-.014.021c.132.058.257.132.371.225l.11.099c.5.49.588 1.23.265 1.81l-.014.022c.132.057.257.132.371.224l.111.1c.607.594.607 1.56 0 2.155l-5.126 5.03c-1.82 1.785-4.77 1.785-6.59 0l-1.464-1.438a4.512 4.512 0 0 1 0-6.466L5.66 3.524a1.574 1.574 0 0 1 2.197 0c.107.105.195.222.264.346l.039.075 1.527-1.498a1.575 1.575 0 0 1 2.086-.1Zm-1.354.817-5.125 5.03c-.488.479-1.22-.24-.732-.719l2.562-2.515a.501.501 0 0 0 0-.718.525.525 0 0 0-.732 0L3.097 7.476a3.51 3.51 0 0 0 0 5.03l1.465 1.437a3.674 3.674 0 0 0 5.125 0l5.126-5.03a.501.501 0 0 0 0-.718.525.525 0 0 0-.732 0l-2.197 2.155c-.461.453-1.14-.163-.803-.637l.07-.081 2.93-2.874a.501.501 0 0 0 0-.719.525.525 0 0 0-.733 0L10.42 8.913c-.46.453-1.14-.163-.802-.637l.07-.081 3.661-3.593a.501.501 0 0 0 0-.718.525.525 0 0 0-.732 0L8.955 7.476c-.488.48-1.22-.24-.732-.718l2.929-2.874a.501.501 0 0 0 0-.719.525.525 0 0 0-.733 0ZM9.594.171l.868.29.17-.086a1.5 1.5 0 0 1 1.622.182l.11.1.49.49a.5.5 0 0 1-.708.707l-.49-.49a.5.5 0 0 0-.577-.094l-.355.178a.5.5 0 0 1-.382.027L9.278 1.12a.5.5 0 0 0-.415.046L6.757 2.429a.5.5 0 0 1-.534-.013l-.818-.545a.5.5 0 0 0-.631.063L1.56 5.147C1.2 5.506 1 5.993 1 6.5a.5.5 0 0 1-1 0c0-.773.307-1.514.854-2.06l3.213-3.214a1.5 1.5 0 0 1 1.892-.187l.555.37 1.834-1.1A1.5 1.5 0 0 1 9.594.17Z" />
</svg>