<svg xmlns="http://www.w3.org/2000/svg" viewBox="0 0 16 16" fill="none">
  <path fill="#000"
    d="m5.947.277.706 1.408a3.477 3.477 0 0 1 1.784-.016c3.826-1.257 6.988-.836 7.499 2.079.542 3.093-2.42 6.038-6.508 7.86L9 11.792v2.71a.5.5 0 1 1-1 0v-2.32C3.98 13.619.594 13.279.064 10.254c-.441-2.519 1.44-4.939 4.361-6.735.334-.62.77-1.099 1.308-1.432L5.053.724a.5.5 0 1 1 .894-.447Zm4.196 1.948-.273.065c.54.332 1.086.775 1.639 1.328a.5.5 0 0 1-.707.707C9.426 2.95 8.205 2.4 7.112 2.605l.335.672a.5.5 0 1 1-.894.447l-.37-.737c-.864.588-1.386 1.763-1.546 3.582a.5.5 0 0 1-.996-.087c.043-.491.112-.948.207-1.368C1.725 6.673.754 8.398 1.05 10.08c.374 2.137 3.079 2.561 7.143.963l.265-.107.564-.24c4.031-1.798 6.34-4.433 5.93-6.775-.297-1.697-2.053-2.316-4.808-1.696Zm1.082 5.204a.5.5 0 0 1-.096.7c-1.091.828-2.22 1.456-3.389 1.883-1.152.42-2.21.696-3.174.824a.5.5 0 0 1-.132-.992c.888-.117 1.876-.374 2.963-.772 1.072-.391 2.114-.97 3.128-1.74a.5.5 0 0 1 .7.097Z" />
</svg>