<svg fill="none" viewBox="0 0 16 16" xmlns="http://www.w3.org/2000/svg"><path d="m6.5 15.5v-1c0-1.18-1.78-1.81-1.78-1.81l-0.469-11s0.801-0.213 1.41-0.422c0.606-0.209 0.858-0.75 1.41-0.75s0.938 0.469 0.938 0.469 0.389-0.469 0.938-0.469 0.801 0.541 1.41 0.75c0.606 0.209 1.41 0.422 1.41 0.422l-0.469 11s-1.78 0.627-1.78 1.81v1" stroke="#fff" stroke-linecap="round" stroke-linejoin="round"/><path d="m13 4.28c0 0.243 0.174 0.45 0.414 0.492l1.29 0.227c0.39 0 0.39-2 0-2l-1.29 0.227c-0.239 0.042-0.414 0.25-0.414 0.492v0.56zm-0.2 3c0 0.243 0.174 0.45 0.414 0.492l1.29 0.227c0.39 0 0.39-2 0-2l-1.29 0.227c-0.239 0.042-0.414 0.25-0.414 0.492v0.56zm-0.3 3c0 0.243 0.174 0.45 0.414 0.492l1.29 0.227c0.39 0 0.39-2 0-2l-1.29 0.227c-0.239 0.042-0.414 0.25-0.414 0.492v0.56z" fill="#000"/><path d="m1.29 5 1.29-0.227c0.239-0.042 0.414-0.25 0.414-0.492v-0.56c0-0.243-0.174-0.45-0.414-0.492l-1.29-0.227c-0.39 0-0.39 2 0 2z" fill="#000"/><path d="m1.49 8 1.29-0.227c0.239-0.042 0.414-0.25 0.414-0.492v-0.56c0-0.243-0.174-0.45-0.414-0.492l-1.29-0.227c-0.39 0-0.39 2 0 2z" fill="#000"/><path d="m1.79 11 1.29-0.227c0.239-0.042 0.414-0.25 0.414-0.492v-0.56c0-0.243-0.174-0.45-0.414-0.492l-1.29-0.227c-0.39 0-0.39 2 0 2z" fill="#000"/></svg>
