<svg xmlns="http://www.w3.org/2000/svg" viewBox="0 0 16 16" fill="none">
  <path fill="#000" fill-rule="evenodd"
    d="M6.047 16C5.469 16 5 15.553 5 15v-.996c0-.004.05-.274-.182-.456a1.956 1.956 0 0 0-.4-.239l-.017-.007-.316-.12a.5.5 0 0 1-.322-.445l-.056-1.253-.843.141h-.092a1.2 1.2 0 0 1-.987-.52 1.615 1.615 0 0 1-.226-.502 3.361 3.361 0 0 1-.101-.853c0-.269.026-.579.1-.853.02-.07.047-.158.089-.253a1.26 1.26 0 0 1-.137-.163 1.615 1.615 0 0 1-.226-.502 3.362 3.362 0 0 1-.1-.854c0-.269.025-.579.1-.853.023-.086.06-.2.119-.32a1.225 1.225 0 0 1-.076-.096 1.615 1.615 0 0 1-.226-.502A3.361 3.361 0 0 1 1 4.5c0-.269.026-.579.1-.853.036-.13.1-.32.227-.502a1.2 1.2 0 0 1 .988-.52h.09l.915.154-.029-.642c-.02-.47.31-.89.784-1.011l.024-.006.092-.024.321-.087C4.776.937 5.1.844 5.37.755c.086-.028.138-.067.352-.226l.054-.041C5.991.328 6.433 0 7.085 0c.36 0 .671.094.915.206C8.244.094 8.554 0 8.916 0c.65 0 1.093.328 1.309.488l.054.04c.214.16.266.199.352.227a18.854 18.854 0 0 0 1.178.34l.092.025.031.008c.475.12.798.54.777 1.008l-.029.643.914-.154h.091a1.2 1.2 0 0 1 .988.52c.127.181.191.372.226.502.075.274.101.584.101.853 0 .27-.026.58-.1.854-.036.13-.1.32-.227.502-.02.028-.045.061-.076.097.06.12.096.233.12.32.074.273.1.583.1.852 0 .27-.026.58-.1.854-.036.13-.1.32-.227.502a1.25 1.25 0 0 1-.137.163c.042.095.07.183.088.253.075.274.101.584.101.853 0 .27-.026.58-.1.854-.036.13-.1.32-.227.502a1.2 1.2 0 0 1-.988.52h-.09l-.844-.142-.056 1.253a.5.5 0 0 1-.322.445l-.316.12-.017.007a1.951 1.951 0 0 0-.4.24c-.232.18-.182.455-.182.455V15c0 .553-.469 1-1.047 1H6.047ZM8 1.438s.13-.15.346-.275c.153-.088.348-.163.57-.163.3 0 .508.158.738.331.181.137.375.283.636.37.591.194 1.373.393 1.373.393l-.458 10.281S10 12.898 10 14.004V15H6v-.996c0-1.106-1.205-1.629-1.205-1.629l-.458-10.28s.782-.2 1.373-.395c.261-.086.455-.232.636-.369.23-.173.439-.33.738-.33.222 0 .417.074.57.162.216.125.346.275.346.275Zm5.685 3.937-1.564-.262V3.888l1.564-.263c.31 0 .351 1.312.125 1.664-.035.055-.077.086-.125.086ZM13.503 8l-1.564-.262V6.513l1.564-.263c.008 0 .015.001.022.003.049.01.09.054.125.122.173.346.16 1.306-.038 1.562-.032.04-.068.063-.109.063Zm-.275 2.625-1.564-.262V9.138l1.564-.263c.04 0 .074.02.104.057a.344.344 0 0 1 .04.062c.205.393.157 1.631-.144 1.631ZM2.772 8.875l1.565.263v1.225l-1.565.262c-.3 0-.348-1.238-.143-1.631a.349.349 0 0 1 .04-.062c.03-.036.065-.057.103-.057Zm1.29-2.362v1.225L2.498 8c-.041 0-.077-.023-.109-.063-.199-.256-.211-1.216-.038-1.562.034-.068.076-.112.125-.122a.107.107 0 0 1 .022-.003l1.564.263Zm-.183-2.625v1.225l-1.564.262c-.048 0-.09-.031-.125-.086-.226-.352-.185-1.664.125-1.664l1.564.263Z"
    clip-rule="evenodd" />
</svg>