<svg xmlns="http://www.w3.org/2000/svg" viewBox="0 0 16 16" fill="none">
  <path fill="#000"
    d="M14.396 9.658a.5.5 0 0 1-.004.707c-1.033 1.02-3.383 1.576-6.39 1.63L8 14.5a.5.5 0 0 1-1 0v-2.504c-2.97-.055-5.3-.597-6.352-1.592a.5.5 0 0 1 .688-.726C2.203 10.498 4.532 11 7.5 11c3 0 5.345-.512 6.19-1.346a.5.5 0 0 1 .706.004ZM7.5 0a.5.5 0 0 1 .5.5v2.237c.88.133 1.66.619 2.343 1.44C13.075 4.546 15 5.487 15 7 15 8.954 11.797 9.953 7.788 10L7.5 10C3.358 10 0 9 0 7c0-1.514 1.925-2.455 4.658-2.823C5.34 3.355 6.122 2.87 7 2.737V.5a.5.5 0 0 1 .5-.5ZM8 3.756V4.5a.5.5 0 0 1-1 0v-.745c-.964.218-1.812 1.082-2.547 2.657a.5.5 0 0 1-.906-.423c.073-.157.148-.308.224-.453l.115-.214-.128.026C2.018 5.712 1 6.333 1 7c0 1.057 2.56 2 6.5 2S14 8.057 14 7c0-.683-1.068-1.318-2.887-1.682.116.21.23.435.34.67a.5.5 0 1 1-.906.424C9.812 4.837 8.964 3.973 8 3.756Z" />
</svg>