<svg xmlns="http://www.w3.org/2000/svg" viewBox="0 0 16 16" fill="none">
  <path fill="#000"
    d="M7.5 6.5A1.5 1.5 0 0 1 8 9.415V11h.18a1 1 0 0 1 .98.804l.6 3A1 1 0 0 1 8.78 16H6.22a1 1 0 0 1-.98-1.196l.6-3A1 1 0 0 1 6.82 11H7V9.415A1.5 1.5 0 0 1 7.5 6.5Zm0-6.5C11.644 0 15 3.425 15 7.644a7.703 7.703 0 0 1-1.922 5.11l.856 1.498a.5.5 0 0 1-.868.496l-.743-1.296a.5.5 0 0 1-.506-.84A6.69 6.69 0 0 0 14 7.643C14 3.973 11.088 1 7.5 1S1 3.973 1 7.644a6.69 6.69 0 0 0 2.194 4.977.5.5 0 0 1-.521.835l-.739 1.292a.5.5 0 0 1-.868-.496l.855-1.498A7.702 7.702 0 0 1 0 7.644C0 3.424 3.356 0 7.5 0Z" />
</svg>