<svg xmlns="http://www.w3.org/2000/svg" viewBox="0 0 16 16" fill="none">
  <path fill="#000" fill-rule="evenodd"
    d="M1.5 0A1.5 1.5 0 0 0 0 1.5v9A1.5 1.5 0 0 0 1.5 12h4A1.5 1.5 0 0 0 7 10.5V9h2v4.6c0 .84 0 1.26.163 1.581a1.5 1.5 0 0 0 .656.656c.32.163.74.163 1.581.163h2.2c.84 0 1.26 0 1.581-.163a1.5 1.5 0 0 0 .656-.656c.163-.32.163-.74.163-1.58V6.4c0-.84 0-1.26-.164-1.582a1.5 1.5 0 0 0-.655-.655C14.861 4 14.441 4 13.6 4h-2.2c-.84 0-1.26 0-1.581.164a1.5 1.5 0 0 0-.656.655C9 5.14 9 5.56 9 6.4V8H7V1.5A1.5 1.5 0 0 0 5.5 0h-4ZM2 3a1 1 0 1 0 0-2 1 1 0 0 0 0 2Zm4-1a1 1 0 1 1-2 0 1 1 0 0 1 2 0ZM1.5 7a.5.5 0 0 0-.5.5v2a.5.5 0 0 0 .5.5h4a.5.5 0 0 0 .5-.5v-2a.5.5 0 0 0-.5-.5h-4ZM11 7a1 1 0 1 0 0-2 1 1 0 0 0 0 2Zm4-1a1 1 0 1 1-2 0 1 1 0 0 1 2 0Zm-4.5 5a.5.5 0 0 0-.5.5v2a.5.5 0 0 0 .5.5h4a.5.5 0 0 0 .5-.5v-2a.5.5 0 0 0-.5-.5h-4Z"
    clip-rule="evenodd" />
</svg>