<svg xmlns="http://www.w3.org/2000/svg" viewBox="0 0 16 16" fill="none">
  <path fill="#000" fill-rule="evenodd"
    d="M3.218 1.092C3 1.52 3 2.08 3 3.2v2.3c.418-.314.937-.5 1.5-.5h7c.563 0 1.082.186 1.5.5V3.2c0-1.12 0-1.68-.218-2.108a2 2 0 0 0-.874-.874C11.48 0 10.92 0 9.8 0H6.2C5.08 0 4.52 0 4.092.218a2 2 0 0 0-.874.874ZM6 2a1 1 0 1 1-2 0 1 1 0 0 1 2 0Zm2 2a1 1 0 1 0 0-2 1 1 0 0 0 0 2Zm4-2a1 1 0 1 1-2 0 1 1 0 0 1 2 0ZM13 12.8V7.5A1.5 1.5 0 0 0 11.5 6h-7A1.5 1.5 0 0 0 3 7.5v5.3c0 1.12 0 1.68.218 2.108a2 2 0 0 0 .874.874C4.52 16 5.08 16 6.2 16h3.6c1.12 0 1.68 0 2.108-.218a2 2 0 0 0 .874-.874C13 14.48 13 13.92 13 12.8ZM4.109 8.546C4 8.76 4 9.04 4 9.6v1.8c0 .56 0 .84.109 1.054a1 1 0 0 0 .437.437c.214.11.494.11 1.054.11h4.8c.56 0 .84 0 1.054-.11a1 1 0 0 0 .437-.437C12 12.24 12 11.96 12 11.4V9.6c0-.56 0-.84-.109-1.054a1 1 0 0 0-.437-.437C11.24 8 10.96 8 10.4 8H5.6c-.56 0-.84 0-1.054.11a1 1 0 0 0-.437.436Z"
    clip-rule="evenodd" />
</svg>