<svg xmlns="http://www.w3.org/2000/svg" viewBox="0 0 16 16" fill="none">
  <path fill="#000"
    d="M8 1c4.667 0 7 1.306 7 2.917V12.5a.501.501 0 0 1-.02.14c-.282 1.497-3.301 2.451-6.98 2.451-3.576 0-6.53-.902-6.949-2.328l-.03-.123A.444.444 0 0 1 1 12.5V3.917C1 2.307 3.333 1 8 1Zm6.001 4.558c-1.097.77-3.097 1.276-6.001 1.276-2.903 0-4.903-.506-6-1.275v6.85c0 .781 2.684 1.682 6 1.682s6-.9 6-1.682l.001-6.851ZM5.5 8a.5.5 0 0 1 .5.5V12a.5.5 0 0 1-1 0V8.5a.5.5 0 0 1 .5-.5Zm5 0a.5.5 0 0 1 .5.5V12a.5.5 0 0 1-1 0V8.5a.5.5 0 0 1 .5-.5ZM8 2c-3.9 0-6 .95-6 1.917 0 .967 2.1 1.917 6 1.917s6-.95 6-1.917C14 2.95 11.9 2 8 2Z" />
</svg>