<svg viewBox="0 0 16 16" xmlns="http://www.w3.org/2000/svg"><path d="m6.5 9.5h3l4-4h2.5v5.3c0 1.12 0 1.68-0.218 2.11-0.192 0.376-0.498 0.682-0.874 0.874-0.428 0.218-0.988 0.218-2.11 0.218h-9.6c-1.12 0-1.68 0-2.11-0.218-0.376-0.192-0.682-0.498-0.874-0.874-0.218-0.428-0.218-0.988-0.218-2.11v-5.3h2.5l4 4z" fill="#000" opacity=".3"/><path d="m8 10c-1.1 0-2.14-0.474-2.86-1.3l-0.866-0.989c-0.453-0.517-0.644-0.734-0.854-0.907-0.48-0.397-1.06-0.659-1.67-0.759-0.269-0.0436-0.557-0.0449-1.25-0.0449h-0.5v-1h0.5c0.655 0 1.04-0.0019 1.41 0.0576 0.79 0.128 1.53 0.465 2.15 0.976 0.286 0.237 0.538 0.526 0.969 1.02l0.866 0.99c0.533 0.609 1.3 0.958 2.11 0.958s1.58-0.349 2.11-0.958l0.866-0.99c0.431-0.493 0.682-0.782 0.969-1.02 0.617-0.51 1.36-0.847 2.15-0.976 0.367-0.0595 0.75-0.0576 1.41-0.0576h0.5v1h-0.5c-0.688 0-0.976 0.00131-1.25 0.0449-0.614 0.0996-1.19 0.362-1.67 0.759-0.21 0.174-0.401 0.39-0.854 0.907l-0.866 0.989c-0.723 0.826-1.77 1.3-2.86 1.3z" fill="#000"/></svg>
