<svg viewBox="0 0 16 16" xmlns="http://www.w3.org/2000/svg"><path d="m11.9 5.15c-0.195-0.195-0.512-0.195-0.707 0-0.195 0.195-0.195 0.512 0 0.707l1.65 1.65-1.65 1.65c-0.195 0.195-0.195 0.512 0 0.707 0.195 0.195 0.512 0.195 0.707 0l1.65-1.65 1.65 1.65c0.195 0.195 0.512 0.195 0.707 0 0.195-0.195 0.195-0.512 0-0.707l-1.65-1.65 1.65-1.65c0.195-0.195 0.195-0.512 0-0.707-0.195-0.195-0.512-0.195-0.707 0l-1.65 1.65-1.65-1.65z" fill="#000"/><path d="m4 5 3.17-2.77c0.323-0.283 0.829-0.0533 0.829 0.376v10.8c0 0.43-0.506 0.659-0.829 0.376l-3.17-2.77h-2.5c-0.828 0-1.5-0.672-1.5-1.5v-3c0-0.828 0.672-1.5 1.5-1.5h2.5z" fill="#000"/></svg>
