<svg xmlns="http://www.w3.org/2000/svg" viewBox="0 0 16 16" fill="none">
  <path fill="#000" fill-rule="evenodd"
    d="M4 3.6c0-.56 0-.84.109-1.054a1 1 0 0 1 .437-.437C4.76 2 5.04 2 5.6 2h4.8c.56 0 .84 0 1.054.11a1 1 0 0 1 .437.436C12 2.76 12 3.04 12 3.6v.8c0 .56 0 .84-.109 1.054a1 1 0 0 1-.437.437c-.214.11-.494.11-1.054.11H5.6c-.56 0-.84 0-1.054-.11a1 1 0 0 1-.437-.437C4 5.24 4 4.96 4 4.4v-.8ZM5.6 3h4.8c.296 0 .459.001.575.01l.014.002v.013c.01.116.011.279.011.575v.8c0 .297 0 .459-.01.576l-.001.013h-.014C10.86 5 10.697 5 10.4 5H5.6c-.297 0-.459 0-.575-.01l-.014-.001v-.013A8.192 8.192 0 0 1 5 4.4v-.8c0-.296 0-.459.01-.575l.001-.013.014-.001C5.14 3 5.303 3 5.6 3Z"
    clip-rule="evenodd" />
  <path fill="#000"
    d="M4 8.5a.5.5 0 0 1 .5-.5h1a.5.5 0 0 1 .5.5v1a.5.5 0 0 1-.5.5h-1a.5.5 0 0 1-.5-.5v-1Zm.5 2.5a.5.5 0 0 0-.5.5v1a.5.5 0 0 0 .5.5h1a.5.5 0 0 0 .5-.5v-1a.5.5 0 0 0-.5-.5h-1ZM7 8.5a.5.5 0 0 1 .5-.5h1a.5.5 0 0 1 .5.5v1a.5.5 0 0 1-.5.5h-1a.5.5 0 0 1-.5-.5v-1Zm.5 2.5a.5.5 0 0 0-.5.5v1a.5.5 0 0 0 .5.5h1a.5.5 0 0 0 .5-.5v-1a.5.5 0 0 0-.5-.5h-1ZM10 8.5a.5.5 0 0 1 .5-.5h1a.5.5 0 0 1 .5.5v1a.5.5 0 0 1-.5.5h-1a.5.5 0 0 1-.5-.5v-1Zm.5 2.5a.5.5 0 0 0-.5.5v1a.5.5 0 0 0 .5.5h1a.5.5 0 0 0 .5-.5v-1a.5.5 0 0 0-.5-.5h-1Z" />
  <path fill="#000" fill-rule="evenodd"
    d="M2 4.8c0-1.68 0-2.52.327-3.162A3 3 0 0 1 3.638.328C4.28 0 5.12 0 6.8 0h2.4c1.68 0 2.52 0 3.162.327a3 3 0 0 1 1.311 1.311C14 2.28 14 3.12 14 4.8v6.4c0 1.68 0 2.52-.327 3.162a3 3 0 0 1-1.311 1.311C11.72 16 10.88 16 9.2 16H6.8c-1.68 0-2.52 0-3.162-.327a3 3 0 0 1-1.311-1.31C2 13.72 2 12.88 2 11.2V4.8ZM6.8 1h2.4c.857 0 1.439.001 1.889.038.438.036.663.1.819.18a2 2 0 0 1 .874.874c.08.157.145.38.18.82C13 3.361 13 3.943 13 4.8v6.4c0 .857 0 1.44-.038 1.89-.035.438-.1.662-.18.818a2 2 0 0 1-.874.874c-.156.08-.38.145-.819.18C10.639 15 10.057 15 9.2 15H6.8c-.857 0-1.439 0-1.889-.037-.438-.036-.663-.101-.819-.18a2 2 0 0 1-.874-.875c-.08-.156-.145-.38-.18-.819C3 12.64 3 12.057 3 11.2V4.8c0-.856 0-1.439.038-1.889.035-.438.1-.662.18-.819a2 2 0 0 1 .874-.874c.156-.08.38-.144.819-.18C5.361 1 5.943 1 6.8 1Z"
    clip-rule="evenodd" />
</svg>