<svg xmlns="http://www.w3.org/2000/svg" viewBox="0 0 16 16" fill="none">
  <path fill="#000"
    d="M5.5 3a.5.5 0 0 0-.5.5v1a.5.5 0 1 0 1 0v-.25A.25.25 0 0 1 6.25 4H7v4h-.5a.5.5 0 0 0 0 1h3a.5.5 0 1 0 0-1H9V4h.75a.25.25 0 0 1 .25.25v.25a.5.5 0 0 0 1 0v-1a.5.5 0 0 0-.5-.5h-5Z" />
  <path fill="#000" fill-rule="evenodd"
    d="M1.17 3.356c.67-1.23 1.083-1.826 1.554-2.31a3 3 0 0 1 .893-.708C4.267 0 5.122 0 6.83 0h2.34c1.709 0 2.563 0 3.213.338a3 3 0 0 1 .936.76c.458.493.842 1.03 1.512 2.258l.383.703c.296.542.444.814.547 1.1.089.245.153.497.193.754.046.302.046.611.046 1.23V9.56c0 2.278 0 3.417-.45 4.284a4 4 0 0 1-1.706 1.706c-.867.45-2.006.45-4.284.45H6.44c-2.278 0-3.417 0-4.284-.45A4 4 0 0 1 .45 13.844C0 12.977 0 11.838 0 9.56V7.142c0-.618 0-.927.046-1.229a4 4 0 0 1 .192-.753c.104-.287.252-.56.548-1.101l.383-.703ZM9.17 1H6.83c-.871 0-1.463.001-1.92.039-.446.037-.673.104-.832.186a2 2 0 0 0-.853.853c-.082.159-.15.386-.186.832C3 3.367 3 3.96 3 4.83v2.34c0 .871 0 1.463.039 1.92.037.446.104.674.186.832a2 2 0 0 0 .853.853c.159.082.386.15.831.186.458.038 1.05.04 1.921.04h2.34c.871 0 1.463-.002 1.92-.04.446-.037.673-.104.832-.186a2 2 0 0 0 .853-.853c.082-.158.15-.386.186-.831C13 8.633 13 8.04 13 7.17V4.83c0-.872 0-1.464-.039-1.921-.037-.446-.104-.673-.186-.832a2 2 0 0 0-.853-.853c-.159-.082-.386-.149-.832-.186C10.633 1.001 10.042 1 9.17 1ZM1.664 4.537l.339-.62C2 4.192 2 4.495 2 4.83v2.34c0 1.709 0 2.563.338 3.213a3 3 0 0 0 1.28 1.28C4.267 12 5.121 12 6.83 12h2.34c1.709 0 2.563 0 3.213-.338a3 3 0 0 0 1.28-1.279C14 9.733 14 8.88 14 7.17V4.83c0-.335 0-.638-.003-.913l.339.62c.31.569.413.764.485.963.066.183.115.372.144.565.032.209.035.43.035 1.077V9.56c0 1.156 0 1.962-.053 2.588-.05.615-.146.968-.285 1.235a3 3 0 0 1-1.28 1.28c-.266.138-.619.233-1.234.284C11.521 15 10.716 15 9.56 15H6.44c-1.156 0-1.961 0-2.588-.053-.615-.05-.968-.146-1.235-.284a3 3 0 0 1-1.28-1.28c-.138-.267-.233-.62-.284-1.234C1 11.521 1 10.716 1 9.56V7.142c0-.647.003-.868.035-1.077a3 3 0 0 1 .144-.565c.072-.199.175-.394.485-.963Z"
    clip-rule="evenodd" />
</svg>