<svg viewBox="0 0 16 16" xmlns="http://www.w3.org/2000/svg"><path d="m2.56 3.42-1.55 9c-0.0454 0.263 0.165 0.577 0.546 0.577h11.3c0.297 0 0.508-0.204 0.546-0.423l1.55-9c0.0454-0.263-0.165-0.577-0.546-0.577h-11.3c-0.297 0-0.508 0.204-0.546 0.423zm-2.54 8.83c-0.158 0.914 0.572 1.75 1.53 1.75h11.3c0.759 0 1.41-0.53 1.53-1.25l1.55-9c0.158-0.914-0.572-1.75-1.53-1.75h-11.3c-0.759 0-1.41 0.53-1.53 1.25l-1.55 9z" clip-rule="evenodd" fill="#000" fill-rule="evenodd"/><path d="m7 11 0.167-1h5l-0.167 1h-5zm-1.91-6.47c-0.259-0.323-0.731-0.376-1.05-0.117-0.323 0.259-0.376 0.731-0.117 1.05l1.54 1.93-2.44 2.03c-0.318 0.265-0.361 0.738-0.096 1.06 0.265 0.318 0.738 0.361 1.06 0.096l3-2.5c0.314-0.261 0.361-0.726 0.106-1.04l-2-2.5z" clip-rule="evenodd" fill="#000" fill-rule="evenodd"/></svg>
