<svg xmlns="http://www.w3.org/2000/svg" viewBox="0 0 16 16" fill="none">
  <path fill="#000" fill-rule="evenodd"
    d="m2.56 3.424-1.553 9c-.045.263.165.576.546.576h11.342a.539.539 0 0 0 .546-.423l1.552-9c.045-.263-.165-.577-.546-.577H3.105a.539.539 0 0 0-.546.424Zm-2.538 8.83C-.136 13.168.594 14 1.552 14h11.343c.759 0 1.406-.53 1.531-1.253l1.553-9C16.136 2.833 15.407 2 14.447 2H3.105c-.759 0-1.406.53-1.531 1.254l-1.552 9Z"
    clip-rule="evenodd" />
  <path fill="#000" fill-rule="evenodd"
    d="m7 11 .167-1h5L12 11H7ZM5.086 4.532a.75.75 0 0 0-1.172.937l1.541 1.926-2.435 2.03a.75.75 0 1 0 .96 1.151l3-2.5a.75.75 0 0 0 .106-1.044l-2-2.5Z"
    clip-rule="evenodd" />
</svg>