<svg xmlns="http://www.w3.org/2000/svg" viewBox="0 0 16 16" fill="none">
  <path fill="#000" fill-rule="evenodd"
    d="M4.6 4H7a.5.5 0 0 1 .5.5.5.5 0 1 0 1 0A.5.5 0 0 1 9 4h2.4c.56 0 .84 0 1.054.11a1 1 0 0 1 .437.436C13 4.76 13 5.04 13 5.6v.8c0 .56 0 .84-.109 1.054a1 1 0 0 1-.437.437c-.214.11-.494.11-1.054.11H4.6c-.56 0-.84 0-1.054-.11a1 1 0 0 1-.437-.437C3 7.24 3 6.96 3 6.4v-.8c0-.56 0-.84.109-1.054a1 1 0 0 1 .437-.437C3.76 4 4.04 4 4.6 4Zm1.985 1H4.6c-.297 0-.459.001-.575.01l-.014.002v.013C4 5.14 4 5.304 4 5.6v.8c0 .297 0 .459.01.576l.001.013h.014C4.14 7 4.303 7 4.6 7h6.8c.296 0 .459 0 .575-.01l.014-.001v-.013C12 6.859 12 6.696 12 6.4v-.8c0-.296 0-.459-.01-.575l-.001-.013-.014-.001A8.185 8.185 0 0 0 11.4 5H9.415a1.5 1.5 0 0 1-2.83 0ZM7 10H4.6c-.56 0-.84 0-1.054.11a1 1 0 0 0-.437.436C3 10.76 3 11.04 3 11.6v.8c0 .56 0 .84.109 1.054a1 1 0 0 0 .437.437c.214.11.494.11 1.054.11h6.8c.56 0 .84 0 1.054-.11a1 1 0 0 0 .437-.437C13 13.24 13 12.96 13 12.4v-.8c0-.56 0-.84-.109-1.054a1 1 0 0 0-.437-.437C12.24 10 11.96 10 11.4 10H9a.5.5 0 0 0-.5.5.5.5 0 1 1-1 0A.5.5 0 0 0 7 10Zm-2.4 1h1.985a1.5 1.5 0 0 0 2.83 0H11.4c.296 0 .459.001.575.01l.014.002v.013c.01.117.011.279.011.575v.8c0 .297 0 .459-.01.576l-.001.013h-.014c-.116.01-.278.011-.575.011H4.6c-.297 0-.459 0-.575-.01l-.014-.001v-.013A8.192 8.192 0 0 1 4 12.4v-.8c0-.296 0-.458.01-.575l.001-.013.014-.002c.116-.009.278-.01.575-.01Z"
    clip-rule="evenodd" />
  <path fill="#000" fill-rule="evenodd"
    d="M1.055 2.362C1 2.592 1 2.837 1 3.326V12.8c0 1.12 0 1.68.218 2.108a2 2 0 0 0 .874.874C2.52 16 3.08 16 4.2 16h7.6c1.12 0 1.68 0 2.108-.218a2 2 0 0 0 .874-.874C15 14.48 15 13.92 15 12.8V3.326c0-.49 0-.734-.055-.964a2.01 2.01 0 0 0-.24-.578c-.123-.202-.296-.375-.642-.721l-.126-.125c-.346-.346-.519-.52-.72-.643a2.001 2.001 0 0 0-.579-.24C12.409 0 12.165 0 11.676 0h-7.35c-.489 0-.733 0-.963.056a2 2 0 0 0-.579.239c-.201.124-.374.297-.72.643l-.126.125c-.346.346-.519.519-.642.72a2 2 0 0 0-.24.579ZM14 12.8V3.326c0-.537-.006-.642-.028-.73a.998.998 0 0 0-.12-.29c-.047-.077-.117-.156-.496-.536l-.126-.125c-.38-.38-.459-.45-.536-.497a1 1 0 0 0-.289-.12c-.088-.021-.194-.028-.73-.028h-7.35c-.536 0-.642.007-.73.028a1 1 0 0 0-.29.12c-.077.047-.156.117-.535.497l-.126.125c-.38.38-.45.459-.497.536a1 1 0 0 0-.12.29c-.02.088-.027.193-.027.73V12.8c0 .577 0 .95.024 1.232.022.272.06.373.085.422a1 1 0 0 0 .437.437c.05.025.15.063.422.085C3.25 15 3.623 15 4.2 15h7.6c.577 0 .949 0 1.232-.024.272-.022.373-.06.422-.085a1 1 0 0 0 .437-.437c.025-.05.063-.15.085-.422C14 13.75 14 13.377 14 12.8Z"
    clip-rule="evenodd" />
</svg>