<svg xmlns="http://www.w3.org/2000/svg" viewBox="0 0 16 16" fill="none">
  <path fill="#000"
    d="M9.964 3.315a.5.5 0 0 0-.952.077l-1.573 7.076-1.458-5.105a.5.5 0 0 0-.897-.14L3.232 8H2.5a.5.5 0 1 0 0 1h1a.5.5 0 0 0 .416-.222l1.4-2.1 1.703 5.96a.5.5 0 0 0 .97-.03l1.648-7.42 1.399 3.498A.5.5 0 0 0 11.5 9h2a.5.5 0 0 0 0-1h-1.662L9.964 3.315Z" />
  <path fill="#000" fill-rule="evenodd"
    d="M0 6.4c0-2.24 0-3.36.436-4.216A4 4 0 0 1 2.184.436C3.04 0 4.16 0 6.4 0h3.2c2.24 0 3.36 0 4.216.436a4 4 0 0 1 1.748 1.748C16 3.04 16 4.16 16 6.4v3.2c0 2.24 0 3.36-.436 4.216a4 4 0 0 1-1.748 1.748C12.96 16 11.84 16 9.6 16H6.4c-2.24 0-3.36 0-4.216-.436a4 4 0 0 1-1.748-1.748C0 12.961 0 11.84 0 9.6V6.4ZM6.4 1h3.2c1.137 0 1.929.001 2.546.051.605.05.953.142 1.216.276a3 3 0 0 1 1.311 1.311c.134.264.226.611.276 1.216.05.617.051 1.41.051 2.546v3.2c0 1.137 0 1.93-.051 2.546-.05.605-.142.953-.276 1.216a3 3 0 0 1-1.311 1.311c-.263.134-.611.227-1.216.276-.617.05-1.41.051-2.546.051H6.4c-1.137 0-1.929 0-2.546-.05-.605-.05-.953-.143-1.216-.277a3 3 0 0 1-1.311-1.31c-.134-.264-.226-.612-.276-1.217C1.001 11.529 1 10.736 1 9.6V6.4c0-1.136 0-1.929.051-2.546.05-.605.142-.952.276-1.216a3 3 0 0 1 1.311-1.31c.263-.135.611-.227 1.216-.277.617-.05 1.41-.05 2.546-.05Z"
    clip-rule="evenodd" />
</svg>