<svg xmlns="http://www.w3.org/2000/svg" viewBox="0 0 16 16" fill="none">
  <path fill="#000"
    d="M4.5 5a.5.5 0 0 0 0 1h7a.5.5 0 0 0 0-1h-7ZM4 8.5a.5.5 0 0 1 .5-.5h7a.5.5 0 0 1 0 1h-7a.5.5 0 0 1-.5-.5Zm.5 2.5a.5.5 0 0 0 0 1h4a.5.5 0 1 0 0-1h-4Z" />
  <path fill="#000" fill-rule="evenodd"
    d="M3.5 0a.5.5 0 0 0-.5.5v.683c-.13.039-.249.087-.362.144a3 3 0 0 0-1.311 1.311C1 3.28 1 4.12 1 5.8v5.4c0 1.68 0 2.52.327 3.162a3 3 0 0 0 1.311 1.311C3.28 16 4.12 16 5.8 16h4.4c1.68 0 2.52 0 3.162-.327a3 3 0 0 0 1.311-1.31C15 13.72 15 12.88 15 11.2V5.8c0-1.68 0-2.52-.327-3.162a3 3 0 0 0-1.311-1.31A2.191 2.191 0 0 0 13 1.182V.5a.5.5 0 0 0-1 0v.529C11.529 1 10.947 1 10.2 1H10V.5a.5.5 0 0 0-1 0V1H7V.5a.5.5 0 0 0-1 0V1h-.2c-.747 0-1.329 0-1.8.03V.5a.5.5 0 0 0-.5-.5ZM9 2.5V2H7v.5a.5.5 0 1 1-1 0V2h-.2c-.801 0-1.362 0-1.8.031v.47a.5.5 0 1 1-1 0v-.233a2 2 0 0 0-.782.824c-.08.157-.145.38-.18.82C2 4.361 2 4.943 2 5.8v5.4c0 .857 0 1.44.038 1.89.035.438.1.662.18.818a2 2 0 0 0 .874.874c.156.08.38.145.819.18C4.361 15 4.943 15 5.8 15h4.4c.857 0 1.439 0 1.889-.037.438-.036.663-.101.819-.18a2 2 0 0 0 .874-.875c.08-.156.145-.38.18-.819C14 12.64 14 12.057 14 11.2V5.8c0-.856 0-1.439-.038-1.889-.035-.438-.1-.662-.18-.819A2 2 0 0 0 13 2.268V2.5a.5.5 0 0 1-1 0v-.469c-.438-.03-.999-.03-1.8-.03H10v.5a.5.5 0 1 1-1 0Z"
    clip-rule="evenodd" />
</svg>