<svg viewBox="0 0 16 16" xmlns="http://www.w3.org/2000/svg"><path d="m4 3.6c0-0.56 0-0.84 0.109-1.05 0.0959-0.188 0.249-0.341 0.437-0.437 0.214-0.109 0.494-0.109 1.05-0.109h4.8c0.56 0 0.84 0 1.05 0.109 0.188 0.0959 0.341 0.249 0.437 0.437 0.109 0.214 0.109 0.494 0.109 1.05v0.8c0 0.56 0 0.84-0.109 1.05-0.0959 0.188-0.249 0.341-0.437 0.437-0.214 0.109-0.494 0.109-1.05 0.109h-4.8c-0.56 0-0.84 0-1.05-0.109-0.188-0.0959-0.341-0.249-0.437-0.437-0.109-0.214-0.109-0.494-0.109-1.05v-0.8zm1.6-0.6h4.8c0.296 0 0.459 7.8e-4 0.575 0.0103l0.0132 0.00115 0.0011 0.0132c0.0095 0.117 0.0103 0.279 0.0103 0.575v0.8c0 0.297-8e-4 0.459-0.0103 0.575l-0.0011 0.0132-0.0132 0.00115c-0.117 0.00952-0.279 0.0103-0.575 0.0103h-4.8c-0.297 0-0.459-7.8e-4 -0.575-0.0103l-0.0132-0.00115-0.00115-0.0132c-0.00952-0.117-0.0103-0.279-0.0103-0.575v-0.8c0-0.297 7.8e-4 -0.459 0.0103-0.575l0.00115-0.0132 0.0132-0.00115c0.117-0.00952 0.279-0.0103 0.575-0.0103z" clip-rule="evenodd" fill="#000" fill-rule="evenodd"/><path d="m4 8.5c0-0.276 0.224-0.5 0.5-0.5h1c0.276 0 0.5 0.224 0.5 0.5v1c0 0.276-0.224 0.5-0.5 0.5h-1c-0.276 0-0.5-0.224-0.5-0.5v-1z" fill="#000"/><path d="m4.5 11c-0.276 0-0.5 0.224-0.5 0.5v1c0 0.276 0.224 0.5 0.5 0.5h1c0.276 0 0.5-0.224 0.5-0.5v-1c0-0.276-0.224-0.5-0.5-0.5h-1z" fill="#000"/><path d="m7 8.5c0-0.276 0.224-0.5 0.5-0.5h1c0.276 0 0.5 0.224 0.5 0.5v1c0 0.276-0.224 0.5-0.5 0.5h-1c-0.276 0-0.5-0.224-0.5-0.5v-1z" fill="#000"/><path d="m7.5 11c-0.276 0-0.5 0.224-0.5 0.5v1c0 0.276 0.224 0.5 0.5 0.5h1c0.276 0 0.5-0.224 0.5-0.5v-1c0-0.276-0.224-0.5-0.5-0.5h-1z" fill="#000"/><path d="m10 8.5c0-0.276 0.224-0.5 0.5-0.5h1c0.276 0 0.5 0.224 0.5 0.5v1c0 0.276-0.224 0.5-0.5 0.5h-1c-0.276 0-0.5-0.224-0.5-0.5v-1z" fill="#000"/><path d="m10.5 11c-0.276 0-0.5 0.224-0.5 0.5v1c0 0.276 0.224 0.5 0.5 0.5h1c0.276 0 0.5-0.224 0.5-0.5v-1c0-0.276-0.224-0.5-0.5-0.5h-1z" fill="#000"/><path d="m2 4.8c0-1.68 0-2.52 0.327-3.16 0.288-0.564 0.747-1.02 1.31-1.31 0.642-0.327 1.48-0.327 3.16-0.327h2.4c1.68 0 2.52 0 3.16 0.327 0.564 0.288 1.02 0.747 1.31 1.31 0.327 0.642 0.327 1.48 0.327 3.16v6.4c0 1.68 0 2.52-0.327 3.16-0.288 0.564-0.746 1.02-1.31 1.31-0.642 0.327-1.48 0.327-3.16 0.327h-2.4c-1.68 0-2.52 0-3.16-0.327-0.564-0.288-1.02-0.746-1.31-1.31-0.327-0.642-0.327-1.48-0.327-3.16v-6.4zm4.8-3.8h2.4c0.857 0 1.44 7.8e-4 1.89 0.0376 0.438 0.0358 0.663 0.101 0.819 0.18 0.376 0.192 0.682 0.498 0.874 0.874 0.0797 0.156 0.145 0.381 0.18 0.819 0.0368 0.45 0.0376 1.03 0.0376 1.89v6.4c0 0.857-8e-4 1.44-0.0376 1.89-0.0358 0.438-0.101 0.663-0.18 0.819-0.192 0.376-0.498 0.682-0.874 0.874-0.156 0.0797-0.381 0.145-0.819 0.18-0.45 0.0368-1.03 0.0376-1.89 0.0376h-2.4c-0.857 0-1.44-8e-4 -1.89-0.0376-0.438-0.0358-0.663-0.101-0.819-0.18-0.376-0.192-0.682-0.498-0.874-0.874-0.0797-0.156-0.145-0.381-0.18-0.819-0.0368-0.45-0.0376-1.03-0.0376-1.89v-6.4c0-0.857 7.8e-4 -1.44 0.0376-1.89 0.0358-0.438 0.101-0.663 0.18-0.819 0.192-0.376 0.498-0.682 0.874-0.874 0.156-0.0797 0.381-0.145 0.819-0.18 0.45-0.0368 1.03-0.0376 1.89-0.0376z" clip-rule="evenodd" fill="#000" fill-rule="evenodd"/></svg>
