<svg viewBox="0 0 16 16" xmlns="http://www.w3.org/2000/svg"><path d="m5.5 3c-0.276 0-0.5 0.224-0.5 0.5v1c0 0.276 0.224 0.5 0.5 0.5s0.5-0.224 0.5-0.5v-0.25c0-0.138 0.112-0.25 0.25-0.25h0.75v4h-0.5c-0.276 0-0.5 0.224-0.5 0.5s0.224 0.5 0.5 0.5h3c0.276 0 0.5-0.224 0.5-0.5s-0.224-0.5-0.5-0.5h-0.5v-4h0.75c0.138 0 0.25 0.112 0.25 0.25v0.25c0 0.276 0.224 0.5 0.5 0.5s0.5-0.224 0.5-0.5v-1c0-0.276-0.224-0.5-0.5-0.5h-5z" fill="#000"/><path d="m1.17 3.36c0.672-1.23 1.08-1.83 1.55-2.31 0.248-0.289 0.551-0.53 0.893-0.708 0.65-0.338 1.5-0.338 3.21-0.338h2.34c1.71 0 2.56 0 3.21 0.338 0.362 0.188 0.68 0.447 0.936 0.759 0.458 0.494 0.842 1.03 1.51 2.26l0.383 0.702c0.296 0.543 0.444 0.814 0.548 1.1 0.0884 0.244 0.153 0.497 0.192 0.754 0.0463 0.302 0.0463 0.611 0.0463 1.23v2.42c0 2.28 0 3.42-0.45 4.28-0.38 0.73-0.975 1.33-1.71 1.71-0.867 0.45-2.01 0.45-4.28 0.45h-3.12c-2.28 0-3.42 0-4.28-0.45-0.731-0.38-1.33-0.975-1.71-1.71-0.45-0.867-0.45-2.01-0.45-4.28v-2.42c0-0.618 0-0.927 0.0463-1.23 0.0394-0.257 0.104-0.509 0.192-0.754 0.104-0.287 0.252-0.558 0.548-1.1l0.383-0.702zm8-2.36h-2.34c-0.871 0-1.46 8e-4 -1.92 0.0388-0.445 0.037-0.673 0.104-0.831 0.186-0.365 0.19-0.663 0.488-0.853 0.853-0.0824 0.159-0.149 0.386-0.186 0.831-0.038 0.457-0.0388 1.05-0.0388 1.92v2.34c0 0.871 8e-4 1.46 0.0388 1.92 0.037 0.445 0.104 0.673 0.186 0.831 0.19 0.365 0.488 0.663 0.853 0.853 0.159 0.0824 0.386 0.149 0.831 0.186 0.457 0.038 1.05 0.0388 1.92 0.0388h2.34c0.871 0 1.46-8e-4 1.92-0.0388 0.446-0.037 0.673-0.104 0.831-0.186 0.365-0.19 0.663-0.488 0.853-0.853 0.0824-0.159 0.149-0.386 0.186-0.831 0.038-0.457 0.0388-1.05 0.0388-1.92v-2.34c0-0.871-8e-4 -1.46-0.0388-1.92-0.037-0.445-0.104-0.673-0.186-0.831-0.19-0.365-0.488-0.663-0.853-0.853-0.158-0.0824-0.386-0.149-0.831-0.186-0.457-0.038-1.05-0.0388-1.92-0.0388zm-7.51 3.54 0.338-0.62c-0.00256 0.275-0.00256 0.577-0.00256 0.913v2.34c0 1.71 0 2.56 0.338 3.21 0.285 0.548 0.731 0.995 1.28 1.28 0.65 0.338 1.5 0.338 3.21 0.338h2.34c1.71 0 2.56 0 3.21-0.338 0.548-0.285 0.995-0.731 1.28-1.28 0.338-0.65 0.338-1.5 0.338-3.21v-2.34c0-0.336 0-0.638-0.0026-0.913l0.338 0.62c0.31 0.569 0.413 0.764 0.485 0.962 0.0663 0.183 0.115 0.373 0.144 0.565 0.032 0.209 0.0347 0.43 0.0347 1.08v2.42c0 1.16-8e-4 1.96-0.0529 2.59-0.051 0.615-0.146 0.968-0.285 1.23-0.285 0.548-0.731 0.995-1.28 1.28-0.267 0.139-0.62 0.234-1.23 0.285-0.627 0.0521-1.43 0.0529-2.59 0.0529h-3.12c-1.16 0-1.96-8e-4 -2.59-0.0529-0.615-0.0511-0.968-0.146-1.23-0.285-0.548-0.285-0.995-0.731-1.28-1.28-0.139-0.267-0.234-0.62-0.285-1.23-0.0521-0.627-0.0529-1.43-0.0529-2.59v-2.42c0-0.648 0.00265-0.868 0.0347-1.08 0.0296-0.193 0.0778-0.382 0.144-0.565 0.0719-0.199 0.175-0.394 0.485-0.962z" clip-rule="evenodd" fill="#000" fill-rule="evenodd"/></svg>
