<svg fill="none" viewBox="0 0 16 16" xmlns="http://www.w3.org/2000/svg"><path d="m3.5 0c-1.38 0-2.5 1.12-2.5 2.5v12c0 0.828 0.672 1.5 1.5 1.5h12c0.276 0 0.5-0.224 0.5-0.5s-0.224-0.5-0.5-0.5-0.5-0.224-0.5-0.5v-2.59c0.583-0.206 1-0.762 1-1.41v-9c0-0.828-0.672-1.5-1.5-1.5h-10zm10 11c0.276 0 0.5-0.224 0.5-0.5v-9c0-0.276-0.224-0.5-0.5-0.5h-1.5v6c0 0.18-0.0969 0.346-0.254 0.435-0.157 0.0888-0.349 0.0863-0.504-0.00635l-2.24-1.35-2.24 1.35c-0.154 0.0927-0.347 0.0951-0.504 0.00635-0.157-0.0888-0.254-0.255-0.254-0.435v-6h-2.5c-0.828 0-1.5 0.672-1.5 1.5v8.59c0.156-0.0553 0.325-0.0854 0.5-0.0854h11zm-0.5 1v2.5c0 0.175 0.0301 0.344 0.0854 0.5h-10.6c-0.276 0-0.5-0.224-0.5-0.5v-2c0-0.276 0.224-0.5 0.5-0.5h10.5zm-6-11h4v5.12l-1.74-1.05c-0.158-0.095-0.356-0.095-0.514 0l-1.74 1.05v-5.12z" clip-rule="evenodd" fill="#000" fill-rule="evenodd"/></svg>
