<svg viewBox="0 0 16 16" xmlns="http://www.w3.org/2000/svg"><path d="m4.6 4h2.4c0.276 0 0.5 0.224 0.5 0.5s0.224 0.5 0.5 0.5 0.5-0.224 0.5-0.5 0.224-0.5 0.5-0.5h2.4c0.56 0 0.84 0 1.05 0.109 0.188 0.0959 0.341 0.249 0.437 0.437 0.109 0.214 0.109 0.494 0.109 1.05v0.8c0 0.56 0 0.84-0.109 1.05-0.0959 0.188-0.249 0.341-0.437 0.437-0.214 0.109-0.494 0.109-1.05 0.109h-6.8c-0.56 0-0.84 0-1.05-0.109-0.188-0.0959-0.341-0.249-0.437-0.437-0.109-0.214-0.109-0.494-0.109-1.05v-0.8c0-0.56 0-0.84 0.109-1.05 0.0959-0.188 0.249-0.341 0.437-0.437 0.214-0.109 0.494-0.109 1.05-0.109zm1.99 1h-1.99c-0.297 0-0.459 7.8e-4 -0.575 0.0103l-0.0132 0.00115-0.00115 0.0132c-0.00952 0.117-0.0103 0.279-0.0103 0.575v0.8c0 0.297 7.8e-4 0.459 0.0103 0.575l0.00115 0.0132 0.0132 0.00115c0.117 0.00952 0.279 0.0103 0.575 0.0103h6.8c0.296 0 0.459-7.8e-4 0.575-0.0103l0.0132-0.00115 0.0011-0.0132c0.0095-0.117 0.0103-0.279 0.0103-0.575v-0.8c0-0.297-8e-4 -0.459-0.0103-0.575l-0.0011-0.0132-0.0132-0.00115c-0.117-0.00952-0.279-0.0103-0.575-0.0103h-1.99c-0.206 0.583-0.762 1-1.41 1s-1.21-0.417-1.41-1z" clip-rule="evenodd" fill="#000" fill-rule="evenodd"/><path d="m7 10h-2.4c-0.56 0-0.84 0-1.05 0.109-0.188 0.0959-0.341 0.249-0.437 0.437-0.109 0.214-0.109 0.494-0.109 1.05v0.8c0 0.56 0 0.84 0.109 1.05 0.0959 0.188 0.249 0.341 0.437 0.437 0.214 0.109 0.494 0.109 1.05 0.109h6.8c0.56 0 0.84 0 1.05-0.109 0.188-0.0959 0.341-0.249 0.437-0.437 0.109-0.214 0.109-0.494 0.109-1.05v-0.8c0-0.56 0-0.84-0.109-1.05-0.0959-0.188-0.249-0.341-0.437-0.437-0.214-0.109-0.494-0.109-1.05-0.109h-2.4c-0.276 0-0.5 0.224-0.5 0.5s-0.224 0.5-0.5 0.5-0.5-0.224-0.5-0.5-0.224-0.5-0.5-0.5zm-2.4 1h1.99c0.206 0.583 0.762 1 1.41 1s1.21-0.417 1.41-1h1.99c0.296 0 0.459 8e-4 0.575 0.0103l0.0132 0.0011 0.0011 0.0132c0.0095 0.117 0.0103 0.279 0.0103 0.575v0.8c0 0.296-8e-4 0.459-0.0103 0.575l-0.0011 0.0132-0.0132 0.0011c-0.117 0.0095-0.279 0.0103-0.575 0.0103h-6.8c-0.297 0-0.459-8e-4 -0.575-0.0103l-0.0132-0.0011-0.00115-0.0132c-0.00952-0.117-0.0103-0.279-0.0103-0.575v-0.8c0-0.296 7.8e-4 -0.459 0.0103-0.575l0.00115-0.0132 0.0132-0.0011c0.117-0.0095 0.279-0.0103 0.575-0.0103z" clip-rule="evenodd" fill="#000" fill-rule="evenodd"/><path d="m1.06 2.36c-0.0553 0.23-0.0553 0.475-0.0553 0.964v9.47c0 1.12 0 1.68 0.218 2.11 0.192 0.376 0.498 0.682 0.874 0.874 0.428 0.218 0.988 0.218 2.11 0.218h7.6c1.12 0 1.68 0 2.11-0.218 0.376-0.192 0.682-0.498 0.874-0.874 0.218-0.428 0.218-0.988 0.218-2.11v-9.47c0-0.489 0-0.734-0.0553-0.964-0.049-0.204-0.13-0.399-0.239-0.578-0.124-0.202-0.297-0.375-0.643-0.721l-0.125-0.125c-0.346-0.346-0.519-0.519-0.721-0.643-0.179-0.11-0.374-0.19-0.578-0.239-0.23-0.0553-0.475-0.0553-0.964-0.0553h-7.35c-0.489 0-0.734 0-0.964 0.0553-0.204 0.049-0.399 0.13-0.578 0.239-0.202 0.124-0.375 0.297-0.721 0.643l-0.125 0.125c-0.346 0.346-0.519 0.519-0.643 0.721-0.11 0.179-0.19 0.374-0.239 0.578zm12.9 10.4v-9.47c0-0.537-0.0064-0.642-0.0276-0.73-0.0245-0.102-0.0649-0.2-0.12-0.289-0.0474-0.0774-0.117-0.157-0.497-0.536l-0.125-0.125c-0.38-0.38-0.459-0.45-0.536-0.497-0.0895-0.0548-0.187-0.0952-0.289-0.12-0.0883-0.0212-0.194-0.0276-0.73-0.0276h-7.35c-0.537 0-0.642 0.00643-0.73 0.0276-0.102 0.0245-0.2 0.0649-0.289 0.12-0.0774 0.0475-0.157 0.117-0.536 0.497l-0.125 0.125c-0.38 0.38-0.45 0.459-0.497 0.536-0.0548 0.0895-0.0952 0.187-0.12 0.289-0.0212 0.0883-0.0276 0.194-0.0276 0.73v9.47c0 0.577 7.8e-4 0.949 0.0239 1.23 0.0222 0.272 0.0599 0.372 0.0851 0.422 0.0959 0.188 0.249 0.341 0.437 0.437 0.0494 0.0252 0.15 0.0629 0.422 0.0851 0.283 0.0231 0.656 0.0239 1.23 0.0239h7.6c0.577 0 0.949-8e-4 1.23-0.0239 0.272-0.0222 0.372-0.0599 0.422-0.0851 0.188-0.0959 0.341-0.249 0.437-0.437 0.0252-0.0495 0.0629-0.15 0.0851-0.422 0.0231-0.283 0.0239-0.656 0.0239-1.23z" clip-rule="evenodd" fill="#000" fill-rule="evenodd"/></svg>
