<svg viewBox="0 0 16 16" xmlns="http://www.w3.org/2000/svg"><path d="m10 0.5c0-0.276-0.224-0.5-0.5-0.5-0.276 0-0.5 0.224-0.5 0.5v9c0 0.276 0.224 0.5 0.5 0.5 0.276 0 0.5-0.224 0.5-0.5v-0.309c0.196 0.175 0.416 0.326 0.658 0.447 1.99 0.997 4.34-0.453 4.34-2.68v-0.91c0-2.23-2.35-3.68-4.34-2.68-0.242 0.121-0.462 0.272-0.658 0.447v-3.31zm0 5.55v0.91c0 0.758 0.428 1.45 1.11 1.79 1.33 0.665 2.89-0.302 2.89-1.79v-0.91c0-1.49-1.56-2.45-2.89-1.79-0.678 0.339-1.11 1.03-1.11 1.79z" clip-rule="evenodd" fill="#000" fill-rule="evenodd"/><path d="m3.62 3c-0.875 0-1.67 0.494-2.07 1.28-0.123 0.247-0.0234 0.547 0.224 0.671 0.247 0.124 0.547 0.0234 0.671-0.224 0.222-0.443 0.675-0.724 1.17-0.724h0.882c0.828 0 1.5 0.672 1.5 1.5v0.5h-3c-1.1 0-2 0.895-2 2s0.895 2 2 2h1.5c0.563 0 1.08-0.186 1.5-0.5 1e-4 0.276 0.224 0.5 0.5 0.5 0.276 0 0.5-0.224 0.5-0.5v-4c0-1.38-1.12-2.5-2.5-2.5h-0.882zm-1.62 5c0-0.552 0.448-1 1-1h3v0.5c0 0.828-0.672 1.5-1.5 1.5h-1.5c-0.552 0-1-0.448-1-1z" clip-rule="evenodd" fill="#000" fill-rule="evenodd"/><path d="m7.54 13.3c0.167-0.422 0.763-0.422 0.929 0l0.683 1.73c0.492 1.24 2.24 1.27 2.77 0.0449l0.768-1.77c0.162-0.374 0.677-0.408 0.887-0.0588l1.5 2.5c0.142 0.237 0.45 0.314 0.686 0.171 0.237-0.143 0.313-0.451 0.17-0.688l-1.5-2.5c-0.629-1.05-2.17-0.944-2.66 0.176l-0.768 1.77c-0.177 0.409-0.759 0.4-0.923-0.015l-0.683-1.73c-0.501-1.27-2.29-1.27-2.79 0l-0.683 1.73c-0.164 0.415-0.746 0.424-0.923 0.015l-0.768-1.77c-0.486-1.12-2.03-1.22-2.66-0.176l-1.5 2.5c-0.142 0.237-0.0663 0.545 0.17 0.688 0.237 0.143 0.544 0.0665 0.686-0.171l1.5-2.5c0.21-0.349 0.725-0.315 0.887 0.0588l0.768 1.77c0.532 1.23 2.28 1.2 2.77-0.0449l0.683-1.73z" fill="#000"/></svg>
