<svg viewBox="0 0 16 16" xmlns="http://www.w3.org/2000/svg"><path d="m4.5 5c-0.276 0-0.5 0.224-0.5 0.5s0.224 0.5 0.5 0.5h7c0.276 0 0.5-0.224 0.5-0.5s-0.224-0.5-0.5-0.5h-7z" fill="#000"/><path d="m4 8.5c0-0.276 0.224-0.5 0.5-0.5h7c0.276 0 0.5 0.224 0.5 0.5s-0.224 0.5-0.5 0.5h-7c-0.276 0-0.5-0.224-0.5-0.5z" fill="#000"/><path d="m4.5 11c-0.276 0-0.5 0.224-0.5 0.5s0.224 0.5 0.5 0.5h4c0.276 0 0.5-0.224 0.5-0.5s-0.224-0.5-0.5-0.5h-4z" fill="#000"/><path d="m3.5 0c-0.276 0-0.5 0.224-0.5 0.5v0.683c-0.129 0.0392-0.249 0.0867-0.362 0.144-0.564 0.288-1.02 0.747-1.31 1.31-0.327 0.642-0.327 1.48-0.327 3.16v5.4c0 1.68 0 2.52 0.327 3.16 0.288 0.564 0.747 1.02 1.31 1.31 0.642 0.327 1.48 0.327 3.16 0.327h4.4c1.68 0 2.52 0 3.16-0.327 0.564-0.288 1.02-0.746 1.31-1.31 0.327-0.642 0.327-1.48 0.327-3.16v-5.4c0-1.68 0-2.52-0.327-3.16-0.288-0.564-0.746-1.02-1.31-1.31-0.113-0.0577-0.233-0.105-0.362-0.144v-0.683c0-0.276-0.224-0.5-0.5-0.5s-0.5 0.224-0.5 0.5v0.529c-0.471-0.0288-1.05-0.0288-1.8-0.0288h-0.2v-0.5c0-0.276-0.224-0.5-0.5-0.5s-0.5 0.224-0.5 0.5v0.5h-2v-0.5c0-0.276-0.224-0.5-0.5-0.5s-0.5 0.224-0.5 0.5v0.5h-0.2c-0.747 0-1.33 0-1.8 0.0288v-0.529c0-0.276-0.224-0.5-0.5-0.5zm5.5 2.5v-0.5h-2v0.5c0 0.276-0.224 0.5-0.5 0.5s-0.5-0.224-0.5-0.5v-0.5h-0.2c-0.801 0-1.36 6.8e-4 -1.8 0.0309v0.469c0 0.276-0.224 0.5-0.5 0.5s-0.5-0.224-0.5-0.5v-0.232c-0.334 0.193-0.606 0.479-0.782 0.824-0.0797 0.156-0.145 0.381-0.18 0.819-0.0368 0.45-0.0376 1.03-0.0376 1.89v5.4c0 0.857 7.8e-4 1.44 0.0376 1.89 0.0358 0.438 0.101 0.663 0.18 0.819 0.192 0.376 0.498 0.682 0.874 0.874 0.156 0.0797 0.381 0.145 0.819 0.18 0.45 0.0368 1.03 0.0376 1.89 0.0376h4.4c0.857 0 1.44-8e-4 1.89-0.0376 0.438-0.0358 0.663-0.101 0.819-0.18 0.376-0.192 0.682-0.498 0.874-0.874 0.0797-0.156 0.145-0.381 0.18-0.819 0.0368-0.45 0.0376-1.03 0.0376-1.89v-5.4c0-0.857-8e-4 -1.44-0.0376-1.89-0.0358-0.438-0.101-0.663-0.18-0.819-0.176-0.345-0.448-0.631-0.782-0.824v0.232c0 0.276-0.224 0.5-0.5 0.5s-0.5-0.224-0.5-0.5v-0.469c-0.438-0.0302-0.999-0.0309-1.8-0.0309h-0.2v0.5c0 0.276-0.224 0.5-0.5 0.5s-0.5-0.224-0.5-0.5z" clip-rule="evenodd" fill="#000" fill-rule="evenodd"/></svg>
