<svg fill="none" viewBox="0 0 16 16" xmlns="http://www.w3.org/2000/svg"><path d="m7 2.5c0 1.21-0.859 2.22-2 2.45v4.32c0.149-0.0863 0.311-0.154 0.482-0.2 0.256-0.0686 0.551-0.0684 0.949-0.0682l3.07 2e-5c0.497 0 0.648-0.00429 0.759-0.0341 0.345-0.0925 0.615-0.362 0.707-0.707 0.0179-0.0668 0.0266-0.148 0.0307-0.31-1.14-0.233-2-1.24-2-2.45 0-1.38 1.12-2.5 2.5-2.5s2.5 1.12 2.5 2.5c0 1.21-0.86 2.22-2 2.45-0.0053 0.217-0.0208 0.401-0.0654 0.567-0.185 0.69-0.724 1.23-1.41 1.41-0.256 0.0686-0.551 0.0684-0.949 0.0682h-3.07c-0.497 0-0.648 0.0043-0.759 0.0341-0.345 0.0924-0.615 0.362-0.707 0.707-0.0179 0.0667-0.0266 0.148-0.0307 0.31 1.14 0.233 2 1.24 2 2.45 0 1.38-1.12 2.5-2.5 2.5s-2.5-1.12-2.5-2.5c0-1.21 0.859-2.22 2-2.45v-6.1c-1.14-0.232-2-1.24-2-2.45 0-1.38 1.12-2.5 2.5-2.5s2.5 1.12 2.5 2.5zm-2.5 1.5c0.828 0 1.5-0.672 1.5-1.5s-0.672-1.5-1.5-1.5-1.5 0.672-1.5 1.5 0.672 1.5 1.5 1.5zm7 3c0.828 0 1.5-0.672 1.5-1.5s-0.672-1.5-1.5-1.5-1.5 0.672-1.5 1.5 0.672 1.5 1.5 1.5zm-5.5 6.5c0 0.828-0.672 1.5-1.5 1.5s-1.5-0.672-1.5-1.5 0.672-1.5 1.5-1.5 1.5 0.672 1.5 1.5z" clip-rule="evenodd" fill="#000" fill-rule="evenodd"/></svg>
