<svg fill="none" viewBox="0 0 16 16" xmlns="http://www.w3.org/2000/svg"><path d="m8 2.5c0-0.276-0.224-0.5-0.5-0.5s-0.5 0.224-0.5 0.5v3.79l-2.65-2.65c-0.195-0.195-0.512-0.195-0.707 0-0.195 0.195-0.195 0.512 0 0.707l2.65 2.65h-3.79c-0.276 0-0.5 0.224-0.5 0.5s0.224 0.5 0.5 0.5h3.79l-2.65 2.65c-0.195 0.195-0.195 0.512 0 0.707 0.195 0.195 0.512 0.195 0.707 0l2.65-2.65v3.79c0 0.276 0.224 0.5 0.5 0.5s0.5-0.224 0.5-0.5v-3.79l2.65 2.65c0.195 0.195 0.512 0.195 0.707 0 0.195-0.195 0.195-0.512 0-0.707l-2.65-2.65h3.79c0.276 0 0.5-0.224 0.5-0.5s-0.224-0.5-0.5-0.5h-3.79l2.65-2.65c0.195-0.195 0.195-0.512 0-0.707-0.195-0.195-0.512-0.195-0.707 0l-2.65 2.65v-3.79z" fill="#000"/></svg>
