<svg fill="none" viewBox="0 0 16 16" xmlns="http://www.w3.org/2000/svg"><path d="m2 2.4c0-0.84 0-1.26 0.163-1.58 0.144-0.282 0.373-0.512 0.656-0.656 0.321-0.164 0.741-0.164 1.58-0.164h7.2c0.84 0 1.26 0 1.58 0.164 0.282 0.144 0.512 0.373 0.656 0.656 0.164 0.321 0.164 0.741 0.164 1.58v11.7c0 0.803 0 1.2-0.169 1.46-0.148 0.221-0.377 0.374-0.637 0.425-0.298 0.0588-0.668-0.0956-1.41-0.404l-3.17-1.41c-0.227-0.0947-0.341-0.142-0.458-0.161-0.0508-0.0081-0.102-0.0122-0.153-0.0124-0.0539-3e-4 -0.108 0.0039-0.161 0.0124-0.118 0.0187-0.231 0.066-0.458 0.161l-3.17 1.41c-0.741 0.309-1.11 0.463-1.41 0.404-0.26-0.0515-0.49-0.204-0.637-0.425-0.169-0.252-0.169-0.654-0.169-1.46v-11.7z" fill="#000"/></svg>
