<svg fill="none" viewBox="0 0 16 16" xmlns="http://www.w3.org/2000/svg"><path d="m14.4 2.22c0.3-0.239 0.711-0.285 1.06-0.119 0.346 0.167 0.566 0.517 0.566 0.901v10c0 0.384-0.22 0.735-0.566 0.901-0.346 0.166-0.758 0.12-1.06-0.12-0.0017-0.0013-0.0043-4e-3 -0.0068-0.0059-0.0118-0.0089-0.0326-0.0247-0.0625-0.0459-0.0605-0.0429-0.158-0.109-0.291-0.19-0.266-0.164-0.673-0.389-1.21-0.617-1.08-0.456-2.7-0.922-4.8-0.922-2.9 0-4.89 0.892-5.81 1.42-0.117 0.0669-0.252 0.145-0.367 0.2-0.0709 0.0341-0.358 0.18-0.71 0.142-0.357-0.0387-0.667-0.219-0.878-0.51-0.203-0.281-0.222-0.591-0.229-0.677-0.00936-0.126-0.00879-0.278-0.00879-0.403v-8.34c-1.09e-6 -0.126-5.72e-4 -0.278 0.00879-0.403 0.00641-0.0859 0.0251-0.396 0.229-0.677l0.084-0.104c0.205-0.23 0.482-0.371 0.794-0.405l0.129-0.00586c0.292 0.00276 0.519 0.118 0.581 0.147 0.115 0.0554 0.25 0.133 0.367 0.2 0.918 0.524 2.9 1.42 5.81 1.42 2.1 0 3.72-0.466 4.8-0.922 0.542-0.228 0.949-0.454 1.21-0.617 0.133-0.0817 0.23-0.148 0.291-0.19 0.0299-0.0212 0.0507-0.037 0.0625-0.0459l0.0088-0.00684zm0.623 0.782s-2.5 2-7 2c-2.72 0-4.72-0.733-5.86-1.31l-0.439-0.236c-0.262-0.15-0.394-0.225-0.475-0.216-0.0753 0.00825-0.13 0.0403-0.175 0.102-0.0475 0.0656-0.0478 0.209-0.0478 0.494v8.34l0.00586 0.329c0.00593 0.0796 0.0182 0.132 0.042 0.165 0.0334 0.046 0.0727 0.0755 0.122 0.0908l0.0527 0.0108c0.0403 0.0043 0.0934-0.0125 0.169-0.0488l0.306-0.167c1.03-0.59 3.19-1.55 6.3-1.55 4.49 0 6.99 1.99 7 2v-10z" clip-rule="evenodd" fill="#000" fill-rule="evenodd"/></svg>
