<svg fill="none" viewBox="0 0 16 16" xmlns="http://www.w3.org/2000/svg"><path d="m8 2c2.4 0 4.28 0.534 5.58 1.08 0.645 0.272 1.14 0.546 1.49 0.758 0.171 0.106 0.305 0.196 0.398 0.263 0.0467 0.0331 0.0842 0.0606 0.111 0.0811 0.0134 0.0101 0.0247 0.0188 0.0332 0.0254 0.0041 0.00318 0.0078 0.00645 0.0108 0.00879l0.0039 0.00293 0.0019 9.7e-4c0.237 0.19 0.377 0.478 0.377 0.782v8c0 0.384-0.22 0.735-0.566 0.901-0.346 0.166-0.759 0.12-1.06-0.12-0.0017-0.0013-0.0044-4e-3 -0.0069-0.0058-0.0118-0.0089-0.0328-0.0249-0.0625-0.0459-0.0605-0.0429-0.158-0.109-0.291-0.19-0.266-0.164-0.674-0.389-1.21-0.617-1.08-0.456-2.7-0.922-4.8-0.922-2.9 1e-4 -4.89 0.892-5.81 1.42-0.117 0.0668-0.252 0.145-0.367 0.2-0.0715 0.0344-0.358 0.18-0.71 0.142-0.357-0.0388-0.667-0.219-0.878-0.51-0.203-0.281-0.222-0.591-0.229-0.677-0.00936-0.126-0.00879-0.278-0.00879-0.403v-6.98c0-0.0186-0.00908-0.219 0.0518-0.424l0.04-0.112c0.0455-0.112 0.107-0.219 0.182-0.312l0.102-0.111c0.1-0.0974 0.193-0.157 0.208-0.167 0.719-0.5 3.3-2.07 7.42-2.07zm0 1c-3.85 1.2e-4 -6.24 1.47-6.85 1.89-0.0503 0.035-0.076 0.0529-0.0986 0.081-0.0186 0.0233-0.0354 0.0564-0.044 0.085-0.0103 0.0348-0.0107 0.0698-0.0107 0.139v6.98l0.00586 0.329c0.00593 0.0794 0.0183 0.132 0.042 0.165 0.0333 0.0459 0.0729 0.0755 0.122 0.0908l0.0527 0.0108c0.0402 0.0043 0.0936-0.0127 0.169-0.0489l0.306-0.167c1.03-0.59 3.19-1.55 6.3-1.55 4.47 0 6.97 1.98 7 2v-8c-0.0313-0.0248-2.53-2-7-2z" clip-rule="evenodd" fill="#000" fill-rule="evenodd"/></svg>
