<svg fill="none" viewBox="0 0 16 16" xmlns="http://www.w3.org/2000/svg"><path d="m10.8 0.661c1.08-0.881 2.64-0.881 3.72 0 0.128 0.105 0.258 0.236 0.407 0.385 0.149 0.149 0.28 0.279 0.385 0.408 0.88 1.08 0.881 2.64 9e-4 3.72-0.0554 0.0682-0.114 0.132-0.176 0.196l-0.207 0.209-2.42 2.42 2.42 2.42 0.197 0.199 0.0097 0.0098c0.0558 0.0577 0.116 0.123 0.175 0.195 0.881 1.08 0.881 2.64 0 3.72-0.105 0.129-0.236 0.258-0.385 0.407-0.149 0.149-0.279 0.28-0.407 0.385-1.08 0.881-2.64 0.881-3.72 0-0.129-0.104-0.258-0.236-0.407-0.385l-2.42-2.42-2.42 2.42c-0.153 0.153-0.28 0.281-0.408 0.385-1.08 0.88-2.64 0.881-3.72 1e-3l-9.8e-4 -1e-3c-0.129-0.104-0.258-0.236-0.407-0.385-0.149-0.149-0.28-0.279-0.385-0.407-0.881-1.08-0.881-2.64 0-3.72 0.104-0.129 0.236-0.258 0.385-0.407l2.42-2.42-2.42-2.42c-0.153-0.153-0.281-0.28-0.385-0.408-0.88-1.08-0.881-2.64 0-3.72 0.105-0.129 0.236-0.259 0.385-0.408 0.149-0.149 0.279-0.28 0.408-0.385 1.08-0.881 2.64-0.881 3.72-9.76e-4 0.128 0.104 0.256 0.233 0.408 0.386l2.42 2.42 2.42-2.42 0.211-0.209c0.0672-0.0647 0.132-0.123 0.196-0.176zm3.09 0.775c-0.717-0.582-1.74-0.582-2.46 0-0.0782 0.0635-0.163 0.148-0.331 0.316l-3.12 3.12-3.12-3.12c-0.168-0.168-0.254-0.253-0.332-0.316-0.717-0.582-1.74-0.582-2.46 0-0.0782 0.0636-0.163 0.148-0.331 0.316-0.168 0.168-0.253 0.253-0.316 0.331-0.582 0.717-0.582 1.74 0 2.46 0.0635 0.0782 0.148 0.164 0.316 0.332l3.12 3.12-3.12 3.12c-0.168 0.168-0.253 0.253-0.316 0.331l-0.102 0.138c-0.478 0.706-0.445 1.65 0.102 2.32 0.0636 0.0782 0.148 0.163 0.316 0.331 0.168 0.168 0.253 0.253 0.331 0.316 0.672 0.546 1.62 0.579 2.32 0.102l0.138-0.102c0.0392-0.0318 0.0806-0.0689 0.133-0.119l0.199-0.197 3.12-3.12 3.12 3.12c0.168 0.168 0.253 0.253 0.331 0.316 0.672 0.546 1.62 0.58 2.32 0.102l0.138-0.102c0.0392-0.0318 0.0799-0.0689 0.132-0.119l0.199-0.197c0.0841-0.0841 0.147-0.147 0.197-0.199l0.119-0.132c0.546-0.672 0.58-1.62 0.102-2.32l-0.102-0.138-0.119-0.132-0.197-0.199-3.12-3.12 3.12-3.12 0.197-0.199 0.119-0.133c0.546-0.672 0.579-1.62 0.102-2.32l-0.102-0.138c-0.0318-0.0391-0.069-0.0799-0.119-0.132l-0.197-0.199c-0.0842-0.0841-0.147-0.147-0.199-0.197l-0.132-0.119z" fill="#000"/></svg>
