<svg fill="none" viewBox="0 0 16 16" xmlns="http://www.w3.org/2000/svg"><path d="m8.35 0.395 5.5 2.57c0.345 0.161 0.637 0.417 0.841 0.738 0.204 0.321 0.313 0.694 0.313 1.07v5.95c1e-4 0.381-0.108 0.754-0.313 1.07-0.204 0.321-0.496 0.577-0.841 0.738l-5.5 2.57c-0.265 0.124-0.554 0.188-0.846 0.188s-0.581-0.0641-0.846-0.188l-5.5-2.57c-0.345-0.161-0.637-0.417-0.841-0.738-0.204-0.321-0.313-0.694-0.313-1.07v-5.95c-3.31e-4 -0.381 0.108-0.754 0.313-1.08s0.496-0.578 0.841-0.739l5.5-2.57c0.265-0.124 0.554-0.188 0.846-0.188s0.581 0.0641 0.846 0.188v1e-3zm-7.35 4.38v5.95c3e-5 0.19 0.0543 0.377 0.157 0.537s0.248 0.288 0.42 0.369l5.42 2.53v-6.84l-5.98-2.76c-0.015 0.0703-0.0224 0.142-0.022 0.214zm13-0.213-5.98 2.76v6.84l5.42-2.53c0.173-0.0805 0.318-0.209 0.421-0.369 0.102-0.161 0.156-0.347 0.156-0.538v-5.95c0-0.0716-0.0077-0.143-0.023-0.213zm-6.9-3.26-5.34 2.49 5.76 2.66 5.76-2.66-5.34-2.49c-0.132-0.0618-0.277-0.0939-0.423-0.0939-0.146 0-0.291 0.032-0.423 0.0939v1e-3z" fill="#000"/></svg>
