<svg fill="none" viewBox="0 0 16 16" xmlns="http://www.w3.org/2000/svg"><path d="m6.51 0.714c0.534-0.392 0.801-0.588 1.09-0.664 0.258-0.0668 0.529-0.0668 0.787 0 0.292 0.0757 0.56 0.272 1.09 0.664l0.677 0.497c0.185 0.136 0.278 0.204 0.378 0.257 0.089 0.0474 0.182 0.086 0.279 0.116 0.109 0.0332 0.222 0.0506 0.449 0.0854l0.83 0.127c0.655 0.1 0.982 0.151 1.24 0.304 0.23 0.135 0.422 0.327 0.557 0.557 0.153 0.26 0.203 0.588 0.304 1.24l0.127 0.83c0.0348 0.227 0.0522 0.341 0.0854 0.449 0.0295 0.0964 0.0681 0.19 0.116 0.279 0.0534 0.1 0.121 0.193 0.257 0.378l0.497 0.677c0.392 0.534 0.588 0.801 0.664 1.09 0.0668 0.258 0.0668 0.529 0 0.787-0.0757 0.292-0.272 0.56-0.664 1.09l-0.497 0.677c-0.136 0.185-0.204 0.278-0.257 0.378-0.0474 0.089-0.086 0.182-0.116 0.279-0.0332 0.109-0.0506 0.222-0.0854 0.449l-0.127 0.83c-0.1 0.655-0.151 0.982-0.304 1.24-0.135 0.23-0.327 0.422-0.557 0.557-0.26 0.153-0.588 0.203-1.24 0.304l-0.83 0.127c-0.227 0.0348-0.341 0.0522-0.449 0.0854-0.0965 0.0295-0.19 0.0681-0.279 0.116-0.1 0.0534-0.193 0.121-0.378 0.257l-0.677 0.497c-0.534 0.392-0.801 0.588-1.09 0.664-0.258 0.0668-0.529 0.0668-0.787 0-0.292-0.0757-0.56-0.272-1.09-0.664l-0.677-0.497c-0.185-0.136-0.278-0.204-0.378-0.257-0.089-0.0474-0.182-0.086-0.279-0.116-0.109-0.0332-0.222-0.0506-0.449-0.0854l-0.83-0.127c-0.655-0.1-0.983-0.151-1.24-0.304-0.23-0.135-0.421-0.327-0.557-0.557-0.153-0.26-0.203-0.588-0.304-1.24l-0.127-0.83c-0.0348-0.227-0.0522-0.341-0.0854-0.449-0.0295-0.0965-0.0681-0.19-0.116-0.279-0.0533-0.1-0.121-0.193-0.257-0.378l-0.497-0.677c-0.392-0.534-0.588-0.801-0.664-1.09-0.0668-0.258-0.0668-0.529 0-0.787 0.0757-0.292 0.272-0.56 0.664-1.09l0.497-0.677c0.136-0.185 0.204-0.278 0.257-0.378 0.0474-0.089 0.086-0.182 0.116-0.279 0.0332-0.109 0.0506-0.222 0.0854-0.449l0.127-0.83c0.1-0.655 0.151-0.983 0.304-1.24 0.135-0.23 0.327-0.421 0.557-0.557 0.26-0.153 0.588-0.203 1.24-0.304l0.83-0.127c0.227-0.0348 0.341-0.0522 0.449-0.0854 0.0964-0.0295 0.19-0.0681 0.279-0.116 0.1-0.0533 0.193-0.121 0.378-0.257l0.677-0.497z" fill="#000"/></svg>
