<svg fill="none" viewBox="0 0 16 16" xmlns="http://www.w3.org/2000/svg"><path d="m0 4.4c0-0.84 0-1.26 0.163-1.58 0.144-0.282 0.373-0.512 0.656-0.656 0.321-0.163 0.741-0.163 1.58-0.163h1.2c0.84 0 1.26 0 1.58 0.163 0.204 0.104 0.38 0.252 0.516 0.432l0.45-0.449c0.195-0.195 0.512-0.195 0.707 0l0.646 0.646 0.646-0.646c0.195-0.195 0.512-0.195 0.707 0l0.646 0.646 0.646-0.646c0.195-0.195 0.512-0.195 0.707 0l0.45 0.449c0.136-0.18 0.312-0.329 0.516-0.432 0.321-0.163 0.741-0.163 1.58-0.163h0.2c0.84 0 1.26 0 1.58 0.163 0.282 0.144 0.512 0.373 0.656 0.656 0.164 0.321 0.164 0.741 0.164 1.58v7.2c0 0.84 0 1.26-0.164 1.58-0.144 0.282-0.373 0.512-0.656 0.656-0.321 0.164-0.741 0.164-1.58 0.164h-0.2c-0.84 0-1.26 0-1.58-0.164-0.204-0.104-0.38-0.252-0.516-0.432l-0.45 0.45c-0.195 0.195-0.512 0.195-0.707 0l-0.646-0.646-0.646 0.646c-0.195 0.195-0.512 0.195-0.707 0l-0.646-0.646-0.646 0.646c-0.195 0.195-0.512 0.195-0.707 0l-0.45-0.45c-0.136 0.18-0.312 0.329-0.516 0.432-0.321 0.164-0.741 0.164-1.58 0.164h-1.2c-0.84 0-1.26 0-1.58-0.164-0.282-0.144-0.512-0.373-0.656-0.656-0.163-0.321-0.163-0.741-0.163-1.58v-7.2zm2.4-1.4h1.2c0.437 0 0.704 7.8e-4 0.904 0.0171 0.0932 0.00761 0.15 0.0172 0.184 0.0252 0.0163 0.00383 0.0263 0.00704 0.0317 0.00898 0.0052 0.00185 0.00779 0.00317 0.00779 0.00317 0.0941 0.0479 0.171 0.124 0.218 0.218 0 0 0.00132 0.00259 0.00317 0.00779 0.00194 0.00541 0.00515 0.0154 0.00898 0.0317 0.00806 0.0342 0.0176 0.0906 0.0252 0.184 0.0163 0.2 0.0171 0.467 0.0171 0.904v7.2c0 0.436-7.8e-4 0.704-0.0171 0.904-0.00761 0.0931-0.0172 0.15-0.0252 0.184-0.00383 0.0163-0.00704 0.0263-0.00898 0.0317-0.00185 0.0052-0.00317 0.0078-0.00317 0.0078-0.0479 0.0941-0.124 0.171-0.218 0.218 0 0-0.00259 0.0013-0.00779 0.0032-0.00541 0.0019-0.0154 0.0051-0.0317 9e-3 -0.0342 8e-3 -0.0906 0.0176-0.184 0.0252-0.2 0.0163-0.467 0.0171-0.904 0.0171h-1.2c-0.437 0-0.704-8e-4 -0.904-0.0171-0.0932-0.0076-0.15-0.0172-0.184-0.0252-0.0163-0.0039-0.0263-0.0071-0.0317-9e-3 -0.0052-0.0019-0.00779-0.0032-0.00779-0.0032-0.0941-0.0479-0.171-0.124-0.218-0.218 0 0-0.00132-0.0026-0.00317-0.0078-0.00194-0.0054-0.00515-0.0154-0.00898-0.0317-0.00806-0.0342-0.0176-0.0906-0.0252-0.184-0.0163-0.2-0.0171-0.467-0.0171-0.904v-0.6h1.6c0.14 0 0.21 0 0.264-0.0272 0.047-0.024 0.0853-0.0623 0.109-0.109 0.0272-0.0535 0.0272-0.124 0.0272-0.264v-0.2c0-0.14 0-0.21-0.0272-0.264-0.024-0.047-0.0622-0.0853-0.109-0.109-0.0535-0.0272-0.123-0.0272-0.264-0.0272h-1.6v-1h1.6c0.14 0 0.21 0 0.264-0.0272 0.047-0.024 0.0853-0.0622 0.109-0.109 0.0272-0.0535 0.0272-0.123 0.0272-0.264v-0.2c0-0.14 0-0.21-0.0272-0.264-0.024-0.047-0.0622-0.0853-0.109-0.109-0.0535-0.0272-0.123-0.0272-0.264-0.0272h-1.6v-1h1.6c0.14 0 0.21 0 0.264-0.0272 0.047-0.024 0.0853-0.0622 0.109-0.109 0.0272-0.0535 0.0272-0.123 0.0272-0.264v-0.2c0-0.14 0-0.21-0.0272-0.264-0.024-0.047-0.0622-0.0853-0.109-0.109-0.0535-0.0272-0.123-0.0272-0.264-0.0272h-1.6v-1h1.6c0.14 0 0.21 0 0.264-0.0272 0.047-0.024 0.0853-0.0622 0.109-0.109 0.0272-0.0535 0.0272-0.123 0.0272-0.264v-0.2c0-0.14 0-0.21-0.0272-0.264-0.024-0.047-0.0622-0.0853-0.109-0.109-0.0535-0.0272-0.123-0.0272-0.264-0.0272h-1.6c0.00152-0.215 0.00557-0.374 0.0162-0.504 0.00761-0.0932 0.0172-0.15 0.0252-0.184 0.00383-0.0163 0.00704-0.0263 0.00898-0.0317 0.00185-0.0052 0.00317-0.00779 0.00317-0.00779 0.0479-0.0941 0.124-0.171 0.218-0.218 0 0 0.00259-0.00132 0.00779-0.00317 0.00541-0.00194 0.0154-0.00515 0.0317-0.00898 0.0342-0.00806 0.0906-0.0176 0.184-0.0252 0.2-0.0163 0.467-0.0171 0.904-0.0171zm3.59 9.29 0.505 0.505 0.646-0.646c0.195-0.195 0.512-0.195 0.707 0l0.646 0.646 0.646-0.646c0.195-0.195 0.512-0.195 0.707 0l0.646 0.646 0.505-0.505c-0.0053-0.193-0.0053-0.419-0.0053-0.688v-7.2c0-0.269 0-0.494 0.0053-0.688l-0.505-0.505-0.646 0.646c-0.195 0.195-0.512 0.195-0.707 0l-0.646-0.646-0.646 0.646c-0.195 0.195-0.512 0.195-0.707 0l-0.646-0.646-0.505 0.505c0.00535 0.193 0.00535 0.419 0.00535 0.688v7.2c0 0.269 0 0.494-0.00535 0.688zm7.41-9.29h0.2c0.436 0 0.704 7.8e-4 0.904 0.0171 0.0931 0.00761 0.15 0.0172 0.184 0.0252 0.0163 0.00383 0.0263 0.00704 0.0317 0.00898 0.0052 0.00185 0.0078 0.00317 0.0078 0.00317 0.0941 0.0479 0.171 0.124 0.218 0.218 0 0 0.0013 0.00259 0.0032 0.00779 0.0019 0.00541 0.0051 0.0154 9e-3 0.0317 8e-3 0.0342 0.0176 0.0906 0.0252 0.184 0.0163 0.2 0.0171 0.467 0.0171 0.904v7.2c0 0.436-8e-4 0.704-0.0171 0.904-0.0076 0.0931-0.0172 0.15-0.0252 0.184-0.0039 0.0163-0.0071 0.0263-9e-3 0.0317l-0.0017 0.0044-1e-3 0.0023-5e-4 0.0011c-0.0479 0.0941-0.124 0.171-0.218 0.218l-0.0017 8e-4 -0.0061 0.0024c-0.0054 0.0019-0.0154 0.0051-0.0317 9e-3 -0.0342 8e-3 -0.0906 0.0176-0.184 0.0252-0.2 0.0163-0.467 0.0171-0.904 0.0171h-0.2c-0.436 0-0.704-8e-4 -0.904-0.0171-0.0931-0.0076-0.15-0.0172-0.184-0.0252-0.0163-0.0039-0.0263-0.0071-0.0317-9e-3 -0.0052-0.0019-0.0078-0.0032-0.0078-0.0032-0.0941-0.0479-0.171-0.124-0.218-0.218 0 0-0.0013-0.0026-0.0032-0.0078-0.0019-0.0054-0.0051-0.0154-9e-3 -0.0317-8e-3 -0.0342-0.0176-0.0906-0.0252-0.184-0.0163-0.2-0.0171-0.467-0.0171-0.904v-7.2c0-0.437 8e-4 -0.704 0.0171-0.904 0.0076-0.0932 0.0172-0.15 0.0252-0.184 0.0039-0.0163 0.0071-0.0263 9e-3 -0.0317 0.0019-0.0052 0.0032-0.00779 0.0032-0.00779 0.0479-0.0941 0.124-0.171 0.218-0.218 0 0 0.0026-0.00132 0.0078-0.00317 0.0054-0.00194 0.0154-0.00515 0.0317-0.00898 0.0342-0.00806 0.0906-0.0176 0.184-0.0252 0.2-0.0163 0.467-0.0171 0.904-0.0171z" clip-rule="evenodd" fill="#000" fill-rule="evenodd"/></svg>
