<svg viewBox="0 0 16 16" xmlns="http://www.w3.org/2000/svg"><path d="m12.2 7.9c0.0666 0.268 0.131 0.527 0.186 0.758 0.717 2.51 0.847 3.03 0.337 3.59-0.192 0.183-0.411 0.335-0.65 0.45-0.279 0.117-0.588 0.307-0.767 0.55-0.171 0.306-0.264 0.65-0.27 1v1.25c0 0.133-0.0527 0.26-0.146 0.354-0.0937 0.0938-0.221 0.146-0.354 0.146s-0.26-0.0527-0.354-0.146c-0.0937-0.0937-0.146-0.221-0.146-0.354v-1.25c-0.012-0.554 0.13-1.1 0.41-1.58 0.323-0.474 0.783-0.714 1.13-0.897 0.182-0.0946 0.334-0.174 0.423-0.263 0.113-0.113-0.197-1.27-0.548-2.57-0.454-1.69-0.976-3.63-0.739-3.91 0.204-0.238 0.431-0.377 0.638-0.504 0.219-0.135 0.416-0.256 0.54-0.466 0.234-0.398 0.163-0.768 0.0893-1.15-0.0019-0.0101-0.0039-0.0203-0.0058-0.0304-0.0754-0.395-0.252-0.763-0.514-1.07-0.532-0.534-1.05-0.81-2-0.81-0.955 0-1.82 1-2.1 2-0.269 0.96-2.72 8.72-2.92 9.33-0.00912 0.0288-0.0183 0.0527-0.0293 0.0809-0.0546 0.141-0.0898 0.288-0.105 0.438-0.0099 0.0991 0.00245 0.2 0.0466 0.29 0.0231 0.0468 0.0504 0.0915 0.0814 0.133 0.0617 0.0835 0.151 0.14 0.245 0.184l0.853 0.407c0.0069 0.0033 0.0139 0.0066 0.0209 0.01 0.212 0.101 0.475 0.226 0.475 0.457v1.17c0 0.133-0.0527 0.26-0.146 0.354-0.0938 0.0938-0.221 0.146-0.354 0.146s-0.26-0.0527-0.354-0.146c-0.0938-0.0937-0.146-0.221-0.146-0.354v-0.77l-0.94-0.45c-0.0644-0.0329-0.125-0.0732-0.18-0.12-0.306-0.231-0.525-0.559-0.62-0.93-0.0586-0.403-0.00675-0.814 0.15-1.19 0.18-0.55 2.65-8.41 2.92-9.3 0.44-1.36 1.66-2.74 3.06-2.74 1.39 0 2 0.362 2.71 1.07 0.44 0.46 0.733 1.04 0.842 1.67 0.109 0.627 0.0054 1.48-0.232 1.85-0.21 0.328-0.527 0.549-0.838 0.766-0.04 0.0279-0.0799 0.0557-0.12 0.0837l-0.11 0.07c0.0538 0.499 0.302 1.5 0.524 2.39z" fill="#000"/><path d="m4.41 3.56-0.761-0.249c-0.063-0.0302-0.117-0.0755-0.158-0.132-0.041-0.0565-0.0673-0.122-0.0765-0.192-0.0439-0.337-0.00787-0.679 0.105-0.999 0.0864-0.302 0.241-0.581 0.452-0.814 0.0411-0.0522 0.093-0.0948 0.152-0.125s0.124-0.0472 0.19-0.0499c0.0596 9.04e-4 0.119 0.011 0.175 0.0299l0.73 0.244c0.0898 0.0292 0.166 0.091 0.212 0.173 0.13 0.228 0.0465 0.609-0.0205 0.913l-0.00339 0.0154c-0.0363 0.165-0.0879 0.328-0.152 0.485l-0.0081 0.0197c-0.0993 0.241-0.212 0.516-0.393 0.644-0.0672 0.0475-0.148 0.0725-0.23 0.0715-0.0729-0.0011-0.145-0.0132-0.214-0.0359z" fill="#000"/><path d="m3.55 6.35-0.761-0.249c-0.0674-0.0252-0.127-0.0674-0.174-0.122-0.0464-0.055-0.078-0.121-0.0916-0.192-0.0458-0.337-0.00975-0.679 0.105-0.999 0.0938-0.298 0.251-0.572 0.462-0.803 0.0419-0.0522 0.0938-0.0955 0.153-0.127 0.0589-0.0318 0.124-0.0514 0.19-0.0577 0.053 8e-4 0.106 0.00959 0.156 0.0261l0.789 0.258c0.0898 0.0293 0.166 0.091 0.212 0.173 0.131 0.229 0.0377 0.607-0.0363 0.908-0.0082 0.0333-0.0162 0.0656-0.0236 0.0967-0.0243 0.102-0.0579 0.202-0.0995 0.298-0.0156 0.036-0.0313 0.0734-0.0473 0.112-0.0997 0.238-0.212 0.507-0.389 0.637-0.067 0.0492-0.148 0.0762-0.231 0.0774-0.0729-0.00111-0.145-0.0132-0.214-0.0359z" fill="#000"/><path d="m2.77 9.17-0.865-0.283c-0.0705-0.0226-0.134-0.0622-0.186-0.115-0.0515-0.0531-0.0891-0.118-0.11-0.189-0.0439-0.337-0.00786-0.679 0.105-0.999 0.085-0.306 0.24-0.588 0.452-0.824 0.0839-0.0994 0.203-0.162 0.333-0.175 0.0662 1e-3 0.132 0.0122 0.195 0.0332l0.751 0.251c0.0891 0.0272 0.165 0.0869 0.212 0.167 0.0449 0.0768 0.0433 0.171 0.042 0.255l-1.8e-4 0.0117c-0.00104 0.0687-0.0364 0.42-0.0844 0.706-0.0227 0.135-0.0684 0.265-0.116 0.394l-0.0188 0.0512c-0.0883 0.241-0.19 0.519-0.369 0.646-0.0672 0.0475-0.148 0.0725-0.23 0.0715l-0.11-0.00167z" fill="#000"/><path d="m2.62 9.65-0.77-0.252c-0.063-0.0206-0.129-0.0316-0.195-0.0326-0.0646 0.0041-0.128 0.0218-0.185 0.052-0.0573 0.0302-0.108 0.0721-0.148 0.123-0.214 0.235-0.369 0.517-0.452 0.824-0.113 0.32-0.149 0.662-0.105 0.999 0.00599 0.0766 0.0329 0.15 0.0778 0.213s0.106 0.111 0.177 0.141l0.761 0.249c0.0693 0.0227 0.142 0.0348 0.214 0.0359 0.0822 1e-3 0.163-0.024 0.23-0.0715 0.189-0.134 0.301-0.428 0.398-0.684l0.00643-0.0169c0.0628-0.165 0.119-0.334 0.158-0.507 0.0697-0.302 0.148-0.68 0.0255-0.902-0.0426-0.0773-0.111-0.137-0.193-0.17z" fill="#000"/></svg>
