<svg fill="none" viewBox="0 0 16 16" xmlns="http://www.w3.org/2000/svg"><path d="m5.95 0.277 0.705 1.41c0.582-0.161 1.18-0.165 1.78-0.0164 3.83-1.26 6.99-0.836 7.5 2.08 0.542 3.09-2.42 6.04-6.51 7.86l-0.428 0.183v2.71c0 0.276-0.224 0.5-0.5 0.5s-0.5-0.224-0.5-0.5l2.7e-4 -2.32c-4.02 1.44-7.41 1.1-7.94-1.93-0.441-2.52 1.44-4.94 4.36-6.73 0.333-0.62 0.769-1.1 1.31-1.43l-0.68-1.36c-0.124-0.247-0.0234-0.547 0.224-0.671 0.247-0.123 0.547-0.0234 0.671 0.224zm4.2 1.95-0.273 0.065c0.539 0.332 1.09 0.776 1.64 1.33 0.195 0.195 0.195 0.512 2e-4 0.707-0.195 0.195-0.512 0.195-0.707 2.1e-4 -1.38-1.38-2.6-1.93-3.69-1.72l0.335 0.672c0.124 0.247 0.0234 0.547-0.224 0.671-0.247 0.124-0.547 0.0234-0.671-0.224l-0.369-0.737c-0.865 0.588-1.39 1.76-1.55 3.58-0.0242 0.275-0.267 0.479-0.542 0.454-0.275-0.0242-0.479-0.267-0.454-0.542 0.0431-0.491 0.112-0.947 0.207-1.37-2.12 1.56-3.09 3.28-2.8 4.97 0.374 2.14 3.08 2.56 7.14 0.962l0.265-0.106 0.564-0.241c4.03-1.8 6.34-4.43 5.93-6.77-0.297-1.7-2.05-2.32-4.81-1.7zm1.08 5.2c0.167 0.22 0.124 0.534-0.0963 0.701-1.09 0.827-2.22 1.46-3.39 1.88-1.15 0.421-2.21 0.696-3.17 0.824-0.274 0.0362-0.525-0.156-0.561-0.43-0.0363-0.274 0.156-0.525 0.43-0.561 0.887-0.118 1.88-0.374 2.96-0.772 1.07-0.392 2.11-0.971 3.13-1.74 0.22-0.167 0.534-0.124 0.7 0.0963z" fill="#000"/></svg>
