<svg viewBox="0 0 16 16" xmlns="http://www.w3.org/2000/svg"><path d="m13.1 0.102-8.98 6.33c-0.135 0.0951-0.173 0.285-0.0849 0.428 0.0877 0.143 0.269 0.187 0.408 0.0992l9.27-5.85c0.274-0.173 0.358-0.549 0.186-0.831-0.173-0.282-0.534-0.36-0.8-0.173z" fill="#000"/><path d="m5.19 7.38 10-4.33c0.297-0.128 0.634 0.0323 0.746 0.356 0.112 0.323-0.0458 0.682-0.348 0.794l-10.2 3.79c-0.154 0.0569-0.321-0.0285-0.378-0.193-0.0567-0.164 0.0184-0.347 0.169-0.412z" fill="#000"/><path d="m11.9 6.36c1.36 0.302 2.08 0.745 2.08 1.14 0 0.677-2.12 1.5-6 1.5-3.88 0-6-0.823-6-1.5 0-0.332 0.51-0.699 1.49-0.987l1.29-1.29c-2.52 0.392-3.78 1.27-3.78 2.28v6c0 1.54 3.12 2.5 7 2.5s7-0.961 7-2.5v-6l-0.0044-0.103c-0.0511-0.599-0.551-1.14-1.5-1.56l-1.58 0.527zm2.08 2.55c-0.281 0.169-0.621 0.323-1.02 0.459 0.0128 0.0421 0.0193 0.0875 0.0193 0.134v1c0 0.276-0.224 0.5-0.5 0.5s-0.5-0.224-0.5-0.5l0.0012-0.865c-0.584 0.128-1.25 0.226-2.01 0.289 0.00484 0.0247 0.00686 0.0505 0.00686 0.0768v1c0 0.276-0.224 0.5-0.5 0.5s-0.5-0.224-0.5-0.5v-1l0.00273-0.0182c-0.321 0.012-0.656 0.0182-1 0.0182-0.347 0-0.681-0.00618-1-0.0182l0.00174 0.0182v1c0 0.276-0.224 0.5-0.5 0.5s-0.5-0.224-0.5-0.5v-1l0.00686-0.0768c-0.754-0.0621-1.42-0.16-2.01-0.288l1.8e-4 0.865c0 0.276-0.224 0.5-0.5 0.5s-0.5-0.224-0.5-0.5v-1c0-0.0469 0.00646-0.0923 0.0186-0.135-0.398-0.135-0.738-0.289-1.02-0.457l1.2e-4 4.59c0 0.67 2.7 1.5 6 1.5 3.3 0 6-0.83 6-1.5l1e-3 -4.59z" clip-rule="evenodd" fill="#000" fill-rule="evenodd"/></svg>
