<svg viewBox="0 0 16 16" xmlns="http://www.w3.org/2000/svg"><path d="m7.06 0c-0.457 0-0.775 0.236-0.989 0.402l-0.0769 0.0602c-0.191 0.15-0.321 0.252-0.504 0.315-0.291 0.1-0.632 0.203-0.905 0.281-0.136 0.039-0.253 0.0716-0.336 0.0944l-0.0968 0.0264-0.0255 0.00686-0.00828 0.00221c-0.227 0.0603-0.381 0.27-0.371 0.504l0.469 11c0.00868 0.204 0.142 0.383 0.334 0.451l0.0102 0.0037c0.00982 0.0037 0.0255 0.0097 0.0463 0.018 0.0416 0.0166 0.103 0.0422 0.177 0.0766 0.15 0.0696 0.347 0.172 0.54 0.304 0.417 0.286 0.673 0.608 0.673 0.938v1c0 0.276 0.224 0.5 0.5 0.5 0.276 0 0.5-0.224 0.5-0.5v-1c0-0.855-0.635-1.44-1.11-1.76-0.252-0.173-0.501-0.301-0.685-0.386l-0.00234-0.0011-0.438-10.3 0.0978-0.0279c0.279-0.0802 0.64-0.188 0.955-0.297 0.353-0.122 0.62-0.334 0.802-0.479 0.0238-0.0189 0.0461-0.0367 0.0669-0.0529 0.201-0.157 0.283-0.191 0.375-0.191 0.132 0 0.266 0.0579 0.386 0.143 0.057 0.0403 0.103 0.081 0.133 0.111 0.015 0.0146 0.0257 0.026 0.0316 0.0324l0.00489 0.00545c0.095 0.112 0.235 0.177 0.382 0.177l0.0156-2.4e-4 0.0156 2.4e-4c0.147 0 0.287-0.065 0.382-0.177l0.00489-0.00545c0.0059-0.00646 0.0166-0.0178 0.0316-0.0324 0.0305-0.0297 0.0761-0.0704 0.133-0.111 0.12-0.0848 0.254-0.143 0.386-0.143 0.0912 0 0.173 0.0345 0.375 0.191 0.0208 0.0162 0.0431 0.034 0.0669 0.0529 0.181 0.144 0.448 0.357 0.802 0.479 0.315 0.109 0.676 0.217 0.955 0.297l0.0978 0.0279-0.438 10.3-0.0023 0.0011c-0.184 0.0851-0.433 0.214-0.685 0.386-0.473 0.324-1.11 0.908-1.11 1.76v1c0 0.276 0.224 0.5 0.5 0.5 0.276 0 0.5-0.224 0.5-0.5v-1c0-0.33 0.256-0.652 0.673-0.938 0.193-0.132 0.39-0.234 0.54-0.304 0.0744-0.0344 0.136-0.06 0.177-0.0766 0.0207-0.0083 0.0364-0.0143 0.0463-0.018l0.0101-0.0037c0.193-0.068 0.326-0.247 0.334-0.451l0.469-11c0.01-0.234-0.144-0.444-0.371-0.504l-0.0083-0.00221-0.0255-0.00686-0.0968-0.0264c-0.083-0.0228-0.2-0.0554-0.336-0.0944-0.273-0.0785-0.615-0.181-0.905-0.281-0.182-0.0629-0.313-0.165-0.504-0.315l-0.077-0.0602c-0.213-0.166-0.532-0.402-0.989-0.402l-0.0197 1.31e-4 -0.0116-1.31e-4c-0.39 0-0.709 0.155-0.922 0.298-0.213-0.143-0.531-0.298-0.922-0.298l-0.0116 1.31e-4 -0.0197-1.31e-4z" fill="#000"/><path d="m13 4.28c0 0.243 0.174 0.45 0.414 0.492l1.29 0.227c0.39 0 0.39-2 0-2l-1.29 0.227c-0.239 0.042-0.414 0.25-0.414 0.492v0.56z" fill="#000"/><path d="m12.8 7.28c0 0.243 0.174 0.45 0.414 0.492l1.29 0.227c0.39 0 0.39-2 0-2l-1.29 0.227c-0.239 0.042-0.414 0.25-0.414 0.492v0.56z" fill="#000"/><path d="m12.5 10.3c0 0.243 0.174 0.45 0.414 0.492l1.29 0.227c0.39 0 0.39-2 0-2l-1.29 0.227c-0.239 0.042-0.414 0.25-0.414 0.492v0.56z" fill="#000"/><path d="m1.29 5 1.29-0.227c0.239-0.042 0.414-0.25 0.414-0.492v-0.56c0-0.243-0.174-0.45-0.414-0.492l-1.29-0.227c-0.39 0-0.39 2 0 2z" fill="#000"/><path d="m1.49 8 1.29-0.227c0.239-0.042 0.414-0.25 0.414-0.492v-0.56c0-0.243-0.174-0.45-0.414-0.492l-1.29-0.227c-0.39 0-0.39 2 0 2z" fill="#000"/><path d="m3.09 10.8-1.29 0.227c-0.39 0-0.39-2 0-2l1.29 0.227c0.239 0.042 0.414 0.25 0.414 0.492v0.56c0 0.243-0.174 0.45-0.414 0.492z" fill="#000"/></svg>
