<svg fill="none" viewBox="0 0 16 16" xmlns="http://www.w3.org/2000/svg"><path d="m7.5 6.5c0.828 0 1.5 0.672 1.5 1.5 0 0.653-0.417 1.21-0.999 1.41l-9e-4 1.59h0.18c0.477 0 0.887 0.336 0.981 0.804l0.6 3c0.108 0.542-0.243 1.07-0.784 1.18-0.0646 0.0129-0.13 0.0194-0.196 0.0194h-2.56c-0.552 0-1-0.448-1-1 0-0.0659 0.00651-0.132 0.0194-0.196l0.6-3c0.0935-0.467 0.504-0.804 0.981-0.804h0.18l-5e-4 -1.59c-0.582-0.206-0.999-0.762-0.999-1.41 0-0.828 0.672-1.5 1.5-1.5zm0-6.5c4.14 0 7.5 3.42 7.5 7.64 0 1.92-0.698 3.72-1.92 5.11l0.856 1.5c0.137 0.24 0.0537 0.545-0.186 0.682-0.24 0.137-0.545 0.0537-0.682-0.186l-0.742-1.3c-0.185 0.067-0.4 0.0207-0.54-0.134-0.186-0.204-0.171-0.521 0.0338-0.706 1.38-1.25 2.18-3.04 2.18-4.97 0-3.67-2.91-6.64-6.5-6.64-3.59 0-6.5 2.97-6.5 6.64 0 1.93 0.808 3.72 2.19 4.98 0.205 0.185 0.221 0.502 0.0354 0.706-0.144 0.16-0.368 0.204-0.557 0.129l-0.738 1.29c-0.137 0.24-0.442 0.323-0.682 0.186s-0.323-0.442-0.186-0.682l0.856-1.5c-1.22-1.39-1.92-3.19-1.92-5.11 0-4.22 3.36-7.64 7.5-7.64z" fill="#000"/></svg>
