<svg fill="none" viewBox="0 0 16 16" xmlns="http://www.w3.org/2000/svg"><path d="m2 16c0.872 0 1.61-0.559 1.89-1.34 0.318 0.213 0.701 0.338 1.11 0.338 0.872 0 1.61-0.559 1.89-1.34 0.318 0.213 0.701 0.338 1.11 0.338 0.872 0 1.61-0.559 1.89-1.34 0.318 0.213 0.701 0.338 1.11 0.338 0.872 0 1.61-0.559 1.89-1.34 0.318 0.213 0.701 0.338 1.11 0.338 1.1 0 2-0.895 2-2v-7c0-0.552-0.448-1-1-1h-14c-0.552 0-1 0.448-1 1v11c0 1.1 0.895 2 2 2zm13-13h-14v3h2v-1.5c0-0.276 0.224-0.5 0.5-0.5s0.5 0.224 0.5 0.5v1.5h2v-1.5c0-0.276 0.224-0.5 0.5-0.5s0.5 0.224 0.5 0.5v1.5h2v-1.5c0-0.276 0.224-0.5 0.5-0.5s0.5 0.224 0.5 0.5v1.5h2v-1.5c0-0.276 0.224-0.5 0.5-0.5s0.5 0.224 0.5 0.5v1.5h2v-3zm0 4h-2v3c0 0.552 0.448 1 1 1s1-0.448 1-1v-3zm-3 0h-2v4c0 0.552 0.448 1 1 1s1-0.448 1-1v-4zm-3 0h-2v5c0 0.552 0.448 1 1 1s1-0.448 1-1v-5zm-3 0h-2v6c0 0.552 0.448 1 1 1s1-0.448 1-1v-6zm-3 0h-2v7c0 0.552 0.448 1 1 1s1-0.448 1-1v-7z" clip-rule="evenodd" fill="#000" fill-rule="evenodd"/></svg>
