<svg fill="none" viewBox="0 0 16 16" xmlns="http://www.w3.org/2000/svg"><path d="m12.4 0c0.828 0 1.5 0.672 1.5 1.5 0 0.0622-0.0038 0.124-0.0116 0.186l-1.14 9.12c-0.122 0.979-0.8 1.77-1.69 2.06l-0.143 0.0427 1.02 1.53c0.284 0.427 0.198 0.992-0.184 1.32l-0.0933 0.0703c-0.164 0.11-0.357 0.168-0.555 0.168h-6.13c-0.552 0-1-0.448-1-1 0-0.197 0.0584-0.39 0.168-0.555l1.02-1.53-0.142-0.0427c-0.844-0.28-1.5-0.998-1.67-1.9l-0.0255-0.161-1.14-9.12c-0.103-0.822 0.48-1.57 1.3-1.67 0.0617-0.00771 0.124-0.0116 0.186-0.0116h8.73zm-1.98 6.62-1.96 3.14c-0.18 0.287-0.578 0.311-0.794 0.0718l-0.0541-0.0718-1.96-3.14-1.14 3.05c-0.0511 0.136-0.155 0.237-0.28 0.288l0.0893 0.723c0.0938 0.751 0.732 1.31 1.49 1.31h0.234c0.399 0 0.638 0.445 0.416 0.777l-1.48 2.22h6.13l-1.48-2.22c-0.222-0.332 0.0167-0.777 0.416-0.777h0.234c0.756 0 1.39-0.563 1.49-1.31l0.0893-0.723c-0.125-0.0507-0.229-0.152-0.28-0.288l-1.15-3.05zm1.98-5.62-8.77 9.7e-4 -0.031 0.00289c-0.274 0.0342-0.468 0.284-0.434 0.558l0.826 6.61 1.07-2.85c0.145-0.388 0.673-0.441 0.892-0.0894l2.08 3.32 2.08-3.32c0.22-0.351 0.747-0.298 0.892 0.0894l1.07 2.85 0.827-6.61c0.0025-0.0206 0.0038-0.0413 0.0038-0.062 0-0.276-0.224-0.5-0.5-0.5zm-0.867 2c0.276 0 0.5 0.224 0.5 0.5s-0.224 0.5-0.5 0.5h-7c-0.276 0-0.5-0.224-0.5-0.5s0.224-0.5 0.5-0.5h7z" fill="#000"/></svg>
