<svg fill="none" viewBox="0 0 16 16" xmlns="http://www.w3.org/2000/svg"><path d="m8 1c4.67 0 7 1.31 7 2.92v8.58c0 0.0487-7e-3 0.0958-0.02 0.14-0.282 1.5-3.3 2.45-6.98 2.45-3.58 0-6.53-0.902-6.95-2.33l-0.0297-0.124c-0.0144-0.0434-0.0213-0.0905-0.0213-0.139v-8.58c0-1.61 2.33-2.92 7-2.92zm6 4.56c-1.1 0.77-3.1 1.28-6 1.28-2.9 0-4.9-0.505-6-1.27l1.2e-4 6.85c0 0.781 2.68 1.68 6 1.68 3.32 0 6-0.901 6-1.68l1e-3 -6.85zm-8.5 2.44c0.276 0 0.5 0.224 0.5 0.5v3.5c0 0.276-0.224 0.5-0.5 0.5s-0.5-0.224-0.5-0.5v-3.5c0-0.276 0.224-0.5 0.5-0.5zm5 0c0.276 0 0.5 0.224 0.5 0.5v3.5c0 0.276-0.224 0.5-0.5 0.5s-0.5-0.224-0.5-0.5v-3.5c0-0.276 0.224-0.5 0.5-0.5zm-2.5-6c-3.9 0-6 0.95-6 1.92s2.1 1.92 6 1.92c3.9 0 6-0.95 6-1.92s-2.1-1.92-6-1.92z" fill="#000"/></svg>
