<svg viewBox="0 0 16 16" xmlns="http://www.w3.org/2000/svg"><path d="m9.5 16c-0.276 0-0.5-0.224-0.5-0.5v-1.03c0-0.997 1.29-1.35 2-1.45l0.5-7.03c-1.21-0.1-2.4-0.422-3.5-0.947-1.1 0.526-2.29 0.847-3.5 0.947l0.44 7.06c0.75 0.0997 2.06 0.429 2.06 1.45v0.996c0 0.276-0.224 0.5-0.5 0.5s-0.5-0.224-0.5-0.5v-0.996c0-0.18-0.799-0.449-1.59-0.499-0.116-0.023-0.22-0.0853-0.294-0.176-0.0748-0.0909-0.116-0.205-0.116-0.322l-0.5-7.98c-0.00382-0.067 0.0057-0.134 0.028-0.197 0.0223-0.0633 0.057-0.122 0.102-0.172 0.0442-0.0492 0.098-0.0888 0.158-0.116 0.0602-0.0275 0.126-0.0422 0.192-0.0433 1.32-0.0376 2.62-0.361 3.8-0.947 0.0683-0.0342 0.144-0.052 0.22-0.052s0.152 0.0178 0.22 0.052c1.18 0.604 2.48 0.944 3.8 0.997 0.0662 0.00108 0.132 0.0158 0.192 0.0433 0.0602 0.0275 0.114 0.0671 0.158 0.116 0.0793 0.0881 0.125 0.201 0.13 0.319l-0.5 7.98c-0.0099 0.126-0.0667 0.244-0.159 0.331-0.0925 0.0866-0.214 0.136-0.341 0.138-0.79 0.0499-1.5 0.373-1.5 0.553v0.972c0 0.276-0.224 0.5-0.5 0.5z" fill="#000"/><path d="m2.5 7.15-1-0.15c-0.0664-0.00283-0.133 0.00816-0.195 0.0323s-0.118 0.0609-0.165 0.108c-0.047 0.047-0.0837 0.103-0.108 0.165-0.0241 0.0619-0.0351 0.128-0.0323 0.195v1c-0.00804 0.0676-6.4e-4 0.136 0.0216 0.2 0.0223 0.0643 0.0589 0.123 0.107 0.171 0.0481 0.0481 0.107 0.0847 0.171 0.107 0.0643 0.0223 0.133 0.0297 0.2 0.0216 0.269 0 0.583-0.0603 0.871-0.115 0.0436-0.00837 0.0869-0.0167 0.129-0.0246 0.32-0.06 0.5-0.23 0.5-0.5v-0.7c0-0.28-0.18-0.46-0.5-0.51z" fill="#000"/><path d="m1.75 11 1 0.15c0.32 0.05 0.5 0.23 0.5 0.51v0.7c0 0.27-0.18 0.44-0.5 0.5-0.0422 0.0079-0.0852 0.0162-0.129 0.0245-0.288 0.0552-0.602 0.116-0.871 0.116-0.0676 8e-3 -0.136 6e-4 -0.2-0.0216-0.0643-0.0223-0.123-0.0589-0.171-0.107-0.0481-0.0482-0.0847-0.107-0.107-0.171-0.0223-0.0644-0.0297-0.133-0.0216-0.2v-1c-0.00283-0.0664 0.00817-0.133 0.0323-0.195 0.0241-0.062 0.0609-0.118 0.108-0.165 0.047-0.047 0.103-0.0838 0.165-0.108s0.128-0.0351 0.195-0.0323z" fill="#000"/><path d="m13.5 7.15 1-0.15c0.0664-0.00283 0.133 0.00816 0.195 0.0323 0.062 0.0241 0.118 0.0608 0.165 0.108 0.0471 0.047 0.0838 0.103 0.108 0.165 0.0241 0.0619 0.0351 0.128 0.0323 0.195v1c8e-3 0.0676 6e-4 0.136-0.0216 0.2-0.0223 0.0643-0.0589 0.123-0.107 0.171-0.0481 0.0481-0.106 0.0847-0.171 0.107-0.0644 0.0223-0.133 0.0297-0.2 0.0216-0.269 0-0.583-0.0603-0.871-0.115-0.0437-0.00838-0.0868-0.0166-0.129-0.0246-0.32-0.06-0.5-0.23-0.5-0.5v-0.7c0-0.28 0.18-0.46 0.5-0.51z" fill="#000"/><path d="m14.2 11-1 0.15c-0.32 0.05-0.5 0.23-0.5 0.51v0.7c0 0.27 0.18 0.44 0.5 0.5 0.0422 8e-3 0.0853 0.0162 0.129 0.0246 0.288 0.0552 0.602 0.115 0.871 0.115 0.0676 0.0081 0.136 7e-4 0.2-0.0216 0.0643-0.0223 0.123-0.0589 0.171-0.107 0.0482-0.0482 0.0848-0.107 0.107-0.171 0.0222-0.0643 0.0296-0.133 0.0216-0.2v-1c0.0028-0.0664-0.0082-0.133-0.0323-0.195s-0.0608-0.118-0.108-0.165c-0.047-0.047-0.103-0.0837-0.165-0.108-0.0619-0.0241-0.128-0.0351-0.195-0.0323z" fill="#000"/></svg>
