<svg viewBox="0 0 16 16" xmlns="http://www.w3.org/2000/svg"><path d="m15.5 3.86c0.305 0.306 0.476 0.72 0.476 1.15s-0.171 0.846-0.476 1.15l-0.0015 0.00151c-0.306 0.305-0.72 0.476-1.15 0.476s-0.846-0.171-1.15-0.476l-8e-4 -7.5e-4c-0.0886-0.0886-0.265-0.163-0.537-0.157-0.0207 4.7e-4 -0.0409 0.00141-0.0607 0.00276-0.168 0.0115-0.313 0.104-0.431 0.224-1.04 1.05-6.3 6.4-7.81 7.8 0.0794 0.18 0.121 0.377 0.119 0.578-0.0032 0.367-0.151 0.719-0.41 0.979-0.26 0.26-0.611 0.407-0.979 0.41-0.367 0.0032-0.721-0.138-0.986-0.393l-0.00625-6e-3 -1.71-1.71c-0.261-0.263-0.407-0.618-0.407-0.988s0.146-0.725 0.407-0.988l0.00581-0.0059c0.263-0.261 0.618-0.407 0.988-0.407 0.197 0 0.389 0.0413 0.566 0.119 1.68-1.7 6.81-6.82 7.82-7.83 0.116-0.116 0.206-0.256 0.215-0.42 1e-3 -0.017 0.0016-0.0343 0.0019-0.052 0.0035-0.257-0.0696-0.436-0.168-0.535l-7.6e-4 -7.6e-4c-0.305-0.306-0.476-0.72-0.476-1.15s0.171-0.846 0.476-1.15l0.00151-0.00152c0.306-0.305 0.72-0.476 1.15-0.476s0.846 0.171 1.15 0.476l8e-4 7.56e-4 3.38 3.38zm-12.1 11c0.0744-0.0744 0.117-0.175 0.118-0.28 9.2e-4 -0.105-0.0395-0.207-0.113-0.282l-0.177-0.177c-0.0398-0.0399-0.0634-0.0898-0.0707-0.142-0.00829-0.0585 0.00418-0.119 0.0374-0.171 0.00944-0.0146 0.0206-0.0284 0.0334-0.0412l8.52-8.52c0.245-0.245 1.49-0.512 2.19 0.189 0.118 0.118 0.278 0.184 0.445 0.184s0.327-0.0662 0.445-0.184c0.118-0.118 0.184-0.278 0.184-0.445s-0.0661-0.327-0.184-0.445l-3.38-3.38c-0.118-0.118-0.278-0.184-0.445-0.184s-0.327 0.0662-0.445 0.184c-0.118 0.118-0.184 0.278-0.184 0.445s0.0661 0.327 0.184 0.445c0.701 0.701 0.465 1.92 0.189 2.19l-8.52 8.52c-0.0128 0.0128-0.0266 0.0239-0.0412 0.0333-0.0514 0.0332-0.112 0.0457-0.171 0.0374-0.0518-0.0073-0.102-0.0309-0.142-0.0707l-0.173-0.172c-0.0755-0.0749-0.177-0.117-0.284-0.117-0.106 0-0.208 0.042-0.284 0.117-0.0749 0.0755-0.117 0.178-0.117 0.284s0.042 0.208 0.117 0.284l1.7 1.7c0.0757 0.0731 0.177 0.114 0.282 0.113 0.105-9e-4 0.206-0.0431 0.28-0.118z" clip-rule="evenodd" fill="#000" fill-rule="evenodd"/><path d="m2.68 9.85 0.9-0.9c0.094-0.0946 0.147-0.223 0.147-0.356s-0.0528-0.261-0.147-0.356l-0.094-0.094c-0.0946-0.094-0.223-0.147-0.356-0.147-0.133 1e-5 -0.261 0.0528-0.356 0.147l-0.9 0.9c-0.094 0.0946-0.147 0.223-0.147 0.356s0.0528 0.261 0.147 0.356l0.094 0.094c0.0946 0.094 0.223 0.147 0.356 0.147s0.261-0.0528 0.356-0.147z" fill="#000"/><path d="m4.95 7.58 0.9-0.9c0.094-0.0946 0.147-0.223 0.147-0.356s-0.0528-0.261-0.147-0.356l-0.094-0.094c-0.0946-0.094-0.223-0.147-0.356-0.147s-0.261 0.0528-0.356 0.147l-0.9 0.9c-0.094 0.0946-0.147 0.223-0.147 0.356s0.0528 0.261 0.147 0.356l0.094 0.094c0.0946 0.094 0.223 0.147 0.356 0.147s0.261-0.0528 0.356-0.147z" fill="#000"/><path d="m7.23 5.3 0.9-0.9c0.094-0.0946 0.147-0.223 0.147-0.356s-0.0528-0.261-0.147-0.356l-0.094-0.093c-0.0946-0.094-0.223-0.147-0.356-0.147s-0.261 0.0528-0.356 0.147l-0.9 0.9c-0.094 0.0946-0.147 0.223-0.147 0.356s0.0528 0.261 0.147 0.356l0.094 0.093c0.0946 0.094 0.223 0.147 0.356 0.147s0.261-0.0528 0.356-0.147z" fill="#000"/></svg>
