<svg viewBox="0 0 16 16" xmlns="http://www.w3.org/2000/svg"><path d="m12 13.8c0-0.644 0-0.966 0.125-1.21 0.11-0.216 0.286-0.392 0.503-0.503 0.246-0.125 0.568-0.125 1.21-0.125h0.32c0.644 0 0.966 0 1.21 0.125 0.216 0.11 0.392 0.286 0.503 0.503 0.125 0.246 0.125 0.568 0.125 1.21v0.32c0 0.644 0 0.966-0.125 1.21-0.11 0.216-0.286 0.392-0.503 0.503-0.246 0.125-0.568 0.125-1.21 0.125h-0.32c-0.644 0-0.966 0-1.21-0.125-0.216-0.11-0.392-0.286-0.503-0.503-0.125-0.246-0.125-0.568-0.125-1.21v-0.32z" fill="#000"/><g fill="#000" opacity=".3"><path d="m2.16 12c0.644 0 0.966-3e-4 1.21 0.125 0.216 0.11 0.393 0.286 0.503 0.503 0.125 0.246 0.125 0.568 0.125 1.21v0.32c0 0.644 2.5e-4 0.966-0.125 1.21-0.11 0.216-0.287 0.393-0.503 0.503-0.246 0.125-0.568 0.125-1.21 0.125h-0.32c-0.644 0-0.966 3e-4 -1.21-0.125-0.216-0.11-0.393-0.286-0.503-0.503-0.125-0.246-0.125-0.568-0.125-1.21v-0.32c8.21e-10 -0.644-2.54e-4 -0.966 0.125-1.21 0.11-0.216 0.287-0.393 0.503-0.503 0.246-0.125 0.568-0.125 1.21-0.125h0.32z"/><path d="m8.16 12c0.644 0 0.966-3e-4 1.21 0.125 0.216 0.11 0.393 0.286 0.503 0.503 0.125 0.246 0.125 0.568 0.125 1.21v0.32c0 0.644 3e-4 0.966-0.125 1.21-0.11 0.216-0.287 0.393-0.503 0.503-0.246 0.125-0.568 0.125-1.21 0.125h-0.32c-0.644 0-0.966 3e-4 -1.21-0.125-0.216-0.11-0.393-0.286-0.503-0.503-0.125-0.246-0.125-0.568-0.125-1.21v-0.32c0-0.644-2.5e-4 -0.966 0.125-1.21 0.11-0.216 0.287-0.393 0.503-0.503 0.246-0.125 0.568-0.125 1.21-0.125h0.32z"/><path d="m2.16 6c0.644 0 0.966-2.5e-4 1.21 0.125 0.216 0.11 0.393 0.287 0.503 0.503 0.125 0.246 0.125 0.568 0.125 1.21v0.32c0 0.644 2.5e-4 0.966-0.125 1.21-0.11 0.216-0.287 0.393-0.503 0.503-0.246 0.125-0.568 0.125-1.21 0.125h-0.32c-0.644 0-0.966 3e-4 -1.21-0.125-0.216-0.11-0.393-0.287-0.503-0.503-0.125-0.246-0.125-0.568-0.125-1.21v-0.32c8.21e-10 -0.644-2.54e-4 -0.966 0.125-1.21 0.11-0.216 0.287-0.393 0.503-0.503 0.246-0.125 0.568-0.125 1.21-0.125h0.32z"/><path d="m8.16 6c0.644 0 0.966-2.5e-4 1.21 0.125 0.216 0.11 0.393 0.287 0.503 0.503 0.125 0.246 0.125 0.568 0.125 1.21v0.32c0 0.644 3e-4 0.966-0.125 1.21-0.11 0.216-0.287 0.393-0.503 0.503-0.246 0.125-0.568 0.125-1.21 0.125h-0.32c-0.644 0-0.966 3e-4 -1.21-0.125-0.216-0.11-0.393-0.287-0.503-0.503-0.125-0.246-0.125-0.568-0.125-1.21v-0.32c0-0.644-2.5e-4 -0.966 0.125-1.21 0.11-0.216 0.287-0.393 0.503-0.503 0.246-0.125 0.568-0.125 1.21-0.125h0.32z"/><path d="m14.2 6c0.644 0 0.966-2.5e-4 1.21 0.125 0.216 0.11 0.393 0.287 0.503 0.503 0.125 0.246 0.125 0.568 0.125 1.21v0.32c0 0.644 3e-4 0.966-0.125 1.21-0.11 0.216-0.286 0.393-0.503 0.503-0.246 0.125-0.568 0.125-1.21 0.125h-0.32c-0.644 0-0.966 3e-4 -1.21-0.125-0.216-0.11-0.393-0.287-0.503-0.503-0.125-0.246-0.125-0.568-0.125-1.21v-0.32c0-0.644-3e-4 -0.966 0.125-1.21 0.11-0.216 0.286-0.393 0.503-0.503 0.246-0.125 0.568-0.125 1.21-0.125h0.32z"/><path d="m2.16 4.15e-9c0.644 8.21e-10 0.966-2.54e-4 1.21 0.125 0.216 0.11 0.393 0.287 0.503 0.503 0.125 0.246 0.125 0.568 0.125 1.21v0.32c0 0.644 2.5e-4 0.966-0.125 1.21-0.11 0.216-0.287 0.393-0.503 0.503-0.246 0.125-0.568 0.125-1.21 0.125h-0.32c-0.644 0-0.966 2.5e-4 -1.21-0.125-0.216-0.11-0.393-0.287-0.503-0.503-0.125-0.246-0.125-0.568-0.125-1.21v-0.32c8.21e-10 -0.644-2.54e-4 -0.966 0.125-1.21 0.11-0.216 0.287-0.393 0.503-0.503 0.246-0.125 0.568-0.125 1.21-0.125h0.32z"/><path d="m8.16 4.15e-9c0.644 8.21e-10 0.966-2.54e-4 1.21 0.125 0.216 0.11 0.393 0.287 0.503 0.503 0.125 0.246 0.125 0.568 0.125 1.21v0.32c0 0.644 3e-4 0.966-0.125 1.21-0.11 0.216-0.287 0.393-0.503 0.503-0.246 0.125-0.568 0.125-1.21 0.125h-0.32c-0.644 0-0.966 2.5e-4 -1.21-0.125-0.216-0.11-0.393-0.287-0.503-0.503-0.125-0.246-0.125-0.568-0.125-1.21v-0.32c0-0.644-2.5e-4 -0.966 0.125-1.21 0.11-0.216 0.287-0.393 0.503-0.503 0.246-0.125 0.568-0.125 1.21-0.125h0.32z"/><path d="m14.2 4.15e-9c0.644 8.21e-10 0.966-2.54e-4 1.21 0.125 0.216 0.11 0.393 0.287 0.503 0.503 0.125 0.246 0.125 0.568 0.125 1.21v0.32c0 0.644 3e-4 0.966-0.125 1.21-0.11 0.216-0.286 0.393-0.503 0.503-0.246 0.125-0.568 0.125-1.21 0.125h-0.32c-0.644 0-0.966 2.5e-4 -1.21-0.125-0.216-0.11-0.393-0.287-0.503-0.503-0.125-0.246-0.125-0.568-0.125-1.21v-0.32c0-0.644-3e-4 -0.966 0.125-1.21 0.11-0.216 0.286-0.393 0.503-0.503 0.246-0.125 0.568-0.125 1.21-0.125h0.32z"/></g></svg>
