<svg viewBox="0 0 16 16" xmlns="http://www.w3.org/2000/svg"><path d="m6.2 1c1.68 0 2.52 1.8e-4 3.16 0.327 0.564 0.288 1.02 0.746 1.31 1.31 0.271 0.531 0.315 1.2 0.323 2.37 1.17 0.00802 1.83 0.0535 2.37 0.324 0.564 0.288 1.02 0.746 1.31 1.31 0.327 0.642 0.327 1.48 0.327 3.16v0.4c0 1.68-2e-4 2.52-0.327 3.16-0.288 0.564-0.746 1.02-1.31 1.31-0.642 0.327-1.48 0.327-3.16 0.327h-0.4c-1.68 0-2.52-2e-4 -3.16-0.327-0.564-0.288-1.02-0.746-1.31-1.31-0.271-0.531-0.316-1.2-0.324-2.37-1.17-8e-3 -1.83-0.0526-2.37-0.323-0.564-0.288-1.02-0.746-1.31-1.31-0.327-0.642-0.327-1.48-0.327-3.16v-0.4c0-1.68 1.8e-4 -2.52 0.327-3.16 0.288-0.564 0.746-1.02 1.31-1.31 0.642-0.327 1.48-0.327 3.16-0.327h0.4z" fill="#000" fill-opacity=".3"/><path d="m6.2 1c1.68 0 2.52 1.8e-4 3.16 0.327 0.564 0.288 1.02 0.746 1.31 1.31 0.271 0.531 0.315 1.2 0.323 2.37 1.17 0.00802 1.83 0.0535 2.37 0.324 0.564 0.288 1.02 0.746 1.31 1.31 0.327 0.642 0.327 1.48 0.327 3.16v0.4c0 1.68-2e-4 2.52-0.327 3.16-0.288 0.564-0.746 1.02-1.31 1.31-0.642 0.327-1.48 0.327-3.16 0.327h-0.4c-1.68 0-2.52-2e-4 -3.16-0.327-0.564-0.288-1.02-0.746-1.31-1.31-0.271-0.531-0.316-1.2-0.324-2.37-1.17-8e-3 -1.83-0.0526-2.37-0.323-0.564-0.288-1.02-0.746-1.31-1.31-0.327-0.642-0.327-1.48-0.327-3.16v-0.4c0-1.68 1.8e-4 -2.52 0.327-3.16 0.288-0.564 0.746-1.02 1.31-1.31 0.642-0.327 1.48-0.327 3.16-0.327h0.4zm-0.4 1c-0.856 0-1.44 0.00129-1.89 0.0381-0.329 0.0269-0.538 0.0694-0.688 0.123l-0.132 0.0566c-0.329 0.168-0.605 0.423-0.797 0.736l-0.0772 0.138c-0.0796 0.156-0.144 0.381-0.18 0.819-0.0184 0.225-0.0284 0.483-0.0332 0.792l-0.00488 1.1v0.4c0 0.856 0.00129 1.44 0.0381 1.89 0.0358 0.438 0.1 0.663 0.18 0.819l0.0772 0.138c0.192 0.313 0.468 0.569 0.797 0.736l0.114 0.0498c0.205 0.0778 0.496 0.125 1.03 0.147l0.771 0.0166 0.986 0.00681 0.00684 0.986c0.00833 1.21 0.0697 1.63 0.215 1.92l0.0772 0.138c0.192 0.313 0.468 0.569 0.797 0.736l0.132 0.0567c0.15 0.0536 0.358 0.0961 0.688 0.123 0.45 0.0368 1.03 0.0381 1.89 0.0381h0.4c0.856 0 1.44-0.0013 1.89-0.0381 0.438-0.0358 0.663-0.1 0.819-0.18l0.138-0.0771c0.313-0.192 0.569-0.468 0.736-0.797l0.0567-0.132c0.0536-0.15 0.0961-0.358 0.123-0.688 0.0184-0.225 0.0284-0.483 0.0332-0.792l0.0049-1.1v-0.4c0-0.856-0.0013-1.44-0.0381-1.89-0.0269-0.329-0.0694-0.538-0.123-0.688l-0.0567-0.132c-0.168-0.329-0.423-0.605-0.736-0.797l-0.138-0.0772c-0.285-0.145-0.706-0.207-1.92-0.215l-0.986-0.00684-0.00681-0.986c-0.00731-1.06-0.0551-1.52-0.164-1.8l-0.0498-0.114c-0.168-0.329-0.423-0.605-0.736-0.797l-0.138-0.0772c-0.156-0.0796-0.381-0.144-0.819-0.18-0.225-0.0184-0.483-0.0284-0.792-0.0332l-1.1-0.00488h-0.4z" clip-rule="evenodd" fill="#000" fill-rule="evenodd"/></svg>
