<svg viewBox="0 0 16 16" xmlns="http://www.w3.org/2000/svg"><path d="m10.2 5c1.68 0 2.52 1.8e-4 3.16 0.327 0.564 0.288 1.02 0.746 1.31 1.31 0.327 0.642 0.327 1.48 0.327 3.16v0.4c0 1.68-2e-4 2.52-0.327 3.16-0.288 0.564-0.746 1.02-1.31 1.31-0.642 0.327-1.48 0.327-3.16 0.327h-0.4c-1.68 0-2.52-2e-4 -3.16-0.327-0.564-0.288-1.02-0.746-1.31-1.31-0.327-0.642-0.327-1.48-0.327-3.16v-0.2h1.8c1.12 0 1.68 2e-4 2.11-0.218 0.376-0.192 0.682-0.498 0.874-0.874 0.218-0.428 0.218-0.988 0.218-2.11v-1.8h0.2z" fill="#000" fill-opacity=".3"/><path d="m7.31 1c0.975 0.0153 1.57 0.077 2.05 0.322 0.564 0.288 1.02 0.746 1.31 1.31 0.271 0.531 0.315 1.2 0.323 2.37 1.17 0.00806 1.83 0.0535 2.37 0.324 0.564 0.288 1.02 0.746 1.31 1.31 0.327 0.642 0.327 1.48 0.327 3.16v0.4c0 1.68-2e-4 2.52-0.327 3.16-0.288 0.564-0.746 1.02-1.31 1.31-0.642 0.327-1.48 0.327-3.16 0.327h-0.4c-1.68 0-2.52-2e-4 -3.16-0.327-0.564-0.288-1.02-0.746-1.31-1.31-0.271-0.531-0.316-1.2-0.324-2.37l-0.315-1e-3c-0.894-0.014-1.47-0.067-1.93-0.265l-0.123-0.0576c-0.494-0.252-0.907-0.635-1.2-1.1l-0.115-0.206c-0.245-0.481-0.307-1.07-0.322-2.05l-0.00488-1.11v-0.4c0-1.58 7e-5 -2.41 0.27-3.04l0.0576-0.123c0.252-0.494 0.635-0.907 1.1-1.2l0.206-0.115c0.481-0.245 1.07-0.307 2.05-0.322l1.11-0.00488h0.4l1.11 0.00488zm3.69 5.79c0 0.543 1e-3 1.01-0.0303 1.4-0.0261 0.32-0.0808 0.638-0.202 0.949-0.0046 0.0121-9e-3 0.0242-0.0137 0.0361-0.0052 0.0127-0.0082 0.0264-0.0137 0.0391l-0.0673 0.143c-0.0336 0.0658-0.0704 0.13-0.108 0.192l-0.0069 0.0137c-0.0151 0.0246-0.032 0.0481-0.0478 0.0723-0.0194 0.0297-0.0392 0.059-0.0596 0.0879-0.0128 0.0181-0.0259 0.0359-0.0391 0.0537-0.0281 0.0381-0.057 0.0756-0.0869 0.112-0.0098 0.012-0.0193 0.0243-0.0293 0.0361-0.0341 0.0406-0.0692 0.0804-0.105 0.119-0.0226 0.024-0.0471 0.0461-0.0704 0.0693-0.0232 0.0233-0.0453 0.0478-0.0693 0.0704-0.0298 0.0279-0.0608 0.0543-0.0918 0.081-0.021 0.0181-0.042 0.0362-0.0635 0.0537-0.0331 0.027-0.0673 0.0526-0.102 0.0781-0.0214 0.0161-0.0426 0.0325-0.0644 0.0479-0.0263 0.0185-0.0532 0.036-0.0801 0.0537-0.0268 0.0177-0.0526 0.0369-0.0801 0.0537l-0.0137 0.0069c-0.0628 0.038-0.127 0.0748-0.192 0.108l-0.123 0.0576-0.00391 9e-4c-0.339 0.148-0.689 0.21-1.04 0.238-0.384 0.0313-0.852 0.0303-1.4 0.0303h-0.796c0.00314 0.446 0.0102 0.795 0.0342 1.09 0.0358 0.438 0.1 0.663 0.18 0.819l0.0772 0.138c0.192 0.313 0.468 0.569 0.797 0.736l0.132 0.0567c0.15 0.0536 0.358 0.0961 0.688 0.123 0.45 0.0368 1.03 0.0381 1.89 0.0381h0.4c0.856 0 1.44-0.0013 1.89-0.0381 0.438-0.0358 0.663-0.1 0.819-0.18l0.138-0.0771c0.313-0.192 0.569-0.468 0.736-0.797l0.0567-0.132c0.0536-0.15 0.0961-0.358 0.123-0.688 0.0184-0.225 0.0284-0.483 0.0332-0.792l0.0049-1.1v-0.4c0-0.856-0.0013-1.44-0.0381-1.89-0.0269-0.329-0.0694-0.538-0.123-0.688l-0.0567-0.132c-0.168-0.329-0.423-0.605-0.736-0.797l-0.138-0.0772c-0.156-0.0796-0.381-0.144-0.819-0.18-0.294-0.024-0.643-0.032-1.09-0.0352v0.797zm-5.2-4.8c-0.856 0-1.44 3.5e-4 -1.89 0.0371-0.438 0.0358-0.663 0.101-0.819 0.181-0.376 0.192-0.682 0.498-0.874 0.874-0.0797 0.156-0.145 0.381-0.181 0.819-0.0368 0.45-0.0371 1.03-0.0371 1.89v0.4c0 0.856 3.5e-4 1.44 0.0371 1.89 0.0358 0.438 0.101 0.663 0.181 0.819l0.0772 0.138c0.192 0.313 0.468 0.569 0.797 0.736l0.133 0.0566c0.15 0.0535 0.358 0.0972 0.687 0.124 0.45 0.0368 1.03 0.0371 1.89 0.0371h0.4c0.856 0 1.44-3.5e-4 1.89-0.0371 0.438-0.0358 0.663-0.101 0.819-0.181l0.138-0.0772c0.313-0.192 0.569-0.468 0.736-0.797l0.0566-0.133c0.0535-0.15 0.0972-0.358 0.124-0.687 0.0368-0.45 0.0371-1.03 0.0371-1.89v-0.4c0-0.856-3.5e-4 -1.44-0.0371-1.89-0.0268-0.329-0.0705-0.537-0.124-0.687l-0.0566-0.133c-0.168-0.329-0.423-0.605-0.736-0.797l-0.138-0.0772c-0.156-0.0797-0.381-0.145-0.819-0.181-0.45-0.0368-1.03-0.0371-1.89-0.0371h-0.4z" clip-rule="evenodd" fill="#000" fill-rule="evenodd"/></svg>
