<svg viewBox="0 0 16 16" xmlns="http://www.w3.org/2000/svg"><path d="m11 5c1.17 0.00802 1.83 0.0535 2.37 0.324 0.564 0.288 1.02 0.746 1.31 1.31 0.327 0.642 0.327 1.48 0.327 3.16v0.4c0 1.68-2e-4 2.52-0.327 3.16-0.288 0.564-0.746 1.02-1.31 1.31-0.642 0.327-1.48 0.327-3.16 0.327h-0.4c-1.68 0-2.52-2e-4 -3.16-0.327-0.564-0.288-1.02-0.746-1.31-1.31-0.271-0.531-0.316-1.2-0.324-2.37 0.243 0.0017 0.507 0.0039 0.797 0.0039h0.4c1.68 0 2.52-2e-4 3.16-0.327 0.564-0.288 1.02-0.746 1.31-1.31 0.327-0.642 0.327-1.48 0.327-3.16v-0.4c0-0.289-0.0022-0.554-0.0039-0.797zm-4.8-4c1.68 0 2.52 1.8e-4 3.16 0.327 0.564 0.288 1.02 0.746 1.31 1.31 0.271 0.531 0.315 1.2 0.323 2.37-0.243-0.00167-0.507-0.00293-0.796-0.00293h-0.4c-1.68 0-2.52 1.8e-4 -3.16 0.327-0.564 0.288-1.02 0.746-1.31 1.31-0.327 0.642-0.327 1.48-0.327 3.16v0.4c0 0.289 0.00126 0.553 0.00293 0.796-1.17-8e-3 -1.83-0.0526-2.37-0.323-0.564-0.288-1.02-0.746-1.31-1.31-0.327-0.642-0.327-1.48-0.327-3.16v-0.4c0-1.68 1.8e-4 -2.52 0.327-3.16 0.288-0.564 0.746-1.02 1.31-1.31 0.642-0.327 1.48-0.327 3.16-0.327h0.4z" fill="#000" fill-opacity=".3"/><path d="m7.31 1c0.975 0.0153 1.57 0.077 2.05 0.322 0.564 0.288 1.02 0.746 1.31 1.31 0.271 0.531 0.315 1.2 0.323 2.37l0.316 0.00195c0.975 0.0153 1.57 0.077 2.05 0.322 0.564 0.288 1.02 0.746 1.31 1.31 0.327 0.642 0.327 1.48 0.327 3.16v0.4l-0.0049 1.11c-0.0153 0.975-0.077 1.57-0.322 2.05l-0.115 0.206c-0.288 0.47-0.701 0.853-1.2 1.1l-0.123 0.0576c-0.46 0.198-1.03 0.251-1.93 0.265l-1.11 0.0049h-0.4l-1.11-0.0049c-0.894-0.014-1.47-0.067-1.93-0.265l-0.123-0.0576c-0.494-0.252-0.907-0.635-1.2-1.1l-0.115-0.206c-0.245-0.481-0.307-1.07-0.322-2.05l-0.00195-0.316-0.315-1e-3c-0.894-0.014-1.47-0.067-1.93-0.265l-0.123-0.0576c-0.494-0.252-0.907-0.635-1.2-1.1l-0.115-0.206c-0.245-0.481-0.307-1.07-0.322-2.05l-0.00488-1.11v-0.4c0-1.58 7e-5 -2.41 0.27-3.04l0.0576-0.123c0.252-0.494 0.635-0.907 1.1-1.2l0.206-0.115c0.481-0.245 1.07-0.307 2.05-0.322l1.11-0.00488h0.4l1.11 0.00488zm3.69 5.2-0.0049 1.11c-0.0153 0.975-0.077 1.57-0.322 2.05l-0.115 0.206c-0.288 0.47-0.701 0.853-1.2 1.1l-0.123 0.0576c-0.46 0.198-1.03 0.251-1.93 0.265l-1.11 0.0049h-0.196c3e-3 0.446 0.00922 0.795 0.0332 1.09 0.0358 0.438 0.101 0.663 0.181 0.819l0.0772 0.138c0.192 0.313 0.468 0.569 0.797 0.736l0.133 0.0567c0.15 0.0535 0.358 0.0971 0.687 0.124 0.45 0.0368 1.03 0.0371 1.89 0.0371h0.4c0.856 0 1.44-3e-4 1.89-0.0371 0.438-0.0358 0.663-0.101 0.819-0.181l0.138-0.0771c0.313-0.192 0.569-0.468 0.736-0.797l0.0567-0.133c0.0535-0.15 0.0971-0.358 0.124-0.686 0.0368-0.45 0.0371-1.03 0.0371-1.89v-0.4c0-0.856-3e-4 -1.44-0.0371-1.89-0.0269-0.329-0.0705-0.537-0.124-0.687l-0.0567-0.133c-0.168-0.329-0.423-0.605-0.736-0.797l-0.138-0.0772c-0.156-0.0797-0.381-0.145-0.819-0.181-0.294-0.024-0.643-0.0312-1.09-0.0342v0.197zm-1.2-0.2c-0.856 0-1.44 3.5e-4 -1.89 0.0371-0.438 0.0358-0.663 0.101-0.819 0.181-0.376 0.192-0.682 0.498-0.874 0.874-0.0797 0.156-0.145 0.381-0.181 0.819-0.0368 0.45-0.0371 1.03-0.0371 1.89v0.2h0.2c0.856 0 1.44-3.5e-4 1.89-0.0371 0.438-0.0358 0.663-0.101 0.819-0.181l0.138-0.0772c0.313-0.192 0.569-0.468 0.736-0.797l0.0566-0.133c0.0535-0.15 0.0972-0.358 0.124-0.687 0.0368-0.45 0.0371-1.03 0.0371-1.89v-0.2h-0.2zm-4-4c-0.856 0-1.44 3.5e-4 -1.89 0.0371-0.438 0.0358-0.663 0.101-0.819 0.181-0.376 0.192-0.682 0.498-0.874 0.874-0.0797 0.156-0.145 0.381-0.181 0.819-0.0368 0.45-0.0371 1.03-0.0371 1.89v0.4c0 0.856 3.5e-4 1.44 0.0371 1.89 0.0358 0.438 0.101 0.663 0.181 0.819l0.0772 0.138c0.192 0.313 0.468 0.569 0.797 0.736l0.133 0.0566c0.15 0.0535 0.358 0.0972 0.687 0.124 0.294 0.024 0.643 0.0302 1.09 0.0332v-0.196c0-1.58 7e-5 -2.41 0.27-3.04l0.0576-0.123c0.252-0.494 0.635-0.907 1.1-1.2l0.206-0.115c0.481-0.245 1.07-0.307 2.05-0.322l1.11-0.00488h0.196c-3e-3 -0.445-0.00922-0.795-0.0332-1.09-0.0268-0.329-0.0705-0.537-0.124-0.687l-0.0566-0.133c-0.168-0.329-0.423-0.605-0.736-0.797l-0.138-0.0772c-0.156-0.0797-0.381-0.145-0.819-0.181-0.45-0.0368-1.03-0.0371-1.89-0.0371h-0.4z" clip-rule="evenodd" fill="#000" fill-rule="evenodd"/></svg>
