<svg viewBox="0 0 16 16" xmlns="http://www.w3.org/2000/svg"><path d="m6.22 1.09c-0.218 0.428-0.218 0.988-0.218 2.11v3.6c0 1.12 0 1.68 0.218 2.11 0.192 0.376 0.498 0.682 0.874 0.874 0.428 0.218 0.988 0.218 2.11 0.218h3.6c1.12 0 1.68 0 2.11-0.218 0.376-0.192 0.682-0.498 0.874-0.874 0.218-0.428 0.218-0.988 0.218-2.11v-3.6c0-1.12 0-1.68-0.218-2.11-0.192-0.376-0.498-0.682-0.874-0.874-0.428-0.218-0.988-0.218-2.11-0.218h-3.6c-1.12 0-1.68 0-2.11 0.218-0.376 0.192-0.682 0.498-0.874 0.874z" fill="#000"/><path d="m4 6v1h-0.6c-0.84 0-1.26 0-1.58 0.163-0.282 0.144-0.512 0.373-0.656 0.656-0.163 0.321-0.163 0.741-0.163 1.58v3.2c0 0.84 0 1.26 0.163 1.58 0.144 0.282 0.373 0.512 0.656 0.656 0.321 0.164 0.741 0.164 1.58 0.164h3.2c0.84 0 1.26 0 1.58-0.164 0.282-0.144 0.512-0.373 0.656-0.656 0.163-0.321 0.163-0.741 0.163-1.58v-0.6h1v0.636c0 0.389 0 0.739-0.0238 1.03-0.0255 0.312-0.0832 0.644-0.249 0.968-0.24 0.47-0.622 0.853-1.09 1.09-0.325 0.166-0.656 0.223-0.968 0.249-0.291 0.0238-0.641 0.0238-1.03 0.0238h-3.27c-0.389 0-0.739 0-1.03-0.0238-0.312-0.0254-0.643-0.0831-0.968-0.249-0.47-0.24-0.853-0.622-1.09-1.09-0.166-0.325-0.223-0.656-0.249-0.968-0.0238-0.291-0.0238-0.641-0.0238-1.03v-3.27c-2.23e-5 -0.389-4.24e-5 -0.739 0.0238-1.03 0.0255-0.312 0.0832-0.643 0.249-0.968 0.24-0.47 0.622-0.853 1.09-1.09 0.325-0.166 0.656-0.223 0.968-0.249 0.291-0.0238 0.641-0.0238 1.03-0.0238h0.636z" fill="#000"/></svg>
