<svg fill="none" viewBox="0 0 16 16" xmlns="http://www.w3.org/2000/svg"><path d="m8.39 1c0.699 0 1.4 0.2 2 0.7l2.1 1.8c0.0999 0.1 0.0999 0.3 0 0.4-0.0998 0.1-0.0998 0.3 0 0.4l0.51 0.45c0.0977 0.0938 0.259 0.0794 0.388-0.05 0.158-0.158 0.2-0.173 0.399 0l1 0.911c0.185 0.181 0.196 0.289 0.0958 0.389l-1.6 1.9c-0.109 0.139-0.269 0.198-0.399 0.1l-0.898-0.8c-0.0998-0.1-0.0874-0.276 0-0.4s0.107-0.304 0-0.4l-0.522-0.431c-0.156-0.121-0.226-0.148-0.449 0.0312-0.151 0.121-0.252 0.105-0.352 0.0312-0.0999-0.0737-0.086-0.0625-0.195-0.152-0.135-0.11-0.238-0.132-0.379 0.0211l-2.6 3.2c0.299 0.2 0.299 0.6 0.0998 0.9l-3.79 4.5c-0.399 0.3-0.799 0.5-1.2 0.5s-0.699-0.1-0.998-0.4c-0.699-0.6-0.699-1.5-0.2-2.2l3.79-4.5c0.0998-0.1 0.299-0.2 0.499-0.2 0.0998 0 0.299 0 0.399 0.1l2.2-2.6c0.399-0.4 0.25-0.9-0.149-1.3l-0.23-0.216c-0.499-0.5-1.22-0.684-2.02-0.684h-0.399c-0.0998 0-0.154-0.121-0.0998-0.2l0.599-0.7c0.599-0.7 1.5-1.1 2.4-1.1zm0-1c-1.2 0-2.4 0.5-3.09 1.5l-0.599 0.7c-0.299 0.3-0.399 0.8-0.2 1.2 0.2 0.4 0.599 0.6 0.998 0.6h0.2 0.299c0.499 0 0.998 0.2 1.3 0.5l0.2 0.2-1.8 2h-0.0998c-0.499 0-0.898 0.2-1.2 0.6l-3.79 4.5c-0.898 1.1-0.799 2.7 0.299 3.6 0.499 0.4 0.998 0.6 1.7 0.6 0.799 0 1.5-0.3 1.9-0.9l3.79-4.5c0.299-0.4 0.399-0.9 0.299-1.4l1.9-2.2c0.105-0.119 0.3-0.113 0.3 0 0 0.3 0.2 0.7 0.499 0.9l0.898 0.8c0.299 0.2 0.599 0.3 0.898 0.3 0.399 0 0.799-0.2 0.998-0.5l1.6-1.9c0.499-0.5 0.329-1.32-0.2-1.8l-0.898-0.8c-0.2-0.2-0.499-0.3-0.898-0.3h-0.0999c0-0.3-0.2-0.7-0.499-0.9l-2.1-1.8c-0.699-0.7-1.6-1-2.6-1z" fill="#000"/></svg>
