<svg viewBox="0 0 16 16" xmlns="http://www.w3.org/2000/svg"><path d="m2.65 2.65c0.195-0.195 0.512-0.195 0.707 0l1.65 1.65 1.65-1.65c0.195-0.195 0.512-0.195 0.707 0 0.195 0.195 0.195 0.512 0 0.707l-1.65 1.65 1.65 1.65c0.195 0.195 0.195 0.512 0 0.707-0.195 0.195-0.512 0.195-0.707 0l-1.65-1.65-1.65 1.65c-0.195 0.195-0.512 0.195-0.707 0-0.195-0.195-0.195-0.512 0-0.707l1.65-1.65-1.65-1.65c-0.195-0.195-0.195-0.512 0-0.707z" fill="#000"/><path d="m0.272 1.37c-0.272 0.535-0.272 1.23-0.272 2.63v2c0 1.4 0 2.1 0.272 2.63 0.24 0.47 0.622 0.853 1.09 1.09 0.535 0.272 1.23 0.272 2.63 0.272h2c1.4 0 2.1 0 2.63-0.272 0.47-0.24 0.853-0.622 1.09-1.09 0.272-0.535 0.272-1.23 0.272-2.63v-2c0-1.4 0-2.1-0.272-2.63-0.24-0.47-0.622-0.853-1.09-1.09-0.535-0.272-1.23-0.272-2.63-0.272h-2c-1.4 0-2.1 0-2.63 0.272-0.47 0.24-0.853 0.622-1.09 1.09zm5.73-0.365h-2c-0.717 0-1.19 7.8e-4 -1.56 0.0307-0.355 0.029-0.518 0.0803-0.62 0.133-0.282 0.144-0.512 0.373-0.656 0.656-0.0524 0.103-0.104 0.265-0.133 0.62-0.03 0.367-0.0307 0.844-0.0307 1.56v2c0 0.717 7.8e-4 1.19 0.0307 1.56 0.029 0.355 0.0803 0.518 0.133 0.62 0.144 0.282 0.373 0.512 0.656 0.656 0.103 0.0524 0.265 0.104 0.62 0.133 0.367 0.03 0.844 0.0307 1.56 0.0307h2c0.717 0 1.19-7.8e-4 1.56-0.0307 0.355-0.029 0.518-0.0803 0.62-0.133 0.282-0.144 0.512-0.373 0.656-0.656 0.0524-0.103 0.104-0.265 0.133-0.62 0.03-0.367 0.0307-0.844 0.0307-1.56v-2c0-0.717-7.8e-4 -1.19-0.0307-1.56-0.029-0.355-0.0803-0.518-0.133-0.62-0.144-0.282-0.373-0.512-0.656-0.656-0.103-0.0524-0.265-0.104-0.62-0.133-0.367-0.03-0.844-0.0307-1.56-0.0307z" clip-rule="evenodd" fill="#000" fill-rule="evenodd"/><path d="m3.5 12c0.228 0.304 0.523 0.553 0.865 0.728 0.535 0.272 1.23 0.272 2.63 0.272h2c1.4 0 2.1 0 2.64-0.272 0.47-0.24 0.853-0.622 1.09-1.09 0.272-0.535 0.272-1.23 0.272-2.64v-2c0-1.4 0-2.1-0.272-2.63-0.174-0.342-0.424-0.637-0.728-0.865v5.5c0 0.717-8e-4 1.19-0.0307 1.56-0.0291 0.355-0.0804 0.518-0.133 0.62-0.144 0.282-0.373 0.512-0.656 0.656-0.103 0.0524-0.265 0.104-0.62 0.133-0.367 0.0299-0.844 0.0307-1.56 0.0307h-5.5z" fill="#000"/><path d="m7.37 15.7c-0.342-0.174-0.637-0.424-0.865-0.728h5.5c0.717 0 1.19-8e-4 1.56-0.0307 0.355-0.0291 0.518-0.0804 0.62-0.133 0.282-0.144 0.512-0.373 0.656-0.656 0.0524-0.103 0.104-0.265 0.133-0.62 0.0299-0.367 0.0307-0.844 0.0307-1.56v-5.5c0.304 0.228 0.553 0.523 0.728 0.865 0.272 0.535 0.272 1.23 0.272 2.63v2c0 1.4 0 2.1-0.272 2.64-0.24 0.47-0.622 0.853-1.09 1.09-0.535 0.272-1.23 0.272-2.64 0.272h-2c-1.4 0-2.1 0-2.63-0.272z" fill="#000"/></svg>
