<svg viewBox="0 0 16 16" xmlns="http://www.w3.org/2000/svg"><path d="m7.5 3c-1.38 0-2.5 1.12-2.5 2.5v8c0 1.38 1.12 2.5 2.5 2.5h6c1.38 0 2.5-1.12 2.5-2.5v-8c0-1.38-1.12-2.5-2.5-2.5h-6zm-1.5 2.5c0-0.828 0.672-1.5 1.5-1.5h6c0.828 0 1.5 0.672 1.5 1.5v8c0 0.828-0.672 1.5-1.5 1.5h-6c-0.828 0-1.5-0.672-1.5-1.5v-8z" clip-rule="evenodd" fill="#000" fill-rule="evenodd"/><path d="m8 6.5c0-0.276 0.224-0.5 0.5-0.5h4c0.276 0 0.5 0.224 0.5 0.5s-0.224 0.5-0.5 0.5h-4c-0.276 0-0.5-0.224-0.5-0.5z" fill="#000"/><path d="m8 9.5c0-0.276 0.224-0.5 0.5-0.5h4c0.276 0 0.5 0.224 0.5 0.5s-0.224 0.5-0.5 0.5h-4c-0.276 0-0.5-0.224-0.5-0.5z" fill="#000"/><path d="m8 12.5c0-0.276 0.224-0.5 0.5-0.5h3c0.276 0 0.5 0.224 0.5 0.5s-0.224 0.5-0.5 0.5h-3c-0.276 0-0.5-0.224-0.5-0.5z" fill="#000"/><path d="m0 2.5c0-1.38 1.12-2.5 2.5-2.5h6c0.979 0 1.83 0.562 2.24 1.38 0.152 0.303-0.104 0.618-0.443 0.618-0.227 0-0.422-0.149-0.549-0.338-0.269-0.399-0.726-0.662-1.24-0.662h-6c-0.828 0-1.5 0.672-1.5 1.5v8c0 0.828 0.672 1.5 1.5 1.5h1c0.276 0 0.5 0.224 0.5 0.5s-0.224 0.5-0.5 0.5h-1c-1.38 0-2.5-1.12-2.5-2.5v-8z" fill="#000"/></svg>
