<svg viewBox="0 0 16 16" xmlns="http://www.w3.org/2000/svg"><path d="m15.5 14c0.276 0 0.5 0.224 0.5 0.5s-0.224 0.5-0.5 0.5h-15c-0.276 0-0.5-0.224-0.5-0.5 1.54e-8 -0.276 0.224-0.5 0.5-0.5h15z" fill="#000"/><path d="m10 6c0.7 0 1.05 4.8e-4 1.32 0.137 0.235 0.12 0.426 0.311 0.546 0.546 0.136 0.267 0.137 0.617 0.137 1.32s-5e-4 1.05-0.137 1.32c-0.12 0.235-0.311 0.426-0.546 0.546-0.267 0.136-0.617 0.137-1.32 0.137h-4c-0.7 0-1.05-4.8e-4 -1.32-0.137-0.235-0.12-0.426-0.311-0.546-0.546-0.136-0.267-0.137-0.617-0.137-1.32s4.8e-4 -1.05 0.137-1.32c0.12-0.235 0.311-0.426 0.546-0.546 0.267-0.136 0.617-0.137 1.32-0.137h4z" fill="#000"/><path d="m15.5 1c0.276 0 0.5 0.224 0.5 0.5s-0.224 0.5-0.5 0.5h-15c-0.276 0-0.5-0.224-0.5-0.5 1.54e-8 -0.276 0.224-0.5 0.5-0.5h15z" fill="#000"/></svg>
