<svg viewBox="0 0 16 16" xmlns="http://www.w3.org/2000/svg"><path d="M5 4C5 3.86067 5 3.791 5.00815 3.73257C5.06063 3.35635 5.35635 3.06063 5.73257 3.00815C5.791 3 5.86067 3 6 3C6.13933 3 6.209 3 6.26743 3.00815C6.64365 3.06063 6.93937 3.35635 6.99185 3.73257C7 3.791 7 3.86067 7 4C7 4.13933 7 4.209 6.99185 4.26743C6.93937 4.64365 6.64365 4.93937 6.26743 4.99185C6.209 5 6.13933 5 6 5C5.86067 5 5.791 5 5.73257 4.99185C5.35635 4.93937 5.06063 4.64365 5.00815 4.26743C5 4.209 5 4.13933 5 4Z" fill="#000"/><path d="M5 8C5 7.86067 5 7.791 5.00815 7.73257C5.06063 7.35635 5.35635 7.06063 5.73257 7.00815C5.791 7 5.86067 7 6 7C6.13933 7 6.209 7 6.26743 7.00815C6.64365 7.06063 6.93937 7.35635 6.99185 7.73257C7 7.791 7 7.86067 7 8C7 8.13933 7 8.209 6.99185 8.26743C6.93937 8.64365 6.64365 8.93937 6.26743 8.99185C6.209 9 6.13933 9 6 9C5.86067 9 5.791 9 5.73257 8.99185C5.35635 8.93937 5.06063 8.64365 5.00815 8.26743C5 8.209 5 8.13933 5 8Z" fill="#000"/><path d="m5 12c0-0.139 0-0.209 0.00815-0.267 0.0525-0.376 0.348-0.672 0.724-0.724 0.0584-0.0082 0.128-0.0082 0.267-0.0082s0.209 0 0.267 0.0082c0.376 0.0524 0.672 0.348 0.724 0.724 0.00815 0.0584 0.00815 0.128 0.00815 0.267s0 0.209-0.00815 0.267c-0.0525 0.376-0.348 0.672-0.724 0.724-0.0584 0.0082-0.128 0.0082-0.267 0.0082s-0.209 0-0.267-0.0082c-0.376-0.0524-0.672-0.348-0.724-0.724-0.00815-0.0584-0.00815-0.128-0.00815-0.267z" fill="#000"/><path d="M9 4C9 3.86067 9 3.791 9.00815 3.73257C9.06063 3.35635 9.35635 3.06063 9.73257 3.00815C9.791 3 9.86067 3 10 3C10.1393 3 10.209 3 10.2674 3.00815C10.6436 3.06063 10.9394 3.35635 10.9918 3.73257C11 3.791 11 3.86067 11 4C11 4.13933 11 4.209 10.9918 4.26743C10.9394 4.64365 10.6436 4.93937 10.2674 4.99185C10.209 5 10.1393 5 10 5C9.86067 5 9.791 5 9.73257 4.99185C9.35635 4.93937 9.06063 4.64365 9.00815 4.26743C9 4.209 9 4.13933 9 4Z" fill="#000"/><path d="M9 8C9 7.86067 9 7.791 9.00815 7.73257C9.06063 7.35635 9.35635 7.06063 9.73257 7.00815C9.791 7 9.86067 7 10 7C10.1393 7 10.209 7 10.2674 7.00815C10.6436 7.06063 10.9394 7.35635 10.9918 7.73257C11 7.791 11 7.86067 11 8C11 8.13933 11 8.209 10.9918 8.26743C10.9394 8.64365 10.6436 8.93937 10.2674 8.99185C10.209 9 10.1393 9 10 9C9.86067 9 9.791 9 9.73257 8.99185C9.35635 8.93937 9.06063 8.64365 9.00815 8.26743C9 8.209 9 8.13933 9 8Z" fill="#000"/><path d="m9 12c0-0.139 0-0.209 0.00815-0.267 0.0525-0.376 0.348-0.672 0.724-0.724 0.0584-0.0082 0.128-0.0082 0.267-0.0082 0.139 0 0.209 0 0.267 0.0082 0.376 0.0524 0.672 0.348 0.724 0.724 0.0082 0.0584 0.0082 0.128 0.0082 0.267s0 0.209-0.0082 0.267c-0.0524 0.376-0.348 0.672-0.724 0.724-0.0584 0.0082-0.128 0.0082-0.267 0.0082-0.139 0-0.209 0-0.267-0.0082-0.376-0.0524-0.672-0.348-0.724-0.724-0.00815-0.0584-0.00815-0.128-0.00815-0.267z" fill="#000"/></svg>
