<svg viewBox="0 0 16 16" xmlns="http://www.w3.org/2000/svg"><path d="m10.5 7c0.276 0 0.5 0.224 0.5 0.5v1.5h1.5c0.276 0 0.5 0.224 0.5 0.5s-0.224 0.5-0.5 0.5h-1.5v1.5c0 0.276-0.224 0.5-0.5 0.5s-0.5-0.224-0.5-0.5v-1.5h-1.5c-0.276 0-0.5-0.224-0.5-0.5s0.224-0.5 0.5-0.5h1.5v-1.5c0-0.276 0.224-0.5 0.5-0.5z" fill="#000"/><path d="m13.5 3c1.38 0 2.5 1.12 2.5 2.5v8c0 1.38-1.12 2.5-2.5 2.5h-6c-1.38 0-2.5-1.12-2.5-2.5v-8c0-1.38 1.12-2.5 2.5-2.5h6zm-6 1c-0.828 0-1.5 0.672-1.5 1.5v8c0 0.828 0.672 1.5 1.5 1.5h6c0.828 0 1.5-0.672 1.5-1.5v-8c0-0.828-0.672-1.5-1.5-1.5h-6z" clip-rule="evenodd" fill="#000" fill-rule="evenodd"/><path d="m8.5 0c0.979 0 1.83 0.563 2.24 1.38 0.152 0.303-0.103 0.618-0.442 0.618-0.227 0-0.423-0.149-0.55-0.338-0.27-0.399-0.726-0.662-1.24-0.662h-6c-0.828 0-1.5 0.672-1.5 1.5v8c0 0.828 0.672 1.5 1.5 1.5h1c0.276 0 0.5 0.224 0.5 0.5s-0.224 0.5-0.5 0.5h-1c-1.38 0-2.5-1.12-2.5-2.5v-8c0-1.38 1.12-2.5 2.5-2.5h6z" fill="#000"/></svg>
