<svg viewBox="0 0 16 16" xmlns="http://www.w3.org/2000/svg"><path d="m2.85 2.15c-0.195-0.195-0.512-0.195-0.707 0-0.195 0.195-0.195 0.512 0 0.707l11 11c0.195 0.195 0.512 0.195 0.707 0 0.195-0.195 0.195-0.512 0-0.707l-11-11z" fill="#000"/><path d="m15 8.88c-0.434 0.594-0.885 1.12-1.35 1.59l-0.707-0.707c0.429-0.429 0.846-0.92 1.25-1.47 0.0533-0.073 0.0858-0.159 0.0941-0.249 0.0082-0.09-8e-3 -0.181-0.0471-0.262l-0.045-0.075c-1.75-2.4-3.72-3.62-5.93-3.7l-0.256-5e-3c-0.266 0-0.528 0.0161-0.787 0.0484l-0.862-0.862c0.535-0.124 1.08-0.187 1.65-0.187 2.66 0 5 1.39 6.99 4.12 0.188 0.257 0.289 0.567 0.289 0.885s-0.101 0.628-0.289 0.885z" fill="#000"/><path d="m11 7.83c-0.0845-1.52-1.3-2.74-2.83-2.83l2.83 2.83z" fill="#000"/><path d="m1.22 6.83c0.368-0.479 0.747-0.914 1.14-1.3l0.707 0.707c-0.429 0.429-0.846 0.92-1.25 1.47l-0.047 0.079c-0.0323 0.0674-0.0491 0.141-0.0491 0.216s0.0168 0.149 0.0491 0.216l0.044 0.074c1.75 2.4 3.72 3.62 5.93 3.7l0.256 5e-3c0.266 0 0.528-0.0161 0.787-0.0484l0.861 0.861c-0.535 0.124-1.08 0.187-1.65 0.187-2.66 0-5-1.39-6.99-4.12l-0.082-0.125c-0.148-0.252-0.22-0.542-0.205-0.835s0.114-0.574 0.287-0.81l0.215-0.287z" fill="#000"/><path d="m7.83 11c-1.52-0.0845-2.74-1.3-2.83-2.83l2.83 2.83z" fill="#000"/></svg>
