<svg fill="none" viewBox="0 0 16 16" xmlns="http://www.w3.org/2000/svg"><path d="m8 3c2.66 0 5 1.39 6.99 4.12 0.188 0.257 0.289 0.567 0.289 0.885s-0.101 0.628-0.289 0.885c-2 2.73-4.33 4.12-6.99 4.12s-5-1.39-6.99-4.12l-0.082-0.125c-0.148-0.252-0.22-0.542-0.205-0.835 0.0146-0.292 0.114-0.574 0.287-0.81l0.215-0.287c1.95-2.54 4.21-3.83 6.78-3.83zm0 1c-2.31 0-4.37 1.22-6.18 3.7l-0.047 0.079c-0.0323 0.0674-0.0491 0.141-0.0491 0.216s0.0168 0.149 0.0491 0.216l0.044 0.074c1.75 2.4 3.72 3.62 5.93 3.7l0.256 5e-3c2.31 0 4.37-1.22 6.18-3.7 0.0533-0.073 0.0858-0.159 0.0941-0.249 0.0082-0.09-8e-3 -0.181-0.0471-0.262l-0.045-0.075c-1.75-2.4-3.72-3.62-5.93-3.7l-0.256-5e-3zm0 1c0.133 0 0.26 0.0527 0.354 0.146 0.0938 0.0938 0.146 0.221 0.146 0.354s-0.0527 0.26-0.146 0.354c-0.0938 0.0938-0.221 0.146-0.354 0.146-0.43 1.7e-4 -0.849 0.139-1.19 0.396-0.345 0.257-0.598 0.619-0.721 1.03-0.123 0.412-0.11 0.854 0.0376 1.26 0.148 0.404 0.422 0.75 0.781 0.986 0.36 0.236 0.786 0.35 1.22 0.324 0.43-0.0255 0.84-0.189 1.17-0.466 0.329-0.277 0.561-0.653 0.659-1.07s0.0596-0.859-0.112-1.25c-0.0487-0.121-0.0483-0.256 0.00119-0.377 0.0494-0.121 0.144-0.217 0.264-0.269 0.12-0.0519 0.255-0.055 0.376-0.00882 0.122 0.0462 0.221 0.138 0.276 0.256 0.257 0.592 0.316 1.25 0.168 1.88s-0.495 1.19-0.989 1.61c-0.494 0.416-1.11 0.661-1.75 0.699-0.645 0.0383-1.28-0.132-1.82-0.487s-0.951-0.873-1.17-1.48-0.241-1.27-0.0561-1.89 0.564-1.16 1.08-1.55c0.518-0.386 1.15-0.594 1.79-0.594z" fill="#000"/></svg>
