<svg viewBox="0 0 16 16" xmlns="http://www.w3.org/2000/svg"><path d="m11.5 14c0.276 0 0.5 0.224 0.5 0.5s-0.224 0.5-0.5 0.5h-8c-0.276 0-0.5-0.224-0.5-0.5s0.224-0.5 0.5-0.5h8z" fill="#000"/><path d="m14.5 11c0.276 0 0.5 0.224 0.5 0.5s-0.224 0.5-0.5 0.5h-14c-0.276 0-0.5-0.224-0.5-0.5s0.224-0.5 0.5-0.5h14z" fill="#000"/><path d="m7.5 0c0.276 0 0.5 0.224 0.5 0.5v6.79l2.15-2.15c0.195-0.195 0.512-0.195 0.707 0 0.195 0.195 0.195 0.512 0 0.707l-3 3c-0.0341 0.0341-0.0731 0.0598-0.113 0.082-0.0443 0.0245-0.0914 0.0445-0.143 0.0547-0.0648 0.0128-0.132 0.013-0.196 0-0.0511-0.0102-0.0984-0.0302-0.143-0.0547-0.0399-0.0221-0.0784-0.0482-0.112-0.082l-3-3-0.0644-0.0781c-0.128-0.194-0.106-0.458 0.0644-0.629 0.171-0.171 0.435-0.193 0.629-0.0644l0.0781 0.0644 2.15 2.15v-6.79c0-0.276 0.224-0.5 0.5-0.5z" fill="#000"/></svg>
