<svg viewBox="0 0 16 16" xmlns="http://www.w3.org/2000/svg"><path d="m8.5 0c0.276 3.12e-5 0.5 0.224 0.5 0.5v15c0 0.276-0.224 0.5-0.5 0.5-0.276 0-0.5-0.224-0.5-0.5v-15c0-0.276 0.224-0.5 0.5-0.5z" fill="#000"/><path d="m5.6 3.01c0.231 0.049 0.396 0.253 0.396 0.489v9c0 0.276-0.224 0.5-0.5 0.5h-4c-0.169 0-0.327-0.0857-0.419-0.228-0.0922-0.142-0.107-0.321-0.0381-0.476l4-9 0.042-0.0762c0.112-0.167 0.317-0.253 0.519-0.21z" fill="#000"/><path d="m11.4 3.01c0.202-0.0427 0.406 0.0433 0.519 0.21l0.042 0.0762 4 9c0.0687 0.155 0.0541 0.334-0.0381 0.476-0.0922 0.142-0.25 0.228-0.419 0.228h-4c-0.276 0-0.5-0.224-0.5-0.5v-9c0-0.236 0.166-0.44 0.396-0.489z" fill="#000"/></svg>
