<svg viewBox="0 0 16 16" xmlns="http://www.w3.org/2000/svg"><path d="m4 1c-1.1 0-2 0.895-2 2v9c0 1.1 0.895 2 2 2h2.5c0.276 0 0.5-0.224 0.5-0.5s-0.224-0.5-0.5-0.5h-2.5c-0.552 0-1-0.448-1-1v-9c0-0.552 0.448-1 1-1h2.5c0.276 0 0.5-0.224 0.5-0.5s-0.224-0.5-0.5-0.5h-2.5z" fill="#000"/><path d="m11.9 4.15c-0.195-0.195-0.512-0.195-0.707 0-0.195 0.195-0.195 0.512 0 0.707l2.15 2.15h-6.79c-0.276 0-0.5 0.224-0.5 0.5s0.224 0.5 0.5 0.5h6.79l-2.15 2.15c-0.195 0.195-0.195 0.512 0 0.707 0.195 0.195 0.512 0.195 0.707 0l3-3c0.195-0.195 0.195-0.512 0-0.707l-3-3z" fill="#000"/></svg>
