<svg viewBox="0 0 16 16" xmlns="http://www.w3.org/2000/svg"><path d="m7.5 14c3.59 0 6.5-2.91 6.5-6.5 0-3.59-2.91-6.5-6.5-6.5-3.59 0-6.5 2.91-6.5 6.5 0 3.59 2.91 6.5 6.5 6.5zm0 1c4.14 0 7.5-3.36 7.5-7.5 0-4.14-3.36-7.5-7.5-7.5-4.14 0-7.5 3.36-7.5 7.5 0 4.14 3.36 7.5 7.5 7.5z" clip-rule="evenodd" fill="#000" fill-rule="evenodd"/><path d="m11 7.5c0 0.276-0.224 0.5-0.5 0.5h-6c-0.276 0-0.5-0.224-0.5-0.5s0.224-0.5 0.5-0.5h6c0.276 0 0.5 0.224 0.5 0.5z" clip-rule="evenodd" fill="#000" fill-rule="evenodd"/></svg>
