<svg viewBox="0 0 16 16" xmlns="http://www.w3.org/2000/svg"><path d="m14 8h-4c-0.552 0-1 0.448-1 1v5c0 0.552 0.448 1 1 1h4c0.552 0 1-0.448 1-1v-5c0-0.552-0.448-1-1-1zm-4-1c-1.1 0-2 0.895-2 2v5c0 1.1 0.895 2 2 2h4c1.1 0 2-0.895 2-2v-5c0-1.1-0.895-2-2-2h-4z" clip-rule="evenodd" fill="#000" fill-rule="evenodd"/><path d="m10 9.5c0-0.276 0.224-0.5 0.5-0.5h3c0.276 0 0.5 0.224 0.5 0.5s-0.224 0.5-0.5 0.5h-3c-0.276 0-0.5-0.224-0.5-0.5z" fill="#000"/><path d="m10 11.5c0-0.276 0.224-0.5 0.5-0.5h3c0.276 0 0.5 0.224 0.5 0.5s-0.224 0.5-0.5 0.5h-3c-0.276 0-0.5-0.224-0.5-0.5z" fill="#000"/><path d="m10 13.5c0-0.276 0.224-0.5 0.5-0.5h2c0.276 0 0.5 0.224 0.5 0.5s-0.224 0.5-0.5 0.5h-2c-0.276 0-0.5-0.224-0.5-0.5z" fill="#000"/><path d="m9 3c0 0.552-0.448 1-1 1h-4c-0.552 0-1-0.448-1-1h-1c-0.552 0-1 0.448-1 1v9c0 0.552 0.448 1 1 1h5v1h-5c-1.1 0-2-0.895-2-2v-9c0-1.1 0.895-2 2-2h1c0-0.552 0.448-1 1-1h0.268c0.346-0.598 0.992-1 1.73-1s1.39 0.402 1.73 1h0.268c0.552 0 1 0.448 1 1h1c1.1 0 2 0.895 2 2v2h-1v-2c0-0.552-0.448-1-1-1h-1zm-4.73-1c0.357 0 0.687-0.19 0.866-0.499 0.174-0.302 0.498-0.501 0.867-0.501s0.692 0.199 0.867 0.501c0.179 0.309 0.509 0.499 0.866 0.499h0.0176c0.138 0 0.25 0.112 0.25 0.25v0.5c0 0.138-0.112 0.25-0.25 0.25h-3.5c-0.138 0-0.25-0.112-0.25-0.25v-0.5c0-0.138 0.112-0.25 0.25-0.25h0.0176z" clip-rule="evenodd" fill="#000" fill-rule="evenodd"/></svg>
