<svg viewBox="0 0 16 16" xmlns="http://www.w3.org/2000/svg"><path d="m5.18 5.59-2.55 1.16c-0.318 0.145-0.394 0.563-0.147 0.81l5.96 5.96c0.247 0.247 0.665 0.171 0.81-0.146l1.16-2.55 0.755 0.755-1 2.21c-0.434 0.953-1.69 1.18-2.43 0.44l-2.63-2.63-3.26 3.26c-0.195 0.195-0.512 0.195-0.707 0-0.195-0.195-0.195-0.512 0-0.707l3.26-3.26-2.63-2.63c-0.741-0.741-0.513-1.99 0.44-2.43l2.21-1 0.756 0.756z" fill="#000"/><path d="m3.18 0.18c0.239-0.239 0.629-0.239 0.868 0l11.8 11.8c0.239 0.24 0.239 0.629 0 0.868s-0.629 0.24-0.868 0l-11.8-11.8c-0.239-0.239-0.239-0.629 0-0.868z" fill="#000"/><path d="m9.02 0.729c0.502-0.837 1.66-0.979 2.35-0.289l4.19 4.19c0.69 0.69 0.548 1.85-0.289 2.35l-1.35 0.81-0.41 0.409-0.707-0.707 0.454-0.453c0.0288-0.0288 0.0608-0.0542 0.0957-0.0752l1.4-0.842c0.279-0.167 0.326-0.552 0.0967-0.782l-4.19-4.19c-0.23-0.23-0.615-0.182-0.782 0.0967l-0.842 1.4c-0.021 0.0349-0.0464 0.0679-0.0752 0.0967l-0.453 0.453-0.708-0.708 0.411-0.409 0.81-1.35z" fill="#000"/></svg>
