<svg fill="none" viewBox="0 0 16 16" xmlns="http://www.w3.org/2000/svg"><path d="m14.8 1.01c0.0777 0.00635 0.197 0.0212 0.332 0.0693l0.14 0.0605 0.0859 0.0479c0.168 0.103 0.309 0.244 0.412 0.412l0.0479 0.0859 0.0605 0.14c0.0482 0.135 0.063 0.254 0.0693 0.332 0.0076 0.0919 0.0069 0.193 0.0069 0.246v0.199c0 0.0535 7e-4 0.154-0.0069 0.246-0.0063 0.0777-0.0211 0.197-0.0693 0.332l-0.0605 0.14c-0.105 0.206-0.264 0.378-0.46 0.498l-0.0859 0.0479c-0.115 0.0587-0.226 0.0894-0.317 0.107v5.13c0 0.412 0 0.751-0.0225 1.03-0.0172 0.211-0.0491 0.408-0.116 0.597l-0.0791 0.186c-0.168 0.329-0.423 0.605-0.736 0.797l-0.138 0.0771c-0.243 0.124-0.501 0.172-0.782 0.195-0.275 0.0225-0.615 0.0225-1.03 0.0225h-2.2l2.02 3.24c0.146 0.234 0.0749 0.542-0.159 0.688-0.234 0.146-0.542 0.0749-0.688-0.159l-2.35-3.76h-1.45l-2.35 3.76c-0.146 0.234-0.454 0.305-0.688 0.159-0.234-0.146-0.305-0.454-0.159-0.688l2.02-3.24h-2.2c-0.412 0-0.751 0-1.03-0.0225-0.211-0.0172-0.409-0.0491-0.597-0.116l-0.186-0.0791c-0.329-0.168-0.605-0.423-0.797-0.736l-0.0772-0.138c-0.124-0.243-0.172-0.501-0.195-0.782-0.0225-0.275-0.0225-0.615-0.0225-1.03v-5.13c-0.0539-0.0105-0.114-0.0252-0.178-0.0478l-0.14-0.0605c-0.206-0.105-0.378-0.264-0.498-0.46l-0.0479-0.0859c-0.0974-0.191-0.121-0.368-0.13-0.472-0.0075-0.0919-0.00684-0.193-0.00684-0.246v-0.199c-5e-10 -0.0535-6.69e-4 -0.154 0.00684-0.246 0.00846-0.104 0.0325-0.281 0.13-0.472l0.0479-0.0859c0.12-0.196 0.292-0.355 0.498-0.46l0.14-0.0605c0.135-0.0482 0.254-0.063 0.332-0.0693 0.0918-0.0075 0.193-0.00684 0.246-0.00684h13.2c0.0535 0 0.154-6.68e-4 0.246 0.00684zm-12.8 8.09c0 0.428 1.7e-4 0.72 0.0186 0.945 0.0179 0.219 0.051 0.331 0.0908 0.409l0.082 0.134c0.0922 0.127 0.213 0.231 0.354 0.303l0.0664 0.0283c0.0747 0.0268 0.179 0.0491 0.343 0.0625 0.225 0.0184 0.517 0.0186 0.945 0.0186h8.2c0.428 0 0.72-2e-4 0.945-0.0186 0.219-0.0179 0.331-0.051 0.409-0.0908l0.134-0.082c0.127-0.0923 0.231-0.214 0.303-0.354l0.0283-0.0664c0.0268-0.0748 0.0491-0.179 0.0625-0.343 0.0184-0.225 0.0186-0.517 0.0186-0.945v-5.1h-12v5.1zm-0.765-7.1c-0.0414 0.00342-0.072 0.0109-0.0986 0.0244-0.047 0.024-0.0854 0.0623-0.109 0.109-0.0272 0.0535-0.0273 0.124-0.0273 0.264v0.199l0.00292 0.165c0.00342 0.0414 0.0109 0.072 0.0244 0.0986 0.024 0.047 0.0623 0.0854 0.109 0.109 0.0266 0.0135 0.0572 0.021 0.0986 0.0244l0.165 0.00292h13.2l0.165-0.00292c0.0207-0.00171 0.0386-5e-3 0.0547-0.00879l0.044-0.0156c0.0235-0.012 0.045-0.0275 0.0634-0.0459l0.0459-0.0635c0.0136-0.0266 0.021-0.0572 0.0245-0.0986l0.0029-0.165v-0.199c0-0.14-2e-4 -0.21-0.0274-0.264-0.0239-0.047-0.0623-0.0854-0.109-0.109-0.0267-0.0135-0.0573-0.021-0.0987-0.0244l-0.165-0.00293h-13.2l-0.165 0.00293z" clip-rule="evenodd" fill="#000" fill-rule="evenodd"/></svg>
