<svg viewBox="0 0 16 16" xmlns="http://www.w3.org/2000/svg"><path d="m3.85 5.15c0.195 0.195 0.195 0.512 0 0.707l-2.15 2.15h4.79c0.276 0 0.5 0.224 0.5 0.5s-0.224 0.5-0.5 0.5h-4.79l2.15 2.15c0.195 0.195 0.195 0.512 0 0.707-0.195 0.195-0.512 0.195-0.707 0l-3-3c-0.195-0.195-0.195-0.512 0-0.707l3-3c0.195-0.195 0.512-0.195 0.707 0z" fill="#000"/><path d="m12.1 5.15c-0.195 0.195-0.195 0.512 0 0.707l2.15 2.15h-4.79c-0.276 0-0.5 0.224-0.5 0.5s0.224 0.5 0.5 0.5h4.79l-2.15 2.15c-0.195 0.195-0.195 0.512 0 0.707 0.195 0.195 0.512 0.195 0.707 0l3-3c0.195-0.195 0.195-0.512 0-0.707l-3-3c-0.195-0.195-0.512-0.195-0.707 0z" fill="#000"/></svg>
