<svg viewBox="0 0 16 16" xmlns="http://www.w3.org/2000/svg"><path d="m14.5 7c-0.276 0-0.5-0.224-0.5-0.5v-3.79l-4.15 4.15c-0.195 0.195-0.512 0.195-0.707 0-0.195-0.195-0.195-0.512 0-0.707l4.15-4.15h-3.79c-0.276 0-0.5-0.224-0.5-0.5s0.224-0.5 0.5-0.5h5c0.276 0 0.5 0.224 0.5 0.5v5c0 0.276-0.224 0.5-0.5 0.5z" fill="#000"/><path d="m1.5 9c0.276 0 0.5 0.224 0.5 0.5v3.79l4.15-4.15c0.195-0.195 0.512-0.195 0.707 0 0.195 0.195 0.195 0.512 0 0.707l-4.15 4.15h3.79c0.276 0 0.5 0.224 0.5 0.5s-0.224 0.5-0.5 0.5h-5c-0.276 0-0.5-0.224-0.5-0.5v-5c0-0.276 0.224-0.5 0.5-0.5z" fill="#000"/></svg>
