<svg viewBox="0 0 16 16" xmlns="http://www.w3.org/2000/svg"><path d="m8.52 8.06c-0.343-0.0822-0.702-0.0822-1.04 0l-0.171 0.0479-0.115 0.042c-0.263 0.105-0.475 0.259-0.655 0.412-0.197 0.167-0.415 0.386-0.649 0.62l-0.703 0.703-0.335 0.339c-0.105 0.108-0.202 0.212-0.285 0.31-0.175 0.206-0.351 0.453-0.454 0.77l-0.0479 0.171c-0.0822 0.343-0.0822 0.702 0 1.04l0.0479 0.171c0.103 0.317 0.279 0.565 0.454 0.77 0.0836 0.0984 0.18 0.202 0.285 0.31l0.335 0.339 0.703 0.703c0.234 0.234 0.453 0.453 0.649 0.62 0.18 0.153 0.392 0.307 0.655 0.412l0.115 0.042c0.394 0.128 0.815 0.144 1.22 0.0479l0.171-0.0479c0.317-0.103 0.565-0.28 0.771-0.454 0.0984-0.0835 0.202-0.18 0.311-0.285l0.339-0.335 0.703-0.703c0.234-0.234 0.453-0.453 0.62-0.649 0.153-0.18 0.307-0.392 0.412-0.655l0.042-0.115c0.146-0.45 0.146-0.936 0-1.39l-0.042-0.115c-0.105-0.263-0.259-0.475-0.412-0.655-0.167-0.197-0.386-0.415-0.62-0.649l-0.703-0.703-0.339-0.335c-0.108-0.105-0.212-0.202-0.311-0.285-0.206-0.175-0.453-0.351-0.771-0.454l-0.171-0.0479zm-0.906 0.999c0.249-0.081 0.518-0.081 0.768 0l0.105 0.042c0.244 0.116 0.486 0.358 0.917 0.789l0.702 0.702 0.325 0.328c0.281 0.29 0.437 0.482 0.506 0.694l0.0263 0.0938c0.0533 0.222 0.0446 0.455-0.0263 0.674-0.0922 0.284-0.339 0.53-0.831 1.02l-0.702 0.702c-0.492 0.492-0.739 0.739-1.02 0.831-0.218 0.0709-0.452 0.0796-0.674 0.0263l-0.0938-0.0263c-0.213-0.0692-0.404-0.225-0.694-0.506l-0.328-0.325-0.702-0.702c-0.431-0.43-0.673-0.673-0.789-0.917l-0.042-0.106c-0.0709-0.218-0.0797-0.452-0.0264-0.674l0.0264-0.0938c0.0691-0.213 0.225-0.404 0.506-0.694l0.325-0.328 0.702-0.702c0.492-0.492 0.739-0.739 1.02-0.831z" clip-rule="evenodd" fill="#000" fill-rule="evenodd"/><path d="m8.25 0c-2.82 5e-5 -5.24 1.74-6.25 4.2v-2.7c0-0.276-0.224-0.5-0.5-0.5s-0.5 0.224-0.5 0.5v4c0 0.276 0.224 0.5 0.5 0.5h4c0.276 0 0.5-0.224 0.5-0.5s-0.224-0.5-0.5-0.5h-2.73c0.74-2.32 2.91-4 5.48-4 3.18 0 5.75 2.57 5.75 5.75v0.75l0.0098 0.101c0.0465 0.228 0.249 0.399 0.49 0.399 0.242-6e-5 0.443-0.172 0.489-0.399l0.0107-0.101v-0.75c0-3.73-3.02-6.75-6.75-6.75z" fill="#000"/></svg>
