<svg viewBox="0 0 16 16" xmlns="http://www.w3.org/2000/svg"><path d="m14.1 4.02c0.281 0.023 0.54 0.0717 0.782 0.195 0.376 0.192 0.682 0.498 0.874 0.874 0.124 0.243 0.172 0.501 0.195 0.782 0.0224 0.275 0.0224 0.615 0.0224 1.03v6.2c0 0.412 0 0.751-0.0224 1.03-0.023 0.281-0.0717 0.54-0.195 0.782-0.192 0.376-0.498 0.682-0.874 0.874-0.243 0.124-0.501 0.172-0.782 0.195-0.275 0.0225-0.615 0.0225-1.03 0.0225h-5.61c-0.343 0-0.596 0.0028-0.84-0.0557-0.204-0.049-0.399-0.13-0.578-0.239-0.213-0.131-0.39-0.312-0.633-0.555l-0.594-0.594c-0.213-0.213-0.376-0.376-0.502-0.557h1.36l0.443 0.443c0.276 0.276 0.359 0.354 0.448 0.409 0.0894 0.0548 0.187 0.0957 0.289 0.12 0.0331 0.0079 0.0676 0.0125 0.112 0.0166l6.1 0.0107c0.428 0 0.72-2e-4 0.945-0.0186 0.219-0.0179 0.331-0.051 0.409-0.0908 0.188-0.0958 0.341-0.248 0.436-0.436 0.0399-0.0781 0.073-0.19 0.0909-0.409 0.0184-0.225 0.0185-0.517 0.0185-0.945v-6.2c0-0.428-1e-4 -0.72-0.0185-0.945-0.0179-0.219-0.051-0.331-0.0909-0.409-0.0958-0.188-0.248-0.341-0.436-0.437-0.0781-0.0398-0.19-0.0729-0.409-0.0908-0.0146-0.00119-0.0296-9e-4 -0.0449-0.00195v-1c0.0434 0.00241 0.0855 0.00255 0.126 0.00586z" fill="#000"/><path d="m9.1 1.19e-10c0.412 0 0.751-2.47e-5 1.03 0.0225 0.281 0.023 0.54 0.0717 0.782 0.195 0.376 0.192 0.682 0.498 0.874 0.874 0.124 0.243 0.172 0.501 0.195 0.782 0.0224 0.275 0.0224 0.615 0.0224 1.03v6.2c0 0.412 0 0.751-0.0224 1.03-0.023 0.281-0.0717 0.54-0.195 0.782-0.192 0.376-0.498 0.682-0.874 0.874-0.243 0.124-0.501 0.172-0.782 0.195-0.275 0.0225-0.615 0.0225-1.03 0.0225h-5.61c-0.343 0-0.596 0.0028-0.84-0.0557-0.204-0.049-0.399-0.13-0.578-0.239-0.213-0.131-0.39-0.312-0.633-0.555l-0.594-0.594c-0.243-0.242-0.424-0.419-0.555-0.633-0.11-0.179-0.19-0.374-0.239-0.578-0.0585-0.244-0.0557-0.497-0.0557-0.84v-5.61c0-0.412-2.47e-5 -0.751 0.0225-1.03 0.023-0.281 0.0717-0.54 0.195-0.782 0.192-0.376 0.498-0.682 0.874-0.874 0.243-0.124 0.501-0.172 0.782-0.195 0.275-0.0225 0.615-0.0225 1.03-0.0225h6.2zm-5.09 9c-0.00261 2.2e-4 -0.00552-2.1e-4 -0.00782 0-2.1e-4 0.0023 2.2e-4 0.00521 0 0.00782-0.00473 0.0582-0.00488 0.139-0.00488 0.287v1.7h3v-2h-2.7c-0.148 0-0.229 1.5e-4 -0.287 0.00488zm5.99-5.1c0 0.272 1e-4 0.506-0.0156 0.697-0.0162 0.197-0.0513 0.394-0.147 0.583-0.144 0.282-0.374 0.512-0.656 0.656-0.189 0.0962-0.386 0.131-0.583 0.147-0.192 0.0157-0.426 0.0156-0.697 0.0156h-3.8c-0.272 0-0.506 4e-5 -0.697-0.0156-0.197-0.0162-0.394-0.0513-0.583-0.147-0.282-0.144-0.512-0.374-0.656-0.656-0.0962-0.189-0.131-0.386-0.147-0.583-0.0157-0.192-0.0156-0.426-0.0156-0.697v-2.88c-0.0152 0.00105-0.0303 7.6e-4 -0.0449 0.00195-0.219 0.0179-0.331 0.051-0.409 0.0908-0.188 0.0958-0.341 0.249-0.437 0.437-0.0398 0.0782-0.0729 0.19-0.0908 0.409-0.0184 0.225-0.0186 0.517-0.0186 0.945v5.61c0 0.391 0.00293 0.505 0.0274 0.606 0.0245 0.102 0.0653 0.2 0.12 0.289 0.0546 0.0891 0.133 0.172 0.409 0.448l0.594 0.594c0.276 0.276 0.359 0.354 0.448 0.409 0.0894 0.0548 0.187 0.0957 0.289 0.12 0.0331 0.0079 0.0675 0.0125 0.112 0.0166v-1.69c0-0.132-7e-5 -0.261 0.00879-0.369 0.00935-0.114 0.0315-0.249 0.101-0.385 0.0958-0.188 0.249-0.341 0.437-0.437 0.136-0.0691 0.271-0.0912 0.385-0.101 0.108-0.00886 0.237-0.00879 0.369-0.00879h3.4c0.132 0 0.261-7e-5 0.369 0.00879 0.114 0.00935 0.249 0.0315 0.385 0.101 0.188 0.0958 0.341 0.249 0.437 0.437 0.0691 0.136 0.0912 0.271 0.101 0.385 0.00886 0.108 0.00879 0.237 0.00879 0.369v1.7h0.0996c0.428 0 0.72-2e-4 0.945-0.0186 0.219-0.0179 0.331-0.051 0.409-0.0908 0.188-0.0958 0.341-0.248 0.436-0.436 0.0399-0.0781 0.073-0.19 0.0909-0.409 0.0184-0.225 0.0185-0.517 0.0185-0.945v-6.2c0-0.428-1e-4 -0.72-0.0185-0.945-0.0179-0.219-0.051-0.331-0.0909-0.409-0.0958-0.188-0.248-0.341-0.436-0.437-0.0781-0.0398-0.19-0.0729-0.409-0.0908-0.0146-0.00119-0.0296-9e-4 -0.0449-0.00195v2.88zm-7 0c0 0.288 1.9e-4 0.474 0.0117 0.615 0.0111 0.135 0.0304 0.186 0.043 0.211 0.0479 0.0941 0.125 0.171 0.219 0.219 0.0248 0.0126 0.0756 0.0319 0.211 0.043 0.142 0.0115 0.328 0.0117 0.615 0.0117h3.8c0.288 0 0.474-1.9e-4 0.615-0.0117 0.135-0.0111 0.186-0.0304 0.211-0.043 0.0941-0.0479 0.171-0.125 0.219-0.219 0.0126-0.0248 0.0319-0.0756 0.043-0.211 0.0115-0.142 0.0117-0.328 0.0117-0.615v-2.9h-6v2.9z" clip-rule="evenodd" fill="#000" fill-rule="evenodd"/></svg>
