<svg viewBox="0 0 16 16" xmlns="http://www.w3.org/2000/svg"><path d="m10.9 0.164c-0.139-0.153-0.358-0.205-0.55-0.13s-0.32 0.26-0.32 0.466v2.52c-3.91 0.257-7 3.51-7 7.48 0 0.232 0.159 0.433 0.385 0.487 0.226 0.0533 0.458-0.0556 0.562-0.263 0.835-1.67 2.54-2.72 4.41-2.72h1.65v2.5c0 0.197 0.116 0.376 0.297 0.457 0.18 0.0804 0.391 0.047 0.538-0.0851l5-4.5c0.0989-0.089 0.158-0.214 0.165-0.347 0.0066-0.133-0.0399-0.263-0.129-0.361l-5-5.5zm0.13 3.34v-1.71l3.79 4.17-3.79 3.41v-1.88c0-0.276-0.224-0.5-0.5-0.5h-2.15c-1.54 0-3 0.6-4.08 1.63 0.804-2.68 3.29-4.63 6.23-4.63 0.276 0 0.5-0.224 0.5-0.5z" clip-rule="evenodd" fill="#000" fill-rule="evenodd"/><path d="m5.5 2c0.276-0.00129 0.501 0.223 0.501 0.499 0 0.276-0.224 0.5-0.5 0.501-0.678 0.0032-1.21 0.0139-1.65 0.0498-0.605 0.0494-0.953 0.142-1.22 0.276-0.564 0.288-1.02 0.747-1.31 1.31-0.134 0.263-0.226 0.611-0.276 1.22-0.0504 0.617-0.0512 1.41-0.0512 2.55v1.2c0 1.14 7.8e-4 1.93 0.0512 2.55 0.0494 0.605 0.142 0.953 0.276 1.22 0.288 0.564 0.747 1.02 1.31 1.31 0.263 0.134 0.611 0.226 1.22 0.276 0.617 0.0504 1.41 0.0512 2.55 0.0512h1.2c1.14 0 1.93-8e-4 2.55-0.0512 0.605-0.0494 0.953-0.142 1.22-0.276 0.564-0.288 1.02-0.747 1.31-1.31 0.134-0.263 0.226-0.611 0.276-1.22 0.0162-0.198 0.0272-0.413 0.0348-0.653 0.0086-0.273 0.23-0.493 0.504-0.493 0.279 0 0.505 0.228 0.496 0.507-0.0326 1.05-0.13 1.74-0.42 2.31-0.384 0.753-0.995 1.36-1.75 1.75-0.856 0.436-1.98 0.436-4.22 0.436h-1.2c-2.24 0-3.36 0-4.22-0.436-0.753-0.384-1.36-0.995-1.75-1.75-0.436-0.856-0.436-1.98-0.436-4.22v-1.2c0-2.24 0-3.36 0.436-4.22 0.383-0.753 0.995-1.36 1.75-1.75 0.732-0.373 1.66-0.427 3.32-0.435z" fill="#000"/></svg>
