<svg viewBox="0 0 16 16" xmlns="http://www.w3.org/2000/svg"><path d="m8 5c-1.66 0-3 1.34-3 3s1.34 3 3 3 3-1.34 3-3-1.34-3-3-3zm-2 3c0-1.1 0.895-2 2-2s2 0.895 2 2-0.895 2-2 2-2-0.895-2-2z" clip-rule="evenodd" fill="#000" fill-rule="evenodd"/><path d="m5.6 1.2c0.0944-0.126 0.243-0.2 0.4-0.2h4.5c0.157 0 0.306 0.0741 0.4 0.2l1.35 1.8h1.25c1.38 0 2.5 1.12 2.5 2.5v6c0 1.38-1.12 2.5-2.5 2.5h-11c-1.38 0-2.5-1.12-2.5-2.5v-6c0-1.38 1.12-2.5 2.5-2.5h1.75l1.35-1.8zm0.65 0.8-1.35 1.8c-0.0944 0.126-0.243 0.2-0.4 0.2h-2c-0.828 0-1.5 0.672-1.5 1.5v6c0 0.828 0.672 1.5 1.5 1.5h11c0.828 0 1.5-0.672 1.5-1.5v-6c0-0.828-0.672-1.5-1.5-1.5h-1.5c-0.157 0-0.306-0.0741-0.4-0.2l-1.35-1.8h-4z" clip-rule="evenodd" fill="#000" fill-rule="evenodd"/></svg>
