<svg viewBox="0 0 16 16" xmlns="http://www.w3.org/2000/svg"><path d="m2.5 1c0.276 3e-5 0.5 0.224 0.5 0.5v11.8l1.15-1.15c0.195-0.195 0.512-0.195 0.707 0 0.195 0.195 0.195 0.512 0 0.707l-2 2c-0.195 0.195-0.512 0.195-0.707 0l-2-2c-0.195-0.195-0.195-0.512 0-0.707 0.195-0.195 0.512-0.195 0.707 0l1.15 1.15v-11.8c0-0.276 0.224-0.5 0.5-0.5z" fill="#000"/><path d="m12.5 2c0.132 2e-5 0.26 0.0527 0.354 0.146l3 3c0.0937 0.0938 0.146 0.221 0.146 0.354v5.5c0 1.1-0.896 2-2 2h-5c-1.1 0-2-0.895-2-2v-7c0-1.1 0.895-2 2-2h3.5zm-3.5 1c-0.552 0-1 0.448-1 1v7c0 0.552 0.448 1 1 1h5c0.552 0 1-0.448 1-1v-5h-2.5c-0.276 0-0.5-0.224-0.5-0.5v-2.5h-3zm4 2h1.29l-1.29-1.29v1.29z" clip-rule="evenodd" fill="#000" fill-rule="evenodd"/></svg>
