<svg viewBox="0 0 16 16" xmlns="http://www.w3.org/2000/svg"><path d="m2.5 15c0.276 0 0.5-0.224 0.5-0.5v-11.8l1.15 1.15c0.195 0.195 0.512 0.195 0.707 0 0.195-0.195 0.195-0.512 0-0.707l-2-2c-0.195-0.195-0.512-0.195-0.707 0l-2 2c-0.195 0.195-0.195 0.512 0 0.707 0.195 0.195 0.512 0.195 0.707 0l1.15-1.15v11.8c0 0.276 0.224 0.5 0.5 0.5z" fill="#000"/><path d="m12.6 8.82c-0.0658 0.022-0.112 0.0828-0.112 0.152 0 0.0746 0.0526 0.139 0.125 0.155 1.53 0.351 2.9 1.43 3.36 3.25 0.0669 0.268-0.0959 0.539-0.364 0.606-0.268 0.0669-0.539-0.0959-0.606-0.364-0.433-1.73-1.95-2.62-3.51-2.62s-3.08 0.888-3.51 2.62c-0.067 0.268-0.338 0.431-0.606 0.364-0.268-0.067-0.431-0.338-0.364-0.606 0.456-1.82 1.83-2.9 3.36-3.25 0.0727-0.0167 0.125-0.0807 0.125-0.155 0-0.0694-0.0457-0.13-0.112-0.152-1.39-0.465-2.39-1.78-2.39-3.32 0-1.93 1.57-3.5 3.5-3.5s3.5 1.57 3.5 3.5c0 1.54-1 2.86-2.39 3.32zm1.39-3.32c0 1.38-1.12 2.5-2.5 2.5s-2.5-1.12-2.5-2.5 1.12-2.5 2.5-2.5 2.5 1.12 2.5 2.5z" clip-rule="evenodd" fill="#000" fill-rule="evenodd"/></svg>
