<svg viewBox="0 0 16 16" xmlns="http://www.w3.org/2000/svg"><path d="m4 14.5c0 0.276-0.224 0.5-0.5 0.5s-0.5-0.224-0.5-0.5v-11.8l-1.15 1.15c-0.195 0.195-0.512 0.195-0.707 0-0.195-0.195-0.195-0.512 0-0.707l2-2c0.195-0.195 0.512-0.195 0.707 0l2 2c0.195 0.195 0.195 0.512 0 0.707-0.195 0.195-0.512 0.195-0.707 0l-1.15-1.15v11.8z" fill="#000"/><path d="m12.5 1.31c-0.0776-0.186-0.26-0.308-0.462-0.308s-0.384 0.121-0.462 0.308l-1.66 3.99c-0.00308 0.00693-6e-3 0.014-0.00877 0.021l-0.829 1.99c-0.106 0.255 0.0143 0.548 0.269 0.654s0.548-0.0143 0.654-0.269l0.705-1.69h2.67l0.705 1.69c0.106 0.255 0.399 0.375 0.654 0.269s0.375-0.399 0.269-0.654l-0.829-1.99c-0.0028-0.0071-0.0057-0.0141-0.0088-0.0211l-1.66-3.99zm-0.462 1.49 0.917 2.2h-1.83l0.917-2.2z" clip-rule="evenodd" fill="#000" fill-rule="evenodd"/><path d="m10 9c-0.276 0-0.5 0.224-0.5 0.5s0.224 0.5 0.5 0.5h3.07l-3.48 5.22c-0.102 0.154-0.112 0.351-0.0248 0.513s0.256 0.264 0.441 0.264h4c0.276 0 0.5-0.224 0.5-0.5s-0.224-0.5-0.5-0.5h-3.07l3.48-5.22c0.102-0.153 0.112-0.351 0.0248-0.513s-0.256-0.264-0.441-0.264h-4z" fill="#000"/></svg>
