<svg fill="none" viewBox="0 0 16 16" xmlns="http://www.w3.org/2000/svg"><path d="m5.09 2.5c-0.382 0-0.639-0.388-0.427-0.706 0.716-1.08 1.94-1.79 3.34-1.79 2.21 0 4 1.79 4 4v2.01c0.77 0.0147 1.25 0.0688 1.64 0.267 0.47 0.24 0.853 0.622 1.09 1.09 0.272 0.535 0.272 1.23 0.272 2.63v2c0 1.4 0 2.1-0.272 2.64-0.24 0.47-0.622 0.853-1.09 1.09-0.535 0.272-1.23 0.272-2.64 0.272h-6c-1.4 0-2.1 0-2.63-0.272-0.47-0.24-0.853-0.622-1.09-1.09-0.272-0.535-0.272-1.23-0.272-2.64v-2c0-1.4 0-2.1 0.272-2.63 0.24-0.47 0.622-0.853 1.09-1.09 0.535-0.272 1.23-0.272 2.63-0.272h6v-2c0-1.66-1.34-3-3-3-0.999 0-1.88 0.488-2.43 1.24-0.113 0.156-0.288 0.261-0.48 0.261zm5.91 4.5h-6c-0.717 0-1.19 7.8e-4 -1.56 0.0307-0.355 0.029-0.518 0.0803-0.62 0.133-0.282 0.144-0.512 0.373-0.656 0.656-0.0524 0.103-0.104 0.265-0.133 0.62-0.03 0.367-0.0307 0.844-0.0307 1.56v2c0 0.717 7.8e-4 1.19 0.0307 1.56 0.029 0.355 0.0803 0.518 0.133 0.62 0.144 0.282 0.373 0.512 0.656 0.656 0.103 0.0525 0.265 0.104 0.62 0.133 0.367 0.0299 0.844 0.0307 1.56 0.0307h6c0.717 0 1.19-8e-4 1.56-0.0307 0.355-0.029 0.518-0.0803 0.62-0.133 0.282-0.144 0.512-0.373 0.656-0.656 0.0525-0.103 0.104-0.265 0.133-0.62 0.0299-0.367 0.0307-0.844 0.0307-1.56v-2c0-0.717-8e-4 -1.19-0.0307-1.56-0.029-0.355-0.0803-0.518-0.133-0.62-0.144-0.282-0.373-0.512-0.656-0.656-0.103-0.0524-0.265-0.104-0.62-0.133-0.367-0.03-0.844-0.0307-1.56-0.0307z" clip-rule="evenodd" fill="#000" fill-rule="evenodd"/></svg>
