<svg fill="none" viewBox="0 0 16 16" xmlns="http://www.w3.org/2000/svg"><path d="m3.5 8c-0.0684 0-0.133-0.013-0.195-0.0391-0.0586-0.026-0.111-0.0618-0.156-0.107-0.0456-0.0456-0.0814-0.0977-0.107-0.156-0.026-0.0618-0.0391-0.127-0.0391-0.195s0.013-0.132 0.0391-0.19c0.026-0.0618 0.0618-0.116 0.107-0.161 0.0456-0.0488 0.0977-0.0863 0.156-0.112 0.0618-0.026 0.127-0.0391 0.195-0.0391h9c0.0683 0 0.132 0.013 0.19 0.0391 0.0618 0.026 0.116 0.0635 0.161 0.112 0.0456 0.0456 0.0814 0.0993 0.107 0.161 0.0261 0.0586 0.0391 0.122 0.0391 0.19s-0.013 0.133-0.0391 0.195c-0.026 0.0586-0.0618 0.111-0.107 0.156-0.0456 0.0456-0.0993 0.0814-0.161 0.107-0.0586 0.026-0.122 0.0391-0.19 0.0391h-9z" fill="#000"/></svg>
