<svg viewBox="0 0 16 16" xmlns="http://www.w3.org/2000/svg"><path d="m9 0.5c0-0.276 0.224-0.5 0.5-0.5h3c0.276 0 0.5 0.224 0.5 0.5v3c0 0.276-0.224 0.5-0.5 0.5s-0.5-0.224-0.5-0.5v-2.5h-2.5c-0.276 0-0.5-0.224-0.5-0.5z" fill="#000"/><path d="m6.5 12c1.34 0 2.57-0.478 3.52-1.27l3.92 3.92c0.195 0.195 0.512 0.195 0.707 0 0.195-0.195 0.195-0.512 0-0.707l-3.92-3.92c0.795-0.954 1.27-2.18 1.27-3.52 0-3.04-2.46-5.5-5.5-5.5s-5.5 2.46-5.5 5.5 2.46 5.5 5.5 5.5zm0-1c2.49 0 4.5-2.01 4.5-4.5s-2.01-4.5-4.5-4.5-4.5 2.01-4.5 4.5 2.01 4.5 4.5 4.5z" clip-rule="evenodd" fill="#000" fill-rule="evenodd"/><path d="m1 9.5c0-0.276-0.224-0.5-0.5-0.5s-0.5 0.224-0.5 0.5v3c0 0.276 0.224 0.5 0.5 0.5h3c0.276 0 0.5-0.224 0.5-0.5s-0.224-0.5-0.5-0.5h-2.5v-2.5z" fill="#000"/><path d="m0.5 0c-0.276 0-0.5 0.224-0.5 0.5v3c0 0.276 0.224 0.5 0.5 0.5s0.5-0.224 0.5-0.5v-2.5h2.5c0.276 0 0.5-0.224 0.5-0.5s-0.224-0.5-0.5-0.5h-3z" fill="#000"/></svg>
