<svg viewBox="0 0 16 16" xmlns="http://www.w3.org/2000/svg"><path d="m5.5 5c-0.276 0-0.5 0.224-0.5 0.5 0 0.276 0.224 0.5 0.5 0.5h2c0.276 0 0.5-0.224 0.5-0.5 0-0.276-0.224-0.5-0.5-0.5h-2z" fill="#000"/><path d="m5.5 7c-0.276 0-0.5 0.224-0.5 0.5 0 0.276 0.224 0.5 0.5 0.5h5c0.276 0 0.5-0.224 0.5-0.5 0-0.276-0.224-0.5-0.5-0.5h-5z" fill="#000"/><path d="m5.5 9c-0.276 0-0.5 0.224-0.5 0.5 0 0.276 0.224 0.5 0.5 0.5h5c0.276 0 0.5-0.224 0.5-0.5 0-0.276-0.224-0.5-0.5-0.5h-5z" fill="#000"/><path d="m5.5 11c-0.276 0-0.5 0.224-0.5 0.5s0.224 0.5 0.5 0.5h5c0.276 0 0.5-0.224 0.5-0.5s-0.224-0.5-0.5-0.5h-5z" fill="#000"/><path d="m2 3c0-1.1 0.895-2 2-2h5.5c0.133 0 0.26 0.0527 0.354 0.146l4 4c0.0937 0.0938 0.146 0.221 0.146 0.354v7.5c0 1.1-0.895 2-2 2h-8c-1.1 0-2-0.895-2-2v-10zm2-1c-0.552 0-1 0.448-1 1v10c0 0.552 0.448 1 1 1h8c0.552 0 1-0.448 1-1v-7h-3.5c-0.276 0-0.5-0.224-0.5-0.5v-3.5h-5zm6 0.707 2.29 2.29h-2.29v-2.29z" clip-rule="evenodd" fill="#000" fill-rule="evenodd"/></svg>
