<svg fill="none" viewBox="0 0 16 16" xmlns="http://www.w3.org/2000/svg"><path d="m14 3h-6.5l-1.2-1.6c-0.0932-0.124-0.214-0.225-0.353-0.294-0.139-0.0694-0.292-0.106-0.447-0.106h-3.5c-0.53 0-1.04 0.211-1.41 0.586-0.375 0.375-0.586 0.884-0.586 1.41v10c0 0.53 0.211 1.04 0.586 1.41 0.375 0.375 0.884 0.586 1.41 0.586h12c0.53 0 1.04-0.211 1.41-0.586s0.586-0.884 0.586-1.41v-8c0-0.53-0.211-1.04-0.586-1.41-0.375-0.375-0.884-0.586-1.41-0.586zm-7.3 0.6c0.0932 0.124 0.214 0.225 0.353 0.294 0.139 0.0694 0.292 0.106 0.447 0.106h6.5c0.265 0 0.52 0.105 0.707 0.293 0.188 0.188 0.293 0.442 0.293 0.707v8c0 0.265-0.105 0.52-0.293 0.707s-0.442 0.293-0.707 0.293h-12c-0.265 0-0.52-0.105-0.707-0.293-0.188-0.188-0.293-0.442-0.293-0.707v-10c0-0.265 0.105-0.52 0.293-0.707 0.188-0.188 0.442-0.293 0.707-0.293h3.5l1.2 1.6z" fill="#000"/></svg>
