<svg fill="none" viewBox="0 0 16 16" xmlns="http://www.w3.org/2000/svg"><path d="m6.55 16c-1.58-0.0672-3.02-0.584-4.15-1.53-1.38-1.15-2.18-2.77-2.36-4.37-0.24-2.14 0.419-4.41 1.81-6.21 1.62-2.1 4.31-3.55 7.08-3.84 2.46-0.254 4.72 0.737 5.91 2.59 0.319 0.497 0.687 1.33 0.646 1.46-0.041 0.134-0.142 0.0759-0.203-0.117-0.508-1.6-2.37-2.89-4.24-3.26-2.97-0.581-5.61 0.969-7.38 2.81-1.16 1.21-1.69 2.64-2 4.35-0.424 2.37 0.6 5.78 3.83 6.46 2.23 0.467 4.2-0.449 5.53-1.92 0.85-0.942 1.22-2.3 1.71-3.46l0.598-1.45c0.0691-0.199-0.0198-0.358-0.269-0.4-0.249-0.0423-0.511 0.138-0.638 0.4l-1.54 3.7h-2.52l1.49-3.81s0.0826-0.285-0.15-0.33c-0.233-0.0452-0.486 0.0568-0.638 0.408l-1.64 3.73h-2.51l2.17-5.23 2.44-0.00186-0.161 0.432s0.669-0.551 1.72-0.551c1.05 0 1.32 0.551 1.32 0.551s0.312-0.163 0.527-0.244c0.851-0.32 1.71-0.441 2.38-0.181 0.242 0.0939 0.528 0.367 0.608 0.581 0.0893 0.24 0.0765 0.619-0.032 0.95-0.208 0.633-1.59 3.66-1.97 4.44-1.33 2.74-3.84 4.19-7.38 4.04z" fill="#000"/></svg>
