<svg viewBox="0 0 16 16" xmlns="http://www.w3.org/2000/svg"><path d="m4 0c0.343 2.59e-6 0.842 0.147 1.26 0.539 0.433 0.408 0.742 1.05 0.742 1.97 0 1.95-1.18 2.96-2.32 3.72 0.0861 0.284 0.178 0.576 0.272 0.874 0.256-0.0687 0.522-0.104 0.79-0.104 0.884 3e-5 1.71 0.235 2.31 0.778 0.615 0.551 0.943 1.36 0.943 2.38 0 0.903-0.465 1.64-1.2 2.12-0.301 0.2-0.648 0.359-1.03 0.476 0.0309 0.112 0.0588 0.218 0.084 0.317 0.0811 0.321 0.145 0.627 0.145 0.848 0 0.586-0.194 1.11-0.561 1.49-0.368 0.383-0.877 0.588-1.44 0.588-0.834 0-1.36-0.308-1.66-0.688-0.144-0.18-0.225-0.36-0.271-0.497-0.0231-0.0686-0.0377-0.128-0.0469-0.173-0.00456-0.0224-0.00845-0.0414-0.0107-0.0567l-0.00293-0.0205-9.8e-4 -0.0078v-0.0049c-0.00115-0.011-0.00251-0.0232-0.00293-0.0341-0.0172-0.074-0.0264-0.151-0.0264-0.23 1e-4 -0.559 0.454-1.01 1.01-1.01 0.559 2e-4 1.01 0.453 1.01 1.01 0 0.269-0.105 0.513-0.275 0.694 0.0814 0.0112 0.173 0.0176 0.275 0.0176 0.314 0 0.555-0.11 0.718-0.28 0.164-0.171 0.282-0.437 0.282-0.802 0-0.0813-0.0304-0.275-0.113-0.604-0.0278-0.11-0.0604-0.23-0.0967-0.359-0.255 0.0297-0.519 0.0449-0.79 0.0449-1.12 0-2.13-0.321-2.86-0.974-0.737-0.66-1.14-1.61-1.14-2.77 0-1.84 1.36-2.73 2.51-3.46l-0.0244-0.084c-0.278-0.983-0.487-1.88-0.487-2.44 7e-5 -2.4 1.17-3.27 2-3.27zm-1.19 6.8c-1.07 0.702-1.81 1.3-1.81 2.46 1e-5 0.911 0.312 1.58 0.81 2.02 0.504 0.452 1.25 0.719 2.19 0.719 0.172 0 0.337-0.0073 0.496-0.0205-0.204-0.649-0.452-1.39-0.711-2.17-0.0858-0.258-0.172-0.521-0.26-0.785-0.0508-0.154-0.102-0.308-0.152-0.463-0.235 0.256-0.373 0.582-0.373 0.942 0 0.276-0.224 0.5-0.5 0.5s-0.5-0.224-0.5-0.5c1e-5 -0.861 0.424-1.54 1.04-1.97-0.0787-0.247-0.156-0.491-0.229-0.73zm1.93 1.2c-0.169 0-0.331 0.0189-0.483 0.0547 0.0708 0.217 0.142 0.434 0.214 0.651 0.086 0.26 0.173 0.52 0.258 0.777 0.275 0.828 0.54 1.63 0.754 2.31 0.295-0.0917 0.55-0.21 0.762-0.35 0.5-0.331 0.752-0.772 0.752-1.29-1e-5 -0.791-0.249-1.31-0.611-1.63-0.371-0.332-0.927-0.522-1.64-0.522zm-0.744-7c-0.0859 0-1 0.173-1 2.27 0 0.37 0.142 1.05 0.388 1.95 0.935-0.666 1.61-1.4 1.61-2.71-5e-5 -0.684-0.221-1.05-0.428-1.24-0.224-0.211-0.486-0.267-0.572-0.267z" clip-rule="evenodd" fill="#000" fill-rule="evenodd"/><path d="m11.8 0.00684c0.151 0.00691 0.27 0.0212 0.385 0.0488 0.204 0.049 0.399 0.13 0.578 0.239 0.202 0.124 0.375 0.297 0.721 0.643l1.62 1.62c0.346 0.346 0.519 0.519 0.643 0.721 0.11 0.179 0.19 0.374 0.239 0.578 0.0553 0.23 0.0557 0.475 0.0557 0.964v6.38l-0.0049 1.11c-0.0153 0.975-0.077 1.57-0.322 2.05l-0.115 0.206c-0.288 0.47-0.701 0.853-1.2 1.1l-0.123 0.0576c-0.46 0.198-1.03 0.251-1.93 0.265l-1.11 0.0049h-4.32c0.21-0.31 0.364-0.648 0.465-1h3.85c0.856 0 1.44-3e-4 1.89-0.0371 0.438-0.0358 0.663-0.101 0.819-0.181 0.376-0.192 0.682-0.498 0.874-0.874 0.0797-0.156 0.145-0.381 0.181-0.819 0.0368-0.45 0.0371-1.03 0.0371-1.89v-6.2h-3c-0.552 0-1-0.448-1-1v-3h-3.73c-0.122-0.366-0.291-0.701-0.501-1h4.41l0.579 0.00684zm0.246 3.99h2.94c-0.0236-0.0674-0.0515-0.133-0.0889-0.194-0.0474-0.0774-0.118-0.157-0.497-0.536l-1.62-1.62c-0.379-0.379-0.459-0.45-0.536-0.497-0.0611-0.0374-0.127-0.0662-0.194-0.0898v2.94z" clip-rule="evenodd" fill="#000" fill-rule="evenodd"/><path d="m11.5 11c0.276 0 0.5 0.224 0.5 0.5s-0.224 0.5-0.5 0.5h-1.9c0.144-0.312 0.254-0.645 0.321-1h1.58z" fill="#000"/><path d="m12.5 8c0.276 0 0.5 0.224 0.5 0.5s-0.224 0.5-0.5 0.5h-2.61c-0.0666-0.344-0.165-0.679-0.297-1h2.91z" fill="#000"/></svg>
