<svg fill="none" viewBox="0 0 16 16" xmlns="http://www.w3.org/2000/svg"><path d="m0.448 15.3c-1.12-1.36 0.071-2.98 1.29-3.67 0.677-0.381 1.52-0.646 2.43-0.896-0.302 0.565-0.607 1.08-0.895 1.5-0.282 0.116-0.545 0.238-0.781 0.371-0.642 0.362-1.5 0.995-0.973 1.79 0.513 0.774 1.34-0.0768 1.73-0.526 0.498-0.508 1.06-1.31 1.56-2.19 0.529-0.93 1.01-1.98 1.47-3.09 0.415-1 0.784-2.03 1.06-2.99l6.4e-4 0.00128c0.279-0.96 0.468-1.85 0.538-2.6 0.0577-0.623 0.0302-1.54-0.789-1.42s-0.81 1.08-0.616 1.83c0.0578 0.223 0.13 0.455 0.216 0.695-0.0611 0.287-0.136 0.591-0.223 0.909-0.0723 0.264-0.153 0.536-0.24 0.812-0.374-0.749-0.649-1.45-0.833-2.16-0.35-1.35-0.365-3.23 1.45-3.62s2.27 1.67 2.15 2.99c-0.0991 1.07-0.397 2.38-0.847 3.73 0.288 0.477 0.602 0.955 0.935 1.42 0.351 0.491 0.811 0.993 1.19 1.43 1.34-0.101 2.66-0.0347 3.65 0.153 1.36 0.257 2.59 1.11 1.87 2.74-0.721 1.63-2.5 1.39-3.68 0.631-0.81-0.521-1.72-1.28-2.55-2.38l-0.00225 3e-4c-0.738-1.12-1.44-2.28-2.05-3.47-0.296 0.892-0.73 2.09-1.1 2.89 0.473-0.11 0.97-0.201 1.46-0.276 0.201 0.338 0.393 0.668 0.589 0.988-0.157 0.0237-0.318 0.0497-0.489 0.0787-0.614 0.104-1.22 0.231-1.81 0.376-0.15 0.286-0.293 0.57-0.434 0.848-0.499 0.988-0.959 1.9-1.53 2.55-0.913 1.04-2.62 1.89-3.74 0.529zm10.5-4.68c0.599 0.612 1.16 1.08 1.71 1.44 0.668 0.43 1.44 0.681 1.8-0.0707 0.367-0.752-0.311-1.13-1.02-1.27-0.699-0.132-1.53-0.138-2.5-0.103z" clip-rule="evenodd" fill="#000" fill-rule="evenodd"/></svg>
