<svg fill="none" viewBox="0 0 16 16" xmlns="http://www.w3.org/2000/svg"><path d="m0 2c0-0.7 0-1.05 0.136-1.32 0.12-0.235 0.311-0.426 0.546-0.546 0.267-0.136 0.617-0.136 1.32-0.136h1c0.7 0 1.05 0 1.32 0.136 0.235 0.12 0.426 0.311 0.546 0.546 0.136 0.267 0.136 0.617 0.136 1.32v1c0 0.7 0 1.05-0.136 1.32-0.12 0.235-0.311 0.426-0.546 0.546-0.145 0.0738-0.314 0.108-0.549 0.123l1.5 5.01h0.728c0.7 0 1.05 0 1.32 0.136 0.235 0.12 0.426 0.311 0.546 0.546 0.136 0.267 0.136 0.617 0.136 1.32v0.858c0.45 0.0774 0.87 0.123 1.26 0.137 1.04 0.0367 1.83-0.157 2.4-0.546 0.82-0.559 1.33-1.63 1.35-3.45h-0.01c-0.7 0-1.05 0-1.32-0.136-0.235-0.12-0.426-0.311-0.546-0.546-0.136-0.267-0.136-0.617-0.136-1.32v-1c0-0.7 0-1.05 0.136-1.32 0.12-0.235 0.311-0.426 0.546-0.546 0.267-0.136 0.617-0.136 1.32-0.136h1c0.7 0 1.05 0 1.32 0.136 0.235 0.12 0.426 0.311 0.546 0.546 0.136 0.267 0.136 0.617 0.136 1.32v1c0 0.7 0 1.05-0.136 1.32-0.12 0.235-0.311 0.426-0.546 0.546-0.267 0.136-0.617 0.136-1.32 0.136h0.0089c-0.0164 2.01-0.581 3.46-1.78 4.27-0.804 0.548-1.83 0.761-3 0.719-0.394-0.0139-0.81-0.0565-1.25-0.126-0.0182 0.185-0.0521 0.326-0.115 0.45-0.12 0.235-0.311 0.426-0.546 0.546-0.267 0.136-0.617 0.136-1.32 0.136h-1c-0.7 0-1.05 0-1.32-0.136-0.235-0.12-0.426-0.311-0.546-0.546-0.136-0.267-0.136-0.617-0.136-1.32v-1c0-0.7 0-1.05 0.136-1.32 0.12-0.235 0.311-0.426 0.546-0.546 0.145-0.0737 0.314-0.108 0.549-0.123l-1.5-5.01h-0.728c-0.7 0-1.05 0-1.32-0.136-0.235-0.12-0.426-0.311-0.546-0.546-0.136-0.267-0.136-0.617-0.136-1.32v-1zm2-1h1c0.367 0 0.581 7.8e-4 0.74 0.0137 0.0801 0.00654 0.119 0.0146 0.132 0.0181 0.0403 0.0226 0.0736 0.0558 0.0961 0.0961 0.00346 0.0137 0.0116 0.0524 0.0181 0.132 0.0129 0.158 0.0137 0.373 0.0137 0.74v1c0 0.367-7.8e-4 0.581-0.0137 0.74-0.00654 0.0801-0.0146 0.119-0.0181 0.132-0.0226 0.0403-0.0558 0.0736-0.0961 0.0961-0.0137 0.00346-0.0524 0.0116-0.132 0.0181-0.158 0.0129-0.373 0.0137-0.74 0.0137h-1c-0.367 0-0.581-7.8e-4 -0.74-0.0137-0.0801-0.00654-0.119-0.0146-0.132-0.0181-0.0403-0.0226-0.0736-0.0558-0.0961-0.0961-0.00346-0.0137-0.0116-0.0524-0.0181-0.132-0.0129-0.158-0.0137-0.373-0.0137-0.74v-1c0-0.367 7.8e-4 -0.581 0.0137-0.74 0.00654-0.0801 0.0146-0.119 0.0181-0.132 0.0226-0.0403 0.0558-0.0736 0.0961-0.0961 0.0137-0.00346 0.0524-0.0116 0.132-0.0181 0.158-0.0129 0.373-0.0137 0.74-0.0137zm4 10h-1c-0.367 0-0.581 8e-4 -0.74 0.0137-0.0801 0.0066-0.119 0.0147-0.132 0.0181-0.0403 0.0226-0.0736 0.0558-0.0961 0.0961-0.00346 0.0137-0.0116 0.0525-0.0181 0.132-0.0129 0.158-0.0137 0.373-0.0137 0.74v1c0 0.366 7.8e-4 0.581 0.0137 0.74 0.00654 0.08 0.0146 0.119 0.0181 0.132 0.0226 0.0403 0.0558 0.0735 0.0961 0.0961 0.0137 0.0034 0.0524 0.0115 0.132 0.0181 0.158 0.0129 0.373 0.0137 0.74 0.0137h1c0.367 0 0.581-8e-4 0.74-0.0137 0.0801-0.0066 0.119-0.0147 0.132-0.0181 0.0403-0.0226 0.0736-0.0558 0.0961-0.0961 0.00346-0.0137 0.0116-0.0525 0.0181-0.132 0.0129-0.158 0.0137-0.373 0.0137-0.74v-1c0-0.366-7.8e-4 -0.581-0.0137-0.74-0.00654-0.08-0.0146-0.119-0.0181-0.132-0.0226-0.0403-0.0558-0.0735-0.0961-0.0961-0.0137-0.0034-0.0524-0.0115-0.132-0.0181-0.158-0.0129-0.373-0.0137-0.74-0.0137zm7-6h1c0.366 0 0.581 7.8e-4 0.74 0.0137 0.08 0.00654 0.119 0.0146 0.132 0.0181 0.0403 0.0226 0.0735 0.0558 0.0961 0.0961 0.0034 0.0137 0.0115 0.0524 0.0181 0.132 0.0129 0.158 0.0137 0.373 0.0137 0.74v1c0 0.367-8e-4 0.581-0.0137 0.74-0.0066 0.0801-0.0147 0.119-0.0181 0.132-0.0226 0.0403-0.0558 0.0736-0.0961 0.0961-0.0137 0.00346-0.0525 0.0116-0.132 0.0181-0.158 0.0129-0.373 0.0137-0.74 0.0137h-1c-0.366 0-0.581-7.8e-4 -0.74-0.0137-0.08-0.00654-0.119-0.0146-0.132-0.0181-0.0403-0.0226-0.0735-0.0558-0.0961-0.0961-0.0034-0.0137-0.0115-0.0524-0.0181-0.132-0.0129-0.158-0.0137-0.373-0.0137-0.74v-1c0-0.367 8e-4 -0.581 0.0137-0.74 0.0066-0.0801 0.0147-0.119 0.0181-0.132 0.0226-0.0403 0.0558-0.0736 0.0961-0.0961 0.0137-0.00346 0.0525-0.0116 0.132-0.0181 0.158-0.0129 0.373-0.0137 0.74-0.0137z" clip-rule="evenodd" fill="#000" fill-rule="evenodd"/></svg>
