<svg viewBox="0 0 24 24" xmlns="http://www.w3.org/2000/svg"><path d="m5 20c0.552 0 1-0.448 1-1s-0.448-1-1-1-1 0.448-1 1 0.448 1 1 1z" fill="#000"/><path d="m0 3.2c0-1.12 0-1.68 0.218-2.11 0.192-0.376 0.498-0.682 0.874-0.874 0.428-0.218 0.988-0.218 2.11-0.218h3.6c1.12 0 1.68 0 2.11 0.218 0.376 0.192 0.682 0.498 0.874 0.874 0.218 0.428 0.218 0.988 0.218 2.11v3.73l2.64-2.64c0.792-0.792 1.19-1.19 1.64-1.34 0.402-0.131 0.834-0.131 1.24 0 0.457 0.148 0.853 0.544 1.64 1.34l2.55 2.55c0.792 0.792 1.19 1.19 1.34 1.64 0.13 0.402 0.13 0.834 0 1.24-0.148 0.457-0.544 0.853-1.34 1.64l-2.64 2.64h3.73c1.12 0 1.68 0 2.11 0.218 0.376 0.192 0.682 0.498 0.874 0.874 0.218 0.428 0.218 0.988 0.218 2.11v3.6c0 1.12 0 1.68-0.218 2.11-0.192 0.376-0.498 0.682-0.874 0.874-0.428 0.218-0.988 0.218-2.11 0.218h-15.8c0.0366-1e-4 0.0733-6e-4 0.11-0.0015-0.0414 1e-3 -0.0829 0.0015-0.124 0.0015-2.76 0-5-2.24-5-5v-15.8zm3.2-2.2h3.6c0.577 0 0.949 7.8e-4 1.23 0.0239 0.272 0.0222 0.372 0.0599 0.422 0.0851 0.188 0.0959 0.341 0.249 0.437 0.437 0.0252 0.0494 0.0629 0.15 0.0851 0.422 0.0232 0.283 0.0239 0.656 0.0239 1.23v15.8c0 2.21-1.79 4-4 4s-4-1.79-4-4v-15.8c0-0.577 7.8e-4 -0.949 0.0239-1.23 0.0222-0.272 0.0599-0.372 0.0851-0.422 0.0959-0.188 0.249-0.341 0.437-0.437 0.0494-0.0252 0.15-0.0629 0.422-0.0851 0.283-0.0232 0.656-0.0239 1.23-0.0239zm12.9 14-7.54 7.54c-0.17 0.17-0.348 0.324-0.534 0.464h12.8c0.576 0 0.949-8e-4 1.23-0.0239 0.272-0.0222 0.372-0.0599 0.422-0.0851 0.188-0.0959 0.341-0.249 0.437-0.437 0.0252-0.0495 0.0629-0.15 0.085-0.422 0.0232-0.283 0.024-0.656 0.024-1.23v-3.6c0-0.577-8e-4 -0.949-0.024-1.23-0.0221-0.272-0.0598-0.372-0.085-0.422-0.0959-0.188-0.249-0.341-0.437-0.437-0.0495-0.0252-0.15-0.0629-0.422-0.0851-0.283-0.0231-0.656-0.0239-1.23-0.0239h-4.73zm-6.12 4.71 9.05-9.05c0.408-0.408 0.67-0.671 0.854-0.888 0.176-0.208 0.221-0.306 0.238-0.358 0.0653-0.201 0.0653-0.417 0-0.618-0.0171-0.0528-0.0617-0.151-0.238-0.358-0.184-0.217-0.447-0.481-0.854-0.888l-2.55-2.55c-0.408-0.408-0.671-0.67-0.888-0.854-0.208-0.176-0.306-0.221-0.358-0.238-0.201-0.0652-0.417-0.0652-0.618 0-0.0528 0.0172-0.151 0.0617-0.358 0.238-0.217 0.184-0.48 0.447-0.888 0.854l-3.34 3.34v10.7c0 0.24-0.0169 0.476-0.0495 0.706z" clip-rule="evenodd" fill="#000" fill-rule="evenodd"/></svg>
