<svg fill="none" viewBox="0 0 24 24" xmlns="http://www.w3.org/2000/svg"><path d="m11.3 2.05c0.456-0.0706 0.921-0.0707 1.38-1.9e-4 0.515 0.0796 1.01 0.279 1.84 0.612l7.19 2.9c0.554 0.224 1 0.404 1.33 0.571 0.317 0.161 0.634 0.362 0.797 0.679 0.111 0.215 0.166 0.45 0.166 0.685v8c0 0.276-0.224 0.5-0.5 0.5s-0.5-0.224-0.5-0.5v-6.62c-0.324 0.162-0.759 0.337-1.29 0.552l-0.708 0.285v5.78c0 1.92-1.24 3.3-2.92 4.18-1.68 0.879-3.9 1.32-6.08 1.32-2.18 0-4.39-0.437-6.07-1.32-1.69-0.88-2.93-2.27-2.93-4.18v-5.78l-0.709-0.286c-0.554-0.224-1-0.404-1.33-0.571-0.317-0.161-0.633-0.362-0.797-0.679-0.221-0.43-0.221-0.94 0-1.37 0.163-0.317 0.48-0.518 0.797-0.679 0.328-0.167 0.775-0.348 1.33-0.571l7.18-2.9c0.827-0.334 1.32-0.533 1.84-0.613zm1.22 0.987c-0.355-0.0548-0.716-0.0548-1.07 1.4e-4 -0.387 0.0599-0.768 0.21-1.68 0.577l-7.1 2.86c-0.583 0.235-0.988 0.4-1.27 0.544-0.3 0.153-0.355 0.233-0.362 0.246-0.0737 0.143-0.0737 0.313 0 0.457 0.00673 0.0131 0.062 0.0934 0.362 0.246 0.284 0.145 0.689 0.309 1.27 0.544l7.1 2.86c0.907 0.366 1.29 0.517 1.68 0.577 0.355 0.0549 0.716 0.055 1.07 1e-4 0.387-0.0598 0.768-0.21 1.68-0.576l7.1-2.86c0.583-0.235 0.989-0.4 1.27-0.544 0.3-0.153 0.355-0.233 0.362-0.246 0.0738-0.143 0.0738-0.313 0-0.457-0.0067-0.013-0.0619-0.0934-0.362-0.246-0.284-0.145-0.69-0.309-1.27-0.544l-7.1-2.86c-0.907-0.366-1.29-0.516-1.68-0.576zm1.99 9.29 5.48-2.21v5.38c0 1.41-0.888 2.52-2.39 3.3-1.5 0.784-3.54 1.2-5.61 1.2-2.07 0-4.11-0.419-5.61-1.2-1.5-0.782-2.39-1.89-2.39-3.3v-5.37l5.47 2.21c0.827 0.334 1.32 0.533 1.84 0.613 0.456 0.0706 0.921 0.0707 1.38 2e-4 0.515-0.0796 1.01-0.279 1.84-0.612z" clip-rule="evenodd" fill="#000" fill-rule="evenodd"/></svg>
