<svg viewBox="0 0 24 24" xmlns="http://www.w3.org/2000/svg"><path d="m10.5 3c-0.276 0-0.5 0.224-0.5 0.5s0.224 0.5 0.5 0.5h3c0.276 0 0.5-0.224 0.5-0.5s-0.224-0.5-0.5-0.5h-3z" fill="#000"/><path d="m7.25 3c-0.648-2.5e-4 -1.59-6.2e-4 -2.34 0.381-0.659 0.336-1.19 0.871-1.53 1.53-0.382 0.75-0.382 1.69-0.381 2.34l2e-5 0.249c0 0.276 0.224 0.5 0.5 0.5 0.276 0 0.5-0.224 0.5-0.5v-0.2c0-0.711 0.0103-1.42 0.272-1.93 0.24-0.47 0.622-0.853 1.09-1.09 0.515-0.262 1.22-0.272 1.93-0.272h0.2c0.276 0 0.5-0.224 0.5-0.5 0-0.276-0.224-0.5-0.5-0.5l-0.249-2e-5z" fill="#000"/><path d="m16.7 3-0.249 2e-5c-0.276 0-0.5 0.224-0.5 0.5 0 0.276 0.224 0.5 0.5 0.5h0.2c0.711 0 1.42 0.0103 1.94 0.272 0.47 0.24 0.853 0.622 1.09 1.09 0.262 0.515 0.272 1.22 0.272 1.93v0.2c0 0.276 0.224 0.5 0.5 0.5 0.276 0 0.5-0.224 0.5-0.5v-0.249c2e-4 -0.648 6e-4 -1.59-0.382-2.34-0.336-0.659-0.871-1.19-1.53-1.53-0.75-0.382-1.69-0.382-2.34-0.381z" fill="#000"/><path d="m7.25 21c-0.648 2e-4 -1.59 6e-4 -2.34-0.382-0.659-0.336-1.19-0.871-1.53-1.53-0.382-0.75-0.382-1.69-0.381-2.34l2e-5 -0.249c0-0.276 0.224-0.5 0.5-0.5 0.276 0 0.5 0.224 0.5 0.5v0.2c0 0.711 0.0103 1.42 0.272 1.94 0.24 0.47 0.622 0.853 1.09 1.09 0.515 0.262 1.22 0.272 1.93 0.272h0.2c0.276 0 0.5 0.224 0.5 0.5 0 0.276-0.224 0.5-0.5 0.5h-0.249z" fill="#000"/><path d="m10 20.5c0 0.276 0.224 0.5 0.5 0.5h3c0.276 0 0.5-0.224 0.5-0.5s-0.224-0.5-0.5-0.5h-3c-0.276 0-0.5 0.224-0.5 0.5z" fill="#000"/><path d="m16.7 21c0.648 2e-4 1.59 6e-4 2.34-0.382 0.659-0.336 1.19-0.871 1.53-1.53 0.382-0.75 0.382-1.69 0.382-2.34v-0.249c0-0.276-0.224-0.5-0.5-0.5-0.276 0-0.5 0.224-0.5 0.5v0.2c0 0.711-0.0104 1.42-0.272 1.94-0.24 0.47-0.622 0.853-1.09 1.09-0.515 0.262-1.22 0.272-1.94 0.272h-0.2c-0.276 0-0.5 0.224-0.5 0.5 0 0.276 0.224 0.5 0.5 0.5h0.249z" fill="#000"/><path d="m3.5 10c0.276 0 0.5 0.224 0.5 0.5v3c0 0.276-0.224 0.5-0.5 0.5s-0.5-0.224-0.5-0.5v-3c0-0.276 0.224-0.5 0.5-0.5z" fill="#000"/><path d="m21 10.5c0-0.276-0.224-0.5-0.5-0.5s-0.5 0.224-0.5 0.5v3c0 0.276 0.224 0.5 0.5 0.5s0.5-0.224 0.5-0.5v-3z" fill="#000"/></svg>
