<svg viewBox="0 0 24 24" xmlns="http://www.w3.org/2000/svg"><path d="m3.85 3.15c-0.195-0.195-0.512-0.195-0.707 0-0.195 0.195-0.195 0.512 0 0.707l17 17c0.195 0.195 0.512 0.195 0.707 0 0.195-0.195 0.195-0.512 0-0.707l-17-17z" fill="#000"/><path d="m21.9 12.2c-0.423 0.633-1.29 1.8-2.58 2.92l0.709 0.708c1.37-1.2 2.28-2.42 2.71-3.07 0.306-0.458 0.306-1.04 0-1.5-1.01-1.52-4.65-6.25-10.8-6.25-0.88 0-1.71 0.0981-2.49 0.271l0.856 0.856c0.521-0.0819 1.06-0.127 1.63-0.127 5.58 0 8.95 4.33 9.94 5.81 0.0814 0.122 0.0814 0.268 0 0.39z" fill="#000"/><path d="m12.3 8.01 3.74 3.74c-0.124-2.01-1.73-3.62-3.74-3.74z" fill="#000"/><path d="m1.23 11.2c0.432-0.646 1.34-1.87 2.71-3.07l0.709 0.709c-1.29 1.12-2.16 2.28-2.58 2.92-0.0814 0.122-0.0814 0.268 0 0.39 0.983 1.47 4.36 5.81 9.94 5.81 0.566 0 1.11-0.0447 1.63-0.127l0.856 0.856c-0.777 0.172-1.61 0.27-2.49 0.27-6.11 0-9.75-4.73-10.8-6.25-0.306-0.458-0.306-1.04 0-1.5z" fill="#000"/><path d="m8.01 12.3c0.124 2.01 1.73 3.62 3.74 3.74l-3.74-3.74z" fill="#000"/></svg>
