<svg viewBox="0 0 24 24" xmlns="http://www.w3.org/2000/svg"><path d="m9 12c0-1.66 1.34-3 3-3 0.378 0 0.74 0.0698 1.07 0.197 0.258 0.0987 0.547-0.0304 0.646-0.288 0.0987-0.258-0.0304-0.547-0.288-0.646-0.444-0.17-0.926-0.263-1.43-0.263-2.21 0-4 1.79-4 4 0 2.21 1.79 4 4 4 2.21 0 4-1.79 4-4 0-0.502-0.0928-0.984-0.263-1.43-0.0986-0.258-0.388-0.387-0.646-0.288-0.258 0.0986-0.387 0.388-0.288 0.646 0.127 0.332 0.197 0.693 0.197 1.07 0 1.66-1.34 3-3 3s-3-1.34-3-3z" fill="#000"/><path d="m12 5c-6.11 0-9.75 4.73-10.8 6.25-0.306 0.458-0.306 1.04 0 1.5 1.01 1.52 4.65 6.25 10.8 6.25 6.11 0 9.75-4.73 10.8-6.25 0.306-0.458 0.306-1.04 0-1.5-1.01-1.52-4.65-6.25-10.8-6.25zm-9.94 6.81c0.983-1.47 4.36-5.81 9.94-5.81s8.95 4.33 9.94 5.81c0.0814 0.122 0.0814 0.268 0 0.39-0.983 1.47-4.36 5.81-9.94 5.81s-8.95-4.33-9.94-5.81c-0.0814-0.122-0.0814-0.268 0-0.39z" clip-rule="evenodd" fill="#000" fill-rule="evenodd"/></svg>
