<svg viewBox="0 0 24 24" xmlns="http://www.w3.org/2000/svg"><path d="m12 11c-0.552 0-1 0.448-1 1v5c0 0.552 0.448 1 1 1s1-0.448 1-1v-5c0-0.552-0.448-1-1-1z" fill="#000"/><path d="m13.2 7c0 0.69-0.56 1.25-1.25 1.25s-1.25-0.56-1.25-1.25 0.56-1.25 1.25-1.25 1.25 0.56 1.25 1.25z" fill="#000"/><path d="m24 12c0 6.63-5.37 12-12 12-6.63 0-12-5.37-12-12 0-6.63 5.37-12 12-12 6.63 0 12 5.37 12 12zm-1 0c0 6.08-4.92 11-11 11-6.08 0-11-4.92-11-11 0-6.08 4.92-11 11-11 6.08 0 11 4.92 11 11z" clip-rule="evenodd" fill="#000" fill-rule="evenodd"/></svg>
