<svg viewBox="0 0 24 24" xmlns="http://www.w3.org/2000/svg"><path d="m0.152 1.23c-0.152 0.368-0.152 0.833-0.152 1.77s0 1.4 0.152 1.77c0.203 0.49 0.592 0.879 1.08 1.08 0.368 0.152 0.833 0.152 1.77 0.152s1.4 0 1.77-0.152c0.49-0.203 0.879-0.592 1.08-1.08 0.152-0.368 0.152-0.833 0.152-1.77s0-1.4-0.152-1.77c-0.203-0.49-0.592-0.879-1.08-1.08-0.368-0.152-0.833-0.152-1.77-0.152s-1.4 0-1.77 0.152c-0.49 0.203-0.879 0.592-1.08 1.08zm1.82 3.75c0.237 0.0162 0.547 0.0167 1.03 0.0167s0.789-5.4e-4 1.03-0.0167c0.228-0.0156 0.315-0.0422 0.356-0.0594 0.245-0.101 0.44-0.296 0.541-0.541 0.0172-0.0416 0.0438-0.128 0.0594-0.356 0.0162-0.237 0.0167-0.547 0.0167-1.03s-5.4e-4 -0.789-0.0167-1.03c-0.0156-0.228-0.0422-0.315-0.0594-0.356-0.101-0.245-0.296-0.44-0.541-0.541-0.0416-0.0172-0.128-0.0438-0.356-0.0594-0.237-0.0162-0.547-0.0167-1.03-0.0167s-0.789 5.4e-4 -1.03 0.0167c-0.228 0.0156-0.315 0.0422-0.356 0.0594-0.245 0.101-0.44 0.296-0.541 0.541-0.0172 0.0416-0.0438 0.128-0.0594 0.356-0.0162 0.237-0.0167 0.547-0.0167 1.03s5.4e-4 0.789 0.0167 1.03c0.0156 0.228 0.0422 0.315 0.0594 0.356 0.101 0.245 0.296 0.44 0.541 0.541 0.0416 0.0172 0.128 0.0438 0.356 0.0594z" clip-rule="evenodd" fill="#000" fill-rule="evenodd"/><path d="m0.152 10.2c-0.152 0.368-0.152 0.834-0.152 1.77s0 1.4 0.152 1.77c0.203 0.49 0.592 0.879 1.08 1.08 0.368 0.152 0.833 0.152 1.77 0.152s1.4 0 1.77-0.152c0.49-0.203 0.879-0.592 1.08-1.08 0.152-0.368 0.152-0.834 0.152-1.77s0-1.4-0.152-1.77c-0.203-0.49-0.592-0.879-1.08-1.08-0.368-0.152-0.833-0.152-1.77-0.152s-1.4 0-1.77 0.152c-0.49 0.203-0.879 0.592-1.08 1.08zm1.82 3.75c0.237 0.0162 0.547 0.0167 1.03 0.0167s0.789-5e-4 1.03-0.0167c0.228-0.0156 0.315-0.0422 0.356-0.0594 0.245-0.102 0.44-0.296 0.541-0.541 0.0172-0.0416 0.0438-0.128 0.0594-0.356 0.0162-0.237 0.0167-0.547 0.0167-1.03s-5.4e-4 -0.789-0.0167-1.03c-0.0156-0.228-0.0422-0.315-0.0594-0.356-0.101-0.245-0.296-0.44-0.541-0.541-0.0416-0.0172-0.128-0.0438-0.356-0.0594-0.237-0.0162-0.547-0.0167-1.03-0.0167s-0.789 5e-4 -1.03 0.0167c-0.228 0.0156-0.315 0.0422-0.356 0.0594-0.245 0.102-0.44 0.296-0.541 0.541-0.0172 0.0416-0.0438 0.128-0.0594 0.356-0.0162 0.237-0.0167 0.547-0.0167 1.03s5.4e-4 0.789 0.0167 1.03c0.0156 0.228 0.0422 0.315 0.0594 0.356 0.101 0.245 0.296 0.44 0.541 0.541 0.0416 0.0172 0.128 0.0438 0.356 0.0594z" clip-rule="evenodd" fill="#000" fill-rule="evenodd"/><path d="m0 21c0-0.932 0-1.4 0.152-1.77 0.203-0.49 0.592-0.879 1.08-1.08 0.368-0.152 0.833-0.152 1.77-0.152s1.4 0 1.77 0.152c0.49 0.203 0.879 0.592 1.08 1.08 0.152 0.368 0.152 0.834 0.152 1.77s0 1.4-0.152 1.77c-0.203 0.49-0.592 0.879-1.08 1.08-0.368 0.152-0.833 0.152-1.77 0.152s-1.4 0-1.77-0.152c-0.49-0.203-0.879-0.592-1.08-1.08-0.152-0.368-0.152-0.834-0.152-1.77zm3 2c-0.48 0-0.789-5e-4 -1.03-0.0167-0.228-0.0156-0.315-0.0422-0.356-0.0594-0.245-0.102-0.44-0.296-0.541-0.541-0.0172-0.0416-0.0438-0.128-0.0594-0.356-0.0162-0.237-0.0167-0.547-0.0167-1.03s5.4e-4 -0.789 0.0167-1.03c0.0156-0.228 0.0422-0.315 0.0594-0.356 0.101-0.245 0.296-0.44 0.541-0.541 0.0416-0.0172 0.128-0.0438 0.356-0.0594 0.237-0.0162 0.547-0.0167 1.03-0.0167s0.789 5e-4 1.03 0.0167c0.228 0.0156 0.315 0.0422 0.356 0.0594 0.245 0.102 0.44 0.296 0.541 0.541 0.0172 0.0416 0.0438 0.128 0.0594 0.356 0.0162 0.237 0.0167 0.547 0.0167 1.03s-5.4e-4 0.789-0.0167 1.03c-0.0156 0.228-0.0422 0.315-0.0594 0.356-0.101 0.245-0.296 0.44-0.541 0.541-0.0416 0.0172-0.128 0.0438-0.356 0.0594-0.237 0.0162-0.547 0.0167-1.03 0.0167z" clip-rule="evenodd" fill="#000" fill-rule="evenodd"/><path d="m9.15 1.23c-0.152 0.368-0.152 0.833-0.152 1.77s0 1.4 0.152 1.77c0.203 0.49 0.592 0.879 1.08 1.08 0.368 0.152 0.834 0.152 1.77 0.152s1.4 0 1.77-0.152c0.49-0.203 0.879-0.592 1.08-1.08 0.152-0.368 0.152-0.833 0.152-1.77s0-1.4-0.152-1.77c-0.203-0.49-0.592-0.879-1.08-1.08-0.368-0.152-0.834-0.152-1.77-0.152s-1.4 0-1.77 0.152c-0.49 0.203-0.879 0.592-1.08 1.08zm1.82 3.75c0.237 0.0162 0.547 0.0167 1.03 0.0167s0.789-5.4e-4 1.03-0.0167c0.228-0.0156 0.315-0.0422 0.356-0.0594 0.245-0.101 0.44-0.296 0.541-0.541 0.0172-0.0416 0.0438-0.128 0.0594-0.356 0.0162-0.237 0.0167-0.547 0.0167-1.03s-5e-4 -0.789-0.0167-1.03c-0.0156-0.228-0.0422-0.315-0.0594-0.356-0.102-0.245-0.296-0.44-0.541-0.541-0.0416-0.0172-0.128-0.0438-0.356-0.0594-0.237-0.0162-0.547-0.0167-1.03-0.0167s-0.789 5.4e-4 -1.03 0.0167c-0.228 0.0156-0.315 0.0422-0.356 0.0594-0.245 0.101-0.44 0.296-0.541 0.541-0.0172 0.0416-0.0438 0.128-0.0594 0.356-0.0162 0.237-0.0167 0.547-0.0167 1.03s5e-4 0.789 0.0167 1.03c0.0156 0.228 0.0422 0.315 0.0594 0.356 0.102 0.245 0.296 0.44 0.541 0.541 0.0416 0.0172 0.128 0.0438 0.356 0.0594z" clip-rule="evenodd" fill="#000" fill-rule="evenodd"/><path d="m9 12c0-0.932 0-1.4 0.152-1.77 0.203-0.49 0.592-0.879 1.08-1.08 0.368-0.152 0.834-0.152 1.77-0.152s1.4 0 1.77 0.152c0.49 0.203 0.879 0.592 1.08 1.08 0.152 0.368 0.152 0.834 0.152 1.77s0 1.4-0.152 1.77c-0.203 0.49-0.592 0.879-1.08 1.08-0.368 0.152-0.834 0.152-1.77 0.152s-1.4 0-1.77-0.152c-0.49-0.203-0.879-0.592-1.08-1.08-0.152-0.368-0.152-0.834-0.152-1.77zm3 2c-0.48 0-0.789-5e-4 -1.03-0.0167-0.228-0.0156-0.315-0.0422-0.356-0.0594-0.245-0.102-0.44-0.296-0.541-0.541-0.0172-0.0416-0.0438-0.128-0.0594-0.356-0.0162-0.237-0.0167-0.547-0.0167-1.03s5e-4 -0.789 0.0167-1.03c0.0156-0.228 0.0422-0.315 0.0594-0.356 0.102-0.245 0.296-0.44 0.541-0.541 0.0416-0.0172 0.128-0.0438 0.356-0.0594 0.237-0.0162 0.547-0.0167 1.03-0.0167s0.789 5e-4 1.03 0.0167c0.228 0.0156 0.315 0.0422 0.356 0.0594 0.245 0.102 0.44 0.296 0.541 0.541 0.0172 0.0416 0.0438 0.128 0.0594 0.356 0.0162 0.237 0.0167 0.547 0.0167 1.03s-5e-4 0.789-0.0167 1.03c-0.0156 0.228-0.0422 0.315-0.0594 0.356-0.102 0.245-0.296 0.44-0.541 0.541-0.0416 0.0172-0.128 0.0438-0.356 0.0594-0.237 0.0162-0.547 0.0167-1.03 0.0167z" clip-rule="evenodd" fill="#000" fill-rule="evenodd"/><path d="m9.15 19.2c-0.152 0.368-0.152 0.834-0.152 1.77s0 1.4 0.152 1.77c0.203 0.49 0.592 0.879 1.08 1.08 0.368 0.152 0.834 0.152 1.77 0.152s1.4 0 1.77-0.152c0.49-0.203 0.879-0.592 1.08-1.08 0.152-0.368 0.152-0.834 0.152-1.77s0-1.4-0.152-1.77c-0.203-0.49-0.592-0.879-1.08-1.08-0.368-0.152-0.834-0.152-1.77-0.152s-1.4 0-1.77 0.152c-0.49 0.203-0.879 0.592-1.08 1.08zm1.82 3.75c0.237 0.0162 0.547 0.0167 1.03 0.0167s0.789-5e-4 1.03-0.0167c0.228-0.0156 0.315-0.0422 0.356-0.0594 0.245-0.102 0.44-0.296 0.541-0.541 0.0172-0.0416 0.0438-0.128 0.0594-0.356 0.0162-0.237 0.0167-0.547 0.0167-1.03s-5e-4 -0.789-0.0167-1.03c-0.0156-0.228-0.0422-0.315-0.0594-0.356-0.102-0.245-0.296-0.44-0.541-0.541-0.0416-0.0172-0.128-0.0438-0.356-0.0594-0.237-0.0162-0.547-0.0167-1.03-0.0167s-0.789 5e-4 -1.03 0.0167c-0.228 0.0156-0.315 0.0422-0.356 0.0594-0.245 0.102-0.44 0.296-0.541 0.541-0.0172 0.0416-0.0438 0.128-0.0594 0.356-0.0162 0.237-0.0167 0.547-0.0167 1.03s5e-4 0.789 0.0167 1.03c0.0156 0.228 0.0422 0.315 0.0594 0.356 0.102 0.245 0.296 0.44 0.541 0.541 0.0416 0.0172 0.128 0.0438 0.356 0.0594z" clip-rule="evenodd" fill="#000" fill-rule="evenodd"/><path d="m18 3c0-0.932 0-1.4 0.152-1.77 0.203-0.49 0.592-0.879 1.08-1.08 0.368-0.152 0.834-0.152 1.77-0.152s1.4 0 1.77 0.152c0.49 0.203 0.879 0.592 1.08 1.08 0.152 0.368 0.152 0.833 0.152 1.77s0 1.4-0.152 1.77c-0.203 0.49-0.592 0.879-1.08 1.08-0.368 0.152-0.834 0.152-1.77 0.152s-1.4 0-1.77-0.152c-0.49-0.203-0.879-0.592-1.08-1.08-0.152-0.368-0.152-0.833-0.152-1.77zm3 2c-0.48 0-0.789-5.4e-4 -1.03-0.0167-0.228-0.0156-0.315-0.0422-0.356-0.0594-0.245-0.101-0.44-0.296-0.541-0.541-0.0172-0.0416-0.0438-0.128-0.0594-0.356-0.0162-0.237-0.0167-0.547-0.0167-1.03s5e-4 -0.789 0.0167-1.03c0.0156-0.228 0.0422-0.315 0.0594-0.356 0.102-0.245 0.296-0.44 0.541-0.541 0.0416-0.0172 0.128-0.0438 0.356-0.0594 0.237-0.0162 0.547-0.0167 1.03-0.0167s0.789 5.4e-4 1.03 0.0167c0.228 0.0156 0.315 0.0422 0.356 0.0594 0.245 0.101 0.44 0.296 0.541 0.541 0.0172 0.0416 0.0438 0.128 0.0594 0.356 0.0162 0.237 0.0167 0.547 0.0167 1.03s-5e-4 0.789-0.0167 1.03c-0.0156 0.228-0.0422 0.315-0.0594 0.356-0.102 0.245-0.296 0.44-0.541 0.541-0.0416 0.0172-0.128 0.0438-0.356 0.0594-0.237 0.0162-0.547 0.0167-1.03 0.0167z" clip-rule="evenodd" fill="#000" fill-rule="evenodd"/><path d="m18.2 10.2c-0.152 0.368-0.152 0.834-0.152 1.77s0 1.4 0.152 1.77c0.203 0.49 0.592 0.879 1.08 1.08 0.368 0.152 0.834 0.152 1.77 0.152s1.4 0 1.77-0.152c0.49-0.203 0.879-0.592 1.08-1.08 0.152-0.368 0.152-0.834 0.152-1.77s0-1.4-0.152-1.77c-0.203-0.49-0.592-0.879-1.08-1.08-0.368-0.152-0.834-0.152-1.77-0.152s-1.4 0-1.77 0.152c-0.49 0.203-0.879 0.592-1.08 1.08zm1.82 3.75c0.237 0.0162 0.547 0.0167 1.03 0.0167s0.789-5e-4 1.03-0.0167c0.228-0.0156 0.315-0.0422 0.356-0.0594 0.245-0.102 0.44-0.296 0.541-0.541 0.0172-0.0416 0.0438-0.128 0.0594-0.356 0.0162-0.237 0.0167-0.547 0.0167-1.03s-5e-4 -0.789-0.0167-1.03c-0.0156-0.228-0.0422-0.315-0.0594-0.356-0.102-0.245-0.296-0.44-0.541-0.541-0.0416-0.0172-0.128-0.0438-0.356-0.0594-0.237-0.0162-0.547-0.0167-1.03-0.0167s-0.789 5e-4 -1.03 0.0167c-0.228 0.0156-0.315 0.0422-0.356 0.0594-0.245 0.102-0.44 0.296-0.541 0.541-0.0172 0.0416-0.0438 0.128-0.0594 0.356-0.0162 0.237-0.0167 0.547-0.0167 1.03s5e-4 0.789 0.0167 1.03c0.0156 0.228 0.0422 0.315 0.0594 0.356 0.102 0.245 0.296 0.44 0.541 0.541 0.0416 0.0172 0.128 0.0438 0.356 0.0594z" clip-rule="evenodd" fill="#000" fill-rule="evenodd"/><path d="m18 21c0-0.932 0-1.4 0.152-1.77 0.203-0.49 0.592-0.879 1.08-1.08 0.368-0.152 0.834-0.152 1.77-0.152s1.4 0 1.77 0.152c0.49 0.203 0.879 0.592 1.08 1.08 0.152 0.368 0.152 0.834 0.152 1.77s0 1.4-0.152 1.77c-0.203 0.49-0.592 0.879-1.08 1.08-0.368 0.152-0.834 0.152-1.77 0.152s-1.4 0-1.77-0.152c-0.49-0.203-0.879-0.592-1.08-1.08-0.152-0.368-0.152-0.834-0.152-1.77zm3 2c-0.48 0-0.789-5e-4 -1.03-0.0167-0.228-0.0156-0.315-0.0422-0.356-0.0594-0.245-0.102-0.44-0.296-0.541-0.541-0.0172-0.0416-0.0438-0.128-0.0594-0.356-0.0162-0.237-0.0167-0.547-0.0167-1.03s5e-4 -0.789 0.0167-1.03c0.0156-0.228 0.0422-0.315 0.0594-0.356 0.102-0.245 0.296-0.44 0.541-0.541 0.0416-0.0172 0.128-0.0438 0.356-0.0594 0.237-0.0162 0.547-0.0167 1.03-0.0167s0.789 5e-4 1.03 0.0167c0.228 0.0156 0.315 0.0422 0.356 0.0594 0.245 0.102 0.44 0.296 0.541 0.541 0.0172 0.0416 0.0438 0.128 0.0594 0.356 0.0162 0.237 0.0167 0.547 0.0167 1.03s-5e-4 0.789-0.0167 1.03c-0.0156 0.228-0.0422 0.315-0.0594 0.356-0.102 0.245-0.296 0.44-0.541 0.541-0.0416 0.0172-0.128 0.0438-0.356 0.0594-0.237 0.0162-0.547 0.0167-1.03 0.0167z" clip-rule="evenodd" fill="#000" fill-rule="evenodd"/></svg>
