<svg fill="none" viewBox="0 0 25 24" xmlns="http://www.w3.org/2000/svg"><path d="m1.62 24h4.11l0.01 0.01c0.55 0 0.75-0.01 0.97-0.06 0.21-0.05 0.41-0.13 0.59-0.24 0.2-0.12 0.34-0.26 0.73-0.65l13.8-13.8c0.61-0.61 1.05-1.05 1.38-1.44 0.35-0.41 0.54-0.73 0.65-1.06 0.2-0.61 0.2-1.26 0-1.87-0.11-0.34-0.3-0.65-0.65-1.06-0.33-0.39-0.79-0.86-1.38-1.44l-0.21-0.21c-0.59-0.59-1.05-1.05-1.44-1.38-0.41-0.35-0.73-0.54-1.06-0.65-0.61-0.2-1.26-0.2-1.87 0-0.34 0.11-0.65 0.3-1.06 0.65-0.354 0.292-0.756 0.695-1.25 1.19-0.0628 0.063-0.127 0.128-0.193 0.193l-13.8 13.8c-0.37 0.37-0.53 0.53-0.65 0.73-0.11 0.18-0.19 0.37-0.24 0.58-0.06 0.22-0.06 0.44-0.06 0.97v4.12c0 0.31 0 0.51 0.01 0.66 0.02 0.18 0.05 0.3 0.1 0.4 0.1 0.19 0.26 0.35 0.44 0.44 0.11 0.06 0.23 0.09 0.41 0.1 0.15 0.01 0.35 0.01 0.66 0.01zm15.9-22.9c0.21-0.07 0.42-0.1 0.63-0.1l0.01-0.02c0.21 0 0.42 0.03 0.63 0.1 0.2 0.07 0.42 0.21 0.72 0.46 0.36 0.3 0.81 0.75 1.38 1.32l0.21 0.21c0.57 0.57 1.02 1.02 1.32 1.38 0.25 0.3 0.4 0.52 0.46 0.72 0.13 0.41 0.13 0.85 0 1.26-0.07 0.2-0.21 0.42-0.46 0.72-0.3 0.36-0.73 0.79-1.32 1.38l-0.447 0.447-5.66-5.66 0.431-0.432c0.57-0.57 1.02-1.01 1.38-1.32 0.3-0.25 0.52-0.4 0.72-0.46zm-3.24 2.92-12.7 12.7c-0.34 0.34-0.45 0.45-0.5 0.54-0.06 0.09-0.1 0.19-0.12 0.29s-0.03 0.26-0.03 0.74v4.12c0 0.27 0 0.45 0.01 0.58 0.16 0.04 0.34 0.04 0.61 0.03h4.12c0.45 0 0.63 0 0.74-0.03 0.11-0.02 0.21-0.07 0.3-0.12 0.09-0.06 0.22-0.18 0.54-0.5l12.7-12.7-5.66-5.66z" clip-rule="evenodd" fill="#000" fill-rule="evenodd"/></svg>
