<svg viewBox="0 0 24 24" xmlns="http://www.w3.org/2000/svg"><path d="m11 6c0-0.552 0.448-1 1-1s1 0.448 1 1v6c0 0.552-0.448 1-1 1s-1-0.448-1-1v-6z" fill="#000"/><path d="m12 18.2c0.69 0 1.25-0.56 1.25-1.25s-0.56-1.25-1.25-1.25-1.25 0.56-1.25 1.25 0.56 1.25 1.25 1.25z" fill="#000"/><path d="m5.13 1.87c0.692-0.692 1.04-1.04 1.44-1.29 0.358-0.219 0.748-0.381 1.16-0.479 0.46-0.111 0.95-0.111 1.93-0.111h4.7c0.978 0 1.47 0 1.93 0.111 0.408 0.098 0.798 0.26 1.16 0.479 0.404 0.247 0.75 0.593 1.44 1.29l3.25 3.25c0.692 0.692 1.04 1.04 1.29 1.44 0.219 0.358 0.381 0.748 0.479 1.16 0.11 0.46 0.11 0.95 0.11 1.93v4.7c0 0.978 0 1.47-0.11 1.93-0.098 0.408-0.26 0.798-0.479 1.16-0.247 0.404-0.593 0.75-1.29 1.44l-3.25 3.25c-0.692 0.692-1.04 1.04-1.44 1.29-0.358 0.219-0.748 0.381-1.16 0.479-0.46 0.11-0.95 0.11-1.93 0.11h-4.7c-0.978 0-1.47 0-1.93-0.11-0.408-0.098-0.798-0.26-1.16-0.479-0.404-0.247-0.75-0.593-1.44-1.29l-3.25-3.25c-0.692-0.692-1.04-1.04-1.29-1.44-0.219-0.358-0.381-0.748-0.479-1.16-0.111-0.46-0.111-0.95-0.111-1.93v-4.7c0-0.978 0-1.47 0.111-1.93 0.098-0.408 0.26-0.798 0.479-1.16 0.247-0.404 0.593-0.75 1.29-1.44l3.25-3.25zm-4.13 12.5v-4.7c0-1.03 0.00643-1.38 0.0829-1.69 0.0735-0.306 0.195-0.599 0.359-0.867 0.171-0.279 0.414-0.531 1.14-1.26l3.25-3.25c0.725-0.725 0.977-0.968 1.26-1.14 0.268-0.164 0.561-0.286 0.867-0.359 0.318-0.0765 0.668-0.0829 1.69-0.0829h4.7c1.03 0 1.38 0.00643 1.69 0.0829 0.306 0.0735 0.599 0.195 0.867 0.359 0.279 0.171 0.531 0.414 1.26 1.14l3.25 3.25c0.725 0.725 0.968 0.977 1.14 1.26 0.164 0.268 0.286 0.561 0.359 0.867 0.0765 0.318 0.0829 0.668 0.0829 1.69v4.7c0 1.03-0.0064 1.38-0.0829 1.69-0.0735 0.306-0.195 0.599-0.359 0.867-0.171 0.279-0.414 0.531-1.14 1.26l-3.25 3.25c-0.726 0.725-0.978 0.968-1.26 1.14-0.268 0.164-0.561 0.286-0.867 0.359-0.318 0.0765-0.668 0.0829-1.69 0.0829h-4.7c-1.03 0-1.38-0.0064-1.69-0.0829-0.306-0.0735-0.599-0.195-0.867-0.359-0.279-0.171-0.531-0.414-1.26-1.14l-3.25-3.25c-0.725-0.726-0.968-0.978-1.14-1.26-0.164-0.268-0.286-0.561-0.359-0.867-0.0765-0.318-0.0829-0.668-0.0829-1.69z" clip-rule="evenodd" fill="#000" fill-rule="evenodd"/></svg>
