<svg fill="none" viewBox="0 0 24 24" xmlns="http://www.w3.org/2000/svg"><path d="m16.2 1c0.59 0 1.18 0.08 1.76 0.23 0.17 0.05 0.31 0.18 0.36 0.35s0 0.36-0.13 0.48l-3.15 3.15c-0.27 0.27-0.36 0.66-0.24 1.02l0.57 1.72c0.1 0.3 0.33 0.53 0.63 0.63l1.72 0.57c0.1 0.03 0.21 0.05 0.32 0.05 0.26 0 0.52-0.1 0.71-0.29l3.15-3.15c0.09-0.09 0.22-0.15 0.35-0.15 0.04 0 0.09 0 0.13 0.02 0.17 0.05 0.31 0.18 0.35 0.35 0.62 2.36-0.02 4.79-1.73 6.5-1.27 1.27-2.96 1.97-4.76 1.97-0.54 0-1.08-0.06-1.61-0.19-0.13-0.03-0.25-0.05-0.38-0.05-0.1 0-0.2 0.01-0.29 0.03-0.1 0.02-0.23 0.07-0.31 0.12s-0.16 0.1-0.22 0.17l-7.62 7.62c-0.54 0.54-1.25 0.83-2.01 0.83s-1.48-0.29-2.01-0.83c-1.11-1.11-1.11-2.91 0-4.02l7.62-7.62c0.07-0.07 0.12-0.14 0.17-0.22 0.05-0.09 0.1-0.22 0.12-0.31 0.05-0.21 0.04-0.44-0.02-0.67-0.23-0.94-0.25-1.94-0.07-2.89 0.26-1.32 0.9-2.53 1.85-3.48 1.26-1.26 2.94-1.96 4.74-1.96m0-0.98c-1.97 0-3.94 0.74-5.45 2.25-1.09 1.09-1.83 2.48-2.12 4-0.21 1.1-0.18 2.23 0.08 3.31 0.02 0.1 0.02 0.17 0 0.22 0 0.02 0 0.03-0.01 0.04l-7.62 7.62c-1.5 1.5-1.5 3.94 0 5.44 0.75 0.75 1.73 1.12 2.72 1.12s1.97-0.37 2.72-1.12l7.62-7.62s0.02 0 0.04-0.01h0.08c0.04 0 0.09 0 0.14 0.02 0.6 0.15 1.22 0.22 1.84 0.22 1.98 0 3.96-0.75 5.47-2.27 2.03-2.03 2.66-4.9 1.99-7.46-0.14-0.52-0.54-0.93-1.06-1.06-0.13-0.03-0.26-0.05-0.39-0.05-0.39 0-0.78 0.15-1.06 0.44l-3.15 3.15-1.72-0.57-0.57-1.72 3.15-3.15c0.38-0.38 0.53-0.93 0.39-1.45s-0.55-0.92-1.07-1.06c-0.66-0.17-1.34-0.26-2.01-0.26l-0.01-0.03z" fill="#000"/></svg>
