<svg viewBox="0 0 24 24" xmlns="http://www.w3.org/2000/svg"><path d="m12 6c-0.552 0-1 0.448-1 1v6c0 0.552 0.448 1 1 1s1-0.448 1-1v-6c0-0.552-0.448-1-1-1z" fill="#000"/><path d="m13.2 18c0 0.69-0.56 1.25-1.25 1.25s-1.25-0.56-1.25-1.25 0.56-1.25 1.25-1.25 1.25 0.56 1.25 1.25z" fill="#000"/><path d="m0.488 17.5 7.53-15c1.65-3.29 6.31-3.29 7.97 0l7.53 15c1.5 3-0.654 6.54-3.98 6.54h-15.1c-3.33 0-5.49-3.54-3.98-6.54zm0.894 0.449 7.53-15c1.28-2.56 4.9-2.56 6.18 1e-5l7.53 15c1.18 2.34-0.518 5.09-3.09 5.09h-15.1c-2.57 0-4.27-2.75-3.09-5.09z" clip-rule="evenodd" fill="#000" fill-rule="evenodd"/></svg>
