<svg viewBox="0 0 16 16" xmlns="http://www.w3.org/2000/svg"><path d="m10 0.439c-0.0071-0.0583-0.0242-0.114-0.0496-0.164-0.0337-0.0672-0.0816-0.125-0.139-0.169-0.0572-0.0448-0.124-0.0773-0.198-0.0938-0.055-0.0124-0.113-0.0157-0.171-0.00842-0.0243 0.00296-0.048 0.00765-0.0711 0.014-0.823 0.206-2.24 0.561-3.23 0.811-0.667 0.167-1.13 0.766-1.13 1.45v6.19c-0.484-0.297-1.12-0.468-1.83-0.468-1.63 0-3.17 1.23-3.17 2.75 0 1.52 1.33 2.6 3.3 2.13s2.7-1.89 2.7-2.74v-5.48c0-0.459 0.312-0.858 0.757-0.969l2.85-0.713c0.04-0.00907 0.0781-0.0229 0.114-0.0409 0.0672-0.0337 0.125-0.0816 0.169-0.139 0.0448-0.0572 0.0773-0.124 0.0938-0.198 0.00881-0.039 0.013-0.0794 0.0121-0.12v-1.98c5e-4 -0.0239-6.8e-4 -0.0481-0.0037-0.0723z" fill="#000"/><path d="m10.2 6.16c-0.488-0.378-1.21-0.0416-1.21 0.564v8.55c0 0.606 0.722 0.942 1.21 0.564l5.51-4.28c0.373-0.289 0.373-0.839 0-1.13l-5.51-4.28z" fill="#000"/></svg>
