<svg fill="none" viewBox="0 0 16 16" xmlns="http://www.w3.org/2000/svg"><path d="m11 4h-2.29l2.29-2.29c0.194-0.194 0.194-0.513 0-0.707-0.194-0.194-0.513-0.194-0.707 0l-3.15 3.15c-0.0466 0.0464-0.0835 0.102-0.109 0.162-0.0251 0.0608-0.0378 0.126-0.0375 0.192 0 0.128 0.048 0.257 0.146 0.354l4e-3 2e-3 3.14 3.14c0.194 0.194 0.513 0.194 0.707 0s0.194-0.513 0-0.707l-2.29-2.29h2.29c2.21 0 4 1.79 4 4 0 2.21-1.79 4-4 4h-6c-2.21 0-4-1.79-4-4 0-2.04 1.53-3.72 3.5-3.97 0.274-0.0342 0.499-0.255 0.499-0.531s-0.225-0.503-0.499-0.475c-2.52 0.253-4.5 2.39-4.5 4.98 0 2.75 2.25 5 5 5h6c2.75 0 5-2.25 5-5 0-2.75-2.25-5-5-5z" fill="#000"/></svg>
