<svg viewBox="0 0 16 16" xmlns="http://www.w3.org/2000/svg"><path d="m12 4c0 2.21-1.79 4-4 4-2.21 0-4-1.79-4-4s1.79-4 4-4c2.21 0 4 1.79 4 4zm-3.28-2.95c0.169 0.0847 0.276 0.258 0.276 0.447v5c0 0.276-0.224 0.5-0.5 0.5s-0.5-0.224-0.5-0.5v-4l-1.2 0.9c-0.221 0.166-0.534 0.121-0.7-0.1-0.166-0.221-0.121-0.534 0.1-0.7l2-1.5c0.152-0.114 0.354-0.132 0.524-0.0472z" clip-rule="evenodd" fill="#000" fill-rule="evenodd"/><path d="m1.17 5.01c0.17-0.487 0.461-0.915 0.836-1.25 0.0182-0.461 0.0883-0.908 0.205-1.34-0.924 0.462-1.64 1.27-1.98 2.26-0.225 0.642-0.225 1.42-0.224 2.7l1.14e-5 2.12c0 1.93 1.57 3.5 3.5 3.5 0.276 0 0.5-0.224 0.5-0.5s-0.224-0.5-0.5-0.5c-1.38 0-2.5-1.12-2.5-2.5v-2c0-1.44 0.00708-2.03 0.168-2.49z" fill="#000"/><path d="m14.8 5.01c-0.17-0.487-0.461-0.915-0.836-1.25-0.0182-0.461-0.0883-0.908-0.205-1.34 0.924 0.462 1.64 1.27 1.98 2.26 0.225 0.642 0.225 1.42 0.224 2.7v0.234c2e-4 1.28 3e-4 2.06-0.224 2.7-0.402 1.15-1.31 2.05-2.45 2.45-0.642 0.225-1.42 0.225-2.7 0.224h-2.91l2.15 2.15c0.195 0.195 0.195 0.512 0 0.707-0.195 0.195-0.512 0.195-0.707 0l-3-3c-0.195-0.195-0.195-0.512 0-0.707l3-3c0.195-0.195 0.512-0.195 0.707 0 0.195 0.195 0.195 0.512 0 0.707l-2.15 2.15h2.79c1.44 0 2.03-0.0071 2.49-0.168 0.862-0.302 1.54-0.979 1.84-1.84 0.161-0.461 0.168-1.05 0.168-2.49 0-1.44-0.0071-2.03-0.168-2.49z" fill="#000"/></svg>
