<svg fill="none" viewBox="0 0 16 16" xmlns="http://www.w3.org/2000/svg"><path d="m5.38 2c-1.28-2e-4 -2.06-3.2e-4 -2.7 0.224-1.15 0.402-2.05 1.31-2.45 2.45-0.225 0.642-0.225 1.42-0.224 2.7l1.19e-5 2.12c0 1.93 1.57 3.5 3.5 3.5 0.276 0 0.5-0.224 0.5-0.5 0-0.276-0.224-0.5-0.5-0.5-1.38 0-2.5-1.12-2.5-2.5v-2c0-1.44 0.00708-2.03 0.168-2.49 0.302-0.862 0.979-1.54 1.84-1.84 0.461-0.161 1.05-0.168 2.49-0.168h5c1.44 0 2.03 0.00708 2.49 0.168 0.862 0.302 1.54 0.979 1.84 1.84 0.161 0.461 0.168 1.05 0.168 2.49 0 1.44-0.0071 2.03-0.168 2.49-0.302 0.862-0.979 1.54-1.84 1.84-0.461 0.161-1.05 0.168-2.49 0.168h-2.79l2.15-2.15c0.195-0.195 0.195-0.512 0-0.707-0.195-0.195-0.512-0.195-0.707 0l-3 3c-0.195 0.195-0.195 0.512 0 0.707l3 3c0.195 0.195 0.512 0.195 0.707 0 0.195-0.195 0.195-0.512 0-0.707l-2.15-2.15h2.91c1.28 2e-4 2.06 4e-4 2.7-0.224 1.15-0.402 2.05-1.31 2.45-2.45 0.225-0.642 0.225-1.42 0.224-2.7v-0.234c2e-4 -1.28 3e-4 -2.06-0.224-2.7-0.402-1.15-1.31-2.05-2.45-2.45-0.642-0.225-1.42-0.225-2.7-0.224h-5.23z" fill="#000"/></svg>
