<svg viewBox="0 0 16 16" xmlns="http://www.w3.org/2000/svg"><path d="m12.1 0.146c0.195-0.195 0.512-0.195 0.707 0l3 3c0.0479 0.0479 0.0841 0.103 0.108 0.162 0.0244 0.059 0.0379 0.124 0.0379 0.191s-0.0135 0.132-0.0379 0.191c-0.0244 0.059-0.0606 0.114-0.108 0.162l-3 3c-0.195 0.195-0.512 0.195-0.707 0-0.195-0.195-0.195-0.512 0-0.707l2.15-2.15h-2.18c-2.46 0-4.59 1.71-5.12 4.11-0.635 2.86-3.17 4.89-6.1 4.89h-0.39c-0.276 0-0.5-0.224-0.5-0.5s0.224-0.5 0.5-0.5h0.39c2.46 0 4.59-1.71 5.12-4.11 0.635-2.86 3.17-4.89 6.1-4.89h2.18l-2.15-2.15c-0.195-0.195-0.195-0.512 0-0.707z" fill="#000"/><path d="m0.89 3c1.84 0 3.52 0.8 4.67 2.1-0.191 0.302-0.363 0.619-0.512 0.949-0.969-1.26-2.49-2.05-4.16-2.05h-0.39c-0.276 0-0.5-0.224-0.5-0.5s0.224-0.5 0.5-0.5h0.39z" fill="#000"/><path d="m12.1 13c-1.84 0-3.52-0.8-4.67-2.1 0.191-0.302 0.363-0.619 0.512-0.949 0.969 1.26 2.49 2.05 4.16 2.05h2.18l-2.15-2.15c-0.195-0.195-0.195-0.512 0-0.707 0.195-0.195 0.512-0.195 0.707 0l3 3c0.0479 0.048 0.0841 0.103 0.108 0.162s0.0379 0.124 0.0379 0.191-0.0135 0.132-0.0379 0.191-0.0606 0.114-0.108 0.162l-3 3c-0.195 0.195-0.512 0.195-0.707 0-0.195-0.195-0.195-0.512 0-0.707l2.15-2.15h-2.18z" fill="#000"/></svg>
