<svg xmlns="http://www.w3.org/2000/svg" viewBox="0 0 16 16" fill="none">
  <path fill="#000" fill-rule="evenodd"
    d="M4 11a2 2 0 1 0 0-4 2 2 0 0 0 0 4ZM3 8.5a.5.5 0 0 1 .5-.5h1a.5.5 0 1 1 0 1v.5a.5.5 0 0 1-1 0V9a.5.5 0 0 1-.5-.5Zm8 .5a2 2 0 1 1-4 0 2 2 0 0 1 4 0ZM8.5 8a.5.5 0 1 0 0 1v.5a.5.5 0 0 0 1 0V9a.5.5 0 0 0 0-1h-1Z"
    clip-rule="evenodd" />
  <path fill="#000" d="M13 10.5a.5.5 0 1 1 1 0 .5.5 0 0 1-1 0ZM13 9a1 1 0 1 0 0-2 1 1 0 0 0 0 2Z" />
  <path fill="#000" fill-rule="evenodd"
    d="M15.97 6.851c-.029-.315-.083-.552-.188-.759a1.99 1.99 0 0 0-.057-.104 2.999 2.999 0 0 0-.167-.313c-.186-.302-.445-.562-.964-1.08l-.188-.189c-.519-.519-.778-.778-1.081-.964a3.001 3.001 0 0 0-.867-.359C12.112 3 11.745 3 11.012 3H4.988c-.734 0-1.1 0-1.446.083a3 3 0 0 0-.867.36c-.303.185-.562.444-1.08.963l-.19.188c-.518.52-.777.779-.963 1.081a3 3 0 0 0-.167.313c-.02.034-.039.069-.057.104-.105.207-.16.444-.188.76C0 7.126 0 7.463 0 7.988V9.8c0 1.12 0 1.68.218 2.108a2 2 0 0 0 .874.874C1.52 13 2.08 13 3.2 13h9.6c1.12 0 1.68 0 2.108-.218a2 2 0 0 0 .874-.874c.204-.4.217-.918.218-1.904V7.989c0-.525 0-.862-.03-1.138ZM15 8.201c0-.577 0-.95-.024-1.233l-.003-.032a1.399 1.399 0 0 0-.028-.16 2.002 2.002 0 0 0-.107-.321 1 1 0 0 0-.384-.346c-.05-.025-.15-.063-.422-.085C13.75 6.001 13.377 6 12.8 6H3.2c-.577 0-.949.001-1.232.024-.272.022-.373.06-.422.085a1 1 0 0 0-.384.346 2 2 0 0 0-.107.321c-.012.05-.02.1-.028.16l-.003.032C1 7.251 1 7.624 1 8.2v1.6c0 .505 0 .853.016 1.122l.008.11c.022.272.06.373.085.422a1 1 0 0 0 .437.437c.05.025.15.063.422.085C2.25 12 2.623 12 3.2 12h9.6c.577 0 .949 0 1.232-.024.272-.022.373-.06.422-.085a1 1 0 0 0 .437-.437c.025-.05.063-.15.085-.421.022-.266.024-.61.024-1.127V8.2ZM2.41 5.004C2.64 5 2.9 5 3.2 5h9.6c.301 0 .561 0 .79.005-.467-.466-.622-.608-.788-.71a2.001 2.001 0 0 0-.578-.24c-.203-.048-.43-.055-1.212-.055H4.988c-.781 0-1.009.007-1.212.056a2 2 0 0 0-.578.239c-.166.102-.321.244-.788.71Z"
    clip-rule="evenodd" />
</svg>