<svg fill="none" viewBox="0 0 16 16" xmlns="http://www.w3.org/2000/svg"><path d="m11 10v1c0 1.1-0.895 2-2 2h-7c-1.1 0-2-0.895-2-2v-6c0-1.1 0.895-2 2-2h7c1.1 0 2 0.895 2 2v1l1.71-1.71c0.188-0.188 0.442-0.293 0.707-0.293h1.59c0.552 0 1 0.448 1 1v6c0 0.552-0.448 1-1 1h-1.59c-0.265 0-0.52-0.105-0.707-0.293l-1.71-1.71zm-9-6h7c0.552 0 1 0.448 1 1v6c0 0.552-0.448 1-1 1h-7c-0.552 0-1-0.448-1-1v-6c0-0.552 0.448-1 1-1zm9 4.59 2.41 2.41h1.59v-6h-1.59l-2.41 2.41v1.17z" clip-rule="evenodd" fill="#000" fill-rule="evenodd"/></svg>
