<svg xmlns="http://www.w3.org/2000/svg" viewBox="0 0 16 16" fill="none">
  <path fill="#000"
    d="M14 1H2a1 1 0 0 0-1 1v7a1 1 0 0 0 1 1h5v4H4.5a.5.5 0 0 1 0-1H6v-2H2a2 2 0 0 1-2-2V2a2 2 0 0 1 2-2h12a2 2 0 0 1 2 2h-1a1 1 0 0 0-1-1Z" />
  <path fill="#000"
    d="M11.5 6a.5.5 0 0 0 0 1h2a.5.5 0 0 0 0-1h-2Zm0 2a.5.5 0 0 0 0 1h2a.5.5 0 0 0 0-1h-2Zm2 6a.5.5 0 1 0 0-1 .5.5 0 0 0 0 1Z" />
  <path fill="#000" fill-rule="evenodd"
    d="M9 6.4c0-.84 0-1.26.163-1.58a1.5 1.5 0 0 1 .656-.656C10.139 4 10.559 4 11.4 4h2.2c.84 0 1.26 0 1.581.164a1.5 1.5 0 0 1 .655.655C16 5.14 16 5.56 16 6.4v7.2c0 .84 0 1.26-.164 1.581a1.5 1.5 0 0 1-.655.656c-.32.163-.74.163-1.581.163h-2.2c-.84 0-1.26 0-1.581-.163a1.5 1.5 0 0 1-.656-.656C9 14.861 9 14.441 9 13.601V6.4ZM11.4 5h2.2c.437 0 .704.001.904.017a1.281 1.281 0 0 1 .215.035.5.5 0 0 1 .226.222l.002.002.002.005a1.29 1.29 0 0 1 .034.215c.016.2.017.468.017.904v7.2c0 .437 0 .704-.017.904a1.29 1.29 0 0 1-.034.216l-.002.004-.002.003a.5.5 0 0 1-.218.219l-.003.001-.005.002a1.29 1.29 0 0 1-.215.034c-.2.016-.468.017-.904.017h-2.2c-.437 0-.704 0-.904-.017a1.29 1.29 0 0 1-.215-.034l-.005-.002-.003-.001a.5.5 0 0 1-.218-.219l-.004-.008a1.29 1.29 0 0 1-.034-.215c-.016-.2-.017-.467-.017-.904V6.4c0-.436 0-.704.017-.903a1.29 1.29 0 0 1 .034-.216l.002-.005.002-.003a.5.5 0 0 1 .218-.218l.008-.003a1.281 1.281 0 0 1 .215-.034C10.696 5 10.964 5 11.4 5Z"
    clip-rule="evenodd" />
</svg>