<svg xmlns="http://www.w3.org/2000/svg" viewBox="0 0 16 16" fill="none">
  <path fill="#000"
    d="M12.5 0a.5.5 0 0 1 .5.5v2.265c.084.074.162.152.236.235H15.5a.5.5 0 0 1 .492.41L16 3.5a.5.5 0 0 1-.5.5h-1.67c.11.313.17.65.17 1v1h1.5a.5.5 0 0 1 0 1H14v2h1.5a.5.5 0 0 1 0 1H14v1c0 .351-.06.688-.171 1H15.5a.5.5 0 0 1 0 1h-2.265a2.732 2.732 0 0 1-.234.235L13 15.5a.5.5 0 0 1-1 0v-1.67c-.312.11-.649.17-1 .17h-1v1.5a.5.5 0 0 1-1 0V14H7v1.5a.5.5 0 0 1-1 0V14H5c-.35 0-.687-.06-1-.17v1.67a.5.5 0 0 1-1 0v-2.264a3.024 3.024 0 0 1-.235-.235H.5a.5.5 0 0 1 0-1h1.671A2.995 2.995 0 0 1 2 11v-1H.5a.5.5 0 1 1 0-1H2V7H.5a.5.5 0 0 1 0-1H2V5c0-.35.06-.688.17-1H.5a.5.5 0 0 1 0-1h2.264c.074-.084.153-.163.236-.237V.5a.5.5 0 0 1 1 0v1.67c.313-.11.65-.17 1-.17h1V.5a.5.5 0 0 1 1 0V2h2V.5a.5.5 0 0 1 1 0V2h1c.351 0 .688.06 1 .171V.501a.5.5 0 0 1 .5-.5ZM11 3H5a2 2 0 0 0-2 2v6a2 2 0 0 0 2 2h6a2 2 0 0 0 2-2V5a2 2 0 0 0-2-2Zm0 1a1 1 0 0 1 1 1v6a1 1 0 0 1-1 1H5a1 1 0 0 1-1-1V5a1 1 0 0 1 1-1h6Zm0 1H5v6h6V5Z" />
</svg>