<svg xmlns="http://www.w3.org/2000/svg" viewBox="0 0 16 16" fill="none">
  <path fill="#000"
    d="M4.854 4.147a.5.5 0 0 0-.855.353V6H2.5a.5.5 0 1 0 0 1h1.499v1.5a.5.5 0 0 0 1 0V7H6.5a.5.5 0 1 0 0-1H4.999L5 4.5a.5.5 0 0 0-.146-.353ZM11 7a1 1 0 1 0 0-2 1 1 0 0 0 0 2Zm2 2a1 1 0 1 0 0-2 1 1 0 0 0 0 2Z" />
  <path fill="#000" fill-rule="evenodd"
    d="M11.544 2.03A3.208 3.208 0 0 0 9.5 3h-3l-.152-.148a3.18 3.18 0 0 0-1.891-.822A4 4 0 0 0 0 6.004v5.823l.007.193a2.15 2.15 0 0 0 2.184 1.976 2.096 2.096 0 0 0 1.856-1.1L5 11l.208-.006C6.082 10.945 6.61 10.578 7 10h2l.091.131c.407.55.98.87 1.909.87l.954 1.9.084.141A2.1 2.1 0 0 0 13.81 14 2.149 2.149 0 0 0 16 11.827V6.004l-.004-.199a4 4 0 0 0-4.452-3.775Zm.112.994A3.004 3.004 0 0 1 15 6.004v5.823l-.006.134a1.156 1.156 0 0 1-1.184 1.035 1.105 1.105 0 0 1-.988-.592l-1.168-2.053a.697.697 0 0 0-.654-.35l-.148-.004c-.435-.019-.801-.13-1.061-.51A1 1 0 0 0 8.934 9H6.933c-.337 0-.65.17-.835.45l-.088.12c-.269.336-.56.43-1.01.43a.695.695 0 0 0-.652.35l-1.17 2.056-.071.117a1.104 1.104 0 0 1-.917.475A1.157 1.157 0 0 1 1 11.828V6.003l.005-.176a3 3 0 0 1 3.342-2.804 2.181 2.181 0 0 1 1.412.646c.191.21.462.33.746.33h2.998a1 1 0 0 0 .734-.32l.13-.123a2.223 2.223 0 0 1 1.289-.533Z"
    clip-rule="evenodd" />
</svg>