<svg xmlns="http://www.w3.org/2000/svg" viewBox="0 0 16 16" fill="none">
  <path fill="#000" fill-rule="evenodd"
    d="M3 6a5 5 0 1 1 10 0v1.003C12.86 7 12.69 7 12.47 7c-.204 0-.307 0-.393.012a1.25 1.25 0 0 0-1.065 1.066C11 8.164 11 8.266 11 8.47v5.059c0 .205 0 .307.012.393a1.25 1.25 0 0 0 1.065 1.065c.086.012.189.012.394.012.491 0 .737 0 .944-.028a3 3 0 0 0 2.556-2.557c.029-.206.029-.452.029-.944v-.941c0-.492 0-.738-.029-.944A3 3 0 0 0 14 7.172V6A6 6 0 0 0 2 6v1.172A3 3 0 0 0 .029 9.586C0 9.792 0 10.038 0 10.53v.94c0 .493 0 .739.029.945a3 3 0 0 0 2.557 2.557c.206.028.452.028.943.028.205 0 .308 0 .394-.012a1.25 1.25 0 0 0 1.065-1.065C5 13.837 5 13.735 5 13.53V8.47c0-.204 0-.306-.012-.392a1.25 1.25 0 0 0-1.065-1.066C3.837 7 3.734 7 3.529 7 3.31 7 3.14 7 3 7.003V6Zm1 7.53V8.47a10.189 10.189 0 0 0-.003-.258.25.25 0 0 0-.21-.209A10.207 10.207 0 0 0 3.53 8c-.525 0-.685.003-.805.02A2 2 0 0 0 1.02 9.724c-.017.12-.019.28-.019.806v.94c0 .526.002.686.02.807a2 2 0 0 0 1.704 1.704c.12.017.28.02.805.02a10.492 10.492 0 0 0 .259-.004.25.25 0 0 0 .21-.209A10.193 10.193 0 0 0 4 13.53Zm8 0V8.47a10.493 10.493 0 0 1 .003-.258.25.25 0 0 1 .21-.209A10.213 10.213 0 0 1 12.47 8c.525 0 .685.003.805.02a2 2 0 0 1 1.705 1.704c.017.12.019.28.019.806v.94c0 .526-.002.686-.02.807a2 2 0 0 1-1.704 1.704c-.12.017-.28.02-.805.02a10.498 10.498 0 0 1-.259-.004.25.25 0 0 1-.21-.209A10.498 10.498 0 0 1 12 13.53Z"
    clip-rule="evenodd" />
</svg>