<svg xmlns="http://www.w3.org/2000/svg" viewBox="0 0 16 16" fill="none">
  <path fill="#000" fill-rule="evenodd"
    d="M8 1a5 5 0 0 0-5 5v.003C3.14 6 3.31 6 3.53 6c.204 0 .307 0 .393.012a1.25 1.25 0 0 1 1.065 1.066C5 7.164 5 7.266 5 7.47v5.059c0 .205 0 .307-.012.393a1.25 1.25 0 0 1-1.065 1.065C3.837 14 3.734 14 3.529 14c-.491 0-.737 0-.943-.028a3 3 0 0 1-2.557-2.557C0 11.209 0 10.963 0 10.47v-.94c0-.492 0-.738.029-.944A3 3 0 0 1 2 6.172V6a6 6 0 1 1 12 0v.172a3 3 0 0 1 1.971 2.414c.029.206.029.452.029.944v.94c0 .493 0 .739-.029.945a3 3 0 0 1-2.15 2.47l-1.528 1.53a2 2 0 0 1-1.414.585H7.5a.5.5 0 0 1 0-1h3.379a1 1 0 0 0 .707-.293l.707-.707a1.25 1.25 0 0 1-1.281-1.077C11 12.837 11 12.735 11 12.53V7.47c0-.204 0-.306.012-.392a1.25 1.25 0 0 1 1.065-1.066C12.163 6 12.266 6 12.471 6c.219 0 .39 0 .529.003V6a5 5 0 0 0-5-5ZM4 7.47v5.06a10.193 10.193 0 0 1-.003.258.25.25 0 0 1-.21.21A10.492 10.492 0 0 1 3.53 13c-.525 0-.685-.003-.805-.02a2 2 0 0 1-1.705-1.704c-.017-.12-.019-.28-.019-.806v-.94c0-.526.002-.686.02-.806a2 2 0 0 1 1.704-1.705c.12-.016.28-.019.805-.019a10.207 10.207 0 0 1 .259.003.25.25 0 0 1 .21.21v.04c.002.048.002.11.002.218Zm8 0v5.06a10.498 10.498 0 0 0 .003.258.25.25 0 0 0 .21.21l.04.001.218.001c.525 0 .685-.002.805-.019a2 2 0 0 0 1.705-1.704c.017-.12.019-.28.019-.806V9.53c0-.526-.002-.686-.02-.806a2 2 0 0 0-1.704-1.705c-.12-.016-.28-.019-.805-.019a10.213 10.213 0 0 0-.259.003.25.25 0 0 0-.21.21A10.493 10.493 0 0 0 12 7.47Z"
    clip-rule="evenodd" />
</svg>