<svg viewBox="0 0 16 16" xmlns="http://www.w3.org/2000/svg"><path d="m2 7.5c0-0.828 0.672-1.5 1.5-1.5h9c0.828 0 1.5 0.672 1.5 1.5v1c0 0.828-0.672 1.5-1.5 1.5h-9c-0.828 0-1.5-0.672-1.5-1.5v-1zm1.5-0.5c-0.276 0-0.5 0.224-0.5 0.5v1c0 0.276 0.224 0.5 0.5 0.5h9c0.276 0 0.5-0.224 0.5-0.5v-1c0-0.276-0.224-0.5-0.5-0.5h-9z" clip-rule="evenodd" fill="#000" fill-rule="evenodd"/><path d="m4 2.5c0-0.276-0.224-0.5-0.5-0.5s-0.5 0.224-0.5 0.5v1.5c-1.66 0-3 1.34-3 3v2c0 1.66 1.34 3 3 3v1.5c0 0.276 0.224 0.5 0.5 0.5s0.5-0.224 0.5-0.5v-1.5h2v1.5c0 0.276 0.224 0.5 0.5 0.5s0.5-0.224 0.5-0.5v-1.5h2v1.5c0 0.276 0.224 0.5 0.5 0.5s0.5-0.224 0.5-0.5v-1.5h2v1.5c0 0.276 0.224 0.5 0.5 0.5s0.5-0.224 0.5-0.5v-1.5c1.66 0 3-1.34 3-3v-2c0-1.66-1.34-3-3-3v-1.5c0-0.276-0.224-0.5-0.5-0.5s-0.5 0.224-0.5 0.5v1.5h-2v-1.5c0-0.276-0.224-0.5-0.5-0.5s-0.5 0.224-0.5 0.5v1.5h-2v-1.5c0-0.276-0.224-0.5-0.5-0.5s-0.5 0.224-0.5 0.5v1.5h-2v-1.5zm-1 2.5c-1.1 0-2 0.895-2 2v2c0 1.1 0.895 2 2 2h10c1.1 0 2-0.895 2-2v-2c0-1.1-0.895-2-2-2h-10z" clip-rule="evenodd" fill="#000" fill-rule="evenodd"/></svg>
