<svg xmlns="http://www.w3.org/2000/svg" viewBox="0 0 16 16" fill="none">
  <path fill="#000" fill-rule="evenodd"
    d="M2 7.5A1.5 1.5 0 0 1 3.5 6h9A1.5 1.5 0 0 1 14 7.5v1a1.5 1.5 0 0 1-1.5 1.5h-9A1.5 1.5 0 0 1 2 8.5v-1ZM3.5 7a.5.5 0 0 0-.5.5v1a.5.5 0 0 0 .5.5h9a.5.5 0 0 0 .5-.5v-1a.5.5 0 0 0-.5-.5h-9Z"
    clip-rule="evenodd" />
  <path fill="#000" fill-rule="evenodd"
    d="M4 2.5a.5.5 0 1 0-1 0V4a3 3 0 0 0-3 3v2a3 3 0 0 0 3 3v1.5a.5.5 0 0 0 1 0V12h2v1.5a.5.5 0 0 0 1 0V12h2v1.5a.5.5 0 0 0 1 0V12h2v1.5a.5.5 0 0 0 1 0V12a3 3 0 0 0 3-3V7a3 3 0 0 0-3-3V2.5a.5.5 0 0 0-1 0V4h-2V2.5a.5.5 0 1 0-1 0V4H7V2.5a.5.5 0 1 0-1 0V4H4V2.5ZM3 5a2 2 0 0 0-2 2v2a2 2 0 0 0 2 2h10a2 2 0 0 0 2-2V7a2 2 0 0 0-2-2H3Z"
    clip-rule="evenodd" />
</svg>