<svg xmlns="http://www.w3.org/2000/svg" viewBox="0 0 16 16" fill="none">
  <path fill="#000" fill-rule="evenodd"
    d="m3.751 15.717 7.613-6.79a4.465 4.465 0 1 0-4.291-4.291L.283 12.25a1.116 1.116 0 0 0 .044 1.532l1.892 1.892c.418.419 1.09.438 1.532.044Zm6.829-7.43L7.713 5.421 6.494 6.787l2.719 2.719 1.367-1.219Zm-2.115 1.886L5.828 7.535l-4.798 5.38a.116.116 0 0 0 .004.16l1.892 1.891a.116.116 0 0 0 .16.005l5.38-4.798Zm-.394-5.809a3.465 3.465 0 1 1 3.565 3.566L8.071 4.363Z"
    clip-rule="evenodd" />
</svg>