<svg xmlns="http://www.w3.org/2000/svg" viewBox="0 0 16 16" fill="none">
  <path fill="#000"
    d="M6.5 8a.5.5 0 1 0 0 1 .5.5 0 0 0 0-1Zm2 0a.5.5 0 1 0 0 1 .5.5 0 0 0 0-1Zm1.5.5a.5.5 0 1 1 1 0 .5.5 0 0 1-1 0Zm2.5-.5a.5.5 0 1 0 0 1 .5.5 0 0 0 0-1Z" />
  <path fill="#000" fill-rule="evenodd"
    d="M3.964.315a.5.5 0 1 0-.928.371L4.76 5H4c-.93 0-1.395 0-1.776.103a3 3 0 0 0-2.122 2.12C0 7.606 0 8.07 0 9c0 .93 0 1.395.102 1.777a3 3 0 0 0 2.122 2.121C2.605 13 3.07 13 4 13h8c.93 0 1.395 0 1.777-.102a3 3 0 0 0 2.12-2.121C16 10.395 16 9.93 16 9c0-.93 0-1.395-.102-1.776a3 3 0 0 0-2.121-2.121C13.395 5 12.93 5 12 5h-.761L12.963.686a.5.5 0 1 0-.928-.371L10.162 5H5.838L3.964.315ZM10.512 6h-5a.5.5 0 0 1-.024 0H4c-.994 0-1.295.009-1.518.068a2 2 0 0 0-1.414 1.415C1.008 7.705 1 8.006 1 9c0 .995.009 1.296.068 1.518a2 2 0 0 0 1.414 1.414c.223.06.524.068 1.518.068h8c.994 0 1.295-.008 1.518-.068a2 2 0 0 0 1.414-1.414c.06-.222.068-.523.068-1.518 0-.994-.009-1.295-.068-1.517a2 2 0 0 0-1.414-1.415C13.295 6.008 12.994 6 12 6h-1.488Z"
    clip-rule="evenodd" />
</svg>