<svg xmlns="http://www.w3.org/2000/svg" viewBox="0 0 16 16" fill="none">
  <path fill="#000" fill-rule="evenodd"
    d="M6 6a.5.5 0 0 0-.468.325l-1.5 4A.5.5 0 0 0 4.5 11h7a.5.5 0 0 0 .468-.675l-1.5-4A.5.5 0 0 0 10 6H6Zm-.779 4 1.125-3h3.307l1.125 3H5.221Z"
    clip-rule="evenodd" />
  <path fill="#000" fill-rule="evenodd"
    d="M2.5 0a.5.5 0 0 0-.447.724l1.902 3.805a2277.24 2277.24 0 0 0-2.832 7.64 1.98 1.98 0 0 0-.123.689v.263c0 .402 0 .735.022 1.005.023.281.072.54.196.782a2 2 0 0 0 .874.874c.243.124.501.173.782.196.27.022.603.022 1.005.022h8.242c.402 0 .734 0 1.005-.022.281-.023.54-.072.782-.196a2 2 0 0 0 .874-.874c.124-.242.173-.5.196-.782.022-.27.022-.603.022-1.005v-.258c0-.24-.041-.474-.125-.698l-2.83-7.636L13.947.724A.5.5 0 0 0 13.5 0h-11ZM14 13H2v.1c0 .429 0 .72.019.945.018.219.05.331.09.41a1 1 0 0 0 .437.436c.078.04.19.073.41.09.225.019.516.02.944.02h8.2c.428 0 .72-.001.944-.02.22-.017.332-.05.41-.09a1 1 0 0 0 .437-.437c.04-.078.072-.19.09-.41C14 13.82 14 13.53 14 13.1V13Zm-2.809-9 1.5-3H3.309l1.5 3h6.382Zm-8.97 8 2.625-7h6.307l2.625 7H2.223Z"
    clip-rule="evenodd" />
</svg>