<svg xmlns="http://www.w3.org/2000/svg" viewBox="0 0 16 16" fill="none">
  <path fill="#000" fill-rule="evenodd"
    d="M14.37.212c-.723-.436-1.648-.177-2.066.577L8.339 7.951c-.222.4-.338.853-.338 1.314v1.682c0 .81.84 1.316 1.512.91l1.397-.84c.383-.231.7-.563.922-.963l3.965-7.162c.418-.754.17-1.719-.553-2.154L14.37.212Zm-1.193 1.103a.493.493 0 0 1 .69-.192l.872.525a.538.538 0 0 1 .185.719L10.96 9.529a1.55 1.55 0 0 1-.554.577l-1.396.841V9.265c0-.276.07-.548.203-.788l3.965-7.162Z"
    clip-rule="evenodd" />
  <path fill="#000" fill-rule="evenodd"
    d="M9 2.5a.5.5 0 0 0-.5-.5H4.8c-1.68 0-2.52 0-3.162.327A3 3 0 0 0 .327 3.638C0 4.28 0 5.12 0 6.8v2.4c0 1.68 0 2.52.327 3.162a3 3 0 0 0 1.311 1.311C2.28 14 3.12 14 4.8 14h6.4c1.68 0 2.52 0 3.162-.327a3 3 0 0 0 1.311-1.31C16 11.72 16 10.88 16 9.2V7.5a.5.5 0 0 0-1 0v1.7c0 .857 0 1.44-.038 1.89-.035.438-.1.662-.18.818a2 2 0 0 1-.874.874c-.156.08-.38.145-.819.18-.45.037-1.032.038-1.889.038H4.8c-.298 0-.563 0-.8-.002V3.002C4.237 3 4.502 3 4.8 3h3.7a.5.5 0 0 0 .5-.5Zm-6 .531v9.938a6.916 6.916 0 0 1-.089-.006c-.438-.036-.663-.101-.819-.18a2 2 0 0 1-.874-.875c-.08-.156-.145-.38-.18-.819C1 10.64 1 10.057 1 9.2V6.8c0-.856 0-1.439.038-1.889.035-.438.1-.662.18-.819a2 2 0 0 1 .874-.874c.156-.08.38-.144.819-.18L3 3.03Z"
    clip-rule="evenodd" />
</svg>