<svg xmlns="http://www.w3.org/2000/svg" viewBox="0 0 16 16" fill="none">
  <path fill="#000" fill-rule="evenodd"
    d="M5 9a2 2 0 1 0 0-4 2 2 0 0 0 0 4Zm0-1a1 1 0 1 0 0-2 1 1 0 0 0 0 2Zm8-1a2 2 0 1 1-4 0 2 2 0 0 1 4 0Zm-1 0a1 1 0 1 1-2 0 1 1 0 0 1 2 0Z"
    clip-rule="evenodd" />
  <path fill="#000" fill-rule="evenodd"
    d="M4.486 14h7.028c1.465 0 2.231-.018 2.827-.316a2.999 2.999 0 0 0 1.343-1.343c.316-.633.316-1.459.316-3.11V6.77c0-1.653 0-2.478-.316-3.112a3 3 0 0 0-1.343-1.342C13.708 2 12.88 2 11.23 2H4.77c-1.652 0-2.478 0-3.11.317A3 3 0 0 0 .315 3.659C0 4.293 0 5.12 0 6.77v2.46c0 1.652 0 2.478.316 3.111a3 3 0 0 0 1.343 1.343c.596.298 1.362.315 2.827.316ZM4.77 3h6.46c.842 0 1.415.001 1.857.037.432.034.653.097.807.174a2 2 0 0 1 .895.895c.077.155.14.376.175.807.035.443.036 1.015.036 1.857v2.46c0 .842 0 1.415-.036 1.858-.035.431-.098.652-.175.806a2 2 0 0 1-.895.895c-.154.077-.375.14-.807.175-.322.026-.713.033-1.227.035l-.886-2.657A.5.5 0 0 0 10.5 10h-5a.5.5 0 0 0-.474.342L4.14 13c-.514-.002-.905-.01-1.227-.035-.432-.035-.653-.098-.807-.175a2 2 0 0 1-.895-.895c-.077-.154-.14-.375-.175-.806C1.001 10.645 1 10.073 1 9.23V6.77c0-.842 0-1.414.036-1.857.035-.431.098-.652.175-.807a2 2 0 0 1 .895-.895c.154-.077.375-.14.807-.174C3.355 3 3.928 3 4.77 3Zm6.036 10H5.194l.666-2h4.28l.666 2Z"
    clip-rule="evenodd" />
</svg>