<svg xmlns="http://www.w3.org/2000/svg" viewBox="0 0 16 16" fill="none">
  <path fill="#000" fill-rule="evenodd"
    d="M4.228 1.852C4 2.404 4 3.102 4 4.5v5.3c0 1.12 0 1.68.218 2.108a2 2 0 0 0 .874.874c.238.121.516.175.908.2V15.5a.5.5 0 0 0 .5.5h4a.5.5 0 0 0 .5-.5v-2.519c.392-.024.67-.078.908-.199a2 2 0 0 0 .874-.874C13 11.48 13 10.92 13 9.8V4.5c0-1.398 0-2.096-.228-2.648A3 3 0 0 0 11.148.23C10.597 0 9.898 0 8.5 0 7.102 0 6.403 0 5.852.23a3 3 0 0 0-1.624 1.623ZM12 9.8V4.5c0-.712 0-1.197-.026-1.573-.025-.368-.07-.559-.126-.692a2 2 0 0 0-1.083-1.082c-.133-.056-.324-.101-.692-.126C9.697 1 9.213 1 8.5 1s-1.197 0-1.573.027c-.368.025-.559.07-.692.126a2 2 0 0 0-1.083 1.082c-.055.133-.1.324-.126.692C5.001 3.303 5 3.787 5 4.5v5.3c0 .577 0 .95.024 1.232.022.272.06.373.085.422a1 1 0 0 0 .437.437c.05.025.15.063.422.085C6.25 12 6.623 12 7.2 12h2.6c.577 0 .949 0 1.232-.024.272-.022.373-.06.422-.085a1 1 0 0 0 .437-.437c.025-.05.063-.15.085-.421C12 10.748 12 10.377 12 9.8ZM7 15v-2h3v2H7Z"
    clip-rule="evenodd" />
</svg>