<svg xmlns="http://www.w3.org/2000/svg" viewBox="0 0 16 16" fill="none">
  <path fill="#000"
    d="M7.5 4a.5.5 0 0 1 .5.5V7h2.5a.5.5 0 0 1 0 1H8v2.5a.5.5 0 0 1-1 0V8H4.5a.5.5 0 1 1 0-1H7V4.5a.5.5 0 0 1 .5-.5Z" />
  <path fill="#000" fill-rule="evenodd"
    d="M0 6.4c0-2.24 0-3.36.436-4.216A4 4 0 0 1 2.184.436C3.04 0 4.16 0 6.4 0h2.2c2.24 0 3.36 0 4.216.436a4 4 0 0 1 1.748 1.748C15 3.04 15 4.16 15 6.4v2.2c0 2.24 0 3.36-.436 4.216a4 4 0 0 1-1.748 1.748C11.96 15 10.84 15 8.6 15H6.4c-2.24 0-3.36 0-4.216-.436a4 4 0 0 1-1.748-1.748C0 11.961 0 10.84 0 8.6V6.4ZM6.4 1h2.2c1.137 0 1.929.001 2.546.051.605.05.953.142 1.216.276a3 3 0 0 1 1.311 1.311c.134.264.226.611.276 1.217.05.616.051 1.409.051 2.545v2.2c0 1.137 0 1.93-.051 2.546-.05.605-.142.953-.276 1.216a3 3 0 0 1-1.311 1.311c-.263.134-.611.227-1.216.276C10.529 14 9.736 14 8.6 14H6.4c-1.137 0-1.929 0-2.546-.05-.605-.05-.953-.143-1.216-.277a3 3 0 0 1-1.311-1.31c-.134-.264-.226-.612-.276-1.217C1.001 10.53 1 9.736 1 8.6V6.4c0-1.136 0-1.929.051-2.545.05-.606.142-.953.276-1.217a3 3 0 0 1 1.311-1.31c.263-.135.611-.227 1.216-.277.617-.05 1.41-.05 2.546-.05Z"
    clip-rule="evenodd" />
</svg>