<svg xmlns="http://www.w3.org/2000/svg" viewBox="0 0 16 16" fill="none">
  <path fill="#000" fill-rule="evenodd"
    d="M15 4.122a1.5 1.5 0 0 0-.44-1.061L11.94.44A1.5 1.5 0 0 0 10.878 0H6C4.6 0 3.9 0 3.365.273a2.5 2.5 0 0 0-1.093 1.092C2 1.9 2 2.6 2 4h-.5A1.5 1.5 0 0 0 0 5.5v9A1.5 1.5 0 0 0 1.5 16h11.085a1.5 1.5 0 0 0 1.424-1.025l1.772-5.317A.5.5 0 0 0 15.306 9H4.541a.75.75 0 0 0-.712.513L2 15h-.5a.5.5 0 0 1-.5-.5v-9a.5.5 0 0 1 .5-.5H2v4.5a.5.5 0 0 0 1 0V4c0-.716 0-1.194.03-1.56.03-.355.081-.518.133-.62a1.5 1.5 0 0 1 .656-.656c.103-.053.265-.104.62-.133.367-.03.844-.03 1.561-.03h4v3.5a.5.5 0 0 0 .5.5H14v2.5a.5.5 0 0 0 1 0V4.12ZM11 4V1.031l3 2.97h-3Z"
    clip-rule="evenodd" />
</svg>