<svg xmlns="http://www.w3.org/2000/svg" viewBox="0 0 16 16" fill="none">
  <path fill="#000" d="M11 7.5a.5.5 0 1 0-1 0v2.662l-2.186.874a.5.5 0 1 0 .372.928l2.5-1A.5.5 0 0 0 11 10.5v-3Z" />
  <path fill="#000" fill-rule="evenodd"
    d="M14 3.5a.5.5 0 0 1-1 0 .5.5 0 0 0-.5-.5h-5a2 2 0 0 1-1.6-.8L5 1H1.5a.5.5 0 0 0-.5.5v9a.5.5 0 0 0 .5.5H2l1.83-5.487a.75.75 0 0 1 .71-.512h5.901a5.69 5.69 0 0 1 .117 0h4.748a.5.5 0 0 1 .475.658l-.633 1.899A5.5 5.5 0 1 1 5.208 12H1.5A1.5 1.5 0 0 1 0 10.5v-9A1.5 1.5 0 0 1 1.5 0H5a1 1 0 0 1 .8.4l.9 1.2a1 1 0 0 0 .8.4h5A1.5 1.5 0 0 1 14 3.5ZM10.5 15a4.5 4.5 0 1 0 0-9 4.5 4.5 0 0 0 0 9Z"
    clip-rule="evenodd" />
</svg>