<svg xmlns="http://www.w3.org/2000/svg" viewBox="0 0 16 16" fill="none">
  <path fill="#000"
    d="M8.2 1H4.8c-.857 0-1.439.001-1.889.038-.438.036-.663.1-.819.18a2 2 0 0 0-.874.874c-.08.157-.145.38-.18.82C1 3.361 1 3.943 1 4.8v5.4c0 .857 0 1.44.038 1.89.035.438.1.662.18.818a2 2 0 0 0 .874.874c.156.08.38.145.819.18.25.021.54.03.895.035.13.36.328.701.595 1.003-1.418-.002-2.174-.027-2.763-.327a3 3 0 0 1-1.311-1.31C0 12.72 0 11.88 0 10.2V4.8c0-1.68 0-2.52.327-3.162A3 3 0 0 1 1.638.328C2.28 0 3.12 0 4.8 0h3.4c1.68 0 2.52 0 3.162.327a3 3 0 0 1 1.311 1.311c.24.471.304 1.049.32 1.986a3.062 3.062 0 0 0-.358.015 3.11 3.11 0 0 0-.664-.607 6.48 6.48 0 0 0-.009-.12c-.035-.44-.1-.663-.18-.82a2 2 0 0 0-.874-.874c-.156-.08-.38-.144-.819-.18C9.639 1 9.057 1 8.2 1Z" />
  <path fill="#000"
    d="M8.074 3H2.5a.5.5 0 1 0 0 1h3.07a3.096 3.096 0 0 1 1.795-.362A3.11 3.11 0 0 1 8.075 3ZM2.5 6h1.306a3.099 3.099 0 0 0-.184 1H2.5a.5.5 0 0 1 0-1Zm.094 3H2.5a.5.5 0 1 0 0 1v-.238c0-.263.033-.518.094-.762Z" />
  <path fill="#000" fill-rule="evenodd" d="M10 12a2 2 0 1 0 0-4 2 2 0 0 0 0 4Zm0-1a1 1 0 1 0 0-2 1 1 0 0 0 0 2Z"
    clip-rule="evenodd" />
  <path fill="#000" fill-rule="evenodd"
    d="M10.236 4h-.474c-.79 0-1.446.575-1.573 1.329a4.976 4.976 0 0 0-.212.087 1.596 1.596 0 0 0-2.051.173l-.337.337a1.596 1.596 0 0 0-.173 2.052c-.03.07-.06.14-.087.211A1.596 1.596 0 0 0 4 9.762v.474c0 .792.577 1.45 1.334 1.576.027.07.056.138.086.206a1.6 1.6 0 0 0 .172 2.06l.329.328c.563.563 1.441.62 2.067.169.066.029.132.056.2.082A1.603 1.603 0 0 0 9.77 16h.458c.8 0 1.462-.584 1.585-1.348a4.85 4.85 0 0 0 .194-.081c.628.454 1.51.398 2.075-.167l.321-.322a1.607 1.607 0 0 0 .168-2.075 4.79 4.79 0 0 0 .08-.194A1.606 1.606 0 0 0 16 10.228V9.77c0-.797-.581-1.458-1.343-1.582a4.923 4.923 0 0 0-.082-.2 1.603 1.603 0 0 0-.17-2.067l-.328-.33a1.6 1.6 0 0 0-2.06-.17 4.96 4.96 0 0 0-.205-.086A1.598 1.598 0 0 0 10.236 4Zm-1.07 1.596c0-.33.267-.596.596-.596h.473c.33 0 .598.268.598.598 0 .282.2.521.466.613.157.055.31.118.458.191.254.125.566.097.766-.103a.599.599 0 0 1 .847 0l.329.329a.603.603 0 0 1 0 .852c-.201.2-.23.513-.106.768.07.145.132.294.185.447.092.27.334.472.619.472.333 0 .603.27.603.603v.458a.606.606 0 0 1-.606.606c-.285 0-.527.201-.621.471-.052.15-.113.297-.182.439-.126.257-.097.572.105.774a.606.606 0 0 1 0 .857l-.321.322a.606.606 0 0 1-.857 0c-.203-.203-.517-.231-.775-.106a3.74 3.74 0 0 1-.438.182c-.27.094-.472.336-.472.622a.606.606 0 0 1-.605.605H9.77a.603.603 0 0 1-.603-.603c0-.285-.202-.527-.472-.619a3.974 3.974 0 0 1-.447-.184c-.256-.124-.567-.096-.768.105a.602.602 0 0 1-.852 0l-.33-.329a.599.599 0 0 1 0-.847c.201-.2.229-.512.104-.766a3.967 3.967 0 0 1-.191-.458c-.092-.266-.331-.465-.613-.465A.598.598 0 0 1 5 10.236v-.474c0-.329.266-.595.595-.595.282 0 .52-.2.611-.466.055-.16.12-.316.193-.466.124-.252.096-.561-.103-.76a.595.595 0 0 1 0-.842l.337-.337a.595.595 0 0 1 .842 0c.198.2.507.227.76.103.15-.073.306-.138.466-.192.266-.091.466-.33.466-.611Z"
    clip-rule="evenodd" />
</svg>