<svg xmlns="http://www.w3.org/2000/svg" width="17" height="17" fill="none"><path fill="#000" d="M4.8 0C3.12 0 2.28 0 1.638.327A3 3 0 0 0 .327 1.638C0 2.28 0 3.12 0 4.8v6.4c0 1.68 0 2.52.327 3.162a3 3 0 0 0 1.311 1.311C2.28 16 3.12 16 4.8 16h4.4c.758 0 1.345 0 1.82-.03l-.972-.972C9.798 15 9.518 15 9.2 15H4.8c-.857 0-1.439 0-1.889-.037-.438-.036-.663-.101-.819-.18a2 2 0 0 1-.874-.875c-.08-.156-.145-.38-.18-.819C1 12.64 1 12.057 1 11.2V4.8c0-.856 0-1.439.038-1.889.035-.438.1-.662.18-.819a2 2 0 0 1 .874-.874c.156-.08.38-.144.819-.18C3.361 1 3.943 1 4.8 1H9v1.591c.346.063.68.16 1 .284V1.35c0-.16.15-.28.296-.213.16.074.309.176.436.304l1.829 1.828a1.5 1.5 0 0 1 .303.437c.067.145-.053.295-.213.295h-.876c.316.299.597.635.835 1H13v.706a5.48 5.48 0 0 1 .475 2.82L14 9.05V4.329a2.5 2.5 0 0 0-.732-1.768L11.439.733A2.5 2.5 0 0 0 9.672 0H4.8Z"/><path fill="#000" fill-rule="evenodd" d="M12 8c0 .359-.047.706-.136 1.036l3.621 3.621a2 2 0 0 1-2.828 2.829l-3.62-3.621a4.004 4.004 0 0 1-4.95-4.705c.137-.639.917-.746 1.379-.284l1.416 1.416a.5.5 0 0 0 .45.137l.588-.115a.5.5 0 0 0 .394-.393l.118-.593a.5.5 0 0 0-.137-.45L6.883 5.464c-.462-.462-.354-1.243.285-1.378A4 4 0 0 1 12 8Zm-1.101.778-.15.557 4.03 4.03a1 1 0 0 1-1.415 1.413L9.335 10.75l-.557.149a3 3 0 0 1-3.773-3.07L6.175 9a1.5 1.5 0 0 0 1.35.411l.588-.115a1.5 1.5 0 0 0 1.183-1.18l.118-.592a1.5 1.5 0 0 0-.41-1.353L7.836 5.005a3 3 0 0 1 3.062 3.773Z" clip-rule="evenodd"/></svg>