<svg xmlns="http://www.w3.org/2000/svg" viewBox="0 0 16 16" fill="none">
  <path fill="#000"
    d="M8.167 2.25c1.926 0 3.49.983 3.884 2.515a1.4 1.4 0 0 1 .033.346c0 .306-.202.508-.5.508-.29 0-.46-.153-.548-.443-.33-1.241-1.443-1.926-2.901-1.926-1.572 0-2.813.822-2.813 2.143 0 1.056.717 1.725 2.442 2.112l1.265.29c.28.063.54.131.78.205H13.5c.667 0 .667 1 0 1h-1.822c.48.484.696 1.09.696 1.857 0 2.064-1.66 3.393-4.175 3.393-2.192 0-3.755-1.04-4.15-2.506a1.457 1.457 0 0 1-.073-.443c0-.355.194-.58.508-.58.282 0 .46.144.532.45.298 1.338 1.571 2.08 3.24 2.08 1.748 0 2.99-.927 2.99-2.249 0-.959-.556-1.585-1.895-2.002H2.5l-.105-.009c-.56-.099-.525-.99.105-.99h3.33c-1.137-.57-1.636-1.407-1.636-2.56 0-1.877 1.692-3.19 3.973-3.19Z" />
</svg>