<svg xmlns="http://www.w3.org/2000/svg" viewBox="0 0 16 16" fill="none">
  <path fill="#000" fill-rule="evenodd"
    d="M8.5 1h7a.5.5 0 0 1 0 1h-7a.5.5 0 1 1 0-1Zm0 4h7a.5.5 0 0 1 0 1h-7a.5.5 0 1 1 0-1Zm0 4h7a.5.5 0 0 1 0 1h-7a.5.5 0 1 1 0-1Zm0 4h3a.5.5 0 0 1 0 1h-3a.5.5 0 1 1 0-1ZM3.854 4.147l3 3 .037.042.042.061.03.06.02.062.012.056L7 7.5l-.003.054-.014.074-.02.063-.04.076-.04.055-3.03 3.032a.5.5 0 1 1-.707-.707L5.293 8H.5a.5.5 0 1 1 0-1h4.793L3.146 4.854a.5.5 0 0 1-.057-.638l.057-.07a.5.5 0 0 1 .708 0Z"
    clip-rule="evenodd" />
</svg>