<svg xmlns="http://www.w3.org/2000/svg" viewBox="0 0 16 16" fill="none">
  <path fill="#000"
    d="M12.146 4.147a.5.5 0 0 1 .708 0l.057.069a.5.5 0 0 1-.057.638L10.706 7H15.5a.5.5 0 0 1 0 1h-4.794l2.148 2.147a.5.5 0 0 1 .057.637l-.057.07a.5.5 0 0 1-.708 0L9.118 7.822l-.03-.037-.041-.073-.03-.084-.012-.054-.003-.03L9 7.49a.46.46 0 0 1 .005-.064L9 7.5l.003-.053.014-.075.02-.063.04-.076.04-.055 3.03-3.031ZM.5 1h7a.5.5 0 0 1 0 1h-7a.5.5 0 1 1 0-1Zm0 4h7a.5.5 0 0 1 0 1h-7a.5.5 0 1 1 0-1Zm0 4h7a.5.5 0 0 1 0 1h-7a.5.5 0 1 1 0-1Zm0 4h3a.5.5 0 0 1 0 1h-3a.5.5 0 1 1 0-1Z" />
</svg>