<svg viewBox="0 0 16 16" xmlns="http://www.w3.org/2000/svg"><path d="m8.5 5c0.276 0 0.5 0.224 0.5 0.5v0.5h1c1.4 0 2.1 7e-5 2.63 0.272 0.47 0.24 0.853 0.622 1.09 1.09 0.272 0.535 0.272 1.23 0.272 2.63v0.0674c0.171 0.028 0.32 0.0662 0.457 0.123 0.612 0.254 1.1 0.74 1.35 1.35 0.19 0.459 0.19 1.04 0.19 2.21 0 0.699-1e-4 1.05-0.114 1.32l-0.0634 0.134c-0.163 0.304-0.426 0.544-0.748 0.678l-0.107 0.0381c-0.261 0.0765-0.605 0.0762-1.22 0.0762h-11.5c-0.699 0-1.05-1e-4 -1.32-0.114-0.322-0.133-0.585-0.374-0.748-0.678l-0.0635-0.134c-0.114-0.276-0.114-0.625-0.114-1.32 0-1.02 5.2e-4 -1.59 0.128-2.03l0.0625-0.18c0.222-0.536 0.622-0.976 1.13-1.25l0.224-0.106c0.137-0.0568 0.286-0.095 0.457-0.123v-0.0674c0-1.23 2e-5 -1.91 0.183-2.43l0.0898-0.209c0.21-0.411 0.528-0.756 0.92-0.996l0.173-0.0967c0.535-0.272 1.23-0.272 2.63-0.272h1v-0.5c0-0.276 0.224-0.5 0.5-0.5h1zm-4.75 6c-0.596 0-0.993 6e-4 -1.3 0.0215-0.298 0.0203-0.437 0.0565-0.524 0.0928-0.367 0.152-0.659 0.444-0.812 0.812-0.0363 0.0875-0.0725 0.227-0.0928 0.524-0.0209 0.307-0.0215 0.704-0.0215 1.3 0 0.363 3.1e-4 0.586 0.0117 0.753 0.0107 0.157 0.028 0.192 0.0264 0.188 0.0507 0.122 0.148 0.22 0.27 0.27-0.00389-0.0016 0.0312 0.0156 0.188 0.0264 0.167 0.0114 0.39 0.0117 0.753 0.0117h11.5c0.363 0 0.586-3e-4 0.753-0.0117 0.157-0.0108 0.192-0.028 0.188-0.0264 0.122-0.0507 0.22-0.148 0.27-0.27-0.0016 0.0039 0.0156-0.0312 0.0264-0.188 0.0114-0.167 0.0117-0.39 0.0117-0.753 0-0.596-6e-4 -0.993-0.0215-1.3-0.0203-0.298-0.0565-0.437-0.0928-0.524-0.152-0.367-0.444-0.659-0.812-0.812-0.0875-0.0363-0.227-0.0725-0.524-0.0928-0.307-0.0209-0.704-0.0215-1.3-0.0215h-8.5zm2.25-4c-0.717 0-1.19 3.2e-4 -1.56 0.0303-0.355 0.029-0.517 0.0804-0.62 0.133-0.282 0.144-0.512 0.374-0.656 0.656-0.0524 0.103-0.104 0.266-0.133 0.62-0.015 0.183-0.0224 0.395-0.0264 0.649l-0.00391 0.911h10c0-0.717-3e-4 -1.19-0.0303-1.56-0.0289-0.355-0.0804-0.517-0.133-0.62-0.144-0.282-0.374-0.512-0.656-0.656-0.103-0.0524-0.266-0.104-0.62-0.133-0.367-0.03-0.844-0.0303-1.56-0.0303h-4z" clip-rule="evenodd" fill="#000" fill-rule="evenodd"/><path d="m7.55 0.0371c0.216-0.0655 0.46-0.043 0.652 0.0596 1.57 0.842 2.01 2.38 1.71 3.39-0.303 1.01-1.31 1.51-2.09 1.51-0.783 0-1.33-0.415-1.62-0.968-0.294-0.553-0.281-1.33 0.143-2 0.424-0.666 0.759-1.62 0.832-1.73 0.0726-0.113 0.21-0.213 0.372-0.263z" fill="#000"/></svg>
