<svg fill="none" viewBox="0 0 16 16" xmlns="http://www.w3.org/2000/svg"><path d="m6 2.29e-7c0.226 0 0.421-1.94e-4 0.581 0.0107 0.165 0.0113 0.33 0.036 0.493 0.104 0.367 0.152 0.659 0.444 0.812 0.812 0.0675 0.163 0.0923 0.328 0.104 0.493 0.0109 0.16 0.0107 0.355 0.0107 0.581v0.0879c0.139-0.047 0.279-0.0676 0.419-0.0772 0.16-0.0109 0.355-0.0107 0.581-0.0107s0.421-1.9e-4 0.581 0.0107c0.159 0.0108 0.318 0.0345 0.476 0.0967 0.0148-0.0607 0.0327-0.121 0.0577-0.182 0.152-0.367 0.444-0.659 0.812-0.812 0.163-0.0675 0.328-0.0923 0.493-0.104 0.16-0.0109 0.355-0.0107 0.581-0.0107s0.421-1.93e-4 0.581 0.0107c0.165 0.0112 0.33 0.036 0.493 0.104 0.367 0.152 0.659 0.444 0.812 0.812 0.0675 0.163 0.0923 0.328 0.104 0.493 0.0109 0.16 0.0107 0.355 0.0107 0.581v2c0.0965 0 0.194 0.013 0.29 0.042 0.422 0.128 0.71 0.516 0.71 0.957 0 1.64-0.104 3.16-0.246 4.49-0.107 0.997-0.196 1.86-0.382 2.56-0.199 0.75-0.524 1.39-1.13 1.93-0.619 0.556-1.32 0.804-2.13 0.918-0.761 0.108-1.69 0.106-2.8 0.106h-0.631c-1.11 0-2.04 2e-3 -2.8-0.106-0.803-0.114-1.51-0.362-2.13-0.918-0.605-0.544-0.93-1.18-1.13-1.93-0.186-0.701-0.275-1.56-0.382-2.56-0.142-1.32-0.246-2.85-0.246-4.49 0-0.441 0.288-0.829 0.71-0.957 0.0959-0.029 0.194-0.0421 0.29-0.042v-0.501c0-0.457-0.00112-0.851 0.041-1.16 0.0441-0.328 0.144-0.642 0.398-0.896 0.255-0.255 0.569-0.354 0.896-0.398 0.192-0.0259 0.415-0.0346 0.664-0.0381v-0.00293c0-0.226-1.9e-4 -0.421 0.0107-0.581 0.0112-0.165 0.036-0.33 0.104-0.493 0.152-0.367 0.444-0.659 0.812-0.812 0.163-0.0675 0.328-0.0923 0.493-0.104 0.16-0.0109 0.355-0.0107 0.581-0.0107zm8 6s-2 3-6 3-6-3-6-3c0 1.59 0.102 3.09 0.24 4.38 0.22 2.05 0.33 3.08 1.19 3.85 0.855 0.768 1.99 0.769 4.26 0.769h0.631l0.8-2e-3c1.62-0.0097 2.57-0.0826 3.3-0.632l0.163-0.135c0.748-0.672 0.926-1.54 1.11-3.13l0.0791-0.724c0.138-1.29 0.24-2.79 0.24-4.38zm-5-3c-0.24 0-0.394 7.3e-4 -0.513 0.00879-0.114 0.00778-0.158 0.0207-0.179 0.0293-0.122 0.0507-0.22 0.148-0.27 0.27-0.00862 0.0208-0.0215 0.0647-0.0293 0.179-0.00806 0.118-0.00879 0.273-0.00879 0.513v4c0.763 0 1.44-0.126 2.03-0.321-0.0214-0.0556-0.0342-0.116-0.0342-0.179v-3.64c-4.5e-4 -0.165-0.00237-0.283-0.00879-0.377-0.00778-0.114-0.0207-0.158-0.0293-0.179-0.0507-0.122-0.148-0.22-0.27-0.27-0.0208-0.00862-0.0647-0.0215-0.179-0.0293-0.118-0.00806-0.273-0.00879-0.513-0.00879zm-3-2c-0.24 0-0.394 7.3e-4 -0.513 0.00879-0.114 0.00778-0.158 0.0207-0.179 0.0293-0.122 0.0507-0.22 0.148-0.27 0.27-0.00862 0.0208-0.0215 0.0647-0.0293 0.179-0.00806 0.118-0.00879 0.273-0.00879 0.513v5.27c0.56 0.294 1.23 0.538 2 0.655v-5.92c0-0.24-7.3e-4 -0.394-0.00879-0.513-0.00778-0.114-0.0207-0.158-0.0293-0.179-0.0507-0.122-0.148-0.22-0.27-0.27-0.0208-0.00862-0.0647-0.0215-0.179-0.0293-0.118-0.00806-0.273-0.00879-0.513-0.00879zm6 1c-0.24 0-0.394 7.3e-4 -0.513 0.00879-0.114 0.00778-0.158 0.0207-0.179 0.0293-0.122 0.0507-0.22 0.148-0.27 0.27-0.0086 0.0208-0.0215 0.0647-0.0293 0.179-0.0081 0.118-0.0088 0.273-0.0088 0.513v4.27c0.338-0.178 0.639-0.372 0.9-0.568 0.437-0.328 0.763-0.655 0.978-0.896 0.0475-0.0534 0.0863-0.105 0.122-0.148v-2.66c0-0.24-7e-4 -0.394-0.0088-0.513-0.0078-0.114-0.0207-0.158-0.0293-0.179-0.0507-0.122-0.148-0.22-0.27-0.27-0.0208-0.00862-0.0647-0.0215-0.179-0.0293-0.118-0.00806-0.273-0.00879-0.513-0.00879zm-8 1c-0.22 0.00327-0.39 0.00953-0.53 0.0283-0.217 0.0292-0.285 0.0762-0.323 0.114-0.0381 0.0381-0.0851 0.106-0.114 0.323-0.031 0.231-0.0322 0.545-0.0322 1.03v1.16c0.0358 0.0437 0.0746 0.095 0.122 0.148 0.197 0.222 0.492 0.514 0.878 0.815v-3.62z" clip-rule="evenodd" fill="#000" fill-rule="evenodd"/></svg>
