<svg viewBox="0 0 16 16" xmlns="http://www.w3.org/2000/svg"><path d="m12.1 5.01c0.243 0.0258 0.47 0.139 0.636 0.322 0.19 0.209 0.282 0.49 0.254 0.771l-0.675 6.84c-0.0361 0.366-0.0682 0.698-0.117 0.973-0.0512 0.287-0.132 0.588-0.307 0.879-0.254 0.424-0.629 0.762-1.08 0.974-0.306 0.145-0.613 0.196-0.903 0.219-0.278 0.0217-0.612 0.0215-0.98 0.0215h-1.87c-0.368 0-0.702 2e-4 -0.98-0.0215-0.29-0.0227-0.597-0.0741-0.903-0.219-0.447-0.211-0.822-0.55-1.08-0.974-0.174-0.29-0.255-0.592-0.307-0.879-0.0489-0.274-0.081-0.606-0.117-0.973l-0.675-6.84c-0.0277-0.281 0.0644-0.561 0.254-0.771 0.19-0.209 0.459-0.328 0.741-0.328h8l0.106 0.00586zm-7.43 7.83c0.0755 0.764 0.114 1.15 0.287 1.44 0.153 0.254 0.377 0.458 0.645 0.585 0.304 0.144 0.689 0.144 1.46 0.144h1.87l0.509-2e-3c0.372-0.0056 0.623-0.0259 0.829-0.0947l0.119-0.0469c0.234-0.111 0.435-0.281 0.584-0.492l0.0605-0.0927c0.13-0.217 0.184-0.486 0.234-0.93l0.0527-0.506 0.675-6.84h-8l0.675 6.84z" clip-rule="evenodd" fill="#000" fill-rule="evenodd"/><path d="m10.4 1.2c0.411-1.23 1.98-1.6 2.9-0.684l2.33 2.33c0.165 0.165 0.247 0.247 0.285 0.339 0.0506 0.122 0.0507 0.26 0 0.383-0.0382 0.0917-0.121 0.174-0.285 0.339-0.164 0.165-0.247 0.247-0.339 0.285-0.122 0.0507-0.26 0.0507-0.383 0-0.0918-0.038-0.174-0.121-0.339-0.285l-2.33-2.33c-0.132-0.131-0.355-0.0786-0.414 0.0976l-0.442 1.33h-1.58l0.601-1.8z" fill="#000"/></svg>
