<svg xmlns="http://www.w3.org/2000/svg" viewBox="0 0 16 16" fill="none">
  <path fill="#000"
    d="M11.2 2H4.8c-.857 0-1.439.001-1.889.038-.438.036-.663.1-.819.18a2 2 0 0 0-.874.874c-.08.157-.145.38-.18.82C1 4.361 1 4.943 1 5.8v2.4c0 .857 0 1.44.038 1.89.035.438.1.662.18.818a2 2 0 0 0 .874.874c.156.08.38.145.819.18.36.03.934.037 1.589.038a.5.5 0 0 1 0 1c-1.475-.003-2.283-.031-2.862-.327a3 3 0 0 1-1.311-1.31C0 10.72 0 9.88 0 8.2V5.8c0-1.68 0-2.52.327-3.162a3 3 0 0 1 1.311-1.31C2.28 1 3.12 1 4.8 1h6.4c1.68 0 2.52 0 3.162.327a3 3 0 0 1 1.311 1.311C16 3.28 16 4.12 16 5.8v2.4c0 1.68 0 2.52-.327 3.162a3 3 0 0 1-1.311 1.311c-.173.088-.362-.051-.362-.245v-.37c0-.202.112-.383.267-.51a2 2 0 0 0 .515-.64c.08-.156.145-.38.18-.819.032-.388.037-.874.038-1.55V5.8c0-.856 0-1.439-.038-1.889-.035-.438-.1-.662-.18-.819a2 2 0 0 0-.874-.874c-.156-.08-.38-.144-.819-.18C12.639 2 12.057 2 11.2 2Z" />
  <path fill="#000" fill-rule="evenodd"
    d="M12 15.5v-3.258a4.5 4.5 0 1 0-5 0V15.5a.5.5 0 0 0 .834.372L9.5 14.375l1.666 1.496A.5.5 0 0 0 12 15.5Zm-.556-4.088a1 1 0 0 0-.444.83v2.136l-.832-.747a1 1 0 0 0-1.336 0L8 14.378v-2.136a1 1 0 0 0-.444-.83 3.5 3.5 0 1 1 3.887 0Z"
    clip-rule="evenodd" />
</svg>