<svg xmlns="http://www.w3.org/2000/svg" viewBox="0 0 16 16" fill="none">
  <path fill="#000"
    d="M12.005 13c-.452 0-.856-.078-1.21-.235a1.948 1.948 0 0 1-.84-.707c-.203-.314-.305-.705-.305-1.173 0-.394.072-.725.217-.993.145-.268.342-.483.591-.646.25-.164.533-.287.85-.37a6.39 6.39 0 0 1 1.007-.175c.412-.044.745-.084.997-.12.253-.04.436-.099.55-.176a.386.386 0 0 0 .17-.342v-.027c0-.293-.092-.52-.276-.68-.182-.16-.44-.24-.776-.24-.354 0-.636.08-.845.236-.09.066-.167.14-.231.22-.147.187-.355.348-.592.329l-.845-.069c-.3-.024-.516-.311-.391-.586.095-.21.218-.403.368-.577a2.61 2.61 0 0 1 1.049-.73c.43-.173.93-.259 1.496-.259.394 0 .771.046 1.131.139.364.092.685.235.966.43.283.193.506.443.67.747.162.302.244.664.244 1.086v4.284a.5.5 0 0 1-.5.5h-.866a.5.5 0 0 1-.5-.5v-.483h-.055a2 2 0 0 1-.457.586c-.191.166-.42.297-.688.393a2.846 2.846 0 0 1-.929.138Zm.564-1.358c.29 0 .545-.057.766-.17a1.35 1.35 0 0 0 .522-.472c.126-.197.19-.42.19-.67v-.752c-.062.04-.147.077-.255.11-.104.032-.223.06-.355.089-.132.024-.265.047-.397.069l-.36.05a2.472 2.472 0 0 0-.605.162.967.967 0 0 0-.402.3.731.731 0 0 0-.143.462c0 .268.097.473.29.615.198.138.447.207.749.207Z" />
  <path fill="#000" fill-rule="evenodd"
    d="M5.473 1.339a.5.5 0 0 0-.95.01L1.246 11.652A.5.5 0 0 1 .77 12H.5a.5.5 0 0 0 0 1H3a.5.5 0 0 0 0-1h-.474a.25.25 0 0 1-.239-.325l.422-1.326A.5.5 0 0 1 3.186 10H6.05a.5.5 0 0 1 .475.346l.43 1.327A.25.25 0 0 1 6.72 12H6.5a.5.5 0 0 0 0 1h3a.5.5 0 0 0 0-1h-.034a.5.5 0 0 1-.474-.338L5.473 1.339ZM5.85 9a.175.175 0 0 0 .166-.229L4.77 4.922a.175.175 0 0 0-.333.001L3.21 8.773A.175.175 0 0 0 3.378 9H5.85Z"
    clip-rule="evenodd" />
</svg>