<svg xmlns="http://www.w3.org/2000/svg" viewBox="0 0 16 16" fill="none">
  <path fill="#000" fill-rule="evenodd"
    d="M1 5.8c0-1.68 0-2.52.327-3.162a3 3 0 0 1 1.311-1.31C3.28 1 4.12 1 5.8 1h4.4c1.68 0 2.52 0 3.162.327a3 3 0 0 1 1.311 1.311C15 3.28 15 4.12 15 5.8v1.712c0 .734 0 1.1-.083 1.446a3 3 0 0 1-.36.867c-.185.303-.444.562-.963 1.081l-2.688 2.688c-.519.52-.778.779-1.081.964a3 3 0 0 1-.867.36C8.612 15 8.246 15 7.512 15H5.8c-1.68 0-2.52 0-3.162-.327a3 3 0 0 1-1.311-1.31C1 12.72 1 11.88 1 10.2V5.8ZM5.8 2h4.4c.857 0 1.439.001 1.889.038.438.036.663.1.819.18a2 2 0 0 1 .874.874c.08.157.145.38.18.82C14 4.361 14 4.943 14 5.8v1.712c0 .194 0 .354-.002.488H9.5A1.5 1.5 0 0 0 8 9.5V14a52.17 52.17 0 0 1-.488.001H5.8c-.857 0-1.439 0-1.889-.037-.438-.036-.663-.101-.819-.18a2 2 0 0 1-.874-.875c-.08-.156-.145-.38-.18-.819C2 11.64 2 11.057 2 10.2V5.8c0-.856 0-1.439.038-1.889.035-.438.1-.662.18-.819a2 2 0 0 1 .874-.874c.156-.08.38-.144.819-.18C4.361 2 4.943 2 5.8 2ZM9 13.857a1.98 1.98 0 0 0 .302-.151c.179-.11.344-.266.897-.819l2.688-2.688c.553-.552.709-.718.818-.896.06-.097.11-.198.152-.303H9.5a.5.5 0 0 0-.5.5v4.357Z"
    clip-rule="evenodd" />
</svg>