<svg xmlns="http://www.w3.org/2000/svg" viewBox="0 0 16 16" fill="none">
  <path fill="#000" fill-rule="evenodd" d="M5 3a2 2 0 1 0 0 4 2 2 0 0 0 0-4ZM4 5a1 1 0 1 1 2 0 1 1 0 0 1-2 0Z"
    clip-rule="evenodd" />
  <path fill="#000" fill-rule="evenodd"
    d="M3.5 1A2.5 2.5 0 0 0 1 3.5v9A2.5 2.5 0 0 0 3.5 15h9a2.5 2.5 0 0 0 2.5-2.5v-9A2.5 2.5 0 0 0 12.5 1h-9ZM14 3.5v6.793l-3.146-3.146a.5.5 0 0 0-.708 0l-6.84 6.84A1.5 1.5 0 0 1 2 12.5v-9A1.5 1.5 0 0 1 3.5 2h9A1.5 1.5 0 0 1 14 3.5ZM12.5 14H4.707L10.5 8.207l3.5 3.5v.793a1.5 1.5 0 0 1-1.5 1.5Z"
    clip-rule="evenodd" />
</svg>