<svg xmlns="http://www.w3.org/2000/svg" viewBox="0 0 16 16" fill="none">
  <path fill="#000" fill-rule="evenodd"
    d="M4 1a2 2 0 0 0-1.739 1.012A2.5 2.5 0 0 0 0 4.5V11a3 3 0 0 0 3 3h10a3 3 0 0 0 3-3V4.5a2.5 2.5 0 0 0-2.261-2.488A2 2 0 0 0 12 1h-1a2 2 0 0 0-1.732 1H6.732A2 2 0 0 0 5 1H4Zm0 1a1 1 0 1 0 0 2h1a1 1 0 0 0 0-2H4Zm5 1H7v2.5a.5.5 0 0 1-1 0v-.767A1.99 1.99 0 0 1 5 5H4a1.99 1.99 0 0 1-1-.267V5.5a.5.5 0 0 1-1 0V3.086A1.5 1.5 0 0 0 1 4.5v2A1.5 1.5 0 0 0 2.5 8h11A1.5 1.5 0 0 0 15 6.5v-2a1.5 1.5 0 0 0-1-1.414V5.5a.5.5 0 0 1-1 0v-.767A1.99 1.99 0 0 1 12 5h-1a1.99 1.99 0 0 1-1-.267V5.5a.5.5 0 0 1-1 0V3Zm1 0a1 1 0 0 0 1 1h1a1 1 0 1 0 0-2h-1a1 1 0 0 0-1 1Zm5 5.5c-.418.314-.937.5-1.5.5h-11A2.489 2.489 0 0 1 1 8.5V11a2 2 0 0 0 2 2h10a2 2 0 0 0 2-2V8.5Z"
    clip-rule="evenodd" />
</svg>