<svg xmlns="http://www.w3.org/2000/svg" viewBox="0 0 16 16" fill="none">
  <path fill="#000" fill-rule="evenodd"
    d="M1 2a1 1 0 1 1 2 0H1Zm2 12V3H.5a.5.5 0 0 1-.5-.5V2a2 2 0 0 1 2-2h8.5A2.5 2.5 0 0 1 13 2.5V13h2.5a.5.5 0 0 1 .5.5 2.5 2.5 0 0 1-2.5 2.5H5a2 2 0 0 1-2-2Zm9-1V2.5A1.5 1.5 0 0 0 10.5 1H3.732c.17.294.268.636.268 1v12a1 1 0 1 0 2 0v-.5a.5.5 0 0 1 .5-.5H12Zm-5 1c0 .365-.097.706-.268 1H13.5a1.5 1.5 0 0 0 1.415-1H7ZM6.5 4a.5.5 0 1 0 0 1h3a.5.5 0 0 0 0-1h-3ZM6 6.5a.5.5 0 0 1 .5-.5h3a.5.5 0 1 1 0 1h-3a.5.5 0 0 1-.5-.5ZM6.5 8a.5.5 0 1 0 0 1h2a.5.5 0 0 0 0-1h-2Z"
    clip-rule="evenodd" />
</svg>