<svg viewBox="0 0 16 16" xmlns="http://www.w3.org/2000/svg"><path d="m4 11c1.1 0 2-0.895 2-2 0-1.1-0.895-2-2-2s-2 0.895-2 2c0 1.1 0.895 2 2 2zm-1-2.5c0-0.276 0.224-0.5 0.5-0.5h1c0.276 0 0.5 0.224 0.5 0.5s-0.224 0.5-0.5 0.5v0.5c0 0.276-0.224 0.5-0.5 0.5s-0.5-0.224-0.5-0.5v-0.5c-0.276 0-0.5-0.224-0.5-0.5z" clip-rule="evenodd" fill="#000" fill-rule="evenodd"/><path d="m11 9c0 1.1-0.895 2-2 2-1.1 0-2-0.895-2-2 0-1.1 0.895-2 2-2 1.1 0 2 0.895 2 2zm-2.5-1c-0.276 0-0.5 0.224-0.5 0.5s0.224 0.5 0.5 0.5v0.5c0 0.276 0.224 0.5 0.5 0.5s0.5-0.224 0.5-0.5v-0.5c0.276 0 0.5-0.224 0.5-0.5s-0.224-0.5-0.5-0.5h-1z" clip-rule="evenodd" fill="#000" fill-rule="evenodd"/><path d="m13 10.5c0-0.276 0.224-0.5 0.5-0.5s0.5 0.224 0.5 0.5-0.224 0.5-0.5 0.5-0.5-0.224-0.5-0.5z" fill="#000"/><path d="m13 9c0.552 0 1-0.448 1-1 0-0.552-0.448-1-1-1s-1 0.448-1 1c0 0.552 0.448 1 1 1z" fill="#000"/><path d="m16 6.85c-0.0282-0.316-0.0826-0.553-0.188-0.759-0.018-0.0354-0.037-0.0701-0.057-0.104-0.0494-0.107-0.105-0.212-0.167-0.313-0.186-0.303-0.445-0.562-0.964-1.08l-0.188-0.188c-0.519-0.519-0.778-0.778-1.08-0.964-0.268-0.164-0.561-0.286-0.867-0.359-0.345-0.0829-0.712-0.0829-1.45-0.0829h-6.02c-0.734 0-1.1 0-1.45 0.0829-0.306 0.0735-0.599 0.195-0.867 0.359-0.303 0.186-0.562 0.445-1.08 0.964l-0.188 0.188c-0.519 0.519-0.778 0.778-0.964 1.08-0.0619 0.101-0.118 0.205-0.167 0.313-0.02 0.0341-0.039 0.0688-0.057 0.104-0.105 0.206-0.16 0.443-0.188 0.759-0.0303 0.276-0.0303 0.613-0.0303 1.14v1.81c0 1.12 0 1.68 0.218 2.11 0.192 0.376 0.498 0.682 0.874 0.874 0.428 0.218 0.988 0.218 2.11 0.218h9.6c1.12 0 1.68 0 2.11-0.218 0.376-0.192 0.682-0.498 0.874-0.874 0.204-0.401 0.217-0.918 0.218-1.9l1e-4 -2.02c0-0.525 0-0.862-0.0303-1.14zm-0.97 1.35c0-0.577-8e-4 -0.949-0.0239-1.23l-0.0028-0.0325c-0.0074-0.0596-0.0167-0.11-0.0286-0.16-0.0264-0.11-0.062-0.217-0.106-0.321-0.0953-0.146-0.228-0.266-0.384-0.346-0.0495-0.0252-0.15-0.0629-0.422-0.0851-0.283-0.0232-0.656-0.0239-1.23-0.0239h-9.6c-0.577 0-0.949 7.8e-4 -1.23 0.0239-0.272 0.0222-0.372 0.0599-0.422 0.0851-0.157 0.0798-0.289 0.199-0.384 0.346-0.0444 0.104-0.0801 0.211-0.106 0.321-0.0118 0.0493-0.0212 0.1-0.0285 0.16l-0.00279 0.0324c-0.0232 0.283-0.0239 0.656-0.0239 1.23v1.6c0 0.504 6e-4 0.853 0.0162 1.12 0.00224 0.0384 0.00478 0.0752 0.00768 0.111 0.0222 0.272 0.0599 0.372 0.0851 0.422 0.0959 0.188 0.249 0.341 0.437 0.437 0.0494 0.0252 0.15 0.0629 0.422 0.0851 0.283 0.0231 0.656 0.0239 1.23 0.0239h9.6c0.577 0 0.949-8e-4 1.23-0.0239 0.272-0.0222 0.372-0.0599 0.422-0.0851 0.188-0.0959 0.341-0.249 0.437-0.437 0.0252-0.0495 0.0629-0.15 0.0851-0.422 0.0217-0.266 0.0237-0.61 0.0239-1.13v-1.71zm-12.6-3.2c0.228-0.00423 0.489-0.00423 0.79-0.00423h9.6c0.301 0 0.562 0 0.79 0.00423-0.466-0.465-0.622-0.608-0.788-0.71-0.179-0.11-0.374-0.19-0.578-0.239-0.203-0.0488-0.431-0.0553-1.21-0.0553h-6.02c-0.781 0-1.01 0.00643-1.21 0.0553-0.204 0.049-0.399 0.13-0.578 0.239-0.166 0.102-0.321 0.244-0.788 0.71z" clip-rule="evenodd" fill="#000" fill-rule="evenodd"/></svg>
