<svg viewBox="0 0 16 16" xmlns="http://www.w3.org/2000/svg"><path d="m14 1h-12c-0.552 0-1 0.448-1 1v7c0 0.552 0.448 1 1 1h5v4h-2.5c-0.276 0-0.5-0.224-0.5-0.5s0.224-0.5 0.5-0.5h1.5v-2h-4c-1.1 0-2-0.895-2-2v-7c0-1.1 0.895-2 2-2h12c1.1 0 2 0.895 2 2h-1c0-0.552-0.448-1-1-1z" fill="#000"/><path d="m11.5 6c-0.276 0-0.5 0.224-0.5 0.5s0.224 0.5 0.5 0.5h2c0.276 0 0.5-0.224 0.5-0.5s-0.224-0.5-0.5-0.5h-2z" fill="#000"/><path d="m11.5 8c-0.276 0-0.5 0.224-0.5 0.5s0.224 0.5 0.5 0.5h2c0.276 0 0.5-0.224 0.5-0.5s-0.224-0.5-0.5-0.5h-2z" fill="#000"/><path d="m13.5 14c0.276 0 0.5-0.224 0.5-0.5s-0.224-0.5-0.5-0.5-0.5 0.224-0.5 0.5 0.224 0.5 0.5 0.5z" fill="#000"/><path d="m9 6.4c0-0.84 0-1.26 0.163-1.58 0.144-0.282 0.373-0.512 0.656-0.656 0.321-0.163 0.741-0.163 1.58-0.163h2.2c0.84 0 1.26 0 1.58 0.163 0.282 0.144 0.512 0.373 0.656 0.656 0.164 0.321 0.164 0.741 0.164 1.58v7.2c0 0.84 0 1.26-0.164 1.58-0.144 0.282-0.373 0.512-0.656 0.656-0.321 0.164-0.741 0.164-1.58 0.164h-2.2c-0.84 0-1.26 0-1.58-0.164-0.282-0.144-0.512-0.373-0.656-0.656-0.163-0.321-0.163-0.741-0.163-1.58v-7.2zm2.4-1.4h2.2c0.436 0 0.704 7.8e-4 0.904 0.0171 0.0931 0.00761 0.15 0.0172 0.184 0.0252 0.0163 0.00383 0.0263 0.00704 0.0317 0.00898 0.0052 0.00185 0.0078 0.00317 0.0078 0.00317 0.0941 0.0479 0.171 0.124 0.218 0.218l0.0011 0.00235 0.0021 0.00544c0.0019 0.00541 0.0051 0.0154 9e-3 0.0317 8e-3 0.0342 0.0176 0.0906 0.0252 0.184 0.0163 0.2 0.0171 0.467 0.0171 0.904v7.2c0 0.436-8e-4 0.704-0.0171 0.904-0.0076 0.0931-0.0172 0.15-0.0252 0.184-0.0039 0.0163-0.0071 0.0263-9e-3 0.0317l-0.0017 0.0045-0.0015 0.0033c-0.0479 0.0941-0.124 0.171-0.218 0.218l-0.0033 0.0015-0.0045 0.0017c-0.0054 0.0019-0.0154 0.0051-0.0317 9e-3 -0.0342 8e-3 -0.0906 0.0176-0.184 0.0252-0.2 0.0163-0.467 0.0171-0.904 0.0171h-2.2c-0.436 0-0.704-8e-4 -0.904-0.0171-0.0931-0.0076-0.15-0.0172-0.184-0.0252-0.0163-0.0039-0.0263-0.0071-0.0317-9e-3l-0.0047-0.0018-0.0031-0.0014c-0.0941-0.0479-0.171-0.124-0.218-0.218 0 0-0.0013-0.0026-0.0032-0.0078-0.0019-0.0054-0.0051-0.0154-9e-3 -0.0317-8e-3 -0.0342-0.0176-0.0906-0.0252-0.184-0.0163-0.2-0.0171-0.467-0.0171-0.904v-7.2c0-0.437 8e-4 -0.704 0.0171-0.904 0.0076-0.0932 0.0172-0.15 0.0252-0.184 0.0039-0.0163 0.0071-0.0263 9e-3 -0.0317l0.0019-0.00499 0.0013-0.0028c0.0479-0.0941 0.124-0.171 0.218-0.218 0 0 0.0026-0.00132 0.0078-0.00317 0.0054-0.00194 0.0154-0.00515 0.0317-0.00898 0.0342-0.00806 0.0906-0.0176 0.184-0.0252 0.2-0.0163 0.467-0.0171 0.904-0.0171z" clip-rule="evenodd" fill="#000" fill-rule="evenodd"/></svg>
