<svg fill="none" viewBox="0 0 16 16" xmlns="http://www.w3.org/2000/svg"><path d="m12.5 0c0.133 0 0.26 0.0527 0.354 0.146 0.0937 0.0938 0.146 0.221 0.146 0.354v2.26c0.084 0.074 0.162 0.152 0.236 0.235h2.26c0.117-4e-5 0.23 0.041 0.32 0.116s0.151 0.179 0.172 0.294l8e-3 0.09c0 0.133-0.0527 0.26-0.146 0.354-0.0938 0.0938-0.221 0.146-0.354 0.146h-1.67c0.11 0.313 0.17 0.65 0.17 1v1h1.5c0.133 0 0.26 0.0527 0.354 0.146 0.0937 0.0938 0.146 0.221 0.146 0.354s-0.0527 0.26-0.146 0.354c-0.0938 0.0938-0.221 0.146-0.354 0.146h-1.5v2h1.5c0.133 0 0.26 0.0527 0.354 0.146 0.0937 0.0938 0.146 0.221 0.146 0.354s-0.0527 0.26-0.146 0.354c-0.0938 0.0938-0.221 0.146-0.354 0.146h-1.5v1c0 0.351-0.06 0.688-0.171 1h1.67c0.133 0 0.26 0.0527 0.354 0.146 0.0937 0.0938 0.146 0.221 0.146 0.354s-0.0527 0.26-0.146 0.354c-0.0938 0.0937-0.221 0.146-0.354 0.146h-2.26c-0.073 0.083-0.152 0.162-0.234 0.235l-1e-3 2.26c0 0.133-0.0527 0.26-0.146 0.354-0.0938 0.0937-0.221 0.146-0.354 0.146s-0.26-0.0527-0.354-0.146c-0.0937-0.0938-0.146-0.221-0.146-0.354v-1.67c-0.312 0.11-0.649 0.171-1 0.171h-1v1.5c0 0.133-0.0527 0.26-0.146 0.354-0.0938 0.0937-0.221 0.146-0.354 0.146s-0.26-0.0527-0.354-0.146c-0.0938-0.0938-0.146-0.221-0.146-0.354v-1.5h-2v1.5c0 0.133-0.0527 0.26-0.146 0.354-0.0938 0.0937-0.221 0.146-0.354 0.146s-0.26-0.0527-0.354-0.146c-0.0938-0.0938-0.146-0.221-0.146-0.354v-1.5h-1c-0.35 0-0.687-0.06-1-0.17v1.67c0 0.133-0.0527 0.26-0.146 0.354-0.0938 0.0937-0.221 0.146-0.354 0.146s-0.26-0.0527-0.354-0.146c-0.0938-0.0938-0.146-0.221-0.146-0.354v-2.26c-0.0826-0.074-0.161-0.152-0.235-0.235l-2.26-1e-3c-0.133 0-0.26-0.0527-0.354-0.146-0.0938-0.0938-0.146-0.221-0.146-0.354s0.0527-0.26 0.146-0.354c0.0938-0.0937 0.221-0.146 0.354-0.146h1.67c-0.113-0.321-0.171-0.659-0.171-1v-1h-1.5c-0.133 0-0.26-0.0527-0.354-0.146-0.0938-0.0938-0.146-0.221-0.146-0.354s0.0527-0.26 0.146-0.354c0.0938-0.0938 0.221-0.146 0.354-0.146h1.5v-2h-1.5c-0.133 0-0.26-0.0527-0.354-0.146-0.0938-0.0938-0.146-0.221-0.146-0.354s0.0527-0.26 0.146-0.354c0.0938-0.0938 0.221-0.146 0.354-0.146h1.5v-1c0-0.35 0.06-0.687 0.17-1h-1.67c-0.133 0-0.26-0.0527-0.354-0.146-0.0938-0.0938-0.146-0.221-0.146-0.354s0.0527-0.26 0.146-0.354c0.0938-0.0938 0.221-0.146 0.354-0.146h2.26c0.074-0.083 0.153-0.162 0.236-0.236v-2.26c0-0.133 0.0527-0.26 0.146-0.354 0.0938-0.0938 0.221-0.146 0.354-0.146s0.26 0.0527 0.354 0.146c0.0938 0.0938 0.146 0.221 0.146 0.354v1.67c0.313-0.11 0.65-0.17 1-0.17h1v-1.5c0-0.133 0.0527-0.26 0.146-0.354 0.0938-0.0938 0.221-0.146 0.354-0.146s0.26 0.0527 0.354 0.146c0.0938 0.0938 0.146 0.221 0.146 0.354v1.5h2v-1.5c0-0.133 0.0527-0.26 0.146-0.354 0.0938-0.0938 0.221-0.146 0.354-0.146s0.26 0.0527 0.354 0.146c0.0938 0.0938 0.146 0.221 0.146 0.354v1.5h1c0.351 0 0.688 0.06 1 0.171v-1.67c0-0.133 0.0527-0.26 0.146-0.354 0.0938-0.0938 0.221-0.146 0.354-0.146zm-1.5 3h-6c-0.53 0-1.04 0.211-1.41 0.586-0.375 0.375-0.586 0.884-0.586 1.41v6c0 0.53 0.211 1.04 0.586 1.41 0.375 0.375 0.884 0.586 1.41 0.586h6c0.53 0 1.04-0.211 1.41-0.586s0.586-0.884 0.586-1.41v-6c0-0.53-0.211-1.04-0.586-1.41-0.375-0.375-0.884-0.586-1.41-0.586zm0 1c0.265 0 0.52 0.105 0.707 0.293 0.188 0.188 0.293 0.442 0.293 0.707v6c0 0.265-0.105 0.52-0.293 0.707s-0.442 0.293-0.707 0.293h-6c-0.265 0-0.52-0.105-0.707-0.293-0.188-0.188-0.293-0.442-0.293-0.707v-6c0-0.265 0.105-0.52 0.293-0.707 0.188-0.188 0.442-0.293 0.707-0.293h6zm0 1h-6v6h6v-6z" fill="#000"/></svg>
