<svg viewBox="0 0 16 16" xmlns="http://www.w3.org/2000/svg"><path d="m9 8c0 0.552-0.448 1-1 1s-1-0.448-1-1 0.448-1 1-1 1 0.448 1 1z" fill="#000"/><path d="m12.8 10.7c0.24 0.137 0.547 0.0546 0.664-0.196 0.359-0.77 0.56-1.63 0.56-2.53 0-0.906-0.201-1.76-0.56-2.53-0.117-0.25-0.424-0.332-0.664-0.195l-1.74 0.993c-0.24 0.137-0.319 0.442-0.223 0.701 0.119 0.323 0.184 0.672 0.184 1.04 0 0.364-0.0648 0.713-0.184 1.04-0.0954 0.259-0.0166 0.564 0.223 0.701l1.74 0.993z" fill="#000"/><path d="m2 8c0 0.906 0.201 1.76 0.56 2.53 0.117 0.25 0.424 0.332 0.664 0.196l1.74-0.993c0.24-0.137 0.319-0.442 0.223-0.701-0.119-0.323-0.184-0.672-0.184-1.04s0.0648-0.713 0.184-1.04c0.0954-0.259 0.0167-0.564-0.223-0.701l-1.74-0.993c-0.24-0.137-0.547-0.0546-0.664 0.196-0.359 0.77-0.56 1.63-0.56 2.53z" fill="#000"/><path d="m16 8c0 4.42-3.58 8-8 8-4.42 0-8-3.58-8-8 0-4.42 3.58-8 8-8 4.42 0 8 3.58 8 8zm-1 0c0 3.87-3.13 7-7 7-3.87 0-7-3.13-7-7 0-3.87 3.13-7 7-7 3.87 0 7 3.13 7 7z" clip-rule="evenodd" fill="#000" fill-rule="evenodd"/></svg>
