<svg fill="none" viewBox="0 0 16 16" xmlns="http://www.w3.org/2000/svg"><path d="m12.6 1.01c0.723 0.0142 1.18 0.062 1.57 0.222 0.735 0.304 1.32 0.889 1.62 1.62 0.228 0.551 0.228 1.25 0.228 2.65s0 2.1-0.228 2.65c-0.304 0.735-0.888 1.32-1.62 1.62-0.307 0.127-0.659 0.183-1.15 0.208 4e-3 0.136 4e-3 0.302 4e-3 0.52 0 0.465 0 0.697-0.0384 0.89-0.158 0.793-0.778 1.41-1.57 1.57-0.107 0.0213-0.226 0.0308-0.39 0.035v0.0034c0 0.465 0 0.698-0.0511 0.888-0.139 0.518-0.543 0.922-1.06 1.06-0.191 0.0511-0.423 0.0511-0.888 0.0511h-2c-0.465 0-0.697 0-0.888-0.0511-0.518-0.139-0.922-0.543-1.06-1.06-0.0511-0.191-0.0511-0.423-0.0511-0.888v-0.0034c-0.164-0.0042-0.283-0.0137-0.39-0.035-0.793-0.158-1.41-0.778-1.57-1.57-0.0384-0.193-0.0384-0.426-0.0384-0.89 0-0.218 0-0.384 0.00395-0.52-0.493-0.025-0.845-0.0814-1.15-0.208-0.735-0.304-1.32-0.889-1.62-1.62-0.228-0.551-0.228-1.25-0.228-2.65s0-2.1 0.228-2.65c0.304-0.735 0.889-1.32 1.62-1.62 0.387-0.16 0.847-0.208 1.57-0.222 0.0254-0.00398 0.0514-0.00604 0.078-0.00604 0.0208 0 0.0413 0.00127 0.0614 0.00374 0.274-0.00374 0.584-0.00374 0.939-0.00374h7c0.355 0 0.665 0 0.939 0.00374 0.0201-0.00247 0.0406-0.00374 0.0614-0.00374 0.0265 0 0.0526 0.00206 0.078 0.00604zm-8.57 9c0.0158-0.544-0.406-1-0.949-1.03-0.452-0.0229-0.67-0.0715-0.82-0.134-0.49-0.203-0.879-0.592-1.08-1.08-0.0553-0.134-0.101-0.325-0.126-0.692-0.0257-0.376-0.0262-0.861-0.0262-1.57s5.4e-4 -1.2 0.0262-1.57c0.0251-0.367 0.0707-0.558 0.126-0.692 0.203-0.49 0.592-0.879 1.08-1.08 0.134-0.0553 0.325-0.101 0.692-0.126 0.024-0.00164 0.0485-0.00318 0.0734-0.00462v2.48c0 0.276 0.224 0.5 0.5 0.5s0.5-0.224 0.5-0.5v-2.5c0.153-4.8e-4 0.319-5.1e-4 0.5-5.1e-4h1.5v2.5c0 0.276 0.224 0.5 0.5 0.5s0.5-0.224 0.5-0.5v-2.5h2v2.5c0 0.276 0.224 0.5 0.5 0.5s0.5-0.224 0.5-0.5v-2.5h1.5c0.181 0 0.347 3e-5 0.5 5.1e-4v2.5c0 0.276 0.224 0.5 0.5 0.5s0.5-0.224 0.5-0.5v-2.48c0.0249 0.00144 0.0494 0.00298 0.0734 0.00462 0.368 0.0251 0.558 0.0707 0.692 0.126 0.49 0.203 0.879 0.592 1.08 1.08 0.0553 0.134 0.101 0.325 0.126 0.692 0.0257 0.376 0.0262 0.861 0.0262 1.57s-5e-4 1.2-0.0262 1.57c-0.0251 0.367-0.0707 0.558-0.126 0.692-0.203 0.49-0.592 0.879-1.08 1.08-0.15 0.0621-0.368 0.111-0.82 0.134-0.543 0.0276-0.965 0.484-0.949 1.03 0.0034 0.118 0.0035 0.268 0.0035 0.491 0 0.513-0.0048 0.623-0.0192 0.695-0.0789 0.397-0.389 0.707-0.786 0.786-0.0243 0.0048-0.0774 0.0124-0.221 0.0161-0.542 0.014-0.974 0.458-0.974 1v0.0034c0 0.242-2.4e-4 0.389-0.00535 0.501-0.00456 0.1-0.0117 0.128-0.0118 0.128-7e-5 2e-4 -1e-5 0 0 0-0.0462 0.172-0.181 0.307-0.353 0.353-0.00351 8e-4 -0.0342 0.0074-0.128 0.0116-0.112 0.0052-0.26 0.0054-0.501 0.0054h-2c-0.242 0-0.389-2e-4 -0.501-0.0054-0.107-0.0048-0.132-0.0126-0.128-0.0116-0.173-0.0463-0.307-0.181-0.354-0.354 1e-3 0.0037-0.00683-0.0214-0.0117-0.128-0.00511-0.112-0.00535-0.26-0.00535-0.501v-0.0034c0-0.542-0.432-0.986-0.974-1-0.144-0.0037-0.197-0.0113-0.221-0.0161-0.397-0.0789-0.707-0.389-0.786-0.786-0.0144-0.0723-0.0192-0.182-0.0192-0.695 0-0.223 1e-4 -0.373 0.00353-0.491z" clip-rule="evenodd" fill="#000" fill-rule="evenodd"/></svg>
