<svg viewBox="0 0 16 16" xmlns="http://www.w3.org/2000/svg"><path d="m4.85 4.15c-0.0938-0.0938-0.221-0.146-0.354-0.146s-0.261 0.0527-0.355 0.146c-0.0938 0.0938-0.146 0.221-0.146 0.354v1.5h-1.5c-0.133 0-0.26 0.0527-0.354 0.146-0.0938 0.0938-0.146 0.221-0.146 0.354 0 0.133 0.0527 0.26 0.146 0.354 0.0938 0.0938 0.221 0.146 0.354 0.146h1.5v1.5c0 0.133 0.0527 0.26 0.146 0.354 0.0938 0.0938 0.221 0.146 0.354 0.146s0.26-0.0527 0.354-0.146c0.0938-0.0938 0.146-0.221 0.146-0.354v-1.5h1.5c0.133 0 0.26-0.0527 0.354-0.146 0.0938-0.0938 0.146-0.221 0.146-0.354 0-0.133-0.0527-0.26-0.146-0.354-0.0938-0.0938-0.221-0.146-0.354-0.146h-1.5l1e-3 -1.5c0-0.133-0.0527-0.26-0.146-0.354z" fill="#000"/><path d="m11 7c0.552 0 1-0.448 1-1 0-0.552-0.448-1-1-1s-1 0.448-1 1c0 0.552 0.448 1 1 1z" fill="#000"/><path d="m13 9c0.552 0 1-0.448 1-1 0-0.552-0.448-1-1-1s-1 0.448-1 1c0 0.552 0.448 1 1 1z" fill="#000"/><path d="m11.5 2.03c-0.776 0.0644-1.5 0.409-2.04 0.97h-3l-0.152-0.148c-0.522-0.476-1.19-0.766-1.89-0.822-0.56-0.0644-1.13-0.00968-1.67 0.161-0.538 0.17-1.03 0.452-1.45 0.828-0.421 0.375-0.758 0.835-0.988 1.35s-0.35 1.07-0.35 1.64v5.82l7e-3 0.193c0.0442 0.545 0.295 1.05 0.701 1.42 0.406 0.367 0.936 0.566 1.48 0.555 0.38 0.0021 0.753-0.0991 1.08-0.293 0.327-0.194 0.595-0.473 0.776-0.807l0.953-1.9 0.208-6e-3c0.874-0.049 1.4-0.416 1.79-0.994h2l0.091 0.131c0.407 0.55 0.98 0.869 1.91 0.869l0.954 1.9 0.084 0.142c0.191 0.295 0.454 0.538 0.764 0.705 0.31 0.167 0.656 0.254 1.01 0.253 0.288 0.0052 0.573-0.0473 0.84-0.154 0.267-0.107 0.51-0.267 0.714-0.469s0.366-0.444 0.475-0.71c0.109-0.266 0.164-0.551 0.161-0.839v-5.82l-4e-3 -0.199c-0.0272-0.546-0.166-1.08-0.408-1.57s-0.582-0.926-1-1.28c-0.417-0.354-0.903-0.618-1.43-0.777-0.524-0.159-1.07-0.208-1.62-0.146zm0.112 0.994c0.114-0.013 0.229-0.02 0.344-0.02 0.795 0.00105 1.56 0.317 2.12 0.88 0.562 0.562 0.879 1.32 0.88 2.12v5.82l-6e-3 0.134c-0.0304 0.29-0.169 0.558-0.389 0.75-0.22 0.192-0.504 0.294-0.795 0.285-0.415 3e-3 -0.796-0.225-0.988-0.592l-1.17-2.05c-0.132-0.233-0.386-0.369-0.654-0.351l-0.148-3e-3c-0.435-0.019-0.801-0.131-1.06-0.511-0.181-0.301-0.506-0.486-0.857-0.486h-2c-0.336 0-0.65 0.169-0.835 0.45l-0.088 0.12c-0.269 0.336-0.56 0.43-1.01 0.43-0.267-0.0183-0.52 0.118-0.652 0.35l-1.17 2.06-0.071 0.117c-0.207 0.298-0.548 0.478-0.917 0.475-0.156 0.0044-0.311-0.0227-0.456-0.0797s-0.277-0.143-0.388-0.252c-0.111-0.109-0.199-0.24-0.258-0.384-0.0594-0.144-0.089-0.299-0.087-0.455v-5.82l5e-3 -0.176c0.0239-0.408 0.131-0.806 0.314-1.17 0.183-0.365 0.439-0.689 0.752-0.951 0.313-0.263 0.676-0.458 1.07-0.576 0.391-0.117 0.802-0.153 1.21-0.106 0.534 0.0348 1.04 0.265 1.41 0.646 0.191 0.21 0.462 0.33 0.746 0.33h3c0.279 0 0.545-0.116 0.734-0.321l0.13-0.122c0.361-0.311 0.813-0.498 1.29-0.533z" clip-rule="evenodd" fill="#000" fill-rule="evenodd"/></svg>
