<svg viewBox="0 0 16 16" xmlns="http://www.w3.org/2000/svg"><path d="m10.5 11c1.93 0 3.5-1.57 3.5-3.5s-1.57-3.5-3.5-3.5-3.5 1.57-3.5 3.5 1.57 3.5 3.5 3.5zm0-1c1.38 0 2.5-1.12 2.5-2.5s-1.12-2.5-2.5-2.5c-1.38 0-2.5 1.12-2.5 2.5s1.12 2.5 2.5 2.5z" clip-rule="evenodd" fill="#000" fill-rule="evenodd"/><path d="m3.5 5c0.276 0 0.5 0.224 0.5 0.5v4c0 0.276-0.224 0.5-0.5 0.5s-0.5-0.224-0.5-0.5v-4c0-0.276 0.224-0.5 0.5-0.5z" fill="#000"/><path d="m6 5.5c0-0.276-0.224-0.5-0.5-0.5s-0.5 0.224-0.5 0.5v4c0 0.276 0.224 0.5 0.5 0.5s0.5-0.224 0.5-0.5v-4z" fill="#000"/><path d="m0.5 1c-0.276 0-0.5 0.224-0.5 0.5s0.224 0.5 0.5 0.5h0.5v1h-0.5c-0.276 0-0.5 0.224-0.5 0.5v2c0 0.276 0.224 0.5 0.5 0.5h0.5v2h-0.5c-0.276 0-0.5 0.224-0.5 0.5v3c0 0.276 0.224 0.5 0.5 0.5h0.5v1.5c0 0.276 0.224 0.5 0.5 0.5s0.5-0.224 0.5-0.5v-0.51c0.157 0.0096 0.351 0.0096 0.6 0.0096h0.4v1.5c0 0.276 0.224 0.5 0.5 0.5h2c0.276 0 0.5-0.224 0.5-0.5v-1.5h2v1.5c0 0.276 0.224 0.5 0.5 0.5h5c0.276 0 0.5-0.224 0.5-0.5v-1.5h0.4c0.56 0 0.84 0 1.05-0.109 0.188-0.0959 0.341-0.249 0.437-0.437 0.109-0.214 0.109-0.494 0.109-1.05v-4.6c0-1.68 0-2.52-0.327-3.16-0.288-0.564-0.746-1.02-1.31-1.31-0.642-0.327-1.48-0.327-3.16-0.327h-8.6c-0.249 0-0.443 0-0.6 0.00959v-0.51c0-0.276-0.224-0.5-0.5-0.5h-1zm12.5 12h-4v1h4v-1zm1.4-1c0.296 0 0.459-8e-4 0.575-0.0103l0.0132-0.0011 0.0011-0.0132c0.0095-0.117 0.0103-0.279 0.0103-0.575v-4.6c0-0.857-8e-4 -1.44-0.0376-1.89-0.0358-0.438-0.101-0.663-0.18-0.819-0.192-0.376-0.498-0.682-0.874-0.874-0.156-0.0797-0.381-0.145-0.819-0.18-0.45-0.0368-1.03-0.0376-1.89-0.0376h-8.6c-0.297 0-0.459 7.8e-4 -0.575 0.0103l-0.0132 0.00115-0.00115 0.0132c-0.00952 0.117-0.0103 0.279-0.0103 0.575v7.8c0 0.296 7.8e-4 0.459 0.0103 0.575l0.00115 0.0132 0.0132 0.0011c0.117 0.0095 0.279 0.0103 0.575 0.0103h11.8zm-9.4 2h-1v-1h1v1z" clip-rule="evenodd" fill="#000" fill-rule="evenodd"/></svg>
