<svg fill="none" viewBox="0 0 16 16" xmlns="http://www.w3.org/2000/svg"><path d="m11.5 1c0.533 2e-5 1.05 0.17 1.48 0.486 0.429 0.316 0.746 0.76 0.905 1.27l1.76 6.14c0.089 0.285 0.16 0.574 0.212 0.866 0.07 0.234 0.109 0.481 0.109 0.738v1c0 0.663-0.263 1.3-0.732 1.77-0.469 0.469-1.1 0.732-1.77 0.732h-11c-0.663 0-1.3-0.263-1.77-0.732-0.469-0.469-0.732-1.1-0.732-1.77v-1c-4.57e-4 -0.25 0.0366-0.499 0.11-0.738 0.052-0.292 0.122-0.581 0.211-0.866l1.76-6.14c0.159-0.508 0.476-0.953 0.905-1.27 0.429-0.316 0.948-0.486 1.48-0.486h7.06zm1.97 8h-11c-0.312-6e-5 -0.616 0.0972-0.871 0.278-0.254 0.181-0.446 0.437-0.547 0.732-0.0546 0.327-0.082 0.658-0.082 0.99v0.5c0 0.398 0.158 0.779 0.439 1.06 0.281 0.281 0.663 0.439 1.06 0.439h11c0.398 0 0.779-0.158 1.06-0.439s0.439-0.663 0.439-1.06v-0.5c0-0.332-0.027-0.663-0.081-0.99-0.102-0.295-0.294-0.551-0.548-0.732-0.254-0.181-0.559-0.278-0.871-0.278zm0 1c0.133 0 0.26 0.0527 0.354 0.146 0.0937 0.0938 0.146 0.221 0.146 0.354v1c0 0.133-0.0527 0.26-0.146 0.354-0.0938 0.0937-0.221 0.146-0.354 0.146s-0.26-0.0527-0.354-0.146c-0.0938-0.0938-0.146-0.221-0.146-0.354v-1c0-0.133 0.0527-0.26 0.146-0.354 0.0937-0.0937 0.221-0.146 0.354-0.146zm-2 0c0.133 0 0.26 0.0527 0.354 0.146 0.0937 0.0938 0.146 0.221 0.146 0.354v1c0 0.133-0.0527 0.26-0.146 0.354-0.0938 0.0937-0.221 0.146-0.354 0.146s-0.26-0.0527-0.354-0.146c-0.0938-0.0938-0.146-0.221-0.146-0.354v-1c0-0.133 0.0527-0.26 0.146-0.354 0.0937-0.0937 0.221-0.146 0.354-0.146zm-2 0c0.133 0 0.26 0.0527 0.354 0.146 0.0938 0.0938 0.146 0.221 0.146 0.354v1c0 0.133-0.0527 0.26-0.146 0.354-0.0938 0.0937-0.221 0.146-0.354 0.146-0.133 0-0.26-0.0527-0.354-0.146-0.0938-0.0938-0.146-0.221-0.146-0.354v-1c0-0.133 0.0527-0.26 0.146-0.354 0.0938-0.0937 0.221-0.146 0.354-0.146zm-2 0c0.133 0 0.26 0.0527 0.354 0.146 0.0938 0.0938 0.146 0.221 0.146 0.354v1c0 0.133-0.0527 0.26-0.146 0.354-0.0938 0.0937-0.221 0.146-0.354 0.146-0.133 0-0.26-0.0527-0.354-0.146-0.0938-0.0938-0.146-0.221-0.146-0.354v-1c0-0.133 0.0527-0.26 0.146-0.354 0.0938-0.0937 0.221-0.146 0.354-0.146zm4.03-8h-7.06c-0.319 3.9e-4 -0.63 0.103-0.888 0.292s-0.447 0.456-0.542 0.761l-1.44 5.12c0.28-0.11 0.584-0.169 0.904-0.169h11c0.319 0 0.624 0.06 0.904 0.169l-1.44-5.12c-0.0952-0.305-0.285-0.572-0.543-0.761-0.257-0.189-0.569-0.292-0.888-0.292z" clip-rule="evenodd" fill="#000" fill-rule="evenodd"/></svg>
