<svg fill="none" viewBox="0 0 16 16" xmlns="http://www.w3.org/2000/svg"><path d="m8 1c-2.76 0-5 2.24-5 5v0.00255c0.14-0.00255 0.31-0.00255 0.529-0.00255 0.205 0 0.307 0 0.393 0.012 0.553 0.0772 0.988 0.512 1.07 1.07 0.012 0.0859 0.012 0.188 0.012 0.393v5.06c0 0.205 0 0.307-0.012 0.393-0.0772 0.553-0.512 0.988-1.07 1.07-0.0859 0.012-0.188 0.012-0.393 0.012-0.492 0-0.738 0-0.944-0.0288-1.33-0.185-2.37-1.23-2.56-2.56-0.0288-0.206-0.0288-0.452-0.0288-0.944v-0.941c0-0.492 0-0.738 0.0288-0.944 0.157-1.13 0.931-2.05 1.97-2.41v-0.171c0-3.31 2.69-6 6-6 3.31 0 6 2.69 6 6v0.171c1.04 0.368 1.81 1.29 1.97 2.41 0.0288 0.206 0.0288 0.452 0.0288 0.944v0.941c0 0.492 0 0.738-0.0288 0.944-0.166 1.19-1.02 2.15-2.15 2.47l-1.53 1.53c-0.375 0.375-0.884 0.586-1.41 0.586h-3.38c-0.276 0-0.5-0.224-0.5-0.5s0.224-0.5 0.5-0.5h3.38c0.265 0 0.52-0.105 0.707-0.293l0.707-0.707c-0.0955-9e-4 -0.159-0.0036-0.216-0.0115-0.553-0.0772-0.988-0.512-1.07-1.07-0.012-0.0859-0.012-0.188-0.012-0.393v-5.06c0-0.205 0-0.307 0.012-0.393 0.0772-0.553 0.512-0.988 1.07-1.07 0.0859-0.012 0.188-0.012 0.393-0.012 0.219 0 0.39 0 0.529 0.00255v-0.00255c0-2.76-2.24-5-5-5zm-4 6.47v5.06c0 0.107-7e-5 0.17-0.00121 0.217-6e-4 0.0249-0.00137 0.0372-0.00167 0.0414-0.0165 0.108-0.101 0.193-0.209 0.209-0.00414 3e-4 -0.0165 0.0011-0.0414 0.0017-0.0471 0.0011-0.11 0.0012-0.217 0.0012-0.525 0-0.686-0.0024-0.806-0.0192-0.885-0.124-1.58-0.819-1.7-1.7-0.0168-0.12-0.0192-0.28-0.0192-0.806v-0.941c0-0.525 0.00242-0.686 0.0192-0.806 0.123-0.885 0.819-1.58 1.7-1.7 0.12-0.0168 0.28-0.0192 0.806-0.0192 0.107 0 0.17 7e-5 0.217 0.00121 0.0249 6e-4 0.0372 0.00137 0.0414 0.00167 0.108 0.0165 0.193 0.101 0.209 0.209 2.9e-4 0.00413 0.00107 0.0165 0.00167 0.0414 0.00114 0.0471 0.00121 0.11 0.00121 0.217zm8 0v5.06c0 0.107 1e-4 0.17 0.0012 0.217 6e-4 0.0249 0.0014 0.0372 0.0017 0.0414 0.0165 0.108 0.101 0.193 0.209 0.209 0.0042 3e-4 0.0165 0.0011 0.0414 0.0017 0.0471 0.0011 0.11 0.0012 0.217 0.0012 0.525 0 0.686-0.0024 0.806-0.0192 0.885-0.124 1.58-0.819 1.7-1.7 0.0168-0.12 0.0192-0.28 0.0192-0.806v-0.941c0-0.525-0.0024-0.686-0.0192-0.806-0.124-0.885-0.819-1.58-1.7-1.7-0.12-0.0168-0.28-0.0192-0.806-0.0192-0.107 0-0.17 7e-5 -0.217 0.00121-0.0249 6e-4 -0.0372 0.00137-0.0414 0.00167-0.108 0.0165-0.193 0.101-0.209 0.209-3e-4 0.00413-0.0011 0.0165-0.0017 0.0414-0.0011 0.0471-0.0012 0.11-0.0012 0.217z" clip-rule="evenodd" fill="#000" fill-rule="evenodd"/></svg>
