<svg viewBox="0 0 16 16" xmlns="http://www.w3.org/2000/svg"><path d="m1.22 13.1c0.23-0.153 0.54-0.091 0.693 0.139 0.152 0.23 0.0908 0.54-0.139 0.693-0.487 0.325-0.257 1.08 0.328 1.08h5.89v1h-5.89c-1.57 0-2.19-2.04-0.883-2.92z" fill="#000"/><path d="m13 9c1.1 2.4e-4 2 0.896 2 2v1.01c0.192 0.0116 0.329 0.0373 0.446 0.0957 0.194 0.0968 0.352 0.255 0.448 0.448 0.105 0.211 0.106 0.486 0.106 1.04v0.82c0 0.551-1e-4 0.826-0.106 1.04-0.0968 0.194-0.254 0.35-0.448 0.447-0.211 0.105-0.486 0.106-1.04 0.106h-2.82c-0.551 0-0.826-1e-4 -1.04-0.106-0.194-0.0967-0.35-0.254-0.447-0.447-0.105-0.211-0.105-0.486-0.105-1.04v-0.82c0-0.55 1e-4 -0.825 0.105-1.04 0.0968-0.194 0.254-0.352 0.447-0.448 0.117-0.0584 0.254-0.0841 0.447-0.0957v-1.01c1e-4 -1.1 0.895-2 2-2zm0 1c-0.552 0-1 0.448-1 1v1h2v-1c-2e-4 -0.552-0.448-1-1-1z" clip-rule="evenodd" fill="#000" fill-rule="evenodd"/><path d="m6.11 6.07c0.391-0.39 1.02-0.391 1.41 0l1.41 1.41c0.39 0.391 0.39 1.02 0 1.42l-3.52 3.52c-0.779 0.778-2.04 0.778-2.82 0-0.779-0.779-0.779-2.04 0-2.82l3.52-3.52z" fill="#000"/><path d="m10.4 3.66c0.0975-0.0975 0.256-0.0973 0.354 0l0.587 0.587c0.0973 0.0976 0.0975 0.256 0 0.354l-1.53 1.53c-0.0975 0.0974-0.256 0.0973-0.354 0l-0.587-0.586c-0.0975-0.0975-0.0973-0.256 0-0.354l1.53-1.53z" fill="#000"/><path d="m12.3 1.78c0.0976-0.0974 0.256-0.0976 0.354 0l0.586 0.587c0.0973 0.0976 0.0975 0.256 0 0.354l-0.586 0.586c-0.0976 0.0974-0.256 0.0973-0.354 0l-0.587-0.586c-0.0976-0.0975-0.0973-0.256 0-0.354l0.587-0.587z" fill="#000"/><path d="m13.9 0.195c0.26-0.259 0.68-0.259 0.939 0 0.259 0.26 0.26 0.681 0 0.94l-0.293 0.293c-0.0976 0.0974-0.256 0.0973-0.354 0l-0.587-0.587c-0.0972-0.0976-0.0973-0.256 0-0.354l0.294-0.293z" fill="#000"/></svg>
