<svg viewBox="0 0 16 16" xmlns="http://www.w3.org/2000/svg"><path d="m15.8 0.195c-0.26-0.26-0.68-0.26-0.94 1e-6l-0.293 0.293c-0.0976 0.0976-0.0976 0.256 0 0.354l0.587 0.587c0.0976 0.0976 0.256 0.0976 0.354 0l0.293-0.293c0.26-0.26 0.26-0.68 0-0.94z" fill="#000"/><path d="m13.3 1.78c0.0976-0.0976 0.256-0.0976 0.354 0l0.587 0.587c0.0976 0.0976 0.0976 0.256 0 0.354l-0.587 0.587c-0.0976 0.0976-0.256 0.0976-0.354 0l-0.586-0.587c-0.0977-0.0976-0.0977-0.256 0-0.354l0.586-0.587z" fill="#000"/><path d="m11.8 3.66c-0.0977-0.0976-0.256-0.0976-0.354 0l-1.53 1.53c-0.0976 0.0976-0.0976 0.256 0 0.354l0.587 0.587c0.0976 0.0976 0.256 0.0976 0.354 0l1.53-1.53c0.0976-0.0976 0.0976-0.256 0-0.354l-0.586-0.587z" fill="#000"/><path d="m8.52 6.07c-0.391-0.391-1.02-0.391-1.41 0l-3.52 3.52c-0.779 0.779-0.779 2.04 0 2.82s2.04 0.779 2.82 0l3.52-3.52c0.391-0.391 0.391-1.02 0-1.41l-1.41-1.41z" fill="#000"/><path d="m2.78 13.9c0.23-0.153 0.292-0.464 0.139-0.693-0.153-0.23-0.464-0.292-0.693-0.139-1.31 0.874-0.692 2.92 0.883 2.92h8.39c0.276 0 0.5-0.224 0.5-0.5s-0.224-0.5-0.5-0.5h-8.39c-0.585 0-0.815-0.759-0.328-1.08z" fill="#000"/></svg>
