<svg viewBox="0 0 16 16" xmlns="http://www.w3.org/2000/svg"><path d="m4 4c0-2.21 1.79-4 4-4 2.21 0 4 1.79 4 4v3c0 2.21-1.79 4-4 4-2.21 0-4-1.79-4-4v-3zm7 0v1h-1.5c-0.276 0-0.5 0.224-0.5 0.5 0 0.276 0.224 0.5 0.5 0.5h1.5v1h-1.5c-0.276 0-0.5 0.224-0.5 0.5 0 0.276 0.224 0.5 0.5 0.5h1.33c-0.412 1.17-1.52 2-2.83 2s-2.42-0.835-2.83-2h1.33c0.276 0 0.5-0.224 0.5-0.5 0-0.276-0.224-0.5-0.5-0.5h-1.5v-1h1.5c0.276 0 0.5-0.224 0.5-0.5 0-0.276-0.224-0.5-0.5-0.5h-1.5v-1h1.5c0.276 0 0.5-0.224 0.5-0.5 0-0.276-0.224-0.5-0.5-0.5h-1.33c0.412-1.17 1.52-2 2.83-2s2.42 0.835 2.83 2h-1.33c-0.276 0-0.5 0.224-0.5 0.5 0 0.276 0.224 0.5 0.5 0.5h1.5z" clip-rule="evenodd" fill="#000" fill-rule="evenodd"/><path d="m7 12.9c-2.84-0.476-5-2.94-5-5.92v-1.5c0-0.276 0.224-0.5 0.5-0.5s0.5 0.224 0.5 0.5v1.5c0 2.76 2.24 5 5 5 2.76 0 5-2.24 5-5v-1.5c0-0.276 0.224-0.5 0.5-0.5s0.5 0.224 0.5 0.5v1.5c0 2.97-2.16 5.44-5 5.92v2.08h1.5c0.276 0 0.5 0.224 0.5 0.5s-0.224 0.5-0.5 0.5h-5c-0.276 0-0.5-0.224-0.5-0.5s0.224-0.5 0.5-0.5h1.5v-2.08z" fill="#000"/></svg>
