<svg fill="none" viewBox="0 0 16 16" xmlns="http://www.w3.org/2000/svg"><path d="m3.75 15.7 7.61-6.79c1.2 0.0457 2.41-0.389 3.33-1.3 1.74-1.74 1.74-4.57 0-6.31-1.74-1.74-4.57-1.74-6.31 0-0.915 0.915-1.35 2.13-1.3 3.33l-6.79 7.61c-0.394 0.442-0.375 1.11 0.0437 1.53l1.89 1.89c0.418 0.418 1.09 0.438 1.53 0.0438zm6.83-7.43-2.87-2.87-1.22 1.37 2.72 2.72 1.37-1.22zm-2.11 1.89-2.64-2.64-4.8 5.38c-0.0411 0.0461-0.0391 0.116 0.00456 0.16l1.89 1.89c0.0436 0.0436 0.114 0.0456 0.16 0.0046l5.38-4.8zm-0.395-5.81c0.0248-0.854 0.363-1.7 1.01-2.35 1.35-1.35 3.55-1.35 4.9 0 1.35 1.35 1.35 3.55 0 4.9-0.651 0.651-1.49 0.989-2.35 1.01l-3.57-3.57z" clip-rule="evenodd" fill="#000" fill-rule="evenodd"/></svg>
