<svg viewBox="0 0 16 16" xmlns="http://www.w3.org/2000/svg"><path d="m4 7c0.552 0 1 0.448 1 1 0 0.552-0.448 1-1 1s-1-0.448-1-1c0-0.552 0.448-1 1-1z" fill="#000"/><path d="m13 8c0-0.552-0.448-1-1-1s-1 0.448-1 1c0 0.552 0.448 1 1 1s1-0.448 1-1z" fill="#000"/><path d="m12 10.7c0-0.552-0.448-1-1-1s-1 0.448-1 1 0.448 1 1 1 1-0.448 1-1z" fill="#000"/><path d="m6 10.7c0-0.552-0.448-1-1-1s-1 0.448-1 1 0.448 1 1 1 1-0.448 1-1z" fill="#000"/><path d="m9 12c0-0.552-0.448-1-1-1-0.552 0-1 0.448-1 1s0.448 1 1 1c0.552 0 1-0.448 1-1z" fill="#000"/><path d="m10 1.31v1.09c0 0.56 0 0.84-0.109 1.05-0.0959 0.188-0.249 0.341-0.437 0.437-0.214 0.109-0.494 0.109-1.05 0.109h-0.8c-0.56 0-0.84 0-1.05-0.109-0.188-0.0959-0.341-0.249-0.437-0.437-0.109-0.214-0.109-0.494-0.109-1.05v-1.09c0-0.534-0.505-0.924-1-0.724-2.93 1.19-5 4.06-5 7.42 0 4.42 3.58 8 8 8 4.42 0 8-3.58 8-8 0-3.36-2.07-6.23-5-7.42-0.495-0.2-1 0.19-1 0.724zm1 0.368v0.759c0 0.252 1e-4 0.498-0.0169 0.706-0.0187 0.229-0.0628 0.498-0.201 0.77-0.192 0.376-0.498 0.682-0.874 0.874-0.271 0.138-0.541 0.182-0.77 0.201-0.208 0.017-0.454 0.017-0.706 0.017h-0.864c-0.252 3e-5 -0.498 6e-5 -0.706-0.017-0.229-0.0187-0.498-0.0628-0.77-0.201-0.376-0.192-0.682-0.498-0.874-0.874-0.138-0.271-0.182-0.541-0.201-0.77-0.017-0.208-0.017-0.454-0.017-0.706v-0.759c-2.37 1.12-4 3.54-4 6.33 0 3.87 3.13 7 7 7 3.87 0 7-3.13 7-7 0-2.79-1.63-5.2-4-6.33z" clip-rule="evenodd" fill="#000" fill-rule="evenodd"/></svg>
