<svg viewBox="0 0 16 16" xmlns="http://www.w3.org/2000/svg"><path d="m6.5 8c-0.276 0-0.5 0.224-0.5 0.5s0.224 0.5 0.5 0.5 0.5-0.224 0.5-0.5-0.224-0.5-0.5-0.5z" fill="#000"/><path d="m8.5 8c-0.276 0-0.5 0.224-0.5 0.5s0.224 0.5 0.5 0.5 0.5-0.224 0.5-0.5-0.224-0.5-0.5-0.5z" fill="#000"/><path d="m10 8.5c0-0.276 0.224-0.5 0.5-0.5s0.5 0.224 0.5 0.5-0.224 0.5-0.5 0.5-0.5-0.224-0.5-0.5z" fill="#000"/><path d="m12.5 8c-0.276 0-0.5 0.224-0.5 0.5s0.224 0.5 0.5 0.5 0.5-0.224 0.5-0.5-0.224-0.5-0.5-0.5z" fill="#000"/><path d="m3.96 0.314c-0.103-0.256-0.394-0.381-0.65-0.279-0.256 0.103-0.381 0.394-0.279 0.65l1.73 4.31h-0.761c-0.93 0-1.39 0-1.78 0.102-1.04 0.277-1.84 1.09-2.12 2.12-0.102 0.382-0.102 0.846-0.102 1.78s0 1.4 0.102 1.78c0.277 1.04 1.09 1.84 2.12 2.12 0.382 0.102 0.846 0.102 1.78 0.102h8c0.93 0 1.4 0 1.78-0.102 1.04-0.277 1.84-1.09 2.12-2.12 0.102-0.382 0.102-0.847 0.102-1.78s0-1.39-0.102-1.78c-0.277-1.04-1.09-1.84-2.12-2.12-0.382-0.102-0.846-0.102-1.78-0.102h-0.762l1.73-4.31c0.103-0.256-0.0221-0.547-0.278-0.65-0.256-0.103-0.547 0.0222-0.65 0.279l-1.87 4.69h-4.32l-1.87-4.69zm6.55 5.69c-0.0079 1.9e-4 -0.0159 1.9e-4 -0.0239 0h-4.98c-0.00798 1.9e-4 -0.016 1.9e-4 -0.0239 0h-1.49c-0.994 0-1.3 0.00859-1.52 0.0682-0.69 0.185-1.23 0.724-1.41 1.41-0.0596 0.222-0.0682 0.523-0.0682 1.52s0.00859 1.3 0.0682 1.52c0.185 0.69 0.724 1.23 1.41 1.41 0.222 0.0595 0.523 0.0681 1.52 0.0681h8c0.994 0 1.3-0.0086 1.52-0.0681 0.69-0.185 1.23-0.724 1.41-1.41 0.0595-0.222 0.0681-0.523 0.0681-1.52s-0.0086-1.3-0.0681-1.52c-0.185-0.69-0.724-1.23-1.41-1.41-0.222-0.0596-0.523-0.0682-1.52-0.0682h-1.49z" clip-rule="evenodd" fill="#000" fill-rule="evenodd"/></svg>
