<svg fill="none" viewBox="0 0 16 16" xmlns="http://www.w3.org/2000/svg"><path d="m3.6 0.00163 3.55-0.00163c1.34 0 1.82 0.139 2.31 0.401 0.353 0.189 0.651 0.441 0.888 0.75l-0.57 0.988-0.0656-0.133c-0.168-0.315-0.409-0.556-0.724-0.724-0.391-0.209-0.771-0.283-1.84-0.283h-3.31c-1.07 0-1.45 0.0734-1.84 0.283-0.315 0.168-0.556 0.409-0.724 0.724-0.209 0.391-0.283 0.771-0.283 1.84v8.31c0 1.07 0.0734 1.45 0.283 1.84 0.168 0.315 0.409 0.556 0.724 0.724 0.391 0.209 0.771 0.282 1.84 0.282h3.31l0.418-0.0047c0.759-0.0191 1.09-0.0986 1.42-0.278 0.315-0.168 0.556-0.409 0.724-0.724 0.0848-0.159 0.147-0.316 0.192-0.517l1.08-0.808c-0.0333 0.959-0.168 1.38-0.392 1.8-0.262 0.489-0.645 0.872-1.13 1.13l-0.185 0.0923c-0.439 0.202-0.956 0.308-2.13 0.308h-3.31c-1.34 0-1.82-0.139-2.31-0.401s-0.873-0.645-1.13-1.13l-0.0923-0.185c-0.187-0.407-0.293-0.883-0.307-1.89l-0.00163-8.55c0-1.34 0.139-1.82 0.401-2.31s0.645-0.873 1.13-1.13l0.185-0.0923c0.407-0.187 0.883-0.293 1.89-0.307zm0.895 13 1.99 0.0015c0.149 0.187 0.319 0.348 0.505 0.481l0.00231 0.0177c0 0.276-0.224 0.5-0.5 0.5h-2c-0.276 0-0.5-0.224-0.5-0.5s0.224-0.5 0.5-0.5zm9.88-12.8 0.866 0.5c0.717 0.414 0.963 1.33 0.549 2.05l-4.4 7.62c-0.102 0.176-0.238 0.329-0.4 0.451l-1.95 1.46c-0.442 0.331-1.07 0.241-1.4-0.202-0.154-0.206-0.223-0.462-0.192-0.718l0.288-2.42c0.0241-0.202 0.0888-0.396 0.19-0.572l4.4-7.62c0.414-0.717 1.33-0.963 2.05-0.549zm-6.38 1.8c0.552 0 1 0.448 1 1v0.493l-1 1.73v-2.22h-5v8h2.98l-0.0174 0.15c-0.0342 0.286-0.0182 0.574 0.0446 0.85l-3.01-8e-4c-0.552 0-1-0.448-1-1v-8c0-0.552 0.448-1 1-1h5zm5.2-0.75-4.4 7.62c-0.0339 0.0586-0.0554 0.124-0.0635 0.191l-0.288 2.42 1.95-1.46c0.0362-0.0271 0.0684-0.0588 0.0959-0.0944l0.0376-0.056 4.4-7.62c0.138-0.239 0.0561-0.545-0.183-0.683l-0.866-0.5c-0.239-0.138-0.545-0.0561-0.683 0.183z" fill="#000"/></svg>
