<svg fill="none" viewBox="0 0 16 16" xmlns="http://www.w3.org/2000/svg"><path d="m14.5 14.4 0.375-0.375c0.0365-0.0364 0.0725-0.0723 0.108-0.108l0.224-0.224-0.0041-0.0041c0.108-0.117 0.204-0.232 0.284-0.353 0.631-0.944 0.631-2.17 0-3.12-0.155-0.233-0.372-0.449-0.612-0.689l-0.0558-0.0558-0.0558-0.0558c-0.24-0.241-0.456-0.457-0.689-0.612-0.944-0.631-2.17-0.631-3.12 0-0.233 0.155-0.449 0.372-0.689 0.612l-0.0557 0.0558-0.0559 0.0558c-0.241 0.24-0.457 0.456-0.612 0.689-0.119 0.178-0.216 0.367-0.29 0.562-0.584-0.496-1.29-1.14-2.1-1.95-0.807-0.807-1.45-1.51-1.95-2.1 0.195-0.0742 0.384-0.171 0.562-0.29 0.233-0.155 0.449-0.372 0.689-0.612l0.0558-0.0558 0.0558-0.0557c0.241-0.24 0.457-0.456 0.612-0.689 0.631-0.944 0.631-2.17 0-3.12-0.155-0.233-0.372-0.449-0.612-0.689l-0.0558-0.0558-0.0558-0.0558c-0.24-0.241-0.456-0.457-0.689-0.612-0.944-0.631-2.17-0.631-3.12-1e-6 -0.233 0.155-0.449 0.372-0.689 0.612l-0.063 0.063c-0.122 0.122-0.23 0.23-0.319 0.323-1.61 1.62-2.26 4.16-0.848 6.26 0.769 1.14 1.87 2.54 3.41 4.08 1.54 1.54 2.94 2.64 4.08 3.41 2.1 1.41 4.65 0.765 6.27-0.855zm-5.71 0.0252c1.32 0.892 2.93 0.747 4.23-0.0977 0.229-0.15 0.448-0.321 0.653-0.513 0.0426-0.0398 0.0848-0.0804 0.126-0.122l-0.0022-0.0022c0.0864-0.0821 0.189-0.185 0.321-0.317 0.132-0.132 0.235-0.235 0.317-0.322 0.102-0.107 0.172-0.19 0.227-0.272 0.406-0.608 0.406-1.4 0-2.01-0.0989-0.148-0.247-0.296-0.544-0.593-0.297-0.297-0.445-0.445-0.593-0.544-0.607-0.406-1.4-0.406-2.01 0-0.148 0.0988-0.296 0.247-0.593 0.544-0.297 0.297-0.445 0.445-0.544 0.593-0.108 0.162-0.187 0.337-0.238 0.518-0.142 0.509-0.582 1.03-0.993 0.697-0.691-0.558-1.61-1.36-2.7-2.45-1.09-1.09-1.89-2-2.45-2.7-0.332-0.411 0.188-0.851 0.697-0.993 0.181-0.0505 0.356-0.13 0.518-0.238 0.148-0.0988 0.296-0.247 0.593-0.544 0.297-0.297 0.445-0.445 0.544-0.593 0.406-0.607 0.406-1.4 0-2.01-0.0988-0.148-0.247-0.296-0.544-0.593-0.297-0.297-0.445-0.445-0.593-0.544-0.607-0.406-1.4-0.406-2.01 0-0.148 0.0988-0.296 0.247-0.593 0.544-0.132 0.132-0.235 0.235-0.317 0.321-1.37 1.37-1.82 3.4-0.735 5 0.734 1.09 1.79 2.44 3.29 3.93 1.5 1.5 2.84 2.55 3.93 3.29z" clip-rule="evenodd" fill="#000" fill-rule="evenodd"/></svg>
