<svg viewBox="0 0 16 16" xmlns="http://www.w3.org/2000/svg"><path d="m11 8c0 1.66-1.34 3-3 3s-3-1.34-3-3 1.34-3 3-3 3 1.34 3 3zm-1 0c0 1.1-0.895 2-2 2s-2-0.895-2-2 0.895-2 2-2 2 0.895 2 2z" clip-rule="evenodd" fill="#000" fill-rule="evenodd"/><path d="m1.17 3.62c0.649-0.498 1.53-0.596 3.07-0.615l0.665-1.06c0.365-0.585 1.01-0.94 1.7-0.94h2.78c0.69 0 1.33 0.355 1.7 0.94l0.665 1.06c1.54 0.0192 2.42 0.117 3.07 0.615 0.208 0.16 0.394 0.346 0.554 0.554 0.62 0.808 0.62 1.98 0.62 4.33 0 2.35 0 3.52-0.62 4.33-0.16 0.208-0.346 0.394-0.554 0.554-0.808 0.62-1.98 0.62-4.33 0.62h-5c-2.35 0-3.52 0-4.33-0.62-0.208-0.16-0.394-0.346-0.554-0.554-0.62-0.808-0.62-1.98-0.62-4.33 0-2.35 0-3.52 0.62-4.33 0.16-0.208 0.346-0.394 0.554-0.554zm9.73-0.0852c0.18 0.289 0.495 0.466 0.836 0.47 1.59 0.0199 2.13 0.143 2.48 0.409 0.139 0.106 0.263 0.231 0.369 0.369 0.154 0.201 0.275 0.492 0.342 1.09 0.0697 0.618 0.0712 1.43 0.0712 2.63 0 1.2-0.0015 2.01-0.0712 2.63-0.0674 0.598-0.188 0.889-0.342 1.09-0.106 0.139-0.23 0.263-0.369 0.369-0.201 0.154-0.492 0.275-1.09 0.342-0.618 0.0697-1.43 0.0712-2.63 0.0712h-5c-1.2 0-2.01-0.0015-2.63-0.0712-0.598-0.0674-0.889-0.188-1.09-0.342-0.139-0.106-0.263-0.23-0.369-0.369-0.154-0.201-0.275-0.492-0.342-1.09-0.0697-0.618-0.0712-1.43-0.0712-2.63 0-1.2 0.00149-2.01 0.0712-2.63 0.0674-0.598 0.188-0.889 0.342-1.09 0.106-0.139 0.231-0.263 0.369-0.369 0.346-0.265 0.885-0.389 2.48-0.409 0.34-0.00426 0.655-0.181 0.836-0.47l0.665-1.06c0.183-0.292 0.503-0.47 0.848-0.47h2.78c0.345 0 0.665 0.178 0.848 0.47l0.665 1.06z" clip-rule="evenodd" fill="#000" fill-rule="evenodd"/></svg>
