<svg viewBox="0 0 16 16" xmlns="http://www.w3.org/2000/svg"><path d="m13 7.5c0-0.276-0.224-0.5-0.5-0.5s-0.5 0.224-0.5 0.5v4c0 0.276 0.224 0.5 0.5 0.5s0.5-0.224 0.5-0.5v-4z" fill="#000"/><path d="m10.5 7c0.276 0 0.5 0.224 0.5 0.5v4c0 0.276-0.224 0.5-0.5 0.5s-0.5-0.224-0.5-0.5v-4c0-0.276 0.224-0.5 0.5-0.5z" fill="#000"/><path d="m3.08 7.62c-0.0761 0.184-0.0761 0.417-0.0761 0.883s0 0.699 0.0761 0.883c0.101 0.245 0.296 0.44 0.541 0.541 0.184 0.0761 0.417 0.0761 0.883 0.0761h2c0.466 0 0.699 0 0.883-0.0761 0.245-0.101 0.44-0.296 0.541-0.541 0.0761-0.184 0.0761-0.417 0.0761-0.883s0-0.699-0.0761-0.883c-0.101-0.245-0.296-0.44-0.541-0.541-0.184-0.0761-0.417-0.0761-0.883-0.0761h-2c-0.466 0-0.699 0-0.883 0.0761-0.245 0.101-0.44 0.296-0.541 0.541z" fill="#000"/><path d="m12.9 0.223c0.153 0.23 0.0911 0.54-0.139 0.693l-4.63 3.08h3.05c1.68 0 2.52 0 3.16 0.327 0.564 0.288 1.02 0.747 1.31 1.31 0.327 0.642 0.327 1.48 0.327 3.16v1.4c0 1.68 0 2.52-0.327 3.16-0.288 0.564-0.746 1.02-1.31 1.31-0.642 0.327-1.48 0.327-3.16 0.327h-6.4c-1.68 0-2.52 0-3.16-0.327-0.564-0.288-1.02-0.746-1.31-1.31-0.327-0.642-0.327-1.48-0.327-3.16v-1.4c0-1.68 0-2.52 0.327-3.16 0.288-0.564 0.747-1.02 1.31-1.31 0.642-0.327 1.48-0.327 3.16-0.327h1.55l5.87-3.92c0.23-0.153 0.54-0.0911 0.693 0.139zm-8.12 4.78c-0.857 0-1.44 7.8e-4 -1.89 0.0376-0.438 0.0358-0.663 0.101-0.819 0.18-0.376 0.192-0.682 0.498-0.874 0.874-0.0797 0.156-0.145 0.381-0.18 0.819-0.0368 0.45-0.0376 1.03-0.0376 1.89v1.4c0 0.857 7.8e-4 1.44 0.0376 1.89 0.0358 0.438 0.101 0.663 0.18 0.819 0.192 0.376 0.498 0.682 0.874 0.874 0.156 0.0797 0.381 0.145 0.819 0.18 0.45 0.0368 1.03 0.0376 1.89 0.0376h6.4c0.857 0 1.44-8e-4 1.89-0.0376 0.438-0.0358 0.663-0.101 0.819-0.18 0.376-0.192 0.682-0.498 0.874-0.874 0.0797-0.156 0.145-0.381 0.18-0.819 0.0368-0.45 0.0376-1.03 0.0376-1.89v-1.4c0-0.857-8e-4 -1.44-0.0376-1.89-0.0358-0.438-0.101-0.663-0.18-0.819-0.192-0.376-0.498-0.682-0.874-0.874-0.156-0.0797-0.381-0.145-0.819-0.18-0.45-0.0368-1.03-0.0376-1.89-0.0376h-6.4z" clip-rule="evenodd" fill="#000" fill-rule="evenodd"/></svg>
