<svg viewBox="0 0 16 16" xmlns="http://www.w3.org/2000/svg"><path d="m6 6c-0.208 0-0.395 0.129-0.468 0.324l-1.5 4c-0.0576 0.154-0.0362 0.326 0.0572 0.46s0.247 0.215 0.411 0.215h7c0.164 0 0.318-0.0804 0.411-0.215s0.115-0.307 0.0572-0.46l-1.5-4c-0.0732-0.195-0.26-0.324-0.468-0.324h-4zm-0.778 4 1.12-3h3.31l1.12 3h-5.56z" clip-rule="evenodd" fill="#000" fill-rule="evenodd"/><path d="m2.5 0c-0.173 0-0.334 0.0897-0.425 0.237-0.0911 0.147-0.0994 0.331-0.0219 0.486l1.9 3.8c-0.707 1.88-2.37 6.38-2.83 7.64-0.0819 0.222-0.123 0.453-0.123 0.689v0.263c-6e-6 0.402-1.1e-5 0.735 0.0221 1.01 0.023 0.281 0.0722 0.539 0.196 0.782 0.192 0.376 0.498 0.682 0.874 0.874 0.243 0.124 0.501 0.173 0.782 0.196 0.271 0.0221 0.603 0.0221 1.01 0.0221h8.24c0.402 0 0.735 0 1.01-0.0221 0.281-0.023 0.539-0.0722 0.782-0.196 0.376-0.192 0.682-0.498 0.874-0.874 0.124-0.243 0.173-0.501 0.196-0.782 0.0221-0.271 0.0221-0.603 0.0221-1.01v-0.258c0-0.24-0.0413-0.474-0.125-0.698-0.568-1.53-2.83-7.64-2.83-7.64l1.9-3.8c0.0775-0.155 0.0692-0.339-0.0219-0.486-0.0911-0.147-0.252-0.237-0.425-0.237h-11zm11.5 13h-12v0.1c0 0.428 3.9e-4 0.719 0.0188 0.944 0.0179 0.219 0.0504 0.331 0.0902 0.41 0.0959 0.188 0.249 0.341 0.437 0.437 0.0782 0.0399 0.19 0.0723 0.41 0.0902 0.225 0.0184 0.516 0.0188 0.944 0.0188h8.2c0.428 0 0.719-4e-4 0.944-0.0188 0.219-0.0179 0.331-0.0503 0.41-0.0902 0.188-0.0959 0.341-0.249 0.437-0.437 0.0399-0.0782 0.0723-0.19 0.0902-0.41 0.0184-0.225 0.0188-0.516 0.0188-0.944v-0.1zm-2.81-9 1.5-3h-9.38l1.5 3h6.38zm-8.97 8 2.62-7h6.31l2.62 7h-11.6z" clip-rule="evenodd" fill="#000" fill-rule="evenodd"/></svg>
