<svg viewBox="0 0 16 16" xmlns="http://www.w3.org/2000/svg"><path d="m10.5 2c-0.276 0-0.5 0.224-0.5 0.5v1c0 0.276 0.224 0.5 0.5 0.5s0.5-0.224 0.5-0.5v-1c0-0.276-0.224-0.5-0.5-0.5z" fill="#000"/><path d="m8 2.5c0-0.276 0.224-0.5 0.5-0.5s0.5 0.224 0.5 0.5v1c0 0.276-0.224 0.5-0.5 0.5s-0.5-0.224-0.5-0.5v-1z" fill="#000"/><path d="m12.5 2c-0.276 0-0.5 0.224-0.5 0.5v1c0 0.276 0.224 0.5 0.5 0.5s0.5-0.224 0.5-0.5v-1c0-0.276-0.224-0.5-0.5-0.5z" fill="#000"/><path d="m10 7.5c0-0.276 0.224-0.5 0.5-0.5s0.5 0.224 0.5 0.5v1c0 0.276-0.224 0.5-0.5 0.5s-0.5-0.224-0.5-0.5v-1z" fill="#000"/><path d="m8.5 7c-0.276 0-0.5 0.224-0.5 0.5v1c0 0.276 0.224 0.5 0.5 0.5s0.5-0.224 0.5-0.5v-1c0-0.276-0.224-0.5-0.5-0.5z" fill="#000"/><path d="m12 7.5c0-0.276 0.224-0.5 0.5-0.5s0.5 0.224 0.5 0.5v1c0 0.276-0.224 0.5-0.5 0.5s-0.5-0.224-0.5-0.5v-1z" fill="#000"/><path d="m10.5 12c-0.276 0-0.5 0.224-0.5 0.5v1c0 0.276 0.224 0.5 0.5 0.5s0.5-0.224 0.5-0.5v-1c0-0.276-0.224-0.5-0.5-0.5z" fill="#000"/><path d="m8 12.5c0-0.276 0.224-0.5 0.5-0.5s0.5 0.224 0.5 0.5v1c0 0.276-0.224 0.5-0.5 0.5s-0.5-0.224-0.5-0.5v-1z" fill="#000"/><path d="m12.5 12c-0.276 0-0.5 0.224-0.5 0.5v1c0 0.276 0.224 0.5 0.5 0.5s0.5-0.224 0.5-0.5v-1c0-0.276-0.224-0.5-0.5-0.5z" fill="#000"/><path d="m1 5.5c-0.508-0.381-0.865-0.952-0.969-1.61-0.0308-0.194-0.0308-0.427-0.0308-0.891s0-0.697 0.0308-0.891c0.169-1.07 1.01-1.91 2.08-2.08 0.194-0.0308 0.427-0.0308 0.891-0.0308h10c0.464 0 0.697 0 0.891 0.0308 1.07 0.169 1.91 1.01 2.08 2.08 0.0308 0.194 0.0308 0.427 0.0308 0.891s0 0.697-0.0308 0.891c-0.104 0.657-0.461 1.23-0.969 1.61 0.508 0.381 0.865 0.952 0.969 1.61 0.0308 0.194 0.0308 0.427 0.0308 0.891s0 0.697-0.0308 0.891c-0.104 0.657-0.461 1.23-0.969 1.61 0.508 0.381 0.865 0.952 0.969 1.61 0.0308 0.194 0.0308 0.427 0.0308 0.891s0 0.697-0.0308 0.891c-0.169 1.07-1.01 1.91-2.08 2.08-0.194 0.0308-0.427 0.0308-0.891 0.0308h-10c-0.464 0-0.697 0-0.891-0.0308-1.07-0.169-1.91-1.01-2.08-2.08-0.0308-0.194-0.0308-0.427-0.0308-0.891s0-0.697 0.0308-0.891c0.104-0.657 0.461-1.23 0.969-1.61-0.508-0.381-0.865-0.952-0.969-1.61-0.0308-0.194-0.0308-0.427-0.0308-0.891s0-0.697 0.0308-0.891c0.104-0.657 0.461-1.23 0.969-1.61zm2-4.5h10c0.503 0 0.638 0.0031 0.735 0.0185 0.642 0.102 1.15 0.605 1.25 1.25 0.0154 0.097 0.0185 0.232 0.0185 0.735s-0.0031 0.638-0.0185 0.735c-0.102 0.642-0.605 1.15-1.25 1.25-0.0971 0.0154-0.232 0.0185-0.735 0.0185h-10c-0.503 0-0.638-0.0031-0.735-0.0185-0.642-0.102-1.15-0.605-1.25-1.25-0.0154-0.097-0.0185-0.232-0.0185-0.735s0.0031-0.638 0.0185-0.735c0.102-0.642 0.605-1.15 1.25-1.25 0.097-0.0154 0.232-0.0185 0.735-0.0185zm10.7 8.98c-0.0971 0.0154-0.232 0.0185-0.735 0.0185h-10c-0.503 0-0.638-0.0031-0.735-0.0185-0.642-0.102-1.15-0.605-1.25-1.25-0.0154-0.097-0.0185-0.232-0.0185-0.735s0.0031-0.638 0.0185-0.735c0.102-0.642 0.605-1.15 1.25-1.25 0.097-0.0154 0.232-0.0185 0.735-0.0185h10c0.503 0 0.638 0.0031 0.735 0.0185 0.642 0.102 1.15 0.605 1.25 1.25 0.0154 0.097 0.0185 0.232 0.0185 0.735s-0.0031 0.638-0.0185 0.735c-0.102 0.642-0.605 1.15-1.25 1.25zm-11.5 1.04c0.097-0.0154 0.232-0.0185 0.735-0.0185h10c0.503 0 0.638 0.0031 0.735 0.0185 0.642 0.102 1.15 0.605 1.25 1.25 0.0154 0.0971 0.0185 0.232 0.0185 0.735s-0.0031 0.638-0.0185 0.735c-0.102 0.642-0.605 1.15-1.25 1.25-0.0971 0.0154-0.232 0.0185-0.735 0.0185h-10c-0.503 0-0.638-0.0031-0.735-0.0185-0.642-0.102-1.15-0.605-1.25-1.25-0.0154-0.0971-0.0185-0.232-0.0185-0.735s0.0031-0.638 0.0185-0.735c0.102-0.642 0.605-1.15 1.25-1.25z" clip-rule="evenodd" fill="#000" fill-rule="evenodd"/></svg>
