<svg viewBox="0 0 16 16" xmlns="http://www.w3.org/2000/svg"><path d="m5 9c1.1 0 2-0.895 2-2s-0.895-2-2-2-2 0.895-2 2 0.895 2 2 2zm0-1c0.552 0 1-0.448 1-1s-0.448-1-1-1-1 0.448-1 1 0.448 1 1 1z" clip-rule="evenodd" fill="#000" fill-rule="evenodd"/><path d="m13 7c0 1.1-0.895 2-2 2-1.1 0-2-0.895-2-2s0.895-2 2-2c1.1 0 2 0.895 2 2zm-1 0c0 0.552-0.448 1-1 1s-1-0.448-1-1 0.448-1 1-1 1 0.448 1 1z" clip-rule="evenodd" fill="#000" fill-rule="evenodd"/><path d="m4.49 14c0.00889 3e-4 0.0178 3e-4 0.0266 1e-4h6.97c0.0089 2e-4 0.0178 2e-4 0.0266-1e-4 1.46-1e-3 2.23-0.0185 2.83-0.316 0.581-0.29 1.05-0.762 1.34-1.34 0.316-0.633 0.316-1.46 0.316-3.11v-2.46c0-1.65 0-2.48-0.316-3.11-0.29-0.581-0.762-1.05-1.34-1.34-0.633-0.316-1.46-0.316-3.11-0.316h-6.46c-1.65 0-2.48 0-3.11 0.316-0.581 0.29-1.05 0.762-1.34 1.34-0.316 0.633-0.316 1.46-0.316 3.11v2.46c0 1.65 0 2.48 0.316 3.11 0.29 0.581 0.762 1.05 1.34 1.34 0.596 0.298 1.36 0.315 2.83 0.316zm0.284-11h6.46c0.842 0 1.41 7.5e-4 1.86 0.0363 0.431 0.0347 0.652 0.0975 0.807 0.175 0.387 0.194 0.702 0.508 0.895 0.895 0.077 0.154 0.14 0.375 0.175 0.807 0.0355 0.443 0.0363 1.02 0.0363 1.86v2.46c0 0.842-8e-4 1.41-0.0363 1.86-0.0347 0.431-0.0976 0.652-0.175 0.807-0.194 0.387-0.508 0.702-0.895 0.895-0.154 0.077-0.375 0.14-0.807 0.175-0.322 0.0259-0.714 0.0333-1.23 0.0354l-0.886-2.66c-0.068-0.204-0.259-0.342-0.474-0.342h-5c-0.215 0-0.406 0.138-0.474 0.342l-0.886 2.66c-0.514-0.0021-0.905-0.0095-1.23-0.0354-0.431-0.0347-0.652-0.0976-0.807-0.175-0.387-0.194-0.702-0.508-0.895-0.895-0.077-0.154-0.14-0.375-0.175-0.807-0.0356-0.443-0.0363-1.02-0.0363-1.86v-2.46c0-0.842 7.5e-4 -1.41 0.0363-1.86 0.0347-0.431 0.0975-0.652 0.175-0.807 0.194-0.387 0.508-0.702 0.895-0.895 0.154-0.077 0.375-0.14 0.807-0.175 0.443-0.0356 1.02-0.0363 1.86-0.0363zm6.04 10h-5.61l0.667-2h4.28l0.667 2z" clip-rule="evenodd" fill="#000" fill-rule="evenodd"/></svg>
