<svg viewBox="0 0 16 16" xmlns="http://www.w3.org/2000/svg"><path d="m13.9 1.82c0.178-0.211 0.152-0.526-0.0587-0.705-0.211-0.178-0.526-0.152-0.705 0.0587l-11 13c-0.178 0.211-0.152 0.526 0.0587 0.705s0.526 0.152 0.705-0.0587l4.92-5.82c0.0647-0.00321 0.13-0.00483 0.195-0.00483 1.27 0 2.39 0.608 3.1 1.55 0.166 0.221 0.479 0.265 0.7 0.0995 0.221-0.166 0.265-0.479 0.0995-0.7-0.771-1.03-1.94-1.74-3.28-1.91l1.44-1.7c1.22 0.417 2.28 1.2 3.04 2.21 0.166 0.221 0.479 0.265 0.7 0.0995 0.221-0.166 0.265-0.479 0.0995-0.7-0.804-1.07-1.89-1.91-3.15-2.42l1.31-1.55c1.2 0.617 2.24 1.5 3.04 2.57 0.166 0.221 0.479 0.265 0.7 0.0995 0.221-0.166 0.265-0.479 0.0995-0.7-0.848-1.13-1.93-2.07-3.18-2.75l1.16-1.38z" fill="#000"/><path d="m8 2c0.685 0 1.35 0.0698 2 0.203l-0.749 0.885c-0.409-0.0577-0.827-0.0876-1.25-0.0876-2.9 0-5.48 1.39-7.1 3.55-0.166 0.221-0.479 0.265-0.7 0.0995-0.221-0.166-0.265-0.479-0.0995-0.7 1.8-2.4 4.67-3.95 7.9-3.95z" fill="#000"/><path d="m7.63 5.01c-2.26 0.113-4.25 1.24-5.53 2.94-0.166 0.221-0.121 0.534 0.0995 0.7 0.221 0.166 0.534 0.121 0.7-0.0995 0.909-1.21 2.24-2.09 3.77-2.41l0.956-1.13z" fill="#000"/><path d="m8 14c0.552 0 1-0.448 1-1s-0.448-1-1-1c-0.552 0-1 0.448-1 1s0.448 1 1 1z" fill="#000"/></svg>
