<svg viewBox="0 0 16 16" xmlns="http://www.w3.org/2000/svg"><path d="m5.15 3.15c0.195-0.195 0.512-0.195 0.707 0l2.15 2.15 2.15-2.15c0.195-0.195 0.512-0.195 0.707 0 0.195 0.195 0.195 0.512 0 0.707l-2.15 2.15 2.15 2.15c0.195 0.195 0.195 0.512 0 0.707-0.195 0.195-0.512 0.195-0.707 0l-2.15-2.15-2.15 2.15c-0.195 0.195-0.512 0.195-0.707 0-0.195-0.195-0.195-0.512 0-0.707l2.15-2.15-2.15-2.15c-0.195-0.195-0.195-0.512 0-0.707z" fill="#000"/><path d="m9 13c0 0.552-0.448 1-1 1-0.552 0-1-0.448-1-1s0.448-1 1-1c0.552 0 1 0.448 1 1z" fill="#000"/></svg>
