<svg viewBox="0 0 16 16" xmlns="http://www.w3.org/2000/svg"><path d="m0.9 6.55c1.62-2.16 4.2-3.55 7.1-3.55s5.48 1.39 7.1 3.55c0.166 0.221 0.479 0.265 0.7 0.0995 0.221-0.166 0.265-0.479 0.0995-0.7-1.8-2.4-4.67-3.95-7.9-3.95-3.23 0-6.1 1.55-7.9 3.95-0.166 0.221-0.121 0.534 0.0995 0.7 0.221 0.166 0.534 0.121 0.7-0.0995z" fill="#000"/><path d="m2.9 8.55c1.16-1.55 3.02-2.55 5.1-2.55 2.09 0 3.94 1 5.1 2.55 0.166 0.221 0.479 0.265 0.7 0.0995 0.221-0.166 0.265-0.479 0.0995-0.7-1.34-1.79-3.49-2.95-5.9-2.95-2.41 0-4.56 1.16-5.9 2.95-0.166 0.221-0.121 0.534 0.0995 0.7 0.221 0.166 0.534 0.121 0.7-0.0995z" fill="#000"/><path d="m8 9c-1.27 0-2.39 0.608-3.1 1.55-0.166 0.221-0.479 0.265-0.7 0.0995-0.221-0.166-0.265-0.479-0.0995-0.7 0.888-1.18 2.3-1.95 3.9-1.95 1.6 0 3.01 0.767 3.9 1.95 0.166 0.221 0.121 0.534-0.0995 0.7-0.221 0.166-0.534 0.121-0.7-0.0995-0.708-0.942-1.83-1.55-3.1-1.55z" fill="#000"/><path d="m8 14c0.552 0 1-0.448 1-1s-0.448-1-1-1c-0.552 0-1 0.448-1 1s0.448 1 1 1z" fill="#000"/></svg>
