<svg viewBox="0 0 16 16" xmlns="http://www.w3.org/2000/svg"><path d="m8.5 7c0.276 0 0.5 0.224 0.5 0.5v1.5h1.5c0.276 0 0.5 0.224 0.5 0.5s-0.224 0.5-0.5 0.5h-1.5v1.5c0 0.276-0.224 0.5-0.5 0.5s-0.5-0.224-0.5-0.5v-1.5h-1.5c-0.276 0-0.5-0.224-0.5-0.5s0.224-0.5 0.5-0.5h1.5v-1.5c0-0.276 0.224-0.5 0.5-0.5z" fill="#000"/><path d="m11.3 4c0.975 0.0153 1.57 0.077 2.05 0.322 0.564 0.288 1.02 0.746 1.31 1.31 0.327 0.642 0.327 1.48 0.327 3.16v2.4l-0.0049 1.11c-0.0153 0.975-0.077 1.57-0.322 2.05l-0.115 0.206c-0.288 0.47-0.701 0.853-1.2 1.1l-0.123 0.0576c-0.46 0.198-1.03 0.251-1.93 0.265l-1.11 0.0049h-3.4c-1.68 0-2.52-2e-4 -3.16-0.327-0.494-0.252-0.907-0.635-1.2-1.1l-0.115-0.206c-0.245-0.481-0.307-1.07-0.322-2.05l-0.00488-1.11v-2.4c0-1.58 7e-5 -2.41 0.27-3.04l0.0576-0.123c0.252-0.494 0.635-0.907 1.1-1.2l0.206-0.115c0.642-0.327 1.48-0.327 3.16-0.327h3.4l1.11 0.00488zm-4.51 0.995c-0.856 0-1.44 3.5e-4 -1.89 0.0371-0.438 0.0358-0.663 0.101-0.819 0.181-0.376 0.192-0.682 0.498-0.874 0.874-0.0797 0.156-0.145 0.381-0.181 0.819-0.0368 0.45-0.0371 1.03-0.0371 1.89v2.4c0 0.856 3.5e-4 1.44 0.0371 1.89 0.0358 0.438 0.101 0.663 0.181 0.819 0.192 0.376 0.498 0.682 0.874 0.874 0.156 0.0797 0.381 0.145 0.819 0.181 0.45 0.0368 1.03 0.0371 1.89 0.0371h3.4c0.856 0 1.44-3e-4 1.89-0.0371 0.438-0.0358 0.663-0.101 0.819-0.181 0.376-0.192 0.682-0.498 0.874-0.874 0.0797-0.156 0.145-0.381 0.181-0.819 0.0368-0.45 0.0371-1.03 0.0371-1.89v-2.4c0-0.856-3e-4 -1.44-0.0371-1.89-0.0358-0.438-0.101-0.663-0.181-0.819-0.192-0.376-0.498-0.682-0.874-0.874-0.156-0.0797-0.381-0.145-0.819-0.181-0.45-0.0368-1.03-0.0371-1.89-0.0371h-3.4z" clip-rule="evenodd" fill="#000" fill-rule="evenodd"/><path d="m11.3 2c0.975 0.0153 1.57 0.077 2.05 0.322 0.564 0.288 1.02 0.746 1.31 1.31 0.0889 0.175 0.152 0.364 0.199 0.581-0.305-0.315-0.66-0.582-1.06-0.783-0.388-0.198-0.831-0.302-1.41-0.361-0.092-0.0142-0.197-0.0271-0.319-0.0371-0.45-0.0368-1.03-0.0371-1.89-0.0371h-3.4c-0.856 0-1.44 3.5e-4 -1.89 0.0371-0.122 0.01-0.228 0.0228-0.32 0.0371-0.576 0.0591-1.02 0.164-1.41 0.361-0.395 0.201-0.75 0.468-1.05 0.783 0.0363-0.167 0.0804-0.318 0.141-0.458l0.0576-0.123c0.252-0.494 0.635-0.907 1.1-1.2l0.206-0.115c0.642-0.327 1.48-0.327 3.16-0.327h3.4l1.11 0.00488z" fill="#000"/><path d="m10.8 0.00488c0.975 0.0153 1.57 0.077 2.05 0.322 0.564 0.288 1.02 0.746 1.31 1.31 0.0014 0.00285 0.0024 0.00592 0.0039 0.00878-0.116-0.0756-0.236-0.147-0.36-0.211-0.683-0.348-1.53-0.416-2.99-0.431-0.316-0.00515-0.685-0.00488-1.13-0.00488h-2.4c-0.443 0-0.812-2.85e-4 -1.13 0.00488-1.45 0.0142-2.31 0.0828-2.99 0.431-0.125 0.0635-0.244 0.135-0.36 0.211l0.00391-0.00878c0.252-0.494 0.635-0.907 1.1-1.2l0.206-0.115c0.642-0.327 1.48-0.327 3.16-0.327h2.4l1.11 0.00488z" fill="#000"/></svg>
