<svg fill="none" viewBox="0 0 24 24" xmlns="http://www.w3.org/2000/svg"><path d="m14 2.73c-1.12-0.964-2.78-0.964-3.91 0l-5.83 5c-0.775 0.665-1.22 1.64-1.22 2.66v9.12c0 1.38 1.12 2.5 2.5 2.5h13c1.38 0 2.5-1.12 2.5-2.5v-9.12c0-1.02-0.446-1.99-1.22-2.66l-5.83-5zm1.05 18.3h3.5c0.828 0 1.5-0.672 1.5-1.5v-9.12c0-0.73-0.319-1.42-0.872-1.9l-5.83-5c-0.749-0.642-1.85-0.642-2.6 0l-5.83 5c-0.554 0.475-0.872 1.17-0.872 1.9v9.12c0 0.828 0.672 1.5 1.5 1.5h3.5v-7c0-1.1 0.895-2 2-2h2c1.1 0 2 0.895 2 2v7zm-1 0h-4v-7c0-0.552 0.448-1 1-1h2c0.552 0 1 0.448 1 1v7z" clip-rule="evenodd" fill="#000" fill-rule="evenodd"/></svg>
