<svg viewBox="0 0 24 24" xmlns="http://www.w3.org/2000/svg"><path d="m14 0c-0.552 0-1 0.448-1 1v2h-10.5c-0.276 0-0.5 0.224-0.5 0.5s0.224 0.5 0.5 0.5h10.5v2c0 0.552 0.448 1 1 1s1-0.448 1-1v-5c0-0.552-0.448-1-1-1z" fill="#000"/><path d="m17 3.5c0-0.276 0.224-0.5 0.5-0.5h4c0.276 0 0.5 0.224 0.5 0.5s-0.224 0.5-0.5 0.5h-4c-0.276 0-0.5-0.224-0.5-0.5z" fill="#000"/><path d="m7 9c0-0.552 0.448-1 1-1s1 0.448 1 1v5c0 0.552-0.448 1-1 1s-1-0.448-1-1v-2h-4.5c-0.276 0-0.5-0.224-0.5-0.5s0.224-0.5 0.5-0.5h4.5v-2z" fill="#000"/><path d="m12 16c-0.552 0-1 0.448-1 1v2h-8.5c-0.276 0-0.5 0.224-0.5 0.5s0.224 0.5 0.5 0.5h8.5v2c0 0.552 0.448 1 1 1s1-0.448 1-1v-5c0-0.552-0.448-1-1-1z" fill="#000"/><path d="m11 11.5c0-0.276 0.224-0.5 0.5-0.5h10c0.276 0 0.5 0.224 0.5 0.5s-0.224 0.5-0.5 0.5h-10c-0.276 0-0.5-0.224-0.5-0.5z" fill="#000"/><path d="m15.5 19c-0.276 0-0.5 0.224-0.5 0.5s0.224 0.5 0.5 0.5h6c0.276 0 0.5-0.224 0.5-0.5s-0.224-0.5-0.5-0.5h-6z" fill="#000"/></svg>
