<svg xmlns="http://www.w3.org/2000/svg" viewBox="0 0 16 16" fill="none">
  <path fill="#000"
    d="M11.497 1C14.028 1 16 2.916 16 5.62c0 3.247-2.806 6.43-7.37 9.15-.183.115-.447.23-.63.23-.173 0-.447-.115-.63-.23C2.806 12.05 0 8.867 0 5.62 0 2.915 1.972 1 4.503 1 6.1 1 7.268 1.834 8 3.07 8.742 1.824 9.9 1 11.497 1Zm0 1c-1.144 0-2.02.544-2.638 1.582l-.862 1.446L7.14 3.58C6.53 2.551 5.645 2 4.503 2 2.49 2 1 3.504 1 5.62c0 2.703 2.41 5.625 6.902 8.303l.066.037.03.016a.742.742 0 0 0 .078-.04l.042-.025C12.59 11.245 15 8.323 15 5.621 15 3.503 13.51 2 11.497 2Z" />
</svg>