<svg xmlns="http://www.w3.org/2000/svg" viewBox="0 0 16 16" fill="none">
  <path fill="#000" fill-rule="evenodd"
    d="m8 2.117-1.648 3.26c-.22.436-.64.73-1.115.8l-3.628.528 2.607 2.511c.35.338.515.828.432 1.313l-.611 3.56 3.28-1.684c.428-.22.938-.22 1.366 0l3.28 1.683-.611-3.56a1.475 1.475 0 0 1 .432-1.312l2.607-2.511-3.628-.528a1.488 1.488 0 0 1-1.115-.8L8 2.117Zm.438-1.35a.493.493 0 0 0-.876 0L5.46 4.926a.488.488 0 0 1-.366.261l-4.675.68a.478.478 0 0 0-.27.819l3.375 3.25c.114.11.166.268.14.423l-.787 4.58c-.067.391.35.69.709.506l4.189-2.15a.496.496 0 0 1 .452 0l4.19 2.15c.358.183.775-.115.708-.506l-.787-4.58a.475.475 0 0 1 .14-.423l3.376-3.25a.478.478 0 0 0-.27-.818l-4.676-.68a.488.488 0 0 1-.366-.262L8.438.766Z"
    clip-rule="evenodd" />
</svg>