<svg width="16" height="16" viewBox="0 0 16 16" xmlns="http://www.w3.org/2000/svg"><path d="M11.1464 1.85355C10.9512 1.65829 10.9512 1.34171 11.1464 1.14645C11.3417 0.951184 11.6583 0.951184 11.8536 1.14645L15.8536 5.14645C16.0488 5.34171 16.0488 5.65829 15.8536 5.85355L11.8536 9.85355C11.6583 10.0488 11.3417 10.0488 11.1464 9.85355C10.9512 9.65829 10.9512 9.34171 11.1464 9.14645L14.2929 6H5C2.79086 6 1 7.79086 1 10C1 12.2091 2.79086 14 5 14H12.5C12.7761 14 13 14.2239 13 14.5C13 14.7761 12.7761 15 12.5 15H5C2.23858 15 0 12.7614 0 10C0 7.23858 2.23858 5 5 5H14.2929L11.1464 1.85355Z"/></svg>