<svg width="16" height="16" viewBox="0 0 16 16" xmlns="http://www.w3.org/2000/svg"><path d="M4.85355 1.85355C5.04882 1.65829 5.04882 1.34171 4.85355 1.14645C4.65829 0.951184 4.34171 0.951184 4.14645 1.14645L0.146447 5.14645C-0.0488155 5.34171 -0.0488155 5.65829 0.146447 5.85355L4.14645 9.85355C4.34171 10.0488 4.65829 10.0488 4.85355 9.85355C5.04882 9.65829 5.04882 9.34171 4.85355 9.14645L1.70711 6H11C13.2091 6 15 7.79086 15 10C15 12.2091 13.2091 14 11 14H3.5C3.22386 14 3 14.2239 3 14.5C3 14.7761 3.22386 15 3.5 15H11C13.7614 15 16 12.7614 16 10C16 7.23858 13.7614 5 11 5H1.70711L4.85355 1.85355Z"/></svg>