<svg viewBox="0 0 24 24" xmlns="http://www.w3.org/2000/svg"><path d="m14 1.82-1.67-1.67c-0.195-0.195-0.512-0.195-0.707 0l-1.67 1.67c-0.0934-0.073-0.202-0.153-0.322-0.233-0.4-0.266-1-0.582-1.65-0.586-1.33-0.00776-3 1.28-3 4 0 1.68 0.845 2.92 1.61 3.87 0.143 0.178 0.278 0.341 0.405 0.495 0.23 0.277 0.434 0.523 0.608 0.77 0.268 0.38 0.377 0.647 0.377 0.86 0 0.458-0.256 0.655-0.79 1.03-0.244 0.174-0.554 0.395-0.793 0.703-0.253 0.326-0.417 0.734-0.417 1.26 0 1.2 0.612 1.95 1.17 2.44 0.18 0.158 0.38 0.308 0.536 0.425 0.0672 0.0505 0.126 0.0946 0.171 0.13 0.0404 0.032 0.0716 0.0582 0.0955 0.0795-0.0134 0.031-0.0334 0.0722-0.0631 0.124-0.0757 0.132-0.183 0.282-0.3 0.428-0.115 0.144-0.232 0.276-0.321 0.372-0.044 0.0477-0.0805 0.086-0.106 0.112l-0.0285 0.0292-0.00687 7e-3 -0.00145 0.0014c-0.132 0.132-0.18 0.328-0.123 0.506 0.0571 0.178 0.209 0.31 0.394 0.341l0.00346 6e-4 0.0196 0.0036c0.0182 0.0035 0.0465 9e-3 0.0832 0.0169 0.0737 0.0158 0.181 0.0408 0.311 0.0768 0.261 0.0726 0.604 0.187 0.941 0.356 0.702 0.351 1.22 0.848 1.22 1.55v2.5c0 0.276 0.224 0.5 0.5 0.5s0.5-0.224 0.5-0.5v-2.5c0-1.3-0.979-2.05-1.78-2.45-0.284-0.142-0.565-0.25-0.811-0.331 0.126-0.16 0.259-0.344 0.365-0.528 0.101-0.177 0.222-0.43 0.222-0.693 0-0.233-0.116-0.408-0.202-0.511-0.0892-0.107-0.201-0.201-0.3-0.279-0.0821-0.0649-0.161-0.124-0.239-0.182-0.138-0.103-0.275-0.206-0.43-0.341-0.441-0.386-0.829-0.886-0.829-1.69 0-0.299 0.0858-0.492 0.208-0.649 0.136-0.175 0.327-0.319 0.582-0.501l0.0655-0.0463c0.467-0.33 1.14-0.808 1.14-1.8 0-0.537-0.266-1.02-0.56-1.44-0.195-0.277-0.443-0.576-0.69-0.874-0.122-0.147-0.244-0.294-0.359-0.439-0.735-0.919-1.39-1.93-1.39-3.25 0-2.28 1.33-3 2-3 0.352 0.00205 0.751 0.186 1.1 0.419 0.167 0.111 0.307 0.223 0.405 0.306 0.0488 0.0416 0.0865 0.0758 0.111 0.0987 0.0124 0.0115 0.0214 0.0201 0.0269 0.0254l0.00623 0.00604c0.195 0.194 0.511 0.193 0.706-0.00161l1.65-1.65 1.65 1.65c0.195 0.195 0.51 0.195 0.706 0.00161l0.0063-0.00604c0.0055-0.00532 0.0145-0.0139 0.0269-0.0254 0.0247-0.023 0.0624-0.0571 0.111-0.0987 0.0981-0.0837 0.238-0.195 0.405-0.306 0.35-0.233 0.749-0.417 1.1-0.419 0.666-0.00387 2 0.717 2 3 0 1.32-0.655 2.33-1.39 3.25-0.116 0.144-0.237 0.291-0.359 0.438-0.247 0.299-0.495 0.598-0.69 0.875-0.294 0.417-0.56 0.9-0.56 1.44 0 0.995 0.678 1.47 1.14 1.8l0.0655 0.0463c0.256 0.182 0.446 0.326 0.582 0.501 0.122 0.157 0.208 0.35 0.208 0.649 0 0.801-0.388 1.3-0.829 1.69-0.154 0.135-0.292 0.238-0.43 0.341-0.0783 0.0586-0.157 0.117-0.239 0.182-0.0987 0.0782-0.211 0.173-0.3 0.279-0.0863 0.103-0.202 0.278-0.202 0.511 0 0.263 0.121 0.516 0.222 0.693 0.106 0.185 0.239 0.368 0.365 0.528-0.246 0.081-0.527 0.189-0.811 0.331-0.798 0.399-1.78 1.15-1.78 2.45v2.5c0 0.276 0.224 0.5 0.5 0.5s0.5-0.224 0.5-0.5v-2.5c0-0.705 0.521-1.2 1.22-1.55 0.338-0.169 0.68-0.284 0.942-0.356 0.13-0.036 0.237-0.061 0.311-0.0768 0.0367-0.0079 0.065-0.0134 0.0832-0.0169l0.0196-0.0036 0.0035-6e-4c0.185-0.0309 0.337-0.162 0.394-0.341 0.0572-0.178 0.0099-0.374-0.122-0.506l-0.0015-0.0014-0.0069-7e-3 -0.0285-0.0292c-0.0251-0.026-0.0615-0.0643-0.106-0.112-0.0886-0.0959-0.205-0.227-0.321-0.372-0.117-0.146-0.224-0.296-0.3-0.428-0.0297-0.0519-0.0497-0.0931-0.0631-0.124 0.0239-0.0213 0.0551-0.0475 0.0956-0.0795 0.0448-0.0355 0.103-0.0796 0.171-0.13 0.155-0.116 0.356-0.267 0.536-0.425 0.558-0.489 1.17-1.24 1.17-2.44 0-0.528-0.164-0.936-0.418-1.26-0.239-0.308-0.548-0.529-0.793-0.703-0.534-0.38-0.79-0.577-0.79-1.03 0-0.213 0.109-0.48 0.377-0.86 0.174-0.247 0.378-0.493 0.608-0.77 0.127-0.154 0.263-0.317 0.405-0.495 0.765-0.956 1.61-2.2 1.61-3.87 0-2.72-1.67-4.01-3-4-0.648 0.00377-1.25 0.32-1.65 0.586-0.12 0.0801-0.229 0.16-0.322 0.233z" fill="#000"/><path d="m4 6.66c0-0.146-0.105-0.27-0.248-0.295l-2.05-0.36c-0.0171-3e-3 -0.0344-0.00451-0.0518-0.00451-0.204 0-0.334 0.134-0.403 0.236-0.0706 0.106-0.118 0.236-0.15 0.363-0.067 0.258-0.0973 0.585-0.0973 0.9s0.0303 0.642 0.0973 0.9c0.0329 0.127 0.0798 0.257 0.15 0.363 0.0686 0.103 0.199 0.236 0.403 0.236 0.0174 0 0.0347-0.00151 0.0518-0.00451l2.05-0.36c0.143-0.0252 0.248-0.15 0.248-0.295v-1.68z" fill="#000"/><path d="m5 14.7c0-0.146-0.105-0.27-0.248-0.296l-2.05-0.36c-0.0171-3e-3 -0.0344-0.0045-0.0518-0.0045-0.204 0-0.334 0.134-0.403 0.236-0.0706 0.106-0.118 0.236-0.15 0.363-0.067 0.258-0.0973 0.585-0.0973 0.9s0.0303 0.642 0.0973 0.9c0.0329 0.127 0.0798 0.257 0.15 0.363 0.0686 0.103 0.199 0.236 0.403 0.236 0.0174 0 0.0347-0.0015 0.0518-0.0045l2.05-0.36c0.143-0.0252 0.248-0.15 0.248-0.296v-1.68z" fill="#000"/><path d="m20.2 6.36c-0.143 0.0252-0.248 0.15-0.248 0.295v1.68c0 0.146 0.105 0.27 0.248 0.295l2.05 0.36c0.0171 3e-3 0.0344 0.00451 0.0517 0.00451 0.204 0 0.334-0.134 0.403-0.236 0.0706-0.106 0.118-0.236 0.15-0.363 0.067-0.258 0.0973-0.585 0.0973-0.9s-0.0303-0.642-0.0973-0.9c-0.0329-0.127-0.0799-0.257-0.15-0.363-0.0686-0.103-0.199-0.236-0.403-0.236-0.0173 0-0.0346 0.00151-0.0517 0.00451l-2.05 0.36z" fill="#000"/><path d="m19 14.7c0-0.146 0.105-0.27 0.248-0.296l2.05-0.36c0.0171-3e-3 0.0344-0.0045 0.0517-0.0045 0.204 0 0.334 0.134 0.403 0.236 0.0706 0.106 0.118 0.236 0.15 0.363 0.067 0.258 0.0973 0.585 0.0973 0.9s-0.0303 0.642-0.0973 0.9c-0.0329 0.127-0.0799 0.257-0.15 0.363-0.0686 0.103-0.199 0.236-0.403 0.236-0.0173 0-0.0346-0.0015-0.0517-0.0045l-2.05-0.36c-0.143-0.0252-0.248-0.15-0.248-0.296v-1.68z" fill="#000"/></svg>
