<svg viewBox="0 0 24 24" xmlns="http://www.w3.org/2000/svg"><path d="m13.8 1c0.19 0 0.38 0.07 0.53 0.22 0.29 0.29 0.29 0.77 0 1.06l-1.9 1.9c0.156 0.0494 0.31 0.109 0.459 0.179l1.26-1.26c1.16-1.16 2.89-1.4 4.29-0.723-0.086-0.229-0.22-0.439-0.398-0.616-0.33-0.33-0.77-0.51-1.24-0.51s-0.91 0.18-1.24 0.51h-0.01v-0.00999c0-0.47-0.18-0.91-0.51-1.24s-0.77-0.51-1.24-0.51-0.91 0.18-1.24 0.51l-2.62 2.62c-0.09-0.23-0.22-0.44-0.4-0.62-0.33-0.33-0.77-0.51-1.24-0.51s-0.91 0.18-1.24 0.51c-0.67 0.67-1.34 1.35-2.01 2.03-1.06 1.07-2.13 2.15-3.2 3.21-1.16 1.13-1.8 2.64-1.8 4.25 0 1.22 0.357 2.39 1.03 3.38 0.043-0.527 0.138-1.05 0.285-1.56-0.694-1.8-0.308-3.92 1.16-5.37 1.01-0.988 2-1.99 2.99-2.99 0.744-0.751 1.49-1.5 2.24-2.25 0.15-0.15 0.34-0.22 0.53-0.22s0.38 0.07 0.53 0.22c0.29 0.29 0.29 0.77 0 1.06l-2.41 2.4c-0.19 0.19-0.19 0.5 0 0.69l0.15 0.144 6.72-6.28c0.15-0.15 0.34-0.22 0.53-0.22z" fill="#000"/><path d="m15.5 4.51c0.33-0.33 0.77-0.51 1.24-0.51s0.91 0.18 1.24 0.51c0.33 0.33 0.51 0.77 0.51 1.24v0.00999h0.01c0.33-0.33 0.77-0.51 1.24-0.51s0.91 0.18 1.24 0.51c0.33 0.33 0.51 0.77 0.51 1.24 0 0.47-0.18 0.91-0.51 1.25h0.01c0.47 0 0.91 0.18 1.24 0.51 0.33 0.33 0.51 0.77 0.51 1.24 0 0.37-0.11 0.72-0.32 1.01 0.4 0.04 0.77 0.21 1.06 0.5 0.33 0.33 0.51 0.77 0.51 1.24 0 0.47-0.18 0.91-0.51 1.24-0.97 0.97-1.95 1.95-2.93 2.92-1.75 1.74-3.55 3.53-5.31 5.31-1.14 1.16-2.67 1.79-4.27 1.79s-3.11-0.63-4.24-1.76l-1.98-1.98c-1.14-1.14-1.76-2.66-1.76-4.27s0.64-3.12 1.8-4.25c1.07-1.06 2.14-2.14 3.2-3.21 0.67-0.68 1.34-1.36 2.01-2.03 0.33-0.33 0.77-0.51 1.24-0.51s0.91 0.18 1.24 0.51c0.18 0.18 0.31 0.39 0.4 0.62l2.62-2.62zm1.77 0.71c-0.15-0.15-0.34-0.22-0.53-0.22s-0.38 0.07-0.53 0.22l-6.19 6.14c-0.09 0.09-0.22 0.14-0.34 0.14s-0.24-0.04-0.34-0.14c-0.19-0.19-0.19-0.5 0-0.69l2.41-2.4c0.29-0.29 0.29-0.77 0-1.06-0.15-0.15-0.34-0.22-0.53-0.22s-0.38 0.07-0.53 0.22c-0.75 0.745-1.49 1.5-2.24 2.25-0.993 1-1.99 2-2.99 2.99-1.98 1.95-1.99 5.14-0.03 7.1l1.98 1.98c0.98 0.97 2.25 1.46 3.54 1.46s2.58-0.5 3.56-1.49c1.68-1.7 3.37-3.38 5.07-5.06 1.06-1.05 2.12-2.11 3.18-3.16 0.29-0.29 0.29-0.77 0-1.06-0.15-0.15-0.34-0.22-0.53-0.22s-0.38 0.07-0.53 0.22l-3.78 3.78c-0.13 0.13-0.3 0.19-0.47 0.19s-0.34-0.06-0.47-0.19c-0.26-0.26-0.26-0.68 0-0.94l4.53-4.53c0.29-0.29 0.29-0.77 0-1.06-0.15-0.15-0.34-0.22-0.53-0.22s-0.38 0.07-0.53 0.22l-4.47 4.47c-0.14 0.15-0.34 0.22-0.53 0.22s-0.38-0.0699-0.53-0.22c-0.29-0.29-0.29-0.77 0-1.06l5.34-5.34c0.29-0.29 0.29-0.77 0-1.06-0.15-0.15-0.34-0.22-0.53-0.22s-0.38 0.07-0.53 0.22l-5.34 5.34c-0.14 0.15-0.34 0.22-0.53 0.22s-0.38-0.07-0.53-0.22c-0.29-0.29-0.29-0.77 0-1.06l4.47-4.47c0.29-0.29 0.29-0.77 0-1.06z" clip-rule="evenodd" fill="#000" fill-rule="evenodd"/></svg>
