<svg viewBox="0 0 24 24" xmlns="http://www.w3.org/2000/svg"><path d="m6.5 16c3.18 0 7.63-1.33 9.61-3.81 0.17-0.22 0.49-0.25 0.7-0.08 0.22 0.17 0.25 0.48 0.08 0.7-2.18 2.72-6.98 4.19-10.4 4.19-0.28 0-0.5-0.22-0.5-0.5s0.22-0.5 0.5-0.5z" fill="#000"/><path d="m11.2 3.18c5.25-1.94 10.4-1.45 12.1 1.49 2.12 3.53-1.26 9.23-7.54 12.7-0.94 0.52-1.89 0.96-2.83 1.32v3.78c0 0.28-0.22 0.5-0.5 0.5s-0.5-0.22-0.5-0.5v-3.42c-5.01 1.65-9.68 1.07-11.4-1.75-1.97-3.3 0.84-8.48 6.33-12 0.36-0.56 0.78-0.93 1.45-1.34l-1.34-2.23c-0.14-0.24-0.07-0.55 0.17-0.69s0.55-0.07 0.69 0.17l1.38 2.3h0.02c0.66-0.25 1.3-0.36 1.91-0.36zm4.11 13.4c3.01-1.68 5.28-3.87 6.54-5.99h0.02c1.27-2.14 1.41-4.03 0.62-5.35-0.79-1.33-2.59-2.17-5.18-2.18-1.22 0-2.61 0.2-4.01 0.57 2.16 0.81 3.56 2.6 3.58 2.63 0.16 0.22 0.12 0.53-0.1 0.7-0.22 0.16-0.53 0.12-0.7-0.1-0.0018-0.00234-0.0043-0.00547-0.0074-0.00937-0.195-0.246-2.81-3.54-6.26-2.37l1.09 1.82c0.14 0.24 0.07 0.55-0.17 0.69-0.08 0.05-0.17 0.07-0.26 0.07-0.17 0-0.34-0.08-0.43-0.24l-1.15-1.91c-2.63 1.61-1.97 5.32-1.93 5.55 4.3e-4 0.0024 0.0011 0.0062 0.0011 0.0062 0.06 0.27-0.12 0.54-0.39 0.59h-0.1c-0.23 0-0.44-0.16-0.49-0.4-0.01-0.03-0.32-1.74 0.17-3.52-1.76 1.34-3.2 2.92-4.07 4.39-1.27 2.14-1.41 4.03-0.62 5.35 0.8 1.33 2.59 2.17 5.18 2.18 2.55 0.01 5.66-0.8 8.67-2.48z" clip-rule="evenodd" fill="#000" fill-rule="evenodd"/></svg>
