<svg fill="none" viewBox="0 0 24 24" xmlns="http://www.w3.org/2000/svg"><path d="m12 0c-0.552 0-1 0.448-1 1v1.17c-0.017 0.00283-0.0343 0.00572-0.0521 0.00868l-3.02 0.503c-1.5 0.251-2.26 0.376-2.85 0.699-0.873 0.476-1.54 1.26-1.86 2.2-0.221 0.637-0.221 1.4-0.221 2.92 0 1.52 0 2.29 0.221 2.92 0.326 0.939 0.99 1.72 1.86 2.2 0.592 0.323 1.34 0.448 2.85 0.699l1.07 0.178v0.5c0 0.552 0.448 1 1 1h0.998c-0.0073 1.4-0.047 2.43-0.263 3.32-0.183-0.198-0.444-0.322-0.735-0.322-0.552 0-1 0.448-1 1v1h-2v-1.5c0-0.276-0.224-0.5-0.5-0.5s-0.5 0.224-0.5 0.5v4c0 0.276 0.224 0.5 0.5 0.5s0.5-0.224 0.5-0.5v-1.5h2v1c0 0.552 0.448 1 1 1 0.552 0 1-0.448 1-1v-1h2v1c0 0.552 0.448 1 1 1s1-0.448 1-1v-1h2v1.5c0 0.276 0.224 0.5 0.5 0.5s0.5-0.224 0.5-0.5v-4c0-0.276-0.224-0.5-0.5-0.5s-0.5 0.224-0.5 0.5v1.5h-2v-1c0-0.552-0.448-1-1-1-0.291 0-0.552 0.124-0.735 0.322-0.216-0.888-0.256-1.92-0.263-3.32h0.998c0.552 0 1-0.448 1-1v-0.5l1.07-0.178c1.5-0.251 2.26-0.376 2.85-0.699 0.873-0.476 1.54-1.26 1.86-2.2 0.221-0.637 0.221-1.4 0.221-2.92 0-1.52 0-2.29-0.221-2.92-0.326-0.939-0.99-1.72-1.86-2.2-0.592-0.323-1.34-0.448-2.85-0.699l-3.02-0.503c-0.0177-0.00296-0.0351-0.00586-0.0521-0.00869v-1.17c0-0.552-0.448-1-1-1zm0.888 13.8 3.02-0.503c1.58-0.264 2.13-0.368 2.53-0.59 0.654-0.357 1.15-0.945 1.4-1.65 0.152-0.439 0.166-0.993 0.166-2.6 0-1.6-0.0137-2.16-0.166-2.6-0.245-0.704-0.743-1.29-1.4-1.65-0.408-0.222-0.952-0.327-2.53-0.59l-3.02-0.503c-0.412-0.0687-0.553-0.091-0.69-0.1-0.132-0.00873-0.264-0.00873-0.396 0-0.137 0.00907-0.278 0.0314-0.69 0.1l-3.02 0.503c-1.58 0.264-2.13 0.368-2.53 0.59-0.655 0.357-1.15 0.945-1.4 1.65-0.152 0.439-0.166 0.993-0.166 2.6 0 1.6 0.0136 2.16 0.166 2.6 0.245 0.704 0.743 1.29 1.4 1.65 0.408 0.222 0.952 0.327 2.53 0.59l3.02 0.503c0.412 0.0687 0.553 0.091 0.69 0.1 0.132 0.0087 0.264 0.0087 0.396 0 0.137-0.0091 0.278-0.0314 0.69-0.1z" clip-rule="evenodd" fill="#000" fill-rule="evenodd"/></svg>
