<svg fill="none" viewBox="0 0 24 24" xmlns="http://www.w3.org/2000/svg"><path d="m0 9.4c0-2.24 0-3.36 0.436-4.22 0.383-0.753 0.995-1.36 1.75-1.75 0.856-0.436 1.98-0.436 4.22-0.436h11.2c2.24 0 3.36 0 4.22 0.436 0.753 0.384 1.36 0.995 1.75 1.75 0.436 0.856 0.436 1.98 0.436 4.22v5.2c0 2.24 0 3.36-0.436 4.22-0.384 0.753-0.995 1.36-1.75 1.75-0.856 0.436-1.98 0.436-4.22 0.436h-11.2c-2.24 0-3.36 0-4.22-0.436-0.753-0.384-1.36-0.995-1.75-1.75-0.436-0.856-0.436-1.98-0.436-4.22v-5.2zm10-5.4h4v8.5c0 1.18 0 1.77 0.366 2.13 0.31 0.31 0.781 0.358 1.63 0.365v5h-8v-5c0.853-0.0072 1.32-0.0546 1.63-0.365 0.366-0.366 0.366-0.955 0.366-2.13v-8.5zm7 16h0.6c1.14 0 1.93-8e-4 2.55-0.0512 0.605-0.0494 0.953-0.142 1.22-0.276 0.564-0.288 1.02-0.746 1.31-1.31 0.134-0.263 0.226-0.611 0.276-1.22 0.0504-0.617 0.0512-1.41 0.0512-2.55v-5.2c0-1.14-8e-4 -1.93-0.0512-2.55-0.0494-0.605-0.142-0.953-0.276-1.22-0.288-0.564-0.746-1.02-1.31-1.31-0.263-0.134-0.611-0.226-1.22-0.276-0.325-0.0266-0.699-0.0393-1.15-0.0455v8.49c0 1.18 0 1.77-0.366 2.13-0.31 0.31-0.781 0.358-1.63 0.365v5zm-10-5c-0.853-0.0072-1.32-0.0546-1.63-0.365-0.366-0.366-0.366-0.955-0.366-2.13v-8.49c-0.447 0.00614-0.821 0.0189-1.15 0.0455-0.605 0.0494-0.953 0.142-1.22 0.276-0.564 0.288-1.02 0.747-1.31 1.31-0.134 0.263-0.226 0.611-0.276 1.22-0.0504 0.617-0.0512 1.41-0.0512 2.55v5.2c0 1.14 7.8e-4 1.93 0.0512 2.55 0.0494 0.605 0.142 0.953 0.276 1.22 0.288 0.564 0.747 1.02 1.31 1.31 0.263 0.134 0.611 0.226 1.22 0.276 0.617 0.0504 1.41 0.0512 2.55 0.0512h0.6v-5z" clip-rule="evenodd" fill="#000" fill-rule="evenodd"/></svg>
