<svg fill="none" viewBox="0 0 24 24" xmlns="http://www.w3.org/2000/svg"><path d="m9.64 1.01c-0.0662-0.00642-0.151-0.00701-0.391-0.00701-0.192 0-0.258 4.1e-4 -0.315 5e-3 -0.596 0.0488-1.11 0.447-1.3 1.01-0.018 0.0533-0.0346 0.118-0.0811 0.304l-0.304 1.22c-0.215 0.859-0.987 1.46-1.87 1.46-0.731 0-1.4-0.413-1.73-1.07l-0.271-0.543c-0.0604-0.121-0.0734-0.145-0.0853-0.163-0.0813-0.125-0.214-0.207-0.362-0.224-0.0216-0.00247-0.0492-0.00325-0.184-0.00325h-1.56l1.07 3.2c0.359 1.08 1.37 1.8 2.5 1.8 0.409 0 0.813-0.0952 1.18-0.278l1.34-0.669c0.155-0.0775 0.339-0.0692 0.486 0.0219s0.237 0.252 0.237 0.425c0 0.673-0.212 1.87-0.525 3.34-0.317 1.48-0.749 3.29-1.21 5.22-0.858 3.56 1.83 6.94 5.5 6.94h2.44c2.44 0 4.25-2.27 3.71-4.65-0.286-1.25 0.0912-2.56 0.998-3.47l0.766-0.766c0.456-0.456 1.2-0.456 1.65 0 0.0707 0.0707 0.187 0.0643 0.25-0.0139l0.543-0.678c0.145-0.181 0.239-0.299 0.305-0.393 0.0644-0.0918 0.081-0.132 0.087-0.151 0.0469-0.149 0.0211-0.312-0.0697-0.44-0.0116-0.0162-0.0399-0.0494-0.13-0.117-0.0922-0.0694-0.218-0.152-0.412-0.28l-5.57-3.66c-0.382-0.251-0.464-0.296-0.531-0.311-0.12-0.027-0.245-0.00915-0.352 0.0503-0.0598 0.0331-0.127 0.0994-0.423 0.447l-0.326 0.383c-0.0618 0.0725-0.0742 0.175-0.0316 0.26l0.0467 0.0936c0.245 0.491 0.0973 1.09-0.349 1.41-1.63 1.16-1.36 3.79-1.36 5.15v0.14c0 0.552-0.448 1-1 1s-1-0.448-1-1v-13.3c0-0.24-6e-4 -0.325-7e-3 -0.391-0.0692-0.714-0.634-1.28-1.35-1.35zm-0.363-1.01c0.201-2.46e-5 0.338-4.14e-5 0.459 0.0117 1.19 0.115 2.13 1.06 2.25 2.25 0.0117 0.121 0.0117 0.258 0.0117 0.459v10.3c0-1 0.988-2.53 1.78-3.1 0.046-0.0329 0.0613-0.0943 0.036-0.145l-0.0468-0.0935c-0.222-0.444-0.157-0.978 0.165-1.36l0.326-0.383c0.016-0.0188 0.0319-0.0375 0.0477-0.0561 0.22-0.259 0.411-0.484 0.652-0.617 0.322-0.178 0.698-0.232 1.06-0.151 0.268 0.0607 0.515 0.223 0.799 0.41 0.0203 0.0134 0.0407 0.0269 0.0614 0.0405l5.58 3.67c0.178 0.117 0.33 0.217 0.451 0.308 0.126 0.0947 0.246 0.2 0.343 0.336 0.272 0.383 0.35 0.871 0.209 1.32-0.0501 0.16-0.132 0.297-0.222 0.426-0.0865 0.123-0.2 0.266-0.333 0.432l-0.552 0.69c-0.435 0.544-1.25 0.588-1.74 0.0963-0.0656-0.0656-0.172-0.0656-0.238 0l-0.766 0.766c-0.663 0.663-0.939 1.62-0.73 2.54 0.687 3.01-1.6 5.87-4.68 5.87h-2.44c-4.31 0-7.49-3.98-6.47-8.18 0.465-1.93 0.895-3.73 1.21-5.2 0.197-0.925 0.344-1.7 0.426-2.28l-0.538 0.269c-0.505 0.252-1.06 0.384-1.63 0.384-1.56 0-2.95-1-3.45-2.49l-1.29-3.86c-0.0508-0.152-0.0253-0.32 0.0687-0.45 0.094-0.13 0.245-0.208 0.406-0.208h2.25 0.0214c0.102-5e-5 0.191-9e-5 0.277 0.00975 0.444 0.0508 0.842 0.297 1.09 0.671 0.0472 0.0724 0.087 0.152 0.132 0.243 0.00316 0.00631 0.00634 0.0127 0.00955 0.0191l0.271 0.543c0.158 0.315 0.479 0.514 0.832 0.514 0.427 0 0.799-0.29 0.902-0.704l0.309-1.24c0.0391-0.156 0.0659-0.264 0.0988-0.361 0.32-0.944 1.17-1.61 2.16-1.69 0.102-0.00835 0.213-0.00834 0.374-0.00832l0.0507-7.75e-7z" clip-rule="evenodd" fill="#000" fill-rule="evenodd"/></svg>
