<svg fill="none" viewBox="0 0 24 24" xmlns="http://www.w3.org/2000/svg"><path d="m0 8.4c0-2.24 0-3.36 0.436-4.22 0.383-0.753 0.995-1.36 1.75-1.75 0.856-0.436 1.98-0.436 4.22-0.436h11.2c2.24 0 3.36 0 4.22 0.436 0.753 0.384 1.36 0.995 1.75 1.75 0.436 0.856 0.436 1.98 0.436 4.22v7.2c0 2.24 0 3.36-0.436 4.22-0.384 0.753-0.995 1.36-1.75 1.75-0.856 0.436-1.98 0.436-4.22 0.436h-11.2c-2.24 0-3.36 0-4.22-0.436-0.753-0.384-1.36-0.995-1.75-1.75-0.436-0.856-0.436-1.98-0.436-4.22v-7.2zm23 7.2v-6.6h-4v4.5c0 1.18 0 1.77-0.366 2.13-0.31 0.31-0.781 0.358-1.63 0.365v5h0.6c1.14 0 1.93-8e-4 2.55-0.0512 0.605-0.0494 0.953-0.142 1.22-0.276 0.564-0.288 1.02-0.746 1.31-1.31 0.134-0.263 0.226-0.611 0.276-1.22 0.0504-0.617 0.0512-1.41 0.0512-2.55zm-9-2.1v-4.5h-4v4.5c0 1.18 0 1.77-0.366 2.13-0.31 0.31-0.781 0.358-1.63 0.365v5h8v-5c-0.853-0.0072-1.32-0.0546-1.63-0.365-0.366-0.366-0.366-0.955-0.366-2.13zm-9-4.5h-4v6.6c0 1.14 7.8e-4 1.93 0.0512 2.55 0.0494 0.605 0.142 0.953 0.276 1.22 0.288 0.564 0.747 1.02 1.31 1.31 0.263 0.134 0.611 0.226 1.22 0.276 0.617 0.0504 1.41 0.0512 2.55 0.0512h0.6v-5c-0.853-0.0072-1.32-0.0546-1.63-0.365-0.366-0.366-0.366-0.955-0.366-2.13v-4.5zm0-2c1.1 0 2-0.895 2-2s-0.895-2-2-2-2 0.895-2 2 0.895 2 2 2zm8-2c0 1.1-0.895 2-2 2-1.1 0-2-0.895-2-2s0.895-2 2-2c1.1 0 2 0.895 2 2zm2.14-1.32c-0.136 0.267-0.136 0.617-0.136 1.32s0 1.05 0.136 1.32c0.12 0.235 0.311 0.426 0.546 0.546 0.267 0.136 0.617 0.136 1.32 0.136h2c0.7 0 1.05 0 1.32-0.136 0.235-0.12 0.426-0.311 0.546-0.546 0.136-0.267 0.136-0.617 0.136-1.32s0-1.05-0.136-1.32c-0.12-0.235-0.311-0.426-0.546-0.546-0.267-0.136-0.617-0.136-1.32-0.136h-2c-0.7 0-1.05 0-1.32 0.136-0.235 0.12-0.426 0.311-0.546 0.546z" clip-rule="evenodd" fill="#000" fill-rule="evenodd"/></svg>
