<svg fill="none" viewBox="0 0 24 24" xmlns="http://www.w3.org/2000/svg"><path d="m8 1c1.33 0 2.46 0.87 2.85 2.07 0.375-0.0477 0.758-0.0723 1.15-0.0723s0.771 0.0246 1.15 0.0723c0.391-1.2 1.52-2.07 2.85-2.07 1.66 0 3 1.34 3 3 0 0.643-0.202 1.24-0.546 1.73 0.906 0.932 1.61 2.06 2.05 3.31 0.162-0.027 0.328-0.0411 0.498-0.0411 1.66 0 3 1.34 3 3s-1.34 3-3 3c-0.17 0-0.336-0.0141-0.498-0.0411-0.436 1.25-1.14 2.38-2.05 3.31 0.344 0.488 0.546 1.08 0.546 1.73 0 1.66-1.34 3-3 3-1.33 0-2.46-0.87-2.85-2.07-0.375 0.0477-0.758 0.0723-1.15 0.0723s-0.771-0.0246-1.15-0.0723c-0.391 1.2-1.52 2.07-2.85 2.07-1.66 0-3-1.34-3-3 0-0.643 0.202-1.24 0.547-1.73-0.906-0.932-1.61-2.06-2.05-3.31-0.162 0.027-0.328 0.0411-0.498 0.0411-1.66 0-3-1.34-3-3s1.34-3 3-3c0.17 0 0.336 0.0141 0.498 0.0411 0.436-1.25 1.14-2.38 2.05-3.31-0.344-0.488-0.547-1.08-0.547-1.73 0-1.66 1.34-3 3-3zm0 5c1.02 0 1.86-0.76 1.98-1.74-1.1 0.285-2.11 0.798-2.97 1.49 0.29 0.164 0.626 0.258 0.984 0.258zm-1.71-0.959c1.02-0.841 2.24-1.46 3.57-1.78-0.295-0.736-1.02-1.26-1.86-1.26-1.1 0-2 0.895-2 2 0 0.381 0.107 0.738 0.292 1.04zm-3.07 4.97c-0.0723-0.0079-0.146-0.012-0.22-0.012-1.1 0-2 0.895-2 2s0.895 2 2 2c0.0744 0 0.148-0.0041 0.22-0.012-0.144-0.64-0.22-1.3-0.22-1.99s0.0761-1.35 0.22-1.99zm0.945 3.61c-0.108-0.525-0.165-1.07-0.165-1.63s0.0569-1.1 0.165-1.63c0.505 0.363 0.835 0.956 0.835 1.63s-0.329 1.26-0.835 1.63zm0.277 1.01c0.928-0.51 1.56-1.5 1.56-2.63s-0.629-2.12-1.56-2.63c0.386-1.11 1.01-2.11 1.81-2.93 0.492 0.354 1.1 0.563 1.75 0.563 1.64 0 2.97-1.31 3-2.94 0.328-0.0409 0.662-0.062 1-0.062s0.673 0.0211 1 0.062c0.033 1.63 1.36 2.94 3 2.94 0.653 0 1.26-0.209 1.75-0.563 0.799 0.826 1.42 1.82 1.81 2.93-0.928 0.51-1.56 1.5-1.56 2.63s0.629 2.12 1.56 2.63c-0.386 1.11-1.01 2.11-1.81 2.93-0.492-0.354-1.1-0.563-1.75-0.563-1.64 0-2.97 1.31-3 2.94-0.328 0.0409-0.662 0.062-1 0.062s-0.673-0.0211-1-0.062c-0.033-1.63-1.36-2.94-3-2.94-0.653 0-1.26 0.209-1.75 0.563-0.799-0.826-1.42-1.82-1.81-2.93zm14.6-2.63c0 0.67 0.329 1.26 0.835 1.63 0.108-0.525 0.165-1.07 0.165-1.63s-0.0569-1.1-0.165-1.63c-0.506 0.363-0.835 0.956-0.835 1.63zm2 0c0 0.683-0.0761 1.35-0.22 1.99 0.0723 0.0079 0.146 0.012 0.22 0.012 1.1 0 2-0.895 2-2s-0.895-2-2-2c-0.0745 0-0.148 0.0041-0.22 0.012 0.144 0.64 0.22 1.3 0.22 1.99zm-6.86 8.74c0.295 0.736 1.02 1.26 1.86 1.26 1.1 0 2-0.895 2-2 0-0.381-0.107-0.738-0.292-1.04-1.02 0.841-2.24 1.46-3.57 1.78zm2.84-2.49c-0.862 0.687-1.87 1.2-2.97 1.49 0.126-0.984 0.966-1.74 1.98-1.74 0.358 0 0.693 0.0939 0.984 0.258zm-0.984-12.3c0.358 0 0.693-0.0939 0.984-0.258-0.862-0.687-1.87-1.2-2.97-1.49 0.126 0.984 0.966 1.74 1.98 1.74zm-1.86-2.74c1.33 0.324 2.54 0.944 3.57 1.78 0.185-0.303 0.292-0.66 0.292-1.04 0-1.1-0.895-2-2-2-0.842 0-1.56 0.52-1.86 1.26zm-7.85 15.7c-0.185 0.303-0.292 0.66-0.292 1.04 0 1.1 0.895 2 2 2 0.842 0 1.56-0.52 1.86-1.26-1.33-0.324-2.54-0.944-3.57-1.78zm3.69 0.785c-1.1-0.285-2.11-0.798-2.97-1.49 0.29-0.164 0.626-0.258 0.984-0.258 1.02 0 1.86 0.76 1.98 1.74z" clip-rule="evenodd" fill="#000" fill-rule="evenodd"/></svg>
