<svg fill="none" viewBox="0 0 24 24" xmlns="http://www.w3.org/2000/svg"><path d="m24 1.5c0-0.276-0.224-0.5-0.5-0.5-0.245 0-0.449 0.176-0.492 0.409-2e-3 0.0107-0.0037 0.0214-0.0055 0.0322-0.0062 0.0375-0.0124 0.075-0.027 0.11-0.0283 0.0679-0.0759 0.16-0.147 0.277-0.142 0.233-0.356 0.53-0.636 0.871-0.558 0.68-1.35 1.5-2.26 2.3-0.913 0.796-1.94 1.55-2.96 2.11-0.685 0.372-1.35 0.643-1.97 0.784v-1.39c0-0.276-0.224-0.5-0.5-0.5s-0.5 0.224-0.5 0.5v1.5h-2v-1.5c0-0.276-0.224-0.5-0.5-0.5s-0.5 0.224-0.5 0.5v1.5h-2v-1.5c0-0.276-0.224-0.5-0.5-0.5s-0.5 0.224-0.5 0.5v1.5h-4c-0.574 0-0.843-0.193-0.938-0.325-0.0897-0.125-0.215-0.284-0.376-0.414-0.162-0.132-0.394-0.261-0.686-0.261h-1c-0.552 0-1 0.448-1 1v5c0 0.552 0.448 1 1 1h1c0.292 0 0.524-0.129 0.686-0.261 0.161-0.13 0.286-0.289 0.376-0.414 0.0955-0.133 0.364-0.325 0.938-0.325h2.67c-1.02 0.825-1.67 2.09-1.67 3.5 0 2.49 2.01 4.5 4.5 4.5h4c2.49 0 4.5-2.01 4.5-4.5 0-0.276-0.224-0.5-0.5-0.5s-0.5 0.224-0.5 0.5c0 1.93-1.57 3.5-3.5 3.5h-4c-1.93 0-3.5-1.57-3.5-3.5 0-1.4 0.818-2.6 2-3.16v4.16c0 0.276 0.224 0.5 0.5 0.5s0.5-0.224 0.5-0.5v-4.46c0.163-0.0233 0.33-0.0354 0.5-0.0354h1.5v4.5c0 0.276 0.224 0.5 0.5 0.5s0.5-0.224 0.5-0.5v-4.5h2v4.5c0 0.276 0.224 0.5 0.5 0.5s0.5-0.224 0.5-0.5v-4.39c0.622 0.14 1.29 0.412 1.97 0.784 1.02 0.556 2.05 1.31 2.96 2.11 0.912 0.796 1.7 1.62 2.26 2.3 0.28 0.341 0.494 0.638 0.636 0.871 0.071 0.117 0.119 0.209 0.147 0.277 0.0146 0.035 0.0208 0.0725 0.027 0.11l0.0022 0.0133 0.0033 0.0189c0.0429 0.232 0.247 0.409 0.492 0.409 0.276 0 0.5-0.224 0.5-0.5v-18zm-9.91 10.5c1.09 0 2.26 0.417 3.36 1.01 1.11 0.6 2.19 1.41 3.14 2.23 0.951 0.829 1.78 1.69 2.38 2.42l0.0338 0.0414v-14.4l-0.0338 0.0414c-0.596 0.726-1.42 1.59-2.38 2.42-0.95 0.829-2.03 1.63-3.14 2.23-1.1 0.597-2.26 1.01-3.36 1.01h-10.1c-0.782 0-1.41-0.267-1.75-0.742-0.0715-0.0995-0.136-0.174-0.194-0.221-0.0342-0.0277-0.0533-0.0356-0.0595-0.0375h-0.996v5h0.996c0.0062-0.0019 0.0253-0.0098 0.0595-0.0375 0.0579-0.047 0.122-0.121 0.194-0.221 0.341-0.475 0.969-0.742 1.75-0.742h10.1z" clip-rule="evenodd" fill="#000" fill-rule="evenodd"/></svg>
