<svg viewBox="0 0 32 32" xmlns="http://www.w3.org/2000/svg"><path d="m12.5 12.8c-0.414 0-0.75-0.337-0.75-0.751 0 0 6e-4 -0.0413 0.0014-0.0619 0.0013-0.0323 0.0036-0.0756 8e-3 -0.128 0.0088-0.105 0.0258-0.25 0.0591-0.421 0.0659-0.339 0.199-0.799 0.471-1.27 0.573-0.983 1.7-1.87 3.71-1.87 1.4 0 2.51 0.426 3.24 1.25 0.727 0.808 1 1.89 1 3 0 1.89-1.15 2.83-2.06 3.49-0.106 0.0758-0.206 0.146-0.3 0.212-0.336 0.235-0.597 0.419-0.808 0.63-0.236 0.236-0.327 0.431-0.327 0.673v1.5c0 0.414-0.336 0.751-0.75 0.751s-0.75-0.336-0.75-0.75v-1.5c0-0.758 0.346-1.31 0.766-1.73 0.314-0.314 0.717-0.595 1.07-0.839l1e-3 -7e-4c0.0802-0.056 0.158-0.11 0.23-0.162 0.836-0.597 1.44-1.15 1.44-2.26 0-0.886-0.222-1.56-0.62-2-0.385-0.428-1.03-0.752-2.13-0.752-1.49 0-2.11 0.61-2.41 1.13-0.165 0.283-0.251 0.573-0.294 0.796-0.0214 0.11-0.0318 0.2-0.0367 0.259-0.0024 0.0292-0.0035 0.0504-0.0039 0.0621l-3e-4 0.0097c-0.0028 0.412-0.338 0.745-0.75 0.745z" fill="#000"/><path d="m17 23c0 0.552-0.448 1-1 1s-1-0.448-1-1 0.448-1 1-1 1 0.448 1 1z" fill="#000"/><path d="m32 16c0 8.84-7.16 16-16 16-8.84 0-16-7.16-16-16 0-8.84 7.16-16 16-16 8.84 0 16 7.16 16 16zm-1 0c0 8.28-6.72 15-15 15-8.28 0-15-6.72-15-15 0-8.28 6.72-15 15-15 8.28 0 15 6.72 15 15z" clip-rule="evenodd" fill="#000" fill-rule="evenodd"/></svg>
