<svg viewBox="0 0 32 32" xmlns="http://www.w3.org/2000/svg"><path d="m16 9c0.414 0 0.75 0.336 0.75 0.75v8.5c0 0.414-0.336 0.75-0.75 0.75s-0.75-0.336-0.75-0.75v-8.5c0-0.414 0.336-0.75 0.75-0.75z" fill="#000"/><path d="m17 23c0 0.552-0.448 1-1 1s-1-0.448-1-1 0.448-1 1-1 1 0.448 1 1z" fill="#000"/><path d="m1.87 6.66 4.78-4.78c0.692-0.692 1.04-1.04 1.44-1.29 0.358-0.219 0.748-0.381 1.16-0.479 0.46-0.111 0.949-0.111 1.93-0.111h9.63c0.978 0 1.47 0 1.93 0.111 0.408 0.098 0.798 0.26 1.16 0.479 0.404 0.247 0.75 0.593 1.44 1.29l4.78 4.78c0.692 0.692 1.04 1.04 1.29 1.44 0.219 0.358 0.381 0.748 0.479 1.16 0.11 0.46 0.11 0.949 0.11 1.93v9.63c0 0.978 0 1.47-0.11 1.93-0.098 0.408-0.26 0.798-0.479 1.16-0.247 0.404-0.593 0.75-1.29 1.44l-4.78 4.78c-0.692 0.692-1.04 1.04-1.44 1.29-0.358 0.219-0.748 0.381-1.16 0.479-0.46 0.11-0.95 0.11-1.93 0.11h-9.63c-0.978 0-1.47 0-1.93-0.11-0.408-0.098-0.798-0.26-1.16-0.479-0.404-0.247-0.75-0.593-1.44-1.29l-4.78-4.78c-0.692-0.692-1.04-1.04-1.29-1.44-0.219-0.358-0.381-0.748-0.479-1.16-0.111-0.46-0.111-0.95-0.111-1.93v-9.63c0-0.978 0-1.47 0.111-1.93 0.098-0.408 0.26-0.798 0.479-1.16 0.247-0.404 0.593-0.75 1.29-1.44zm0.707 18c-0.725-0.726-0.968-0.978-1.14-1.26-0.164-0.268-0.286-0.561-0.359-0.867-0.0765-0.318-0.0829-0.668-0.0829-1.69v-9.63c0-1.03 0.00643-1.38 0.0829-1.69 0.0735-0.306 0.195-0.599 0.359-0.867 0.171-0.279 0.414-0.531 1.14-1.26l4.78-4.78c0.725-0.725 0.978-0.968 1.26-1.14 0.268-0.164 0.561-0.286 0.867-0.359 0.318-0.0765 0.668-0.0829 1.69-0.0829h9.63c1.03 0 1.38 0.00643 1.69 0.0829 0.306 0.0735 0.599 0.195 0.867 0.359 0.279 0.171 0.531 0.414 1.26 1.14l4.78 4.78c0.725 0.725 0.968 0.978 1.14 1.26 0.164 0.268 0.286 0.561 0.359 0.867 0.0765 0.318 0.0829 0.668 0.0829 1.69v9.63c0 1.03-0.0064 1.38-0.0829 1.69-0.0735 0.306-0.195 0.599-0.359 0.867-0.171 0.279-0.414 0.531-1.14 1.26l-4.78 4.78c-0.726 0.725-0.978 0.968-1.26 1.14-0.268 0.164-0.561 0.286-0.867 0.359-0.318 0.0765-0.668 0.0829-1.69 0.0829h-9.63c-1.03 0-1.38-0.0064-1.69-0.0829-0.306-0.0735-0.599-0.195-0.867-0.359-0.279-0.171-0.531-0.414-1.26-1.14l-4.78-4.78z" clip-rule="evenodd" fill="#000" fill-rule="evenodd"/></svg>
