<svg viewBox="0 0 32 32" xmlns="http://www.w3.org/2000/svg"><path d="m22.8 12.3c0.304-0.308 0.304-0.808 0-1.12s-0.796-0.308-1.1 0l-7.75 7.86-3.6-3.65c-0.304-0.308-0.796-0.308-1.1 0-0.304 0.308-0.304 0.808 0 1.12l4.15 4.21c0.304 0.308 0.796 0.308 1.1 0l8.3-8.42z" fill="#000"/><path d="m32 16c0 8.84-7.16 16-16 16-8.84 0-16-7.16-16-16 0-8.84 7.16-16 16-16 8.84 0 16 7.16 16 16zm-1 0c0 8.28-6.72 15-15 15-8.28 0-15-6.72-15-15 0-8.28 6.72-15 15-15 8.28 0 15 6.72 15 15z" clip-rule="evenodd" fill="#000" fill-rule="evenodd"/></svg>
