<svg viewBox="0 0 32 32" xmlns="http://www.w3.org/2000/svg"><path d="m16.8 10.8c0-0.414-0.336-0.75-0.75-0.75s-0.75 0.336-0.75 0.75v8.5c0 0.414 0.336 0.75 0.75 0.75s0.75-0.336 0.75-0.75v-8.5z" fill="#000"/><path d="m16 25c0.552 0 1-0.448 1-1s-0.448-1-1-1-1 0.448-1 1 0.448 1 1 1z" fill="#000"/><path d="m12.4 2.2-12 24c-1.33 2.66 0.595 5.8 3.56 5.8h24c2.97 0 4.89-3.14 3.56-5.8l-12-24c-1.47-2.94-5.65-2.94-7.12 0zm-11.1 24.4 12-24c1.1-2.2 4.23-2.2 5.33 0l12 24c1 2-0.451 4.35-2.67 4.35h-24c-2.22 0-3.67-2.35-2.67-4.35z" clip-rule="evenodd" fill="#000" fill-rule="evenodd"/></svg>
