<svg viewBox="0 0 16 16" xmlns="http://www.w3.org/2000/svg"><path d="m8 2.57c0.237 3.7e-4 0.441 0.167 0.489 0.399l0.389 1.89 1.92-0.214 0.0869-0.00195c0.201 0.013 0.379 0.147 0.443 0.344 0.064 0.197-8e-4 0.411-0.156 0.54l-0.0723 0.0498-1.68 0.953 0.797 1.76 0.0283 0.083c0.0497 0.195-0.0228 0.406-0.19 0.528-0.168 0.121-0.39 0.125-0.56 0.0176l-0.0703-0.0527-1.43-1.3-1.43 1.3c-0.175 0.159-0.439 0.174-0.631 0.0352-0.192-0.139-0.259-0.395-0.161-0.611l0.796-1.76-1.68-0.954c-0.206-0.117-0.302-0.364-0.229-0.59 0.0734-0.225 0.296-0.368 0.531-0.342l1.92 0.214 0.39-1.89 0.0254-0.084c0.0744-0.188 0.257-0.315 0.465-0.315z" fill="#000"/><path d="m8 0c3.31 2.2e-4 6 2.69 6 6 0 1.14-0.32 2.21-0.873 3.12l1.7 2.55c0.205 0.308 0.225 0.706 0.0488 1.03-0.176 0.326-0.518 0.527-0.889 0.524l-2.34-0.0205-0.88 2.17c-0.139 0.343-0.457 0.582-0.825 0.62-0.368 0.0375-0.728-0.132-0.934-0.439l-1.01-1.51-1.01 1.52c-0.206 0.308-0.565 0.477-0.934 0.439-0.368-0.038-0.686-0.277-0.825-0.62l-0.88-2.17-2.34 0.0205c-0.37 0.0031-0.713-0.199-0.889-0.524-0.176-0.326-0.157-0.723 0.0488-1.03l1.7-2.56c-0.551-0.907-0.868-1.97-0.868-3.11 0-3.31 2.69-6 6-6zm-6 12.2 2.68-0.0235c0.205-0.0017 0.392 0.122 0.469 0.312l1.01 2.49 2-3.01c-0.0535 0.0014-0.107 0.0049-0.161 0.0049-1.79 0-3.4-0.787-4.5-2.03l-1.5 2.26zm10.5-2.26c-0.782 0.887-1.82 1.54-3 1.84l-0.893 1.33 1.24 1.85 1.01-2.49c0.077-0.19 0.263-0.314 0.468-0.312l2.68 0.0235-1.5-2.25zm-4.5-8.97c-2.76 0-5 2.24-5 5s2.24 5 5 5c2.76-2e-4 5-2.24 5-5s-2.24-5-5-5z" clip-rule="evenodd" fill="#000" fill-rule="evenodd"/></svg>
