<svg fill="none" viewBox="0 0 16 16" xmlns="http://www.w3.org/2000/svg"><path d="m14.9 11.1-0.062-0.07c-0.0704-0.0822-0.138-0.167-0.201-0.255l-0.16-0.233c-0.18-0.277-0.34-0.566-0.48-0.865-0.47-1-0.952-2.55-0.952-4.72-0.0017-1.31-0.514-2.56-1.43-3.49-0.914-0.933-2.16-1.47-3.46-1.5-1.31-0.0284-2.57 0.455-3.52 1.35-0.954 0.892-1.52 2.12-1.58 3.43l-5e-3 0.217c0 2.17-0.482 3.73-0.952 4.72-0.236 0.5-0.47 0.864-0.64 1.1l-0.06 0.082-0.171 0.208-0.032 0.035c-0.0695 0.0701-0.117 0.159-0.136 0.256-0.0189 0.0968-0.00879 0.197 0.0292 0.288s0.102 0.169 0.184 0.224c0.0821 0.0548 0.179 0.084 0.277 0.084h13c0.0987 0 0.195-0.0292 0.277-0.084 0.0821-0.0547 0.146-0.133 0.184-0.224 0.038-0.0911 0.0482-0.191 0.0292-0.288-0.0189-0.0969-0.0661-0.186-0.136-0.256zm-10.9-5.74 5e-3 -0.404c0-1.06 0.421-2.08 1.17-2.83 0.75-0.75 1.77-1.17 2.83-1.17 1.06 0 2.08 0.421 2.83 1.17 0.75 0.75 1.17 1.77 1.17 2.83 0 2.33 0.518 4.02 1.05 5.15 0.157 0.334 0.314 0.617 0.46 0.85h-11c0.145-0.233 0.302-0.516 0.46-0.85 0.498-1.06 0.987-2.62 1.04-4.75zm6.4 9.4c0.0394-0.0525 0.0681-0.112 0.0844-0.176s0.0199-0.13 0.0106-0.195-0.0313-0.128-0.0648-0.184c-0.0334-0.0565-0.0777-0.106-0.13-0.145s-0.112-0.068-0.176-0.0843-0.13-0.0199-0.195-0.0107c-0.065 0.0093-0.128 0.0313-0.184 0.0648-0.0565 0.0334-0.106 0.0777-0.145 0.13-0.366 0.487-0.946 0.8-1.6 0.8-0.311 3e-4 -0.617-0.0718-0.895-0.211s-0.519-0.341-0.705-0.589c-0.0796-0.106-0.198-0.176-0.329-0.195-0.131-0.0187-0.265 0.0154-0.371 0.095-0.106 0.0796-0.176 0.198-0.195 0.329-0.0188 0.131 0.0154 0.265 0.095 0.371 0.279 0.373 0.642 0.675 1.06 0.884 0.417 0.208 0.876 0.317 1.34 0.316 0.982 0 1.85-0.472 2.4-1.2z" fill="#000"/></svg>
