<svg viewBox="0 0 16 16" xmlns="http://www.w3.org/2000/svg"><path d="m5 3.5c0-0.276 0.224-0.5 0.5-0.5h5c0.276 0 0.5 0.224 0.5 0.5s-0.224 0.5-0.5 0.5h-5c-0.276 0-0.5-0.224-0.5-0.5z" fill="#000"/><path d="m6.5 5c-0.276 0-0.5 0.224-0.5 0.5s0.224 0.5 0.5 0.5h3c0.276 0 0.5-0.224 0.5-0.5s-0.224-0.5-0.5-0.5h-3z" fill="#000"/><path d="m2 1.5c0-0.828 0.672-1.5 1.5-1.5h9c0.828 0 1.5 0.672 1.5 1.5v10c0 0.546-0.292 1.02-0.728 1.29l-0.141 0.423c-0.171 0.513-0.171 1.07 0 1.58l0.0698 0.209h0.3c0.276 0 0.5 0.224 0.5 0.5s-0.224 0.5-0.5 0.5h-0.648l-0.0112 1e-4 -0.012-1e-4h-8.83c-1.1 0-2-0.895-2-2v-12.5zm10.5-0.5h-9c-0.276 0-0.5 0.224-0.5 0.5v10.8c0.294-0.17 0.636-0.268 1-0.268h8.5c0.276 0 0.5-0.224 0.5-0.5v-10c0-0.276-0.224-0.5-0.5-0.5zm-0.352 12h-8.15c-0.552 0-1 0.448-1 1s0.448 1 1 1h8.15c-0.195-0.652-0.195-1.35 0-2z" clip-rule="evenodd" fill="#000" fill-rule="evenodd"/></svg>
