<svg fill="none" viewBox="0 0 16 16" xmlns="http://www.w3.org/2000/svg"><path d="m7.65 14c-0.0831 0.026-0.173 0.0299-0.258 0.0104-0.0613-0.0128-0.12-0.0369-0.178-0.0694 0 0-0.00804-0.0044-0.0217-0.0126-0.184-0.11-1.51-0.907-3.2-0.907-1.81 0-3.21 0.91-3.22 0.92-0.15 0.1-0.35 0.11-0.51 0.02s-0.26-0.26-0.26-0.44v-10c0-0.17 0.08-0.32 0.22-0.42 0.00329-0.00188 0.00992-0.00597 0.0198-0.0121 0.2-0.123 1.73-1.07 3.76-1.07 1.64 0 2.95 0.614 3.5 0.916 0.552-0.303 1.86-0.916 3.5-0.916 2.03 0 3.56 0.944 3.76 1.07 0.0099 0.0061 0.0165 0.0102 0.0198 0.0121 0.14 0.09 0.22 0.25 0.22 0.42v10c0 0.18-0.1 0.35-0.26 0.44-0.07 0.04-0.16 0.06-0.24 0.06h-0.01c-0.1 0-0.19-0.03-0.28-0.08 0 0-8e-3 -0.0044-0.0217-0.0126-0.184-0.11-1.51-0.907-3.2-0.907-1.66 0-2.98 0.765-3.19 0.9-0.0191 0.0146-0.0393 0.028-0.0606 0.04-0.0286 0.0163-0.0604 0.0293-0.0936 0.039zm0.354-1.31c0.68-0.309 1.74-0.666 2.99-0.666 1.26 0 2.32 0.36 3 0.67v-8.88c-0.46-0.25-1.61-0.79-3-0.79-1.38 0-2.52 0.522-2.99 0.784v8.88zm-1.01 0.0045c-0.68-0.31-1.74-0.67-3-0.67s-2.32 0.36-3 0.67v-8.88c0.46-0.26 1.61-0.79 3-0.79s2.54 0.54 3 0.79v8.88z" clip-rule="evenodd" fill="#000" fill-rule="evenodd"/></svg>
