<svg viewBox="0 0 16 16" xmlns="http://www.w3.org/2000/svg"><path d="m6 7.5c0-0.276-0.224-0.5-0.5-0.5h-1c-0.276 0-0.5 0.224-0.5 0.5v1c0 0.276 0.224 0.5 0.5 0.5h1c0.276 0 0.5-0.224 0.5-0.5v-1z" fill="#000"/><path d="m6 10.5c0-0.276-0.224-0.5-0.5-0.5h-1c-0.276 0-0.5 0.224-0.5 0.5v1c0 0.276 0.224 0.5 0.5 0.5h1c0.276 0 0.5-0.224 0.5-0.5v-1z" fill="#000"/><path d="m7.5 7h1c0.276 0 0.5 0.224 0.5 0.5v1c0 0.276-0.224 0.5-0.5 0.5h-1c-0.276 0-0.5-0.224-0.5-0.5v-1c0-0.276 0.224-0.5 0.5-0.5z" fill="#000"/><path d="m8.5 10h-1c-0.276 0-0.5 0.224-0.5 0.5v1c0 0.276 0.224 0.5 0.5 0.5h1c0.276 0 0.5-0.224 0.5-0.5v-1c0-0.276-0.224-0.5-0.5-0.5z" fill="#000"/><path d="m10 7.5c0-0.276 0.224-0.5 0.5-0.5h1c0.276 0 0.5 0.224 0.5 0.5v1c0 0.276-0.224 0.5-0.5 0.5h-1c-0.276 0-0.5-0.224-0.5-0.5v-1z" fill="#000"/><path d="m4.5 0c0.276 0 0.5 0.224 0.5 0.5v0.5h6v-0.5c0-0.276 0.224-0.5 0.5-0.5s0.5 0.224 0.5 0.5v0.5c1.66 0 3 1.34 3 3v8c0 1.66-1.34 3-3 3h-8c-1.66 0-3-1.34-3-3v-8c0-1.66 1.34-3 3-3v-0.5c0-0.276 0.224-0.5 0.5-0.5zm9.5 4v1h-12v-1c0-1.1 0.895-2 2-2v0.5c0 0.276 0.224 0.5 0.5 0.5s0.5-0.224 0.5-0.5v-0.5h6v0.5c0 0.276 0.224 0.5 0.5 0.5s0.5-0.224 0.5-0.5v-0.5c1.1 0 2 0.895 2 2zm-12 8v-6h12v6c0 1.1-0.895 2-2 2h-8c-1.1 0-2-0.895-2-2z" clip-rule="evenodd" fill="#000" fill-rule="evenodd"/></svg>
