<svg viewBox="0 0 16 16" xmlns="http://www.w3.org/2000/svg"><path d="m3.5 13.5c0.552 0 1-0.448 1-1s-0.448-1-1-1-1 0.448-1 1 0.448 1 1 1z" fill="#000"/><path d="m0 1c0-0.552 0.448-1 1-1h5c0.552 0 1 0.448 1 1v3.05l2.16-2.16c0.391-0.391 1.02-0.391 1.41 0l3.54 3.54c0.39 0.391 0.39 1.02 0 1.41l-2.16 2.16h3.05c0.552 0 1 0.448 1 1v5c0 0.552-0.448 1-1 1h-11.5c-1.93 0-3.5-1.57-3.5-3.5v-11.5zm1 0h5v11.5c0 1.38-1.12 2.5-2.5 2.5s-2.5-1.12-2.5-2.5v-11.5zm5.01 13.9 4.94-4.94h4.05v5h-9.05c0.0207-0.0203 0.0412-0.0409 0.0614-0.0617zm0.989-2.4 6.4-6.4-3.54-3.54-2.86 2.86v7.04l-1.7e-4 0.0352z" clip-rule="evenodd" fill="#000" fill-rule="evenodd"/></svg>
