<svg viewBox="0 0 16 16" xmlns="http://www.w3.org/2000/svg"><path d="m3 14c0.552 0 1-0.448 1-1s-0.448-1-1-1-1 0.448-1 1 0.448 1 1 1z" fill="#000"/><path d="m10 13c0 0.552-0.448 1-1 1-0.552 0-1-0.448-1-1s0.448-1 1-1c0.552 0 1 0.448 1 1z" fill="#000"/><path d="m6 14c0.552 0 1-0.448 1-1s-0.448-1-1-1-1 0.448-1 1 0.448 1 1 1z" fill="#000"/><path d="m13.9 0.146c-0.183-0.183-0.475-0.196-0.674-0.0306l-5.94 4.95c-0.407-0.0629-0.898-0.0629-1.67-0.0628l-1.09 1e-5c-0.451-1e-5 -0.815-1e-5 -1.11 0.0202-0.304 0.0208-0.574 0.0646-0.828 0.17-0.613 0.254-1.1 0.74-1.35 1.35-0.106 0.255-0.149 0.524-0.17 0.828-0.0202 0.296-0.0202 0.66-0.0202 1.11v2.28c-0.614 0.549-1 1.35-1 2.24 0 1.66 1.34 3 3 3h6c1.66 0 3-1.34 3-3 0-0.888-0.386-1.69-1-2.24v-0.764c-0.0022-0.612-0.0154-1.02-0.0865-1.38-0.0948-0.477-0.264-0.925-0.494-1.33l3.58-3.58v6.56c-0.598 0.346-1 0.992-1 1.73 0 1.1 0.895 2 2 2h0.5c0.276 0 0.5-0.224 0.5-0.5s-0.224-0.5-0.5-0.5h-0.5c-0.552 0-1-0.448-1-1s0.448-1 1-1h0.5c0.276 0 0.5-0.224 0.5-0.5s-0.224-0.5-0.5-0.5h-0.5v-7.29l0.354-0.354c0.195-0.195 0.195-0.512 0-0.707l-1.5-1.5zm-10.9 9.85h-0.994v-1.5c0-0.473 2.7e-4 -0.802 0.0179-1.06 0.0173-0.253 0.0496-0.401 0.0963-0.514 0.152-0.368 0.444-0.66 0.812-0.812 0.113-0.0467 0.26-0.079 0.514-0.0963 0.258-0.0176 0.588-0.0179 1.06-0.0179h1c0.953 0 1.36 0.00242 1.68 0.0672 1.39 0.276 2.47 1.36 2.75 2.75 0.0521 0.262 0.0639 0.575 0.0665 1.18h-0.993-0.0064-6-0.0064zm6.83-3.53c-0.402-0.441-0.891-0.801-1.44-1.05l5.08-4.24 0.824 0.824-4.47 4.47zm-8.83 6.53c0-1.1 0.893-2 1.99-2h6.01c1.1 0.0028 1.99 0.897 1.99 2 0 1.1-0.895 2-2 2h-6c-1.1 0-2-0.895-2-2z" clip-rule="evenodd" fill="#000" fill-rule="evenodd"/></svg>
