<svg fill="none" viewBox="0 0 16 16" xmlns="http://www.w3.org/2000/svg"><path d="m0 3.5c0-0.931 0-1.4 0.122-1.77 0.247-0.761 0.844-1.36 1.61-1.61 0.377-0.122 0.842-0.122 1.77-0.122h9c0.931 0 1.4 0 1.77 0.122 0.761 0.247 1.36 0.844 1.61 1.61 0.122 0.377 0.122 0.842 0.122 1.77s0 1.4-0.122 1.77c-0.247 0.761-0.844 1.36-1.61 1.61-0.376 0.122-0.842 0.122-1.77 0.122h-3.5v1.5c0 0.688 0.466 1.04 1.25 1.63l0.049 0.0367c0.758 0.568 1.7 1.33 1.7 2.84 0 1.66-1.34 3-3 3-1.66 0-3-1.34-3-3v-0.5c0-0.276 0.224-0.5 0.5-0.5s0.5 0.224 0.5 0.5v0.5c0 1.1 0.895 2 2 2 1.1 0 2-0.895 2-2 0-0.988-0.558-1.48-1.3-2.04-0.0486-0.0365-0.0989-0.0736-0.15-0.112-0.674-0.498-1.55-1.15-1.55-2.35v-1.5h-4.5c-0.931 0-1.4 0-1.77-0.122-0.761-0.247-1.36-0.844-1.61-1.61-0.122-0.377-0.122-0.842-0.122-1.77zm4.31-2.5h4.88l2.5 5h-4.88l-2.5-5zm8.5 5-2.5-5h2.19c1.01 0 1.28 0.0123 1.46 0.0734 0.457 0.148 0.815 0.506 0.963 0.963 0.0611 0.188 0.0734 0.455 0.0734 1.46s-0.0123 1.28-0.0734 1.46c-0.148 0.457-0.506 0.815-0.963 0.963-0.167 0.0543-0.397 0.0701-1.15 0.0729zm-9.62-5c-0.758 0.00283-0.988 0.0186-1.15 0.0729-0.457 0.148-0.815 0.506-0.963 0.963-0.0611 0.188-0.0734 0.455-0.0734 1.46s0.0123 1.28 0.0734 1.46c0.148 0.457 0.506 0.815 0.963 0.963 0.188 0.0611 0.455 0.0734 1.46 0.0734h2.19l-2.5-5z" clip-rule="evenodd" fill="#000" fill-rule="evenodd"/></svg>
