<svg viewBox="0 0 16 16" xmlns="http://www.w3.org/2000/svg"><path d="m5.85 8.85-4.15 4.15h3.59l2.35-2.35 0.707 0.707-2.5 2.5c-0.0938 0.0937-0.221 0.146-0.354 0.146h-5c-0.202 0-0.385-0.122-0.462-0.309-0.0774-0.187-0.0346-0.402 0.108-0.545l5-5 0.707 0.707z" fill="#000"/><path d="m12 1.13c0.465-0.175 0.978-0.174 1.44 0 0.231 0.0866 0.431 0.226 0.637 0.403 0.203 0.175 0.436 0.409 0.726 0.698 0.29 0.29 0.523 0.522 0.698 0.725 0.178 0.206 0.316 0.406 0.402 0.637 0.175 0.465 0.175 0.978 0 1.44-0.0865 0.231-0.225 0.43-0.402 0.636-0.175 0.203-0.409 0.436-0.698 0.726l-4.48 4.48c-0.16 0.16-0.421 0.16-0.581 0l-3.58-3.58c-0.0768-0.0769-0.12-0.181-0.12-0.29 4e-5 -0.109 0.0432-0.214 0.12-0.291l4.48-4.48c0.29-0.29 0.523-0.523 0.726-0.698 0.206-0.177 0.405-0.317 0.636-0.403zm1.09 0.937c-0.209-0.0783-0.436-0.0879-0.649-0.0293l-0.0908 0.0293c-0.0745 0.028-0.171 0.0839-0.334 0.225-0.168 0.145-0.372 0.347-0.672 0.647l-4.07 4.06 2.75 2.75 4.07-4.06 0.382-0.386c0.106-0.109 0.193-0.202 0.266-0.286 0.139-0.161 0.195-0.258 0.224-0.334 0.0896-0.239 0.0896-0.501 0-0.74-0.029-0.0772-0.0856-0.175-0.224-0.335-0.145-0.168-0.346-0.369-0.648-0.671-0.3-0.3-0.504-0.502-0.672-0.647-0.162-0.14-0.259-0.196-0.335-0.225z" clip-rule="evenodd" fill="#000" fill-rule="evenodd"/></svg>
