<svg fill="none" viewBox="0 0 16 16" xmlns="http://www.w3.org/2000/svg"><path d="m5.85 0.146c-0.195-0.195-0.512-0.195-0.707 0-0.195 0.195-0.195 0.512 0 0.707l0.628 0.628c-1.16 0.528-2.1 1.46-2.64 2.62l-1.33-0.999c-0.221-0.166-0.534-0.121-0.7 0.1-0.166 0.221-0.121 0.534 0.1 0.7l1.58 1.19c-0.0711 0.291-0.119 0.591-0.141 0.899l-0.144 2.01h-2c-0.276 0-0.5 0.224-0.5 0.5s0.224 0.5 0.5 0.5h1.93l-0.00109 0.0152c-0.0807 1.13 0.18 2.2 0.691 3.12l-1.84 0.921c-0.247 0.124-0.347 0.424-0.224 0.671 0.123 0.247 0.424 0.347 0.671 0.224l1.96-0.982c1.02 1.24 2.57 2.03 4.31 2.03s3.29-0.796 4.31-2.03l1.96 0.982c0.247 0.124 0.547 0.0234 0.671-0.224s0.0234-0.547-0.224-0.671l-1.84-0.921c0.511-0.915 0.771-1.99 0.691-3.12l-0.0011-0.0152h1.93c0.276 0 0.5-0.224 0.5-0.5s-0.224-0.5-0.5-0.5h-2l-0.144-2.01c-0.022-0.308-0.0696-0.608-0.141-0.899l1.58-1.19c0.221-0.166 0.266-0.479 0.1-0.7-0.166-0.221-0.479-0.266-0.7-0.1l-1.33 0.999c-0.541-1.16-1.48-2.09-2.64-2.62l0.628-0.628c0.195-0.195 0.195-0.512 0-0.707-0.195-0.195-0.512-0.195-0.707 0l-0.981 0.981c-0.376-0.0833-0.766-0.127-1.17-0.127s-0.79 0.0438-1.17 0.127l-0.981-0.981zm6.51 5.91 0.216 3.03c0.19 2.66-1.91 4.91-4.58 4.91-2.66 0-4.76-2.26-4.58-4.91l0.216-3.03c0.00694-0.097 0.017-0.193 0.0301-0.288 0.191 0.13 0.434 0.279 0.73 0.427 0.811 0.406 2.01 0.803 3.6 0.803s2.79-0.397 3.6-0.803c0.296-0.148 0.539-0.297 0.73-0.427 0.0131 0.0951 0.0231 0.191 0.0301 0.288zm-0.307-1.33c-0.651-1.61-2.23-2.73-4.05-2.73s-3.4 1.12-4.05 2.73c0.0348 0.029 0.0791 0.0643 0.133 0.104 0.166 0.125 0.422 0.296 0.767 0.468 0.689 0.344 1.74 0.697 3.15 0.697s2.46-0.353 3.15-0.697c0.345-0.173 0.601-0.344 0.767-0.468 0.0536-0.0402 0.0978-0.0755 0.133-0.104z" clip-rule="evenodd" fill="#000" fill-rule="evenodd"/></svg>
