<svg fill="none" viewBox="0 0 16 16" xmlns="http://www.w3.org/2000/svg"><path d="m14.7 12c0.142 0.061 0.307 0.0282 0.416-0.0824 0.108-0.111 0.137-0.276 0.0734-0.418l-1.22-2.69c1.23-0.773 2-2.04 2-3.91 0-3.48-2.69-4.87-6-4.87-2.69 0-4.97 0.918-5.73 3.13 0.563-0.088 1.14-0.128 1.73-0.128 1.77 0 3.51 0.37 4.83 1.32 1.37 0.987 2.17 2.52 2.17 4.55 0 0.761-0.112 1.45-0.324 2.07l2.05 1.03zm-11.8 1.23c0.207-0.456 0.0455-0.994-0.378-1.26-0.923-0.58-1.54-1.52-1.54-3.06 0-1.45 0.538-2.35 1.34-2.93 0.853-0.616 2.12-0.943 3.66-0.943s2.8 0.327 3.66 0.943c0.804 0.58 1.34 1.49 1.34 2.93s-0.538 2.35-1.34 2.93c-0.853 0.616-2.12 0.943-3.66 0.943-0.0863 0-0.172-1e-3 -0.257-0.0031-0.163-4e-3 -0.325 0.0322-0.472 0.105l-2.85 1.42 0.49-1.08zm-2.06 2.69c0.108 0.111 0.273 0.143 0.416 0.0824l4.45-2.22c0.0932 0.0023 0.187 0.0034 0.281 0.0034 3.31 0 6-1.39 6-4.88 0-3.48-2.69-4.87-6-4.87s-6 1.39-6 4.87c0 1.87 0.774 3.14 2 3.91l-1.22 2.69c-0.0641 0.141-0.0349 0.307 0.0734 0.418z" clip-rule="evenodd" fill="#000" fill-rule="evenodd"/></svg>
