<svg fill="none" viewBox="0 0 16 16" xmlns="http://www.w3.org/2000/svg"><path d="m0.573 4.1c-0.35 0.165-0.573 0.517-0.573 0.904 0 0.387 0.223 0.739 0.573 0.904l1.43 0.675v3.92c0 0.742 0.241 1.57 0.944 2.08 0.886 0.64 2.5 1.42 5.06 1.42 2.56 0 4.17-0.785 5.06-1.42 0.703-0.508 0.944-1.33 0.944-2.08v-3.92l1-0.473v4.39c0 0.276 0.224 0.5 0.5 0.5s0.5-0.224 0.5-0.5v-5.5 0c0-0.387-0.223-0.739-0.572-0.904l-5.72-2.7c-1.08-0.512-2.34-0.512-3.42 0l-5.72 2.7zm2.43 6.4v-3.45l3.29 1.56c1.08 0.512 2.34 0.512 3.42 0l3.29-1.56v3.45c0 0.556-0.18 1.01-0.53 1.26-0.724 0.523-2.13 1.24-4.47 1.24-2.34 0-3.75-0.712-4.47-1.24-0.349-0.252-0.529-0.709-0.529-1.26zm3.72-8.2c0.812-0.384 1.75-0.384 2.56 0l5.72 2.7-5.72 2.7c-0.812 0.384-1.75 0.384-2.56 0l-5.72-2.7 5.72-2.7z" clip-rule="evenodd" fill="#000" fill-rule="evenodd"/></svg>
