<svg fill="none" viewBox="0 0 16 16" xmlns="http://www.w3.org/2000/svg"><path d="m14 4.95c1.14-0.232 2-1.24 2-2.45 0-1.38-1.12-2.5-2.5-2.5s-2.5 1.12-2.5 2.5c0 1.21 0.859 2.22 2 2.45v6.15c0 0.428-4e-4 0.719-0.0188 0.944-0.0179 0.219-0.0503 0.331-0.0902 0.41-0.0959 0.188-0.249 0.341-0.437 0.437-0.0782 0.0398-0.19 0.0723-0.41 0.0902-0.225 0.0184-0.516 0.0188-0.944 0.0188h-6.15c-0.232-1.14-1.24-2-2.45-2-1.38 0-2.5 1.12-2.5 2.5 0 1.38 1.12 2.5 2.5 2.5 1.21 0 2.22-0.859 2.45-2h6.17c0.402 0 0.735 0 1.01-0.0221 0.281-0.023 0.539-0.0723 0.782-0.196 0.376-0.192 0.682-0.498 0.874-0.874 0.124-0.243 0.173-0.501 0.196-0.782 0.0221-0.271 0.0221-0.603 0.0221-1.01v-6.17zm-0.5-0.95c0.828 0 1.5-0.672 1.5-1.5 0-0.828-0.672-1.5-1.5-1.5s-1.5 0.672-1.5 1.5c0 0.828 0.672 1.5 1.5 1.5zm-11 11c0.828 0 1.5-0.672 1.5-1.5 0-0.828-0.672-1.5-1.5-1.5s-1.5 0.672-1.5 1.5c0 0.828 0.672 1.5 1.5 1.5z" clip-rule="evenodd" fill="#000" fill-rule="evenodd"/></svg>
