<svg viewBox="0 0 16 16" xmlns="http://www.w3.org/2000/svg"><path d="m14.2 5.13c0.198-0.175 0.498-0.167 0.686 0.0195 0.187 0.186 0.196 0.487 0.0215 0.686l-4.93 5.59c0.202 0.68 0.034 1.45-0.503 1.98-0.781 0.781-2.05 0.781-2.83 0-0.781-0.781-0.781-2.05 0-2.83 0.536-0.536 1.3-0.704 1.98-0.505l5.57-4.95z" fill="#000"/><path d="m8 2c1.82 0 3.5 0.608 4.84 1.63l-0.765 0.68c-1.15-0.824-2.55-1.31-4.08-1.31-3.87 0-7 3.13-7 7 0 1.1 0.895 2 2 2h1.03c3.5e-4 0.336 0.0433 0.672 0.128 1h-1.16l-0.154-0.0039c-1.59-0.0803-2.85-1.39-2.85-3 0-4.42 3.58-8 8-8z" fill="#000"/><path d="m15.7 7.9c0.182 0.67 0.281 1.37 0.281 2.1 0 1.66-1.34 3-3 3h-1.1c0.077-0.299 0.12-0.604 0.127-0.91l0.0791-0.0898h0.894c1.1 0 2-0.895 2-2 0-0.399-0.0363-0.791-0.101-1.17l0.819-0.93z" fill="#000"/><path d="m8 5c0.925 0 1.8 0.251 2.54 0.671l-0.799 0.71c-0.523-0.24-1.11-0.381-1.75-0.381-2.26 0-4 1.81-4 3.5 0 0.276-0.224 0.5-0.5 0.5s-0.5-0.224-0.5-0.5c0-2.31 2.26-4.5 5-4.5z" fill="#000"/></svg>
