<svg viewBox="0 0 16 16" xmlns="http://www.w3.org/2000/svg"><path d="m1.83 5.13c-0.198-0.175-0.498-0.167-0.686 0.0195-0.187 0.186-0.196 0.487-0.0215 0.686l4.93 5.59c-0.202 0.68-0.0341 1.45 0.503 1.98 0.781 0.781 2.05 0.781 2.83 0 0.781-0.781 0.781-2.05 0-2.83-0.536-0.536-1.3-0.704-1.98-0.505l-5.57-4.95z" fill="#000"/><path d="m8 2c-1.82 0-3.5 0.608-4.84 1.63l0.765 0.679c1.15-0.824 2.55-1.31 4.08-1.31 3.87 0 7 3.13 7 7 0 1.1-0.895 2-2 2h-1.03c-4e-4 0.336-0.0422 0.672-0.127 1h1.16l0.154-0.0039c1.59-0.0803 2.85-1.39 2.85-3 0-4.42-3.58-8-8-8z" fill="#000"/><path d="m0.281 7.9c-0.182 0.67-0.281 1.37-0.281 2.1 0 1.66 1.34 3 3 3h1.1c-0.077-0.299-0.12-0.604-0.127-0.91l-0.0791-0.0898h-0.895c-1.1 0-2-0.895-2-2 0-0.399 0.0363-0.791 0.101-1.17l-0.819-0.93z" fill="#000"/></svg>
