<svg viewBox="0 0 16 16" xmlns="http://www.w3.org/2000/svg"><path d="m8 2c0.265 0 0.483 0.206 0.499 0.471l0.457 7.77c0.622 0.339 1.04 1 1.04 1.76 0 1.1-0.895 2-2 2s-2-0.895-2-2c5e-5 -0.758 0.421-1.42 1.04-1.76l0.458-7.77 0.0146-0.0957c0.0558-0.217 0.253-0.375 0.484-0.375z" fill="#000"/><path d="m5.44 3.49c-2.6 1.02-4.44 3.55-4.44 6.51 0 1.1 0.895 2 2 2h1c0 0.345 0.0437 0.68 0.126 1h-1.13l-0.154-0.0039c-1.59-0.0803-2.85-1.39-2.85-3 0-3.55 2.31-6.55 5.5-7.6l-0.0644 1.09z" fill="#000"/><path d="m10.5 2.4c3.2 1.05 5.5 4.05 5.5 7.6 0 1.66-1.34 3-3 3h-1.13c0.0823-0.32 0.126-0.655 0.126-1h1c1.1 0 2-0.895 2-2 0-2.96-1.84-5.49-4.44-6.51l-0.0644-1.09z" fill="#000"/><path d="m5.23 7.05c-0.762 0.672-1.23 1.58-1.23 2.45 0 0.276-0.224 0.5-0.5 0.5s-0.5-0.224-0.5-0.5c0-1.48 0.923-2.9 2.3-3.74l-0.0762 1.29z" fill="#000"/></svg>
