<svg fill="none" viewBox="0 0 16 16" xmlns="http://www.w3.org/2000/svg"><path d="m8 16c4.42 0 8-3.58 8-8 0-4.42-3.58-8-8-8-4.42 0-8 3.58-8 8 0 4.42 3.58 8 8 8zm5.29-3.42c1.06-1.23 1.71-2.83 1.71-4.58s-0.644-3.36-1.71-4.58l-2.13 2.13c-0.0043-0.00559-0.0087-0.0112-0.013-0.0167 0.534 0.68 0.853 1.54 0.853 2.47 0 0.924-0.314 1.78-0.84 2.45l2.13 2.13zm-0.707 0.707-2.13-2.13c0.0056-0.0043 0.0112-0.0087 0.0167-0.013-0.68 0.534-1.54 0.853-2.47 0.853-0.924 0-1.78-0.314-2.45-0.84l-2.13 2.13c1.23 1.06 2.83 1.71 4.58 1.71s3.36-0.644 4.58-1.71zm-9.87-0.707c-1.06-1.23-1.71-2.83-1.71-4.58s0.644-3.36 1.71-4.58l2.13 2.13c-0.527 0.677-0.84 1.53-0.84 2.45s0.314 1.78 0.84 2.45l-2.13 2.13zm2.84-7.74c0.677-0.527 1.53-0.84 2.45-0.84s1.78 0.314 2.45 0.84l2.13-2.13c-1.23-1.06-2.83-1.71-4.58-1.71s-3.36 0.644-4.58 1.71l2.13 2.13zm2.45 6.16c1.66 0 3-1.34 3-3s-1.34-3-3-3-3 1.34-3 3 1.34 3 3 3z" clip-rule="evenodd" fill="#000" fill-rule="evenodd"/></svg>
