<svg viewBox="0 0 16 16" xmlns="http://www.w3.org/2000/svg"><path d="m9.5 5c-0.276 0-0.5 0.224-0.5 0.5s0.224 0.5 0.5 0.5h3c0.276 0 0.5-0.224 0.5-0.5s-0.224-0.5-0.5-0.5h-3z" fill="#000"/><path d="m9.5 7c-0.276 0-0.5 0.224-0.5 0.5s0.224 0.5 0.5 0.5h3c0.276 0 0.5-0.224 0.5-0.5s-0.224-0.5-0.5-0.5h-3z" fill="#000"/><path d="m9 9.5c0-0.276 0.224-0.5 0.5-0.5h2c0.276 0 0.5 0.224 0.5 0.5s-0.224 0.5-0.5 0.5h-2c-0.276 0-0.5-0.224-0.5-0.5z" fill="#000"/><path d="m6.61 6.5c0 0.828-0.719 1.5-1.61 1.5s-1.61-0.672-1.61-1.5 0.719-1.5 1.61-1.5 1.61 0.672 1.61 1.5z" fill="#000"/><path d="m5 8h-0.0407c-0.92 0-1.72 0.585-1.94 1.42-0.079 0.295 0.16 0.582 0.486 0.582h3c0.326 0 0.565-0.286 0.486-0.582-0.223-0.834-1.02-1.42-1.94-1.42h-0.0407z" fill="#000"/><path d="m0.327 3.64c-0.327 0.642-0.327 1.48-0.327 3.16v2.4c0 1.68 0 2.52 0.327 3.16 0.288 0.564 0.747 1.02 1.31 1.31 0.642 0.327 1.48 0.327 3.16 0.327h6.4c1.68 0 2.52 0 3.16-0.327 0.564-0.288 1.02-0.746 1.31-1.31 0.327-0.642 0.327-1.48 0.327-3.16v-2.4c0-1.68 0-2.52-0.327-3.16-0.288-0.564-0.746-1.02-1.31-1.31-0.642-0.327-1.48-0.327-3.16-0.327h-6.4c-1.68 0-2.52 0-3.16 0.327-0.564 0.288-1.02 0.747-1.31 1.31zm10.9-0.638h-6.4c-0.857 0-1.44 7.8e-4 -1.89 0.0376-0.438 0.0358-0.663 0.101-0.819 0.18-0.376 0.192-0.682 0.498-0.874 0.874-0.0797 0.156-0.145 0.381-0.18 0.819-0.0368 0.45-0.0376 1.03-0.0376 1.89v2.4c0 0.857 7.8e-4 1.44 0.0376 1.89 0.0358 0.438 0.101 0.663 0.18 0.819 0.192 0.376 0.498 0.682 0.874 0.874 0.156 0.0797 0.381 0.145 0.819 0.18 0.45 0.0368 1.03 0.0376 1.89 0.0376h6.4c0.857 0 1.44-8e-4 1.89-0.0376 0.438-0.0358 0.663-0.101 0.819-0.18 0.376-0.192 0.682-0.498 0.874-0.874 0.0797-0.156 0.145-0.381 0.18-0.819 0.0368-0.45 0.0376-1.03 0.0376-1.89v-2.4c0-0.857-8e-4 -1.44-0.0376-1.89-0.0358-0.438-0.101-0.663-0.18-0.819-0.192-0.376-0.498-0.682-0.874-0.874-0.156-0.0797-0.381-0.145-0.819-0.18-0.45-0.0368-1.03-0.0376-1.89-0.0376z" clip-rule="evenodd" fill="#000" fill-rule="evenodd"/></svg>
