<svg fill="none" viewBox="0 0 16 16" xmlns="http://www.w3.org/2000/svg"><path d="m8 0c2.76 0 5 2.24 5 5 0 0.918-0.248 1.78-0.68 2.52l-0.818 1.41c-0.189 0.331-0.297 0.53-0.333 0.623-0.112 0.289-0.0887 0.204-0.138 0.51-0.0313 0.196-0.0312 0.444-0.0312 0.938v2c0 1.66-1.34 3-3 3s-3-1.34-3-3v-2c0-0.371-4.5e-4 -0.603-0.0137-0.778l-0.0176-0.16c-0.0244-0.153-0.0316-0.208-0.0459-0.261l-0.0918-0.249c-0.036-0.0926-0.144-0.292-0.333-0.623l-0.818-1.41c-0.432-0.739-0.68-1.6-0.68-2.52 0-2.76 2.24-5 5-5zm-2 12v1c0 1.1 0.895 2 2 2s2-0.895 2-2v-1h-4zm2-11c-2.21 0-4 1.79-4 4 0 0.736 0.198 1.42 0.543 2.01 0.358 0.613 0.631 1.08 0.823 1.42 0.173 0.303 0.327 0.579 0.396 0.758 0.0199 0.0512 0.0509 0.128 0.0635 0.161 0.018 0.0468 0.0418 0.111 0.0625 0.188 0.0207 0.0764 0.032 0.144 0.04 0.193 0.00564 0.0345 0.0187 0.117 0.0273 0.171 0.0472 0.295 0.044 0.643 0.044 1.1v0.0029h4v-0.0029c0-0.453-0.00327-0.802 0.0439-1.1 0.0087-0.0542 0.0217-0.136 0.0274-0.171 0.0081-0.0494 0.0193-0.117 0.04-0.193 0.0207-0.0765 0.0446-0.141 0.0625-0.188 0.0126-0.0326 0.0436-0.11 0.0635-0.161 0.0693-0.179 0.224-0.455 0.396-0.758 0.192-0.337 0.465-0.804 0.823-1.42 0.345-0.59 0.543-1.28 0.543-2.01 0-2.21-1.79-4-4-4z" clip-rule="evenodd" fill="#000" fill-rule="evenodd"/></svg>
