<svg viewBox="0 0 16 16" xmlns="http://www.w3.org/2000/svg"><path d="m10.5 13c0.276 0 0.5 0.224 0.5 0.5v2c0 0.276-0.224 0.5-0.5 0.5s-0.5-0.224-0.5-0.5v-2c0-0.276 0.224-0.5 0.5-0.5z" fill="#000"/><path d="m4.36 6.55c0.298-0.185 0.639 0.096 0.639 0.447 1e-5 0.201-0.103 0.389-0.266 0.506-0.117 0.0838-0.228 0.178-0.333 0.283l-2.61 2.61c-1.05 1.05-1.05 2.76 0 3.81 1.05 1.05 2.76 1.05 3.81 0l2.61-2.61c0.104-0.104 0.198-0.216 0.281-0.332 0.117-0.164 0.306-0.266 0.508-0.267 0.351 0 0.632 0.338 0.448 0.637-0.147 0.238-0.324 0.463-0.53 0.669l-2.61 2.61c-1.4 1.4-3.64 1.44-5.09 0.131l-0.138-0.131c-1.4-1.4-1.44-3.64-0.131-5.09l0.131-0.138 2.61-2.61c0.206-0.206 0.43-0.382 0.667-0.529z" fill="#000"/><path d="m12.1 12.1c0.195-0.195 0.512-0.195 0.707 0l2 2c0.195 0.195 0.195 0.512 0 0.707-0.195 0.195-0.512 0.195-0.707 0l-2-2c-0.195-0.195-0.195-0.512 0-0.707z" fill="#000"/><path d="m15.5 10c0.276 0 0.5 0.224 0.5 0.5s-0.224 0.5-0.5 0.5h-2c-0.276 0-0.5-0.224-0.5-0.5s0.224-0.5 0.5-0.5h2z" fill="#000"/><path d="m9.69 1.08c1.4-1.4 3.64-1.44 5.09-0.131l0.138 0.131c1.4 1.4 1.44 3.64 0.131 5.09l-0.131 0.138-2.61 2.61c-0.206 0.206-0.43 0.382-0.667 0.529-0.298 0.185-0.639-0.096-0.639-0.447 0-0.202 0.103-0.39 0.267-0.508 0.116-0.0834 0.228-0.177 0.332-0.281l2.61-2.61c1.05-1.05 1.05-2.76 0-3.81-1.05-1.05-2.76-1.05-3.81 0l-2.61 2.61c-0.104 0.104-0.197 0.216-0.28 0.332-0.117 0.164-0.307 0.267-0.509 0.267-0.351 1e-5 -0.632-0.338-0.448-0.637 0.147-0.238 0.324-0.463 0.53-0.669l2.61-2.61z" fill="#000"/><path d="m2.5 5c0.276 0 0.5 0.224 0.5 0.5s-0.224 0.5-0.5 0.5h-2c-0.276 0-0.5-0.224-0.5-0.5s0.224-0.5 0.5-0.5h2z" fill="#000"/><path d="m1.15 1.15c0.195-0.195 0.512-0.195 0.707 0l2 2c0.195 0.195 0.195 0.512 0 0.707-0.195 0.195-0.512 0.195-0.707 0l-2-2c-0.195-0.195-0.195-0.512 0-0.707z" fill="#000"/><path d="m5.5 0c0.276 0 0.5 0.224 0.5 0.5v2c0 0.276-0.224 0.5-0.5 0.5s-0.5-0.224-0.5-0.5v-2c0-0.276 0.224-0.5 0.5-0.5z" fill="#000"/></svg>
