<svg viewBox="0 0 16 16" xmlns="http://www.w3.org/2000/svg"><path d="m6 1.22v5.36l-1 1v-2.59h-3v4c0 0.488 0.0583 0.963 0.168 1.42l-0.807 0.807c-0.234-0.699-0.361-1.45-0.361-2.22l-3e-6 -7.72c-1.2e-5 -0.126-2.5e-5 -0.249 0.00847-0.353 0.00934-0.114 0.0314-0.249 0.101-0.385 0.0959-0.188 0.249-0.341 0.437-0.437 0.136-0.0691 0.271-0.0912 0.385-0.101 0.104-0.0085 0.227-0.00849 0.353-0.00848h2.5c0.098-7.28e-6 0.193-1.44e-5 0.275 0.00517 0.0888 0.00566 0.194 0.0189 0.305 0.0613 0.265 0.102 0.474 0.311 0.575 0.575 0.0423 0.11 0.0556 0.216 0.0613 0.305 0.00518 0.0813 0.00517 0.177 0.00516 0.275zm-3.99-0.215-5.7e-4 0.00659c-0.00476 0.0583-0.00515 0.139-0.00515 0.288v2.7h3v-2.77c0-0.115-2.4e-4 -0.178-0.00314-0.224l-4.3e-4 -0.00625-0.00624-4.3e-4c-0.0456-0.0029-0.108-0.00314-0.224-0.00314h-2.47c-0.148 0-0.229 3.9e-4 -0.288 0.00516l-0.0066 5.7e-4z" clip-rule="evenodd" fill="#000" fill-rule="evenodd"/><path d="m12.6 1.1e-6h-1.36c-0.098-7.28e-6 -0.194-1.44e-5 -0.275 0.00517-0.0888 0.00566-0.194 0.0189-0.305 0.0613-0.265 0.102-0.474 0.311-0.575 0.575-0.0423 0.11-0.0556 0.216-0.0612 0.305-0.00522 0.0813-0.00521 0.177-0.0052 0.275v1.36l1-1v-0.352c0-0.115 2e-4 -0.178 0.0031-0.224l5e-4 -0.00625 0.0062-4.3e-4c0.0456-0.0029 0.108-0.00314 0.224-0.00314h0.352l1-1z" fill="#000"/><path d="m2.91 13.8-2.05 2.05c-0.195 0.195-0.512 0.195-0.707 0-0.195-0.195-0.195-0.512 0-0.707l15-15c0.195-0.195 0.512-0.195 0.707 0 0.195 0.195 0.195 0.512 0 0.707l-0.854 0.854v7.29c0 3.87-3.13 7-7 7-2.01 0-3.82-0.845-5.09-2.2zm9.8-9.8h1.29v-1.29l-1.29 1.29zm-1.71 1.71 0.707-0.707h2.29v4c0 3.31-2.69 6-6 6-1.73 0-3.29-0.733-4.39-1.91l2.12-2.12c0.55 0.631 1.36 1.03 2.26 1.03 1.66 0 3-1.34 3-3v-3.29zm-1 1-3.55 3.55c0.367 0.451 0.926 0.74 1.55 0.74 1.1 0 2-0.895 2-2v-2.29z" clip-rule="evenodd" fill="#000" fill-rule="evenodd"/></svg>
