<svg viewBox="0 0 16 16" xmlns="http://www.w3.org/2000/svg"><path d="m8.2 6.1c0.14-0.103 0.325-0.127 0.488-0.0596 0.187 0.0775 0.309 0.26 0.309 0.462v5c0 0.276-0.224 0.5-0.5 0.5-0.276 0-0.5-0.224-0.5-0.5v-3.79l-1.15 1.15c-0.195 0.195-0.512 0.195-0.707 0-0.195-0.195-0.195-0.512 0-0.707l2-2 0.0566-0.0488z" fill="#000"/><path d="m5.76 0.00488c0.161 0.0228 0.304 0.123 0.378 0.271l0.895 1.79c0.316-0.0436 0.638-0.0664 0.966-0.0664 0.328 0 0.65 0.0229 0.966 0.0664l0.896-1.79c0.0741-0.148 0.217-0.249 0.378-0.271l0.0693-0.00488h4.88l0.0674 0.00488c0.332 0.044 0.536 0.407 0.38 0.719l-2.04 4.08c0.879 1.17 1.4 2.62 1.4 4.2 0 3.87-3.13 7-7 7-3.87-3e-4 -7-3.13-7-7 0-1.58 0.52-3.03 1.4-4.2l-2.04-4.08c-0.156-0.312 0.0477-0.675 0.38-0.719l0.0674-0.00488h4.88l0.0693 0.00488zm2.24 3c-3.31 3e-4 -6 2.69-6 6 0 3.31 2.69 6 6 6 3.31 0 6-2.69 6-6 0-3.31-2.69-6-6-6zm-4.89 0.99c0.806-0.787 1.8-1.38 2.91-1.71l-0.642-1.28h-3.77l1.5 2.99zm6.86-1.71c1.11 0.326 2.1 0.919 2.91 1.71l1.5-2.99h-3.77l-0.642 1.28z" clip-rule="evenodd" fill="#000" fill-rule="evenodd"/></svg>
