<svg viewBox="0 0 16 16" xmlns="http://www.w3.org/2000/svg"><path d="m6.5 3c-0.276 0-0.5 0.224-0.5 0.5s0.224 0.5 0.5 0.5h6c0.276 0 0.5-0.224 0.5-0.5s-0.224-0.5-0.5-0.5h-6z" fill="#000"/><path d="m6.5 6c-0.276 0-0.5 0.224-0.5 0.5s0.224 0.5 0.5 0.5h6c0.276 0 0.5-0.224 0.5-0.5s-0.224-0.5-0.5-0.5h-6z" fill="#000"/><path d="m6 9.5c0-0.276 0.224-0.5 0.5-0.5h2c0.276 0 0.5 0.224 0.5 0.5v3c0 0.276-0.224 0.5-0.5 0.5h-2c-0.276 0-0.5-0.224-0.5-0.5v-3z" fill="#000"/><path d="m10.5 9c-0.276 0-0.5 0.224-0.5 0.5s0.224 0.5 0.5 0.5h2c0.276 0 0.5-0.224 0.5-0.5s-0.224-0.5-0.5-0.5h-2z" fill="#000"/><path d="m10 12.5c0-0.276 0.224-0.5 0.5-0.5h2c0.276 0 0.5 0.224 0.5 0.5s-0.224 0.5-0.5 0.5h-2c-0.276 0-0.5-0.224-0.5-0.5z" fill="#000"/><path d="m12.3 1.26e-7h-5.64c-0.542-4.88e-6 -0.979-8.87e-6 -1.33 0.0289-0.364 0.0298-0.685 0.0927-0.981 0.244-0.47 0.24-0.853 0.622-1.09 1.09-0.151 0.296-0.214 0.616-0.244 0.981-0.0289 0.354-0.0289 0.791-0.0289 1.33v3.32h-1.7c-0.718 0-1.3 0.582-1.3 1.3v5.7c0 1.1 0.895 2 2 2h10.3c0.542 0 0.979 0 1.33-0.0289 0.364-0.0298 0.684-0.0927 0.981-0.244 0.47-0.24 0.853-0.622 1.09-1.09 0.151-0.296 0.214-0.616 0.244-0.981 0.0289-0.354 0.0289-0.791 0.0289-1.33v-8.64c0-0.542 0-0.979-0.0289-1.33-0.0298-0.364-0.0927-0.685-0.244-0.981-0.24-0.47-0.622-0.853-1.09-1.09-0.296-0.151-0.616-0.214-0.981-0.244-0.354-0.0289-0.791-0.0289-1.33-0.0289zm-0.0214 15h-8.57c0.17-0.294 0.268-0.636 0.268-1v-10.3c0-0.568 3.9e-4 -0.964 0.0256-1.27 0.0247-0.303 0.0708-0.476 0.138-0.608 0.144-0.282 0.373-0.512 0.656-0.656 0.132-0.0671 0.306-0.113 0.608-0.138 0.308-0.0252 0.705-0.0256 1.27-0.0256h5.6c0.568 0 0.964 3.9e-4 1.27 0.0256 0.303 0.0247 0.476 0.0708 0.608 0.138 0.282 0.144 0.512 0.373 0.656 0.656 0.0671 0.132 0.113 0.306 0.138 0.608 0.0252 0.308 0.0256 0.705 0.0256 1.27v8.6c0 0.568-4e-4 0.964-0.0256 1.27-0.0247 0.303-0.0708 0.476-0.138 0.608-0.144 0.282-0.373 0.512-0.656 0.656-0.132 0.0671-0.306 0.113-0.608 0.138-0.308 0.0252-0.705 0.0256-1.27 0.0256zm-11.3-6.7c0-0.166 0.134-0.3 0.3-0.3h1.7v6c0 0.552-0.448 1-1 1s-1-0.448-1-1v-5.7z" clip-rule="evenodd" fill="#000" fill-rule="evenodd"/></svg>
