<svg fill="none" viewBox="0 0 16 16" xmlns="http://www.w3.org/2000/svg"><path d="m14 6.5c0-0.828-0.672-1.5-1.5-1.5h-2.3l0.249-0.374c0.358-0.537 0.549-1.17 0.549-1.81v-0.314c0-1.38-1.12-2.5-2.5-2.5s-2.5 1.12-2.5 2.5v0.314c0 0.645 0.191 1.28 0.549 1.81l0.249 0.374h-2.3c-0.828 0-1.5 0.672-1.5 1.5v4.43c0 1.06-0.421 2.08-1.17 2.83l-0.536 0.536c-0.286 0.286-0.372 0.716-0.217 1.09 0.155 0.374 0.519 0.617 0.924 0.617h9c0.265 0 0.52-0.105 0.707-0.293l0.536-0.536c1.13-1.13 1.76-2.65 1.76-4.24v-4.43zm-10 1.5h9v-1.5c0-0.276-0.224-0.5-0.5-0.5h-3c-0.276 0-0.5-0.224-0.5-0.5v-0.197c0-0.197 0.0584-0.39 0.168-0.555l0.451-0.677c0.248-0.372 0.381-0.81 0.381-1.26v-0.314c0-0.828-0.672-1.5-1.5-1.5s-1.5 0.672-1.5 1.5v0.314c0 0.448 0.132 0.885 0.381 1.26l0.451 0.677c0.11 0.164 0.168 0.357 0.168 0.555v0.197c0 0.276-0.224 0.5-0.5 0.5h-3c-0.276 0-0.5 0.224-0.5 0.5v1.5zm7 7h-2.01c0.629-0.637 1.01-1.51 1.01-2.46v-0.0406c0-0.276-0.224-0.5-0.5-0.5s-0.5 0.224-0.5 0.5v0.0406c0 1.19-0.841 2.22-2.01 2.45l-0.0398 8e-3h-4.95l0.536-0.536c0.147-0.147 0.284-0.302 0.41-0.464 0.68-0.873 1.05-1.95 1.05-3.07v-1.93h9v1.93c0 1.33-0.527 2.6-1.46 3.54l-0.536 0.536z" clip-rule="evenodd" fill="#000" fill-rule="evenodd"/></svg>
