<svg viewBox="0 0 16 16" xmlns="http://www.w3.org/2000/svg"><path d="m0.248 5.47c0.194-0.464 0.567-0.889 1.25-1.6l-0.891-0.912c-0.644-0.66-0.644-1.73-1e-6 -2.39 0.644-0.66 1.69-0.66 2.33 0l0.89 0.911 0.714-0.731c0.405-0.415 0.608-0.622 0.841-0.7 0.205-0.0683 0.427-0.0683 0.632 1e-7 0.234 0.0777 0.436 0.285 0.841 0.7l5.34 5.46c0.416 0.426 0.625 0.639 0.701 0.806 0.247 0.541 0.0018 1.18-0.538 1.41-0.167 0.0702-0.461 0.0827-1.05 0.108-0.355 0.0151-0.533 0.0226-0.703 0.0496-0.528 0.0837-1.03 0.307-1.44 0.648-0.135 0.11-0.26 0.239-0.512 0.496l-0.266 0.272c-0.979 1-1.47 1.5-2.01 1.74-0.772 0.339-1.65 0.339-2.42 0-0.543-0.238-1.03-0.739-2.01-1.74-0.979-1-1.47-1.5-1.7-2.06-0.331-0.79-0.331-1.69 0-2.48zm5.89-3.98 5.34 5.46c0.215 0.22 0.352 0.36 0.446 0.466 0.0116 0.013 0.0216 0.0245 0.0303 0.0346-0.0131 0.00143-0.0281 0.00294-0.0452 0.00447-0.139 0.0124-0.332 0.0209-0.636 0.0338l-0.0493 0.00209c-0.308 0.013-0.54 0.0228-0.768 0.0589-0.704 0.112-1.37 0.41-1.93 0.864-0.18 0.147-0.345 0.315-0.562 0.538l-0.301 0.308c-0.499 0.511-0.839 0.858-1.12 1.11-0.275 0.246-0.44 0.352-0.571 0.41-0.515 0.226-1.1 0.226-1.61 0-0.131-0.0576-0.297-0.163-0.571-0.41-0.281-0.252-0.621-0.599-1.12-1.11-0.499-0.511-0.838-0.858-1.08-1.15-0.241-0.281-0.344-0.45-0.4-0.585-0.221-0.527-0.221-1.12 0-1.65 0.0563-0.134 0.16-0.304 0.4-0.585 0.165-0.192 0.371-0.411 0.638-0.688l1.69 1.73c-0.131 0.405-0.0386 0.868 0.276 1.19 0.445 0.455 1.17 0.455 1.61 0 0.445-0.455 0.445-1.19 0-1.65-0.315-0.322-0.768-0.416-1.16-0.283l-1.69-1.73 2.32-2.38c0.214-0.22 0.332-0.339 0.424-0.418l0.0104-0.00892 0.0104 0.00892c0.0912 0.0792 0.209 0.199 0.424 0.418zm-3.03 0.731-0.887 0.908-0.89-0.911c-0.245-0.251-0.245-0.657 0-0.908 0.245-0.251 0.642-0.251 0.887 0l0.89 0.911z" clip-rule="evenodd" fill="#000" fill-rule="evenodd"/><path d="m11 13.7c0-1.12 1.13-2.84 1.87-3.85 0.361-0.491 0.629-0.813 0.629-0.813s0.268 0.322 0.629 0.813c0.741 1.01 1.87 2.73 1.87 3.85 0 1.29-1.12 2.33-2.5 2.33s-2.5-1.04-2.5-2.33zm4 0c0 0.672-0.606 1.33-1.5 1.33s-1.5-0.661-1.5-1.33c0-0.201 0.0853-0.544 0.301-1.02 0.206-0.453 0.489-0.938 0.787-1.39 0.14-0.214 0.28-0.418 0.412-0.604 0.133 0.186 0.273 0.39 0.412 0.604 0.297 0.456 0.581 0.941 0.787 1.39 0.216 0.474 0.301 0.818 0.301 1.02z" clip-rule="evenodd" fill="#000" fill-rule="evenodd"/></svg>
