<svg viewBox="0 0 16 16" xmlns="http://www.w3.org/2000/svg"><path d="m13 3c0-0.552 0.448-1 1-1s1 0.448 1 1v10c0 0.552-0.448 1-1 1s-1-0.448-1-1v-10z" fill="#000" opacity=".3"/><path d="m2 10c0.552 0 1 0.448 1 1v2c0 0.552-0.448 1-1 1s-1-0.448-1-1v-2c0-0.552 0.448-1 1-1z" fill="#000"/><path d="m6 8c0.552 0 1 0.448 1 1v4c0 0.552-0.448 1-1 1s-1-0.448-1-1v-4c0-0.552 0.448-1 1-1z" fill="#000"/><path d="m10 5c0.552 0 1 0.448 1 1v7c0 0.552-0.448 1-1 1-0.552 0-1-0.448-1-1v-7c0-0.552 0.448-1 1-1z" fill="#000"/></svg>
