<svg fill="none" viewBox="0 0 16 16" xmlns="http://www.w3.org/2000/svg"><path d="m13.1 1.19e-10c0.412 0 0.751-2.47e-5 1.03 0.0225 0.281 0.023 0.54 0.0717 0.782 0.195 0.376 0.192 0.682 0.498 0.874 0.874 0.124 0.243 0.172 0.501 0.195 0.782 0.0225 0.275 0.0225 0.615 0.0225 1.03v0.199c0 0.412 0 0.751-0.0225 1.03-0.0229 0.281-0.0716 0.54-0.195 0.782-0.192 0.376-0.498 0.682-0.874 0.874-0.243 0.124-0.501 0.172-0.782 0.195-0.275 0.0225-0.615 0.0225-1.03 0.0225h-7.1v7.6c0 0.84 1.9e-4 1.26-0.163 1.58l-0.0586 0.104c-0.144 0.235-0.351 0.427-0.598 0.553l-0.125 0.0537c-0.307 0.11-0.721 0.109-1.46 0.109h-1.2l-0.557-0.0029c-0.406-0.0064-0.68-0.0282-0.899-0.106l-0.125-0.0537c-0.282-0.144-0.512-0.374-0.656-0.656-0.163-0.321-0.163-0.741-0.163-1.58v-11.2c0-0.735-2.22e-4 -1.15 0.109-1.46l0.0537-0.125c0.126-0.247 0.318-0.454 0.553-0.598l0.104-0.0586c0.241-0.122 0.537-0.152 1.02-0.16l0.557-0.00293h10.7zm-10.7 1c-0.437 0-0.704 0.00124-0.904 0.0176-0.093 0.0076-0.149 0.0164-0.184 0.0244-0.016 0.00377-0.0258 0.00783-0.0312 0.00977-0.00448 0.0016-0.00781 0.00293-0.00781 0.00293-0.0941 0.0479-0.171 0.125-0.219 0.219 0 0-0.00133 0.00333-0.00293 0.00781-0.00194 0.00548-6e-3 0.0152-0.00977 0.0312-0.00805 0.0342-0.0168 0.0906-0.0244 0.184-0.0163 0.2-0.0176 0.468-0.0176 0.904v0.6h0.5c0.276 0 0.5 0.224 0.5 0.5s-0.224 0.5-0.5 0.5h-0.5v2h0.5c0.276 0 0.5 0.224 0.5 0.5s-0.224 0.5-0.5 0.5h-0.5v2h0.5c0.276 0 0.5 0.224 0.5 0.5s-0.224 0.5-0.5 0.5h-0.5v2h0.5c0.276 0 0.5 0.224 0.5 0.5s-0.224 0.5-0.5 0.5h-0.5v0.6c0 0.436 0.00124 0.704 0.0176 0.904 0.0076 0.093 0.0164 0.149 0.0244 0.184 0.00377 0.016 0.00783 0.0258 0.00977 0.0313 0.0016 0.0044 0.00293 0.0078 0.00293 0.0078 0.0479 0.094 0.125 0.171 0.219 0.219 0 0 0.00333 0.0013 0.00781 0.0029 0.00548 2e-3 0.0152 6e-3 0.0312 0.0098 0.0342 0.0081 0.0906 0.0168 0.184 0.0244 0.2 0.0164 0.468 0.0176 0.904 0.0176h1.2c0.437 0 0.704-0.0012 0.904-0.0176 0.093-0.0076 0.149-0.0163 0.184-0.0244 0.016-0.0038 0.0258-0.0078 0.0312-0.0098 0.00448-0.0016 0.00781-0.0029 0.00781-0.0029 0.0941-0.0479 0.171-0.125 0.219-0.219 0 0 0.00133-0.0034 0.00293-0.0078 0.00194-0.0055 6e-3 -0.0153 0.00977-0.0313 0.00805-0.0342 0.0168-0.0906 0.0244-0.184 0.0163-0.2 0.0176-0.468 0.0176-0.904v-11.2c0-0.437-0.00124-0.704-0.0176-0.904-0.0076-0.093-0.0164-0.149-0.0244-0.184-0.00377-0.016-0.00783-0.0258-0.00977-0.0312-0.0016-0.00448-0.00293-0.00781-0.00293-0.00781-0.0479-0.0941-0.125-0.171-0.219-0.219 0 0-0.00333-0.00133-0.00781-0.00293-0.00548-0.00194-0.0152-6e-3 -0.0312-0.00977-0.0342-0.00805-0.0906-0.0168-0.184-0.0244-0.2-0.0163-0.468-0.0176-0.904-0.0176h-1.2zm3.51 0c0.0914 0.301 0.0928 0.708 0.0928 1.4v2.6h7.1c0.428 0 0.72-1.7e-4 0.945-0.0186 0.219-0.0179 0.331-0.051 0.409-0.0908 0.188-0.0958 0.341-0.249 0.436-0.437 0.0398-0.0782 0.0729-0.19 0.0908-0.409 0.0184-0.225 0.0186-0.517 0.0186-0.945v-0.199c0-0.428-2e-4 -0.72-0.0186-0.945-0.0179-0.219-0.051-0.331-0.0908-0.409-0.0958-0.188-0.248-0.341-0.436-0.437-0.0781-0.0398-0.19-0.0729-0.409-0.0908-0.225-0.0184-0.517-0.0186-0.945-0.0186h-1.1v0.5c0 0.276-0.224 0.5-0.5 0.5s-0.5-0.224-0.5-0.5v-0.5h-2v0.5c0 0.276-0.224 0.5-0.5 0.5s-0.5-0.224-0.5-0.5v-0.5h-2.09z" clip-rule="evenodd" fill="#000" fill-rule="evenodd"/></svg>
