<svg fill="none" viewBox="0 0 16 16" xmlns="http://www.w3.org/2000/svg"><path d="m10.7 0.915c1.22-1.22 3.19-1.22 4.41 0 1.22 1.22 1.22 3.19 0 4.41l-2.57 2.57c-0.377 0.377-0.906 0.505-1.39 0.388l-0.354 0.354c0.136 0.46 0.0222 0.978-0.341 1.34l-0.249 0.25c-0.666 0.667-1.75 0.666-2.41 0l-0.558-0.558-2.76 2.76c0.0575 0.0606 0.111 0.116 0.157 0.171 0.124 0.146 0.229 0.299 0.289 0.483 0.0913 0.281 0.0913 0.584 0 0.865-0.0599 0.184-0.165 0.337-0.289 0.483-0.121 0.143-0.283 0.305-0.477 0.498l-0.236 0.236c-0.193 0.193-0.355 0.356-0.498 0.478-0.146 0.124-0.299 0.228-0.483 0.288-0.281 0.0912-0.584 0.0913-0.865 0-0.184-0.0599-0.337-0.164-0.483-0.288-0.0714-0.0606-0.148-0.132-0.23-0.212l-0.268-0.266-0.236-0.236c-0.193-0.193-0.356-0.355-0.478-0.498-0.124-0.146-0.228-0.299-0.288-0.483-0.0913-0.281-0.0912-0.584 0-0.865 0.0598-0.184 0.164-0.337 0.288-0.483 0.121-0.143 0.284-0.305 0.478-0.498l0.236-0.236c0.193-0.193 0.355-0.355 0.498-0.477 0.146-0.124 0.299-0.229 0.483-0.289 0.281-0.0913 0.584-0.0913 0.865 0 0.184 0.0599 0.337 0.165 0.483 0.289 0.054 0.0459 0.11 0.0983 0.17 0.155l2.76-2.76-0.557-0.557c-0.666-0.667-0.666-1.75 0-2.41l0.25-0.25 0.103-0.0928c0.354-0.288 0.819-0.371 1.24-0.248l0.354-0.354c-0.116-0.482 0.0126-1.01 0.389-1.39l2.57-2.57zm3.71 0.707c-0.828-0.828-2.17-0.828-3 0l-2.57 2.57c-0.161 0.161-0.181 0.409-0.0605 0.592l0.0908 0.111c0.0601 0.0913 0.0499 0.215-0.0303 0.296l-1.08 1.08c-0.121 0.121-0.307 0.135-0.444 0.0449l-0.111-0.0898c-0.137-0.0902-0.323-0.0753-0.443 0.0449l-0.25 0.25c-0.276 0.276-0.276 0.724 0 1l2 2c0.242 0.241 0.614 0.272 0.889 0.0908l0.111-0.0908 0.249-0.25c0.121-0.121 0.136-0.307 0.0459-0.444l-0.0459-0.0547c-0.138-0.138-0.138-0.362 0-0.5l1.08-1.08c0.092-0.0919 0.241-0.0919 0.333 0 0.161 0.161 0.41 0.181 0.593 0.0605l0.0742-0.0605 2.57-2.57c0.776-0.776 0.824-2 0.146-2.84l-0.146-0.161z" clip-rule="evenodd" fill="#000" fill-rule="evenodd"/></svg>
