<svg viewBox="0 0 16 16" xmlns="http://www.w3.org/2000/svg"><path d="m8.8 8.44 0.697 2.56 0.697-2.56c0.175-0.643 0.263-0.965 0.435-1.23 0.152-0.233 0.35-0.431 0.583-0.583 0.263-0.172 0.585-0.259 1.23-0.435l2.56-0.697-2.56-0.697c-0.643-0.175-0.964-0.263-1.23-0.435-0.233-0.152-0.431-0.35-0.583-0.583-0.172-0.263-0.259-0.585-0.435-1.23l-0.697-2.56-0.697 2.56c-0.175 0.643-0.263 0.965-0.435 1.23-0.152 0.233-0.35 0.431-0.583 0.583-0.263 0.172-0.585 0.259-1.23 0.435l-2.56 0.697 2.56 0.697c0.643 0.175 0.965 0.263 1.23 0.435 0.233 0.152 0.431 0.35 0.583 0.583 0.172 0.263 0.259 0.585 0.435 1.23z" fill="#000"/><path d="m2.68 13.7c0.169 0.244 0.264 0.542 0.456 1.14l0.362 1.12 0.362-1.12c0.191-0.595 0.287-0.893 0.456-1.14 0.149-0.216 0.34-0.4 0.561-0.543 0.249-0.161 0.55-0.247 1.15-0.418l0.971-0.277-0.971-0.277c-0.601-0.172-0.902-0.258-1.15-0.418-0.221-0.142-0.411-0.327-0.561-0.543-0.169-0.244-0.264-0.542-0.456-1.14l-0.362-1.12-0.362 1.12c-0.191 0.595-0.287 0.893-0.456 1.14-0.149 0.216-0.34 0.4-0.561 0.543-0.249 0.161-0.55 0.247-1.15 0.418l-0.971 0.277 0.971 0.277c0.601 0.172 0.902 0.258 1.15 0.418 0.221 0.142 0.411 0.327 0.561 0.543z" fill="#000"/></svg>
