<svg viewBox="0 0 16 16" xmlns="http://www.w3.org/2000/svg"><path d="m9.52 0.371c0.0712-0.267 0.345-0.425 0.612-0.354 0.267 0.0712 0.426 0.345 0.354 0.612l-0.455 1.71c-0.0712 0.267-0.345 0.425-0.612 0.354s-0.425-0.345-0.354-0.612l0.455-1.71z" fill="#000"/><path d="m5.87 0.0165c0.267-0.0712 0.541 0.0875 0.612 0.354l0.454 1.7c0.0712 0.267-0.0875 0.541-0.354 0.612s-0.541-0.0875-0.612-0.354l-0.454-1.7c-0.0712-0.267 0.0875-0.541 0.354-0.612z" fill="#000"/><path d="m8 12c2.21 0 4-1.79 4-4 0-2.21-1.79-4-4-4-2.21 0-4 1.79-4 4 0 2.21 1.79 4 4 4zm0-1c1.66 0 3-1.34 3-3 0-1.66-1.34-3-3-3-1.66 0-3 1.34-3 3 0 1.66 1.34 3 3 3z" clip-rule="evenodd" fill="#000" fill-rule="evenodd"/><path d="m0.913 5.03c-0.261-0.09-0.546 0.0486-0.636 0.31s0.0486 0.546 0.31 0.636l1.58 0.545c0.261 0.09 0.546-0.0486 0.636-0.31 0.09-0.261-0.0486-0.546-0.31-0.636l-1.58-0.545z" fill="#000"/><path d="m2.41 1.88c0.204-0.186 0.52-0.172 0.706 0.0321l1.21 1.32c0.186 0.204 0.172 0.52-0.0321 0.706-0.204 0.186-0.52 0.172-0.706-0.0321l-1.21-1.32c-0.186-0.204-0.172-0.52 0.0321-0.706z" fill="#000"/><path d="m15.7 5.34c-0.09-0.261-0.375-0.4-0.636-0.31l-1.58 0.544c-0.261 0.09-0.4 0.375-0.31 0.636 0.09 0.261 0.375 0.4 0.636 0.31l1.58-0.544c0.261-0.09 0.4-0.375 0.31-0.636z" fill="#000"/><path d="m12.9 1.91c0.186-0.204 0.502-0.218 0.706-0.0321 0.204 0.186 0.218 0.502 0.0321 0.706l-1.21 1.32c-0.186 0.204-0.502 0.218-0.706 0.0321-0.204-0.186-0.218-0.502-0.032-0.706l1.21-1.32z" fill="#000"/><path d="m10.1 16c-0.267 0.0711-0.541-0.0875-0.612-0.354l-0.455-1.71c-0.0712-0.267 0.0875-0.541 0.354-0.612 0.267-0.0712 0.541 0.0874 0.612 0.354l0.455 1.71c0.0712 0.267-0.0875 0.541-0.354 0.612z" fill="#000"/><path d="m15.1 11c0.261 0.09 0.546-0.0486 0.636-0.31 0.09-0.261-0.0486-0.546-0.31-0.636l-1.58-0.543c-0.261-0.09-0.546 0.0486-0.636 0.31-0.0901 0.261 0.0486 0.546 0.31 0.636l1.58 0.543z" fill="#000"/><path d="m13.6 14.1c-0.204 0.186-0.52 0.172-0.706-0.0321l-1.2-1.31c-0.186-0.204-0.172-0.52 0.0321-0.706 0.204-0.186 0.52-0.172 0.706 0.032l1.2 1.31c0.186 0.204 0.172 0.52-0.0321 0.706z" fill="#000"/><path d="m6.48 15.6c-0.0712 0.267-0.345 0.425-0.612 0.354-0.267-0.0712-0.425-0.345-0.354-0.612l0.453-1.7c0.0712-0.267 0.345-0.426 0.612-0.354 0.267 0.0711 0.425 0.345 0.354 0.612l-0.453 1.7z" fill="#000"/><path d="m0.277 10.7c0.09 0.261 0.375 0.4 0.636 0.31l1.57-0.542c0.261-0.09 0.4-0.375 0.31-0.636s-0.375-0.4-0.636-0.31l-1.57 0.543c-0.261 0.09-0.4 0.375-0.31 0.636z" fill="#000"/><path d="m3.12 14.1c-0.186 0.204-0.502 0.218-0.706 0.0321-0.204-0.186-0.218-0.502-0.0321-0.706l1.21-1.32c0.186-0.204 0.502-0.218 0.706-0.0321 0.204 0.186 0.218 0.502 0.0321 0.706l-1.21 1.32z" fill="#000"/></svg>
