<svg viewBox="0 0 16 16" xmlns="http://www.w3.org/2000/svg"><path d="m8 0c0.368 0 0.731 0.0255 1.09 0.0742 0.337 0.0464 0.499 0.424 0.324 0.716l-0.0137 0.0234c-0.106 0.178-0.311 0.269-0.517 0.243-0.288-0.0369-0.582-0.0566-0.88-0.0566-3.87 0-7 3.13-7 7 0 3.87 3.13 7 7 7 3.87 0 7-3.13 7-7 0-0.298-0.0198-0.592-0.0566-0.88-0.0263-0.205 0.0656-0.41 0.243-0.517l0.0225-0.0137c0.292-0.175 0.669-0.0128 0.716 0.324 0.049 0.355 0.0752 0.718 0.0752 1.09 0 4.42-3.58 8-8 8-4.42 0-8-3.58-8-8 0-4.42 3.58-8 8-8z" fill="#000"/><path d="m8 4c0.177 0 0.253 0.211 0.128 0.336l-0.592 0.592c-0.0854 0.0853-0.195 0.142-0.312 0.173-1.28 0.342-2.22 1.51-2.22 2.9 0 1.66 1.34 3 3 3 1.39 0 2.56-0.944 2.9-2.22 0.0312-0.117 0.0875-0.226 0.173-0.312l0.592-0.592c0.126-0.126 0.337-0.0497 0.337 0.128 0 2.21-1.79 4-4 4-2.21 0-4-1.79-4-4 0-2.21 1.79-4 4-4z" fill="#000"/><path d="m12.6 0.00781c0.203 0.0353 0.365 0.192 0.405 0.395l0.435 2.17 2.17 0.435c0.202 0.0405 0.359 0.202 0.394 0.405 0.0349 0.203-0.0585 0.407-0.235 0.514l-2.5 1.5c-0.0776 0.0464-0.166 0.0713-0.257 0.0713h-1.79l-2.35 2.35c-0.195 0.195-0.512 0.195-0.707 0-0.195-0.195-0.195-0.512 0-0.707l2.35-2.35v-1.79l0.0049-0.0674c0.0091-0.0666 0.0317-0.131 0.0664-0.189l1.5-2.5 0.0439-0.0625c0.113-0.136 0.292-0.204 0.47-0.173z" fill="#000"/></svg>
