<svg fill="none" viewBox="0 0 16 16" xmlns="http://www.w3.org/2000/svg"><path d="m13.7 10c0.476 0.0098 0.78 0.042 1.04 0.148 0.49 0.203 0.879 0.592 1.08 1.08 0.152 0.368 0.152 0.834 0.152 1.77s0 1.4-0.152 1.77c-0.203 0.49-0.592 0.879-1.08 1.08-0.368 0.152-0.834 0.152-1.77 0.152h-1c-0.932 0-1.4 0-1.77-0.152-0.284-0.118-0.535-0.298-0.735-0.525-0.2 0.226-0.45 0.407-0.735 0.525-0.368 0.152-0.833 0.152-1.77 0.152h-2c-0.932 0-1.4 0-1.77-0.152-0.49-0.203-0.879-0.592-1.08-1.08-0.152-0.368-0.152-0.834-0.152-1.77s0-1.4 0.152-1.77c0.0342-0.0826 0.0738-0.162 0.118-0.239-0.476-0.0098-0.78-0.042-1.04-0.148-0.49-0.203-0.879-0.592-1.08-1.08-0.152-0.368-0.152-0.833-0.152-1.77s0-1.4 0.152-1.77c0.203-0.49 0.592-0.879 1.08-1.08 0.0338-0.014 0.0685-0.0267 0.104-0.0383-0.0731-0.109-0.136-0.226-0.187-0.349-0.152-0.368-0.152-0.833-0.152-1.77s0-1.4 0.152-1.77c0.203-0.49 0.592-0.879 1.08-1.08 0.368-0.152 0.833-0.152 1.77-0.152h2c0.932 0 1.4 0 1.77 0.152 0.284 0.118 0.535 0.298 0.735 0.525 0.2-0.227 0.45-0.407 0.735-0.525 0.368-0.152 0.833-0.152 1.77-0.152h2c0.932 0 1.4 0 1.77 0.152 0.49 0.203 0.879 0.592 1.08 1.08 0.152 0.368 0.152 0.833 0.152 1.77s0 1.4-0.152 1.77c-0.203 0.49-0.592 0.879-1.08 1.08-0.256 0.106-0.56 0.138-1.04 0.148 0.0444 0.0765 0.0839 0.156 0.118 0.239 0.152 0.368 0.152 0.833 0.152 1.77s0 1.4-0.152 1.77c-0.0343 0.0826-0.0738 0.162-0.118 0.239zm-9.73-9h2c0.48 0 0.789 5.4e-4 1.03 0.0167 0.228 0.0156 0.315 0.0422 0.356 0.0594 0.245 0.101 0.44 0.296 0.541 0.541 0.0172 0.0416 0.0438 0.128 0.0594 0.356 0.0162 0.237 0.0167 0.547 0.0167 1.03s-5.4e-4 0.789-0.0167 1.03c-0.0156 0.228-0.0422 0.315-0.0594 0.356-0.101 0.245-0.296 0.44-0.541 0.541-0.0416 0.0172-0.128 0.0438-0.356 0.0594-0.237 0.0162-0.547 0.0167-1.03 0.0167h-2c-0.48 0-0.789-5.4e-4 -1.03-0.0167-0.228-0.0156-0.315-0.0422-0.356-0.0594-0.245-0.101-0.44-0.296-0.541-0.541-0.0172-0.0416-0.0438-0.128-0.0594-0.356-0.0162-0.237-0.0167-0.547-0.0167-1.03s5.4e-4 -0.789 0.0167-1.03c0.0156-0.228 0.0422-0.315 0.0594-0.356 0.101-0.245 0.296-0.44 0.541-0.541 0.0416-0.0172 0.128-0.0438 0.356-0.0594 0.237-0.0162 0.547-0.0167 1.03-0.0167zm7 4h2c0.48 0 0.789-5.4e-4 1.03-0.0167 0.228-0.0156 0.315-0.0422 0.356-0.0594 0.245-0.101 0.44-0.296 0.541-0.541 0.0172-0.0416 0.0438-0.128 0.0594-0.356 0.0162-0.237 0.0167-0.547 0.0167-1.03s-5e-4 -0.789-0.0167-1.03c-0.0156-0.228-0.0422-0.315-0.0594-0.356-0.102-0.245-0.296-0.44-0.541-0.541-0.0416-0.0172-0.128-0.0438-0.356-0.0594-0.237-0.0162-0.547-0.0167-1.03-0.0167h-2c-0.48 0-0.789 5.4e-4 -1.03 0.0167-0.228 0.0156-0.315 0.0422-0.356 0.0594-0.245 0.101-0.44 0.296-0.541 0.541-0.0172 0.0416-0.0438 0.128-0.0594 0.356-0.0162 0.237-0.0167 0.547-0.0167 1.03s5.4e-4 0.789 0.0167 1.03c0.0156 0.228 0.0422 0.315 0.0594 0.356 0.101 0.245 0.296 0.44 0.541 0.541 0.0416 0.0172 0.128 0.0438 0.356 0.0594 0.237 0.0162 0.547 0.0167 1.03 0.0167zm-5 3c0 0.48-5.4e-4 0.789-0.0167 1.03-0.0156 0.228-0.0422 0.315-0.0594 0.356-0.101 0.245-0.296 0.44-0.541 0.541-0.0416 0.0172-0.128 0.0438-0.356 0.0594-0.237 0.0162-0.547 0.0167-1.03 0.0167h-1c-0.48 0-0.789-5.4e-4 -1.03-0.0167-0.228-0.0156-0.315-0.0422-0.356-0.0594-0.245-0.101-0.44-0.296-0.541-0.541-0.0172-0.0416-0.0438-0.128-0.0594-0.356-0.0162-0.237-0.0167-0.547-0.0167-1.03s5.4e-4 -0.789 0.0167-1.03c0.0156-0.228 0.0422-0.315 0.0594-0.356 0.101-0.245 0.296-0.44 0.541-0.541 0.0416-0.0172 0.128-0.0438 0.356-0.0594 0.237-0.0162 0.547-0.0167 1.03-0.0167h1c0.48 0 0.789 5.4e-4 1.03 0.0167 0.228 0.0156 0.315 0.0422 0.356 0.0594 0.245 0.101 0.44 0.296 0.541 0.541 0.0172 0.0416 0.0438 0.128 0.0594 0.356 0.0162 0.237 0.0167 0.547 0.0167 1.03zm5-2h-2c-0.48 0-0.789 5.4e-4 -1.03 0.0167-0.228 0.0156-0.315 0.0422-0.356 0.0594-0.245 0.101-0.44 0.296-0.541 0.541-0.0172 0.0416-0.0438 0.128-0.0594 0.356-0.0162 0.237-0.0167 0.547-0.0167 1.03s5.4e-4 0.789 0.0167 1.03c0.0156 0.228 0.0422 0.315 0.0594 0.356 0.101 0.245 0.296 0.44 0.541 0.541 0.0416 0.0172 0.128 0.0438 0.356 0.0594 0.237 0.0162 0.547 0.0167 1.03 0.0167h2c0.48 0 0.789-5.4e-4 1.03-0.0167 0.228-0.0156 0.315-0.0422 0.356-0.0594 0.245-0.101 0.44-0.296 0.541-0.541 0.0172-0.0416 0.0438-0.128 0.0594-0.356 0.0162-0.237 0.0167-0.547 0.0167-1.03s-5e-4 -0.789-0.0167-1.03c-0.0156-0.228-0.0422-0.315-0.0594-0.356-0.102-0.245-0.296-0.44-0.541-0.541-0.0416-0.0172-0.128-0.0438-0.356-0.0594-0.237-0.0162-0.547-0.0167-1.03-0.0167zm-7.03 5.02c0.237-0.0162 0.547-0.0167 1.03-0.0167h2c0.48 0 0.789 5e-4 1.03 0.0167 0.228 0.0156 0.315 0.0422 0.356 0.0594 0.245 0.102 0.44 0.296 0.541 0.541 0.0172 0.0416 0.0438 0.128 0.0594 0.356 0.0162 0.237 0.0167 0.547 0.0167 1.03s-5.4e-4 0.789-0.0167 1.03c-0.0156 0.228-0.0422 0.315-0.0594 0.356-0.101 0.245-0.296 0.44-0.541 0.541-0.0416 0.0172-0.128 0.0438-0.356 0.0594-0.237 0.0162-0.547 0.0167-1.03 0.0167h-2c-0.48 0-0.789-5e-4 -1.03-0.0167-0.228-0.0156-0.315-0.0422-0.356-0.0594-0.245-0.102-0.44-0.296-0.541-0.541-0.0172-0.0416-0.0438-0.128-0.0594-0.356-0.0162-0.237-0.0167-0.547-0.0167-1.03s5.4e-4 -0.789 0.0167-1.03c0.0156-0.228 0.0422-0.315 0.0594-0.356 0.101-0.245 0.296-0.44 0.541-0.541 0.0416-0.0172 0.128-0.0438 0.356-0.0594zm6.03 1.98c0 0.48 5e-4 0.789 0.0167 1.03 0.0156 0.228 0.0422 0.315 0.0594 0.356 0.102 0.245 0.296 0.44 0.541 0.541 0.0416 0.0172 0.128 0.0438 0.356 0.0594 0.237 0.0162 0.547 0.0167 1.03 0.0167h1c0.48 0 0.789-5e-4 1.03-0.0167 0.228-0.0156 0.315-0.0422 0.356-0.0594 0.245-0.102 0.44-0.296 0.541-0.541 0.0172-0.0416 0.0438-0.128 0.0594-0.356 0.0162-0.237 0.0167-0.547 0.0167-1.03s-5e-4 -0.789-0.0167-1.03c-0.0156-0.228-0.0422-0.315-0.0594-0.356-0.102-0.245-0.296-0.44-0.541-0.541-0.0416-0.0172-0.128-0.0438-0.356-0.0594-0.237-0.0162-0.547-0.0167-1.03-0.0167h-1c-0.48 0-0.789 5e-4 -1.03 0.0167-0.228 0.0156-0.315 0.0422-0.356 0.0594-0.245 0.102-0.44 0.296-0.541 0.541-0.0172 0.0416-0.0438 0.128-0.0594 0.356-0.0162 0.237-0.0167 0.547-0.0167 1.03z" clip-rule="evenodd" fill="#000" fill-rule="evenodd"/></svg>
