<svg viewBox="0 0 16 16" xmlns="http://www.w3.org/2000/svg"><path d="m6.5 9c0.972 0 1.87-0.308 2.61-0.832l1.61 1.61c0.293 0.293 0.768 0.293 1.06 0 0.293-0.293 0.293-0.768 0-1.06l-1.61-1.61c0.524-0.736 0.832-1.64 0.832-2.61 0-2.49-2.01-4.5-4.5-4.5s-4.5 2.01-4.5 4.5 2.01 4.5 4.5 4.5zm0-1c1.93 0 3.5-1.57 3.5-3.5s-1.57-3.5-3.5-3.5-3.5 1.57-3.5 3.5 1.57 3.5 3.5 3.5z" clip-rule="evenodd" fill="#000" fill-rule="evenodd"/><path d="m2.85 11.9c0.195-0.195 0.195-0.512 0-0.707-0.195-0.195-0.512-0.195-0.707 0l-2 2c-0.0479 0.048-0.0841 0.103-0.109 0.162-0.0244 0.059-0.0379 0.124-0.0379 0.191s0.0135 0.132 0.0379 0.191c0.0244 0.059 0.0606 0.114 0.109 0.162l2 2c0.195 0.195 0.512 0.195 0.707 0 0.195-0.195 0.195-0.512 0-0.707l-1.15-1.15h12.6l-1.15 1.15c-0.195 0.195-0.195 0.512 0 0.707 0.195 0.195 0.512 0.195 0.707 0l2-2c0.0479-0.048 0.0841-0.103 0.108-0.162s0.0379-0.124 0.0379-0.191-0.0135-0.132-0.0379-0.191-0.0606-0.114-0.108-0.162l-2-2c-0.195-0.195-0.512-0.195-0.707 0-0.195 0.195-0.195 0.512 0 0.707l1.15 1.15h-12.6l1.15-1.15z" fill="#000"/></svg>
