<svg fill="none" viewBox="0 0 24 24" xmlns="http://www.w3.org/2000/svg"><path d="m0.762 23.2c-1.29-1.33 0.106-3.16 3.89-5.1l2.38-1.22 0.928-2.09c0.51-1.15 1.27-3.03 1.69-4.18l0.765-2.08-0.527-1.54c-0.648-1.89-0.879-4.74-0.468-5.77 0.557-1.39 2.38-1.24 3.1 0.242 0.564 1.16 0.506 3.26-0.162 5.92l-0.548 2.17 0.483 0.846c0.266 0.465 1.04 1.57 1.72 2.45l1.28 1.65 1.6-0.215c5.07-0.682 6.81 0.478 6.81 2.14 0 2.1-3.98 2.27-7.32-0.15-0.752-0.545-1.27-1.09-1.27-1.09s-2.09 0.44-3.13 0.727c-1.06 0.296-1.6 0.481-3.15 1.02 0 0-0.547 0.82-0.903 1.42-1.33 2.22-2.87 4.05-3.98 4.72-1.24 0.749-2.54 0.8-3.19 0.125zm2.02-0.746c0.725-0.462 2.19-2.25 3.21-3.91l0.411-0.672-1.87 0.971c-2.89 1.5-4.21 2.91-3.53 3.77 0.386 0.48 0.848 0.44 1.78-0.153zm18.8-5.44c0.709-0.512 0.606-1.54-0.195-1.96-0.624-0.324-1.13-0.39-2.75-0.366-0.996 0.0701-2.6 0.277-2.87 0.34 0 0 0.879 0.627 1.27 0.858 0.52 0.306 1.78 0.875 2.7 1.17 0.91 0.287 1.44 0.257 1.83-0.0374zm-7.55-3.24c-0.429-0.465-1.16-1.44-1.62-2.16-0.605-0.818-0.908-1.4-0.908-1.4s-0.442 1.47-0.805 2.35l-1.13 2.89-0.328 0.655s1.74-0.59 2.63-0.829c0.94-0.253 2.85-0.64 2.85-0.64l-0.686-0.867zm-2.43-10.1c0.109-0.947 0.156-1.89-0.139-2.37-0.818-0.923-1.81-0.153-1.64 2.04 0.0563 0.738 0.234 2 0.472 2.78l0.432 1.41 0.304-1.06c0.167-0.586 0.424-1.84 0.57-2.8z" fill="#000"/></svg>
