<svg fill="none" viewBox="0 0 24 24" xmlns="http://www.w3.org/2000/svg"><path d="m7.87 4.06c-0.196-0.0596-0.421-0.0647-1.08-0.0647h-1.49c-0.848 0-1.45 3.9e-4 -1.93 0.0392-0.469 0.0383-0.767 0.112-1.01 0.233-0.47 0.24-0.853 0.622-1.09 1.09-0.122 0.239-0.195 0.536-0.233 1.01-0.0388 0.475-0.0392 1.08-0.0392 1.93v7.4c0 0.848 3.9e-4 1.45 0.0392 1.93 0.0384 0.469 0.112 0.767 0.233 1.01 0.24 0.47 0.622 0.853 1.09 1.09 0.1 0.051 0.21 0.0935 0.339 0.128l2.84-7.72c0.362-0.983 1.3-1.64 2.35-1.64h14.2c1.04 0 1.77 1.04 1.41 2.02l-2.28 6.19c-0.507 1.38-1.82 2.29-3.28 2.29h-12.6c-0.821 0-1.47 0-1.99-0.0426-0.531-0.0434-0.975-0.134-1.38-0.339-0.659-0.336-1.19-0.871-1.53-1.53-0.205-0.403-0.296-0.847-0.339-1.38-0.0425-0.521-0.0425-1.17-0.0425-1.99v-7.44c-3.11e-6 -0.821-5.56e-6 -1.47 0.0425-1.99 0.0434-0.531 0.134-0.975 0.339-1.38 0.336-0.659 0.871-1.19 1.53-1.53 0.403-0.205 0.847-0.296 1.38-0.339 0.521-0.0425 1.17-0.0425 1.99-0.0425l1.58-1e-5c0.555-2.1e-4 0.938-3.5e-4 1.29 0.108 0.314 0.0955 0.607 0.252 0.861 0.461 0.288 0.237 0.5 0.556 0.808 1.02l0.141 0.212c0.365 0.547 0.493 0.731 0.652 0.861 0.152 0.125 0.328 0.219 0.517 0.276 0.196 0.0596 0.421 0.0647 1.08 0.0647h3.81c0.683 0 1.22 0 1.66 0.0297 0.444 0.0303 0.817 0.0931 1.16 0.237 0.858 0.355 1.54 1.04 1.89 1.89 0.0373 0.0902 0.0692 0.182 0.0965 0.277 0.0846 0.293-0.159 0.563-0.464 0.563-0.251 0-0.452-0.187-0.542-0.421-0.0046-0.012-0.0093-0.0239-0.0142-0.0356-0.254-0.613-0.74-1.1-1.35-1.35-0.205-0.0847-0.456-0.136-0.849-0.163-0.397-0.0271-0.902-0.0274-1.61-0.0274l-3.86 2e-5c-0.555 2e-4 -0.938 3.4e-4 -1.29-0.108-0.314-0.0955-0.607-0.252-0.861-0.461-0.288-0.237-0.5-0.556-0.808-1.02l-0.141-0.212c-0.365-0.547-0.493-0.731-0.652-0.861-0.152-0.125-0.328-0.219-0.517-0.276z" fill="#000"/></svg>
