<svg fill="none" viewBox="0 0 24 24" xmlns="http://www.w3.org/2000/svg"><path d="m21 15.8v-4.79c0-0.683 0-1.22-0.0297-1.66-0.0303-0.444-0.0931-0.817-0.237-1.16-0.355-0.858-1.04-1.54-1.89-1.89-0.347-0.144-0.72-0.206-1.16-0.237-0.435-0.0297-0.974-0.0297-1.66-0.0297h-3.81c-0.657 0-0.882-0.00509-1.08-0.0647-0.189-0.0573-0.364-0.151-0.517-0.276-0.158-0.13-0.287-0.314-0.652-0.861l-0.141-0.212c-0.308-0.462-0.52-0.781-0.808-1.02-0.254-0.209-0.546-0.365-0.861-0.461-0.356-0.108-0.74-0.108-1.29-0.108l-1.58 1e-5c-0.821 0-1.47 0-1.99 0.0425-0.531 0.0434-0.975 0.134-1.38 0.339-0.659 0.336-1.19 0.871-1.53 1.53-0.205 0.403-0.296 0.847-0.339 1.38-0.0425 0.521-0.0425 1.17-0.0425 1.99v7.44c-3.22e-6 0.821-5.81e-6 1.47 0.0425 1.99 0.0434 0.531 0.134 0.975 0.339 1.38 0.336 0.659 0.871 1.19 1.53 1.53 0.403 0.205 0.847 0.296 1.38 0.339 0.521 0.0426 1.17 0.0426 1.99 0.0426h10.5c0.798 0 1.43 0 1.93-0.0403 0.517-0.041 0.949-0.126 1.34-0.321 0.691-0.341 1.25-0.9 1.59-1.59 0.194-0.394 0.28-0.826 0.321-1.34 0.0402-0.506 0.0402-1.14 0.0402-1.93z" fill="#000"/></svg>
