<svg fill="none" viewBox="0 0 16 16" xmlns="http://www.w3.org/2000/svg"><path d="m5.1 4.8c-0.0796-0.106-0.114-0.239-0.095-0.371 0.0188-0.131 0.0889-0.25 0.195-0.329 0.106-0.0796 0.239-0.114 0.371-0.095 0.131 0.0188 0.25 0.0889 0.329 0.195l2.1 2.8v-6.5c0-0.133 0.0527-0.26 0.146-0.354 0.0938-0.0938 0.221-0.146 0.354-0.146s0.26 0.0527 0.354 0.146c0.0938 0.0938 0.146 0.221 0.146 0.354v6.5l2.1-2.8c0.0796-0.106 0.198-0.176 0.329-0.195 0.065-0.00929 0.131-0.00568 0.195 0.0106 0.0636 0.0163 0.123 0.045 0.176 0.0844s0.0968 0.0888 0.13 0.145c0.0335 0.0565 0.0555 0.119 0.0648 0.184s0.0057 0.131-0.0106 0.195-0.045 0.123-0.0844 0.176l-3 4c-6e-3 8e-3 -0.017 0.012-0.024 0.02-0.0329 0.0395-0.0721 0.0733-0.116 0.1-0.0156 0.0128-0.0324 0.0242-0.05 0.034-0.0651 0.0329-0.137 0.05-0.21 0.05s-0.145-0.0171-0.21-0.05c-0.0176-0.00982-0.0344-0.0212-0.05-0.034-0.0439-0.0267-0.0831-0.0605-0.116-0.1-7e-3 -8e-3 -0.018-0.012-0.024-0.02l-3-4zm0.65 9.95c0 0.247-0.0733 0.489-0.211 0.694-0.137 0.206-0.333 0.366-0.561 0.46-0.228 0.0947-0.48 0.119-0.722 0.0712-0.242-0.0482-0.465-0.167-0.64-0.342-0.175-0.175-0.294-0.398-0.342-0.64-0.0482-0.242-0.0235-0.494 0.0711-0.722 0.0946-0.228 0.255-0.424 0.46-0.561 0.206-0.137 0.447-0.211 0.694-0.211 0.164 0 0.327 0.0323 0.478 0.0952 0.152 0.0628 0.289 0.155 0.406 0.271 0.116 0.116 0.208 0.254 0.271 0.406 0.0628 0.152 0.0952 0.314 0.0952 0.478zm8 0c0 0.247-0.0733 0.489-0.211 0.694-0.137 0.206-0.332 0.366-0.561 0.46-0.228 0.0947-0.48 0.119-0.722 0.0712-0.242-0.0482-0.465-0.167-0.64-0.342s-0.294-0.398-0.342-0.64c-0.0482-0.242-0.0235-0.494 0.0712-0.722 0.0946-0.228 0.255-0.424 0.46-0.561 0.206-0.137 0.447-0.211 0.694-0.211 0.332 0 0.65 0.132 0.884 0.366s0.366 0.552 0.366 0.884zm0.25-9.25c-0.133 0-0.26 0.0527-0.354 0.146-0.0937 0.0938-0.146 0.221-0.146 0.354l-0.5 4h-8.91l-1.1-6.58c-0.0193-0.116-0.0791-0.222-0.169-0.298-0.0896-0.0765-0.203-0.119-0.321-0.12h-1c-0.133 0-0.26 0.0527-0.354 0.146-0.0938 0.0938-0.146 0.221-0.146 0.354s0.0527 0.26 0.146 0.354c0.0938 0.0938 0.221 0.146 0.354 0.146h0.576l1.43 8.58c0.0194 0.117 0.0796 0.223 0.17 0.299 0.0903 0.0765 0.205 0.118 0.323 0.119h9c0.276 0 0.5-0.224 0.5-0.5s-0.224-0.5-0.5-0.5h-8.58l-0.167-1h8.74c0.244-1e-4 0.479-0.0891 0.662-0.25 0.183-0.161 0.3-0.384 0.33-0.626l0.508-4.12c0-0.133-0.0527-0.26-0.146-0.354-0.0938-0.0938-0.221-0.146-0.354-0.146z" fill="#000"/></svg>
