<svg fill="none" viewBox="0 0 16 16" xmlns="http://www.w3.org/2000/svg"><path d="m12.5 2c1.38 0 2.5 1.12 2.5 2.5v10c0 0.354-0.357 0.596-0.686 0.464l-2.31-0.926-2.31 0.926c-0.0894 0.0358-0.187 0.0447-0.28 0.0269l-0.0916-0.0269-2.31-0.926-2.31 0.926c-0.301 0.12-0.626-0.0727-0.678-0.378l-0.00722-0.086v-7.14l-0.985-0.328-2.33 0.932c-0.301 0.12-0.626-0.0728-0.678-0.378l-0.00722-0.086v-3c0-1.38 1.12-2.5 2.5-2.5h10zm0 1h-8l0.0186 0.0235c0.303 0.414 0.482 0.924 0.482 1.48v9.26l1.81-0.725c0.0894-0.0358 0.187-0.0447 0.28-0.0269l0.0916 0.0269 2.31 0.925 2.32-0.925c0.0894-0.0358 0.187-0.0447 0.28-0.0269l0.0916 0.0269 1.81 0.725v-9.26c0-0.78-0.595-1.42-1.36-1.49l-0.144-0.00687zm-3 6c0.276 0 0.5 0.224 0.5 0.5s-0.224 0.5-0.5 0.5h-3c-0.276 0-0.5-0.224-0.5-0.5s0.224-0.5 0.5-0.5h3zm3-2c0.276 0 0.5 0.224 0.5 0.5s-0.224 0.5-0.5 0.5h-6c-0.276 0-0.5-0.224-0.5-0.5s0.224-0.5 0.5-0.5h6zm-10-4-0.144 0.00687c-0.761 0.0727-1.36 0.713-1.36 1.49v2.26l1.81-0.725c0.0824-0.0329 0.171-0.0432 0.258-0.0305l0.0856 0.0204 0.842 0.28v-1.81c0-0.78-0.595-1.42-1.36-1.49l-0.144-0.00687zm10 2c0.276 0 0.5 0.224 0.5 0.5s-0.224 0.5-0.5 0.5h-6c-0.276 0-0.5-0.224-0.5-0.5s0.224-0.5 0.5-0.5h6z" fill="#000"/></svg>
