<svg viewBox="0 0 16 16" xmlns="http://www.w3.org/2000/svg"><path d="m4.68 8c-0.0595-0.00301-0.119-0.00488-0.18-0.00488-1.93 0-3.5 1.57-3.5 3.5s1.57 3.5 3.5 3.5c1.83 0 3.32-1.4 3.48-3.18l0.831 0.959c-0.55 1.86-2.27 3.22-4.32 3.22-2.49 0-4.5-2.01-4.5-4.5 0-2.26 1.67-4.14 3.85-4.45l0.83 0.958z" fill="#000"/><path d="m0.173 0.122c0.209-0.181 0.524-0.158 0.705 0.0508l11.1 12.8c0.0049-3e-4 0.0098 3e-4 0.0146 0l0.798 0.921c-0.0045 7e-4 -0.0092 3e-4 -0.0137 1e-3l1.1 1.27c0.181 0.209 0.158 0.524-0.0508 0.705-0.209 0.181-0.524 0.158-0.705-0.0508l-13-15c-0.181-0.209-0.158-0.524 0.0508-0.705z" fill="#000"/><path d="m11.5 0c2.5 0 4.5 1 4.5 2v9.5c0 0.698-0.437 1.29-1.15 1.72l-0.669-0.772c0.0104-0.0055 0.0219-0.0091 0.0322-0.0147 0.642-0.345 0.791-0.696 0.791-0.932v-1.38c-0.102 0.0706-0.211 0.136-0.323 0.197-0.496 0.27-1.12 0.473-1.84 0.586l-0.796-0.919c0.928-0.0601 1.66-0.27 2.16-0.544 0.615-0.336 0.802-0.702 0.802-0.937v-1.38c-0.102 0.0706-0.211 0.136-0.323 0.197-0.779 0.425-1.87 0.687-3.18 0.687-0.444 0-0.862-0.0307-1.25-0.0869l-1.16-1.34c0.587 0.253 1.4 0.428 2.41 0.428 1.19 0 2.1-0.238 2.7-0.563 0.615-0.336 0.802-0.702 0.802-0.937v-1.38c-0.102 0.0706-0.211 0.136-0.323 0.197-0.779 0.425-1.87 0.687-3.18 0.687s-2.4-0.262-3.18-0.687c-0.112-0.0613-0.221-0.127-0.323-0.197v1.2l-1-1.15v-2.16c0-1 2-2 4.5-2zm0 1c-1.13 0-2.5 0.407-2.77 0.533-0.109 0.0502-0.247 0.141-0.374 0.233-0.233 0.169-0.357 0.446-0.357 0.734 5.2e-4 0.235 0.187 0.6 0.802 0.936 0.596 0.325 1.51 0.563 2.7 0.563s2.1-0.238 2.7-0.563c0.615-0.336 0.802-0.702 0.802-0.937v-0.00586c0-0.285-0.119-0.56-0.35-0.728-0.121-0.0877-0.258-0.176-0.382-0.233-0.662-0.306-1.64-0.533-2.77-0.533z" clip-rule="evenodd" fill="#000" fill-rule="evenodd"/></svg>
