<svg fill="none" viewBox="0 0 16 16" xmlns="http://www.w3.org/2000/svg"><path d="m7.94 9.09e-6c-0.409-1.01e-4 -0.687-1.7e-4 -0.93 0.048-0.992 0.197-1.77 0.973-1.96 1.96-0.0482 0.242-0.0482 0.521-0.048 0.93l1e-5 2.06h-1.34c-0.713 0-1.07 0-1.36 0.129-0.256 0.114-0.475 0.297-0.633 0.529-0.178 0.263-0.242 0.614-0.368 1.32l-0.938 5.2c-0.175 0.971-0.263 1.46-0.126 1.84 0.12 0.332 0.354 0.612 0.659 0.789 0.349 0.202 0.842 0.202 1.83 0.202h10.8c0.973 0 1.46 0 1.81-0.198 0.304-0.174 0.537-0.449 0.66-0.777 0.14-0.374 0.0606-0.854-0.0973-1.81l-0.855-5.2c-0.118-0.714-0.176-1.07-0.354-1.34-0.157-0.236-0.377-0.423-0.636-0.539-0.293-0.132-0.655-0.132-1.38-0.132h-1.61v-2.06c1e-4 -0.409 2e-4 -0.687-0.048-0.93-0.197-0.992-0.973-1.77-1.96-1.96-0.242-0.0482-0.521-0.0481-0.93-0.048h-0.116zm2.55 6c0.0015 1e-5 0.0029 2e-5 0.0044 2e-5s0.0029-1e-5 0.0044-2e-5h2.11c0.377 0 0.604 6.6e-4 0.775 0.0136 0.0792 6e-3 0.127 0.0135 0.156 0.0198 0.0262 0.00561 0.0357 0.00989 0.0371 0.0105 0.0861 0.0387 0.16 0.101 0.212 0.18 9e-4 0.00126 0.0067 0.00998 0.0165 0.0349 0.0109 0.0279 0.0261 0.0741 0.0449 0.151 0.0405 0.167 0.0781 0.391 0.139 0.763l0.855 5.2c0.0818 0.498 0.132 0.808 0.15 1.04 0.0146 0.19 0 0.252-0.0027 0.261-0.0408 0.109-0.119 0.201-0.22 0.259 0.0014-8e-4 0.0015-7e-4 0 0-0.0082 4e-3 -0.0671 0.0286-0.257 0.045-0.233 0.0202-0.547 0.0211-1.05 0.0211h-10.8c-0.511 0-0.83-9e-4 -1.07-0.0215-0.192-0.0166-0.252-0.0415-0.261-0.0458-0.00163-8e-4 -0.00146-8e-4 0 0-0.102-0.059-0.18-0.152-0.22-0.263 5e-4 0.0018 5.8e-4 0.0016 0 0-0.00263-0.0093-0.0164-0.0729 0.00119-0.265 0.0218-0.237 0.0775-0.551 0.168-1.05l0.938-5.2c0.066-0.366 0.106-0.586 0.149-0.749 0.0196-0.0757 0.0352-0.121 0.0464-0.148 0.00999-0.0245 0.0158-0.033 0.0167-0.0343 0.0524-0.0773 0.126-0.138 0.211-0.176 0.00147-6.5e-4 0.011-0.00488 0.0368-0.0104 0.0289-0.00614 0.0762-0.0134 0.154-0.0193 0.169-0.0127 0.392-0.0133 0.764-0.0133h1.84c0.00145 1e-5 0.0029 2e-5 0.00435 2e-5 0.00146 0 0.00291-1e-5 0.00436-2e-5h4.99zm-0.496-1v-2c0-0.489-0.00242-0.66-0.0288-0.793-0.118-0.595-0.584-1.06-1.18-1.18-0.133-0.0264-0.304-0.0288-0.793-0.0288s-0.66 0.00242-0.793 0.0288c-0.595 0.118-1.06 0.584-1.18 1.18-0.0264 0.133-0.0288 0.304-0.0288 0.793v2h4z" clip-rule="evenodd" fill="#000" fill-rule="evenodd"/></svg>
