<svg viewBox="0 0 16 16" xmlns="http://www.w3.org/2000/svg"><path d="m5 6.5c0-0.276 0.224-0.5 0.5-0.5s0.5 0.224 0.5 0.5v1c0 0.276-0.224 0.5-0.5 0.5s-0.5-0.224-0.5-0.5v-1z" fill="#000"/><path d="m8 6.5c0-0.276 0.224-0.5 0.5-0.5s0.5 0.224 0.5 0.5v1c0 0.276-0.224 0.5-0.5 0.5s-0.5-0.224-0.5-0.5v-1z" fill="#000"/><path d="m11.5 6c-0.276 0-0.5 0.224-0.5 0.5v1c0 0.276 0.224 0.5 0.5 0.5s0.5-0.224 0.5-0.5v-1c0-0.276-0.224-0.5-0.5-0.5z" fill="#000"/><path d="m13.5 4h-10.2l-0.264-1.58c-0.0194-0.117-0.0796-0.223-0.17-0.299s-0.205-0.119-0.323-0.119h-1c-0.133 0-0.26 0.0527-0.354 0.146-0.0938 0.0938-0.146 0.221-0.146 0.354s0.0527 0.26 0.146 0.354c0.0938 0.0938 0.221 0.146 0.354 0.146h0.576l1.43 8.58c0.0194 0.117 0.0796 0.223 0.17 0.299 0.0903 0.0765 0.205 0.119 0.323 0.119h8.5c0.276 0 0.5-0.224 0.5-0.5s-0.224-0.5-0.5-0.5h-8.08l-0.167-1h8.74c0.244-7e-5 0.479-0.0891 0.662-0.25 0.183-0.161 0.3-0.384 0.33-0.626l0.491-3.93c0.029-0.145 0.0255-0.294-0.0102-0.438-0.0357-0.143-0.103-0.277-0.196-0.391s-0.211-0.206-0.345-0.27c-0.133-0.0633-0.279-0.0963-0.427-0.0965zm-10.1 1 0.664 4h8.92l0.5-4h-10.1z" clip-rule="evenodd" fill="#000" fill-rule="evenodd"/><path d="m3.62 12.9c0.234-0.234 0.552-0.366 0.884-0.366s0.649 0.132 0.884 0.366 0.366 0.552 0.366 0.884-0.132 0.65-0.366 0.884-0.552 0.366-0.884 0.366-0.649-0.132-0.884-0.366-0.366-0.552-0.366-0.884 0.132-0.65 0.366-0.884z" fill="#000"/><path d="m11.6 12.9c0.234-0.234 0.552-0.366 0.884-0.366s0.65 0.132 0.884 0.366 0.366 0.552 0.366 0.884-0.132 0.65-0.366 0.884-0.552 0.366-0.884 0.366-0.65-0.132-0.884-0.366-0.366-0.552-0.366-0.884 0.132-0.65 0.366-0.884z" fill="#000"/></svg>
