<svg fill="none" viewBox="0 0 24 24" xmlns="http://www.w3.org/2000/svg"><g clip-path="url(#clip0_1241_48)" fill="#000"><path d="m12 6c0.552 0 1 0.448 1 1v4h4c0.552 0 1 0.448 1 1s-0.448 1-1 1h-4v4c0 0.552-0.448 1-1 1s-1-0.448-1-1v-4h-4c-0.552 0-1-0.448-1-1s0.448-1 1-1h4v-4c0-0.552 0.448-1 1-1z"/><path d="m12.8 0c3.92 0 5.88-1.25e-4 7.38 0.763 1.32 0.671 2.39 1.74 3.06 3.06 0.763 1.5 0.763 3.46 0.763 7.38v1.6c0 3.92 1e-4 5.88-0.763 7.38l-0.131 0.244c-0.675 1.21-1.69 2.19-2.93 2.82l-0.286 0.134c-1.46 0.629-3.42 0.629-7.09 0.629h-1.6l-1.38-2e-3c-2.81-0.0096-4.44-0.082-5.71-0.627l-0.286-0.134c-1.32-0.671-2.39-1.74-3.06-3.06-0.763-1.5-0.763-3.46-0.763-7.38v-1.6c0-3.68 1.34e-4 -5.63 0.629-7.09l0.134-0.286c0.629-1.23 1.61-2.25 2.82-2.93l0.244-0.131c1.31-0.667 2.97-0.75 6-0.761l1.38-0.00195h1.6zm-1.6 1c-1.98 0-3.4 5.3e-4 -4.52 0.0918-1.11 0.0903-1.82 0.265-2.41 0.562-1.13 0.575-2.05 1.49-2.62 2.62-0.298 0.584-0.472 1.3-0.562 2.41-0.0913 1.12-0.0918 2.54-0.0918 4.52v1.6c0 1.98 5.3e-4 3.4 0.0918 4.52 0.0903 1.11 0.265 1.82 0.562 2.41 0.575 1.13 1.49 2.05 2.62 2.62 0.584 0.298 1.3 0.472 2.41 0.562 1.12 0.0913 2.54 0.0918 4.52 0.0918h1.6c1.98 0 3.4-5e-4 4.52-0.0918 1.11-0.0903 1.82-0.265 2.41-0.562 1.13-0.575 2.05-1.49 2.62-2.62 0.298-0.584 0.472-1.3 0.562-2.41 0.0913-1.12 0.0918-2.54 0.0918-4.52v-1.6c0-1.98-5e-4 -3.4-0.0918-4.52-0.0903-1.11-0.265-1.82-0.562-2.41-0.575-1.13-1.49-2.05-2.62-2.62-0.584-0.298-1.3-0.472-2.41-0.562-1.12-0.0913-2.54-0.0918-4.52-0.0918h-1.6z" clip-rule="evenodd" fill-rule="evenodd"/></g><defs><clipPath id="clip0_1241_48"><rect width="24" height="24" fill="#000"/></clipPath></defs></svg>
