<svg xmlns="http://www.w3.org/2000/svg" viewBox="0 0 16 16" fill="none">
  <path fill="#000" fill-rule="evenodd"
    d="M.146.147a.5.5 0 0 1 .708 0l15 15a.5.5 0 0 1-.708.707l-2.015-2.016A4.002 4.002 0 0 1 12 14H6A6 6 0 0 1 2.453 3.16L.146.855a.5.5 0 0 1 0-.707Zm3.024 3.73A5 5 0 0 0 6 13h6c.095 0 .188-.004.28-.013l-9.11-9.11Z"
    clip-rule="evenodd" />
  <path fill="#000"
    d="M5.5 2.5A.5.5 0 0 1 6 2a6.002 6.002 0 0 1 5.663 4.014 4 4 0 0 1 4.17 5.129.5.5 0 0 1-.957-.285 3 3 0 0 0-3.466-3.8.5.5 0 0 1-.581-.36A5.002 5.002 0 0 0 6 3a.5.5 0 0 1-.5-.5Z" />
</svg>