<svg xmlns="http://www.w3.org/2000/svg" viewBox="0 0 16 16" fill="none">
  <path fill="#000" fill-rule="evenodd"
    d="M3.204 10.866a1 1 0 0 1 .379 1.26L2.54 14.42l4.638-2.319a.999.999 0 0 1 .472-.105C7.765 12 7.882 12 8 12c2.091 0 3.856-.443 5.072-1.32C14.238 9.84 15 8.527 15 6.5c0-2.027-.762-3.338-1.928-4.18C11.856 1.443 10.092 1 8 1c-2.091 0-3.856.443-5.072 1.32C1.762 3.162 1 4.473 1 6.5c0 2.168.871 3.529 2.204 4.366ZM1.697 15.96a.5.5 0 0 1-.652-.667l1.627-3.58C1.032 10.683 0 8.993 0 6.5 0 1.857 3.582 0 8 0s8 1.857 8 6.5S12.418 13 8 13c-.126 0-.25-.001-.375-.004L1.697 15.96Z"
    clip-rule="evenodd" />
</svg>