<svg xmlns="http://www.w3.org/2000/svg" viewBox="0 0 16 16" fill="none">
  <path fill="#000"
    d="M7.5 2A2.5 2.5 0 0 1 10 4.5c0 .523-.167.924-.423 1.242a3.116 3.116 0 0 1-.625.56l-.166.118c-.262.182-.45.317-.586.482a.879.879 0 0 0-.2.599v1a.5.5 0 0 1-1 0v-1c0-.52.168-.916.425-1.231.185-.226.413-.404.616-.55l.173-.121c.26-.181.45-.318.584-.485A.91.91 0 0 0 9 4.501a1.5 1.5 0 1 0-3 0 .5.5 0 0 1-1 0A2.5 2.5 0 0 1 7.5 2Zm.005 8.125a.875.875 0 1 1 0 1.75.875.875 0 0 1 0-1.75Z" />
  <path fill="#000" fill-rule="evenodd"
    d="M7.5 14.007c1.176 0 2.187-.137 3.053-.389 1.002.7 2.333 1.418 4.046 2.27.916.457 1.792-.577 1.215-1.423-.727-1.065-1.362-2.106-1.857-3.289C14.694 10.011 15 8.567 15 7.004 15 3.136 13.125 0 7.5 0S0 3.136 0 7.004c0 3.867 1.875 7.003 7.5 7.003Zm5.612-3.365a1 1 0 0 0-.078.92c.517 1.235 1.17 2.312 1.889 3.37-1.648-.822-2.883-1.496-3.798-2.134a1 1 0 0 0-.852-.14c-.758.22-1.674.349-2.773.349-2.628 0-4.199-.728-5.125-1.73C1.435 10.26 1 8.792 1 7.004c0-1.789.434-3.256 1.375-4.274C3.3 1.728 4.872 1 7.5 1c2.629 0 4.198.728 5.125 1.73C13.565 3.748 14 5.215 14 7.004c0 1.443-.284 2.682-.888 3.638Z"
    clip-rule="evenodd" />
</svg>