<svg viewBox="0 0 16 16" xmlns="http://www.w3.org/2000/svg"><path d="m7.5 2c1.38 0 2.5 1.12 2.5 2.5 0 0.523-0.167 0.923-0.423 1.24-0.187 0.232-0.418 0.413-0.624 0.561l-0.167 0.117c-0.262 0.182-0.451 0.317-0.586 0.483-0.118 0.144-0.2 0.319-0.2 0.598v1c0 0.276-0.224 0.5-0.5 0.5s-0.5-0.224-0.5-0.5v-1c0-0.519 0.168-0.916 0.425-1.23 0.185-0.226 0.413-0.404 0.616-0.55l0.173-0.121c0.26-0.181 0.449-0.317 0.584-0.485 0.118-0.147 0.202-0.327 0.202-0.613 0-0.828-0.672-1.5-1.5-1.5s-1.5 0.672-1.5 1.5c0 0.276-0.224 0.5-0.5 0.5s-0.5-0.224-0.5-0.5c0-1.38 1.12-2.5 2.5-2.5z" fill="#000"/><path d="m7.5 10.1c0.483 0 0.875 0.392 0.875 0.875s-0.392 0.875-0.875 0.875c-0.483 0-0.875-0.392-0.875-0.875s0.392-0.875 0.875-0.875z" fill="#000"/><path d="m7.5 14c1.18 0 2.19-0.137 3.05-0.389 1 0.699 2.33 1.42 4.05 2.27 0.916 0.456 1.79-0.578 1.21-1.42-0.727-1.07-1.36-2.11-1.86-3.29 0.736-1.17 1.04-2.61 1.04-4.17 0-3.87-1.88-7-7.5-7s-7.5 3.14-7.5 7c0 3.87 1.88 7 7.5 7zm5.61-3.36c-0.174 0.276-0.203 0.619-0.0773 0.92 0.516 1.23 1.17 2.31 1.89 3.37-1.65-0.823-2.88-1.5-3.8-2.14-0.248-0.173-0.561-0.225-0.852-0.14-0.758 0.221-1.67 0.349-2.77 0.349-2.63 0-4.2-0.728-5.13-1.73-0.94-1.02-1.37-2.48-1.37-4.27 0-1.79 0.434-3.26 1.37-4.27 0.927-1 2.5-1.73 5.13-1.73 2.63 0 4.2 0.728 5.13 1.73 0.94 1.02 1.37 2.48 1.37 4.27 0 1.44-0.284 2.68-0.888 3.64z" clip-rule="evenodd" fill="#000" fill-rule="evenodd"/></svg>
