<svg xmlns="http://www.w3.org/2000/svg" viewBox="0 0 16 16" fill="none">
  <path fill="#000"
    d="M8 0a8 8 0 1 1 0 16A8 8 0 0 1 8 0Zm0 1a7 7 0 1 0 0 14A7 7 0 0 0 8 1Zm0 10.25a.75.75 0 1 1 0 1.5.75.75 0 0 1 0-1.5ZM8 3a2.5 2.5 0 0 1 2.5 2.5c0 .523-.167.923-.423 1.241a3.116 3.116 0 0 1-.625.561l-.166.117c-.262.183-.45.317-.586.483a.879.879 0 0 0-.2.598v1a.5.5 0 0 1-1 0v-1c0-.519.168-.915.425-1.23.185-.227.413-.405.616-.55l.173-.121c.26-.182.45-.318.584-.485A.91.91 0 0 0 9.5 5.5a1.5 1.5 0 1 0-3 0 .5.5 0 0 1-1 0A2.5 2.5 0 0 1 8 3Z" />
</svg>