<svg fill="none" viewBox="0 0 16 17" xmlns="http://www.w3.org/2000/svg"><path d="m3.5 0.5 9 7e-6" stroke="#fff" stroke-linecap="round" stroke-linejoin="round"/><path d="m3.5 15.5 9-0.0227" stroke="#fff" stroke-linecap="round" stroke-linejoin="round"/><path d="m5.5 0.5-0.8 0.6c-0.755 0.567-1.2 1.46-1.2 2.4v0.646c0 1.14 0.642 2.18 1.66 2.68l1.34 0.671v1.5l-0.949 0.316c-1.23 0.408-2.05 1.55-2.05 2.85v0.338c0 0.944 0.445 1.83 1.2 2.4l0.8 0.6" stroke="#fff" stroke-linecap="round" stroke-linejoin="round"/><path d="m10.5 0.5 0.8 0.6c0.755 0.567 1.2 1.46 1.2 2.4v0.646c0 1.14-0.642 2.18-1.66 2.68l-1.34 0.671v1.5l0.949 0.316c1.22 0.408 2.05 1.55 2.05 2.85v0.338c0 0.944-0.445 1.83-1.2 2.4l-0.8 0.6" stroke="#fff" stroke-linecap="round" stroke-linejoin="round"/></svg>
