<svg xmlns="http://www.w3.org/2000/svg" viewBox="0 0 16 16" fill="none">
  <path fill="#000" fill-rule="evenodd"
    d="M10.5 7a2.5 2.5 0 1 1-5 0 2.5 2.5 0 0 1 5 0Zm-1 0a1.5 1.5 0 1 1-3 0 1.5 1.5 0 0 1 3 0Z" clip-rule="evenodd" />
  <path fill="#000" fill-rule="evenodd"
    d="M14 7c0 4.5-5 9-6 9s-6-4.5-6-9a6 6 0 1 1 12 0Zm-1 0c0 1.91-1.082 3.938-2.4 5.556a13.258 13.258 0 0 1-1.87 1.894 5.327 5.327 0 0 1-.731.508 5.327 5.327 0 0 1-.731-.508A13.256 13.256 0 0 1 5.4 12.556C4.082 10.938 3 8.91 3 7a5 5 0 1 1 10 0Z"
    clip-rule="evenodd" />
</svg>