<svg viewBox="0 0 16 16" xmlns="http://www.w3.org/2000/svg"><mask id="path-1-inside-1_1_89" fill="white"><path d="m13 0.0998-8.1 0.81c-0.511 0.0511-0.9 0.481-0.9 0.995v0.095l10-1c0-0.535-0.462-0.954-0.995-0.901z"/></mask><path d="m4.9 0.91 0.199 1.99-0.199-1.99zm8.1-0.81 0.199 1.99-0.199-1.99zm0.995 0.901 0.199 1.99 1.8-0.18v-1.81h-2zm-10 1h-2v2.21l2.2-0.22-0.199-1.99zm1.1 0.9 8.1-0.81-0.398-3.98-8.1 0.81 0.398 3.98zm8.7-3.89-10 1 0.398 3.98 10-1-0.398-3.98zm-7.8 2.99v-0.095h-4v0.095h4zm7.2 0.0896c-0.645 0.0645-1.2-0.442-1.2-1.09h4c0-1.72-1.48-3.06-3.19-2.89l0.398 3.98zm-8.5-3.17c-1.53 0.153-2.7 1.44-2.7 2.99h4c0 0.514-0.389 0.944-0.9 0.995l-0.398-3.98z" fill="#000" mask="url(#path-1-inside-1_1_89)"/><mask id="path-3-inside-2_1_89" fill="white"><path d="m13 3.1-8.1 0.81c-0.511 0.0511-0.9 0.481-0.9 0.995v0.095l10-1c0-0.535-0.462-0.954-0.995-0.9z"/></mask><path d="m4.9 3.91 0.199 1.99-0.199-1.99zm8.1-0.81 0.199 1.99-0.199-1.99zm0.995 0.9 0.199 1.99 1.8-0.18v-1.81h-2zm-10 1h-2v2.21l2.2-0.22-0.199-1.99zm1.1 0.9 8.1-0.81-0.398-3.98-8.1 0.81 0.398 3.98zm8.7-3.89-10 1 0.398 3.98 10-1-0.398-3.98zm-7.8 2.99v-0.095h-4v0.095h4zm7.2 0.0896c-0.645 0.0645-1.2-0.442-1.2-1.09h4c0-1.72-1.48-3.06-3.19-2.89l0.398 3.98zm-8.5-3.17c-1.53 0.153-2.7 1.44-2.7 2.99h4c0 0.514-0.389 0.944-0.9 0.995l-0.398-3.98z" fill="#000" mask="url(#path-3-inside-2_1_89)"/><path d="m5 11.7c0 0.998-0.609 1.82-2.25 2.19-1.64 0.376-2.75-0.488-2.75-1.71 0-1.22 1.39-2.08 2.75-2.19 1.36-0.116 2.25 0.708 2.25 1.71z" fill="#000"/><path d="m14 10.7c0 0.998-0.608 1.82-2.25 2.19-1.64 0.376-2.75-0.488-2.75-1.71 0-1.22 1.39-2.08 2.75-2.19 1.36-0.116 2.25 0.708 2.25 1.71z" fill="#000"/><path d="m5 2c0-0.276-0.224-0.5-0.5-0.5s-0.5 0.224-0.5 0.5h1zm0 10v-10h-1v10h1z" fill="#000"/><path d="m14 1c0-0.276-0.224-0.5-0.5-0.5s-0.5 0.224-0.5 0.5h1zm0 10v-10h-1v10h1z" fill="#000"/></svg>
