<svg xmlns="http://www.w3.org/2000/svg" viewBox="0 0 16 16" fill="none">
  <path fill="#000" d="M3 8.5a1 1 0 1 0 0-2 1 1 0 0 0 0 2Z" />
  <path fill="#000" fill-rule="evenodd"
    d="M4.504 3a4.5 4.5 0 0 1 3.745 2h5.256a1 1 0 0 1 .807.409l1.494 2.035a1 1 0 0 1 .033 1.135l-1.263 1.95c-.308.476-.95.601-1.414.277L12.01 10l-1.185.813c-.341.233-.79.233-1.132 0L8.507 10H8.25a4.5 4.5 0 0 1-3.745 2A4.502 4.502 0 0 1 0 7.5C0 5.015 2.016 3 4.504 3Zm3.745 6c-.334 0-.645.167-.831.444A3.5 3.5 0 0 1 4.504 11 3.502 3.502 0 0 1 1 7.5C1 5.567 2.569 4 4.504 4a3.5 3.5 0 0 1 2.914 1.557A1 1 0 0 0 8.249 6h5.256L15 8.036l-1.263 1.95-1.152-.805a1.002 1.002 0 0 0-1.14-.005l-1.185.812-1.186-.812A1.001 1.001 0 0 0 8.507 9H8.25Z"
    clip-rule="evenodd" />
</svg>