<svg xmlns="http://www.w3.org/2000/svg" viewBox="0 0 16 16" fill="none">
  <path fill="#000" fill-rule="evenodd"
    d="M5.5 1a1.5 1.5 0 0 0-1.423 1.025c-.63.033-1.067.113-1.439.302a3 3 0 0 0-1.311 1.311C1 4.28 1 5.12 1 6.8v4.4c0 1.68 0 2.52.327 3.162a3 3 0 0 0 1.311 1.311C3.28 16 4.12 16 5.8 16h2.537a5.53 5.53 0 0 1-1.08-1H5.8c-.857 0-1.439 0-1.889-.037-.438-.036-.663-.101-.819-.18a2 2 0 0 1-.874-.875c-.08-.156-.145-.38-.18-.819C2 12.64 2 12.057 2 11.2V6.8c0-.856 0-1.439.038-1.889.035-.438.1-.662.18-.819a2 2 0 0 1 .874-.874c.156-.08.38-.144.819-.18L4 3.03v.47A1.5 1.5 0 0 0 5.5 5h5A1.5 1.5 0 0 0 12 3.5v-.47l.089.007c.438.036.663.1.819.18a2 2 0 0 1 .874.874c.08.157.145.38.18.82.034.413.038.94.038 1.688.358.183.693.404 1 .657V6.8c0-1.68 0-2.52-.327-3.162a3 3 0 0 0-1.311-1.31c-.372-.19-.81-.27-1.439-.303A1.5 1.5 0 0 0 10.5 1h-.268A2 2 0 0 0 8.5 0h-1a2 2 0 0 0-1.732 1H5.5Zm.989.75a.5.5 0 0 1-.433.25H5.5a.5.5 0 0 0-.5.5v1a.5.5 0 0 0 .5.5h5a.5.5 0 0 0 .5-.5v-1a.5.5 0 0 0-.5-.5h-.556a.5.5 0 0 1-.433-.25l-.144-.249a1 1 0 0 0-.867-.5h-1a1 1 0 0 0-.867.5l-.144.25Z"
    clip-rule="evenodd" />
  <path fill="#000" d="M12 9.5a.5.5 0 0 0-1 0v2a.5.5 0 0 0 .5.5H13a.5.5 0 0 0 0-1h-1V9.5Z" />
  <path fill="#000" fill-rule="evenodd"
    d="M11.5 16a4.5 4.5 0 1 0 0-9 4.5 4.5 0 0 0 0 9Zm0-1a3.5 3.5 0 1 0 0-7 3.5 3.5 0 0 0 0 7Z" clip-rule="evenodd" />
</svg>