<svg xmlns="http://www.w3.org/2000/svg" viewBox="0 0 16 16" fill="none">
  <path fill="#000" fill-rule="evenodd"
    d="M4.077 2.025A1.5 1.5 0 0 1 5.5 1h.268A2 2 0 0 1 7.5 0h1a2 2 0 0 1 1.732 1h.268a1.5 1.5 0 0 1 1.423 1.025c.63.033 1.067.113 1.439.302a3 3 0 0 1 1.311 1.311C15 4.28 15 5.12 15 6.8v3.578L14 8.38V6.8c0-.856 0-1.439-.038-1.889-.035-.438-.1-.662-.18-.819a2 2 0 0 0-.874-.874c-.156-.08-.38-.144-.819-.18A7.341 7.341 0 0 0 12 3.03v.47A1.5 1.5 0 0 1 10.5 5h-5A1.5 1.5 0 0 1 4 3.5v-.47l-.089.007c-.438.036-.663.1-.819.18a2 2 0 0 0-.874.874c-.08.157-.145.38-.18.82C2 5.361 2 5.943 2 6.8v4.4c0 .857 0 1.44.038 1.89.035.438.1.662.18.818a2 2 0 0 0 .874.874c.156.08.38.145.819.18C4.361 15 4.943 15 5.8 15h.203c.022.358.135.702.32 1H5.8c-1.68 0-2.52 0-3.162-.327a3 3 0 0 1-1.311-1.31C1 13.72 1 12.88 1 11.2V6.8c0-1.68 0-2.52.327-3.162a3 3 0 0 1 1.311-1.31c.372-.19.81-.27 1.439-.303ZM6.056 2a.5.5 0 0 0 .433-.25l.144-.249a1 1 0 0 1 .867-.5h1a1 1 0 0 1 .867.5l.144.25a.5.5 0 0 0 .433.25h.556a.5.5 0 0 1 .5.5v1a.5.5 0 0 1-.5.5h-5a.5.5 0 0 1-.5-.5v-1a.5.5 0 0 1 .5-.5h.556Z"
    clip-rule="evenodd" />
  <path fill="#000" fill-rule="evenodd"
    d="m7.12 14.37 3.378-6.75a1.119 1.119 0 0 1 2.004 0l3.377 6.75A1.125 1.125 0 0 1 14.878 16H8.122a1.125 1.125 0 0 1-1.001-1.63Zm5.13-4.12c0-.53-.387-.75-.75-.75s-.75.223-.75.75c0 .528.188 1.477.25 1.75.063.274.224.5.5.5s.43-.226.5-.5c.07-.273.25-1.226.25-1.75Zm0 3.75a.75.75 0 1 1-1.5 0 .75.75 0 0 1 1.5 0Z"
    clip-rule="evenodd" />
</svg>