<svg xmlns="http://www.w3.org/2000/svg" viewBox="0 0 16 16" fill="none">
  <path fill="#000" fill-rule="evenodd"
    d="M15.119 3.123a1 1 0 0 1 .706.71c.452 1.709.033 3.618-1.324 4.973a5.153 5.153 0 0 1-4.875 1.363.34.34 0 0 0-.148-.006.096.096 0 0 0-.025.008l-5.08 5.08a2.568 2.568 0 0 1-3.625 0 2.568 2.568 0 0 1 0-3.623l5.08-5.08a.098.098 0 0 0 .009-.025.342.342 0 0 0-.007-.149A5.161 5.161 0 0 1 7.193 1.5C8.55.144 10.458-.277 12.168.175a1 1 0 0 1 .451 1.674l-2.1 2.1.382 1.15 1.15.383 2.1-2.1a1 1 0 0 1 .968-.26ZM5.827 6.55l.001-.002v.002Zm3.625 3.622h.001-.001ZM13.794 8.1a4.153 4.153 0 0 1-3.931 1.098c-.396-.097-.827-.023-1.115.265l-5.083 5.082a1.568 1.568 0 0 1-2.21 0 1.568 1.568 0 0 1 0-2.21l5.082-5.081c.288-.289.361-.721.264-1.117a4.161 4.161 0 0 1 1.1-3.93 4.107 4.107 0 0 1 2.734-1.202c.428-.02.86.026 1.277.137l-2.101 2.1a1 1 0 0 0-.242 1.024l.383 1.15a1 1 0 0 0 .633.632l1.15.383a1 1 0 0 0 1.022-.242l2.101-2.1c.11.417.157.848.138 1.276A4.103 4.103 0 0 1 13.794 8.1Z"
    clip-rule="evenodd" />
</svg>