<svg xmlns="http://www.w3.org/2000/svg" viewBox="0 0 16 16" fill="none">
  <path fill="#000"
    d="M8 9a.75.75 0 0 1-.75-.75v-3.5a.75.75 0 1 1 1.5 0v3.5A.75.75 0 0 1 8 9Zm-1 3a1 1 0 1 1 2 0 1 1 0 0 1-2 0Z" />
  <path fill="#000" fill-rule="evenodd"
    d="m.325 11.64 5.02-9.994c1.101-2.194 4.209-2.194 5.31 0l5.02 9.994c1.003 1.997-.436 4.36-2.656 4.36H2.98C.76 16-.68 13.637.324 11.64Zm.894.448 5.019-9.993a1.966 1.966 0 0 1 3.524 0l5.02 9.993C15.456 13.434 14.48 15 13.018 15H2.98c-1.46 0-2.437-1.566-1.76-2.912Z"
    clip-rule="evenodd" />
</svg>