<svg fill="none" viewBox="0 0 12 12" xmlns="http://www.w3.org/2000/svg"><path d="m10.1 10c0.533-2.01 0.968-4.11 0.676-6.19-0.112-0.71-0.463-2.02-1.43-1.66-1.22 0.445-2.08 1.77-2.76 2.83 0.867 1.59 1.55 3.28 2.02 5.03h-1.1c-0.469-1.34-0.875-2.62-1.55-3.89-0.629 1.25-1.14 2.55-1.53 3.89h-1.11c0.196-0.862 0.944-3.12 2.01-5.03-0.649-1.03-1.37-2.1-2.46-2.71-1.26-0.739-1.7 0.969-1.77 1.9-0.2 1.99 0.243 3.92 0.718 5.84h-1.1c-0.62-2.24-1.25-5.72-0.156-7.87 0.519-1.02 1.59-1.4 2.63-0.92 1.24 0.53 2 1.67 2.77 2.71 0.465-0.642 0.914-1.28 1.5-1.83 1.14-1.14 2.92-1.7 3.88-0.0314 1.13 2.11 0.508 5.71-0.125 7.94l-1.11-0.00331z" fill="#000"/></svg>
