<svg fill="none" viewBox="0 0 24 24" xmlns="http://www.w3.org/2000/svg"><path d="m19.4 1.01c-0.116 0.0251-0.224 0.0915-0.299 0.195l-7.1 9.8-7.09-9.79c-0.0267-0.038-0.0587-0.0724-0.0956-0.102-0.0575-0.0463-0.124-0.0784-0.193-0.0956l-0.165-0.0127c-0.114 0.0103-0.221 0.0597-0.303 0.139-0.0579 0.0561-0.0999 0.124-0.125 0.197-1.05 2.89-0.661 5.8 0.811 7.95 1.3 1.89 3.42 3.14 6.06 3.24l-2.1 2.9c-0.541-0.272-1.15-0.426-1.8-0.426-2.21 0-4 1.79-4 4s1.79 4 4 4 4-1.79 4-4c0-1.2-0.531-2.28-1.37-3.02l2.37-3.28 2.37 3.28c-0.84 0.733-1.37 1.81-1.37 3.02 0 2.21 1.79 4 4 4s4-1.79 4-4-1.79-4-4-4c-0.647 0-1.26 0.154-1.8 0.426l-2.1-2.9c2.64-0.101 4.76-1.35 6.06-3.24 1.47-2.14 1.86-5.06 0.808-7.95-0.0089-0.0243-0.0194-0.0476-0.0315-0.0696-0.043-0.0786-0.105-0.142-0.178-0.187-0.113-0.0689-0.244-0.088-0.366-0.0617zm-0.0788 1.6-6.46 8.92c2.44-0.0299 4.34-1.15 5.48-2.81 1.12-1.63 1.54-3.83 0.978-6.11zm-13.7 6.11c-1.12-1.63-1.54-3.83-0.978-6.11l6.46 8.92c-2.44-0.0299-4.34-1.15-5.48-2.81zm4.34 10.3c0 1.66-1.34 3-3 3s-3-1.34-3-3 1.34-3 3-3 3 1.34 3 3zm10 0c0 1.66-1.34 3-3 3s-3-1.34-3-3 1.34-3 3-3 3 1.34 3 3z" clip-rule="evenodd" fill="#000" fill-rule="evenodd"/></svg>
