<svg viewBox="0 0 24 24" xmlns="http://www.w3.org/2000/svg"><path d="m11.1 8.15c0.195-0.195 0.512-0.195 0.707 0l3.15 3.15 3.15-3.15c0.195-0.195 0.512-0.195 0.707 0 0.195 0.195 0.195 0.512 0 0.707l-3.15 3.15 3.15 3.15c0.195 0.195 0.195 0.512 0 0.707-0.195 0.195-0.512 0.195-0.707 0l-3.15-3.15-3.15 3.15c-0.195 0.195-0.512 0.195-0.707 0-0.195-0.195-0.195-0.512 0-0.707l3.15-3.15-3.15-3.15c-0.195-0.195-0.195-0.512 0-0.707z" fill="#000"/><path d="m8.56 3.52c-0.385 0.218-0.724 0.522-1.4 1.13l-5.51 4.98c-0.912 0.823-1.37 1.23-1.54 1.72-0.148 0.425-0.148 0.888 0 1.31 0.168 0.484 0.625 0.896 1.54 1.72l5.51 4.98c0.676 0.61 1.01 0.915 1.4 1.13 0.342 0.193 0.71 0.334 1.09 0.42 0.432 0.0967 0.887 0.0967 1.8 0.0967h6.14c2.24 0 3.36 0 4.22-0.436 0.753-0.384 1.37-0.995 1.75-1.75 0.436-0.856 0.436-1.98 0.436-4.22v-5.2c0-2.24 0-3.36-0.436-4.22-0.384-0.753-0.996-1.36-1.75-1.75-0.856-0.436-1.98-0.436-4.22-0.436h-6.14c-0.911 0-1.37 0-1.8 0.0967-0.383 0.0857-0.751 0.227-1.09 0.42zm9.03 0.483h-6.14c-0.955 0-1.28 0.0056-1.58 0.0725-0.287 0.0643-0.564 0.171-0.82 0.315-0.267 0.151-0.512 0.365-1.22 1l-5.51 4.98c-0.469 0.423-0.773 0.699-0.987 0.927-0.206 0.22-0.257 0.324-0.275 0.378-0.0739 0.213-0.0739 0.444 0 0.656 0.0185 0.0532 0.069 0.157 0.275 0.378 0.213 0.228 0.518 0.504 0.987 0.927l5.51 4.98c0.709 0.639 0.954 0.853 1.22 1 0.256 0.145 0.533 0.251 0.82 0.315 0.299 0.0669 0.625 0.0725 1.58 0.0725h6.14c1.14 0 1.93-8e-4 2.55-0.0512 0.606-0.0494 0.954-0.142 1.22-0.276 0.565-0.288 1.02-0.747 1.31-1.31 0.134-0.263 0.226-0.611 0.276-1.22 0.0504-0.617 0.0512-1.41 0.0512-2.55v-5.2c0-1.14-8e-4 -1.93-0.0512-2.55-0.0495-0.605-0.142-0.953-0.276-1.22-0.288-0.564-0.747-1.02-1.31-1.31-0.264-0.134-0.612-0.226-1.22-0.276-0.617-0.0504-1.41-0.0512-2.55-0.0512z" clip-rule="evenodd" fill="#000" fill-rule="evenodd"/></svg>
