<svg fill="none" viewBox="0 0 24 24" xmlns="http://www.w3.org/2000/svg"><path d="m6 9.01v-3.01c0-3.31 2.69-6 6-6 3.31 0 6 2.69 6 6v3.01c1.35 0.0183 2.16 0.0965 2.82 0.43 0.753 0.384 1.36 0.995 1.75 1.75 0.436 0.856 0.436 1.98 0.436 4.22v2.2c0 2.24 0 3.36-0.436 4.22-0.384 0.753-0.995 1.36-1.75 1.75-0.856 0.436-1.98 0.436-4.22 0.436h-9.2c-2.24 0-3.36 0-4.22-0.436-0.753-0.384-1.36-0.995-1.75-1.75-0.436-0.856-0.436-1.98-0.436-4.22v-2.2c0-2.24 0-3.36 0.436-4.22 0.384-0.753 0.995-1.36 1.75-1.75 0.655-0.334 1.47-0.412 2.82-0.43zm1-3.01c0-2.76 2.24-5 5-5 2.76 0 5 2.24 5 5v3c-0.129-1e-4 -0.262-1e-4 -0.4-1e-4h-9.2c-0.137 0-0.271 0-0.4 1e-4v-3zm-2.15 4.05c0.617-0.0504 1.41-0.0512 2.55-0.0512h9.2c1.14 0 1.93 8e-4 2.55 0.0512 0.605 0.0494 0.953 0.142 1.22 0.276 0.564 0.288 1.02 0.746 1.31 1.31 0.134 0.263 0.226 0.611 0.276 1.22 0.0504 0.617 0.0512 1.41 0.0512 2.55v2.2c0 1.14-8e-4 1.93-0.0512 2.55-0.0494 0.605-0.142 0.953-0.276 1.22-0.288 0.564-0.746 1.02-1.31 1.31-0.263 0.134-0.611 0.226-1.22 0.276-0.617 0.0504-1.41 0.0512-2.55 0.0512h-9.2c-1.14 0-1.93-8e-4 -2.55-0.0512-0.605-0.0494-0.953-0.142-1.22-0.276-0.564-0.288-1.02-0.746-1.31-1.31-0.134-0.263-0.226-0.611-0.276-1.22-0.0504-0.617-0.0512-1.41-0.0512-2.55v-2.2c0-1.14 7.8e-4 -1.93 0.0512-2.55 0.0494-0.605 0.142-0.953 0.276-1.22 0.288-0.564 0.747-1.02 1.31-1.31 0.263-0.134 0.611-0.226 1.22-0.276z" clip-rule="evenodd" fill="#000" fill-rule="evenodd"/></svg>
