<svg viewBox="0 0 24 24" xmlns="http://www.w3.org/2000/svg"><path d="m13.2 1h3.6c1.28 0 2.17 7.8e-4 2.87 0.058 0.688 0.0562 1.1 0.162 1.41 0.323 0.658 0.336 1.19 0.871 1.53 1.53 0.162 0.317 0.267 0.726 0.324 1.41 0.0572 0.7 0.058 1.6 0.058 2.87v3.6c0 1.28-8e-4 2.17-0.058 2.87-0.0562 0.688-0.162 1.1-0.324 1.41-0.336 0.658-0.871 1.19-1.53 1.53-0.0289 0.0147-0.0585 0.029-0.089 0.0427v1.06c0.194-0.0587 0.373-0.13 0.543-0.217 0.847-0.431 1.54-1.12 1.97-1.97 0.49-0.963 0.49-2.22 0.49-4.74v-3.6c0-2.52 0-3.78-0.49-4.74-0.431-0.847-1.12-1.54-1.97-1.97-0.963-0.49-2.22-0.49-4.74-0.49h-3.6c-2.52 0-3.78 0-4.74 0.49-0.847 0.431-1.54 1.12-1.97 1.97-0.0866 0.17-0.158 0.349-0.217 0.543h1.06c0.0138-0.0305 0.028-0.0601 0.0427-0.089 0.336-0.659 0.871-1.19 1.53-1.53 0.317-0.161 0.726-0.267 1.41-0.323 0.7-0.0572 1.6-0.058 2.87-0.058z" fill="#000"/><path d="m13.9 12.8c0.177-0.212 0.148-0.527-0.064-0.704s-0.527-0.148-0.704 0.064l-4.65 5.58-3.11-3.11c-0.195-0.195-0.512-0.195-0.707 0-0.195 0.195-0.195 0.512 0 0.707l3.5 3.5c0.0993 0.0993 0.236 0.152 0.376 0.146 0.14-0.0064 0.272-0.0715 0.361-0.179l5-6z" fill="#000"/><path d="m0.49 8.46c-0.49 0.963-0.49 2.22-0.49 4.74v3.6c0 2.52 0 3.78 0.49 4.74 0.431 0.847 1.12 1.54 1.97 1.97 0.963 0.49 2.22 0.49 4.74 0.49h3.6c2.52 0 3.78 0 4.74-0.49 0.847-0.431 1.54-1.12 1.97-1.97 0.49-0.963 0.49-2.22 0.49-4.74v-3.6c0-2.52 0-3.78-0.49-4.74-0.431-0.847-1.12-1.54-1.97-1.97-0.963-0.49-2.22-0.49-4.74-0.49h-3.6c-2.52 0-3.78 0-4.74 0.49-0.847 0.431-1.54 1.12-1.97 1.97zm10.3-1.46h-3.6c-1.28 0-2.17 7.8e-4 -2.87 0.058-0.689 0.0562-1.1 0.162-1.41 0.323-0.659 0.336-1.19 0.871-1.53 1.53-0.161 0.317-0.267 0.726-0.323 1.41-0.0572 0.7-0.058 1.6-0.058 2.87v3.6c0 1.28 7.8e-4 2.17 0.058 2.87 0.0562 0.688 0.162 1.1 0.323 1.41 0.336 0.658 0.871 1.19 1.53 1.53 0.317 0.162 0.726 0.267 1.41 0.324 0.7 0.0572 1.6 0.058 2.87 0.058h3.6c1.28 0 2.17-8e-4 2.87-0.058 0.688-0.0562 1.1-0.162 1.41-0.324 0.658-0.336 1.19-0.871 1.53-1.53 0.162-0.317 0.267-0.726 0.324-1.41 0.0572-0.7 0.058-1.6 0.058-2.87v-3.6c0-1.28-8e-4 -2.17-0.058-2.87-0.0562-0.688-0.162-1.1-0.324-1.41-0.336-0.659-0.871-1.19-1.53-1.53-0.317-0.161-0.726-0.267-1.41-0.323-0.7-0.0572-1.6-0.058-2.87-0.058z" clip-rule="evenodd" fill="#000" fill-rule="evenodd"/></svg>
