<svg viewBox="0 0 24 24" xmlns="http://www.w3.org/2000/svg"><path d="m4.5 2c0.276 0 0.5 0.224 0.5 0.5v17.8l3.15-3.15c0.195-0.195 0.512-0.195 0.707 0 0.195 0.195 0.195 0.512 0 0.707l-4 4c-0.195 0.195-0.512 0.195-0.707 0l-4-4c-0.195-0.195-0.195-0.512 0-0.707 0.195-0.195 0.512-0.195 0.707 0l3.15 3.15v-17.8c0-0.276 0.224-0.5 0.5-0.5z" fill="#000"/><path d="m16.6 3.55c-0.17-0.336-0.515-0.548-0.892-0.548-0.377 0-0.722 0.212-0.892 0.548l-1.72 3.4c-0.216 0.427-0.623 0.725-1.1 0.803l-3.7 0.608c-0.368 0.0605-0.672 0.321-0.788 0.675s-0.0254 0.744 0.235 1.01l2.67 2.72c0.33 0.337 0.482 0.809 0.411 1.28l-0.58 3.8c-0.0566 0.371 0.0995 0.743 0.404 0.962 0.305 0.219 0.707 0.25 1.04 0.0783l3.34-1.71c0.43-0.22 0.94-0.22 1.37 0l3.34 1.71c0.334 0.171 0.736 0.141 1.04-0.0783 0.305-0.22 0.461-0.591 0.404-0.962l-0.58-3.8c-0.0712-0.466 0.0809-0.938 0.411-1.28l2.67-2.72c0.261-0.267 0.352-0.656 0.236-1.01s-0.42-0.615-0.788-0.675l-3.7-0.608c-0.472-0.0776-0.879-0.376-1.1-0.803l-1.72-3.4zm-2.61 3.85 1.72-3.4 1.72 3.4c0.36 0.712 1.04 1.21 1.83 1.34l3.7 0.608-2.67 2.72c-0.55 0.562-0.803 1.35-0.684 2.13l0.58 3.8-3.34-1.71c-0.716-0.368-1.57-0.368-2.28 0l-3.34 1.71 0.58-3.8c0.119-0.777-0.135-1.56-0.684-2.13l-2.67-2.72 3.7-0.608c0.787-0.129 1.47-0.626 1.83-1.34z" clip-rule="evenodd" fill="#000" fill-rule="evenodd"/></svg>
