<svg xmlns="http://www.w3.org/2000/svg" viewBox="0 0 16 16" fill="none">
  <path fill="#000" fill-rule="evenodd"
    d="M10.969.371A.25.25 0 0 0 10.53.13l-.643 1.158a3.497 3.497 0 0 0-.996-.265C8.697 1 8.464 1 8 1s-.697 0-.892.022a3.497 3.497 0 0 0-.996.265L5.469.129A.25.25 0 1 0 5.03.37l.637 1.146a3.5 3.5 0 0 0-1.646 2.591C4 4.303 4 4.536 4 5h8c0-.464 0-.697-.022-.892a3.5 3.5 0 0 0-1.646-2.59L10.969.37ZM6 3.5a.5.5 0 1 0 0-1 .5.5 0 0 0 0 1Zm4.5-.5a.5.5 0 1 1-1 0 .5.5 0 0 1 1 0Z"
    clip-rule="evenodd" />
  <path fill="#000"
    d="M1 6a1 1 0 0 1 2 0v4a1 1 0 1 1-2 0V6Zm12 0a1 1 0 1 1 2 0v4a1 1 0 1 1-2 0V6ZM4 6v6a1 1 0 0 0 1 1v2a1 1 0 1 0 2 0v-2h2v2a1 1 0 1 0 2 0v-2a1 1 0 0 0 1-1V6H4Z" />
</svg>