<svg fill="none" viewBox="0 0 16 16" xmlns="http://www.w3.org/2000/svg"><path d="m5.22 0.084c0.23-0.153 0.54-0.0911 0.693 0.139l0.591 0.887c0.319-0.0719 0.651-0.11 0.993-0.11h1c0.341 0 0.673 0.0379 0.993 0.11l0.591-0.887c0.153-0.23 0.464-0.292 0.693-0.139 0.23 0.153 0.292 0.464 0.139 0.693l-0.449 0.674c1.11 0.54 1.97 1.52 2.33 2.72 0.209-0.11 0.447-0.172 0.699-0.172 0.828 0 1.5 0.672 1.5 1.5v4c0 0.828-0.672 1.5-1.5 1.5-0.175 0-0.344-0.0301-0.5-0.0854v0.0854c0 1.1-0.895 2-2 2v1.5c0 0.828-0.672 1.5-1.5 1.5-0.308 0-0.595-0.093-0.833-0.252-0.402-0.269-0.667-0.727-0.667-1.25 0 0.52-0.265 0.978-0.667 1.25-0.238 0.159-0.525 0.252-0.833 0.252-0.828 0-1.5-0.672-1.5-1.5v-1.5c-1.1 0-2-0.895-2-2v-0.0854c-0.156 0.0553-0.325 0.0854-0.5 0.0854-0.828 0-1.5-0.672-1.5-1.5v-4c0-0.828 0.672-1.5 1.5-1.5 0.252 0 0.49 0.0624 0.699 0.172 0.369-1.2 1.22-2.18 2.33-2.72l-0.449-0.674c-0.153-0.23-0.0911-0.54 0.139-0.693zm-2.22 9.42v-4c0-0.276-0.224-0.5-0.5-0.5s-0.5 0.224-0.5 0.5v4c0 0.276 0.224 0.5 0.5 0.5s0.5-0.224 0.5-0.5zm1-4c0 0.276 0.224 0.5 0.5 0.5h7c0.276 0 0.5-0.224 0.5-0.5 0-1.93-1.57-3.5-3.5-3.5h-1c-1.93 0-3.5 1.57-3.5 3.5zm9 4c0 0.276 0.224 0.5 0.5 0.5s0.5-0.224 0.5-0.5v-4c0-0.276-0.224-0.5-0.5-0.5s-0.5 0.224-0.5 0.5v4zm-1-2c0-0.276-0.224-0.5-0.5-0.5h-7c-0.276 0-0.5 0.224-0.5 0.5v3.5c0 0.552 0.448 1 1 1h0.5c0.276 0 0.5 0.224 0.5 0.5v2c0 0.276 0.224 0.5 0.5 0.5s0.5-0.224 0.5-0.5v-2c0-0.276 0.224-0.5 0.5-0.5h1c0.276 0 0.5 0.224 0.5 0.5v2c0 0.276 0.224 0.5 0.5 0.5s0.5-0.224 0.5-0.5v-2c0-0.276 0.224-0.5 0.5-0.5h0.5c0.552 0 1-0.448 1-1v-3.5zm-5-4c0 0.276-0.224 0.5-0.5 0.5s-0.5-0.224-0.5-0.5 0.224-0.5 0.5-0.5 0.5 0.224 0.5 0.5zm2.5 0.5c0.276 0 0.5-0.224 0.5-0.5s-0.224-0.5-0.5-0.5-0.5 0.224-0.5 0.5 0.224 0.5 0.5 0.5z" clip-rule="evenodd" fill="#000" fill-rule="evenodd"/></svg>
