<svg viewBox="0 0 16 16" xmlns="http://www.w3.org/2000/svg"><path d="m11 0.371c0.067-0.121 0.0235-0.273-0.0972-0.34s-0.273-0.0236-0.34 0.0971l-0.643 1.16c-0.311-0.134-0.646-0.225-0.996-0.265-0.195-0.022-0.428-0.022-0.892-0.022s-0.697 0-0.892 0.022c-0.33 0.0371-0.645 0.12-0.94 0.241-0.0188 0.00773-0.0375 0.0156-0.0561 0.0236l-0.643-1.16c-0.067-0.121-0.219-0.164-0.34-0.0971-0.121 0.0671-0.164 0.219-0.0971 0.34l0.637 1.15c-0.895 0.551-1.52 1.49-1.65 2.59-0.022 0.195-0.022 0.428-0.022 0.892h8c0-0.464 0-0.697-0.022-0.892-0.124-1.1-0.751-2.04-1.65-2.59l0.637-1.15zm-4.97 3.13c0.276 0 0.5-0.224 0.5-0.5s-0.224-0.5-0.5-0.5-0.5 0.224-0.5 0.5 0.224 0.5 0.5 0.5zm4.5-0.5c0 0.276-0.224 0.5-0.5 0.5-0.276 0-0.5-0.224-0.5-0.5s0.224-0.5 0.5-0.5c0.276 0 0.5 0.224 0.5 0.5z" clip-rule="evenodd" fill="#000" fill-rule="evenodd"/><path d="m1 6c0-0.552 0.448-1 1-1s1 0.448 1 1v4c0 0.552-0.448 1-1 1s-1-0.448-1-1v-4z" fill="#000"/><path d="m13 6c0-0.552 0.448-1 1-1s1 0.448 1 1v4c0 0.552-0.448 1-1 1s-1-0.448-1-1v-4z" fill="#000"/><path d="m4 6v6c0 0.552 0.448 1 1 1v2c0 0.552 0.448 1 1 1s1-0.448 1-1v-2h2v2c0 0.552 0.448 1 1 1 0.552 0 1-0.448 1-1v-2c0.552 0 1-0.448 1-1v-6h-8z" fill="#000"/></svg>
