<svg fill="none" viewBox="0 0 16 16" xmlns="http://www.w3.org/2000/svg"><path d="m8 1c-1.35 0-2.33 0.0157-2.92 0.047-0.525 0.019-1.05 0.108-1.55 0.266-0.511 0.182-0.976 0.476-1.36 0.86s-0.677 0.848-0.86 1.36c-0.157 0.501-0.247 1.02-0.266 1.55-0.0313 0.594-0.047 1.57-0.047 2.92s0.0157 2.33 0.047 2.92c0.019 0.525 0.108 1.05 0.266 1.55 0.182 0.511 0.475 0.976 0.86 1.36 0.38 0.382 0.846 0.666 1.36 0.828 0.497 0.178 1.02 0.278 1.55 0.296 0.594 0.0313 1.57 0.047 2.92 0.047s2.33-0.0157 2.92-0.047c0.525-0.019 1.05-0.108 1.55-0.266 0.511-0.182 0.975-0.476 1.36-0.86s0.677-0.848 0.86-1.36c0.157-0.502 0.246-1.02 0.266-1.55 0.0313-0.594 0.047-1.57 0.047-2.92s-0.0103-2.32-0.031-2.91c-0.0282-0.531-0.123-1.06-0.282-1.56-0.182-0.511-0.476-0.976-0.859-1.36s-0.848-0.677-1.36-0.86c-0.502-0.157-1.02-0.247-1.55-0.266-0.594-0.0313-1.57-0.047-2.92-0.047zm-0.5 12.8c-0.833 0-1.48-0.0103-1.94-0.031-0.571-0.0099-1.14-0.0939-1.69-0.25-0.305-0.119-0.581-0.3-0.813-0.531-0.231-0.231-0.412-0.508-0.531-0.813-0.156-0.549-0.24-1.12-0.25-1.69-0.021-0.458-0.0315-1.1-0.0315-1.94v-1c0-0.833 0.0105-1.48 0.0315-1.94 0.00602-0.571 0.0901-1.14 0.25-1.69 0.113-0.308 0.291-0.588 0.523-0.82s0.512-0.411 0.82-0.523c0.549-0.156 1.12-0.24 1.69-0.25 0.458-0.021 1.1-0.0315 1.94-0.0315h1c0.833 0 1.48 0.0105 1.94 0.0315 0.571 0.00602 1.14 0.0901 1.69 0.25 0.308 0.113 0.588 0.291 0.82 0.523 0.232 0.232 0.411 0.512 0.524 0.82 0.16 0.549 0.244 1.12 0.25 1.69 0.0207 0.438 0.031 1.08 0.031 1.94v1c0 0.833-0.0103 1.48-0.031 1.94-0.0099 0.571-0.0939 1.14-0.25 1.69-0.119 0.305-0.3 0.581-0.531 0.813s-0.508 0.412-0.813 0.531c-0.548 0.16-1.12 0.244-1.69 0.25-0.437 0.0207-1.08 0.031-1.94 0.031h-1zm4.25-10.4c-0.173-7.4e-4 -0.342 0.0501-0.486 0.146-0.144 0.0959-0.256 0.232-0.322 0.392-0.0661 0.16-0.0831 0.336-0.0487 0.505 0.0343 0.17 0.118 0.325 0.241 0.447 0.0795 0.083 0.175 0.149 0.281 0.194 0.106 0.0446 0.22 0.0671 0.335 0.066 0.113 0.00213 0.225-0.0199 0.328-0.0647 0.104-0.0448 0.196-0.111 0.272-0.195 0.159-0.168 0.256-0.385 0.275-0.616-0.0027-0.231-0.0958-0.452-0.259-0.616-0.164-0.164-0.384-0.257-0.616-0.259zm-3.75 1.12c-0.615-0.00374-1.22 0.159-1.75 0.472-0.53 0.307-0.971 0.748-1.28 1.28-0.309 0.532-0.471 1.14-0.471 1.75s0.163 1.22 0.471 1.75c0.307 0.531 0.748 0.971 1.28 1.28 0.532 0.309 1.14 0.472 1.75 0.472s1.22-0.163 1.75-0.472c0.531-0.307 0.971-0.748 1.28-1.28 0.309-0.532 0.472-1.14 0.472-1.75s-0.163-1.22-0.472-1.75c-0.307-0.53-0.748-0.971-1.28-1.28-0.53-0.312-1.13-0.475-1.75-0.472zm0 5.75c-0.596-9e-4 -1.17-0.238-1.59-0.66-0.422-0.422-0.659-0.994-0.66-1.59 9.3e-4 -0.596 0.238-1.17 0.66-1.59 0.422-0.422 0.994-0.659 1.59-0.66 0.596 9.3e-4 1.17 0.238 1.59 0.66 0.422 0.422 0.659 0.994 0.66 1.59-9e-4 0.596-0.238 1.17-0.66 1.59-0.422 0.422-0.994 0.659-1.59 0.66z" fill="#000"/></svg>
