<svg xmlns="http://www.w3.org/2000/svg" viewBox="0 0 16 16" fill="none">
  <path fill="#000"
    d="M8 1c-1.354 0-2.328.016-2.922.047a5.876 5.876 0 0 0-1.547.266A3.658 3.658 0 0 0 1.313 3.53a5.876 5.876 0 0 0-.265 1.547C1.016 5.672 1 6.646 1 8s.016 2.328.047 2.922a5.88 5.88 0 0 0 .266 1.547c.181.511.475.976.859 1.359.38.382.846.666 1.36.829a5.1 5.1 0 0 0 1.546.296C5.672 14.984 6.646 15 8 15s2.328-.016 2.922-.047a5.883 5.883 0 0 0 1.547-.265 3.66 3.66 0 0 0 2.219-2.219 5.883 5.883 0 0 0 .265-1.547C14.984 10.328 15 9.354 15 8s-.01-2.323-.031-2.906a6.361 6.361 0 0 0-.281-1.563 3.66 3.66 0 0 0-2.219-2.219 5.88 5.88 0 0 0-1.547-.265C10.328 1.016 9.354 1 8 1Zm-.5 12.75c-.833 0-1.48-.01-1.938-.031a6.591 6.591 0 0 1-1.687-.25 2.368 2.368 0 0 1-1.344-1.344 6.57 6.57 0 0 1-.25-1.688A45.231 45.231 0 0 1 2.25 8.5v-1c0-.833.01-1.48.031-1.938.007-.57.09-1.139.25-1.687a2.253 2.253 0 0 1 1.344-1.344 6.57 6.57 0 0 1 1.688-.25A45.231 45.231 0 0 1 7.5 2.25h1c.833 0 1.48.01 1.938.031.57.007 1.138.09 1.687.25a2.255 2.255 0 0 1 1.344 1.344c.16.549.244 1.116.25 1.688.02.437.031 1.083.031 1.937v1c0 .833-.01 1.48-.031 1.938a6.59 6.59 0 0 1-.25 1.687 2.37 2.37 0 0 1-1.344 1.344 6.289 6.289 0 0 1-1.688.25 45.69 45.69 0 0 1-1.937.031h-1Zm4.25-10.375a.871.871 0 0 0-.616 1.49.842.842 0 0 0 .616.26.789.789 0 0 0 .6-.26 1.01 1.01 0 0 0 .275-.615.885.885 0 0 0-.875-.875ZM8 4.5a3.407 3.407 0 0 0-1.75.471A3.514 3.514 0 0 0 4.5 8 3.507 3.507 0 0 0 8 11.5 3.507 3.507 0 0 0 11.5 8a3.514 3.514 0 0 0-1.75-3.029A3.407 3.407 0 0 0 8 4.5Zm0 5.75A2.254 2.254 0 0 1 5.75 8 2.254 2.254 0 0 1 8 5.75 2.254 2.254 0 0 1 10.25 8 2.254 2.254 0 0 1 8 10.25Z" />
</svg>