<svg fill="none" viewBox="0 0 16 16" xmlns="http://www.w3.org/2000/svg"><path d="m13.5 14c0.711-2.69 1.29-5.48 0.901-8.26-0.15-0.946-0.618-2.69-1.91-2.22-1.62 0.593-2.78 2.36-3.68 3.77 1.16 2.12 2.06 4.37 2.7 6.7h-1.47c-0.626-1.79-1.17-3.49-2.06-5.18-0.839 1.66-1.52 3.4-2.04 5.19h-1.48c0.261-1.15 1.26-4.16 2.68-6.7-0.865-1.37-1.83-2.8-3.28-3.62-1.68-0.986-2.26 1.29-2.36 2.54-0.267 2.65 0.323 5.23 0.957 7.78h-1.47c-0.827-2.99-1.66-7.63-0.208-10.5 0.692-1.36 2.12-1.86 3.5-1.23 1.65 0.707 2.67 2.23 3.7 3.62 0.62-0.856 1.22-1.71 2-2.44 1.52-1.53 3.9-2.27 5.17-0.0419 1.51 2.82 0.678 7.61-0.166 10.6l-1.48-0.0044z" fill="#000"/></svg>
