<svg viewBox="0 0 16 16" xmlns="http://www.w3.org/2000/svg"><path d="m0.946 2c0.0937 0 0.173 0.0308 0.239 0.0931 0.0313 0.0278 0.0564 0.0623 0.0735 0.101s0.0257 0.0812 0.0254 0.124c3.2e-4 0.0395-0.00711 0.0786-0.0218 0.115s-0.0365 0.0693-0.0639 0.0966c-0.0578 0.0585-0.133 0.0947-0.214 0.103l0.314 0.366h-0.306l-0.29-0.362h-0.439v0.362h-0.263v-0.999h0.946zm-0.683 0.416 0.657 5.9e-4c0.0135 7.8e-4 0.0269-0.00128 0.0396-0.00607 0.0127-0.00479 0.0243-0.0122 0.0341-0.0218 0.00951-0.00869 0.017-0.0195 0.022-0.0316 0.00494-0.0121 0.0072-0.0252 0.00661-0.0384 7.6e-4 -0.0132-0.00142-0.0263-0.00637-0.0384-0.00496-0.0121-0.0126-0.0229-0.0222-0.0315-0.00963-0.00981-0.0212-0.0173-0.034-0.0219-0.0127-0.00462-0.0263-0.00624-0.0397-0.00477h-0.657v0.194zm3.04-0.416v0.222h-0.927v0.164h0.803v0.219h-0.803v0.172h0.927v0.222h-1.19v-0.999h1.19zm1.65 0 0.611 0.999h-0.283l-0.133-0.219h-0.651l-0.134 0.219h-0.282l0.611-0.999h0.262zm-0.327 0.568h0.392l-0.195-0.321-0.197 0.321zm1.71 0.43v-0.999h0.263v0.776h0.877v0.222h-1.14zm2.22-0.999v0.999h-0.263v-0.999h0.263zm1.75 0c0.0833-0.00207 0.164 0.0296 0.225 0.0883 0.0617 0.0587 0.0925 0.13 0.0925 0.213v0.00415h-0.256c0.0012-0.00296 0.0012-0.00415 6e-4 -0.00415 2e-4 -0.0104-0.0018-0.0207-6e-3 -0.0301-0.0041-0.00944-0.0103-0.0178-0.018-0.0244-0.0075-0.00792-0.0166-0.014-0.0267-0.0178-0.0101-0.0038-0.0209-0.0052-0.0316-0.00413h-0.547c-0.0106-8.7e-4 -0.0213 7e-4 -0.0313 0.00459-0.00998 0.00389-0.019 0.01-0.0264 0.0179-0.00741 0.00672-0.0133 0.015-0.0174 0.0243-0.00405 0.00931-0.00611 0.0194-0.00606 0.0296 1.6e-4 0.0103 0.00237 0.0205 0.0065 0.0299 0.00413 0.00938 0.0101 0.0178 0.0175 0.0246 0.0154 0.0148 0.0343 0.0225 0.0572 0.0225l0.299-6e-4c0.135-0.00118 0.235-0.00118 0.299 0 0.0914-5.9e-4 0.169 0.0296 0.232 0.0913 0.0651 0.0599 0.0971 0.133 0.0954 0.219 7e-4 0.0417-0.0076 0.083-0.0243 0.121-0.0167 0.0379-0.0414 0.0715-0.0723 0.0983-0.0628 0.0603-0.146 0.0928-0.231 0.0907h-0.638c-0.0857 0.00167-0.169-0.0308-0.232-0.0907-0.0304-0.0271-0.0547-0.0608-0.0712-0.0987-0.0165-0.0379-0.0248-0.0791-0.0243-0.121h0.246v0.00119c-4e-5 0.0119 0.00239 0.0237 0.00713 0.0345 0.00473 0.0108 0.0116 0.0205 0.0203 0.0283 0.0175 0.0173 0.041 0.0267 0.0652 0.0261h0.602c0.0243-5.4e-4 0.0476-0.00951 0.0663-0.0255 0.0084-0.00786 0.0152-0.0174 0.0198-0.0282s7e-3 -0.0223 0.0071-0.0341c1e-4 -0.0119-0.0022-0.0237-7e-3 -0.0346-0.0047-0.0109-0.0117-0.0205-0.0204-0.0282-0.0176-0.0173-0.041-0.0267-0.0652-0.0261h-0.621c-0.0832 0.00146-0.164-0.0301-0.225-0.0883-0.0293-0.0265-0.0527-0.0592-0.0687-0.0959-0.016-0.0367-0.0241-0.0766-0.0239-0.117 0-0.0836 0.0308-0.154 0.0926-0.211 0.0616-0.0582 0.142-0.0906 0.225-0.0913h0.614v0.00118zm2.44 0v0.222h-0.5v0.776h-0.263v-0.776h-0.498v-0.222h1.26zm1.08 0v0.999h-0.263v-0.999h0.263zm1.86 0c0.0863 0 0.159 0.0284 0.219 0.0854 0.0286 0.0254 0.0515 0.0571 0.067 0.0928 0.0155 0.0356 0.0233 0.0744 0.0227 0.113v0.064h-0.263v-0.0166c3e-4 -0.0157-0.0027-0.0314-9e-3 -0.0457-0.0062-0.0144-0.0154-0.0271-0.027-0.0372-0.0116-0.0117-0.0254-0.0208-0.0405-0.0266-0.0152-0.00583-0.0314-0.00826-0.0475-0.00715h-0.577c-0.0161-6.1e-4 -0.0322 0.00212-0.0473 0.00802s-0.0289 0.0149-0.0407 0.0264c-0.0116 0.00999-0.0209 0.0226-0.0271 0.0369-0.0063 0.0143-0.0093 0.0298-0.0089 0.0455v0.321c0 0.032 0.012 0.0599 0.0366 0.083 0.0243 0.0218 0.0553 0.0338 0.0874 0.0338h0.577c0.0323-1.9e-4 0.0635-0.0124 0.088-0.0344 0.0113-0.0103 0.0204-0.0229 0.0266-0.0371 0.0062-0.0142 0.0094-0.0296 0.0094-0.0452v-0.0154h0.263v0.0628c6e-4 0.0391-0.0072 0.0778-0.0227 0.113-0.0155 0.0356-0.0384 0.0673-0.067 0.0928-0.0597 0.0568-0.138 0.0874-0.219 0.0854h-0.732c-0.081 0.00183-0.16-0.0287-0.219-0.0854-0.0285-0.0256-0.0513-0.0572-0.0668-0.0929s-0.0233-0.0743-0.0229-0.113v-0.415c0-0.0806 0.0302-0.149 0.0908-0.206 0.0597-0.0565 0.138-0.0871 0.219-0.0854h0.731z" fill="#000"/><path d="m0.284 13h0.521c0.0777 0 0.145 0.0302 0.199 0.0901 0.0271 0.0284 0.0484 0.0622 0.0627 0.0994 0.0142 0.0372 0.0211 0.0769 0.0202 0.117v6e-3h-0.242v-6e-3c6.42e-4 -8e-3 -4.64e-4 -0.016-0.00323-0.0235s-0.00713-0.0142-0.0128-0.0197c-0.00518-0.0058-0.0115-0.0105-0.0184-0.0136-0.00698-0.0032-0.0145-0.0048-0.0221-0.0048l-0.464 6e-4c-0.00765 0-0.0152 0.0017-0.0222 0.0049-0.00702 0.0031-0.0134 0.0077-0.0186 0.0135-0.00528 0.0057-0.00938 0.0125-0.0121 0.0199-0.0027 0.0075-0.00393 0.0154-0.00362 0.0233 0 0.0166 0.00571 0.0314 0.0166 0.0445 0.0114 0.0118 0.0246 0.0178 0.04 0.0178l0.254-6e-4c0.114-0.0018 0.199-0.0018 0.254 0 0.0806 0 0.149 0.0308 0.205 0.0924 0.0282 0.0291 0.0503 0.0639 0.065 0.102 0.0146 0.0383 0.0215 0.0794 0.0202 0.121 0.00135 0.0412-0.00552 0.0823-0.0202 0.121-0.0146 0.0383-0.0368 0.0731-0.065 0.102-0.0259 0.0296-0.0576 0.0531-0.093 0.0689s-0.0736 0.0237-0.112 0.023h-0.543c-0.0385 5e-4 -0.0767-0.0074-0.112-0.0233-0.0353-0.0158-0.0671-0.0392-0.0931-0.0686-0.0279-0.0293-0.0499-0.0642-0.0646-0.102-0.0147-0.0383-0.0219-0.0793-0.0211-0.12v-0.0047h0.234v0.0065c3.03e-4 0.019 0.0072 0.0373 0.0194 0.0516 0.0131 0.0136 0.0286 0.0207 0.0469 0.0207h0.511c9e-3 1e-4 0.0179-0.0017 0.0262-0.0053 0.0083-0.0036 0.0158-0.0089 0.0221-0.0156 0.00626-0.0068 0.0111-0.0147 0.0143-0.0234 0.00319-0.0088 0.00464-0.0181 0.00425-0.0274 2.49e-4 -0.0095-0.00134-0.019-0.00468-0.0278-0.00334-0.0089-0.00835-0.017-0.0148-0.0238-0.00544-0.0073-0.0126-0.0131-0.0208-0.0167-0.00821-0.0037-0.0172-5e-3 -0.026-4e-3h-0.527c-0.0375 2e-4 -0.0747-0.0077-0.109-0.0232s-0.0654-0.0383-0.0908-0.0669c-0.0541-0.0582-0.0839-0.136-0.0829-0.217 0-0.0836 0.0274-0.155 0.0817-0.213 0.0512-0.057 0.122-0.0907 0.197-0.0936h0.00343v-6e-4zm2.1 0c0.0766 0 0.142 0.029 0.195 0.0871 0.0267 0.0274 0.0476 0.0602 0.0614 0.0965 0.0138 0.0362 0.0201 0.075 0.0186 0.114v0.405c1e-3 0.0389-0.00562 0.0776-0.0195 0.114s-0.0346 0.069-0.0611 0.0966c-0.0247 0.0278-0.0548 0.0498-0.0882 0.0646-0.0335 0.0149-0.0696 0.0221-0.106 0.0214h-0.64c-0.0364 3e-4 -0.0726-0.0073-0.106-0.0223-0.0334-0.015-0.0635-0.0371-0.0883-0.0649-0.026-0.0278-0.0464-0.0606-0.0602-0.0966-0.0137-0.036-0.0205-0.0745-0.0198-0.113v-0.405c-4.3e-4 -0.0783 0.0284-0.154 0.0806-0.21 0.0247-0.0276 0.0547-0.0496 0.0881-0.0646 0.0333-0.015 0.0693-0.0227 0.106-0.0225l0.639 6e-4zm-0.64 0.272c-0.00883 0.0094-0.0158 0.0206-0.0204 0.0328s-0.00682 0.0253-0.0065 0.0384v0.312c-2.4e-4 0.0265 0.00961 0.0521 0.0274 0.0711 0.0177 0.0174 0.0408 0.0277 0.0651 0.029h0.509c0.0248-8e-4 0.0484-0.0112 0.0663-0.029 0.00888-0.0094 0.0158-0.0205 0.0204-0.0327s0.0068-0.0253 0.00641-0.0384v-0.312c3.5e-4 -0.0132-0.00191-0.0263-0.00663-0.0385-0.00471-0.0123-0.0118-0.0234-0.0208-0.0327-0.00805-0.0096-0.0181-0.0172-0.0294-0.0222-0.0113-5e-3 -0.0235-0.0073-0.0358-0.0068h-0.509c-0.0124-4e-4 -0.0247 0.0021-0.0362 0.0071-0.0114 5e-3 -0.0217 0.0125-0.0301 0.0219zm1.51-0.272v0.656c-2.4e-4 0.0265 0.00962 0.0521 0.0274 0.0711 0.0177 0.0174 0.0408 0.0277 0.0651 0.029h0.456c0.0248-1e-3 0.0483-0.0114 0.0663-0.029 0.00898-0.0093 0.016-0.0204 0.0206-0.0326 0.00463-0.0123 0.00675-0.0254 0.00622-0.0385v-0.656h0.249v0.701c1e-3 0.0389-0.00562 0.0776-0.0195 0.114s-0.0346 0.069-0.0611 0.0966c-0.0245 0.0281-0.0545 0.0504-0.088 0.0655-0.0335 0.015-0.0698 0.0224-0.106 0.0217h-0.588c-0.0366 4e-4 -0.0729-0.0072-0.107-0.0222s-0.0639-0.0371-0.0888-0.065c-0.0524-0.0564-0.0812-0.132-0.08-0.21v-0.701h0.248zm1.47 0 0.691 0.666v-0.666h0.248v0.999h-0.241l-0.69-0.666v0.666h-0.247v-0.999h0.24zm2.16 0c0.0777 0 0.146 0.029 0.205 0.0877 0.0287 0.0261 0.0515 0.0584 0.0668 0.0947s0.0228 0.0756 0.0218 0.115v0.405c2.7e-4 0.0395-0.00753 0.0787-0.0229 0.115-0.0154 0.0362-0.0379 0.0686-0.0662 0.095-0.0269 0.0278-0.0588 0.0499-0.0939 0.0648-0.0351 0.015-0.0727 0.0226-0.111 0.0224h-0.881v-0.999h0.881v-6e-4zm-0.632 0.756h0.585c0.0247-0.0012 0.0482-0.0115 0.0663-0.029 0.00888-0.0094 0.0158-0.0205 0.0204-0.0327 0.00461-0.0122 0.0068-0.0253 0.00641-0.0384v-0.312c3.4e-4 -0.0132-0.00191-0.0263-0.00663-0.0385-0.00471-0.0123-0.0118-0.0234-0.0208-0.0327-0.00806-0.0096-0.0181-0.0172-0.0294-0.0222-0.0113-5e-3 -0.0235-0.0073-0.0358-0.0068h-0.585v0.513h-5.7e-4zm3.22-0.756v0.243h-0.786v0.133h0.682v0.239h-0.682v0.141h0.786v0.243h-1.03v-0.999h1.03zm0.581 0 0.691 0.666v-0.666h0.248v0.999h-0.241l-0.69-0.666v0.666h-0.248v-0.999h0.241zm2.44 0v0.243h-0.82c-0.0124-3e-4 -0.0247 0.0021-0.0361 0.0071-0.0115 5e-3 -0.0217 0.0125-0.0302 0.0219-0.0088 0.0094-0.0157 0.0206-0.0203 0.0328s-0.0068 0.0253-0.0065 0.0384v0.312c-3e-4 0.0265 0.0096 0.0521 0.0274 0.0711 0.0177 0.0174 0.0408 0.0277 0.0651 0.029h0.601v-0.124h-0.279v-0.232h0.527v0.6h-0.914c-0.0366 4e-4 -0.0729-0.0072-0.107-0.0222-0.0336-0.015-0.0639-0.0371-0.0888-0.065-0.026-0.0278-0.0465-0.0606-0.0602-0.0966s-0.0205-0.0745-0.0198-0.113v-0.405c-5e-4 -0.0783 0.0284-0.154 0.0806-0.21 0.0247-0.0277 0.0548-0.0497 0.0883-0.0647 0.0334-0.015 0.0695-0.0227 0.106-0.0224l0.886 6e-4zm0.617 0v0.999h-0.247v-0.999h0.247zm0.581 0 0.691 0.666v-0.666h0.248v0.999h-0.241l-0.69-0.666v0.666h-0.248v-0.999h0.24zm2.31 0v0.243h-0.786v0.133h0.682v0.239h-0.682v0.141h0.786v0.243h-1.03v-0.999h1.03z" fill="#000"/><path d="m5.34 11h-1.73l-1.76-2h-0.418v2h-1.44v-5.83h2.95c0.626 0 1.14 0.183 1.52 0.531s0.574 0.809 0.574 1.37c0 0.478-0.139 0.879-0.409 1.21-0.278 0.331-0.652 0.539-1.12 0.644l1.83 2.07zm-3.91-3.2h1.36c0.252 0 0.452-0.0609 0.609-0.191 0.157-0.122 0.235-0.296 0.235-0.513 0-0.209-0.0783-0.374-0.235-0.505-0.157-0.122-0.357-0.191-0.609-0.191h-1.36v1.4z" fill="#000"/><path d="m8.12 5c0.635 0 1.17 0.157 1.6 0.452 0.426 0.296 0.696 0.713 0.809 1.24l-1.41 0.287c-0.0522-0.261-0.174-0.461-0.365-0.6-0.191-0.139-0.409-0.217-0.652-0.217-0.235 0-0.426 0.0609-0.565 0.174-0.148 0.113-0.217 0.252-0.217 0.418 0 0.261 0.157 0.418 0.47 0.487l1.21 0.27c1.06 0.244 1.6 0.809 1.6 1.7 0 0.6-0.235 1.06-0.687 1.39-0.461 0.33-1.04 0.496-1.71 0.496s-1.26-0.148-1.73-0.461c-0.47-0.313-0.748-0.748-0.818-1.3l1.48-0.287c0.139 0.574 0.522 0.861 1.15 0.861 0.261 0 0.47-0.0522 0.626-0.165 0.157-0.104 0.235-0.252 0.235-0.435 0-0.139-0.0435-0.244-0.122-0.331-0.0783-0.0783-0.217-0.139-0.418-0.183l-1.22-0.261c-1.04-0.235-1.57-0.8-1.57-1.69 0-0.557 0.209-1.01 0.635-1.34 0.418-0.331 0.974-0.496 1.67-0.496z" fill="#000"/><path d="m16 9.72v1.24h-4.54v-5.83h4.51v1.24h-3.08v1.1h2.83v1.17h-2.83v1.1h3.11z" fill="#000"/></svg>
