<svg viewBox="0 0 16 16" xmlns="http://www.w3.org/2000/svg"><path d="m12.4 15h-5.47l0.313-0.485h2.51l0.784-1.27h-2.01l0.313-0.485h2l0.784-1.27h-2.42l0.313-0.485h5.47l-2.58 4h0.0012zm-2.91-2.64 0.299-0.485h-1.92l0.568-0.879h-4.86l-2.58 4h4.86l0.568-0.879h1.99l0.299-0.485h-1.98l0.821-1.27h1.94z" fill="#000"/><path d="m8.88 8.15c0.897 0 1.64-0.186 2.22-0.56l-0.0016-0.00203c0.583-0.374 0.874-0.82 0.874-1.34 0-0.408-0.18-0.771-0.541-1.09-0.365-0.317-1.07-0.654-2.12-1.01-0.748-0.256-1.22-0.435-1.43-0.535-0.281-0.14-0.486-0.282-0.613-0.425-0.0923-0.107-0.139-0.229-0.139-0.366 0-0.217 0.131-0.408 0.393-0.574 0.262-0.166 0.617-0.249 1.07-0.249 0.581 0 1.12 0.158 1.62 0.474 0.243 0.154 0.442 0.332 0.597 0.534h-0.578v1.31c0.0827 0.031 0.163 0.0621 0.24 0.0924 0.0875-0.283 0.227-0.549 0.395-0.72 0.0613-0.0621 0.136-0.122 0.219-0.177 0.0261 0.0702 0.0485 0.142 0.0667 0.217h0.27v-2.07h-0.27c-0.0571 0.186-0.118 0.304-0.185 0.352-0.0661 0.0486-0.151 0.0729-0.27 0.0729-0.119 0-0.326-0.0493-0.623-0.148-0.297-0.0992-0.548-0.167-0.755-0.204-0.273-0.0486-0.554-0.0729-0.844-0.0729-0.796 0-1.46 0.174-1.98 0.522-0.363 0.241-0.599 0.517-0.711 0.829h-1.41v0.258c0.649 0 1.18 0.13 1 0.55l-1.33 2.57-1.54-2.8c-0.179-0.353 0.708-0.321 0.862-0.321v-0.258h-3.36v0.258c0.275 0 0.664 0.0351 0.794 0.267l2.38 4.5h0.457l2.36-4.44c0.0864-0.157 0.377-0.321 0.725-0.321-0.349 0-0.544 0.366-0.63 0.522l-0.18 0.339c0.0245 0.0371 0.0512 0.0742 0.08 0.111 0.191 0.241 0.465 0.459 0.821 0.654 0.356 0.196 0.941 0.432 1.75 0.709 0.581 0.198 0.985 0.359 1.21 0.482 0.229 0.123 0.399 0.254 0.511 0.391 0.112 0.137 0.168 0.279 0.168 0.425 0 0.248-0.147 0.464-0.439 0.65-0.293 0.186-0.685 0.279-1.18 0.279-0.638 0-1.23-0.173-1.78-0.519-0.552-0.345-0.925-0.848-1.12-1.51h-0.244v2.34h0.244c0.0789-0.125 0.182-0.218 0.31-0.279 0.127-0.0614 0.248-0.0918 0.363-0.0918 0.136 0 0.31 0.031 0.521 0.0918 0.378 0.11 0.693 0.184 0.943 0.224s0.517 0.0594 0.798 0.0594z" fill="#000"/><path d="m11.6 3.3v-0.287l4.41 6.7e-4v1.64h-0.171c-0.072-0.277-0.234-0.701-0.512-0.972-0.279-0.271-0.644-0.408-0.963-0.408h-0.479v3.78c0 0.256 0.0181 0.415 0.0544 0.479 0.0362 0.0634 0.107 0.119 0.213 0.167 0.106 0.0479 0.251 0.0715 0.434 0.0715h0.213v0.238h-3.37v-0.238h0.213c0.187 0 0.337-0.0263 0.451-0.0776 0.0826-0.0344 0.147-0.0931 0.195-0.177 0.0347-0.0594 0.0523-0.214 0.0523-0.464v-3.78h-0.464c-0.0955 0-0.188 0.0108-0.277 0.029z" fill="#000"/></svg>
