<svg xmlns="http://www.w3.org/2000/svg" viewBox="0 0 16 16" fill="none">
  <path fill="#000"
    d="M12.418 15H6.95l.313-.485h2.51l.784-1.272h-2.01l.313-.486h1.996l.784-1.272H9.219L9.532 11H15l-2.584 4h.002Zm-2.915-2.636.299-.485H7.878L8.446 11H3.583L1 15h4.862l.568-.879h1.99l.3-.485H6.743l.821-1.272h1.939ZM8.875 8.15c.897 0 1.637-.186 2.22-.56l-.002-.002c.583-.374.874-.82.874-1.338 0-.408-.18-.771-.54-1.088-.366-.317-1.072-.654-2.118-1.011-.748-.256-1.225-.435-1.432-.535-.28-.14-.486-.282-.613-.425a.544.544 0 0 1-.139-.366c0-.216.131-.408.393-.574.262-.166.617-.249 1.065-.249.581 0 1.12.158 1.62.474.243.154.442.332.597.533h-.578v1.307c.083.03.163.062.24.092.088-.283.228-.55.396-.72.061-.062.135-.122.22-.177.025.07.048.142.066.216h.27V1.66h-.27c-.057.186-.119.304-.185.352a.438.438 0 0 1-.27.073c-.119 0-.326-.05-.623-.148a5.432 5.432 0 0 0-.756-.204 4.804 4.804 0 0 0-.844-.073c-.796 0-1.456.174-1.979.522-.363.24-.6.516-.711.828H4.364v.258c.65 0 1.183.13 1 .55L4.035 6.39 2.5 3.589c-.18-.352.708-.32.862-.32V3.01H0v.258c.274 0 .664.036.793.267l2.383 4.496h.457L5.996 3.59c.086-.157.376-.321.725-.321-.35 0-.544.365-.63.522l-.181.339c.024.037.051.074.08.11.191.241.465.46.821.654.356.196.941.432 1.755.71.58.198.985.358 1.214.482.228.123.4.254.511.391a.665.665 0 0 1 .168.425c0 .248-.147.464-.439.65-.293.185-.685.278-1.177.278a3.297 3.297 0 0 1-1.785-.518c-.552-.346-.925-.848-1.118-1.507h-.245v2.341h.245a.737.737 0 0 1 .31-.278.835.835 0 0 1 .362-.092c.136 0 .31.03.521.092.378.11.693.184.944.224.25.04.517.059.798.059Z" />
  <path fill="#000"
    d="M11.592 3.297v-.286H16V4.65h-.171c-.072-.277-.234-.701-.513-.973a1.421 1.421 0 0 0-.962-.408h-.479v3.779c0 .255.018.414.054.479a.456.456 0 0 0 .214.167c.106.048.25.071.434.071h.213v.239h-3.367v-.239h.213c.187 0 .337-.026.45-.077a.394.394 0 0 0 .195-.177c.035-.06.053-.214.053-.464V3.268h-.465c-.095 0-.188.011-.277.03Z" />
</svg>