<svg fill="none" viewBox="0 0 12 12" xmlns="http://www.w3.org/2000/svg"><path d="m3.94 1.6c0.701-0.892 1.05-1.34 1.48-1.5 0.373-0.141 0.784-0.141 1.16 0 0.425 0.161 0.776 0.607 1.48 1.5l1.99 2.54c0.523 0.665 0.784 0.998 0.885 1.37 0.0887 0.324 0.0887 0.667 0 0.991-0.1 0.368-0.362 0.7-0.885 1.37l-1.99 2.54c-0.701 0.892-1.05 1.34-1.48 1.5-0.373 0.141-0.784 0.141-1.16 0-0.425-0.161-0.776-0.607-1.48-1.5l-1.99-2.54c-0.523-0.665-0.784-0.998-0.885-1.37-0.0886-0.324-0.0886-0.667 0-0.991 0.1-0.368 0.362-0.7 0.885-1.37l1.99-2.54z" fill="#000"/></svg>
