<svg xmlns="http://www.w3.org/2000/svg" viewBox="0 0 16 16" fill="none">
  <path fill="#fff"
    d="M5 6.5a.5.5 0 0 1 .5-.5h5a.5.5 0 0 1 0 1h-5a.5.5 0 0 1-.5-.5ZM5.5 9a.5.5 0 0 0 0 1h5a.5.5 0 1 0 0-1h-5ZM5 12.5a.5.5 0 0 1 .5-.5h5a.5.5 0 0 1 0 1h-5a.5.5 0 0 1-.5-.5ZM5.5 3a.5.5 0 0 0 0 1H8V3H5.5Z" />
  <path fill="#fff" fill-rule="evenodd"
    d="M13.995 4.57a.495.495 0 0 0-.023-.236 1.503 1.503 0 0 0-.193-.496c-.093-.152-.223-.281-.482-.54L10.703.702c-.26-.26-.39-.389-.54-.482A1.5 1.5 0 0 0 9.665.03a.5.5 0 0 0-.235-.024C9.319 0 9.184 0 9.006 0H6.8C5.12 0 4.28 0 3.638.327a3 3 0 0 0-1.311 1.311C2 2.28 2 3.12 2 4.8v6.4c0 1.68 0 2.52.327 3.162a3 3 0 0 0 1.311 1.311C4.28 16 5.12 16 6.8 16h2.4c1.68 0 2.52 0 3.162-.327a3 3 0 0 0 1.311-1.31C14 13.72 14 12.88 14 11.2V4.994c0-.178 0-.313-.005-.424ZM11.09 14.963C10.639 15 10.057 15 9.2 15H6.8c-.857 0-1.439 0-1.889-.037-.438-.036-.663-.101-.819-.18a2 2 0 0 1-.874-.875c-.08-.156-.145-.38-.18-.819C3 12.64 3 12.057 3 11.2V4.8c0-.856 0-1.439.038-1.889.035-.438.1-.662.18-.819a2 2 0 0 1 .874-.874c.156-.08.38-.144.819-.18C5.361 1 5.943 1 6.8 1H9v3.5a.5.5 0 0 0 .5.5H13v6.2c0 .857 0 1.44-.038 1.89-.035.438-.1.662-.18.818a2 2 0 0 1-.874.874c-.156.08-.38.145-.819.18ZM10 1.414 12.586 4H10V1.414Z"
    clip-rule="evenodd" />
</svg>