<svg xmlns="http://www.w3.org/2000/svg" viewBox="0 0 16 16" fill="none">
  <path fill="#fff" fill-rule="evenodd"
    d="M4.891 15.454C5 15.24 5 14.96 5 14.4v.6h5.175c.489 0 .733 0 .963-.055a2 2 0 0 0 .579-.24c.201-.123.374-.296.72-.642l1.626-1.626c.346-.345.519-.518.642-.72a2 2 0 0 0 .24-.578c.055-.23.055-.475.055-.964V5.8c0-.29 0-.556-.002-.8h-.57c.541 0 .816-.002 1.026-.109a1 1 0 0 0 .437-.437C16 4.24 16 3.96 16 3.4V1.6c0-.56 0-.84-.109-1.054a1 1 0 0 0-.437-.437C15.24 0 14.96 0 14.4 0H1.6C1.04 0 .76 0 .546.11a1 1 0 0 0-.437.436C0 .76 0 1.04 0 1.6v12.8c0 .56 0 .84.109 1.054a1 1 0 0 0 .437.437c.214.11.494.11 1.054.11h1.8c.56 0 .84 0 1.054-.11a1 1 0 0 0 .437-.437ZM4 1H1.6c-.297 0-.459.001-.575.01l-.014.002v.013C1 1.14 1 1.304 1 1.6V3h.5a.5.5 0 0 1 0 1H1v2h.5a.5.5 0 0 1 0 1H1v2h.5a.5.5 0 0 1 0 1H1v2h.5a.5.5 0 0 1 0 1H1v1.4c0 .297 0 .459.01.576l.001.013h.014c.116.01.278.011.575.011h1.8c.297 0 .459 0 .575-.01l.014-.001v-.013C4 14.859 4 14.696 4 14.4V1Zm9.998 4H5v9h5v-3.5a.5.5 0 0 1 .5-.5H14V5.8c0-.298 0-.562-.002-.8Zm.402-1H5V1h1v.5a.5.5 0 1 0 1 0V1h2v.5a.5.5 0 1 0 1 0V1h2v.5a.5.5 0 0 0 1 0V1h1.4c.296 0 .459.001.575.01l.014.002v.013c.01.116.011.279.011.575v1.8c0 .297 0 .459-.01.576l-.001.013h-.014C14.86 4 14.697 4 14.4 4ZM11 13.945c.068-.024.133-.055.194-.092.077-.048.157-.118.536-.497l1.626-1.626c.38-.38.45-.458.497-.536a.993.993 0 0 0 .091-.194H11v2.945Z"
    clip-rule="evenodd" />
</svg>