<svg xmlns="http://www.w3.org/2000/svg" viewBox="0 0 16 16" fill="none">
  <path fill="#fff"
    d="M5.5 5a.5.5 0 0 0 0 1h5a.5.5 0 0 0 0-1h-5ZM5 7.5a.5.5 0 0 1 .5-.5h5a.5.5 0 0 1 0 1h-5a.5.5 0 0 1-.5-.5ZM5.5 9a.5.5 0 0 0 0 1h3a.5.5 0 1 0 0-1h-3Z" />
  <path fill="#fff" fill-rule="evenodd"
    d="M3 4.4c0-.84 0-1.26.163-1.58a1.5 1.5 0 0 1 .656-.656C4.139 2 4.559 2 5.4 2h5.2c.84 0 1.26 0 1.581.164a1.5 1.5 0 0 1 .655.655C13 3.14 13 3.56 13 4.4v7.2c0 .84 0 1.26-.164 1.581a1.5 1.5 0 0 1-.655.656c-.32.163-.74.163-1.581.163H5.4c-.84 0-1.26 0-1.581-.163a1.5 1.5 0 0 1-.656-.656C3 12.861 3 12.441 3 11.601V4.4ZM5.4 3h5.2c.437 0 .704.001.904.017a1.281 1.281 0 0 1 .215.035.5.5 0 0 1 .23.23 1.29 1.29 0 0 1 .034.215c.016.2.017.467.017.903v7.2c0 .437 0 .704-.017.904a1.288 1.288 0 0 1-.034.216.5.5 0 0 1-.222.226l-.008.003a1.275 1.275 0 0 1-.215.034c-.2.016-.468.017-.904.017H5.4c-.437 0-.704 0-.904-.017a1.275 1.275 0 0 1-.215-.034l-.008-.003a.5.5 0 0 1-.218-.219l-.004-.008a1.279 1.279 0 0 1-.034-.216c-.016-.199-.017-.466-.017-.903V4.4c0-.436 0-.704.017-.904a1.282 1.282 0 0 1 .034-.215l.003-.008a.5.5 0 0 1 .219-.218l.008-.003a1.281 1.281 0 0 1 .215-.034C4.696 3 4.963 3 5.4 3Z"
    clip-rule="evenodd" />
</svg>