<svg xmlns="http://www.w3.org/2000/svg" viewBox="0 0 16 16" fill="none">
  <path fill="#fff" fill-rule="evenodd"
    d="M2.2 1H0V0h2.2c1.68 0 2.52 0 3.162.327a3 3 0 0 1 1.311 1.311C7 2.28 7 3.12 7 4.8v6.206c0 .178 0 .313-.005.425a.503.503 0 0 1-.023.236 1.5 1.5 0 0 1-.193.496c-.093.151-.223.28-.482.54l-2.594 2.594c-.26.26-.39.39-.54.482a1.5 1.5 0 0 1-.497.193.497.497 0 0 1-.235.024C2.319 16 2.184 16 2.006 16H0v-1h2v-3.5a.5.5 0 0 1 .5-.5H6V4.8c0-.856 0-1.439-.038-1.889-.035-.438-.1-.662-.18-.819a2 2 0 0 0-.874-.874c-.156-.08-.38-.144-.819-.18C3.639 1 3.057 1 2.2 1Zm3.386 11H3v2.586L5.586 12Z"
    clip-rule="evenodd" />
  <path fill="#fff"
    d="M9.854 3.854 12 1.707v12.586l-2.146-2.146a.5.5 0 1 0-.708.707l3 3a.5.5 0 0 0 .708 0l3-3a.5.5 0 0 0-.708-.707L13 14.293V1.707l2.146 2.147a.5.5 0 0 0 .708-.707l-3-3a.499.499 0 0 0-.708 0l-3 3a.5.5 0 1 0 .708.707Z" />
</svg>