<svg xmlns="http://www.w3.org/2000/svg" viewBox="0 0 16 16" fill="none">
  <path fill="#fff" fill-rule="evenodd"
    d="M14 16v-2.005c0-.179 0-.314-.005-.425a.493.493 0 0 0-.023-.236 1.503 1.503 0 0 0-.193-.496c-.093-.151-.223-.281-.482-.54l-2.594-2.595c-.26-.26-.39-.389-.54-.482a1.5 1.5 0 0 0-.497-.192.5.5 0 0 0-.235-.024C9.319 9 9.184 9 9.006 9H6.8c-1.68 0-2.52 0-3.162.327a3 3 0 0 0-1.311 1.311C2 11.28 2 12.12 2 13.8V16h1v-2.2c0-.856 0-1.439.038-1.889.035-.438.1-.662.18-.819a2 2 0 0 1 .874-.874c.156-.08.38-.144.819-.18C5.361 10 5.943 10 6.8 10H9v3.5a.5.5 0 0 0 .5.5H13v2h1Zm-4-5.585L12.586 13H10v-2.585Z"
    clip-rule="evenodd" />
  <path fill="#fff"
    d="M16 3.5a.5.5 0 0 1-.146.354l-3 3a.5.5 0 0 1-.708-.707L14.293 4H1.707l2.147 2.147a.5.5 0 1 1-.708.707l-3-3a.499.499 0 0 1 0-.707l3-3a.5.5 0 1 1 .708.707L1.707 3h12.586L12.146.854a.5.5 0 0 1 .708-.707l3 3A.5.5 0 0 1 16 3.5Z" />
</svg>