<svg viewBox="0 0 16 16" xmlns="http://www.w3.org/2000/svg"><path d="m0 1.5c0-0.276 0.224-0.5 0.5-0.5h15c0.276 0 0.5 0.224 0.5 0.5s-0.224 0.5-0.5 0.5h-15c-0.276 0-0.5-0.224-0.5-0.5z" fill="#000"/><path d="m5 5.5c0-0.276 0.224-0.5 0.5-0.5h10c0.276 0 0.5 0.224 0.5 0.5s-0.224 0.5-0.5 0.5h-10c-0.276 0-0.5-0.224-0.5-0.5z" fill="#000"/><path d="m3 9.5c0-0.276 0.224-0.5 0.5-0.5h12c0.276 0 0.5 0.224 0.5 0.5s-0.224 0.5-0.5 0.5h-12c-0.276 0-0.5-0.224-0.5-0.5z" fill="#000"/><path d="m10 13.5c0-0.276 0.224-0.5 0.5-0.5h5c0.276 0 0.5 0.224 0.5 0.5s-0.224 0.5-0.5 0.5h-5c-0.276 0-0.5-0.224-0.5-0.5z" fill="#000"/></svg>
