<svg viewBox="0 0 16 16" xmlns="http://www.w3.org/2000/svg"><path d="m4 2c0.206 1e-5 0.391 0.126 0.466 0.318l3.5 9c0.1 0.257-0.0271 0.547-0.284 0.647-0.257 0.1-0.547-0.0271-0.647-0.284l-1.04-2.68h-3.98l-1.04 2.68c-0.1 0.257-0.39 0.384-0.647 0.284-0.257-0.1-0.384-0.39-0.284-0.647l3.5-9c0.0748-0.192 0.26-0.318 0.466-0.318zm-1.6 6h3.21l-1.6-4.12-1.6 4.12z" clip-rule="evenodd" fill="#000" fill-rule="evenodd"/><path d="m12.5 5c0.505 1e-5 0.96 0.304 1.15 0.77l2.31 5.54c0.106 0.255-0.0147 0.548-0.27 0.654s-0.548-0.0146-0.654-0.27l-0.705-1.69h-3.67l-0.705 1.69c-0.106 0.255-0.399 0.376-0.654 0.27s-0.376-0.399-0.27-0.654l2.31-5.54c0.194-0.466 0.65-0.77 1.15-0.77zm0 1c-0.101 0-0.192 0.0611-0.23 0.154l-1.19 2.85h2.83l-1.19-2.85c-0.0388-0.0932-0.13-0.154-0.23-0.154z" clip-rule="evenodd" fill="#000" fill-rule="evenodd"/></svg>
