<svg viewBox="0 0 16 16" xmlns="http://www.w3.org/2000/svg"><path d="m5 2c0.206 0 0.391 0.127 0.466 0.319l3.5 9c0.1 0.257-0.0274 0.547-0.285 0.647-0.257 0.1-0.547-0.0274-0.647-0.285l-1.04-2.68h-3.98l-1.04 2.68c-0.1 0.257-0.39 0.385-0.647 0.285s-0.385-0.39-0.285-0.647l3.5-9c0.0747-0.192 0.26-0.319 0.466-0.319zm-1.6 6h3.2l-1.6-4.12-1.6 4.12z" clip-rule="evenodd" fill="#000" fill-rule="evenodd"/><path d="m12.6 5c-0.874 0-1.67 0.494-2.07 1.28-0.124 0.247-0.0234 0.547 0.224 0.671 0.247 0.123 0.547 0.0234 0.671-0.224 0.222-0.443 0.675-0.724 1.17-0.724h0.882c0.828 0 1.5 0.672 1.5 1.5v0.5h-3c-1.1 0-2 0.895-2 2 0 1.1 0.895 2 2 2h1.5c0.563 0 1.08-0.186 1.5-0.5 1e-4 0.276 0.224 0.5 0.5 0.5 0.276 0 0.5-0.224 0.5-0.5v-4c0-1.38-1.12-2.5-2.5-2.5h-0.882zm-1.62 5c0-0.552 0.448-1 1-1h3v0.5c0 0.828-0.672 1.5-1.5 1.5h-1.5c-0.552 0-1-0.448-1-1z" clip-rule="evenodd" fill="#000" fill-rule="evenodd"/></svg>
