<svg fill="none" viewBox="0 0 16 16" xmlns="http://www.w3.org/2000/svg"><path d="m8.17 2.25c1.93 0 3.49 0.983 3.88 2.51 0.0242 0.0967 0.0322 0.21 0.0322 0.347 0 0.306-0.202 0.508-0.5 0.508-0.29 0-0.459-0.153-0.548-0.443-0.33-1.24-1.44-1.93-2.9-1.93-1.57 0-2.81 0.822-2.81 2.14 0 1.06 0.717 1.72 2.44 2.11l1.27 0.29c0.279 0.0632 0.539 0.131 0.78 0.205l3.69 9e-5c0.667 0 0.667 1 0 1l-1.82 2.5e-4c0.48 0.483 0.695 1.09 0.695 1.86 0 2.06-1.66 3.39-4.17 3.39-2.19 0-3.76-1.04-4.15-2.51-0.0484-0.153-0.0725-0.298-0.0725-0.443 0-0.355 0.193-0.58 0.508-0.58 0.282 0 0.459 0.145 0.532 0.451 0.298 1.34 1.57 2.08 3.24 2.08 1.75 0 2.99-0.927 2.99-2.25 0-0.959-0.556-1.59-1.89-2l-6.85-3e-5 -0.105-0.00892c-0.56-0.0991-0.525-0.991 0.105-0.991l3.33 0.00119c-1.14-0.571-1.64-1.41-1.64-2.56 0-1.88 1.69-3.19 3.97-3.19z" fill="#000"/></svg>
