<svg fill="none" viewBox="0 0 16 16" xmlns="http://www.w3.org/2000/svg"><path d="m3 2c0-0.552 0.448-1 1-1h5c2.21 0 4 1.79 4 4 0 0.98-0.352 1.88-0.937 2.57 1.16 0.7 1.94 1.97 1.94 3.43 0 2.21-1.79 4-4 4h-6c-0.552 0-1-0.448-1-1v-12zm2 10.5c0 0.276 0.224 0.5 0.5 0.5h4.5c1.1 0 2-0.895 2-2 0-1.1-0.895-2-2-2h-4.5c-0.276 0-0.5 0.224-0.5 0.5v3zm0-6c0 0.276 0.224 0.5 0.5 0.5h3.5c1.1 0 2-0.895 2-2s-0.895-2-2-2h-3.5c-0.276 0-0.5 0.224-0.5 0.5v3z" clip-rule="evenodd" fill="#000" fill-rule="evenodd"/></svg>
