<svg fill="none" viewBox="0 0 16 16" xmlns="http://www.w3.org/2000/svg"><path d="m8.5 1h7c0.276 0 0.5 0.224 0.5 0.5s-0.224 0.5-0.5 0.5h-7c-0.276 0-0.5-0.224-0.5-0.5s0.224-0.5 0.5-0.5zm0 4h7c0.276 0 0.5 0.224 0.5 0.5s-0.224 0.5-0.5 0.5h-7c-0.276 0-0.5-0.224-0.5-0.5s0.224-0.5 0.5-0.5zm0 4h7c0.276 0 0.5 0.224 0.5 0.5s-0.224 0.5-0.5 0.5h-7c-0.276 0-0.5-0.224-0.5-0.5s0.224-0.5 0.5-0.5zm0 4h3c0.276 0 0.5 0.224 0.5 0.5s-0.224 0.5-0.5 0.5h-3c-0.276 0-0.5-0.224-0.5-0.5s0.224-0.5 0.5-0.5zm-4.65-8.85 3 3 0.0375 0.0419 0.0422 0.0619 0.0291 0.0592 0.021 0.0625 0.0114 0.0559 0.00519 0.0723-0.00282 0.0534-0.0138 0.0747-0.0212 0.0629-0.0394 0.076-0.0404 0.0551-3.03 3.03c-0.195 0.195-0.512 0.195-0.707 0-0.195-0.195-0.195-0.512 0-0.707l2.15-2.15h-4.79c-0.276 0-0.5-0.224-0.5-0.5s0.224-0.5 0.5-0.5h4.79l-2.15-2.15c-0.174-0.174-0.193-0.443-0.0579-0.638l0.0579-0.0692c0.195-0.195 0.512-0.195 0.707 0z" clip-rule="evenodd" fill="#000" fill-rule="evenodd"/></svg>
