<svg viewBox="0 0 24 24" xmlns="http://www.w3.org/2000/svg"><path d="m3 8c-0.224 0.00303-0.411 0.0102-0.573 0.0234-0.302 0.0247-0.476 0.0708-0.607 0.138-0.282 0.144-0.512 0.374-0.656 0.656-0.067 0.132-0.113 0.305-0.138 0.607-0.0252 0.308-0.0254 0.705-0.0254 1.27v9.6c0 0.568 1.9e-4 0.965 0.0254 1.27 0.0247 0.302 0.0707 0.476 0.138 0.607 0.144 0.282 0.374 0.512 0.656 0.656 0.132 0.067 0.305 0.113 0.607 0.138 0.56 0.0458 1.06-0.329 1.26-0.857l2.74-7.54c0.207-0.569 0.31-0.854 0.492-1.06 0.161-0.185 0.366-0.329 0.595-0.417 0.26-0.0996 0.563-0.0996 1.17-0.0996h13c0.768 0 1.15-1e-4 1.4 0.161 0.217 0.141 0.371 0.361 0.43 0.613 0.0666 0.288-0.0646 0.65-0.327 1.37l-2.45 6.75c-0.276 0.759-0.414 1.14-0.657 1.42-0.215 0.247-0.486 0.438-0.792 0.556-0.346 0.133-0.75 0.133-1.56 0.133h-14.8l9.8e-4 -0.0039c-0.245-0.0034-0.463-0.0096-0.655-0.0254-0.364-0.0298-0.684-0.0923-0.98-0.243-0.47-0.24-0.853-0.622-1.09-1.09-0.151-0.296-0.213-0.616-0.243-0.98-0.0293-0.359-0.0293-0.803-0.0293-1.35v-9.6c0-0.552-8.94e-7 -0.996 0.0293-1.35 0.0298-0.364 0.0923-0.684 0.243-0.98 0.24-0.47 0.622-0.853 1.09-1.09 0.296-0.151 0.616-0.213 0.98-0.243 0.192-0.0157 0.409-0.023 0.654-0.0264v0.999z" fill="#000"/><path d="m13.5 1.15e-5c0.71 0 1.15-0.00319 1.56 0.0967 0.357 0.0857 0.699 0.227 1.01 0.419 0.365 0.224 0.672 0.535 1.17 1.04l3.19 3.19c0.502 0.502 0.813 0.809 1.04 1.17 0.192 0.313 0.333 0.655 0.419 1.01 0.0999 0.416 0.0967 0.853 0.0967 1.56v2.51h-1v-2.51c0-0.189-6e-4 -0.35-2e-3 -0.488h-4.5c-1.38 0-2.5-1.12-2.5-2.5v-4.5c-0.139-0.00135-0.299-0.00195-0.488-0.00195h-4.21c-0.848 0-1.45 2.4e-4 -1.93 0.0391-0.469 0.0383-0.766 0.112-1 0.233-0.47 0.24-0.853 0.622-1.09 1.09-0.122 0.239-0.195 0.536-0.233 1-0.0388 0.475-0.0391 1.08-0.0391 1.93v7.51c-0.22 0.407-0.354 0.816-0.454 1.09l-0.546 1.5v-10.1c0-0.832 6e-5 -1.49 0.043-2.01 0.0434-0.531 0.133-0.975 0.339-1.38 0.336-0.658 0.871-1.19 1.53-1.53 0.403-0.205 0.847-0.295 1.38-0.339 0.525-0.0429 1.18-0.043 2.01-0.043h4.21zm1.49 5.5c0 0.828 0.672 1.5 1.5 1.5h4.39c-0.0613-0.197-0.146-0.387-0.254-0.563-0.147-0.241-0.356-0.454-0.892-0.989l-3.19-3.19c-0.536-0.536-0.749-0.744-0.989-0.892-0.177-0.108-0.366-0.193-0.564-0.254v4.39z" clip-rule="evenodd" fill="#000" fill-rule="evenodd"/></svg>
