<svg fill="none" viewBox="0 0 24 24" xmlns="http://www.w3.org/2000/svg"><path d="m11.8 2.33c-0.224-1.35-1.39-2.33-2.75-2.33h-0.161c-1.58 0-2.8 1.37-2.63 2.94 0.154 1.39 1.07 2.57 2.36 3.06h-3.43c-1.12 0-1.68 0-2.11 0.218-0.376 0.192-0.682 0.498-0.874 0.874-0.218 0.428-0.218 0.988-0.218 2.11v0.6c0 1.12 0 1.68 0.218 2.11 0.176 0.345 0.448 0.631 0.782 0.824v6.47c0 1.68 0 2.52 0.327 3.16 0.288 0.564 0.747 1.02 1.31 1.31 0.642 0.327 1.48 0.327 3.16 0.327h8.4c1.68 0 2.52 0 3.16-0.327 0.564-0.288 1.02-0.746 1.31-1.31 0.327-0.642 0.327-1.48 0.327-3.16v-6.47c0.334-0.193 0.606-0.479 0.782-0.824 0.218-0.428 0.218-0.988 0.218-2.11v-0.6c0-1.12 0-1.68-0.218-2.11-0.192-0.376-0.498-0.682-0.874-0.874-0.428-0.218-0.988-0.218-2.11-0.218h-3.43c1.29-0.496 2.21-1.67 2.36-3.06 0.174-1.57-1.05-2.94-2.63-2.94h-0.161c-1.36 0-2.53 0.986-2.75 2.33l-0.188 1.13-0.188-1.13zm-2.75-1.33c0.875 0 1.62 0.633 1.77 1.5l0.549 3.29-2.19-0.657c-1.04-0.313-1.8-1.22-1.92-2.3-0.108-0.975 0.655-1.83 1.64-1.83h0.161zm5.88 0c-0.875 0-1.62 0.633-1.77 1.5l-0.549 3.29 2.19-0.657c1.04-0.313 1.8-1.22 1.92-2.3 0.108-0.975-0.655-1.83-1.64-1.83h-0.161zm-9.74 6h4.8v5h-4.8c-0.577 0-0.949-8e-4 -1.23-0.0239-0.272-0.0222-0.372-0.0599-0.422-0.0851-0.188-0.0959-0.341-0.249-0.437-0.437-0.0252-0.0495-0.0629-0.15-0.0851-0.422-0.0232-0.283-0.0239-0.656-0.0239-1.23v-0.6c0-0.577 7.8e-4 -0.949 0.0239-1.23 0.0222-0.272 0.0599-0.372 0.0851-0.422 0.0959-0.188 0.249-0.341 0.437-0.437 0.0494-0.0252 0.15-0.0629 0.422-0.0851 0.283-0.0232 0.656-0.0239 1.23-0.0239zm8.8 5v-5h4.8c0.577 0 0.949 7.8e-4 1.23 0.0239 0.272 0.0222 0.372 0.0599 0.422 0.0851 0.188 0.0959 0.341 0.249 0.437 0.437 0.0252 0.0494 0.0629 0.15 0.0851 0.422 0.0231 0.283 0.0239 0.656 0.0239 1.23v0.6c0 0.577-8e-4 0.949-0.0239 1.23-0.0222 0.272-0.0599 0.372-0.0851 0.422-0.0959 0.188-0.249 0.341-0.437 0.437-0.0495 0.0252-0.15 0.0629-0.422 0.0851-0.283 0.0231-0.656 0.0239-1.23 0.0239h-4.8zm-4 1v10h-2.2c-0.857 0-1.44-8e-4 -1.89-0.0376-0.438-0.0358-0.663-0.101-0.819-0.18-0.376-0.192-0.682-0.498-0.874-0.874-0.0797-0.156-0.145-0.381-0.18-0.819-0.0368-0.45-0.0376-1.03-0.0376-1.89v-6.2h6zm4 0v10h2.2c0.857 0 1.44-8e-4 1.89-0.0376 0.438-0.0358 0.663-0.101 0.819-0.18 0.376-0.192 0.682-0.498 0.874-0.874 0.0797-0.156 0.145-0.381 0.18-0.819 0.0368-0.45 0.0376-1.03 0.0376-1.89v-6.2h-6z" clip-rule="evenodd" fill="#000" fill-rule="evenodd"/></svg>
