<svg fill="none" viewBox="0 0 24 24" xmlns="http://www.w3.org/2000/svg"><path d="m6.5 24c-0.28 0-0.5-0.22-0.5-0.5s0.22-0.5 0.5-0.5h1.16c-1.08-0.578-2.66-2.21-2.66-4.5 0-3.7 3.89-5.39 5-5.84v-1.31c-1.11-0.451-5-2.14-5-5.84 0-2.29 1.6-3.85 2.66-4.5h-1.16c-0.28 0-0.5-0.22-0.5-0.5s0.22-0.5 0.5-0.5h11c0.28 0 0.5 0.22 0.5 0.5s-0.22 0.5-0.5 0.5h-1.16c1.06 0.646 2.66 2.21 2.66 4.5 0 3.7-3.89 5.39-5 5.84v1.31c1.11 0.451 5 2.14 5 5.84 0 2.29-1.58 3.92-2.66 4.5h1.16c0.28 0 0.5 0.22 0.5 0.5s-0.22 0.5-0.5 0.5h-11zm3.08-23h4.85c0.0045 0.00147 0.0092 0.00302 0.0142 0.00466 0.504 0.165 3.56 1.17 3.56 4.49 0 3.59-4.62 5.02-4.66 5.03-0.128 0.0443-0.227 0.134-0.283 0.246-0.0362 0.0696-0.0566 0.149-0.0566 0.234v2c0 0.0848 0.0202 0.164 0.0561 0.233 0.0566 0.112 0.156 0.202 0.284 0.247 0.04 0.01 4.66 1.44 4.66 5.03 0 3.27-3 4.3-3.54 4.49l-0.0052 0.0018h-4.91l-0.00514-0.0018c-0.544-0.186-3.54-1.22-3.54-4.49 0-3.59 4.62-5.02 4.66-5.03 0.128-0.0444 0.227-0.135 0.284-0.247 0.0359-0.0693 0.0561-0.149 0.0561-0.233v-2c0-0.0852-0.0204-0.165-0.0566-0.234-0.0567-0.111-0.156-0.201-0.283-0.246-0.04-0.01-4.66-1.44-4.66-5.03 0-3.32 3.06-4.32 3.56-4.49 0.00498-0.00164 0.0097-0.00319 0.0142-0.00466z" clip-rule="evenodd" fill="#000" fill-rule="evenodd"/></svg>
