<svg viewBox="0 0 24 24" xmlns="http://www.w3.org/2000/svg"><path d="m13.2 17c0 0.69-0.56 1.25-1.25 1.25s-1.25-0.56-1.25-1.25 0.56-1.25 1.25-1.25 1.25 0.56 1.25 1.25z" fill="#000"/><path d="m9.78 8.17c0.194-0.972 1.05-1.67 2.04-1.67h0.203c1.14 0 2.02 0.992 1.89 2.12-0.0687 0.584-0.404 1.1-0.909 1.41l-0.0458 0.0274c-1.06 0.634-1.7 1.78-1.7 3.01v0.189c0 0.414 0.336 0.75 0.75 0.75s0.75-0.336 0.75-0.75v-0.189c0-0.705 0.37-1.36 0.974-1.72l0.0457-0.0275c0.903-0.542 1.5-1.47 1.63-2.52 0.238-2.02-1.34-3.8-3.38-3.8h-0.203c-1.71 0-3.17 1.2-3.51 2.88l-0.0452 0.226c-0.0812 0.406 0.182 0.801 0.588 0.883 0.406 0.0812 0.801-0.182 0.883-0.588l0.0452-0.226z" fill="#000"/><path d="m12 24c6.63 0 12-5.37 12-12 0-6.63-5.37-12-12-12-6.63 0-12 5.37-12 12 0 6.63 5.37 12 12 12zm0-1c6.08 0 11-4.92 11-11 0-6.08-4.92-11-11-11-6.08 0-11 4.92-11 11 0 6.08 4.92 11 11 11z" clip-rule="evenodd" fill="#000" fill-rule="evenodd"/></svg>
