<svg viewBox="0 0 24 24" xmlns="http://www.w3.org/2000/svg"><path d="m16 0.5c0-0.276-0.224-0.5-0.5-0.5s-0.5 0.224-0.5 0.5v23c0 0.276 0.224 0.5 0.5 0.5s0.5-0.224 0.5-0.5v-23z" fill="#000"/><path d="m3.5 3c0.276 0 0.5 0.224 0.5 0.5v17c0 0.276-0.224 0.5-0.5 0.5s-0.5-0.224-0.5-0.5v-17c0-0.276 0.224-0.5 0.5-0.5z" fill="#000"/><path d="m0.5 8c0.276 0 0.5 0.224 0.5 0.5v7c0 0.276-0.224 0.5-0.5 0.5s-0.5-0.224-0.5-0.5v-7c0-0.276 0.224-0.5 0.5-0.5z" fill="#000"/><path d="m6.5 7c0.276 0 0.5 0.224 0.5 0.5v9c0 0.276-0.224 0.5-0.5 0.5s-0.5-0.224-0.5-0.5v-9c0-0.276 0.224-0.5 0.5-0.5z" fill="#000"/><path d="m10 10.5c0-0.276-0.224-0.5-0.5-0.5s-0.5 0.224-0.5 0.5v3c0 0.276 0.224 0.5 0.5 0.5s0.5-0.224 0.5-0.5v-3z" fill="#000"/><path d="m12.5 7c0.276 0 0.5 0.224 0.5 0.5v9c0 0.276-0.224 0.5-0.5 0.5s-0.5-0.224-0.5-0.5v-9c0-0.276 0.224-0.5 0.5-0.5z" fill="#000"/><path d="m18.5 4c0.276 0 0.5 0.224 0.5 0.5v15c0 0.276-0.224 0.5-0.5 0.5s-0.5-0.224-0.5-0.5v-15c0-0.276 0.224-0.5 0.5-0.5z" fill="#000"/><path d="m22 8.5c0-0.276-0.224-0.5-0.5-0.5s-0.5 0.224-0.5 0.5v7c0 0.276 0.224 0.5 0.5 0.5s0.5-0.224 0.5-0.5v-7z" fill="#000"/></svg>
