<svg viewBox="0 0 16 16" xmlns="http://www.w3.org/2000/svg"><path d="m1.91 7c0.043 0.00185 0.126 0.00185 0.293 0.00185h11.6c0.167 0 0.25 0 0.293-0.00185 1.83-0.0791 2.6-2.38 1.18-3.54-0.0333-0.0273-0.1-0.0775-0.233-0.177-0.0998-0.0749-0.15-0.112-0.199-0.148-1.85-1.36-4.08-2.1-6.38-2.13-0.061-6.8e-4 -0.123-6.8e-4 -0.248-6.8e-4h-0.414c-0.125 0-0.187 0-0.248 6.8e-4 -2.3 0.0255-4.53 0.769-6.38 2.13-0.0492 0.036-0.0993 0.0736-0.199 0.149-0.133 0.1-0.2 0.15-0.233 0.177-1.42 1.16-0.652 3.47 1.18 3.54zm6.29-5h-0.414c-0.127 0-0.183 1e-5 -0.237 6.2e-4 -2.09 0.0232-4.11 0.699-5.8 1.93-0.0437 0.032-0.0885 0.0656-0.19 0.142-0.0675 0.0506-0.115 0.0864-0.15 0.113l-0.0387 0.0296-0.0108 0.0085c-0.71 0.582-0.325 1.73 0.59 1.77l0.0138 2.9e-4 0.0487 4.4e-4c0.044 2.2e-4 0.103 2.2e-4 0.188 2.2e-4h11.6c0.0844 0 0.144 0 0.188-2.2e-4l0.0487-4.4e-4c0.0068-1e-4 0.0108-2e-4 0.0126-2.6e-4 8e-4 -3e-5 0.0013-3e-5 0 0 0.916-0.0395 1.3-1.19 0.591-1.77l-0.0108-0.00851-0.0387-0.0296c-0.0351-0.0266-0.0827-0.0623-0.15-0.113-0.102-0.0763-0.146-0.11-0.19-0.142-1.68-1.23-3.71-1.91-5.8-1.93-0.0542-6.1e-4 -0.11-6.2e-4 -0.237-6.2e-4z" clip-rule="evenodd" fill="#000" fill-rule="evenodd"/><path d="m1 9c0-0.552 0.448-1 1-1h3.67c0.216 0 0.427 0.0702 0.6 0.2l3.73 2.8 2.71-2.71c0.188-0.188 0.442-0.293 0.707-0.293h0.586c0.552 2e-5 1 0.448 1 1s-0.448 1-1 1h-1.59l-1.71 1.71c-0.352 0.352-0.909 0.392-1.31 0.0929l-2.4-1.8h-5c-0.552 0-1-0.448-1-1z" fill="#000"/><path d="m12.5 12 1-1h0.754c0.134-5e-4 0.297-1e-3 0.44 0.0411 0.382 0.113 0.66 0.442 0.709 0.837 0.0181 0.148-0.0092 0.308-0.0317 0.44l-0.0066 0.0389-0.0106 0.064c-0.0768 0.461-0.129 0.777-0.243 1.05-0.309 0.736-0.951 1.28-1.73 1.46-0.286 0.0677-0.606 0.0676-1.07 0.0675h-8.62c-0.468 1e-4 -0.788 2e-4 -1.07-0.0675-0.776-0.184-1.42-0.728-1.73-1.46-0.114-0.27-0.166-0.586-0.243-1.05l-0.0106-0.064-0.00658-0.0389c-0.0225-0.132-0.0498-0.293-0.0317-0.44 0.0486-0.395 0.327-0.724 0.709-0.837 0.142-0.0421 0.305-0.0416 0.44-0.0411h4.31l1.56 1h-5.83c-0.0942 0-0.147 2e-4 -0.186 2e-3l-0.00715 4e-4 8e-4 0.0071c0.0045 0.0383 0.0131 0.0905 0.0286 0.183 0.0916 0.55 0.127 0.74 0.189 0.888 0.186 0.441 0.571 0.768 1.04 0.878 0.157 0.0371 0.35 0.0404 0.907 0.0404h8.49c0.557 0 0.751-0.0033 0.908-0.0404 0.466-0.11 0.851-0.437 1.04-0.878 0.0624-0.148 0.0975-0.339 0.189-0.888 0.0155-0.0929 0.0241-0.145 0.0286-0.183l8e-4 -0.0071-0.0072-4e-4c-0.0385-0.0018-0.0914-2e-3 -0.186-2e-3h-1.71z" fill="#000"/></svg>
