<svg viewBox="0 0 16 16" xmlns="http://www.w3.org/2000/svg"><path d="m12 6c0.552 0 1 0.448 1 1h0.5c1.38 0 2.5 1.12 2.5 2.5 0 1.38-1.12 2.5-2.5 2.5h-0.602c-0.402 1.97-1.95 3.51-3.92 3.9-0.38 0.0756-0.806 0.0924-1.37 0.0957h-1.22c-0.561-0.0033-0.987-0.02-1.37-0.0957-1.98-0.395-3.53-1.95-3.93-3.93-0.101-0.507-0.0957-1.09-0.0957-1.98v-3c1.71e-4 -0.552 0.448-1 1-1h10zm-10 4c0 0.929 3.7e-4 1.39 0.0772 1.78 0.316 1.59 1.56 2.83 3.14 3.14 0.386 0.0769 0.851 0.0772 1.78 0.0772 0.929 0 1.39-3e-4 1.78-0.0772 1.59-0.316 2.83-1.56 3.14-3.14 0.0768-0.386 0.0772-0.851 0.0772-1.78v-3h-10v3zm11 0.609c-8e-4 0.138-0.0048 0.268-0.0078 0.391h0.508c0.828 0 1.5-0.672 1.5-1.5-2e-4 -0.828-0.672-1.5-1.5-1.5h-0.5v2.61z" clip-rule="evenodd" fill="#000" fill-rule="evenodd"/><path d="m1.38 0.0149c0.268-0.0668 0.539 0.0967 0.606 0.364l0.0312 0.125c0.11 0.442 0.382 0.827 0.761 1.08 0.586 0.391 1.01 0.986 1.18 1.67l0.0312 0.126c0.0668 0.268-0.0964 0.539-0.364 0.606-0.268 0.0667-0.54-0.0965-0.606-0.364l-0.0312-0.125c-0.111-0.442-0.382-0.827-0.761-1.08-0.586-0.391-1.01-0.986-1.18-1.67l-0.0312-0.126c-0.0666-0.268 0.0967-0.539 0.364-0.606z" fill="#000"/><path d="m4.38 0.0149c0.268-0.0668 0.539 0.0967 0.606 0.364l0.0312 0.125c0.11 0.442 0.382 0.827 0.761 1.08 0.586 0.391 1.01 0.986 1.18 1.67l0.0312 0.126c0.0668 0.268-0.0964 0.539-0.364 0.606-0.268 0.0667-0.54-0.0965-0.606-0.364l-0.0312-0.125c-0.111-0.442-0.382-0.827-0.761-1.08-0.586-0.391-1.01-0.986-1.18-1.67l-0.0312-0.126c-0.0666-0.268 0.0967-0.539 0.364-0.606z" fill="#000"/><path d="m7.38 0.0149c0.268-0.0668 0.539 0.0967 0.606 0.364l0.0312 0.125c0.11 0.442 0.382 0.827 0.761 1.08 0.586 0.391 1.01 0.986 1.18 1.67l0.0312 0.126c0.0669 0.268-0.0964 0.539-0.364 0.606-0.268 0.0667-0.54-0.0965-0.606-0.364l-0.0312-0.125c-0.111-0.442-0.382-0.827-0.761-1.08-0.586-0.391-1.01-0.986-1.18-1.67l-0.0312-0.126c-0.0666-0.268 0.0967-0.539 0.364-0.606z" fill="#000"/></svg>
