<svg viewBox="0 0 16 16" xmlns="http://www.w3.org/2000/svg"><path d="m1.5 0c0.276 1.21e-8 0.5 0.224 0.5 0.5v15c0 0.276-0.224 0.5-0.5 0.5s-0.5-0.224-0.5-0.5v-15c0-0.276 0.224-0.5 0.5-0.5z" fill="#000"/><path d="m4 5.5c0-0.466 0-0.699 0.0761-0.883 0.101-0.245 0.296-0.44 0.541-0.541 0.184-0.0761 0.417-0.0761 0.883-0.0761h8c0.466 0 0.699 0 0.883 0.0761 0.245 0.101 0.44 0.296 0.541 0.541 0.0761 0.184 0.0761 0.417 0.0761 0.883s0 0.699-0.0761 0.883c-0.102 0.245-0.296 0.44-0.541 0.541-0.184 0.0761-0.417 0.0761-0.883 0.0761h-8c-0.466 0-0.699 0-0.883-0.0761-0.245-0.101-0.44-0.296-0.541-0.541-0.0761-0.184-0.0761-0.417-0.0761-0.883z" fill="#000"/><path d="m4 11.5c0-0.466 0-0.699 0.0761-0.883 0.101-0.245 0.296-0.44 0.541-0.541 0.184-0.0761 0.417-0.0761 0.883-0.0761h4c0.466 0 0.699 0 0.883 0.0761 0.245 0.102 0.44 0.296 0.541 0.541 0.0761 0.184 0.0761 0.417 0.0761 0.883s0 0.699-0.0761 0.883c-0.102 0.245-0.296 0.44-0.541 0.541-0.184 0.0761-0.417 0.0761-0.883 0.0761h-4c-0.466 0-0.699 0-0.883-0.0761-0.245-0.102-0.44-0.296-0.541-0.541-0.0761-0.184-0.0761-0.417-0.0761-0.883z" fill="#000"/></svg>
