<svg viewBox="0 0 16 16" xmlns="http://www.w3.org/2000/svg"><path d="m15.5 14c0.276 0 0.5 0.224 0.5 0.5s-0.224 0.5-0.5 0.5h-15c-0.276 0-0.5-0.224-0.5-0.5-1.54e-8 -0.276 0.224-0.5 0.5-0.5h15z" fill="#000"/><path d="m5.5 1c0.466 0 0.699 5e-5 0.883 0.0762 0.245 0.101 0.44 0.296 0.541 0.541 0.0761 0.184 0.0762 0.417 0.0762 0.883v8c0 0.466-5e-5 0.699-0.0762 0.883-0.101 0.245-0.296 0.44-0.541 0.541-0.184 0.0761-0.417 0.0762-0.883 0.0762s-0.699-1e-4 -0.883-0.0762c-0.245-0.102-0.44-0.296-0.541-0.541-0.0761-0.184-0.0762-0.417-0.0762-0.883v-8c0-0.466 5e-5 -0.699 0.0762-0.883 0.101-0.245 0.296-0.44 0.541-0.541 0.184-0.0761 0.417-0.0762 0.883-0.0762z" fill="#000"/><path d="m11.5 5c0.466 0 0.699 5e-5 0.883 0.0762 0.245 0.101 0.44 0.296 0.541 0.541 0.0761 0.184 0.0762 0.417 0.0762 0.883v4c0 0.466-1e-4 0.699-0.0762 0.883-0.102 0.245-0.296 0.44-0.541 0.541-0.184 0.0761-0.417 0.0762-0.883 0.0762s-0.699-1e-4 -0.883-0.0762c-0.245-0.102-0.44-0.296-0.541-0.541-0.0761-0.184-0.0762-0.417-0.0762-0.883v-4c0-0.466 1e-4 -0.699 0.0762-0.883 0.102-0.245 0.296-0.44 0.541-0.541 0.184-0.0761 0.417-0.0762 0.883-0.0762z" fill="#000"/></svg>
