<svg viewBox="0 0 16 16" xmlns="http://www.w3.org/2000/svg"><path d="m10.1 3c0.412 0 0.751-2e-5 1.03 0.0225 0.281 0.023 0.54 0.0717 0.782 0.195 0.376 0.192 0.682 0.498 0.874 0.874 0.124 0.243 0.172 0.501 0.195 0.782 0.0225 0.275 0.0225 0.615 0.0225 1.03v6.1h2.5c0.276 0 0.5 0.224 0.5 0.5s-0.224 0.5-0.5 0.5h-2.5v2.5c0 0.276-0.224 0.5-0.5 0.5s-0.5-0.224-0.5-0.5v-9.6c0-0.428-2e-4 -0.72-0.0186-0.945-0.0179-0.219-0.051-0.331-0.0908-0.409-0.0958-0.188-0.248-0.341-0.436-0.437-0.0781-0.0398-0.19-0.0729-0.409-0.0908-0.225-0.0184-0.517-0.0186-0.945-0.0186h-4.1v-1h4.1z" fill="#000"/><path d="m3.5 0c0.276 0 0.5 0.224 0.5 0.5v9.6c0 0.428 1.7e-4 0.72 0.0186 0.945 0.0179 0.219 0.051 0.331 0.0908 0.409 0.0958 0.188 0.249 0.341 0.437 0.436 0.0782 0.0398 0.19 0.0729 0.409 0.0908 0.225 0.0184 0.517 0.0186 0.945 0.0186h4.1v1h-4.1c-0.412 0-0.751 0-1.03-0.0225-0.281-0.0229-0.54-0.0716-0.782-0.195-0.376-0.192-0.682-0.498-0.874-0.874-0.124-0.243-0.172-0.501-0.195-0.782-0.0225-0.275-0.0225-0.615-0.0225-1.03v-6.1h-2.5c-0.276 0-0.5-0.224-0.5-0.5s0.224-0.5 0.5-0.5h2.5v-2.5c0-0.276 0.224-0.5 0.5-0.5z" fill="#000"/></svg>
