<svg fill="none" viewBox="0 0 16 16" xmlns="http://www.w3.org/2000/svg"><path d="m3.53 1c0.0728 0.00411 0.144 0.0242 0.208 0.0587 0.0643 0.0346 0.12 0.0828 0.164 0.141l4.1 5.64 4.1-5.63c0.0432-0.0589 0.0986-0.108 0.162-0.143 0.0639-0.0354 0.135-0.0565 0.208-0.0619h0.026l0.05 1e-3 0.059 8e-3c0.0605 0.0126 0.118 0.0363 0.17 0.07l0.023 0.016c0.0599 0.0432 0.11 0.0991 0.145 0.164 0.0357 0.0647 0.0564 0.136 0.0609 0.21 0.127 2.2-0.226 3.97-1.08 5.3-0.627 0.974-1.48 1.64-2.53 1.98l1.08 1.48c0.564-0.257 1.2-0.296 1.79-0.108 0.59 0.187 1.09 0.587 1.4 1.12 0.312 0.535 0.415 1.17 0.288 1.77s-0.475 1.14-0.976 1.51c-0.501 0.365-1.12 0.53-1.74 0.465-0.616-0.0656-1.19-0.358-1.6-0.819-0.413-0.462-0.64-1.06-0.637-1.68 0.00334-0.62 0.237-1.22 0.655-1.67l-1.34-1.84c-0.083 0.01-0.168 0.017-0.253 0.024l-0.033 1e-3h-0.061l-0.032-2e-3 -0.253-0.025-1.34 1.84c0.418 0.458 0.651 1.05 0.654 1.67 0.00307 0.62-0.224 1.22-0.637 1.68s-0.983 0.753-1.6 0.819c-0.616 0.0654-1.23-0.1-1.74-0.465-0.501-0.365-0.848-0.902-0.975-1.51-0.127-0.606-0.0243-1.24 0.288-1.77 0.312-0.535 0.812-0.935 1.4-1.12 0.59-0.187 1.23-0.149 1.79 0.108l1.08-1.48c-1.06-0.34-1.9-1-2.53-1.98-0.852-1.32-1.2-3.09-1.08-5.3 0.00705-0.118 0.0556-0.23 0.137-0.316l0.064-0.057 0.015-0.01c0.0431-0.0306 0.0912-0.0536 0.142-0.068 0.0132-0.00389 0.0265-0.00722 0.04-0.01l0.058-8e-3 0.072-1e-3v-2e-3zm0.971 10c-0.197 0-0.392 0.0388-0.574 0.114s-0.347 0.186-0.487 0.325c-0.139 0.139-0.25 0.305-0.325 0.487-0.0754 0.182-0.114 0.377-0.114 0.574s0.0388 0.392 0.114 0.574c0.0754 0.182 0.186 0.347 0.325 0.487 0.139 0.139 0.305 0.25 0.487 0.325s0.377 0.114 0.574 0.114c0.398 0 0.779-0.158 1.06-0.439 0.281-0.281 0.439-0.663 0.439-1.06s-0.158-0.779-0.439-1.06c-0.281-0.281-0.663-0.439-1.06-0.439zm7 0c-0.197 0-0.392 0.0388-0.574 0.114s-0.347 0.186-0.487 0.325c-0.139 0.139-0.25 0.305-0.325 0.487s-0.114 0.377-0.114 0.574 0.0388 0.392 0.114 0.574 0.186 0.347 0.325 0.487c0.139 0.139 0.305 0.25 0.487 0.325s0.377 0.114 0.574 0.114c0.398 0 0.779-0.158 1.06-0.439s0.439-0.663 0.439-1.06-0.158-0.779-0.439-1.06-0.663-0.439-1.06-0.439zm-7.5-7.96c0.081 1.3 0.391 2.36 0.924 3.19 0.626 0.975 1.51 1.54 2.68 1.72l-0.046-0.039-0.06-0.068-3.5-4.81zm8.01 0-3.56 4.89-0.02 0.024c1.16-0.183 2.03-0.752 2.65-1.72 0.533-0.827 0.843-1.89 0.924-3.19z" fill="#000"/></svg>
