<svg viewBox="0 0 16 16" xmlns="http://www.w3.org/2000/svg"><path d="m1.5 0c0.276 1.87e-8 0.5 0.224 0.5 0.5v15c0 0.276-0.224 0.5-0.5 0.5s-0.5-0.224-0.5-0.5v-15c0-0.276 0.224-0.5 0.5-0.5z" fill="#000"/><path d="m14.5 0c0.276 1.87e-8 0.5 0.224 0.5 0.5v15c0 0.276-0.224 0.5-0.5 0.5s-0.5-0.224-0.5-0.5v-15c0-0.276 0.224-0.5 0.5-0.5z" fill="#000"/><path d="m8 4c0.7 0 1.05 4.8e-4 1.32 0.137 0.235 0.12 0.426 0.311 0.546 0.546 0.136 0.267 0.137 0.617 0.137 1.32v4c0 0.7-4.8e-4 1.05-0.137 1.32-0.12 0.235-0.311 0.426-0.546 0.546-0.267 0.136-0.617 0.137-1.32 0.137s-1.05-5e-4 -1.32-0.137c-0.235-0.12-0.426-0.311-0.546-0.546-0.136-0.267-0.137-0.617-0.137-1.32v-4c0-0.7 4.8e-4 -1.05 0.137-1.32 0.12-0.235 0.311-0.426 0.546-0.546 0.267-0.136 0.617-0.137 1.32-0.137z" fill="#000"/></svg>
