<svg fill="none" viewBox="0 0 16 16" xmlns="http://www.w3.org/2000/svg"><path d="m1.5 7.5c0.276 0 0.5 0.224 0.5 0.5 0 0.0746 0.0166 0.148 0.0488 0.216l0.0449 0.0742c1.75 2.4 3.44 3.62 5.65 3.71l0.256 0.0049c2.31 0 4.08-1.22 5.9-3.71 0.0533-0.073 0.0884-0.205 0.0967-0.295 0-0.276 0.224-0.5 0.5-0.5s0.5 0.224 0.5 0.5c0 0.318-0.102 0.628-0.289 0.885-2 2.73-4.05 4.12-6.71 4.12-2.66 0-4.72-1.39-6.71-4.12l-0.082-0.125c-0.136-0.231-0.206-0.493-0.206-0.76 0-0.276 0.223-0.5 0.499-0.5z" fill="#000"/></svg>
