<svg viewBox="0 0 16 16" xmlns="http://www.w3.org/2000/svg"><path d="m11.1 1.18c0.149-0.178 0.408-0.234 0.621-0.119 0.213 0.115 0.309 0.361 0.242 0.584l-0.0391 0.0938-7 13c-0.131 0.243-0.435 0.334-0.678 0.203-0.243-0.131-0.334-0.435-0.203-0.678l7-13 0.0566-0.084z" fill="#000"/><path d="m9.5 12c0.276 0 0.5 0.224 0.5 0.5 0 0.276-0.224 0.5-0.5 0.5h-1.56l0.539-1h1.02z" fill="#000"/><path d="m5.33 9h-1.83c-0.276 0-0.5-0.224-0.5-0.5 1.7e-4 -0.276 0.224-0.5 0.5-0.5h2.36l-0.539 1z" fill="#000"/><path d="m12.5 8c0.276 0 0.5 0.224 0.5 0.5 0 0.276-0.224 0.5-0.5 0.5h-2.4l0.538-1h1.86z" fill="#000"/><path d="m7.48 5h-6.98c-0.276 0-0.5-0.224-0.5-0.5 1.69e-4 -0.276 0.224-0.5 0.5-0.5h7.52l-0.538 1z" fill="#000"/><path d="m15.5 4c0.276 0 0.5 0.224 0.5 0.5 0 0.276-0.224 0.5-0.5 0.5h-3.25l0.539-1h2.71z" fill="#000"/></svg>
