<svg viewBox="0 0 16 16" xmlns="http://www.w3.org/2000/svg"><path d="m1.6 2.55c-0.443-0.665 0.0334-1.55 0.832-1.55h11.1c0.799 0 1.28 0.89 0.832 1.55l-0.766 1.15-1.94 1.11 1.88-2.81h-11.1l3.91 5.87-0.87 0.497-3.87-5.81z" fill="#000"/><path d="m6 12.7v1.35c0 0.189 0.107 0.362 0.276 0.447l3 1.5c0.155 0.0775 0.339 0.0692 0.486-0.0219 0.147-0.0911 0.237-0.252 0.237-0.425v-5.13l-1 0.571v3.75l-2-1v-1.61l-1 0.571z" fill="#000"/><path d="m15.7 4.93c0.24-0.137 0.323-0.442 0.186-0.682-0.137-0.24-0.442-0.323-0.682-0.186l-14 8c-0.24 0.137-0.323 0.442-0.186 0.682 0.137 0.24 0.442 0.323 0.682 0.186l14-8z" fill="#000"/></svg>
