<svg viewBox="0 0 16 16" xmlns="http://www.w3.org/2000/svg"><path d="m12.5 11c0.236 0 0.44 0.166 0.489 0.396 0.0427 0.202-0.0433 0.406-0.21 0.519l-0.0762 0.042-9 4c-0.155 0.0687-0.334 0.0541-0.476-0.0381-0.142-0.0923-0.228-0.25-0.228-0.419v-4c0-0.276 0.224-0.5 0.5-0.5h9z" fill="#000"/><path d="m15.5 8c0.276 0 0.5 0.224 0.5 0.5 0 0.276-0.224 0.5-0.5 0.5h-15c-0.276 0-0.5-0.224-0.5-0.5 1.21e-8 -0.276 0.224-0.5 0.5-0.5h15z" fill="#000"/><path d="m3.23 1.08c0.142-0.0922 0.321-0.107 0.476-0.0381l9 4 0.0762 0.042c0.167 0.112 0.253 0.316 0.21 0.519-0.0491 0.231-0.253 0.396-0.489 0.396h-9c-0.276 0-0.5-0.224-0.5-0.5v-4c0-0.169 0.0857-0.327 0.228-0.419z" fill="#000"/></svg>
