<svg viewBox="0 0 16 16" xmlns="http://www.w3.org/2000/svg"><path d="m13 3.5v3c0 0.276-0.224 0.5-0.5 0.5s-0.5-0.224-0.5-0.5v-1.79l-2.15 2.15c-0.195 0.195-0.512 0.195-0.707 0-0.195-0.195-0.195-0.512 0-0.707l2.15-2.15h-1.79c-0.276 0-0.5-0.224-0.5-0.5s0.224-0.5 0.5-0.5h3c0.0678 0 0.132 0.0135 0.191 0.0379 0.0581 0.024 0.113 0.0595 0.16 0.106l0.0043 0.00424c0.0469 0.0474 0.0823 0.102 0.106 0.16 0.024 0.0581 0.0375 0.122 0.0379 0.188v0.00349z" fill="#000"/><path d="m3.5 9c0.276 0 0.5 0.224 0.5 0.5v1.79l2.15-2.15c0.195-0.195 0.512-0.195 0.707 0 0.195 0.195 0.195 0.512 0 0.707l-2.15 2.15h1.79c0.276 0 0.5 0.224 0.5 0.5s-0.224 0.5-0.5 0.5h-3-0.00349c-0.0667-4e-4 -0.13-0.0139-0.188-0.0379-0.059-0.0244-0.114-0.0606-0.162-0.108-0.0479-0.048-0.0841-0.103-0.109-0.162-0.0244-0.059-0.0379-0.124-0.0379-0.191v-3c0-0.276 0.224-0.5 0.5-0.5z" fill="#000"/><path d="m0 4.8c0-1.68 0-2.52 0.327-3.16 0.288-0.564 0.747-1.02 1.31-1.31 0.642-0.327 1.48-0.327 3.16-0.327h6.4c1.68 0 2.52 0 3.16 0.327 0.564 0.288 1.02 0.747 1.31 1.31 0.327 0.642 0.327 1.48 0.327 3.16v6.4c0 1.68 0 2.52-0.327 3.16-0.288 0.564-0.746 1.02-1.31 1.31-0.642 0.327-1.48 0.327-3.16 0.327h-6.4c-1.68 0-2.52 0-3.16-0.327-0.564-0.288-1.02-0.746-1.31-1.31-0.327-0.642-0.327-1.48-0.327-3.16v-6.4zm4.8-3.8h6.4c0.857 0 1.44 7.8e-4 1.89 0.0376 0.438 0.0358 0.663 0.101 0.819 0.18 0.376 0.192 0.682 0.498 0.874 0.874 0.0797 0.156 0.145 0.381 0.18 0.819 0.0368 0.45 0.0376 1.03 0.0376 1.89v6.4c0 0.857-8e-4 1.44-0.0376 1.89-0.0358 0.438-0.101 0.663-0.18 0.819-0.192 0.376-0.498 0.682-0.874 0.874-0.156 0.0797-0.381 0.145-0.819 0.18-0.45 0.0368-1.03 0.0376-1.89 0.0376h-6.4c-0.857 0-1.44-8e-4 -1.89-0.0376-0.438-0.0358-0.663-0.101-0.819-0.18-0.376-0.192-0.682-0.498-0.874-0.874-0.0797-0.156-0.145-0.381-0.18-0.819-0.0368-0.45-0.0376-1.03-0.0376-1.89v-6.4c0-0.857 7.8e-4 -1.44 0.0376-1.89 0.0358-0.438 0.101-0.663 0.18-0.819 0.192-0.376 0.498-0.682 0.874-0.874 0.156-0.0797 0.381-0.145 0.819-0.18 0.45-0.0368 1.03-0.0376 1.89-0.0376z" clip-rule="evenodd" fill="#000" fill-rule="evenodd"/></svg>
