<svg viewBox="0 0 16 16" xmlns="http://www.w3.org/2000/svg"><path d="m12 1c1.1 0 2 0.895 2 2v9c0 1.1-0.895 2-2 2h-2.5c-0.276 0-0.5-0.224-0.5-0.5s0.224-0.5 0.5-0.5h2.5c0.552 0 1-0.448 1-1v-9c0-0.552-0.448-1-1-1h-2.5c-0.276 0-0.5-0.224-0.5-0.5s0.224-0.5 0.5-0.5h2.5z" fill="#000"/><path d="m4.15 4.15c0.195-0.195 0.512-0.195 0.707 0 0.195 0.195 0.195 0.512 0 0.707l-2.15 2.15h6.79c0.276 0 0.5 0.224 0.5 0.5s-0.224 0.5-0.5 0.5h-6.79l2.15 2.15c0.195 0.195 0.195 0.512 0 0.707-0.195 0.195-0.512 0.195-0.707 0l-3-3c-0.195-0.195-0.195-0.512 0-0.707l3-3z" fill="#000"/></svg>
