<svg fill="none" viewBox="0 0 16 16" xmlns="http://www.w3.org/2000/svg"><path d="m2.15 5.15c0.0939-0.0939 0.221-0.147 0.354-0.147 0.133 0 0.26 0.0527 0.354 0.147s0.147 0.221 0.147 0.354c0 0.133-0.0527 0.26-0.147 0.354l-1.15 1.15h2.79c0.133 0 0.26 0.0527 0.354 0.146 0.0938 0.0938 0.146 0.221 0.146 0.354s-0.0527 0.26-0.146 0.354-0.221 0.146-0.354 0.146h-2.79l1.15 1.15c0.0939 0.0939 0.147 0.221 0.147 0.354 0 0.133-0.0527 0.26-0.147 0.354s-0.221 0.147-0.354 0.147c-0.133 0-0.26-0.0527-0.354-0.147l-2-2c-0.0466-0.0464-0.0835-0.102-0.109-0.162-0.0252-0.0607-0.0382-0.126-0.0382-0.192s0.013-0.131 0.0382-0.192c0.0252-0.0607 0.0621-0.116 0.109-0.162l2-2zm5-5c0.0464-0.0466 0.102-0.0835 0.162-0.109 0.0608-0.0252 0.126-0.0382 0.192-0.0382s0.131 0.013 0.192 0.0382c0.0608 0.0252 0.116 0.0621 0.162 0.109l2 2c0.0465 0.0465 0.0834 0.102 0.109 0.162 0.0252 0.0607 0.0381 0.126 0.0381 0.192 0 0.0657-0.0129 0.131-0.0381 0.192s-0.062 0.116-0.109 0.162-0.102 0.0834-0.162 0.109-0.126 0.0381-0.192 0.0381-0.131-0.013-0.192-0.0381c-0.0607-0.0252-0.116-0.062-0.162-0.109l-1.15-1.15v2.79c0 0.133-0.0527 0.26-0.146 0.354s-0.221 0.146-0.354 0.146-0.26-0.0527-0.354-0.146c-0.0938-0.0938-0.146-0.221-0.146-0.354v-2.79l-1.15 1.15c-0.0939 0.0939-0.221 0.147-0.354 0.147-0.133 0-0.26-0.0527-0.354-0.147s-0.147-0.221-0.147-0.354c0-0.133 0.0527-0.26 0.147-0.354l2-2zm5.71 5c-0.0939-0.0939-0.221-0.147-0.354-0.147s-0.26 0.0527-0.354 0.147-0.147 0.221-0.147 0.354c0 0.133 0.0527 0.26 0.147 0.354l1.15 1.15h-2.79c-0.133 0-0.26 0.0527-0.354 0.146-0.0938 0.0938-0.146 0.221-0.146 0.354s0.0527 0.26 0.146 0.354c0.0937 0.0938 0.221 0.146 0.354 0.146h2.79l-1.15 1.15c-0.0939 0.0939-0.147 0.221-0.147 0.354 0 0.133 0.0527 0.26 0.147 0.354s0.221 0.147 0.354 0.147 0.26-0.0527 0.354-0.147l2-2c0.0466-0.0464 0.0835-0.102 0.109-0.162 0.0252-0.0607 0.0382-0.126 0.0382-0.192s-0.013-0.131-0.0382-0.192c-0.0252-0.0607-0.0621-0.116-0.109-0.162l-2-2zm-4.85 8.15v-2.79c0-0.133-0.0527-0.26-0.146-0.354-0.0938-0.0938-0.221-0.146-0.354-0.146s-0.26 0.0527-0.354 0.146c-0.0938 0.0937-0.146 0.221-0.146 0.354v2.79l-1.15-1.15c-0.0939-0.0939-0.221-0.147-0.354-0.147-0.133 0-0.26 0.0527-0.354 0.147s-0.147 0.221-0.147 0.354 0.0527 0.26 0.147 0.354l2 2c0.0464 0.0466 0.102 0.0835 0.162 0.109 0.0608 0.0252 0.126 0.0382 0.192 0.0382s0.131-0.013 0.192-0.0382c0.0608-0.0252 0.116-0.0621 0.162-0.109l2-2c0.0939-0.0939 0.147-0.221 0.147-0.354s-0.0527-0.26-0.147-0.354-0.221-0.147-0.354-0.147c-0.133 0-0.26 0.0527-0.354 0.147l-1.15 1.15z" fill="#000"/></svg>
