<svg fill="none" viewBox="0 0 16 16" xmlns="http://www.w3.org/2000/svg"><path d="m7.5 0c0.276 0 0.5 0.224 0.5 0.5v6c0 0.276-0.224 0.5-0.5 0.5-0.276 0-0.5-0.224-0.5-0.5v-6c0-0.276 0.224-0.5 0.5-0.5zm-2.04 1.83c0.115 0.251 0.00431 0.548-0.247 0.663-1.14 0.522-2.07 1.42-2.63 2.54-0.562 1.12-0.723 2.4-0.457 3.63 0.266 1.23 0.943 2.32 1.92 3.11 0.976 0.788 2.19 1.22 3.45 1.22 1.25 0.0023 2.47-0.424 3.45-1.21 0.979-0.785 1.66-1.88 1.93-3.11 0.27-1.23 0.114-2.51-0.444-3.63s-1.48-2.02-2.62-2.55c-0.251-0.116-0.36-0.413-0.244-0.664 0.116-0.251 0.413-0.36 0.664-0.244 1.35 0.621 2.44 1.68 3.1 3.01 0.659 1.33 0.844 2.84 0.525 4.29-0.32 1.45-1.12 2.74-2.28 3.67-1.16 0.928-2.6 1.43-4.08 1.43-1.48-0.0026-2.92-0.512-4.07-1.44-1.15-0.932-1.95-2.23-2.27-3.68-0.314-1.45-0.124-2.96 0.54-4.29 0.664-1.33 1.76-2.39 3.11-3 0.251-0.115 0.548-0.00431 0.663 0.247z" clip-rule="evenodd" fill="#000" fill-rule="evenodd"/></svg>
