<svg viewBox="0 0 16 16" xmlns="http://www.w3.org/2000/svg"><path d="m12 4.57c0.0032-0.0226 0.0048-0.0458 0.0048-0.0693 0-0.0583-0.01-0.114-0.0283-0.166-0.0038-0.0212-0.0082-0.042-0.0131-0.0626-0.0368-0.153-0.0974-0.299-0.18-0.434-0.0928-0.151-0.222-0.281-0.482-0.541l-2.59-2.59c-0.259-0.259-0.389-0.389-0.54-0.482-0.134-0.0822-0.281-0.143-0.434-0.18-0.0206-0.00495-0.0414-0.00931-0.0626-0.0131-0.052-0.0183-0.108-0.0283-0.166-0.0283-0.0235 0-0.0466 0.00162-0.0693 0.00476-0.111-0.00476-0.246-0.00476-0.425-0.00476h-2.21c-1.68 0-2.52 0-3.16 0.327-0.564 0.288-1.02 0.747-1.31 1.31-0.327 0.642-0.327 1.48-0.327 3.16v6.4c0 1.68 0 2.52 0.327 3.16 0.288 0.564 0.747 1.02 1.31 1.31 0.642 0.327 1.48 0.327 3.16 0.327h2.4 0.0238c0.401 0 0.602-0.523 0.347-0.832-0.0849-0.103-0.212-0.168-0.345-0.168h-2.43c-0.857 0-1.44-7e-4 -1.89-0.0375-0.438-0.0358-0.663-0.101-0.819-0.18-0.376-0.192-0.682-0.498-0.874-0.874-0.0797-0.156-0.145-0.381-0.18-0.819-0.0368-0.45-0.0376-1.03-0.0376-1.89v-6.4c0-0.857 7.8e-4 -1.44 0.0376-1.89 0.0358-0.438 0.101-0.663 0.18-0.819 0.192-0.376 0.498-0.682 0.874-0.874 0.156-0.0797 0.381-0.145 0.819-0.18 0.45-0.0368 1.03-0.0376 1.89-0.0376h2.2v3.5c0 0.276 0.224 0.5 0.5 0.5h3.5v0.547c0 0.25 0.208 0.451 0.457 0.473 0.285 0.0258 0.543-0.188 0.543-0.474v-0.552c0-0.178 0-0.313-0.0048-0.425zm-4-3.16 2.59 2.59h-2.59v-2.59z" clip-rule="evenodd" fill="#000" fill-rule="evenodd"/><path d="m11 15c0.834 0 1.61-0.255 2.25-0.691l1.47 1.47c0.293 0.293 0.768 0.293 1.06 0s0.293-0.768 0-1.06l-1.47-1.47c0.436-0.641 0.691-1.41 0.691-2.25 0-2.21-1.79-4-4-4-2.21 0-4 1.79-4 4 0 2.21 1.79 4 4 4zm0-1c1.66 0 3-1.34 3-3 0-1.66-1.34-3-3-3-1.66 0-3 1.34-3 3 0 1.66 1.34 3 3 3z" clip-rule="evenodd" fill="#000" fill-rule="evenodd"/></svg>
