<svg viewBox="0 0 16 16" xmlns="http://www.w3.org/2000/svg"><path d="m6.25 14.3c-0.641 0.436-1.41 0.691-2.25 0.691-2.21 0-4-1.79-4-4 0-2.21 1.79-4 4-4s4 1.79 4 4c0 0.834-0.255 1.61-0.691 2.25l1.47 1.47c0.293 0.293 0.293 0.768 0 1.06s-0.768 0.293-1.06 0l-1.47-1.47zm0.752-3.31c0 1.66-1.34 3-3 3s-3-1.34-3-3c0-1.66 1.34-3 3-3s3 1.34 3 3z" clip-rule="evenodd" fill="#000" fill-rule="evenodd"/><path d="m5.5 1c-0.276 0-0.5 0.224-0.5 0.5v3.5c0 0.276-0.224 0.5-0.5 0.5s-0.5-0.224-0.5-0.5h-1c-0.552 0-1 0.448-1 1 0 0.276-0.224 0.5-0.5 0.5s-0.5-0.224-0.5-0.5c0-1.1 0.895-2 2-2h1v-2.5c0-0.828 0.672-1.5 1.5-1.5h4.59c0.398 0 0.779 0.158 1.06 0.439l1.41 1.41c0.281 0.281 0.439 0.663 0.439 1.06v1.09h1c1.1 0 2 0.895 2 2v4c0 0.798-0.468 1.49-1.14 1.81l1.04 1.39c0.114 0.152 0.132 0.354 0.0472 0.524s-0.258 0.276-0.447 0.276h-5c-0.276 0-0.5-0.224-0.5-0.5s0.224-0.5 0.5-0.5h4l-2.25-3h-2.75c-0.276 0-0.5-0.224-0.5-0.5s0.224-0.5 0.5-0.5h3c0.157 0 0.306 0.0741 0.4 0.2l1.33 1.77c0.441-0.104 0.77-0.5 0.77-0.973v-4c0-0.552-0.448-1-1-1h-1v1.5c0 0.828-0.672 1.5-1.5 1.5h-3c-0.276 0-0.5-0.224-0.5-0.5s0.224-0.5 0.5-0.5h3c0.276 0 0.5-0.224 0.5-0.5v-3.5h-1.5c-0.276 0-0.5-0.224-0.5-0.5v-1.5h-4.5z" clip-rule="evenodd" fill="#000" fill-rule="evenodd"/></svg>
