<svg viewBox="0 0 16 16" xmlns="http://www.w3.org/2000/svg"><path d="m8.96 2.69c-0.0252 0.0607-0.062 0.116-0.109 0.162l-3.15 3.15 3.81-2e-5c0.916 0 1.63 0 2.2 0.0392 0.583 0.0398 1.06 0.122 1.5 0.303 1.1 0.457 1.98 1.33 2.44 2.44 0.182 0.439 0.264 0.916 0.303 1.5 0.0392 0.575 0.0392 1.29 0.0392 2.2v0.0188c0 0.276-0.224 0.5-0.5 0.5s-0.5-0.224-0.5-0.5c0-0.939-3e-4 -1.62-0.0369-2.15-0.0363-0.532-0.107-0.888-0.23-1.18-0.355-0.858-1.04-1.54-1.89-1.89-0.296-0.123-0.652-0.193-1.18-0.23-0.537-0.0366-1.22-0.0369-2.15-0.0369l-3.79 2e-5 3.15 3.15c0.0939 0.0939 0.147 0.221 0.147 0.354s-0.0527 0.26-0.147 0.354-0.221 0.147-0.354 0.147c-0.133 0-0.26-0.0528-0.354-0.147l-4-4c-0.0466-0.0464-0.0835-0.102-0.109-0.162-0.0252-0.0608-0.0382-0.126-0.0382-0.192s0.013-0.131 0.0382-0.192c0.0252-0.0608 0.0622-0.116 0.109-0.162l4-4c0.0465-0.0465 0.102-0.0834 0.162-0.109 0.0607-0.0252 0.126-0.0381 0.192-0.0381s0.131 0.013 0.192 0.0381 0.116 0.062 0.162 0.109 0.0834 0.102 0.109 0.162 0.0381 0.126 0.0381 0.192c0 0.0658-0.013 0.131-0.0381 0.192z" fill="#000"/><path d="m4.85 2.85c0.195-0.195 0.195-0.512 0-0.707-0.195-0.195-0.512-0.195-0.707 0l-4 4c-0.195 0.195-0.195 0.512 0 0.707l4 4c0.195 0.195 0.512 0.195 0.707 0 0.195-0.195 0.195-0.512 0-0.707l-3.65-3.65 3.65-3.65z" fill="#000"/></svg>
