<svg viewBox="0 0 16 16" xmlns="http://www.w3.org/2000/svg"><path d="m10.9 3.85c-0.195 0.195-0.512 0.195-0.707 0l-2.15-2.15v4.79c0 0.276-0.224 0.5-0.5 0.5s-0.5-0.224-0.5-0.5v-4.79l-2.15 2.15c-0.195 0.195-0.512 0.195-0.707 0-0.195-0.195-0.195-0.512 0-0.707l3-3c0.195-0.195 0.512-0.195 0.707 0l3 3c0.195 0.195 0.195 0.512 0 0.707z" fill="#000"/><path d="m10.9 12.1c-0.195-0.195-0.512-0.195-0.707 0l-2.15 2.15v-4.79c0-0.276-0.224-0.5-0.5-0.5s-0.5 0.224-0.5 0.5v4.79l-2.15-2.15c-0.195-0.195-0.512-0.195-0.707 0-0.195 0.195-0.195 0.512 0 0.707l3 3c0.195 0.195 0.512 0.195 0.707 0l3-3c0.195-0.195 0.195-0.512 0-0.707z" fill="#000"/></svg>
