<svg viewBox="0 0 16 16" xmlns="http://www.w3.org/2000/svg"><path d="m7.5 0c0.276 0 0.5 0.224 0.5 0.5v6.79l3.15-3.15c0.195-0.195 0.512-0.195 0.707 0 0.195 0.195 0.195 0.512 0 0.707l-4 4c-0.195 0.195-0.512 0.195-0.707 0l-4-4c-0.195-0.195-0.195-0.512 0-0.707 0.195-0.195 0.512-0.195 0.707 0l3.15 3.15v-6.79c0-0.276 0.224-0.5 0.5-0.5z" fill="#000"/><path d="m8.5 12c-0.276 0-0.5 0.224-0.5 0.5v1c0 0.276 0.224 0.5 0.5 0.5s0.5-0.224 0.5-0.5v-1c0-0.276-0.224-0.5-0.5-0.5z" fill="#000"/><path d="m10.5 12c-0.276 0-0.5 0.224-0.5 0.5v1c0 0.276 0.224 0.5 0.5 0.5s0.5-0.224 0.5-0.5v-1c0-0.276-0.224-0.5-0.5-0.5z" fill="#000"/><path d="m12.5 12c-0.276 0-0.5 0.224-0.5 0.5v1c0 0.276 0.224 0.5 0.5 0.5s0.5-0.224 0.5-0.5v-1c0-0.276-0.224-0.5-0.5-0.5z" fill="#000"/><path d="m0.152 11.2c-0.152 0.368-0.152 0.834-0.152 1.77s0 1.4 0.152 1.77c0.203 0.49 0.592 0.879 1.08 1.08 0.368 0.152 0.833 0.152 1.77 0.152h10c0.932 0 1.4 0 1.77-0.152 0.49-0.203 0.879-0.592 1.08-1.08 0.152-0.368 0.152-0.834 0.152-1.77s0-1.4-0.152-1.77c-0.203-0.49-0.592-0.879-1.08-1.08-0.368-0.152-0.834-0.152-1.77-0.152h-10c-0.932 0-1.4 0-1.77 0.152-0.49 0.203-0.879 0.592-1.08 1.08zm12.8-0.235h-10c-0.48 0-0.789 5e-4 -1.03 0.0167-0.228 0.0156-0.315 0.0422-0.356 0.0594-0.245 0.102-0.44 0.296-0.541 0.541-0.0172 0.0416-0.0438 0.128-0.0594 0.356-0.0162 0.237-0.0167 0.547-0.0167 1.03s5.4e-4 0.789 0.0167 1.03c0.0156 0.228 0.0422 0.315 0.0594 0.356 0.101 0.245 0.296 0.44 0.541 0.541 0.0416 0.0172 0.128 0.0438 0.356 0.0594 0.237 0.0162 0.547 0.0167 1.03 0.0167h10c0.48 0 0.789-5e-4 1.03-0.0167 0.228-0.0156 0.315-0.0422 0.356-0.0594 0.245-0.102 0.44-0.296 0.541-0.541 0.0172-0.0416 0.0438-0.128 0.0594-0.356 0.0162-0.237 0.0167-0.547 0.0167-1.03s-5e-4 -0.789-0.0167-1.03c-0.0156-0.228-0.0422-0.315-0.0594-0.356-0.102-0.245-0.296-0.44-0.541-0.541-0.0416-0.0172-0.128-0.0438-0.356-0.0594-0.237-0.0162-0.547-0.0167-1.03-0.0167z" clip-rule="evenodd" fill="#000" fill-rule="evenodd"/></svg>
