<svg viewBox="0 0 16 16" xmlns="http://www.w3.org/2000/svg"><path d="m1 2.5c0-1.38 1.12-2.5 2.5-2.5 0.276 0 0.5 0.224 0.5 0.5s-0.224 0.5-0.5 0.5c-0.828 0-1.5 0.672-1.5 1.5 0 0.276-0.224 0.5-0.5 0.5s-0.5-0.224-0.5-0.5z" fill="#000"/><path d="m1.5 4c0.276 0 0.5 0.224 0.5 0.5v1.5c0 0.276-0.224 0.5-0.5 0.5s-0.5-0.224-0.5-0.5v-1.5c0-0.276 0.224-0.5 0.5-0.5z" fill="#000"/><path d="m16 4.5c0-0.276-0.224-0.5-0.5-0.5s-0.5 0.224-0.5 0.5v2c0 0.276 0.224 0.5 0.5 0.5s0.5-0.224 0.5-0.5v-2z" fill="#000"/><path d="m15.5 8c0.276 0 0.5 0.224 0.5 0.5v2c0 0.276-0.224 0.5-0.5 0.5s-0.5-0.224-0.5-0.5v-2c0-0.276 0.224-0.5 0.5-0.5z" fill="#000"/><path d="m5.5 0c-0.276 0-0.5 0.224-0.5 0.5s0.224 0.5 0.5 0.5h2c0.276 0 0.5-0.224 0.5-0.5s-0.224-0.5-0.5-0.5h-2z" fill="#000"/><path d="m9 0.5c0-0.276 0.224-0.5 0.5-0.5h2c0.276 0 0.5 0.224 0.5 0.5s-0.224 0.5-0.5 0.5h-2c-0.276 0-0.5-0.224-0.5-0.5z" fill="#000"/><path d="m13.5 0c-0.276 0-0.5 0.224-0.5 0.5s0.224 0.5 0.5 0.5c0.828 0 1.5 0.672 1.5 1.5 0 0.276 0.224 0.5 0.5 0.5s0.5-0.224 0.5-0.5c0-1.38-1.12-2.5-2.5-2.5z" fill="#000"/><path d="m15.5 12c0.276 0 0.5 0.224 0.5 0.5 0 1.38-1.12 2.5-2.5 2.5-0.276 0-0.5-0.224-0.5-0.5s0.224-0.5 0.5-0.5c0.828 0 1.5-0.672 1.5-1.5 0-0.276 0.224-0.5 0.5-0.5z" fill="#000"/><path d="m3.19 7.54c-1.15 0.0148-1.82 0.0901-2.31 0.473-0.156 0.123-0.296 0.266-0.415 0.426-0.465 0.621-0.465 1.52-0.465 3.33 0 1.8 0 2.71 0.465 3.33 0.12 0.16 0.259 0.303 0.415 0.426 0.606 0.477 1.49 0.477 3.24 0.477h3.75c1.76 0 2.64 0 3.24-0.477 0.156-0.123 0.296-0.266 0.415-0.426 0.465-0.621 0.465-1.52 0.465-3.33 0-1.8 0-2.71-0.465-3.33-0.12-0.16-0.259-0.303-0.415-0.426-0.487-0.383-1.15-0.458-2.3-0.473l-0.499-0.819c-0.274-0.45-0.755-0.723-1.27-0.723h-2.09c-0.517 0-0.998 0.273-1.27 0.723l-0.499 0.819zm4.81 4.46c0 1.1-0.895 2-2 2s-2-0.895-2-2 0.895-2 2-2 2 0.895 2 2z" clip-rule="evenodd" fill="#000" fill-rule="evenodd"/></svg>
