<svg viewBox="0 0 16 16" xmlns="http://www.w3.org/2000/svg"><path d="m3.2 15c-1.12 0-1.68 3e-4 -2.11-0.218l-0.138-0.0772c-0.313-0.192-0.569-0.468-0.736-0.797l-0.0713-0.168c-0.146-0.409-0.146-0.96-0.146-1.94l2.45e-7 -5.6 0.00293-0.742c0.00852-0.542 0.0393-0.906 0.144-1.2l0.0713-0.168c0.168-0.329 0.423-0.605 0.736-0.797l0.138-0.0772c0.428-0.218 0.988-0.218 2.11-0.218h1.47l0.667 1h-2.13c-0.577 0-0.949 0.00126-1.23 0.0244-0.272 0.0222-0.372 0.0598-0.422 0.085-0.188 0.0958-0.341 0.249-0.437 0.437-0.0252 0.0494-0.0628 0.15-0.085 0.422-0.0232 0.283-0.0244 0.656-0.0244 1.23v5.6c0 0.577 0.00126 0.949 0.0244 1.23 0.0222 0.272 0.0598 0.372 0.085 0.422 0.0958 0.188 0.249 0.341 0.437 0.437 0.0494 0.0252 0.15 0.0627 0.422 0.0849 0.283 0.0232 0.656 0.0244 1.23 0.0244h2.8v1h-2.8z" fill="#000"/><path d="m10.8 0.169c0.232 0.225 0.232 0.591 0 0.816l-1.9 1.85c-0.232 0.225-0.609 0.225-0.842 0l-1.9-1.85c-0.232-0.225-0.232-0.591 0-0.816 0.232-0.225 0.609-0.225 0.842 0l1.48 1.44 1.48-1.44c0.232-0.225 0.609-0.225 0.842 0z" fill="#000"/><path d="m9 7.5c0 0.276-0.224 0.5-0.5 0.5-0.276 0-0.5-0.224-0.5-0.5v-2c0-0.276 0.224-0.5 0.5-0.5 0.276 0 0.5 0.224 0.5 0.5v2z" fill="#000"/><path d="m9 11.5c0 0.276-0.224 0.5-0.5 0.5-0.276 0-0.5-0.224-0.5-0.5v-2c0-0.276 0.224-0.5 0.5-0.5 0.276 0 0.5 0.224 0.5 0.5v2z" fill="#000"/><path d="m9 15.5c0 0.276-0.224 0.5-0.5 0.5-0.276 0-0.5-0.224-0.5-0.5v-2c0-0.276 0.224-0.5 0.5-0.5 0.276 0 0.5 0.224 0.5 0.5v2z" fill="#000"/><path d="m16 11.8c0 1.12 2e-4 1.68-0.218 2.11-0.192 0.376-0.498 0.682-0.874 0.874-0.428 0.218-0.988 0.218-2.11 0.218h-1.8v-1h1.8c0.576 0 0.949-0.0012 1.23-0.0244 0.272-0.0222 0.372-0.0597 0.422-0.0849 0.188-0.0959 0.341-0.249 0.436-0.437 0.0252-0.0494 0.0628-0.15 0.085-0.422 0.0231-0.283 0.0244-0.656 0.0244-1.23v-5.6c0-0.577-0.0013-0.949-0.0244-1.23-0.0222-0.272-0.0598-0.372-0.085-0.422-0.0958-0.188-0.249-0.341-0.436-0.437-0.0495-0.0252-0.15-0.0628-0.422-0.085-0.283-0.0232-0.656-0.0244-1.23-0.0244h-1.13l0.667-1h0.466c1.12 0 1.68-2.1e-4 2.11 0.218 0.376 0.192 0.682 0.498 0.874 0.874 0.164 0.321 0.205 0.716 0.215 1.37l3e-3 0.742v5.6z" fill="#000"/></svg>
