<svg viewBox="0 0 16 16" xmlns="http://www.w3.org/2000/svg"><path d="m15 12.8c0 1.12 2e-4 1.68-0.218 2.11l-0.0771 0.138c-0.192 0.313-0.468 0.569-0.797 0.736l-0.168 0.0713c-0.409 0.146-0.96 0.146-1.94 0.146h-5.6l-0.742-0.0029c-0.542-0.0085-0.906-0.0393-1.2-0.144l-0.168-0.0713c-0.329-0.168-0.605-0.423-0.797-0.736l-0.0772-0.138c-0.218-0.428-0.218-0.988-0.218-2.11v-1.47l1-0.667v2.13c0 0.577 0.00126 0.949 0.0244 1.23 0.0222 0.272 0.0598 0.372 0.085 0.422 0.0958 0.188 0.249 0.341 0.437 0.436 0.0494 0.0252 0.15 0.0628 0.422 0.085 0.283 0.0231 0.656 0.0244 1.23 0.0244h5.6c0.577 0 0.949-0.0013 1.23-0.0244 0.272-0.0222 0.372-0.0598 0.422-0.085 0.188-0.0958 0.341-0.248 0.436-0.436 0.0252-0.0494 0.0628-0.15 0.085-0.422 0.0231-0.283 0.0244-0.656 0.0244-1.23v-2.8h1v2.8z" fill="#000"/><path d="m0.169 5.17c0.225-0.232 0.591-0.232 0.816 0l1.85 1.9c0.225 0.232 0.225 0.609 0 0.842l-1.85 1.9c-0.225 0.232-0.591 0.232-0.816 0-0.225-0.232-0.225-0.609 0-0.842l1.44-1.48-1.44-1.48c-0.225-0.232-0.225-0.609 0-0.842z" fill="#000"/><path d="m7.5 7c0.276 0 0.5 0.224 0.5 0.5s-0.224 0.5-0.5 0.5h-2c-0.276 0-0.5-0.224-0.5-0.5s0.224-0.5 0.5-0.5h2z" fill="#000"/><path d="m11.5 7c0.276 0 0.5 0.224 0.5 0.5s-0.224 0.5-0.5 0.5h-2c-0.276 0-0.5-0.224-0.5-0.5s0.224-0.5 0.5-0.5h2z" fill="#000"/><path d="m15.5 7c0.276 0 0.5 0.224 0.5 0.5s-0.224 0.5-0.5 0.5h-2c-0.276 0-0.5-0.224-0.5-0.5s0.224-0.5 0.5-0.5h2z" fill="#000"/><path d="m11.8 8.17e-10c1.12 0 1.68-2.14e-4 2.11 0.218 0.376 0.192 0.682 0.498 0.874 0.874 0.218 0.428 0.218 0.988 0.218 2.11v1.8h-1v-1.8c0-0.577-0.0013-0.949-0.0244-1.23-0.0222-0.272-0.0598-0.372-0.085-0.422-0.0958-0.188-0.248-0.341-0.436-0.437-0.0494-0.0252-0.15-0.0628-0.422-0.085-0.283-0.0232-0.656-0.0244-1.23-0.0244h-5.6c-0.577 0-0.949 0.00126-1.23 0.0244-0.272 0.0222-0.372 0.0598-0.422 0.085-0.188 0.0958-0.341 0.249-0.437 0.437-0.0252 0.0494-0.0628 0.15-0.085 0.422-0.0232 0.283-0.0244 0.656-0.0244 1.23v1.13l-1-0.667v-0.466c0-1.12-2.1e-4 -1.68 0.218-2.11 0.192-0.376 0.498-0.682 0.874-0.874 0.321-0.163 0.716-0.205 1.37-0.215l0.742-0.00293h5.6z" fill="#000"/></svg>
