<svg viewBox="0 0 16 16" xmlns="http://www.w3.org/2000/svg"><path d="m2.5 15c0.276 0 0.5-0.224 0.5-0.5v-11.8l1.15 1.15c0.195 0.195 0.512 0.195 0.707 0 0.195-0.195 0.195-0.512 0-0.707l-2-2c-0.195-0.195-0.512-0.195-0.707 0l-2 2c-0.195 0.195-0.195 0.512 0 0.707 0.195 0.195 0.512 0.195 0.707 0l1.15-1.15v11.8c0 0.276 0.224 0.5 0.5 0.5z" fill="#000"/><path d="m8.09 5.25 1.58-3.05c0.135-0.261 0.522-0.261 0.657 0l1.58 3.05c0.0534 0.103 0.156 0.175 0.275 0.192l3.51 0.499c0.3 0.0426 0.419 0.396 0.203 0.6l-2.53 2.38c-0.0857 0.0807-0.125 0.197-0.105 0.31l0.59 3.36c0.0504 0.287-0.263 0.506-0.531 0.371l-3.14-1.58c-0.106-0.0533-0.233-0.0533-0.34 0l-3.14 1.58c-0.269 0.135-0.582-0.0838-0.531-0.371l0.59-3.36c0.02-0.114-0.0192-0.23-0.105-0.31l-2.53-2.38c-0.216-0.204-0.0968-0.557 0.203-0.6l3.51-0.499c0.119-0.0169 0.221-0.0885 0.275-0.192zm0.892 0.441 1.01-1.96 1.01 1.96c0.203 0.392 0.587 0.656 1.02 0.718l2.22 0.315-1.59 1.5c-0.322 0.303-0.474 0.744-0.397 1.18l0.374 2.13-2.01-1.01c-0.393-0.197-0.86-0.197-1.25 0l-2.01 1.01 0.374-2.13c0.0766-0.436-0.0749-0.877-0.397-1.18l-1.59-1.5 2.22-0.315c0.436-0.062 0.82-0.326 1.02-0.718z" clip-rule="evenodd" fill="#000" fill-rule="evenodd"/></svg>
