<svg viewBox="0 0 16 16" xmlns="http://www.w3.org/2000/svg"><path d="m8.45e-9 14.1c-3.65e-7 -0.272-4.11e-5 -0.506 0.0156-0.697 0.0161-0.197 0.0513-0.394 0.147-0.583 0.144-0.282 0.374-0.512 0.656-0.656 0.189-0.0962 0.386-0.131 0.583-0.148 0.192-0.0156 0.426-0.0156 0.697-0.0156h11.8c0.272 0 0.506 0 0.697 0.0156 0.197 0.0162 0.394 0.0513 0.583 0.148 0.282 0.144 0.512 0.374 0.656 0.656 0.0962 0.189 0.131 0.386 0.148 0.583 0.0156 0.192 0.0156 0.426 0.0156 0.697v1.4c0 0.276-0.224 0.5-0.5 0.5s-0.5-0.224-0.5-0.5v-1.4c0-0.288-2e-4 -0.474-0.0117-0.615-0.0111-0.135-0.0304-0.186-0.043-0.211-0.0479-0.094-0.125-0.171-0.219-0.219-0.0249-0.0126-0.0756-0.0319-0.211-0.043-0.142-0.0115-0.328-0.0117-0.615-0.0117h-11.8c-0.288 0-0.474 2e-4 -0.615 0.0117-0.135 0.0111-0.186 0.0304-0.211 0.043-0.0941 0.0479-0.171 0.125-0.219 0.219-0.0126 0.0249-0.0319 0.0756-0.043 0.211-0.0115 0.142-0.0117 0.328-0.0117 0.615v1.4c0 0.276-0.224 0.5-0.5 0.5s-0.5-0.224-0.5-0.5v-1.4z" fill="#000"/><path d="m1.87e-7 0.5c3.29e-9 -0.276 0.224-0.5 0.5-0.5 0.276 3.29e-9 0.5 0.224 0.5 0.5v1.4c0 0.288 1.9e-4 0.474 0.0117 0.615 0.0111 0.135 0.0304 0.186 0.043 0.211 0.0479 0.0941 0.125 0.171 0.219 0.219 0.0248 0.0126 0.0756 0.0319 0.211 0.043 0.142 0.0115 0.328 0.0117 0.615 0.0117h11.8c0.288 0 0.474-1.9e-4 0.615-0.0117 0.135-0.0111 0.186-0.0304 0.211-0.043 0.094-0.0479 0.171-0.125 0.219-0.219 0.0126-0.0248 0.0319-0.0756 0.043-0.211 0.0115-0.142 0.0117-0.328 0.0117-0.615v-1.4c0-0.276 0.224-0.5 0.5-0.5s0.5 0.224 0.5 0.5v1.4c0 0.272 0 0.506-0.0156 0.697-0.0162 0.197-0.0513 0.394-0.148 0.583-0.144 0.282-0.374 0.512-0.656 0.656-0.189 0.0962-0.386 0.131-0.583 0.147-0.192 0.0157-0.426 0.0156-0.697 0.0156h-11.8c-0.272 0-0.506 4e-5 -0.697-0.0156-0.197-0.0162-0.394-0.0513-0.583-0.147-0.282-0.144-0.512-0.374-0.656-0.656-0.0962-0.189-0.131-0.386-0.147-0.583-0.0157-0.192-0.0156-0.426-0.0156-0.697v-1.4z" fill="#000"/><path d="m4 8c0-0.552 0.448-1 1-1h6c0.552 0 1 0.448 1 1s-0.448 1-1 1h-6c-0.552 0-1-0.448-1-1z" fill="#000"/></svg>
