<svg viewBox="0 0 16 16" xmlns="http://www.w3.org/2000/svg"><path d="m6.5 7c0.276 0 0.5 0.224 0.5 0.5v4c0 0.276-0.224 0.5-0.5 0.5s-0.5-0.224-0.5-0.5v-4c0-0.276 0.224-0.5 0.5-0.5z" fill="#000"/><path d="m10 7.5c0-0.276-0.224-0.5-0.5-0.5s-0.5 0.224-0.5 0.5v4c0 0.276 0.224 0.5 0.5 0.5s0.5-0.224 0.5-0.5v-4z" fill="#000"/><path d="m8.12 2.05e-7h-0.241c-0.402-6.16e-6 -0.735-1.12e-5 -1.01 0.0221-0.281 0.023-0.539 0.0722-0.782 0.196-0.376 0.192-0.682 0.498-0.874 0.874-0.124 0.243-0.173 0.501-0.196 0.782-0.0221 0.271-0.0221 0.603-0.0221 1.01v0.121h-3.5c-0.276 0-0.5 0.224-0.5 0.5s0.224 0.5 0.5 0.5h0.54l0.597 7.16c0.0632 0.758 0.113 1.36 0.192 1.84 0.0802 0.492 0.196 0.9 0.411 1.27 0.353 0.604 0.879 1.09 1.51 1.39 0.385 0.184 0.802 0.265 1.3 0.304 0.486 0.0383 1.09 0.0383 1.85 0.0383h0.209c0.761 0 1.36 0 1.85-0.0383 0.497-0.0391 0.913-0.12 1.3-0.304 0.631-0.302 1.16-0.786 1.51-1.39 0.216-0.368 0.331-0.777 0.411-1.27 0.0785-0.481 0.128-1.08 0.192-1.84l0.597-7.16h0.54c0.276 0 0.5-0.224 0.5-0.5s-0.224-0.5-0.5-0.5h-3.5v-0.121c0-0.402 0-0.735-0.0221-1.01-0.023-0.281-0.0722-0.539-0.196-0.782-0.192-0.376-0.498-0.682-0.874-0.874-0.243-0.124-0.501-0.173-0.782-0.196-0.271-0.0221-0.603-0.0221-1.01-0.0221zm-5.08 4 0.588 7.06c0.0654 0.784 0.112 1.34 0.184 1.78 0.0704 0.432 0.159 0.705 0.287 0.924 0.252 0.431 0.628 0.777 1.08 0.992 0.229 0.11 0.509 0.175 0.945 0.21 0.442 0.0348 1 0.0352 1.79 0.0352h0.167c0.787 0 1.35-4e-4 1.79-0.0352 0.436-0.0343 0.716-0.1 0.945-0.21 0.451-0.216 0.826-0.561 1.08-0.992 0.128-0.219 0.217-0.493 0.288-0.924 0.0714-0.438 0.118-0.997 0.184-1.78l0.588-7.06h-9.91zm2.96-1h4v-0.1c0-0.428-3.9e-4 -0.719-0.0188-0.944-0.0179-0.219-0.0504-0.331-0.0902-0.41-0.0959-0.188-0.249-0.341-0.437-0.437-0.0782-0.0398-0.19-0.0723-0.41-0.0902-0.225-0.0184-0.516-0.0188-0.944-0.0188h-0.2c-0.428 0-0.719 3.9e-4 -0.944 0.0188-0.219 0.0179-0.331 0.0504-0.41 0.0902-0.188 0.0959-0.341 0.249-0.437 0.437-0.0398 0.0782-0.0723 0.19-0.0902 0.41-0.0184 0.225-0.0188 0.516-0.0188 0.944v0.1z" clip-rule="evenodd" fill="#000" fill-rule="evenodd"/></svg>
