<svg fill="none" viewBox="0 0 16 16" xmlns="http://www.w3.org/2000/svg"><path d="m2.71e-7 9.1c1.8e-8 0.412-2.47e-5 0.751 0.0225 1.03 0.023 0.281 0.0717 0.54 0.195 0.782 0.192 0.376 0.498 0.682 0.874 0.874 0.243 0.124 0.501 0.172 0.782 0.195 0.275 0.0225 0.615 0.0225 1.03 0.0225h4.6c0.276 0 0.5-0.224 0.5-0.5s-0.224-0.5-0.5-0.5h-4.6c-0.428 0-0.72-2e-4 -0.945-0.0186-0.219-0.0179-0.331-0.051-0.409-0.0908-0.188-0.0958-0.341-0.248-0.437-0.436-0.0398-0.0781-0.0729-0.19-0.0908-0.409-0.0184-0.225-0.0186-0.517-0.0186-0.945v-6.2c0-0.428 1.7e-4 -0.72 0.0186-0.945 0.0179-0.219 0.051-0.331 0.0908-0.409 0.0958-0.188 0.249-0.341 0.437-0.437 0.0782-0.0398 0.19-0.0729 0.409-0.0908 0.225-0.0184 0.517-0.0186 0.945-0.0186h9.6c1.38 0 2.5 1.12 2.5 2.5s-1.12 2.5-2.5 2.5h-0.5c-0.552 0-1-0.448-1-1s0.448-1 1-1h1c0.276 0 0.5-0.224 0.5-0.5s-0.224-0.5-0.5-0.5h-1c-1.1 0-2 0.895-2 2v9c0 1.1 0.895 2 2 2h0.5c1.93 0 3.5-1.57 3.5-3.5v-9c0-1.93-1.57-3.5-3.5-3.5l-9.6 4.2e-7c-0.412 1.8e-8 -0.751-2.47e-5 -1.03 0.0225-0.281 0.023-0.54 0.0717-0.782 0.195-0.376 0.192-0.682 0.498-0.874 0.874-0.124 0.243-0.172 0.501-0.195 0.782-0.0225 0.275-0.0225 0.615-0.0225 1.03l2.71e-7 6.2zm11-2.37c0.294 0.17 0.635 0.27 1 0.27h0.5c0.98 0 1.86-0.403 2.5-1.05v6.55c0 1.38-1.12 2.5-2.5 2.5h-0.5c-0.552 0-1-0.448-1-1v-7.27z" clip-rule="evenodd" fill="#000" fill-rule="evenodd"/></svg>
