<svg viewBox="0 0 16 16" xmlns="http://www.w3.org/2000/svg"><path d="m9.8 4h-4.53c0.193-0.334 0.479-0.606 0.824-0.782 0.428-0.218 0.988-0.218 2.11-0.218h1.6c1.12 0 1.68 0 2.11 0.218 0.376 0.192 0.682 0.498 0.874 0.874 0.218 0.428 0.218 0.988 0.218 2.11v1.6c0 1.12 0 1.68-0.218 2.11-0.176 0.345-0.448 0.631-0.782 0.824v-4.53c0-0.577-8e-4 -0.949-0.0239-1.23-0.0222-0.272-0.0599-0.372-0.0851-0.422-0.0959-0.188-0.249-0.341-0.437-0.437-0.0495-0.0252-0.15-0.0629-0.422-0.0851-0.283-0.0232-0.656-0.0239-1.23-0.0239z" fill="#000"/><path d="m3 8.2c0-1.12 0-1.68 0.218-2.11 0.192-0.376 0.498-0.682 0.874-0.874 0.428-0.218 0.988-0.218 2.11-0.218h1.6c1.12 0 1.68 0 2.11 0.218 0.376 0.192 0.682 0.498 0.874 0.874 0.218 0.428 0.218 0.988 0.218 2.11v1.6c0 1.12 0 1.68-0.218 2.11-0.192 0.376-0.498 0.682-0.874 0.874-0.428 0.218-0.988 0.218-2.11 0.218h-1.6c-1.12 0-1.68 0-2.11-0.218-0.376-0.192-0.682-0.498-0.874-0.874-0.218-0.428-0.218-0.988-0.218-2.11v-1.6zm3.2-2.2h1.6c0.577 0 0.949 7.8e-4 1.23 0.0239 0.272 0.0222 0.372 0.0599 0.422 0.0851 0.188 0.0959 0.341 0.249 0.437 0.437 0.0252 0.0494 0.0629 0.15 0.0851 0.422 0.0232 0.283 0.0239 0.656 0.0239 1.23v1.6c0 0.577-7.8e-4 0.949-0.0239 1.23-0.0222 0.272-0.0599 0.372-0.0851 0.422-0.0959 0.188-0.249 0.341-0.437 0.437-0.0494 0.0252-0.15 0.0629-0.422 0.0851-0.283 0.0231-0.656 0.0239-1.23 0.0239h-1.6c-0.577 0-0.949-8e-4 -1.23-0.0239-0.272-0.0222-0.372-0.0599-0.422-0.0851-0.188-0.0959-0.341-0.249-0.437-0.437-0.0252-0.0495-0.0629-0.15-0.0851-0.422-0.0232-0.283-0.0239-0.656-0.0239-1.23v-1.6c0-0.577 7.8e-4 -0.949 0.0239-1.23 0.0222-0.272 0.0599-0.372 0.0851-0.422 0.0959-0.188 0.249-0.341 0.437-0.437 0.0494-0.0252 0.15-0.0629 0.422-0.0851 0.283-0.0232 0.656-0.0239 1.23-0.0239z" clip-rule="evenodd" fill="#000" fill-rule="evenodd"/></svg>
