<svg fill="none" viewBox="0 0 16 16" xmlns="http://www.w3.org/2000/svg"><path d="m8 8.71-4.15 4.15c-0.0976 0.0977-0.215 0.146-0.352 0.146-0.143 0-0.264-0.0472-0.361-0.142-0.0944-0.0977-0.142-0.218-0.142-0.361 0-0.137 0.0488-0.254 0.146-0.352l4.15-4.15-4.15-4.15c-0.0976-0.0976-0.146-0.216-0.146-0.356 0-0.0684 0.013-0.133 0.0391-0.195 0.026-0.0618 0.0618-0.114 0.107-0.156 0.0456-0.0456 0.0993-0.0814 0.161-0.107s0.127-0.0391 0.195-0.0391c0.137 0 0.254 0.0488 0.352 0.146l4.15 4.15 4.15-4.15c0.0977-0.0976 0.216-0.146 0.356-0.146 0.0683 0 0.132 0.013 0.19 0.0391 0.0618 0.026 0.116 0.0618 0.161 0.107 0.0456 0.0456 0.0814 0.0993 0.107 0.161 0.0261 0.0586 0.0391 0.122 0.0391 0.19 0 0.14-0.0488 0.259-0.146 0.356l-4.15 4.15 4.15 4.15c0.0977 0.0977 0.146 0.215 0.146 0.352 0 0.0683-0.013 0.133-0.0391 0.195-0.026 0.0618-0.0618 0.116-0.107 0.161-0.0423 0.0456-0.0944 0.0814-0.156 0.107-0.0619 0.0261-0.127 0.0391-0.195 0.0391-0.14 0-0.259-0.0488-0.356-0.146l-4.15-4.15z" fill="#000"/></svg>
