<svg viewBox="0 0 16 16" xmlns="http://www.w3.org/2000/svg"><path d="m8.5 6c0.276 0 0.5 0.224 0.5 0.5s-0.224 0.5-0.5 0.5h-4c-0.276 0-0.5-0.224-0.5-0.5s0.224-0.5 0.5-0.5h4z" fill="#000"/><path d="m10 10.7c-0.954 0.795-2.18 1.27-3.52 1.27-3.04 0-5.5-2.46-5.5-5.5s2.46-5.5 5.5-5.5 5.5 2.46 5.5 5.5c0 1.34-0.478 2.57-1.27 3.52l3.92 3.92c0.195 0.195 0.195 0.512 0 0.707-0.195 0.195-0.512 0.195-0.707 0l-3.92-3.92zm0.98-4.23c0 2.49-2.01 4.5-4.5 4.5s-4.5-2.01-4.5-4.5 2.01-4.5 4.5-4.5 4.5 2.01 4.5 4.5z" clip-rule="evenodd" fill="#000" fill-rule="evenodd"/></svg>
