<svg xmlns="http://www.w3.org/2000/svg" viewBox="0 0 520 100"><defs><clipPath id="a"><path fill="none" d="M98.84 54.2c0 20.2-13.88 36.58-39.42 36.58S20 74.4 20 54.2s17.65-34.71 39.42-34.71S98.84 34 98.84 54.2Z"/></clipPath></defs><g data-name="Layer 1" style="isolation:isolate"><path fill="#41cd52" d="M18 0 0 18v82h502l18-18V0H18z"/><path fill="#fff" d="M162.28 73q-11.24 0-15.66-6t-4.43-19.12q0-13.06 4.5-19.4t15.59-6.34q11.08 0 15.55 6.3t4.46 19.41a43.91 43.91 0 0 1-1.83 14 15.57 15.57 0 0 1-6 8.14l6 9.72-7.41 3.46-6.41-10.51a16.33 16.33 0 0 1-4.36.34Zm-9.36-11.2q2.45 4.2 9.36 4.2t9.32-4.14q2.42-4.14 2.41-14t-2.48-14.33q-2.49-4.46-9.25-4.46T153 33.52q-2.52 4.47-2.52 14.26t2.44 14ZM191.08 72.18v-51h7.85v51ZM234.49 65.7l2-.21.14 5.83A74.87 74.87 0 0 1 222.11 73q-8 0-11.49-4.39t-3.49-14q0-19.15 15.63-19.16 15.12 0 15.12 16.49l-.51 5.62h-22.32c0 3 .7 5.16 1.95 6.55s3.57 2.09 7 2.09 6.89-.2 10.49-.5Zm-4.32-14.25c0-3.55-.56-6-1.69-7.45s-3-2.13-5.72-2.13-4.65.75-5.87 2.23S215 48 215 51.45ZM253.28 72.18h-7.84v-36h7.77v2.24a18.69 18.69 0 0 1 9.36-3q6.27 0 9.15 3.53a27.29 27.29 0 0 1 13-3.53q6.48 0 9.14 4t2.67 13.5v19.26h-7.78V53.1q0-5.82-1.19-8.27c-.79-1.64-2.43-2.45-4.93-2.45a19.49 19.49 0 0 0-7 1.44l-1.23.5q.58 1.44.58 9.22v18.64h-7.78v-18.5q0-6.41-1.15-8.85c-.77-1.64-2.45-2.45-5-2.45a15.72 15.72 0 0 0-6.7 1.44l-1.08.43ZM331.4 65.7l2-.21.14 5.83A74.87 74.87 0 0 1 319 73q-8 0-11.48-4.39t-3.5-14q0-19.15 15.63-19.16 15.12 0 15.12 16.49l-.51 5.62H312c.05 3 .7 5.16 2 6.55s3.57 2.09 7 2.09 6.8-.2 10.4-.5Zm-4.32-14.25c0-3.55-.56-6-1.69-7.45s-3-2.13-5.72-2.13-4.65.75-5.87 2.23-1.86 3.94-1.91 7.35ZM350.2 72.18h-7.85v-36h7.77v2.24a20 20 0 0 1 9.94-3q7.2 0 9.83 4.07t2.63 13.43v19.26h-7.78V53.1q0-5.82-1.26-8.27c-.84-1.64-2.56-2.45-5.15-2.45a17.78 17.78 0 0 0-7.05 1.44l-1.08.43ZM401 42.88h-9.94v15.84q0 4.39.65 5.83c.43 1 1.54 1.44 3.31 1.44l5.91-.21.36 6.26A42.54 42.54 0 0 1 394 73c-4.08 0-6.87-.94-8.39-2.81s-2.26-5.4-2.26-10.58V42.88h-4.61v-6.7h4.61V25.75h7.77v10.43H401ZM407.44 30.06v-8.27h7.84v8.27Zm0 42.12v-36h7.84v36ZM432.63 72.18h-7.84v-36h7.77v2.24a20 20 0 0 1 9.94-3q7.2 0 9.83 4.07t2.67 13.4v19.29h-7.78V53.1q0-5.82-1.26-8.27c-.84-1.64-2.56-2.45-5.15-2.45a17.87 17.87 0 0 0-7.06 1.44l-1.08.43ZM489.73 65.7l2-.21.14 5.83A74.87 74.87 0 0 1 477.35 73q-8 0-11.49-4.39t-3.49-14q0-19.15 15.63-19.16 15.11 0 15.11 16.49l-.5 5.62h-22.32c0 3 .7 5.16 1.94 6.55s3.58 2.09 7 2.09 6.9-.2 10.5-.5Zm-4.32-14.25c0-3.55-.56-6-1.69-7.45s-3-2.13-5.72-2.13-4.65.75-5.87 2.23-1.86 3.94-1.91 7.35Z"/><path fill="#ff8d3c" d="M98.84 54.2c0 20.2-13.88 36.58-39.42 36.58S20 74.4 20 54.2s17.65-34.71 39.42-34.71S98.84 34 98.84 54.2Z"/><g clip-path="url(#a)"><path fill="#ff9e2e" d="M86.48 51.06c0 18.38-9.37 33.28-32.43 33.28S20 71 20 51.06s12.53-31.57 34.05-31.57 32.43 13.2 32.43 31.57Z"/></g><path fill="#ffc46d" d="M55.74 41.5c-.54 4.21-4.21 7.21-10 6.46s-9.05-4.64-8.51-8.86 4.54-7.17 10.48-6.4 8.58 4.58 8.03 8.8Z"/><path fill="#ffc46d" d="M59.42 21.06c21.58 0 37.84 14.25 37.84 33.14 0 9.8-3.43 18.55-9.66 24.8-6.76 6.66-16.5 10.2-28.18 10.2S38 85.66 31.24 79c-6.24-6.25-9.67-15-9.67-24.8 0-18.89 16.27-33.14 37.85-33.14m0-1.57C37.65 19.49 20 34 20 54.2s13.88 36.58 39.42 36.58S98.84 74.4 98.84 54.2 81.19 19.49 59.42 19.49Z" style="mix-blend-mode:soft-light"/><path fill="#229867" d="M57.1 10.45c1.15 3 3 3.13 3.31 4.78.55 3-4.95 6.45-4.58 6.91.23.29 2.1-1.27 3.32-.58.75.43.79 1.47 1.26 1.46s.57-1.38 1.37-1.66C62.86 21 64.4 23 64.6 22.83s-1.09-1.48-1.75-3.22-.27-2.82-.29-5c0-3.19-1-7.87-3.12-8.38a2.55 2.55 0 0 0-2.54 1.2c-.57.96-.13 2.15.2 3.02ZM64.73 10.52s12.7 1.79 17.19 9.11-.1 11.62 11 21.61S120 48.45 120 48.45s-4.39-7.94-9.5-17.63S99.6 11.66 85.11 9s-20.38 1.52-20.38 1.52Z"/><path fill="#229867" d="M60.65 11.1c.21-.33.79-1.12 4.43-1.79 2.35-.42 4.31-.78 4.74 0a1.39 1.39 0 0 1-.42 1.48c-.9.82-2.18-.22-4.11 0-2.78.31-4.16 2.9-4.85 2.42-.39-.28-.23-1.37.21-2.11Z"/><path fill="#3faa6b" d="M120 48.45s-5.83-1.83-12.18-8.12-5.89-16-15.45-23.52-25-7.07-26.15-6c3.48.72 12.16 3.05 15.71 8.84 4.49 7.32-.1 11.62 11 21.61S120 48.45 120 48.45Z"/></g></svg>