<svg xmlns="http://www.w3.org/2000/svg" viewBox="0 0 16 16" fill="none">
  <path fill="#000"
    d="M5.1 4.8a.5.5 0 1 1 .8-.6L8 7V.5a.5.5 0 0 1 1 0V7l2.1-2.8a.5.5 0 0 1 .8.6l-3 4c-.006.008-.017.012-.024.02a.468.468 0 0 1-.116.1.339.339 0 0 1-.05.034.466.466 0 0 1-.42 0 .339.339 0 0 1-.05-.034.468.468 0 0 1-.116-.1c-.007-.008-.018-.012-.024-.02l-3-4Zm.65 9.95a1.25 1.25 0 1 1-2.5 0 1.25 1.25 0 0 1 2.5 0Zm8 0a1.25 1.25 0 1 1-2.5 0 1.25 1.25 0 0 1 2.5 0ZM14 5.5a.5.5 0 0 0-.5.5l-.5 4H4.09l-1.1-6.582A.5.5 0 0 0 2.5 3h-1a.5.5 0 1 0 0 1h.576l1.431 8.582A.5.5 0 0 0 4 13h9a.5.5 0 1 0 0-1H4.424l-.167-1H13a1 1 0 0 0 .992-.876L14.5 6a.5.5 0 0 0-.5-.5Z" />
</svg>