<svg xmlns="http://www.w3.org/2000/svg" viewBox="0 0 16 16" fill="none">
  <path fill="#000" fill-rule="evenodd"
    d="M7.942 0c-.409 0-.687 0-.93.048a2.5 2.5 0 0 0-1.964 1.965C5 2.255 5 2.533 5 2.943V5H3.658c-.713 0-1.07 0-1.36.13a1.5 1.5 0 0 0-.633.528c-.179.263-.242.614-.369 1.316l-.938 5.2c-.175.971-.263 1.456-.126 1.835a1.5 1.5 0 0 0 .66.79C1.24 15 1.732 15 2.72 15h10.75c.973 0 1.46 0 1.805-.198a1.5 1.5 0 0 0 .66-.777c.14-.374.061-.854-.097-1.814l-.855-5.2c-.117-.714-.176-1.071-.354-1.34a1.5 1.5 0 0 0-.635-.539C13.7 5 13.339 5 12.614 5H11V2.942c0-.408 0-.687-.048-.93A2.5 2.5 0 0 0 8.988.049C8.745 0 8.467 0 8.058 0h-.116Zm2.554 6h2.118c.378 0 .605 0 .776.014.08.006.127.013.157.02.026.005.035.01.037.01a.5.5 0 0 1 .212.18c0 .001.006.01.016.035.011.028.026.074.045.151.04.167.078.391.14.763l.854 5.2c.082.498.132.808.15 1.041a.87.87 0 0 1-.002.261.5.5 0 0 1-.22.26c0-.002.001-.002 0 0a.873.873 0 0 1-.258.044c-.233.02-.547.021-1.051.021H2.72c-.511 0-.83 0-1.067-.021a.889.889 0 0 1-.26-.046c-.002 0-.002 0 0 0a.5.5 0 0 1-.22-.263c0 .002 0 .002 0 0a.885.885 0 0 1 0-.265c.023-.236.078-.55.17-1.053l.937-5.2c.066-.366.107-.586.15-.75.019-.075.034-.12.045-.148a.19.19 0 0 1 .017-.034.5.5 0 0 1 .211-.177c.002 0 .011-.005.037-.01.029-.006.076-.014.154-.02.169-.012.393-.013.764-.013h6.838ZM10 5V3c0-.488-.002-.66-.029-.792a1.5 1.5 0 0 0-1.178-1.179C8.66 1.003 8.489 1 8 1c-.489 0-.66.003-.793.03A1.5 1.5 0 0 0 6.03 2.207C6.002 2.34 6 2.512 6 3v2h4Z"
    clip-rule="evenodd" />
</svg>